G04 #@! TF.GenerationSoftware,KiCad,Pcbnew,(5.1.5)-3*
G04 #@! TF.CreationDate,2020-10-16T01:59:12+02:00*
G04 #@! TF.ProjectId,Christmas B,43687269-7374-46d6-9173-20422e6b6963,rev?*
G04 #@! TF.SameCoordinates,Original*
G04 #@! TF.FileFunction,Profile,NP*
%FSLAX46Y46*%
G04 Gerber Fmt 4.6, Leading zero omitted, Abs format (unit mm)*
G04 Created by KiCad (PCBNEW (5.1.5)-3) date 2020-10-16 01:59:12*
%MOMM*%
%LPD*%
G04 APERTURE LIST*
%ADD10C,0.050000*%
G04 APERTURE END LIST*
D10*
X109791500Y-61341000D02*
X110109000Y-62103000D01*
X108902500Y-60007500D02*
X109791500Y-61341000D01*
X107696000Y-59182000D02*
X108902500Y-60007500D01*
X105664000Y-58928000D02*
X107696000Y-59182000D01*
X99441000Y-61849000D02*
X99123500Y-63373000D01*
X99695000Y-61277500D02*
X99441000Y-61849000D01*
X100520500Y-60388500D02*
X99695000Y-61277500D01*
X101663500Y-59563000D02*
X100520500Y-60388500D01*
X102997000Y-59118500D02*
X101663500Y-59563000D01*
X102997000Y-59118500D02*
X103886000Y-58928000D01*
X95885000Y-128905000D02*
X97218500Y-129603500D01*
X94234000Y-128524000D02*
X95885000Y-128905000D01*
X92710000Y-146240500D02*
X90170000Y-146875500D01*
X116840000Y-145415000D02*
X115570000Y-144145000D01*
X117487700Y-145681700D02*
X116840000Y-145415000D01*
X113030000Y-128841500D02*
X113665000Y-128651000D01*
X103886000Y-108839000D02*
X103886000Y-58928000D01*
X105664000Y-108839000D02*
X103886000Y-108839000D01*
X112966500Y-137033000D02*
X112522000Y-135890000D01*
X113538000Y-139763500D02*
X112966500Y-137033000D01*
X114998500Y-142875000D02*
X113538000Y-139763500D01*
X115570000Y-144145000D02*
X114998500Y-142875000D01*
X97218500Y-139827000D02*
X97282000Y-136144000D01*
X96774000Y-142748000D02*
X97218500Y-139827000D01*
X95377000Y-144399000D02*
X96774000Y-142748000D01*
X94678500Y-144907000D02*
X95377000Y-144399000D01*
X106441666Y-154940000D02*
G75*
G03X106441666Y-154940000I-1666666J0D01*
G01*
X102275000Y-154940000D02*
X107275000Y-154940000D01*
X104775000Y-152440000D02*
X104775000Y-157440000D01*
X105664000Y-151574500D02*
X119761000Y-151574500D01*
X105664000Y-108839000D02*
X105664000Y-58928000D01*
X94488000Y-79057500D02*
X94678500Y-79184500D01*
X94361000Y-79057500D02*
X94488000Y-79057500D01*
X92900500Y-79375000D02*
X94361000Y-79057500D01*
X92138500Y-79438500D02*
X92900500Y-79375000D01*
X91376500Y-79438500D02*
X92138500Y-79438500D01*
X90741500Y-79311500D02*
X91376500Y-79438500D01*
X90551000Y-79248000D02*
X90741500Y-79311500D01*
X90170000Y-78994000D02*
X90551000Y-79248000D01*
X89852500Y-78613000D02*
X90170000Y-78994000D01*
X89725500Y-78168500D02*
X89852500Y-78613000D01*
X89852500Y-77978000D02*
X89725500Y-78168500D01*
X90297000Y-77660500D02*
X89852500Y-77978000D01*
X90995500Y-77279500D02*
X90297000Y-77660500D01*
X91821000Y-76835000D02*
X90995500Y-77279500D01*
X92900500Y-76009500D02*
X91821000Y-76835000D01*
X93662500Y-75311000D02*
X92900500Y-76009500D01*
X94932500Y-73914000D02*
X93662500Y-75311000D01*
X96075500Y-72199500D02*
X94932500Y-73914000D01*
X97028000Y-70421500D02*
X96075500Y-72199500D01*
X97536000Y-69151500D02*
X97028000Y-70421500D01*
X97853500Y-68326000D02*
X97536000Y-69151500D01*
X97980500Y-67945000D02*
X97853500Y-68326000D01*
X98615500Y-65786000D02*
X97980500Y-67945000D01*
X99123500Y-63373000D02*
X98615500Y-65786000D01*
X110299500Y-63055500D02*
X110109000Y-62103000D01*
X110490000Y-64135000D02*
X110299500Y-63055500D01*
X110617000Y-64706500D02*
X110490000Y-64135000D01*
X110934500Y-66040000D02*
X110617000Y-64706500D01*
X111188500Y-66929000D02*
X110934500Y-66040000D01*
X111379000Y-67564000D02*
X111188500Y-66929000D01*
X111633000Y-68326000D02*
X111379000Y-67564000D01*
X112014000Y-69342000D02*
X111633000Y-68326000D01*
X112585500Y-70675500D02*
X112014000Y-69342000D01*
X113030000Y-71501000D02*
X112585500Y-70675500D01*
X113538000Y-72390000D02*
X113030000Y-71501000D01*
X113855500Y-72834500D02*
X113538000Y-72390000D01*
X114935000Y-74358500D02*
X113855500Y-72834500D01*
X116014500Y-75438000D02*
X114935000Y-74358500D01*
X116268500Y-75692000D02*
X116014500Y-75438000D01*
X117030500Y-76263500D02*
X116268500Y-75692000D01*
X117665500Y-76771500D02*
X117030500Y-76263500D01*
X118554500Y-77279500D02*
X117665500Y-76771500D01*
X119380000Y-77724000D02*
X118554500Y-77279500D01*
X119634000Y-77914500D02*
X119380000Y-77724000D01*
X119697500Y-78041500D02*
X119634000Y-77914500D01*
X119697500Y-78295500D02*
X119697500Y-78041500D01*
X119507000Y-78676500D02*
X119697500Y-78295500D01*
X119189500Y-78994000D02*
X119507000Y-78676500D01*
X119126000Y-79057500D02*
X119189500Y-78994000D01*
X118618000Y-79248000D02*
X119126000Y-79057500D01*
X118427500Y-79311500D02*
X118618000Y-79248000D01*
X117792500Y-79375000D02*
X118427500Y-79311500D01*
X116903500Y-79375000D02*
X117792500Y-79375000D01*
X116014500Y-79248000D02*
X116903500Y-79375000D01*
X115062000Y-78994000D02*
X116014500Y-79248000D01*
X114998500Y-79057500D02*
X115062000Y-78994000D01*
X115125500Y-79311500D02*
X114998500Y-79057500D01*
X116078000Y-80581500D02*
X115125500Y-79311500D01*
X117475000Y-82105500D02*
X116078000Y-80581500D01*
X118427500Y-82994500D02*
X117475000Y-82105500D01*
X119507000Y-83883500D02*
X118427500Y-82994500D01*
X120078500Y-84328000D02*
X119507000Y-83883500D01*
X121221500Y-85026500D02*
X120078500Y-84328000D01*
X122428000Y-85661500D02*
X121221500Y-85026500D01*
X123825000Y-86296500D02*
X122428000Y-85661500D01*
X124904500Y-86741000D02*
X123825000Y-86296500D01*
X125095000Y-86868000D02*
X124904500Y-86741000D01*
X125158500Y-87058500D02*
X125095000Y-86868000D01*
X125095000Y-87185500D02*
X125158500Y-87058500D01*
X124841000Y-87757000D02*
X125095000Y-87185500D01*
X124333000Y-88201500D02*
X124841000Y-87757000D01*
X123507500Y-88519000D02*
X124333000Y-88201500D01*
X122491500Y-88646000D02*
X123507500Y-88519000D01*
X121348500Y-88646000D02*
X122491500Y-88646000D01*
X119824500Y-88455500D02*
X121348500Y-88646000D01*
X118300500Y-88138000D02*
X119824500Y-88455500D01*
X116903500Y-87693500D02*
X118300500Y-88138000D01*
X116586000Y-87566500D02*
X116903500Y-87693500D01*
X115316000Y-86995000D02*
X116586000Y-87566500D01*
X114998500Y-86868000D02*
X115316000Y-86995000D01*
X115189000Y-87185500D02*
X114998500Y-86868000D01*
X115506500Y-87630000D02*
X115189000Y-87185500D01*
X116078000Y-88455500D02*
X115506500Y-87630000D01*
X116776500Y-89471500D02*
X116078000Y-88455500D01*
X117792500Y-90678000D02*
X116776500Y-89471500D01*
X118554500Y-91503500D02*
X117792500Y-90678000D01*
X119316500Y-92265500D02*
X118554500Y-91503500D01*
X119634000Y-92583000D02*
X119316500Y-92265500D01*
X120205500Y-93091000D02*
X119634000Y-92583000D01*
X120396000Y-93218000D02*
X120205500Y-93091000D01*
X121221500Y-93853000D02*
X120396000Y-93218000D01*
X122237500Y-94615000D02*
X121221500Y-93853000D01*
X123063000Y-95123000D02*
X122237500Y-94615000D01*
X124333000Y-95885000D02*
X123063000Y-95123000D01*
X126492000Y-96901000D02*
X124333000Y-95885000D01*
X127190500Y-97155000D02*
X126492000Y-96901000D01*
X129159000Y-97853500D02*
X127190500Y-97155000D01*
X129222500Y-97917000D02*
X129159000Y-97853500D01*
X129222500Y-98044000D02*
X129222500Y-97917000D01*
X129159000Y-98298000D02*
X129222500Y-98044000D01*
X128841500Y-98869500D02*
X129159000Y-98298000D01*
X128460500Y-99250500D02*
X128841500Y-98869500D01*
X127762000Y-99631500D02*
X128460500Y-99250500D01*
X127381000Y-99758500D02*
X127762000Y-99631500D01*
X126682500Y-99885500D02*
X127381000Y-99758500D01*
X124777500Y-100012500D02*
X126682500Y-99885500D01*
X123825000Y-99949000D02*
X124777500Y-100012500D01*
X122618500Y-99822000D02*
X123825000Y-99949000D01*
X121285000Y-99631500D02*
X122618500Y-99822000D01*
X121031000Y-99631500D02*
X121285000Y-99631500D01*
X121094500Y-99758500D02*
X121031000Y-99631500D01*
X121221500Y-99949000D02*
X121094500Y-99758500D01*
X121539000Y-100266500D02*
X121221500Y-99949000D01*
X122555000Y-101346000D02*
X121539000Y-100266500D01*
X123571000Y-102298500D02*
X122555000Y-101346000D01*
X125349000Y-103886000D02*
X123571000Y-102298500D01*
X126873000Y-105029000D02*
X125349000Y-103886000D01*
X128079500Y-105854500D02*
X126873000Y-105029000D01*
X129667000Y-106807000D02*
X128079500Y-105854500D01*
X131953000Y-108013500D02*
X129667000Y-106807000D01*
X134493000Y-109093000D02*
X131953000Y-108013500D01*
X136207500Y-109664500D02*
X134493000Y-109093000D01*
X137160000Y-109982000D02*
X136207500Y-109664500D01*
X137350500Y-110172500D02*
X137160000Y-109982000D01*
X137350500Y-110299500D02*
X137350500Y-110172500D01*
X137287000Y-110617000D02*
X137350500Y-110299500D01*
X137223500Y-110807500D02*
X137287000Y-110617000D01*
X137096500Y-111125000D02*
X137223500Y-110807500D01*
X136842500Y-111442500D02*
X137096500Y-111125000D01*
X136461500Y-111823500D02*
X136842500Y-111442500D01*
X136080500Y-112141000D02*
X136461500Y-111823500D01*
X135763000Y-112331500D02*
X136080500Y-112141000D01*
X135191500Y-112585500D02*
X135763000Y-112331500D01*
X134683500Y-112712500D02*
X135191500Y-112585500D01*
X133985000Y-112839500D02*
X134683500Y-112712500D01*
X132461000Y-112966500D02*
X133985000Y-112839500D01*
X131381500Y-112966500D02*
X132461000Y-112966500D01*
X129286000Y-112903000D02*
X131381500Y-112966500D01*
X127381000Y-112649000D02*
X129286000Y-112903000D01*
X126365000Y-112458500D02*
X127381000Y-112649000D01*
X124904500Y-112141000D02*
X126365000Y-112458500D01*
X124142500Y-111887000D02*
X124904500Y-112141000D01*
X124015500Y-111950500D02*
X124142500Y-111887000D01*
X124142500Y-112141000D02*
X124015500Y-111950500D01*
X125031500Y-113093500D02*
X124142500Y-112141000D01*
X126238000Y-114173000D02*
X125031500Y-113093500D01*
X127635000Y-115379500D02*
X126238000Y-114173000D01*
X128778000Y-116268500D02*
X127635000Y-115379500D01*
X130556000Y-117538500D02*
X128778000Y-116268500D01*
X131826000Y-118364000D02*
X130556000Y-117538500D01*
X133985000Y-119634000D02*
X131826000Y-118364000D01*
X136715500Y-120967500D02*
X133985000Y-119634000D01*
X139446000Y-122110500D02*
X136715500Y-120967500D01*
X141922500Y-122936000D02*
X139446000Y-122110500D01*
X144208500Y-123634500D02*
X141922500Y-122936000D01*
X144716500Y-123825000D02*
X144208500Y-123634500D01*
X144780000Y-124015500D02*
X144716500Y-123825000D01*
X144716500Y-124396500D02*
X144780000Y-124015500D01*
X144526000Y-124777500D02*
X144716500Y-124396500D01*
X144272000Y-125222000D02*
X144526000Y-124777500D01*
X143573500Y-125857000D02*
X144272000Y-125222000D01*
X142494000Y-126492000D02*
X143573500Y-125857000D01*
X141414500Y-126936500D02*
X142494000Y-126492000D01*
X139763500Y-127444500D02*
X141414500Y-126936500D01*
X139065000Y-127571500D02*
X139763500Y-127444500D01*
X136715500Y-128016000D02*
X139065000Y-127571500D01*
X133985000Y-128333500D02*
X136715500Y-128016000D01*
X131000500Y-128460500D02*
X133985000Y-128333500D01*
X126746000Y-128460500D02*
X131000500Y-128460500D01*
X125412500Y-128397000D02*
X126746000Y-128460500D01*
X123888500Y-128333500D02*
X125412500Y-128397000D01*
X123190000Y-128270000D02*
X123888500Y-128333500D01*
X121983500Y-128143000D02*
X123190000Y-128270000D01*
X121285000Y-128079500D02*
X121983500Y-128143000D01*
X120459500Y-128016000D02*
X121285000Y-128079500D01*
X119761000Y-128079500D02*
X120459500Y-128016000D01*
X118364000Y-128206500D02*
X119761000Y-128079500D01*
X116903500Y-128333500D02*
X118364000Y-128206500D01*
X115189000Y-128460500D02*
X116903500Y-128333500D01*
X114808000Y-128524000D02*
X115189000Y-128460500D01*
X113665000Y-128651000D02*
X114808000Y-128524000D01*
X112776000Y-129286000D02*
X113030000Y-128841500D01*
X112268000Y-130810000D02*
X112776000Y-129286000D01*
X112077500Y-132080000D02*
X112268000Y-130810000D01*
X112014000Y-133032500D02*
X112077500Y-132080000D01*
X112141000Y-134556500D02*
X112014000Y-133032500D01*
X112522000Y-135890000D02*
X112141000Y-134556500D01*
X118630700Y-146253200D02*
X117487700Y-145681700D01*
X119761000Y-147955000D02*
X118630700Y-146253200D01*
X119761000Y-151574500D02*
X119761000Y-147955000D01*
X89789000Y-151574500D02*
X105664000Y-151574500D01*
X89789000Y-148018500D02*
X89789000Y-151574500D01*
X90170000Y-146875500D02*
X89789000Y-148018500D01*
X93916500Y-145351500D02*
X92710000Y-146240500D01*
X94678500Y-144907000D02*
X93916500Y-145351500D01*
X97726500Y-134874000D02*
X97282000Y-136144000D01*
X97917000Y-133794500D02*
X97726500Y-134874000D01*
X97917000Y-133096000D02*
X97917000Y-133794500D01*
X97853500Y-132461000D02*
X97917000Y-133096000D01*
X97726500Y-131381500D02*
X97853500Y-132461000D01*
X97536000Y-130619500D02*
X97726500Y-131381500D01*
X97218500Y-129603500D02*
X97536000Y-130619500D01*
X93980000Y-128524000D02*
X94234000Y-128524000D01*
X91059000Y-128270000D02*
X93980000Y-128524000D01*
X89789000Y-128143000D02*
X91059000Y-128270000D01*
X89027000Y-128079500D02*
X89789000Y-128143000D01*
X88328500Y-128143000D02*
X89027000Y-128079500D01*
X87122000Y-128206500D02*
X88328500Y-128143000D01*
X84201000Y-128460500D02*
X87122000Y-128206500D01*
X82740500Y-128524000D02*
X84201000Y-128460500D01*
X80899000Y-128587500D02*
X82740500Y-128524000D01*
X78930500Y-128587500D02*
X80899000Y-128587500D01*
X78105000Y-128524000D02*
X78930500Y-128587500D01*
X75501500Y-128397000D02*
X78105000Y-128524000D01*
X73025000Y-128143000D02*
X75501500Y-128397000D01*
X70993000Y-127825500D02*
X73025000Y-128143000D01*
X69405500Y-127444500D02*
X70993000Y-127825500D01*
X67437000Y-126746000D02*
X69405500Y-127444500D01*
X66421000Y-126238000D02*
X67437000Y-126746000D01*
X65722500Y-125793500D02*
X66421000Y-126238000D01*
X65214500Y-125285500D02*
X65722500Y-125793500D01*
X64960500Y-124904500D02*
X65214500Y-125285500D01*
X64770000Y-124523500D02*
X64960500Y-124904500D01*
X64643000Y-124206000D02*
X64770000Y-124523500D01*
X64706500Y-124015500D02*
X64643000Y-124206000D01*
X65024000Y-123825000D02*
X64706500Y-124015500D01*
X65405000Y-123698000D02*
X65024000Y-123825000D01*
X66357500Y-123380500D02*
X65405000Y-123698000D01*
X68897500Y-122555000D02*
X66357500Y-123380500D01*
X69469000Y-122364500D02*
X68897500Y-122555000D01*
X70866000Y-121793000D02*
X69469000Y-122364500D01*
X72453500Y-121158000D02*
X70866000Y-121793000D01*
X72707500Y-121031000D02*
X72453500Y-121158000D01*
X73469500Y-120650000D02*
X72707500Y-121031000D01*
X75755500Y-119507000D02*
X73469500Y-120650000D01*
X78295500Y-117983000D02*
X75755500Y-119507000D01*
X81280000Y-115887500D02*
X78295500Y-117983000D01*
X84899500Y-112649000D02*
X81280000Y-115887500D01*
X85344000Y-112204500D02*
X84899500Y-112649000D01*
X85471000Y-112014000D02*
X85344000Y-112204500D01*
X85344000Y-112014000D02*
X85471000Y-112014000D01*
X83756500Y-112395000D02*
X85344000Y-112014000D01*
X82042000Y-112712500D02*
X83756500Y-112395000D01*
X79565500Y-112966500D02*
X82042000Y-112712500D01*
X77914500Y-113093500D02*
X79565500Y-112966500D01*
X76708000Y-113030000D02*
X77914500Y-113093500D01*
X75628500Y-112966500D02*
X76708000Y-113030000D01*
X74739500Y-112776000D02*
X75628500Y-112966500D01*
X73787000Y-112395000D02*
X74739500Y-112776000D01*
X73025000Y-111950500D02*
X73787000Y-112395000D01*
X72517000Y-111379000D02*
X73025000Y-111950500D01*
X72199500Y-110807500D02*
X72517000Y-111379000D01*
X72199500Y-110426500D02*
X72199500Y-110807500D01*
X72199500Y-110299500D02*
X72199500Y-110426500D01*
X72326500Y-110109000D02*
X72199500Y-110299500D01*
X72517000Y-109982000D02*
X72326500Y-110109000D01*
X72961500Y-109855000D02*
X72517000Y-109982000D01*
X75057000Y-109093000D02*
X72961500Y-109855000D01*
X78232000Y-107696000D02*
X75057000Y-109093000D01*
X78676500Y-107505500D02*
X78232000Y-107696000D01*
X80899000Y-106235500D02*
X78676500Y-107505500D01*
X83058000Y-104775000D02*
X80899000Y-106235500D01*
X84010500Y-104013000D02*
X83058000Y-104775000D01*
X85090000Y-103124000D02*
X84010500Y-104013000D01*
X86042500Y-102235000D02*
X85090000Y-103124000D01*
X87249000Y-101092000D02*
X86042500Y-102235000D01*
X88392000Y-99885500D02*
X87249000Y-101092000D01*
X88519000Y-99631500D02*
X88392000Y-99885500D01*
X88265000Y-99695000D02*
X88519000Y-99631500D01*
X86042500Y-100012500D02*
X88265000Y-99695000D01*
X84772500Y-100076000D02*
X86042500Y-100012500D01*
X82994500Y-100012500D02*
X84772500Y-100076000D01*
X82105500Y-99885500D02*
X82994500Y-100012500D01*
X81407000Y-99695000D02*
X82105500Y-99885500D01*
X80835500Y-99314000D02*
X81407000Y-99695000D01*
X80391000Y-98869500D02*
X80835500Y-99314000D01*
X80137000Y-98425000D02*
X80391000Y-98869500D01*
X80137000Y-98171000D02*
X80137000Y-98425000D01*
X80264000Y-97980500D02*
X80137000Y-98171000D01*
X80708500Y-97790000D02*
X80264000Y-97980500D01*
X83629500Y-96647000D02*
X80708500Y-97790000D01*
X85725000Y-95567500D02*
X83629500Y-96647000D01*
X87820500Y-94170500D02*
X85725000Y-95567500D01*
X89725500Y-92646500D02*
X87820500Y-94170500D01*
X91122500Y-91249500D02*
X89725500Y-92646500D01*
X92329000Y-89852500D02*
X91122500Y-91249500D01*
X93789500Y-87820500D02*
X92329000Y-89852500D01*
X94170500Y-87249000D02*
X93789500Y-87820500D01*
X94234000Y-87058500D02*
X94170500Y-87249000D01*
X94107000Y-87122000D02*
X94234000Y-87058500D01*
X93853000Y-87312500D02*
X94107000Y-87122000D01*
X93472000Y-87503000D02*
X93853000Y-87312500D01*
X92456000Y-87947500D02*
X93472000Y-87503000D01*
X90424000Y-88519000D02*
X92456000Y-87947500D01*
X88455500Y-88836500D02*
X90424000Y-88519000D01*
X87249000Y-88836500D02*
X88455500Y-88836500D01*
X86233000Y-88709500D02*
X87249000Y-88836500D01*
X85407500Y-88519000D02*
X86233000Y-88709500D01*
X84709000Y-88201500D02*
X85407500Y-88519000D01*
X84137500Y-87630000D02*
X84709000Y-88201500D01*
X83883500Y-86804500D02*
X84137500Y-87630000D01*
X90233500Y-83629500D02*
X83883500Y-86804500D01*
X94678500Y-79184500D02*
X90233500Y-83629500D01*
M02*
