M48
; DRILL file {KiCad (5.1.5)-3} date 31/10/2020 02:18:38
; FORMAT={2:4/ absolute / inch / suppress leading zeros}
; #@! TF.CreationDate,2020-10-31T02:18:38+01:00
; #@! TF.GenerationSoftware,Kicad,Pcbnew,(5.1.5)-3
FMAT,2
INCH,TZ
T1C0.0157
T2C0.0315
T3C0.0354
T4C0.0394
%
G90
G05
T1
X36650Y-47800
X39300Y-49150
X39500Y-45500
X42250Y-37750
X42750Y-46000
X42750Y-49250
T2
X40025Y-28275
X40025Y-32275
X47950Y-40750
X47950Y-44750
X45925Y-45275
X45925Y-49275
X42550Y-32650
X42550Y-36650
X37950Y-41000
X37950Y-45000
X36625Y-44900
X36625Y-48900
X39150Y-35400
X39150Y-39400
X43225Y-48075
X43225Y-52075
T3
X30150Y-48000
X31150Y-48000
X52675Y-49300
X53675Y-49300
X39250Y-26450
X40250Y-26450
X36800Y-32950
X37800Y-32950
X43175Y-42825
X44175Y-42825
X44575Y-36950
X45575Y-36950
X35000Y-41625
X36000Y-41625
X43450Y-29700
X44450Y-29700
T4
X36050Y-58400
X37050Y-58400
X38050Y-58400
X39050Y-58400
X40050Y-58400
X42450Y-58400
X43450Y-58400
X44450Y-58400
X45450Y-58400
X46450Y-58400
T0
M30
