G04 #@! TF.GenerationSoftware,KiCad,Pcbnew,(5.1.5)-3*
G04 #@! TF.CreationDate,2020-10-16T01:59:12+02:00*
G04 #@! TF.ProjectId,Christmas B,43687269-7374-46d6-9173-20422e6b6963,rev?*
G04 #@! TF.SameCoordinates,Original*
G04 #@! TF.FileFunction,Soldermask,Bot*
G04 #@! TF.FilePolarity,Negative*
%FSLAX46Y46*%
G04 Gerber Fmt 4.6, Leading zero omitted, Abs format (unit mm)*
G04 Created by KiCad (PCBNEW (5.1.5)-3) date 2020-10-16 01:59:12*
%MOMM*%
%LPD*%
G04 APERTURE LIST*
%ADD10C,0.100000*%
G04 APERTURE END LIST*
D10*
G36*
X108724000Y-149237000D02*
G01*
X106922000Y-149237000D01*
X106922000Y-147435000D01*
X108724000Y-147435000D01*
X108724000Y-149237000D01*
G37*
G36*
X115556512Y-147439927D02*
G01*
X115705812Y-147469624D01*
X115869784Y-147537544D01*
X116017354Y-147636147D01*
X116142853Y-147761646D01*
X116241456Y-147909216D01*
X116309376Y-148073188D01*
X116344000Y-148247259D01*
X116344000Y-148424741D01*
X116309376Y-148598812D01*
X116241456Y-148762784D01*
X116142853Y-148910354D01*
X116017354Y-149035853D01*
X115869784Y-149134456D01*
X115705812Y-149202376D01*
X115556512Y-149232073D01*
X115531742Y-149237000D01*
X115354258Y-149237000D01*
X115329488Y-149232073D01*
X115180188Y-149202376D01*
X115016216Y-149134456D01*
X114868646Y-149035853D01*
X114743147Y-148910354D01*
X114644544Y-148762784D01*
X114576624Y-148598812D01*
X114542000Y-148424741D01*
X114542000Y-148247259D01*
X114576624Y-148073188D01*
X114644544Y-147909216D01*
X114743147Y-147761646D01*
X114868646Y-147636147D01*
X115016216Y-147537544D01*
X115180188Y-147469624D01*
X115329488Y-147439927D01*
X115354258Y-147435000D01*
X115531742Y-147435000D01*
X115556512Y-147439927D01*
G37*
G36*
X102628000Y-149237000D02*
G01*
X100826000Y-149237000D01*
X100826000Y-147435000D01*
X102628000Y-147435000D01*
X102628000Y-149237000D01*
G37*
G36*
X99300512Y-147439927D02*
G01*
X99449812Y-147469624D01*
X99613784Y-147537544D01*
X99761354Y-147636147D01*
X99886853Y-147761646D01*
X99985456Y-147909216D01*
X100053376Y-148073188D01*
X100088000Y-148247259D01*
X100088000Y-148424741D01*
X100053376Y-148598812D01*
X99985456Y-148762784D01*
X99886853Y-148910354D01*
X99761354Y-149035853D01*
X99613784Y-149134456D01*
X99449812Y-149202376D01*
X99300512Y-149232073D01*
X99275742Y-149237000D01*
X99098258Y-149237000D01*
X99073488Y-149232073D01*
X98924188Y-149202376D01*
X98760216Y-149134456D01*
X98612646Y-149035853D01*
X98487147Y-148910354D01*
X98388544Y-148762784D01*
X98320624Y-148598812D01*
X98286000Y-148424741D01*
X98286000Y-148247259D01*
X98320624Y-148073188D01*
X98388544Y-147909216D01*
X98487147Y-147761646D01*
X98612646Y-147636147D01*
X98760216Y-147537544D01*
X98924188Y-147469624D01*
X99073488Y-147439927D01*
X99098258Y-147435000D01*
X99275742Y-147435000D01*
X99300512Y-147439927D01*
G37*
G36*
X96760512Y-147439927D02*
G01*
X96909812Y-147469624D01*
X97073784Y-147537544D01*
X97221354Y-147636147D01*
X97346853Y-147761646D01*
X97445456Y-147909216D01*
X97513376Y-148073188D01*
X97548000Y-148247259D01*
X97548000Y-148424741D01*
X97513376Y-148598812D01*
X97445456Y-148762784D01*
X97346853Y-148910354D01*
X97221354Y-149035853D01*
X97073784Y-149134456D01*
X96909812Y-149202376D01*
X96760512Y-149232073D01*
X96735742Y-149237000D01*
X96558258Y-149237000D01*
X96533488Y-149232073D01*
X96384188Y-149202376D01*
X96220216Y-149134456D01*
X96072646Y-149035853D01*
X95947147Y-148910354D01*
X95848544Y-148762784D01*
X95780624Y-148598812D01*
X95746000Y-148424741D01*
X95746000Y-148247259D01*
X95780624Y-148073188D01*
X95848544Y-147909216D01*
X95947147Y-147761646D01*
X96072646Y-147636147D01*
X96220216Y-147537544D01*
X96384188Y-147469624D01*
X96533488Y-147439927D01*
X96558258Y-147435000D01*
X96735742Y-147435000D01*
X96760512Y-147439927D01*
G37*
G36*
X94220512Y-147439927D02*
G01*
X94369812Y-147469624D01*
X94533784Y-147537544D01*
X94681354Y-147636147D01*
X94806853Y-147761646D01*
X94905456Y-147909216D01*
X94973376Y-148073188D01*
X95008000Y-148247259D01*
X95008000Y-148424741D01*
X94973376Y-148598812D01*
X94905456Y-148762784D01*
X94806853Y-148910354D01*
X94681354Y-149035853D01*
X94533784Y-149134456D01*
X94369812Y-149202376D01*
X94220512Y-149232073D01*
X94195742Y-149237000D01*
X94018258Y-149237000D01*
X93993488Y-149232073D01*
X93844188Y-149202376D01*
X93680216Y-149134456D01*
X93532646Y-149035853D01*
X93407147Y-148910354D01*
X93308544Y-148762784D01*
X93240624Y-148598812D01*
X93206000Y-148424741D01*
X93206000Y-148247259D01*
X93240624Y-148073188D01*
X93308544Y-147909216D01*
X93407147Y-147761646D01*
X93532646Y-147636147D01*
X93680216Y-147537544D01*
X93844188Y-147469624D01*
X93993488Y-147439927D01*
X94018258Y-147435000D01*
X94195742Y-147435000D01*
X94220512Y-147439927D01*
G37*
G36*
X91680512Y-147439927D02*
G01*
X91829812Y-147469624D01*
X91993784Y-147537544D01*
X92141354Y-147636147D01*
X92266853Y-147761646D01*
X92365456Y-147909216D01*
X92433376Y-148073188D01*
X92468000Y-148247259D01*
X92468000Y-148424741D01*
X92433376Y-148598812D01*
X92365456Y-148762784D01*
X92266853Y-148910354D01*
X92141354Y-149035853D01*
X91993784Y-149134456D01*
X91829812Y-149202376D01*
X91680512Y-149232073D01*
X91655742Y-149237000D01*
X91478258Y-149237000D01*
X91453488Y-149232073D01*
X91304188Y-149202376D01*
X91140216Y-149134456D01*
X90992646Y-149035853D01*
X90867147Y-148910354D01*
X90768544Y-148762784D01*
X90700624Y-148598812D01*
X90666000Y-148424741D01*
X90666000Y-148247259D01*
X90700624Y-148073188D01*
X90768544Y-147909216D01*
X90867147Y-147761646D01*
X90992646Y-147636147D01*
X91140216Y-147537544D01*
X91304188Y-147469624D01*
X91453488Y-147439927D01*
X91478258Y-147435000D01*
X91655742Y-147435000D01*
X91680512Y-147439927D01*
G37*
G36*
X118096512Y-147439927D02*
G01*
X118245812Y-147469624D01*
X118409784Y-147537544D01*
X118557354Y-147636147D01*
X118682853Y-147761646D01*
X118781456Y-147909216D01*
X118849376Y-148073188D01*
X118884000Y-148247259D01*
X118884000Y-148424741D01*
X118849376Y-148598812D01*
X118781456Y-148762784D01*
X118682853Y-148910354D01*
X118557354Y-149035853D01*
X118409784Y-149134456D01*
X118245812Y-149202376D01*
X118096512Y-149232073D01*
X118071742Y-149237000D01*
X117894258Y-149237000D01*
X117869488Y-149232073D01*
X117720188Y-149202376D01*
X117556216Y-149134456D01*
X117408646Y-149035853D01*
X117283147Y-148910354D01*
X117184544Y-148762784D01*
X117116624Y-148598812D01*
X117082000Y-148424741D01*
X117082000Y-148247259D01*
X117116624Y-148073188D01*
X117184544Y-147909216D01*
X117283147Y-147761646D01*
X117408646Y-147636147D01*
X117556216Y-147537544D01*
X117720188Y-147469624D01*
X117869488Y-147439927D01*
X117894258Y-147435000D01*
X118071742Y-147435000D01*
X118096512Y-147439927D01*
G37*
G36*
X113016512Y-147439927D02*
G01*
X113165812Y-147469624D01*
X113329784Y-147537544D01*
X113477354Y-147636147D01*
X113602853Y-147761646D01*
X113701456Y-147909216D01*
X113769376Y-148073188D01*
X113804000Y-148247259D01*
X113804000Y-148424741D01*
X113769376Y-148598812D01*
X113701456Y-148762784D01*
X113602853Y-148910354D01*
X113477354Y-149035853D01*
X113329784Y-149134456D01*
X113165812Y-149202376D01*
X113016512Y-149232073D01*
X112991742Y-149237000D01*
X112814258Y-149237000D01*
X112789488Y-149232073D01*
X112640188Y-149202376D01*
X112476216Y-149134456D01*
X112328646Y-149035853D01*
X112203147Y-148910354D01*
X112104544Y-148762784D01*
X112036624Y-148598812D01*
X112002000Y-148424741D01*
X112002000Y-148247259D01*
X112036624Y-148073188D01*
X112104544Y-147909216D01*
X112203147Y-147761646D01*
X112328646Y-147636147D01*
X112476216Y-147537544D01*
X112640188Y-147469624D01*
X112789488Y-147439927D01*
X112814258Y-147435000D01*
X112991742Y-147435000D01*
X113016512Y-147439927D01*
G37*
G36*
X110476512Y-147439927D02*
G01*
X110625812Y-147469624D01*
X110789784Y-147537544D01*
X110937354Y-147636147D01*
X111062853Y-147761646D01*
X111161456Y-147909216D01*
X111229376Y-148073188D01*
X111264000Y-148247259D01*
X111264000Y-148424741D01*
X111229376Y-148598812D01*
X111161456Y-148762784D01*
X111062853Y-148910354D01*
X110937354Y-149035853D01*
X110789784Y-149134456D01*
X110625812Y-149202376D01*
X110476512Y-149232073D01*
X110451742Y-149237000D01*
X110274258Y-149237000D01*
X110249488Y-149232073D01*
X110100188Y-149202376D01*
X109936216Y-149134456D01*
X109788646Y-149035853D01*
X109663147Y-148910354D01*
X109564544Y-148762784D01*
X109496624Y-148598812D01*
X109462000Y-148424741D01*
X109462000Y-148247259D01*
X109496624Y-148073188D01*
X109564544Y-147909216D01*
X109663147Y-147761646D01*
X109788646Y-147636147D01*
X109936216Y-147537544D01*
X110100188Y-147469624D01*
X110249488Y-147439927D01*
X110274258Y-147435000D01*
X110451742Y-147435000D01*
X110476512Y-147439927D01*
G37*
G36*
X110039728Y-131452203D02*
G01*
X110194600Y-131516353D01*
X110333981Y-131609485D01*
X110452515Y-131728019D01*
X110545647Y-131867400D01*
X110609797Y-132022272D01*
X110642500Y-132186684D01*
X110642500Y-132354316D01*
X110609797Y-132518728D01*
X110545647Y-132673600D01*
X110452515Y-132812981D01*
X110333981Y-132931515D01*
X110194600Y-133024647D01*
X110039728Y-133088797D01*
X109875316Y-133121500D01*
X109707684Y-133121500D01*
X109543272Y-133088797D01*
X109388400Y-133024647D01*
X109249019Y-132931515D01*
X109130485Y-132812981D01*
X109037353Y-132673600D01*
X108973203Y-132518728D01*
X108940500Y-132354316D01*
X108940500Y-132186684D01*
X108973203Y-132022272D01*
X109037353Y-131867400D01*
X109130485Y-131728019D01*
X109249019Y-131609485D01*
X109388400Y-131516353D01*
X109543272Y-131452203D01*
X109707684Y-131419500D01*
X109875316Y-131419500D01*
X110039728Y-131452203D01*
G37*
G36*
X134745500Y-126173000D02*
G01*
X132843500Y-126173000D01*
X132843500Y-124271000D01*
X134745500Y-124271000D01*
X134745500Y-126173000D01*
G37*
G36*
X136611895Y-124307546D02*
G01*
X136784966Y-124379234D01*
X136822559Y-124404353D01*
X136940727Y-124483310D01*
X137073190Y-124615773D01*
X137073191Y-124615775D01*
X137177266Y-124771534D01*
X137248954Y-124944605D01*
X137285500Y-125128333D01*
X137285500Y-125315667D01*
X137248954Y-125499395D01*
X137177266Y-125672466D01*
X137158213Y-125700981D01*
X137073190Y-125828227D01*
X136940727Y-125960690D01*
X136916624Y-125976795D01*
X136784966Y-126064766D01*
X136611895Y-126136454D01*
X136428167Y-126173000D01*
X136240833Y-126173000D01*
X136057105Y-126136454D01*
X135884034Y-126064766D01*
X135752376Y-125976795D01*
X135728273Y-125960690D01*
X135595810Y-125828227D01*
X135510787Y-125700981D01*
X135491734Y-125672466D01*
X135420046Y-125499395D01*
X135383500Y-125315667D01*
X135383500Y-125128333D01*
X135420046Y-124944605D01*
X135491734Y-124771534D01*
X135595809Y-124615775D01*
X135595810Y-124615773D01*
X135728273Y-124483310D01*
X135846441Y-124404353D01*
X135884034Y-124379234D01*
X136057105Y-124307546D01*
X136240833Y-124271000D01*
X136428167Y-124271000D01*
X136611895Y-124307546D01*
G37*
G36*
X116897728Y-124340203D02*
G01*
X117052600Y-124404353D01*
X117191981Y-124497485D01*
X117310515Y-124616019D01*
X117403647Y-124755400D01*
X117467797Y-124910272D01*
X117500500Y-125074684D01*
X117500500Y-125242316D01*
X117467797Y-125406728D01*
X117403647Y-125561600D01*
X117310515Y-125700981D01*
X117191981Y-125819515D01*
X117052600Y-125912647D01*
X116897728Y-125976797D01*
X116733316Y-126009500D01*
X116565684Y-126009500D01*
X116401272Y-125976797D01*
X116246400Y-125912647D01*
X116107019Y-125819515D01*
X115988485Y-125700981D01*
X115895353Y-125561600D01*
X115831203Y-125406728D01*
X115798500Y-125242316D01*
X115798500Y-125074684D01*
X115831203Y-124910272D01*
X115895353Y-124755400D01*
X115988485Y-124616019D01*
X116107019Y-124497485D01*
X116246400Y-124404353D01*
X116401272Y-124340203D01*
X116565684Y-124307500D01*
X116733316Y-124307500D01*
X116897728Y-124340203D01*
G37*
G36*
X93275728Y-123387703D02*
G01*
X93430600Y-123451853D01*
X93569981Y-123544985D01*
X93688515Y-123663519D01*
X93781647Y-123802900D01*
X93845797Y-123957772D01*
X93878500Y-124122184D01*
X93878500Y-124289816D01*
X93845797Y-124454228D01*
X93781647Y-124609100D01*
X93688515Y-124748481D01*
X93569981Y-124867015D01*
X93430600Y-124960147D01*
X93275728Y-125024297D01*
X93111316Y-125057000D01*
X92943684Y-125057000D01*
X92779272Y-125024297D01*
X92624400Y-124960147D01*
X92485019Y-124867015D01*
X92366485Y-124748481D01*
X92273353Y-124609100D01*
X92209203Y-124454228D01*
X92176500Y-124289816D01*
X92176500Y-124122184D01*
X92209203Y-123957772D01*
X92273353Y-123802900D01*
X92366485Y-123663519D01*
X92485019Y-123544985D01*
X92624400Y-123451853D01*
X92779272Y-123387703D01*
X92943684Y-123355000D01*
X93111316Y-123355000D01*
X93275728Y-123387703D01*
G37*
G36*
X110039728Y-121292203D02*
G01*
X110194600Y-121356353D01*
X110333981Y-121449485D01*
X110452515Y-121568019D01*
X110545647Y-121707400D01*
X110609797Y-121862272D01*
X110642500Y-122026684D01*
X110642500Y-122194316D01*
X110609797Y-122358728D01*
X110545647Y-122513600D01*
X110452515Y-122652981D01*
X110333981Y-122771515D01*
X110194600Y-122864647D01*
X110039728Y-122928797D01*
X109875316Y-122961500D01*
X109707684Y-122961500D01*
X109543272Y-122928797D01*
X109388400Y-122864647D01*
X109249019Y-122771515D01*
X109130485Y-122652981D01*
X109037353Y-122513600D01*
X108973203Y-122358728D01*
X108940500Y-122194316D01*
X108940500Y-122026684D01*
X108973203Y-121862272D01*
X109037353Y-121707400D01*
X109130485Y-121568019D01*
X109249019Y-121449485D01*
X109388400Y-121356353D01*
X109543272Y-121292203D01*
X109707684Y-121259500D01*
X109875316Y-121259500D01*
X110039728Y-121292203D01*
G37*
G36*
X79398395Y-121005546D02*
G01*
X79571466Y-121077234D01*
X79571467Y-121077235D01*
X79727227Y-121181310D01*
X79859690Y-121313773D01*
X79859691Y-121313775D01*
X79963766Y-121469534D01*
X80035454Y-121642605D01*
X80072000Y-121826333D01*
X80072000Y-122013667D01*
X80035454Y-122197395D01*
X79963766Y-122370466D01*
X79963765Y-122370467D01*
X79859690Y-122526227D01*
X79727227Y-122658690D01*
X79648818Y-122711081D01*
X79571466Y-122762766D01*
X79398395Y-122834454D01*
X79214667Y-122871000D01*
X79027333Y-122871000D01*
X78843605Y-122834454D01*
X78670534Y-122762766D01*
X78593182Y-122711081D01*
X78514773Y-122658690D01*
X78382310Y-122526227D01*
X78278235Y-122370467D01*
X78278234Y-122370466D01*
X78206546Y-122197395D01*
X78170000Y-122013667D01*
X78170000Y-121826333D01*
X78206546Y-121642605D01*
X78278234Y-121469534D01*
X78382309Y-121313775D01*
X78382310Y-121313773D01*
X78514773Y-121181310D01*
X78670533Y-121077235D01*
X78670534Y-121077234D01*
X78843605Y-121005546D01*
X79027333Y-120969000D01*
X79214667Y-120969000D01*
X79398395Y-121005546D01*
G37*
G36*
X77532000Y-122871000D02*
G01*
X75630000Y-122871000D01*
X75630000Y-120969000D01*
X77532000Y-120969000D01*
X77532000Y-122871000D01*
G37*
G36*
X116897728Y-114180203D02*
G01*
X117052600Y-114244353D01*
X117191981Y-114337485D01*
X117310515Y-114456019D01*
X117403647Y-114595400D01*
X117467797Y-114750272D01*
X117500500Y-114914684D01*
X117500500Y-115082316D01*
X117467797Y-115246728D01*
X117403647Y-115401600D01*
X117310515Y-115540981D01*
X117191981Y-115659515D01*
X117052600Y-115752647D01*
X116897728Y-115816797D01*
X116733316Y-115849500D01*
X116565684Y-115849500D01*
X116401272Y-115816797D01*
X116246400Y-115752647D01*
X116107019Y-115659515D01*
X115988485Y-115540981D01*
X115895353Y-115401600D01*
X115831203Y-115246728D01*
X115798500Y-115082316D01*
X115798500Y-114914684D01*
X115831203Y-114750272D01*
X115895353Y-114595400D01*
X115988485Y-114456019D01*
X116107019Y-114337485D01*
X116246400Y-114244353D01*
X116401272Y-114180203D01*
X116565684Y-114147500D01*
X116733316Y-114147500D01*
X116897728Y-114180203D01*
G37*
G36*
X96641228Y-113481703D02*
G01*
X96796100Y-113545853D01*
X96935481Y-113638985D01*
X97054015Y-113757519D01*
X97147147Y-113896900D01*
X97211297Y-114051772D01*
X97244000Y-114216184D01*
X97244000Y-114383816D01*
X97211297Y-114548228D01*
X97147147Y-114703100D01*
X97054015Y-114842481D01*
X96935481Y-114961015D01*
X96796100Y-115054147D01*
X96641228Y-115118297D01*
X96476816Y-115151000D01*
X96309184Y-115151000D01*
X96144772Y-115118297D01*
X95989900Y-115054147D01*
X95850519Y-114961015D01*
X95731985Y-114842481D01*
X95638853Y-114703100D01*
X95574703Y-114548228D01*
X95542000Y-114383816D01*
X95542000Y-114216184D01*
X95574703Y-114051772D01*
X95638853Y-113896900D01*
X95731985Y-113757519D01*
X95850519Y-113638985D01*
X95989900Y-113545853D01*
X96144772Y-113481703D01*
X96309184Y-113449000D01*
X96476816Y-113449000D01*
X96641228Y-113481703D01*
G37*
G36*
X93275728Y-113227703D02*
G01*
X93430600Y-113291853D01*
X93569981Y-113384985D01*
X93688515Y-113503519D01*
X93781647Y-113642900D01*
X93845797Y-113797772D01*
X93878500Y-113962184D01*
X93878500Y-114129816D01*
X93845797Y-114294228D01*
X93781647Y-114449100D01*
X93688515Y-114588481D01*
X93569981Y-114707015D01*
X93430600Y-114800147D01*
X93275728Y-114864297D01*
X93111316Y-114897000D01*
X92943684Y-114897000D01*
X92779272Y-114864297D01*
X92624400Y-114800147D01*
X92485019Y-114707015D01*
X92366485Y-114588481D01*
X92273353Y-114449100D01*
X92209203Y-114294228D01*
X92176500Y-114129816D01*
X92176500Y-113962184D01*
X92209203Y-113797772D01*
X92273353Y-113642900D01*
X92366485Y-113503519D01*
X92485019Y-113384985D01*
X92624400Y-113291853D01*
X92779272Y-113227703D01*
X92943684Y-113195000D01*
X93111316Y-113195000D01*
X93275728Y-113227703D01*
G37*
G36*
X122041228Y-112846703D02*
G01*
X122196100Y-112910853D01*
X122335481Y-113003985D01*
X122454015Y-113122519D01*
X122547147Y-113261900D01*
X122611297Y-113416772D01*
X122644000Y-113581184D01*
X122644000Y-113748816D01*
X122611297Y-113913228D01*
X122547147Y-114068100D01*
X122454015Y-114207481D01*
X122335481Y-114326015D01*
X122196100Y-114419147D01*
X122041228Y-114483297D01*
X121876816Y-114516000D01*
X121709184Y-114516000D01*
X121544772Y-114483297D01*
X121389900Y-114419147D01*
X121250519Y-114326015D01*
X121131985Y-114207481D01*
X121038853Y-114068100D01*
X120974703Y-113913228D01*
X120942000Y-113748816D01*
X120942000Y-113581184D01*
X120974703Y-113416772D01*
X121038853Y-113261900D01*
X121131985Y-113122519D01*
X121250519Y-113003985D01*
X121389900Y-112910853D01*
X121544772Y-112846703D01*
X121709184Y-112814000D01*
X121876816Y-112814000D01*
X122041228Y-112846703D01*
G37*
G36*
X112481895Y-107861046D02*
G01*
X112654966Y-107932734D01*
X112654967Y-107932735D01*
X112810727Y-108036810D01*
X112943190Y-108169273D01*
X112943191Y-108169275D01*
X113047266Y-108325034D01*
X113118954Y-108498105D01*
X113155500Y-108681833D01*
X113155500Y-108869167D01*
X113118954Y-109052895D01*
X113047266Y-109225966D01*
X113047265Y-109225967D01*
X112943190Y-109381727D01*
X112810727Y-109514190D01*
X112732318Y-109566581D01*
X112654966Y-109618266D01*
X112481895Y-109689954D01*
X112298167Y-109726500D01*
X112110833Y-109726500D01*
X111927105Y-109689954D01*
X111754034Y-109618266D01*
X111676682Y-109566581D01*
X111598273Y-109514190D01*
X111465810Y-109381727D01*
X111361735Y-109225967D01*
X111361734Y-109225966D01*
X111290046Y-109052895D01*
X111253500Y-108869167D01*
X111253500Y-108681833D01*
X111290046Y-108498105D01*
X111361734Y-108325034D01*
X111465809Y-108169275D01*
X111465810Y-108169273D01*
X111598273Y-108036810D01*
X111754033Y-107932735D01*
X111754034Y-107932734D01*
X111927105Y-107861046D01*
X112110833Y-107824500D01*
X112298167Y-107824500D01*
X112481895Y-107861046D01*
G37*
G36*
X110615500Y-109726500D02*
G01*
X108713500Y-109726500D01*
X108713500Y-107824500D01*
X110615500Y-107824500D01*
X110615500Y-109726500D01*
G37*
G36*
X89851000Y-106678500D02*
G01*
X87949000Y-106678500D01*
X87949000Y-104776500D01*
X89851000Y-104776500D01*
X89851000Y-106678500D01*
G37*
G36*
X91717395Y-104813046D02*
G01*
X91890466Y-104884734D01*
X91904555Y-104894148D01*
X92046227Y-104988810D01*
X92178690Y-105121273D01*
X92178691Y-105121275D01*
X92282766Y-105277034D01*
X92354454Y-105450105D01*
X92391000Y-105633833D01*
X92391000Y-105821167D01*
X92354454Y-106004895D01*
X92282766Y-106177966D01*
X92282765Y-106177967D01*
X92178690Y-106333727D01*
X92046227Y-106466190D01*
X91967818Y-106518581D01*
X91890466Y-106570266D01*
X91717395Y-106641954D01*
X91533667Y-106678500D01*
X91346333Y-106678500D01*
X91162605Y-106641954D01*
X90989534Y-106570266D01*
X90912182Y-106518581D01*
X90833773Y-106466190D01*
X90701310Y-106333727D01*
X90597235Y-106177967D01*
X90597234Y-106177966D01*
X90525546Y-106004895D01*
X90489000Y-105821167D01*
X90489000Y-105633833D01*
X90525546Y-105450105D01*
X90597234Y-105277034D01*
X90701309Y-105121275D01*
X90701310Y-105121273D01*
X90833773Y-104988810D01*
X90975445Y-104894148D01*
X90989534Y-104884734D01*
X91162605Y-104813046D01*
X91346333Y-104776500D01*
X91533667Y-104776500D01*
X91717395Y-104813046D01*
G37*
G36*
X96641228Y-103321703D02*
G01*
X96796100Y-103385853D01*
X96935481Y-103478985D01*
X97054015Y-103597519D01*
X97147147Y-103736900D01*
X97211297Y-103891772D01*
X97244000Y-104056184D01*
X97244000Y-104223816D01*
X97211297Y-104388228D01*
X97147147Y-104543100D01*
X97054015Y-104682481D01*
X96935481Y-104801015D01*
X96796100Y-104894147D01*
X96641228Y-104958297D01*
X96476816Y-104991000D01*
X96309184Y-104991000D01*
X96144772Y-104958297D01*
X95989900Y-104894147D01*
X95850519Y-104801015D01*
X95731985Y-104682481D01*
X95638853Y-104543100D01*
X95574703Y-104388228D01*
X95542000Y-104223816D01*
X95542000Y-104056184D01*
X95574703Y-103891772D01*
X95638853Y-103736900D01*
X95731985Y-103597519D01*
X95850519Y-103478985D01*
X95989900Y-103385853D01*
X96144772Y-103321703D01*
X96309184Y-103289000D01*
X96476816Y-103289000D01*
X96641228Y-103321703D01*
G37*
G36*
X122041228Y-102686703D02*
G01*
X122196100Y-102750853D01*
X122335481Y-102843985D01*
X122454015Y-102962519D01*
X122547147Y-103101900D01*
X122611297Y-103256772D01*
X122644000Y-103421184D01*
X122644000Y-103588816D01*
X122611297Y-103753228D01*
X122547147Y-103908100D01*
X122454015Y-104047481D01*
X122335481Y-104166015D01*
X122196100Y-104259147D01*
X122041228Y-104323297D01*
X121876816Y-104356000D01*
X121709184Y-104356000D01*
X121544772Y-104323297D01*
X121389900Y-104259147D01*
X121250519Y-104166015D01*
X121131985Y-104047481D01*
X121038853Y-103908100D01*
X120974703Y-103753228D01*
X120942000Y-103588816D01*
X120942000Y-103421184D01*
X120974703Y-103256772D01*
X121038853Y-103101900D01*
X121131985Y-102962519D01*
X121250519Y-102843985D01*
X121389900Y-102750853D01*
X121544772Y-102686703D01*
X121709184Y-102654000D01*
X121876816Y-102654000D01*
X122041228Y-102686703D01*
G37*
G36*
X99689228Y-99257703D02*
G01*
X99844100Y-99321853D01*
X99983481Y-99414985D01*
X100102015Y-99533519D01*
X100195147Y-99672900D01*
X100259297Y-99827772D01*
X100292000Y-99992184D01*
X100292000Y-100159816D01*
X100259297Y-100324228D01*
X100195147Y-100479100D01*
X100102015Y-100618481D01*
X99983481Y-100737015D01*
X99844100Y-100830147D01*
X99689228Y-100894297D01*
X99524816Y-100927000D01*
X99357184Y-100927000D01*
X99192772Y-100894297D01*
X99037900Y-100830147D01*
X98898519Y-100737015D01*
X98779985Y-100618481D01*
X98686853Y-100479100D01*
X98622703Y-100324228D01*
X98590000Y-100159816D01*
X98590000Y-99992184D01*
X98622703Y-99827772D01*
X98686853Y-99672900D01*
X98779985Y-99533519D01*
X98898519Y-99414985D01*
X99037900Y-99321853D01*
X99192772Y-99257703D01*
X99357184Y-99225000D01*
X99524816Y-99225000D01*
X99689228Y-99257703D01*
G37*
G36*
X116037895Y-92938546D02*
G01*
X116210966Y-93010234D01*
X116210967Y-93010235D01*
X116366727Y-93114310D01*
X116499190Y-93246773D01*
X116499191Y-93246775D01*
X116603266Y-93402534D01*
X116674954Y-93575605D01*
X116711500Y-93759333D01*
X116711500Y-93946667D01*
X116674954Y-94130395D01*
X116603266Y-94303466D01*
X116603265Y-94303467D01*
X116499190Y-94459227D01*
X116366727Y-94591690D01*
X116288318Y-94644081D01*
X116210966Y-94695766D01*
X116037895Y-94767454D01*
X115854167Y-94804000D01*
X115666833Y-94804000D01*
X115483105Y-94767454D01*
X115310034Y-94695766D01*
X115232682Y-94644081D01*
X115154273Y-94591690D01*
X115021810Y-94459227D01*
X114917735Y-94303467D01*
X114917734Y-94303466D01*
X114846046Y-94130395D01*
X114809500Y-93946667D01*
X114809500Y-93759333D01*
X114846046Y-93575605D01*
X114917734Y-93402534D01*
X115021809Y-93246775D01*
X115021810Y-93246773D01*
X115154273Y-93114310D01*
X115310033Y-93010235D01*
X115310034Y-93010234D01*
X115483105Y-92938546D01*
X115666833Y-92902000D01*
X115854167Y-92902000D01*
X116037895Y-92938546D01*
G37*
G36*
X114171500Y-94804000D02*
G01*
X112269500Y-94804000D01*
X112269500Y-92902000D01*
X114171500Y-92902000D01*
X114171500Y-94804000D01*
G37*
G36*
X108325228Y-92272703D02*
G01*
X108480100Y-92336853D01*
X108619481Y-92429985D01*
X108738015Y-92548519D01*
X108831147Y-92687900D01*
X108895297Y-92842772D01*
X108928000Y-93007184D01*
X108928000Y-93174816D01*
X108895297Y-93339228D01*
X108831147Y-93494100D01*
X108738015Y-93633481D01*
X108619481Y-93752015D01*
X108480100Y-93845147D01*
X108325228Y-93909297D01*
X108160816Y-93942000D01*
X107993184Y-93942000D01*
X107828772Y-93909297D01*
X107673900Y-93845147D01*
X107534519Y-93752015D01*
X107415985Y-93633481D01*
X107322853Y-93494100D01*
X107258703Y-93339228D01*
X107226000Y-93174816D01*
X107226000Y-93007184D01*
X107258703Y-92842772D01*
X107322853Y-92687900D01*
X107415985Y-92548519D01*
X107534519Y-92429985D01*
X107673900Y-92336853D01*
X107828772Y-92272703D01*
X107993184Y-92240000D01*
X108160816Y-92240000D01*
X108325228Y-92272703D01*
G37*
G36*
X99689228Y-89097703D02*
G01*
X99844100Y-89161853D01*
X99983481Y-89254985D01*
X100102015Y-89373519D01*
X100195147Y-89512900D01*
X100259297Y-89667772D01*
X100292000Y-89832184D01*
X100292000Y-89999816D01*
X100259297Y-90164228D01*
X100195147Y-90319100D01*
X100102015Y-90458481D01*
X99983481Y-90577015D01*
X99844100Y-90670147D01*
X99689228Y-90734297D01*
X99524816Y-90767000D01*
X99357184Y-90767000D01*
X99192772Y-90734297D01*
X99037900Y-90670147D01*
X98898519Y-90577015D01*
X98779985Y-90458481D01*
X98686853Y-90319100D01*
X98622703Y-90164228D01*
X98590000Y-89999816D01*
X98590000Y-89832184D01*
X98622703Y-89667772D01*
X98686853Y-89512900D01*
X98779985Y-89373519D01*
X98898519Y-89254985D01*
X99037900Y-89161853D01*
X99192772Y-89097703D01*
X99357184Y-89065000D01*
X99524816Y-89065000D01*
X99689228Y-89097703D01*
G37*
G36*
X96289395Y-82778546D02*
G01*
X96462466Y-82850234D01*
X96462467Y-82850235D01*
X96618227Y-82954310D01*
X96750690Y-83086773D01*
X96750691Y-83086775D01*
X96854766Y-83242534D01*
X96926454Y-83415605D01*
X96963000Y-83599333D01*
X96963000Y-83786667D01*
X96926454Y-83970395D01*
X96854766Y-84143466D01*
X96854765Y-84143467D01*
X96750690Y-84299227D01*
X96618227Y-84431690D01*
X96539818Y-84484081D01*
X96462466Y-84535766D01*
X96289395Y-84607454D01*
X96105667Y-84644000D01*
X95918333Y-84644000D01*
X95734605Y-84607454D01*
X95561534Y-84535766D01*
X95484182Y-84484081D01*
X95405773Y-84431690D01*
X95273310Y-84299227D01*
X95169235Y-84143467D01*
X95169234Y-84143466D01*
X95097546Y-83970395D01*
X95061000Y-83786667D01*
X95061000Y-83599333D01*
X95097546Y-83415605D01*
X95169234Y-83242534D01*
X95273309Y-83086775D01*
X95273310Y-83086773D01*
X95405773Y-82954310D01*
X95561533Y-82850235D01*
X95561534Y-82850234D01*
X95734605Y-82778546D01*
X95918333Y-82742000D01*
X96105667Y-82742000D01*
X96289395Y-82778546D01*
G37*
G36*
X94423000Y-84644000D02*
G01*
X92521000Y-84644000D01*
X92521000Y-82742000D01*
X94423000Y-82742000D01*
X94423000Y-84644000D01*
G37*
G36*
X108325228Y-82112703D02*
G01*
X108480100Y-82176853D01*
X108619481Y-82269985D01*
X108738015Y-82388519D01*
X108831147Y-82527900D01*
X108895297Y-82682772D01*
X108928000Y-82847184D01*
X108928000Y-83014816D01*
X108895297Y-83179228D01*
X108831147Y-83334100D01*
X108738015Y-83473481D01*
X108619481Y-83592015D01*
X108480100Y-83685147D01*
X108325228Y-83749297D01*
X108160816Y-83782000D01*
X107993184Y-83782000D01*
X107828772Y-83749297D01*
X107673900Y-83685147D01*
X107534519Y-83592015D01*
X107415985Y-83473481D01*
X107322853Y-83334100D01*
X107258703Y-83179228D01*
X107226000Y-83014816D01*
X107226000Y-82847184D01*
X107258703Y-82682772D01*
X107322853Y-82527900D01*
X107415985Y-82388519D01*
X107534519Y-82269985D01*
X107673900Y-82176853D01*
X107828772Y-82112703D01*
X107993184Y-82080000D01*
X108160816Y-82080000D01*
X108325228Y-82112703D01*
G37*
G36*
X101911728Y-81160203D02*
G01*
X102066600Y-81224353D01*
X102205981Y-81317485D01*
X102324515Y-81436019D01*
X102417647Y-81575400D01*
X102481797Y-81730272D01*
X102514500Y-81894684D01*
X102514500Y-82062316D01*
X102481797Y-82226728D01*
X102417647Y-82381600D01*
X102324515Y-82520981D01*
X102205981Y-82639515D01*
X102066600Y-82732647D01*
X101911728Y-82796797D01*
X101747316Y-82829500D01*
X101579684Y-82829500D01*
X101415272Y-82796797D01*
X101260400Y-82732647D01*
X101121019Y-82639515D01*
X101002485Y-82520981D01*
X100909353Y-82381600D01*
X100845203Y-82226728D01*
X100812500Y-82062316D01*
X100812500Y-81894684D01*
X100845203Y-81730272D01*
X100909353Y-81575400D01*
X101002485Y-81436019D01*
X101121019Y-81317485D01*
X101260400Y-81224353D01*
X101415272Y-81160203D01*
X101579684Y-81127500D01*
X101747316Y-81127500D01*
X101911728Y-81160203D01*
G37*
G36*
X111314000Y-76389000D02*
G01*
X109412000Y-76389000D01*
X109412000Y-74487000D01*
X111314000Y-74487000D01*
X111314000Y-76389000D01*
G37*
G36*
X113180395Y-74523546D02*
G01*
X113353466Y-74595234D01*
X113353467Y-74595235D01*
X113509227Y-74699310D01*
X113641690Y-74831773D01*
X113641691Y-74831775D01*
X113745766Y-74987534D01*
X113817454Y-75160605D01*
X113854000Y-75344333D01*
X113854000Y-75531667D01*
X113817454Y-75715395D01*
X113745766Y-75888466D01*
X113745765Y-75888467D01*
X113641690Y-76044227D01*
X113509227Y-76176690D01*
X113430818Y-76229081D01*
X113353466Y-76280766D01*
X113180395Y-76352454D01*
X112996667Y-76389000D01*
X112809333Y-76389000D01*
X112625605Y-76352454D01*
X112452534Y-76280766D01*
X112375182Y-76229081D01*
X112296773Y-76176690D01*
X112164310Y-76044227D01*
X112060235Y-75888467D01*
X112060234Y-75888466D01*
X111988546Y-75715395D01*
X111952000Y-75531667D01*
X111952000Y-75344333D01*
X111988546Y-75160605D01*
X112060234Y-74987534D01*
X112164309Y-74831775D01*
X112164310Y-74831773D01*
X112296773Y-74699310D01*
X112452533Y-74595235D01*
X112452534Y-74595234D01*
X112625605Y-74523546D01*
X112809333Y-74487000D01*
X112996667Y-74487000D01*
X113180395Y-74523546D01*
G37*
G36*
X101911728Y-71000203D02*
G01*
X102066600Y-71064353D01*
X102205981Y-71157485D01*
X102324515Y-71276019D01*
X102417647Y-71415400D01*
X102481797Y-71570272D01*
X102514500Y-71734684D01*
X102514500Y-71902316D01*
X102481797Y-72066728D01*
X102417647Y-72221600D01*
X102324515Y-72360981D01*
X102205981Y-72479515D01*
X102066600Y-72572647D01*
X101911728Y-72636797D01*
X101747316Y-72669500D01*
X101579684Y-72669500D01*
X101415272Y-72636797D01*
X101260400Y-72572647D01*
X101121019Y-72479515D01*
X101002485Y-72360981D01*
X100909353Y-72221600D01*
X100845203Y-72066728D01*
X100812500Y-71902316D01*
X100812500Y-71734684D01*
X100845203Y-71570272D01*
X100909353Y-71415400D01*
X101002485Y-71276019D01*
X101121019Y-71157485D01*
X101260400Y-71064353D01*
X101415272Y-71000203D01*
X101579684Y-70967500D01*
X101747316Y-70967500D01*
X101911728Y-71000203D01*
G37*
G36*
X100646000Y-68134000D02*
G01*
X98744000Y-68134000D01*
X98744000Y-66232000D01*
X100646000Y-66232000D01*
X100646000Y-68134000D01*
G37*
G36*
X102512395Y-66268546D02*
G01*
X102685466Y-66340234D01*
X102685467Y-66340235D01*
X102841227Y-66444310D01*
X102973690Y-66576773D01*
X102973691Y-66576775D01*
X103077766Y-66732534D01*
X103149454Y-66905605D01*
X103186000Y-67089333D01*
X103186000Y-67276667D01*
X103149454Y-67460395D01*
X103077766Y-67633466D01*
X103077765Y-67633467D01*
X102973690Y-67789227D01*
X102841227Y-67921690D01*
X102762818Y-67974081D01*
X102685466Y-68025766D01*
X102512395Y-68097454D01*
X102328667Y-68134000D01*
X102141333Y-68134000D01*
X101957605Y-68097454D01*
X101784534Y-68025766D01*
X101707182Y-67974081D01*
X101628773Y-67921690D01*
X101496310Y-67789227D01*
X101392235Y-67633467D01*
X101392234Y-67633466D01*
X101320546Y-67460395D01*
X101284000Y-67276667D01*
X101284000Y-67089333D01*
X101320546Y-66905605D01*
X101392234Y-66732534D01*
X101496309Y-66576775D01*
X101496310Y-66576773D01*
X101628773Y-66444310D01*
X101784533Y-66340235D01*
X101784534Y-66340234D01*
X101957605Y-66268546D01*
X102141333Y-66232000D01*
X102328667Y-66232000D01*
X102512395Y-66268546D01*
G37*
M02*
