G04 #@! TF.GenerationSoftware,KiCad,Pcbnew,(5.1.5)-3*
G04 #@! TF.CreationDate,2020-10-31T02:18:31+01:00*
G04 #@! TF.ProjectId,Christmas B,43687269-7374-46d6-9173-20422e6b6963,rev?*
G04 #@! TF.SameCoordinates,Original*
G04 #@! TF.FileFunction,Legend,Bot*
G04 #@! TF.FilePolarity,Positive*
%FSLAX46Y46*%
G04 Gerber Fmt 4.6, Leading zero omitted, Abs format (unit mm)*
G04 Created by KiCad (PCBNEW (5.1.5)-3) date 2020-10-31 02:18:32*
%MOMM*%
%LPD*%
G04 APERTURE LIST*
%ADD10C,0.100000*%
%ADD11C,0.200000*%
%ADD12C,0.150000*%
%ADD13C,0.120000*%
G04 APERTURE END LIST*
D10*
X104603571Y-112643190D02*
X105251190Y-112643190D01*
X105327380Y-112605095D01*
X105365476Y-112567000D01*
X105403571Y-112490809D01*
X105403571Y-112376523D01*
X105365476Y-112300333D01*
X105098809Y-112643190D02*
X105136904Y-112567000D01*
X105136904Y-112414619D01*
X105098809Y-112338428D01*
X105060714Y-112300333D01*
X104984523Y-112262238D01*
X104755952Y-112262238D01*
X104679761Y-112300333D01*
X104641666Y-112338428D01*
X104603571Y-112414619D01*
X104603571Y-112567000D01*
X104641666Y-112643190D01*
X105136904Y-113024142D02*
X104603571Y-113024142D01*
X104336904Y-113024142D02*
X104375000Y-112986047D01*
X104413095Y-113024142D01*
X104375000Y-113062238D01*
X104336904Y-113024142D01*
X104413095Y-113024142D01*
X104603571Y-113290809D02*
X104603571Y-113595571D01*
X104336904Y-113405095D02*
X105022619Y-113405095D01*
X105098809Y-113443190D01*
X105136904Y-113519380D01*
X105136904Y-113595571D01*
X105136904Y-113862238D02*
X104336904Y-113862238D01*
X105136904Y-114205095D02*
X104717857Y-114205095D01*
X104641666Y-114167000D01*
X104603571Y-114090809D01*
X104603571Y-113976523D01*
X104641666Y-113900333D01*
X104679761Y-113862238D01*
X104603571Y-114928904D02*
X105136904Y-114928904D01*
X104603571Y-114586047D02*
X105022619Y-114586047D01*
X105098809Y-114624142D01*
X105136904Y-114700333D01*
X105136904Y-114814619D01*
X105098809Y-114890809D01*
X105060714Y-114928904D01*
X105136904Y-115309857D02*
X104336904Y-115309857D01*
X104641666Y-115309857D02*
X104603571Y-115386047D01*
X104603571Y-115538428D01*
X104641666Y-115614619D01*
X104679761Y-115652714D01*
X104755952Y-115690809D01*
X104984523Y-115690809D01*
X105060714Y-115652714D01*
X105098809Y-115614619D01*
X105136904Y-115538428D01*
X105136904Y-115386047D01*
X105098809Y-115309857D01*
X105060714Y-116033666D02*
X105098809Y-116071761D01*
X105136904Y-116033666D01*
X105098809Y-115995571D01*
X105060714Y-116033666D01*
X105136904Y-116033666D01*
X105098809Y-116757476D02*
X105136904Y-116681285D01*
X105136904Y-116528904D01*
X105098809Y-116452714D01*
X105060714Y-116414619D01*
X104984523Y-116376523D01*
X104755952Y-116376523D01*
X104679761Y-116414619D01*
X104641666Y-116452714D01*
X104603571Y-116528904D01*
X104603571Y-116681285D01*
X104641666Y-116757476D01*
X105136904Y-117214619D02*
X105098809Y-117138428D01*
X105060714Y-117100333D01*
X104984523Y-117062238D01*
X104755952Y-117062238D01*
X104679761Y-117100333D01*
X104641666Y-117138428D01*
X104603571Y-117214619D01*
X104603571Y-117328904D01*
X104641666Y-117405095D01*
X104679761Y-117443190D01*
X104755952Y-117481285D01*
X104984523Y-117481285D01*
X105060714Y-117443190D01*
X105098809Y-117405095D01*
X105136904Y-117328904D01*
X105136904Y-117214619D01*
X105136904Y-117824142D02*
X104603571Y-117824142D01*
X104679761Y-117824142D02*
X104641666Y-117862238D01*
X104603571Y-117938428D01*
X104603571Y-118052714D01*
X104641666Y-118128904D01*
X104717857Y-118166999D01*
X105136904Y-118166999D01*
X104717857Y-118166999D02*
X104641666Y-118205095D01*
X104603571Y-118281285D01*
X104603571Y-118395571D01*
X104641666Y-118471761D01*
X104717857Y-118509857D01*
X105136904Y-118509857D01*
X104298809Y-119462238D02*
X105327380Y-118776523D01*
X104603571Y-119614619D02*
X104603571Y-119919380D01*
X104336904Y-119728904D02*
X105022619Y-119728904D01*
X105098809Y-119766999D01*
X105136904Y-119843190D01*
X105136904Y-119919380D01*
X105098809Y-120490809D02*
X105136904Y-120414619D01*
X105136904Y-120262238D01*
X105098809Y-120186047D01*
X105022619Y-120147952D01*
X104717857Y-120147952D01*
X104641666Y-120186047D01*
X104603571Y-120262238D01*
X104603571Y-120414619D01*
X104641666Y-120490809D01*
X104717857Y-120528904D01*
X104794047Y-120528904D01*
X104870238Y-120147952D01*
X105136904Y-120871761D02*
X104336904Y-120871761D01*
X104641666Y-120871761D02*
X104603571Y-120947952D01*
X104603571Y-121100333D01*
X104641666Y-121176523D01*
X104679761Y-121214619D01*
X104755952Y-121252714D01*
X104984523Y-121252714D01*
X105060714Y-121214619D01*
X105098809Y-121176523D01*
X105136904Y-121100333D01*
X105136904Y-120947952D01*
X105098809Y-120871761D01*
X105136904Y-121709857D02*
X105098809Y-121633666D01*
X105022619Y-121595571D01*
X104336904Y-121595571D01*
D11*
X109918500Y-86233000D02*
X108077000Y-85979000D01*
X105346500Y-127698500D02*
X102933500Y-127825500D01*
X107124500Y-128079500D02*
X105346500Y-127698500D01*
X107950000Y-128397000D02*
X107124500Y-128079500D01*
X108902500Y-128587500D02*
X107950000Y-128397000D01*
X112331500Y-128778000D02*
X110871000Y-128714500D01*
X113411000Y-128714500D02*
X112331500Y-128778000D01*
X114236500Y-128587500D02*
X113411000Y-128714500D01*
X114871500Y-128460500D02*
X114236500Y-128587500D01*
X115506500Y-128397000D02*
X114871500Y-128460500D01*
X116840000Y-128270000D02*
X115506500Y-128397000D01*
X118618000Y-128143000D02*
X116840000Y-128270000D01*
X120015000Y-128016000D02*
X118618000Y-128143000D01*
X120777000Y-128016000D02*
X120015000Y-128016000D01*
X121666000Y-128079500D02*
X120777000Y-128016000D01*
X123888500Y-128270000D02*
X121666000Y-128079500D01*
X126746000Y-128460500D02*
X123888500Y-128270000D01*
X130429000Y-128397000D02*
X126746000Y-128460500D01*
X131445000Y-128397000D02*
X130429000Y-128397000D01*
X132778500Y-128333500D02*
X131445000Y-128397000D01*
X133667500Y-128333500D02*
X132778500Y-128333500D01*
X134239000Y-128270000D02*
X133667500Y-128333500D01*
X135636000Y-128079500D02*
X134239000Y-128270000D01*
X137858500Y-127762000D02*
X135636000Y-128079500D01*
X139255500Y-127571500D02*
X137858500Y-127762000D01*
X140144500Y-127254000D02*
X139255500Y-127571500D01*
X141478000Y-126873000D02*
X140144500Y-127254000D01*
X142494000Y-126428500D02*
X141478000Y-126873000D01*
X143573500Y-125857000D02*
X142494000Y-126428500D01*
X144272000Y-125222000D02*
X143573500Y-125857000D01*
X144716500Y-124396500D02*
X144272000Y-125222000D01*
X144716500Y-124396500D02*
X144843500Y-123571000D01*
X99060000Y-128333500D02*
X102933500Y-127825500D01*
X96139000Y-128587500D02*
X99060000Y-128333500D01*
X94107000Y-128524000D02*
X96139000Y-128587500D01*
X93472000Y-128460500D02*
X94107000Y-128524000D01*
X92138500Y-128333500D02*
X93472000Y-128460500D01*
X90868500Y-128206500D02*
X92138500Y-128333500D01*
X89535000Y-128079500D02*
X90868500Y-128206500D01*
X88709500Y-128079500D02*
X89535000Y-128079500D01*
X87947500Y-128143000D02*
X88709500Y-128079500D01*
X84518500Y-128397000D02*
X87947500Y-128143000D01*
X83693000Y-128460500D02*
X84518500Y-128397000D01*
X81089500Y-128524000D02*
X83693000Y-128460500D01*
X80327500Y-128524000D02*
X81089500Y-128524000D01*
X78867000Y-128524000D02*
X80327500Y-128524000D01*
X77787500Y-128460500D02*
X78867000Y-128524000D01*
X75438000Y-128333500D02*
X77787500Y-128460500D01*
X73025000Y-128079500D02*
X75438000Y-128333500D01*
X70993000Y-127762000D02*
X73025000Y-128079500D01*
X69405500Y-127381000D02*
X70993000Y-127762000D01*
X67564000Y-126746000D02*
X69405500Y-127381000D01*
X66611500Y-126301500D02*
X67564000Y-126746000D01*
X65786000Y-125793500D02*
X66611500Y-126301500D01*
X65214500Y-125222000D02*
X65786000Y-125793500D01*
X64960500Y-124841000D02*
X65214500Y-125222000D01*
X64643000Y-124142500D02*
X64960500Y-124841000D01*
X64643000Y-123888500D02*
X64643000Y-124142500D01*
X115125500Y-110998000D02*
X114427000Y-111188500D01*
X115824000Y-110934500D02*
X115125500Y-110998000D01*
X116903500Y-110934500D02*
X115824000Y-110934500D01*
X118237000Y-110998000D02*
X116903500Y-110934500D01*
X119126000Y-111061500D02*
X118237000Y-110998000D01*
X119951500Y-111125000D02*
X119126000Y-111061500D01*
X121094500Y-111252000D02*
X119951500Y-111125000D01*
X123761500Y-111887000D02*
X122618500Y-111569500D01*
X124968000Y-112077500D02*
X123761500Y-111887000D01*
X126047500Y-112331500D02*
X124968000Y-112077500D01*
X127762000Y-112649000D02*
X126047500Y-112331500D01*
X129349500Y-112839500D02*
X127762000Y-112649000D01*
X131445000Y-112903000D02*
X129349500Y-112839500D01*
X132461000Y-112903000D02*
X131445000Y-112903000D01*
X133985000Y-112776000D02*
X132461000Y-112903000D01*
X135128000Y-112585500D02*
X133985000Y-112776000D01*
X135509000Y-112395000D02*
X135128000Y-112585500D01*
X136080500Y-112141000D02*
X135509000Y-112395000D01*
X136525000Y-111696500D02*
X136080500Y-112141000D01*
X137096500Y-111061500D02*
X136525000Y-111696500D01*
X137096500Y-111061500D02*
X137541000Y-109918500D01*
X112776000Y-111442500D02*
X114427000Y-111188500D01*
X111188500Y-111569500D02*
X112776000Y-111442500D01*
X110236000Y-111442500D02*
X111188500Y-111569500D01*
X109283500Y-111125000D02*
X110236000Y-111442500D01*
X107759500Y-110680500D02*
X109283500Y-111125000D01*
X104965500Y-110426500D02*
X107759500Y-110680500D01*
X102362000Y-110744000D02*
X104965500Y-110426500D01*
X100520500Y-111379000D02*
X102362000Y-110744000D01*
X98361500Y-112331500D02*
X100520500Y-111379000D01*
X97472500Y-112585500D02*
X98361500Y-112331500D01*
X96901000Y-112712500D02*
X97472500Y-112585500D01*
X94805500Y-112966500D02*
X95885000Y-112903000D01*
X93091000Y-112776000D02*
X94805500Y-112966500D01*
X90297000Y-112331500D02*
X93091000Y-112776000D01*
X87566500Y-112014000D02*
X90297000Y-112331500D01*
X85852000Y-111887000D02*
X87566500Y-112014000D01*
X85344000Y-111950500D02*
X85852000Y-111887000D01*
X84137500Y-112268000D02*
X85344000Y-111950500D01*
X82232500Y-112649000D02*
X84137500Y-112268000D01*
X81788000Y-112712500D02*
X82232500Y-112649000D01*
X77914500Y-113093500D02*
X81788000Y-112712500D01*
X75565000Y-112966500D02*
X77914500Y-113093500D01*
X74739500Y-112712500D02*
X75565000Y-112966500D01*
X73787000Y-112395000D02*
X74739500Y-112712500D01*
X73025000Y-111950500D02*
X73787000Y-112395000D01*
X72517000Y-111315500D02*
X73025000Y-111950500D01*
X72199500Y-110744000D02*
X72517000Y-111315500D01*
X72199500Y-109855000D02*
X72199500Y-110744000D01*
X107315000Y-97091500D02*
X106553000Y-97155000D01*
X108394500Y-97218500D02*
X107315000Y-97091500D01*
X109728000Y-97536000D02*
X108394500Y-97218500D01*
X110871000Y-97726500D02*
X109728000Y-97536000D01*
X111887000Y-98044000D02*
X110871000Y-97726500D01*
X112776000Y-98552000D02*
X111887000Y-98044000D01*
X114363500Y-98742500D02*
X112776000Y-98552000D01*
X115697000Y-98679000D02*
X114363500Y-98742500D01*
X116840000Y-98552000D02*
X115697000Y-98679000D01*
X117729000Y-98552000D02*
X116840000Y-98552000D01*
X118808500Y-98996500D02*
X117729000Y-98552000D01*
X119570500Y-99250500D02*
X118808500Y-98996500D01*
X120269000Y-99504500D02*
X119570500Y-99250500D01*
X120967500Y-99568000D02*
X120269000Y-99504500D01*
X121285000Y-99568000D02*
X120967500Y-99568000D01*
X121983500Y-99695000D02*
X121285000Y-99568000D01*
X122936000Y-99822000D02*
X121983500Y-99695000D01*
X124650500Y-99949000D02*
X122936000Y-99822000D01*
X124968000Y-99949000D02*
X124650500Y-99949000D01*
X126682500Y-99822000D02*
X124968000Y-99949000D01*
X127444500Y-99695000D02*
X126682500Y-99822000D01*
X127698500Y-99631500D02*
X127444500Y-99695000D01*
X128270000Y-99314000D02*
X127698500Y-99631500D01*
X128714500Y-98996500D02*
X128270000Y-99314000D01*
X129032000Y-98488500D02*
X128714500Y-98996500D01*
X129286000Y-98044000D02*
X129032000Y-98488500D01*
X129286000Y-97663000D02*
X129286000Y-98044000D01*
X104775000Y-97599500D02*
X106553000Y-97155000D01*
X102616000Y-97917000D02*
X104775000Y-97599500D01*
X101092000Y-98171000D02*
X102616000Y-97917000D01*
X99949000Y-98361500D02*
X101092000Y-98171000D01*
X98107500Y-98742500D02*
X98933000Y-98615500D01*
X96075500Y-98742500D02*
X98107500Y-98742500D01*
X93599000Y-98742500D02*
X96075500Y-98742500D01*
X90614500Y-99187000D02*
X93599000Y-98742500D01*
X88646000Y-99568000D02*
X90614500Y-99187000D01*
X87884000Y-99695000D02*
X88646000Y-99568000D01*
X87122000Y-99822000D02*
X87884000Y-99695000D01*
X86233000Y-99949000D02*
X87122000Y-99822000D01*
X84772500Y-100012500D02*
X86233000Y-99949000D01*
X82994500Y-99949000D02*
X84772500Y-100012500D01*
X82550000Y-99885500D02*
X82994500Y-99949000D01*
X82105500Y-99822000D02*
X82550000Y-99885500D01*
X81407000Y-99631500D02*
X82105500Y-99822000D01*
X80835500Y-99314000D02*
X81407000Y-99631500D01*
X80391000Y-98806000D02*
X80835500Y-99314000D01*
X80137000Y-98361500D02*
X80391000Y-98806000D01*
X80137000Y-97980500D02*
X80137000Y-98361500D01*
X125095000Y-86995000D02*
X125095000Y-86614000D01*
X125031500Y-87312500D02*
X125095000Y-86995000D01*
X124841000Y-87693500D02*
X125031500Y-87312500D01*
X124587000Y-87947500D02*
X124841000Y-87693500D01*
X124333000Y-88138000D02*
X124587000Y-87947500D01*
X123507500Y-88455500D02*
X124333000Y-88138000D01*
X122491500Y-88582500D02*
X123507500Y-88455500D01*
X122237500Y-88582500D02*
X122491500Y-88582500D01*
X121412000Y-88582500D02*
X122237500Y-88582500D01*
X120015000Y-88455500D02*
X121412000Y-88582500D01*
X118491000Y-88138000D02*
X120015000Y-88455500D01*
X117602000Y-87884000D02*
X118491000Y-88138000D01*
X116649500Y-87566500D02*
X117602000Y-87884000D01*
X115316000Y-86931500D02*
X116649500Y-87566500D01*
X114808000Y-86804500D02*
X115316000Y-86931500D01*
X113728500Y-86868000D02*
X114808000Y-86804500D01*
X112903000Y-86804500D02*
X113728500Y-86868000D01*
X111950500Y-86550500D02*
X112903000Y-86804500D01*
X110871000Y-86296500D02*
X111950500Y-86550500D01*
X109918500Y-86233000D02*
X110871000Y-86296500D01*
X105029000Y-85661500D02*
X106616500Y-85852000D01*
X103060500Y-85534500D02*
X105029000Y-85661500D01*
X101600000Y-85471000D02*
X103060500Y-85534500D01*
X100711000Y-85407500D02*
X101600000Y-85471000D01*
X100012500Y-85471000D02*
X100711000Y-85407500D01*
X98869500Y-85661500D02*
X100012500Y-85471000D01*
X97917000Y-85979000D02*
X98869500Y-85661500D01*
X96520000Y-86296500D02*
X97917000Y-85979000D01*
X95567500Y-86360000D02*
X96520000Y-86296500D01*
X94932500Y-86487000D02*
X95567500Y-86360000D01*
X94488000Y-86741000D02*
X94932500Y-86487000D01*
X94107000Y-87058500D02*
X94488000Y-86741000D01*
X93853000Y-87312500D02*
X94107000Y-87058500D01*
X93408500Y-87503000D02*
X93853000Y-87312500D01*
X92519500Y-87884000D02*
X93408500Y-87503000D01*
X91440000Y-88201500D02*
X92519500Y-87884000D01*
X90424000Y-88455500D02*
X91440000Y-88201500D01*
X89281000Y-88709500D02*
X90424000Y-88455500D01*
X88455500Y-88836500D02*
X89281000Y-88709500D01*
X87439500Y-88836500D02*
X88455500Y-88836500D01*
X86296500Y-88646000D02*
X87439500Y-88836500D01*
X85407500Y-88455500D02*
X86296500Y-88646000D01*
X84709000Y-88201500D02*
X85407500Y-88455500D01*
X84137500Y-87630000D02*
X84709000Y-88201500D01*
X83947000Y-87058500D02*
X84137500Y-87630000D01*
X83947000Y-86487000D02*
X83947000Y-87058500D01*
X119697500Y-78295500D02*
X119761000Y-77787500D01*
X119507000Y-78676500D02*
X119697500Y-78295500D01*
X119189500Y-78994000D02*
X119507000Y-78676500D01*
X118491000Y-79248000D02*
X119189500Y-78994000D01*
X117919500Y-79311500D02*
X118491000Y-79248000D01*
X116840000Y-79311500D02*
X117919500Y-79311500D01*
X116141500Y-79248000D02*
X116840000Y-79311500D01*
X115062000Y-78930500D02*
X116141500Y-79248000D01*
X113855500Y-78676500D02*
X115062000Y-78930500D01*
X112077500Y-78549500D02*
X113855500Y-78676500D01*
X111315500Y-78549500D02*
X112077500Y-78549500D01*
X110426500Y-78740000D02*
X111315500Y-78549500D01*
X108712000Y-78930500D02*
X110426500Y-78740000D01*
X106997500Y-78676500D02*
X108712000Y-78930500D01*
X105727500Y-78422500D02*
X106997500Y-78676500D01*
X104521000Y-78232000D02*
X105727500Y-78422500D01*
X103124000Y-78105000D02*
X104521000Y-78232000D01*
X102044500Y-78105000D02*
X103124000Y-78105000D01*
X99885500Y-78105000D02*
X100520500Y-78105000D01*
X96520000Y-78613000D02*
X99885500Y-78105000D01*
X94932500Y-78867000D02*
X96520000Y-78613000D01*
X94488000Y-78994000D02*
X94932500Y-78867000D01*
X94170500Y-79057500D02*
X94488000Y-78994000D01*
X93027500Y-79311500D02*
X94170500Y-79057500D01*
X92138500Y-79375000D02*
X93027500Y-79311500D01*
X91503500Y-79375000D02*
X92138500Y-79375000D01*
X90805000Y-79311500D02*
X91503500Y-79375000D01*
X90170000Y-78930500D02*
X90805000Y-79311500D01*
X89852500Y-78613000D02*
X90170000Y-78930500D01*
X89725500Y-78232000D02*
X89852500Y-78613000D01*
X89725500Y-77914500D02*
X89725500Y-78232000D01*
D12*
X123953002Y-118618334D02*
G75*
G02X125222000Y-119888000I-636001J-1904665D01*
G01*
D10*
X125817000Y-120523000D02*
G75*
G03X125817000Y-120523000I-2500000J0D01*
G01*
D12*
X123317000Y-115951000D02*
X123063000Y-116713000D01*
X123063000Y-116713000D02*
X123317000Y-117475000D01*
X123317000Y-117475000D02*
X123571000Y-116713000D01*
X123571000Y-116713000D02*
X123317000Y-115951000D01*
X123317000Y-117983000D02*
X123317000Y-117475000D01*
X108712000Y-114681000D02*
X108712000Y-114173000D01*
X108712000Y-114173000D02*
X108966000Y-113411000D01*
X108966000Y-113411000D02*
X108712000Y-112649000D01*
X108712000Y-112649000D02*
X108458000Y-113411000D01*
X108458000Y-113411000D02*
X108712000Y-114173000D01*
X110490000Y-116459000D02*
X111212000Y-117221000D01*
X111212000Y-117221000D02*
X110490000Y-117983000D01*
X108712000Y-119721000D02*
X107950000Y-118999000D01*
X107950000Y-115443000D02*
X108712000Y-114721000D01*
X110490000Y-115443000D02*
X109474000Y-115443000D01*
X106934000Y-115443000D02*
X106934000Y-116459000D01*
X109474000Y-118999000D02*
X110490000Y-118999000D01*
X110490000Y-116459000D02*
X110490000Y-115443000D01*
X110490000Y-117983000D02*
X110490000Y-118999000D01*
X106934000Y-117983000D02*
X106934000Y-118999000D01*
X106934000Y-117983000D02*
X106212000Y-117221000D01*
X106934000Y-116459000D02*
X106212000Y-117221000D01*
X108712000Y-119721000D02*
X109474000Y-118999000D01*
X107950000Y-118999000D02*
X106934000Y-118999000D01*
X108712000Y-114721000D02*
X109474000Y-115443000D01*
X107950000Y-115443000D02*
X106934000Y-115443000D01*
X108712000Y-117475000D02*
X108712000Y-119253000D01*
X110744000Y-117221000D02*
X108966000Y-117221000D01*
X108458000Y-117221000D02*
X106680000Y-117221000D01*
X108712000Y-116967000D02*
X108712000Y-115189000D01*
X110236000Y-115697000D02*
X109220000Y-116713000D01*
X108204000Y-116713000D02*
X107188000Y-115697000D01*
X108204000Y-117729000D02*
X107188000Y-118745000D01*
X109220000Y-117729000D02*
X110236000Y-118745000D01*
X109220000Y-115697000D02*
X108966000Y-115951000D01*
X108458000Y-115951000D02*
X108204000Y-115697000D01*
X109220000Y-118745000D02*
X108966000Y-118491000D01*
X108458000Y-118491000D02*
X108204000Y-118745000D01*
X109982000Y-116967000D02*
X110236000Y-116713000D01*
X109982000Y-117729000D02*
X110236000Y-117983000D01*
X107188000Y-116713000D02*
X107442000Y-116967000D01*
X107188000Y-117729000D02*
X107442000Y-117475000D01*
X94043500Y-121158000D02*
X92773500Y-121828000D01*
X91503500Y-119888000D02*
X94043500Y-121158000D01*
X93281500Y-116332000D02*
X92011500Y-117348000D01*
X92773500Y-116332000D02*
X92773500Y-115062000D01*
X92011500Y-119888000D02*
X94551500Y-121158000D01*
X92011500Y-117348000D02*
X94551500Y-118618000D01*
X94551500Y-121158000D02*
X93281500Y-121828000D01*
X94551500Y-118618000D02*
X92011500Y-119888000D01*
X94043500Y-118618000D02*
X91503500Y-119888000D01*
X92773500Y-121828000D02*
X92773500Y-122936000D01*
X92773500Y-116332000D02*
X91503500Y-117348000D01*
X93281500Y-116332000D02*
X93281500Y-115062000D01*
X91503500Y-117348000D02*
X94043500Y-118618000D01*
X93281500Y-121828000D02*
X93281500Y-122936000D01*
X87566500Y-118427500D02*
X87566500Y-117919500D01*
X87566500Y-117919500D02*
X87820500Y-117157500D01*
X87820500Y-117157500D02*
X87566500Y-116395500D01*
X87566500Y-116395500D02*
X87312500Y-117157500D01*
X87312500Y-117157500D02*
X87566500Y-117919500D01*
X89344500Y-120205500D02*
X90066500Y-120967500D01*
X90066500Y-120967500D02*
X89344500Y-121729500D01*
X87566500Y-123467500D02*
X86804500Y-122745500D01*
X86804500Y-119189500D02*
X87566500Y-118467500D01*
X89344500Y-119189500D02*
X88328500Y-119189500D01*
X85788500Y-119189500D02*
X85788500Y-120205500D01*
X88328500Y-122745500D02*
X89344500Y-122745500D01*
X89344500Y-120205500D02*
X89344500Y-119189500D01*
X89344500Y-121729500D02*
X89344500Y-122745500D01*
X85788500Y-121729500D02*
X85788500Y-122745500D01*
X85788500Y-121729500D02*
X85066500Y-120967500D01*
X85788500Y-120205500D02*
X85066500Y-120967500D01*
X87566500Y-123467500D02*
X88328500Y-122745500D01*
X86804500Y-122745500D02*
X85788500Y-122745500D01*
X87566500Y-118467500D02*
X88328500Y-119189500D01*
X86804500Y-119189500D02*
X85788500Y-119189500D01*
X87566500Y-121221500D02*
X87566500Y-122999500D01*
X89598500Y-120967500D02*
X87820500Y-120967500D01*
X87312500Y-120967500D02*
X85534500Y-120967500D01*
X87566500Y-120713500D02*
X87566500Y-118935500D01*
X89090500Y-119443500D02*
X88074500Y-120459500D01*
X87058500Y-120459500D02*
X86042500Y-119443500D01*
X87058500Y-121475500D02*
X86042500Y-122491500D01*
X88074500Y-121475500D02*
X89090500Y-122491500D01*
X88074500Y-119443500D02*
X87820500Y-119697500D01*
X87312500Y-119697500D02*
X87058500Y-119443500D01*
X88074500Y-122491500D02*
X87820500Y-122237500D01*
X87312500Y-122237500D02*
X87058500Y-122491500D01*
X88836500Y-120713500D02*
X89090500Y-120459500D01*
X88836500Y-121475500D02*
X89090500Y-121729500D01*
X86042500Y-120459500D02*
X86296500Y-120713500D01*
X86042500Y-121475500D02*
X86296500Y-121221500D01*
X102679500Y-78930500D02*
X101409500Y-79600500D01*
X100139500Y-77660500D02*
X102679500Y-78930500D01*
X101917500Y-74104500D02*
X100647500Y-75120500D01*
X101409500Y-74104500D02*
X101409500Y-72834500D01*
X100647500Y-77660500D02*
X103187500Y-78930500D01*
X100647500Y-75120500D02*
X103187500Y-76390500D01*
X103187500Y-78930500D02*
X101917500Y-79600500D01*
X103187500Y-76390500D02*
X100647500Y-77660500D01*
X102679500Y-76390500D02*
X100139500Y-77660500D01*
X101409500Y-79600500D02*
X101409500Y-80708500D01*
X101409500Y-74104500D02*
X100139500Y-75120500D01*
X101917500Y-74104500D02*
X101917500Y-72834500D01*
X100139500Y-75120500D02*
X102679500Y-76390500D01*
X101917500Y-79600500D02*
X101917500Y-80708500D01*
X109029500Y-66421000D02*
X109029500Y-65913000D01*
X109029500Y-65913000D02*
X109283500Y-65151000D01*
X109283500Y-65151000D02*
X109029500Y-64389000D01*
X109029500Y-64389000D02*
X108775500Y-65151000D01*
X108775500Y-65151000D02*
X109029500Y-65913000D01*
X110807500Y-68199000D02*
X111529500Y-68961000D01*
X111529500Y-68961000D02*
X110807500Y-69723000D01*
X109029500Y-71461000D02*
X108267500Y-70739000D01*
X108267500Y-67183000D02*
X109029500Y-66461000D01*
X110807500Y-67183000D02*
X109791500Y-67183000D01*
X107251500Y-67183000D02*
X107251500Y-68199000D01*
X109791500Y-70739000D02*
X110807500Y-70739000D01*
X110807500Y-68199000D02*
X110807500Y-67183000D01*
X110807500Y-69723000D02*
X110807500Y-70739000D01*
X107251500Y-69723000D02*
X107251500Y-70739000D01*
X107251500Y-69723000D02*
X106529500Y-68961000D01*
X107251500Y-68199000D02*
X106529500Y-68961000D01*
X109029500Y-71461000D02*
X109791500Y-70739000D01*
X108267500Y-70739000D02*
X107251500Y-70739000D01*
X109029500Y-66461000D02*
X109791500Y-67183000D01*
X108267500Y-67183000D02*
X107251500Y-67183000D01*
X109029500Y-69215000D02*
X109029500Y-70993000D01*
X111061500Y-68961000D02*
X109283500Y-68961000D01*
X108775500Y-68961000D02*
X106997500Y-68961000D01*
X109029500Y-68707000D02*
X109029500Y-66929000D01*
X110553500Y-67437000D02*
X109537500Y-68453000D01*
X108521500Y-68453000D02*
X107505500Y-67437000D01*
X108521500Y-69469000D02*
X107505500Y-70485000D01*
X109537500Y-69469000D02*
X110553500Y-70485000D01*
X109537500Y-67437000D02*
X109283500Y-67691000D01*
X108775500Y-67691000D02*
X108521500Y-67437000D01*
X109537500Y-70485000D02*
X109283500Y-70231000D01*
X108775500Y-70231000D02*
X108521500Y-70485000D01*
X110299500Y-68707000D02*
X110553500Y-68453000D01*
X110299500Y-69469000D02*
X110553500Y-69723000D01*
X107505500Y-68453000D02*
X107759500Y-68707000D01*
X107505500Y-69469000D02*
X107759500Y-69215000D01*
X96139000Y-75184000D02*
X96393000Y-74930000D01*
X96139000Y-74168000D02*
X96393000Y-74422000D01*
X98933000Y-75184000D02*
X99187000Y-75438000D01*
X98933000Y-74422000D02*
X99187000Y-74168000D01*
X97409000Y-75946000D02*
X97155000Y-76200000D01*
X98171000Y-76200000D02*
X97917000Y-75946000D01*
X97409000Y-73406000D02*
X97155000Y-73152000D01*
X98171000Y-73152000D02*
X97917000Y-73406000D01*
X98171000Y-75184000D02*
X99187000Y-76200000D01*
X97155000Y-75184000D02*
X96139000Y-76200000D01*
X97155000Y-74168000D02*
X96139000Y-73152000D01*
X99187000Y-73152000D02*
X98171000Y-74168000D01*
X97663000Y-74422000D02*
X97663000Y-72644000D01*
X97409000Y-74676000D02*
X95631000Y-74676000D01*
X99695000Y-74676000D02*
X97917000Y-74676000D01*
X97663000Y-74930000D02*
X97663000Y-76708000D01*
X96901000Y-72898000D02*
X95885000Y-72898000D01*
X97663000Y-72176000D02*
X98425000Y-72898000D01*
X96901000Y-76454000D02*
X95885000Y-76454000D01*
X97663000Y-77176000D02*
X98425000Y-76454000D01*
X95885000Y-73914000D02*
X95163000Y-74676000D01*
X95885000Y-75438000D02*
X95163000Y-74676000D01*
X95885000Y-75438000D02*
X95885000Y-76454000D01*
X99441000Y-75438000D02*
X99441000Y-76454000D01*
X99441000Y-73914000D02*
X99441000Y-72898000D01*
X98425000Y-76454000D02*
X99441000Y-76454000D01*
X95885000Y-72898000D02*
X95885000Y-73914000D01*
X99441000Y-72898000D02*
X98425000Y-72898000D01*
X96901000Y-72898000D02*
X97663000Y-72176000D01*
X97663000Y-77176000D02*
X96901000Y-76454000D01*
X100163000Y-74676000D02*
X99441000Y-75438000D01*
X99441000Y-73914000D02*
X100163000Y-74676000D01*
X97409000Y-70866000D02*
X97663000Y-71628000D01*
X97663000Y-70104000D02*
X97409000Y-70866000D01*
X97917000Y-70866000D02*
X97663000Y-70104000D01*
X97663000Y-71628000D02*
X97917000Y-70866000D01*
X97663000Y-72136000D02*
X97663000Y-71628000D01*
X128651000Y-123190000D02*
X128905000Y-122936000D01*
X128651000Y-122174000D02*
X128905000Y-122428000D01*
X131445000Y-123190000D02*
X131699000Y-123444000D01*
X131445000Y-122428000D02*
X131699000Y-122174000D01*
X129921000Y-123952000D02*
X129667000Y-124206000D01*
X130683000Y-124206000D02*
X130429000Y-123952000D01*
X129921000Y-121412000D02*
X129667000Y-121158000D01*
X130683000Y-121158000D02*
X130429000Y-121412000D01*
X130683000Y-123190000D02*
X131699000Y-124206000D01*
X129667000Y-123190000D02*
X128651000Y-124206000D01*
X129667000Y-122174000D02*
X128651000Y-121158000D01*
X131699000Y-121158000D02*
X130683000Y-122174000D01*
X130175000Y-122428000D02*
X130175000Y-120650000D01*
X129921000Y-122682000D02*
X128143000Y-122682000D01*
X132207000Y-122682000D02*
X130429000Y-122682000D01*
X130175000Y-122936000D02*
X130175000Y-124714000D01*
X129413000Y-120904000D02*
X128397000Y-120904000D01*
X130175000Y-120182000D02*
X130937000Y-120904000D01*
X129413000Y-124460000D02*
X128397000Y-124460000D01*
X130175000Y-125182000D02*
X130937000Y-124460000D01*
X128397000Y-121920000D02*
X127675000Y-122682000D01*
X128397000Y-123444000D02*
X127675000Y-122682000D01*
X128397000Y-123444000D02*
X128397000Y-124460000D01*
X131953000Y-123444000D02*
X131953000Y-124460000D01*
X131953000Y-121920000D02*
X131953000Y-120904000D01*
X130937000Y-124460000D02*
X131953000Y-124460000D01*
X128397000Y-120904000D02*
X128397000Y-121920000D01*
X131953000Y-120904000D02*
X130937000Y-120904000D01*
X129413000Y-120904000D02*
X130175000Y-120182000D01*
X130175000Y-125182000D02*
X129413000Y-124460000D01*
X132675000Y-122682000D02*
X131953000Y-123444000D01*
X131953000Y-121920000D02*
X132675000Y-122682000D01*
X129921000Y-118872000D02*
X130175000Y-119634000D01*
X130175000Y-118110000D02*
X129921000Y-118872000D01*
X130429000Y-118872000D02*
X130175000Y-118110000D01*
X130175000Y-119634000D02*
X130429000Y-118872000D01*
X130175000Y-120142000D02*
X130175000Y-119634000D01*
X98806000Y-131953000D02*
X99060000Y-131699000D01*
X98806000Y-130937000D02*
X99060000Y-131191000D01*
X101600000Y-131953000D02*
X101854000Y-132207000D01*
X101600000Y-131191000D02*
X101854000Y-130937000D01*
X100076000Y-132715000D02*
X99822000Y-132969000D01*
X100838000Y-132969000D02*
X100584000Y-132715000D01*
X100076000Y-130175000D02*
X99822000Y-129921000D01*
X100838000Y-129921000D02*
X100584000Y-130175000D01*
X100838000Y-131953000D02*
X101854000Y-132969000D01*
X99822000Y-131953000D02*
X98806000Y-132969000D01*
X99822000Y-130937000D02*
X98806000Y-129921000D01*
X101854000Y-129921000D02*
X100838000Y-130937000D01*
X100330000Y-131191000D02*
X100330000Y-129413000D01*
X100076000Y-131445000D02*
X98298000Y-131445000D01*
X102362000Y-131445000D02*
X100584000Y-131445000D01*
X100330000Y-131699000D02*
X100330000Y-133477000D01*
X99568000Y-129667000D02*
X98552000Y-129667000D01*
X100330000Y-128945000D02*
X101092000Y-129667000D01*
X99568000Y-133223000D02*
X98552000Y-133223000D01*
X100330000Y-133945000D02*
X101092000Y-133223000D01*
X98552000Y-130683000D02*
X97830000Y-131445000D01*
X98552000Y-132207000D02*
X97830000Y-131445000D01*
X98552000Y-132207000D02*
X98552000Y-133223000D01*
X102108000Y-132207000D02*
X102108000Y-133223000D01*
X102108000Y-130683000D02*
X102108000Y-129667000D01*
X101092000Y-133223000D02*
X102108000Y-133223000D01*
X98552000Y-129667000D02*
X98552000Y-130683000D01*
X102108000Y-129667000D02*
X101092000Y-129667000D01*
X99568000Y-129667000D02*
X100330000Y-128945000D01*
X100330000Y-133945000D02*
X99568000Y-133223000D01*
X102830000Y-131445000D02*
X102108000Y-132207000D01*
X102108000Y-130683000D02*
X102830000Y-131445000D01*
X100076000Y-127635000D02*
X100330000Y-128397000D01*
X100330000Y-126873000D02*
X100076000Y-127635000D01*
X100584000Y-127635000D02*
X100330000Y-126873000D01*
X100330000Y-128397000D02*
X100584000Y-127635000D01*
X100330000Y-128905000D02*
X100330000Y-128397000D01*
X93408500Y-93472000D02*
X93662500Y-93218000D01*
X93408500Y-92456000D02*
X93662500Y-92710000D01*
X96202500Y-93472000D02*
X96456500Y-93726000D01*
X96202500Y-92710000D02*
X96456500Y-92456000D01*
X94678500Y-94234000D02*
X94424500Y-94488000D01*
X95440500Y-94488000D02*
X95186500Y-94234000D01*
X94678500Y-91694000D02*
X94424500Y-91440000D01*
X95440500Y-91440000D02*
X95186500Y-91694000D01*
X95440500Y-93472000D02*
X96456500Y-94488000D01*
X94424500Y-93472000D02*
X93408500Y-94488000D01*
X94424500Y-92456000D02*
X93408500Y-91440000D01*
X96456500Y-91440000D02*
X95440500Y-92456000D01*
X94932500Y-92710000D02*
X94932500Y-90932000D01*
X94678500Y-92964000D02*
X92900500Y-92964000D01*
X96964500Y-92964000D02*
X95186500Y-92964000D01*
X94932500Y-93218000D02*
X94932500Y-94996000D01*
X94170500Y-91186000D02*
X93154500Y-91186000D01*
X94932500Y-90464000D02*
X95694500Y-91186000D01*
X94170500Y-94742000D02*
X93154500Y-94742000D01*
X94932500Y-95464000D02*
X95694500Y-94742000D01*
X93154500Y-92202000D02*
X92432500Y-92964000D01*
X93154500Y-93726000D02*
X92432500Y-92964000D01*
X93154500Y-93726000D02*
X93154500Y-94742000D01*
X96710500Y-93726000D02*
X96710500Y-94742000D01*
X96710500Y-92202000D02*
X96710500Y-91186000D01*
X95694500Y-94742000D02*
X96710500Y-94742000D01*
X93154500Y-91186000D02*
X93154500Y-92202000D01*
X96710500Y-91186000D02*
X95694500Y-91186000D01*
X94170500Y-91186000D02*
X94932500Y-90464000D01*
X94932500Y-95464000D02*
X94170500Y-94742000D01*
X97432500Y-92964000D02*
X96710500Y-93726000D01*
X96710500Y-92202000D02*
X97432500Y-92964000D01*
X94678500Y-89154000D02*
X94932500Y-89916000D01*
X94932500Y-88392000D02*
X94678500Y-89154000D01*
X95186500Y-89154000D02*
X94932500Y-88392000D01*
X94932500Y-89916000D02*
X95186500Y-89154000D01*
X94932500Y-90424000D02*
X94932500Y-89916000D01*
X128968500Y-110680500D02*
X129222500Y-110426500D01*
X128968500Y-109664500D02*
X129222500Y-109918500D01*
X131762500Y-110680500D02*
X132016500Y-110934500D01*
X131762500Y-109918500D02*
X132016500Y-109664500D01*
X130238500Y-111442500D02*
X129984500Y-111696500D01*
X131000500Y-111696500D02*
X130746500Y-111442500D01*
X130238500Y-108902500D02*
X129984500Y-108648500D01*
X131000500Y-108648500D02*
X130746500Y-108902500D01*
X131000500Y-110680500D02*
X132016500Y-111696500D01*
X129984500Y-110680500D02*
X128968500Y-111696500D01*
X129984500Y-109664500D02*
X128968500Y-108648500D01*
X132016500Y-108648500D02*
X131000500Y-109664500D01*
X130492500Y-109918500D02*
X130492500Y-108140500D01*
X130238500Y-110172500D02*
X128460500Y-110172500D01*
X132524500Y-110172500D02*
X130746500Y-110172500D01*
X130492500Y-110426500D02*
X130492500Y-112204500D01*
X129730500Y-108394500D02*
X128714500Y-108394500D01*
X130492500Y-107672500D02*
X131254500Y-108394500D01*
X129730500Y-111950500D02*
X128714500Y-111950500D01*
X130492500Y-112672500D02*
X131254500Y-111950500D01*
X128714500Y-109410500D02*
X127992500Y-110172500D01*
X128714500Y-110934500D02*
X127992500Y-110172500D01*
X128714500Y-110934500D02*
X128714500Y-111950500D01*
X132270500Y-110934500D02*
X132270500Y-111950500D01*
X132270500Y-109410500D02*
X132270500Y-108394500D01*
X131254500Y-111950500D02*
X132270500Y-111950500D01*
X128714500Y-108394500D02*
X128714500Y-109410500D01*
X132270500Y-108394500D02*
X131254500Y-108394500D01*
X129730500Y-108394500D02*
X130492500Y-107672500D01*
X130492500Y-112672500D02*
X129730500Y-111950500D01*
X132992500Y-110172500D02*
X132270500Y-110934500D01*
X132270500Y-109410500D02*
X132992500Y-110172500D01*
X130238500Y-106362500D02*
X130492500Y-107124500D01*
X130492500Y-105600500D02*
X130238500Y-106362500D01*
X130746500Y-106362500D02*
X130492500Y-105600500D01*
X130492500Y-107124500D02*
X130746500Y-106362500D01*
X130492500Y-107632500D02*
X130492500Y-107124500D01*
X106807000Y-102362000D02*
X107061000Y-102108000D01*
X106807000Y-101346000D02*
X107061000Y-101600000D01*
X109601000Y-102362000D02*
X109855000Y-102616000D01*
X109601000Y-101600000D02*
X109855000Y-101346000D01*
X108077000Y-103124000D02*
X107823000Y-103378000D01*
X108839000Y-103378000D02*
X108585000Y-103124000D01*
X108077000Y-100584000D02*
X107823000Y-100330000D01*
X108839000Y-100330000D02*
X108585000Y-100584000D01*
X108839000Y-102362000D02*
X109855000Y-103378000D01*
X107823000Y-102362000D02*
X106807000Y-103378000D01*
X107823000Y-101346000D02*
X106807000Y-100330000D01*
X109855000Y-100330000D02*
X108839000Y-101346000D01*
X108331000Y-101600000D02*
X108331000Y-99822000D01*
X108077000Y-101854000D02*
X106299000Y-101854000D01*
X110363000Y-101854000D02*
X108585000Y-101854000D01*
X108331000Y-102108000D02*
X108331000Y-103886000D01*
X107569000Y-100076000D02*
X106553000Y-100076000D01*
X108331000Y-99354000D02*
X109093000Y-100076000D01*
X107569000Y-103632000D02*
X106553000Y-103632000D01*
X108331000Y-104354000D02*
X109093000Y-103632000D01*
X106553000Y-101092000D02*
X105831000Y-101854000D01*
X106553000Y-102616000D02*
X105831000Y-101854000D01*
X106553000Y-102616000D02*
X106553000Y-103632000D01*
X110109000Y-102616000D02*
X110109000Y-103632000D01*
X110109000Y-101092000D02*
X110109000Y-100076000D01*
X109093000Y-103632000D02*
X110109000Y-103632000D01*
X106553000Y-100076000D02*
X106553000Y-101092000D01*
X110109000Y-100076000D02*
X109093000Y-100076000D01*
X107569000Y-100076000D02*
X108331000Y-99354000D01*
X108331000Y-104354000D02*
X107569000Y-103632000D01*
X110831000Y-101854000D02*
X110109000Y-102616000D01*
X110109000Y-101092000D02*
X110831000Y-101854000D01*
X108077000Y-98044000D02*
X108331000Y-98806000D01*
X108331000Y-97282000D02*
X108077000Y-98044000D01*
X108585000Y-98044000D02*
X108331000Y-97282000D01*
X108331000Y-98806000D02*
X108585000Y-98044000D01*
X108331000Y-99314000D02*
X108331000Y-98806000D01*
X114236500Y-80772000D02*
X114236500Y-80264000D01*
X114236500Y-80264000D02*
X114490500Y-79502000D01*
X114490500Y-79502000D02*
X114236500Y-78740000D01*
X114236500Y-78740000D02*
X113982500Y-79502000D01*
X113982500Y-79502000D02*
X114236500Y-80264000D01*
X116014500Y-82550000D02*
X116736500Y-83312000D01*
X116736500Y-83312000D02*
X116014500Y-84074000D01*
X114236500Y-85812000D02*
X113474500Y-85090000D01*
X113474500Y-81534000D02*
X114236500Y-80812000D01*
X116014500Y-81534000D02*
X114998500Y-81534000D01*
X112458500Y-81534000D02*
X112458500Y-82550000D01*
X114998500Y-85090000D02*
X116014500Y-85090000D01*
X116014500Y-82550000D02*
X116014500Y-81534000D01*
X116014500Y-84074000D02*
X116014500Y-85090000D01*
X112458500Y-84074000D02*
X112458500Y-85090000D01*
X112458500Y-84074000D02*
X111736500Y-83312000D01*
X112458500Y-82550000D02*
X111736500Y-83312000D01*
X114236500Y-85812000D02*
X114998500Y-85090000D01*
X113474500Y-85090000D02*
X112458500Y-85090000D01*
X114236500Y-80812000D02*
X114998500Y-81534000D01*
X113474500Y-81534000D02*
X112458500Y-81534000D01*
X114236500Y-83566000D02*
X114236500Y-85344000D01*
X116268500Y-83312000D02*
X114490500Y-83312000D01*
X113982500Y-83312000D02*
X112204500Y-83312000D01*
X114236500Y-83058000D02*
X114236500Y-81280000D01*
X115760500Y-81788000D02*
X114744500Y-82804000D01*
X113728500Y-82804000D02*
X112712500Y-81788000D01*
X113728500Y-83820000D02*
X112712500Y-84836000D01*
X114744500Y-83820000D02*
X115760500Y-84836000D01*
X114744500Y-81788000D02*
X114490500Y-82042000D01*
X113982500Y-82042000D02*
X113728500Y-81788000D01*
X114744500Y-84836000D02*
X114490500Y-84582000D01*
X113982500Y-84582000D02*
X113728500Y-84836000D01*
X115506500Y-83058000D02*
X115760500Y-82804000D01*
X115506500Y-83820000D02*
X115760500Y-84074000D01*
X112712500Y-82804000D02*
X112966500Y-83058000D01*
X112712500Y-83820000D02*
X112966500Y-83566000D01*
X100457000Y-97028000D02*
X99187000Y-97698000D01*
X97917000Y-95758000D02*
X100457000Y-97028000D01*
X99695000Y-92202000D02*
X98425000Y-93218000D01*
X99187000Y-92202000D02*
X99187000Y-90932000D01*
X98425000Y-95758000D02*
X100965000Y-97028000D01*
X98425000Y-93218000D02*
X100965000Y-94488000D01*
X100965000Y-97028000D02*
X99695000Y-97698000D01*
X100965000Y-94488000D02*
X98425000Y-95758000D01*
X100457000Y-94488000D02*
X97917000Y-95758000D01*
X99187000Y-97698000D02*
X99187000Y-98806000D01*
X99187000Y-92202000D02*
X97917000Y-93218000D01*
X99695000Y-92202000D02*
X99695000Y-90932000D01*
X97917000Y-93218000D02*
X100457000Y-94488000D01*
X99695000Y-97698000D02*
X99695000Y-98806000D01*
X97409000Y-111252000D02*
X96139000Y-111922000D01*
X94869000Y-109982000D02*
X97409000Y-111252000D01*
X96647000Y-106426000D02*
X95377000Y-107442000D01*
X96139000Y-106426000D02*
X96139000Y-105156000D01*
X95377000Y-109982000D02*
X97917000Y-111252000D01*
X95377000Y-107442000D02*
X97917000Y-108712000D01*
X97917000Y-111252000D02*
X96647000Y-111922000D01*
X97917000Y-108712000D02*
X95377000Y-109982000D01*
X97409000Y-108712000D02*
X94869000Y-109982000D01*
X96139000Y-111922000D02*
X96139000Y-113030000D01*
X96139000Y-106426000D02*
X94869000Y-107442000D01*
X96647000Y-106426000D02*
X96647000Y-105156000D01*
X94869000Y-107442000D02*
X97409000Y-108712000D01*
X96647000Y-111922000D02*
X96647000Y-113030000D01*
X109093000Y-90043000D02*
X107823000Y-90713000D01*
X106553000Y-88773000D02*
X109093000Y-90043000D01*
X108331000Y-85217000D02*
X107061000Y-86233000D01*
X107823000Y-85217000D02*
X107823000Y-83947000D01*
X107061000Y-88773000D02*
X109601000Y-90043000D01*
X107061000Y-86233000D02*
X109601000Y-87503000D01*
X109601000Y-90043000D02*
X108331000Y-90713000D01*
X109601000Y-87503000D02*
X107061000Y-88773000D01*
X109093000Y-87503000D02*
X106553000Y-88773000D01*
X107823000Y-90713000D02*
X107823000Y-91821000D01*
X107823000Y-85217000D02*
X106553000Y-86233000D01*
X108331000Y-85217000D02*
X108331000Y-83947000D01*
X106553000Y-86233000D02*
X109093000Y-87503000D01*
X108331000Y-90713000D02*
X108331000Y-91821000D01*
X122809000Y-110617000D02*
X121539000Y-111287000D01*
X120269000Y-109347000D02*
X122809000Y-110617000D01*
X122047000Y-105791000D02*
X120777000Y-106807000D01*
X121539000Y-105791000D02*
X121539000Y-104521000D01*
X120777000Y-109347000D02*
X123317000Y-110617000D01*
X120777000Y-106807000D02*
X123317000Y-108077000D01*
X123317000Y-110617000D02*
X122047000Y-111287000D01*
X123317000Y-108077000D02*
X120777000Y-109347000D01*
X122809000Y-108077000D02*
X120269000Y-109347000D01*
X121539000Y-111287000D02*
X121539000Y-112395000D01*
X121539000Y-105791000D02*
X120269000Y-106807000D01*
X122047000Y-105791000D02*
X122047000Y-104521000D01*
X120269000Y-106807000D02*
X122809000Y-108077000D01*
X122047000Y-111287000D02*
X122047000Y-112395000D01*
X117665500Y-122110500D02*
X116395500Y-122780500D01*
X115125500Y-120840500D02*
X117665500Y-122110500D01*
X116903500Y-117284500D02*
X115633500Y-118300500D01*
X116395500Y-117284500D02*
X116395500Y-116014500D01*
X115633500Y-120840500D02*
X118173500Y-122110500D01*
X115633500Y-118300500D02*
X118173500Y-119570500D01*
X118173500Y-122110500D02*
X116903500Y-122780500D01*
X118173500Y-119570500D02*
X115633500Y-120840500D01*
X117665500Y-119570500D02*
X115125500Y-120840500D01*
X116395500Y-122780500D02*
X116395500Y-123888500D01*
X116395500Y-117284500D02*
X115125500Y-118300500D01*
X116903500Y-117284500D02*
X116903500Y-116014500D01*
X115125500Y-118300500D02*
X117665500Y-119570500D01*
X116903500Y-122780500D02*
X116903500Y-123888500D01*
X110807500Y-129222500D02*
X109537500Y-129892500D01*
X108267500Y-127952500D02*
X110807500Y-129222500D01*
X110045500Y-124396500D02*
X108775500Y-125412500D01*
X109537500Y-124396500D02*
X109537500Y-123126500D01*
X108775500Y-127952500D02*
X111315500Y-129222500D01*
X108775500Y-125412500D02*
X111315500Y-126682500D01*
X111315500Y-129222500D02*
X110045500Y-129892500D01*
X111315500Y-126682500D02*
X108775500Y-127952500D01*
X110807500Y-126682500D02*
X108267500Y-127952500D01*
X109537500Y-129892500D02*
X109537500Y-131000500D01*
X109537500Y-124396500D02*
X108267500Y-125412500D01*
X110045500Y-124396500D02*
X110045500Y-123126500D01*
X108267500Y-125412500D02*
X110807500Y-126682500D01*
X110045500Y-129892500D02*
X110045500Y-131000500D01*
D10*
X97242000Y-83693000D02*
G75*
G03X97242000Y-83693000I-2500000J0D01*
G01*
D12*
X94742000Y-79121000D02*
X94488000Y-79883000D01*
X94488000Y-79883000D02*
X94742000Y-80645000D01*
X94742000Y-80645000D02*
X94996000Y-79883000D01*
X94996000Y-79883000D02*
X94742000Y-79121000D01*
X94742000Y-81153000D02*
X94742000Y-80645000D01*
X95377000Y-83693000D02*
X94107000Y-83693000D01*
D10*
X103465000Y-67183000D02*
G75*
G03X103465000Y-67183000I-2500000J0D01*
G01*
D12*
X100965000Y-62611000D02*
X100711000Y-63373000D01*
X100711000Y-63373000D02*
X100965000Y-64135000D01*
X100965000Y-64135000D02*
X101219000Y-63373000D01*
X101219000Y-63373000D02*
X100965000Y-62611000D01*
X100965000Y-64643000D02*
X100965000Y-64135000D01*
X101600000Y-67183000D02*
X100330000Y-67183000D01*
D10*
X92670000Y-105727500D02*
G75*
G03X92670000Y-105727500I-2500000J0D01*
G01*
D12*
X90170000Y-101155500D02*
X89916000Y-101917500D01*
X89916000Y-101917500D02*
X90170000Y-102679500D01*
X90170000Y-102679500D02*
X90424000Y-101917500D01*
X90424000Y-101917500D02*
X90170000Y-101155500D01*
X90170000Y-103187500D02*
X90170000Y-102679500D01*
X90805000Y-105727500D02*
X89535000Y-105727500D01*
D10*
X80351000Y-121920000D02*
G75*
G03X80351000Y-121920000I-2500000J0D01*
G01*
D12*
X77851000Y-117348000D02*
X77597000Y-118110000D01*
X77597000Y-118110000D02*
X77851000Y-118872000D01*
X77851000Y-118872000D02*
X78105000Y-118110000D01*
X78105000Y-118110000D02*
X77851000Y-117348000D01*
X77851000Y-119380000D02*
X77851000Y-118872000D01*
X78486000Y-121920000D02*
X77216000Y-121920000D01*
D10*
X114133000Y-75438000D02*
G75*
G03X114133000Y-75438000I-2500000J0D01*
G01*
D12*
X111633000Y-70866000D02*
X111379000Y-71628000D01*
X111379000Y-71628000D02*
X111633000Y-72390000D01*
X111633000Y-72390000D02*
X111887000Y-71628000D01*
X111887000Y-71628000D02*
X111633000Y-70866000D01*
X111633000Y-72898000D02*
X111633000Y-72390000D01*
X112268000Y-75438000D02*
X110998000Y-75438000D01*
D10*
X116990500Y-93853000D02*
G75*
G03X116990500Y-93853000I-2500000J0D01*
G01*
D12*
X114490500Y-89281000D02*
X114236500Y-90043000D01*
X114236500Y-90043000D02*
X114490500Y-90805000D01*
X114490500Y-90805000D02*
X114744500Y-90043000D01*
X114744500Y-90043000D02*
X114490500Y-89281000D01*
X114490500Y-91313000D02*
X114490500Y-90805000D01*
X115125500Y-93853000D02*
X113855500Y-93853000D01*
D10*
X113434500Y-108775500D02*
G75*
G03X113434500Y-108775500I-2500000J0D01*
G01*
D12*
X110934500Y-104203500D02*
X110680500Y-104965500D01*
X110680500Y-104965500D02*
X110934500Y-105727500D01*
X110934500Y-105727500D02*
X111188500Y-104965500D01*
X111188500Y-104965500D02*
X110934500Y-104203500D01*
X110934500Y-106235500D02*
X110934500Y-105727500D01*
X111569500Y-108775500D02*
X110299500Y-108775500D01*
D10*
X137564500Y-125222000D02*
G75*
G03X137564500Y-125222000I-2500000J0D01*
G01*
D12*
X135064500Y-120650000D02*
X134810500Y-121412000D01*
X134810500Y-121412000D02*
X135064500Y-122174000D01*
X135064500Y-122174000D02*
X135318500Y-121412000D01*
X135318500Y-121412000D02*
X135064500Y-120650000D01*
X135064500Y-122682000D02*
X135064500Y-122174000D01*
X135699500Y-125222000D02*
X134429500Y-125222000D01*
D13*
X106553000Y-147066000D02*
X106553000Y-148336000D01*
X107823000Y-147066000D02*
X106553000Y-147066000D01*
X118363000Y-149378929D02*
X118363000Y-149776000D01*
X117603000Y-149378929D02*
X117603000Y-149776000D01*
X118363000Y-158436000D02*
X118363000Y-152436000D01*
X117603000Y-158436000D02*
X118363000Y-158436000D01*
X117603000Y-152436000D02*
X117603000Y-158436000D01*
X116713000Y-149776000D02*
X116713000Y-152436000D01*
X115823000Y-149378929D02*
X115823000Y-149776000D01*
X115063000Y-149378929D02*
X115063000Y-149776000D01*
X115823000Y-158436000D02*
X115823000Y-152436000D01*
X115063000Y-158436000D02*
X115823000Y-158436000D01*
X115063000Y-152436000D02*
X115063000Y-158436000D01*
X114173000Y-149776000D02*
X114173000Y-152436000D01*
X113283000Y-149378929D02*
X113283000Y-149776000D01*
X112523000Y-149378929D02*
X112523000Y-149776000D01*
X113283000Y-158436000D02*
X113283000Y-152436000D01*
X112523000Y-158436000D02*
X113283000Y-158436000D01*
X112523000Y-152436000D02*
X112523000Y-158436000D01*
X111633000Y-149776000D02*
X111633000Y-152436000D01*
X110743000Y-149378929D02*
X110743000Y-149776000D01*
X109983000Y-149378929D02*
X109983000Y-149776000D01*
X110743000Y-158436000D02*
X110743000Y-152436000D01*
X109983000Y-158436000D02*
X110743000Y-158436000D01*
X109983000Y-152436000D02*
X109983000Y-158436000D01*
X109093000Y-149776000D02*
X109093000Y-152436000D01*
X108203000Y-149446000D02*
X108203000Y-149776000D01*
X107443000Y-149446000D02*
X107443000Y-149776000D01*
X108103000Y-152436000D02*
X108103000Y-158436000D01*
X107983000Y-152436000D02*
X107983000Y-158436000D01*
X107863000Y-152436000D02*
X107863000Y-158436000D01*
X107743000Y-152436000D02*
X107743000Y-158436000D01*
X107623000Y-152436000D02*
X107623000Y-158436000D01*
X107503000Y-152436000D02*
X107503000Y-158436000D01*
X108203000Y-158436000D02*
X108203000Y-152436000D01*
X107443000Y-158436000D02*
X108203000Y-158436000D01*
X107443000Y-152436000D02*
X107443000Y-158436000D01*
X106493000Y-152436000D02*
X106493000Y-149776000D01*
X119313000Y-152436000D02*
X106493000Y-152436000D01*
X119313000Y-149776000D02*
X119313000Y-152436000D01*
X106493000Y-149776000D02*
X119313000Y-149776000D01*
D10*
X124402714Y-121100857D02*
X124288428Y-121138952D01*
X124250333Y-121177047D01*
X124212238Y-121253238D01*
X124212238Y-121367523D01*
X124250333Y-121443714D01*
X124288428Y-121481809D01*
X124364619Y-121519904D01*
X124669380Y-121519904D01*
X124669380Y-120719904D01*
X124402714Y-120719904D01*
X124326523Y-120758000D01*
X124288428Y-120796095D01*
X124250333Y-120872285D01*
X124250333Y-120948476D01*
X124288428Y-121024666D01*
X124326523Y-121062761D01*
X124402714Y-121100857D01*
X124669380Y-121100857D01*
X123907476Y-121291333D02*
X123526523Y-121291333D01*
X123983666Y-121519904D02*
X123717000Y-120719904D01*
X123450333Y-121519904D01*
X122726523Y-121443714D02*
X122764619Y-121481809D01*
X122878904Y-121519904D01*
X122955095Y-121519904D01*
X123069380Y-121481809D01*
X123145571Y-121405619D01*
X123183666Y-121329428D01*
X123221761Y-121177047D01*
X123221761Y-121062761D01*
X123183666Y-120910380D01*
X123145571Y-120834190D01*
X123069380Y-120758000D01*
X122955095Y-120719904D01*
X122878904Y-120719904D01*
X122764619Y-120758000D01*
X122726523Y-120796095D01*
X122383666Y-121519904D02*
X122383666Y-120719904D01*
X121926523Y-121519904D02*
X122269380Y-121062761D01*
X121926523Y-120719904D02*
X122383666Y-121177047D01*
D12*
X123245571Y-119816571D02*
X123102714Y-119864190D01*
X123055095Y-119911809D01*
X123007476Y-120007047D01*
X123007476Y-120149904D01*
X123055095Y-120245142D01*
X123102714Y-120292761D01*
X123197952Y-120340380D01*
X123578904Y-120340380D01*
X123578904Y-119340380D01*
X123245571Y-119340380D01*
X123150333Y-119388000D01*
X123102714Y-119435619D01*
X123055095Y-119530857D01*
X123055095Y-119626095D01*
X123102714Y-119721333D01*
X123150333Y-119768952D01*
X123245571Y-119816571D01*
X123578904Y-119816571D01*
X105005380Y-152387666D02*
X105719666Y-152387666D01*
X105862523Y-152340047D01*
X105957761Y-152244809D01*
X106005380Y-152101952D01*
X106005380Y-152006714D01*
X105100619Y-152816238D02*
X105053000Y-152863857D01*
X105005380Y-152959095D01*
X105005380Y-153197190D01*
X105053000Y-153292428D01*
X105100619Y-153340047D01*
X105195857Y-153387666D01*
X105291095Y-153387666D01*
X105433952Y-153340047D01*
X106005380Y-152768619D01*
X106005380Y-153387666D01*
M02*
