G04 #@! TF.GenerationSoftware,KiCad,Pcbnew,(5.1.5)-3*
G04 #@! TF.CreationDate,2020-10-16T01:59:12+02:00*
G04 #@! TF.ProjectId,Christmas B,43687269-7374-46d6-9173-20422e6b6963,rev?*
G04 #@! TF.SameCoordinates,Original*
G04 #@! TF.FileFunction,Copper,L2,Bot*
G04 #@! TF.FilePolarity,Positive*
%FSLAX46Y46*%
G04 Gerber Fmt 4.6, Leading zero omitted, Abs format (unit mm)*
G04 Created by KiCad (PCBNEW (5.1.5)-3) date 2020-10-16 01:59:12*
%MOMM*%
%LPD*%
G04 APERTURE LIST*
%ADD10C,1.600000*%
%ADD11O,1.600000X1.600000*%
%ADD12C,1.800000*%
%ADD13R,1.800000X1.800000*%
%ADD14R,1.700000X1.700000*%
%ADD15O,1.700000X1.700000*%
%ADD16C,0.800000*%
%ADD17C,0.250000*%
G04 APERTURE END LIST*
D10*
X93027500Y-114046000D03*
D11*
X93027500Y-124206000D03*
D10*
X101663500Y-71818500D03*
D11*
X101663500Y-81978500D03*
D10*
X99441000Y-89916000D03*
D11*
X99441000Y-100076000D03*
D10*
X96393000Y-104140000D03*
D11*
X96393000Y-114300000D03*
D10*
X108077000Y-82931000D03*
D11*
X108077000Y-93091000D03*
D10*
X121793000Y-103505000D03*
D11*
X121793000Y-113665000D03*
D10*
X116649500Y-114998500D03*
D11*
X116649500Y-125158500D03*
D10*
X109791500Y-122110500D03*
D11*
X109791500Y-132270500D03*
D12*
X96012000Y-83693000D03*
D13*
X93472000Y-83693000D03*
D12*
X102235000Y-67183000D03*
D13*
X99695000Y-67183000D03*
D12*
X91440000Y-105727500D03*
D13*
X88900000Y-105727500D03*
D12*
X79121000Y-121920000D03*
D13*
X76581000Y-121920000D03*
D12*
X112903000Y-75438000D03*
D13*
X110363000Y-75438000D03*
D12*
X115760500Y-93853000D03*
D13*
X113220500Y-93853000D03*
D12*
X112204500Y-108775500D03*
D13*
X109664500Y-108775500D03*
D12*
X136334500Y-125222000D03*
D13*
X133794500Y-125222000D03*
D14*
X101727000Y-148336000D03*
D15*
X99187000Y-148336000D03*
X96647000Y-148336000D03*
X94107000Y-148336000D03*
X91567000Y-148336000D03*
X117983000Y-148336000D03*
X115443000Y-148336000D03*
X112903000Y-148336000D03*
X110363000Y-148336000D03*
D14*
X107823000Y-148336000D03*
D16*
X93091000Y-121412000D03*
X99822000Y-124841000D03*
X100330000Y-115570000D03*
X108585000Y-125095000D03*
X108585000Y-116840000D03*
X107315000Y-95885000D03*
D17*
X102235000Y-71247000D02*
X101663500Y-71818500D01*
X102235000Y-67183000D02*
X102235000Y-71247000D01*
X97536000Y-89916000D02*
X99441000Y-89916000D01*
X96012000Y-83693000D02*
X96012000Y-88392000D01*
X96012000Y-88392000D02*
X97536000Y-89916000D01*
X93091000Y-114109500D02*
X93027500Y-114046000D01*
X93091000Y-121412000D02*
X93091000Y-114109500D01*
X108077000Y-81799630D02*
X112903000Y-76973630D01*
X112903000Y-76973630D02*
X112903000Y-76708000D01*
X108077000Y-82931000D02*
X108077000Y-81799630D01*
X112903000Y-75438000D02*
X112903000Y-76708000D01*
X117033292Y-93853000D02*
X118808500Y-95628208D01*
X118808500Y-95628208D02*
X118808500Y-96266000D01*
X115760500Y-93853000D02*
X117033292Y-93853000D01*
X118808500Y-96266000D02*
X118808500Y-95821500D01*
X118808500Y-100520500D02*
X118808500Y-100330000D01*
X121793000Y-103505000D02*
X118808500Y-100520500D01*
X118808500Y-100330000D02*
X118808500Y-96266000D01*
X116649500Y-114998500D02*
X116649500Y-109664500D01*
X115760500Y-108775500D02*
X112204500Y-108775500D01*
X116649500Y-109664500D02*
X115760500Y-108775500D01*
X93504001Y-147160999D02*
X92742001Y-147160999D01*
X99822000Y-124841000D02*
X99822000Y-140843000D01*
X92742001Y-147160999D02*
X91567000Y-148336000D01*
X99822000Y-140843000D02*
X93504001Y-147160999D01*
X100965000Y-116205000D02*
X100330000Y-115570000D01*
X100965000Y-140970000D02*
X100965000Y-116205000D01*
X94107000Y-148336000D02*
X94107000Y-147828000D01*
X94107000Y-147828000D02*
X100965000Y-140970000D01*
X96647000Y-146469100D02*
X96647000Y-148336000D01*
X101600000Y-141516100D02*
X96647000Y-146469100D01*
X101600000Y-100965000D02*
X101600000Y-141516100D01*
X99441000Y-100076000D02*
X100711000Y-100076000D01*
X100711000Y-100076000D02*
X101600000Y-100965000D01*
X99187000Y-147828000D02*
X99187000Y-148336000D01*
X99187000Y-145046700D02*
X99187000Y-147828000D01*
X102235000Y-141998700D02*
X99187000Y-145046700D01*
X101663500Y-81978500D02*
X102235000Y-82550000D01*
X102235000Y-82550000D02*
X102235000Y-141998700D01*
X109791500Y-132270500D02*
X109791500Y-140944600D01*
X115443000Y-146596100D02*
X115443000Y-148336000D01*
X109791500Y-140944600D02*
X115443000Y-146596100D01*
X108185001Y-125494999D02*
X108585000Y-125095000D01*
X112903000Y-148336000D02*
X112903000Y-145288000D01*
X108185001Y-140570001D02*
X108185001Y-125494999D01*
X112903000Y-145288000D02*
X108185001Y-140570001D01*
X110363000Y-143992600D02*
X110363000Y-148336000D01*
X107499989Y-141129589D02*
X110363000Y-143992600D01*
X108585000Y-116840000D02*
X107499989Y-117925011D01*
X107499989Y-117925011D02*
X107499989Y-141129589D01*
X106915001Y-96284999D02*
X107315000Y-95885000D01*
X106915001Y-141763801D02*
X106915001Y-96284999D01*
X107823000Y-148336000D02*
X107823000Y-142671800D01*
X107823000Y-142671800D02*
X106915001Y-141763801D01*
M02*
