M48
; DRILL file {KiCad (5.1.5)-3} date 16/10/2020 01:58:06
; FORMAT={2:4/ absolute / inch / suppress leading zeros}
; #@! TF.CreationDate,2020-10-16T01:58:06+02:00
; #@! TF.GenerationSoftware,Kicad,Pcbnew,(5.1.5)-3
FMAT,2
INCH,TZ
T1C0.0157
T2C0.0315
T3C0.0354
T4C0.0394
%
G90
G05
T1
X36000Y-47750
X39250Y-49500
X39500Y-45500
X42250Y-37750
X42750Y-46000
X42750Y-49250
T2
X39975Y-29250
X39975Y-33250
X43225Y-48075
X43225Y-52075
X45925Y-45275
X45925Y-49275
X42325Y-23650
X42325Y-27650
X43275Y-32850
X43275Y-36850
X36150Y-45125
X36150Y-49125
X37950Y-41000
X37950Y-45000
X39150Y-35400
X39150Y-39400
X47675Y-41650
X47675Y-45650
T3
X43875Y-29875
X44875Y-29875
X31875Y-47975
X32875Y-47975
X52675Y-49300
X53675Y-49300
X45775Y-37725
X46775Y-37725
X39250Y-26450
X40250Y-26450
X40725Y-21225
X41725Y-21225
X36800Y-32950
X37800Y-32950
X43175Y-42825
X44175Y-42825
X35000Y-41625
X36000Y-41625
T4
X42450Y-58400
X43450Y-58400
X44450Y-58400
X45450Y-58400
X46450Y-58400
X36050Y-58400
X37050Y-58400
X38050Y-58400
X39050Y-58400
X40050Y-58400
T0
M30
