G04 #@! TF.GenerationSoftware,KiCad,Pcbnew,(5.1.5)-3*
G04 #@! TF.CreationDate,2020-10-31T02:18:59+01:00*
G04 #@! TF.ProjectId,Christmas A,43687269-7374-46d6-9173-20412e6b6963,rev?*
G04 #@! TF.SameCoordinates,Original*
G04 #@! TF.FileFunction,Copper,L1,Top*
G04 #@! TF.FilePolarity,Positive*
%FSLAX46Y46*%
G04 Gerber Fmt 4.6, Leading zero omitted, Abs format (unit mm)*
G04 Created by KiCad (PCBNEW (5.1.5)-3) date 2020-10-31 02:18:59*
%MOMM*%
%LPD*%
G04 APERTURE LIST*
%ADD10C,1.600000*%
%ADD11O,1.600000X1.600000*%
%ADD12C,1.800000*%
%ADD13R,1.800000X1.800000*%
%ADD14R,1.700000X1.700000*%
%ADD15O,1.700000X1.700000*%
%ADD16C,0.800000*%
%ADD17C,0.250000*%
%ADD18C,0.254000*%
G04 APERTURE END LIST*
D10*
X107505500Y-60071000D03*
D11*
X107505500Y-70231000D03*
D10*
X101536500Y-74295000D03*
D11*
X101536500Y-84455000D03*
D10*
X99441000Y-89916000D03*
D11*
X99441000Y-100076000D03*
D10*
X96393000Y-104140000D03*
D11*
X96393000Y-114300000D03*
D10*
X91821000Y-114617500D03*
D11*
X91821000Y-124777500D03*
D10*
X109918500Y-83439000D03*
D11*
X109918500Y-93599000D03*
D10*
X121094500Y-105791000D03*
D11*
X121094500Y-115951000D03*
D10*
X116649500Y-114998500D03*
D11*
X116649500Y-125158500D03*
D10*
X109791500Y-122110500D03*
D11*
X109791500Y-132270500D03*
D12*
X96012000Y-83693000D03*
D13*
X93472000Y-83693000D03*
D12*
X102235000Y-67183000D03*
D13*
X99695000Y-67183000D03*
D12*
X91440000Y-105727500D03*
D13*
X88900000Y-105727500D03*
D12*
X83502500Y-121856500D03*
D13*
X80962500Y-121856500D03*
D12*
X113982500Y-75882500D03*
D13*
X111442500Y-75882500D03*
D12*
X118808500Y-95821500D03*
D13*
X116268500Y-95821500D03*
D12*
X112204500Y-108775500D03*
D13*
X109664500Y-108775500D03*
D12*
X136334500Y-125222000D03*
D13*
X133794500Y-125222000D03*
D14*
X101727000Y-148336000D03*
D15*
X99187000Y-148336000D03*
X96647000Y-148336000D03*
X94107000Y-148336000D03*
X91567000Y-148336000D03*
X117983000Y-148336000D03*
X115443000Y-148336000D03*
X112903000Y-148336000D03*
X110363000Y-148336000D03*
D14*
X107823000Y-148336000D03*
D13*
X103441500Y-53911500D03*
D12*
X105981500Y-53911500D03*
D16*
X91440000Y-121285000D03*
X99695000Y-125730000D03*
X100330000Y-115570000D03*
X108585000Y-125095000D03*
X108585000Y-116840000D03*
X107315000Y-95885000D03*
D17*
X94805500Y-105727500D02*
X96393000Y-104140000D01*
X91440000Y-105727500D02*
X94805500Y-105727500D01*
X83502500Y-121856500D02*
X90868500Y-121856500D01*
X90868500Y-121856500D02*
X91440000Y-121285000D01*
X136334500Y-122364500D02*
X136334500Y-125222000D01*
X135255000Y-121285000D02*
X136334500Y-122364500D01*
X109791500Y-122110500D02*
X110617000Y-121285000D01*
X110617000Y-121285000D02*
X135255000Y-121285000D01*
X98742500Y-124777500D02*
X91821000Y-124777500D01*
X99695000Y-125730000D02*
X98742500Y-124777500D01*
X99060000Y-114300000D02*
X96393000Y-114300000D01*
X100330000Y-115570000D02*
X99060000Y-114300000D01*
X116586000Y-125095000D02*
X116649500Y-125158500D01*
X108585000Y-125095000D02*
X116586000Y-125095000D01*
X120205500Y-116840000D02*
X121094500Y-115951000D01*
X108585000Y-116840000D02*
X120205500Y-116840000D01*
X109537500Y-93980000D02*
X109918500Y-93599000D01*
X107950000Y-93980000D02*
X109537500Y-93980000D01*
X107315000Y-95885000D02*
X107315000Y-94615000D01*
X107315000Y-94615000D02*
X107950000Y-93980000D01*
D18*
G36*
X103568500Y-53784500D02*
G01*
X103588500Y-53784500D01*
X103588500Y-54038500D01*
X103568500Y-54038500D01*
X103568500Y-55287750D01*
X103727250Y-55446500D01*
X104341500Y-55449572D01*
X104465982Y-55437312D01*
X104585680Y-55401002D01*
X104695994Y-55342037D01*
X104792685Y-55262685D01*
X104872037Y-55165994D01*
X104931002Y-55055680D01*
X104936556Y-55037373D01*
X105002995Y-55103812D01*
X105254405Y-55271799D01*
X105533757Y-55387511D01*
X105830316Y-55446500D01*
X106132684Y-55446500D01*
X106429243Y-55387511D01*
X106708595Y-55271799D01*
X106960005Y-55103812D01*
X107173812Y-54890005D01*
X107341799Y-54638595D01*
X107457511Y-54359243D01*
X107516500Y-54062684D01*
X107516500Y-53877719D01*
X107673387Y-53989782D01*
X107970272Y-54237187D01*
X108195008Y-54551816D01*
X108468292Y-55207699D01*
X108886949Y-56702902D01*
X109007783Y-57850818D01*
X109134345Y-59179723D01*
X109195201Y-59849149D01*
X109195233Y-59853851D01*
X109198136Y-59881432D01*
X109200646Y-59909039D01*
X109201528Y-59913655D01*
X109322656Y-61064369D01*
X109322733Y-61068418D01*
X109326054Y-61096645D01*
X109329021Y-61124833D01*
X109329835Y-61128789D01*
X109452833Y-62174265D01*
X109455459Y-62200647D01*
X109456619Y-62206447D01*
X109457309Y-62212312D01*
X109462966Y-62238182D01*
X109650844Y-63177568D01*
X109836937Y-64232097D01*
X109838684Y-64246527D01*
X109842567Y-64263999D01*
X109845677Y-64281624D01*
X109849594Y-64295622D01*
X109966764Y-64822886D01*
X109967439Y-64827832D01*
X109973807Y-64854577D01*
X109979750Y-64881321D01*
X109981300Y-64886048D01*
X110288354Y-66175675D01*
X110290989Y-66190144D01*
X110295850Y-66207157D01*
X110299957Y-66224407D01*
X110304759Y-66238338D01*
X110546185Y-67083331D01*
X110547020Y-67087597D01*
X110555081Y-67114467D01*
X110562801Y-67141487D01*
X110564402Y-67145536D01*
X110740397Y-67732188D01*
X110742618Y-67741954D01*
X110749710Y-67763231D01*
X110756151Y-67784700D01*
X110759953Y-67793960D01*
X111000490Y-68515572D01*
X111003640Y-68527386D01*
X111010729Y-68546291D01*
X111017121Y-68565466D01*
X111022111Y-68576643D01*
X111389992Y-69557658D01*
X111394594Y-69572188D01*
X111401369Y-69587996D01*
X111407406Y-69604095D01*
X111414128Y-69617768D01*
X111977722Y-70932820D01*
X111989020Y-70959861D01*
X111990445Y-70962508D01*
X111991635Y-70965284D01*
X112005839Y-70991096D01*
X112437473Y-71792703D01*
X112440876Y-71800304D01*
X112452828Y-71821221D01*
X112464259Y-71842449D01*
X112468911Y-71849365D01*
X112933193Y-72661860D01*
X112933505Y-72662783D01*
X112965330Y-72718100D01*
X112981044Y-72745599D01*
X112981610Y-72746396D01*
X112982093Y-72747236D01*
X113000367Y-72772819D01*
X113037443Y-72825049D01*
X113038153Y-72825720D01*
X113317685Y-73217064D01*
X114118409Y-74347500D01*
X113831316Y-74347500D01*
X113534757Y-74406489D01*
X113255405Y-74522201D01*
X113003995Y-74690188D01*
X112937556Y-74756627D01*
X112932002Y-74738320D01*
X112873037Y-74628006D01*
X112793685Y-74531315D01*
X112696994Y-74451963D01*
X112586680Y-74392998D01*
X112466982Y-74356688D01*
X112342500Y-74344428D01*
X111728250Y-74347500D01*
X111569500Y-74506250D01*
X111569500Y-75755500D01*
X111589500Y-75755500D01*
X111589500Y-76009500D01*
X111569500Y-76009500D01*
X111569500Y-77258750D01*
X111728250Y-77417500D01*
X112342500Y-77420572D01*
X112466982Y-77408312D01*
X112586680Y-77372002D01*
X112696994Y-77313037D01*
X112793685Y-77233685D01*
X112873037Y-77136994D01*
X112932002Y-77026680D01*
X112937556Y-77008373D01*
X113003995Y-77074812D01*
X113255405Y-77242799D01*
X113534757Y-77358511D01*
X113831316Y-77417500D01*
X114133684Y-77417500D01*
X114430243Y-77358511D01*
X114709595Y-77242799D01*
X114961005Y-77074812D01*
X115174812Y-76861005D01*
X115342799Y-76609595D01*
X115458511Y-76330243D01*
X115517500Y-76033684D01*
X115517500Y-75874381D01*
X115570733Y-75927614D01*
X115570739Y-75927619D01*
X115766124Y-76123003D01*
X115774724Y-76134730D01*
X115812022Y-76168901D01*
X115824734Y-76181613D01*
X115835898Y-76190775D01*
X115846565Y-76200548D01*
X115860967Y-76211350D01*
X115900050Y-76243425D01*
X115912872Y-76250278D01*
X116626266Y-76785324D01*
X117217349Y-77258191D01*
X117230451Y-77272056D01*
X117267990Y-77298704D01*
X117278516Y-77307125D01*
X117294431Y-77317474D01*
X117309901Y-77328456D01*
X117321594Y-77335138D01*
X117360198Y-77360241D01*
X117377918Y-77367323D01*
X118206136Y-77840590D01*
X118213051Y-77845241D01*
X118234280Y-77856672D01*
X118255196Y-77868624D01*
X118262797Y-77872027D01*
X118978614Y-78257468D01*
X118964576Y-78285544D01*
X118760400Y-78489720D01*
X118397689Y-78625737D01*
X118288604Y-78662098D01*
X117759590Y-78715000D01*
X116950398Y-78715000D01*
X116146659Y-78600180D01*
X115242871Y-78359169D01*
X115191383Y-78343550D01*
X115147796Y-78339257D01*
X115104582Y-78332176D01*
X115083244Y-78332900D01*
X115062000Y-78330808D01*
X115018413Y-78335101D01*
X114974649Y-78336586D01*
X114953871Y-78341457D01*
X114932618Y-78343550D01*
X114890698Y-78356266D01*
X114848073Y-78366259D01*
X114828640Y-78375092D01*
X114808208Y-78381290D01*
X114769581Y-78401936D01*
X114729717Y-78420056D01*
X114712381Y-78432510D01*
X114693551Y-78442575D01*
X114659694Y-78470361D01*
X114624130Y-78495910D01*
X114587408Y-78535212D01*
X114538142Y-78584478D01*
X114497489Y-78622976D01*
X114473462Y-78656898D01*
X114447075Y-78689050D01*
X114435963Y-78709840D01*
X114422344Y-78729067D01*
X114405394Y-78767031D01*
X114385790Y-78803708D01*
X114378948Y-78826264D01*
X114369341Y-78847781D01*
X114360122Y-78888325D01*
X114348051Y-78928118D01*
X114345741Y-78951570D01*
X114340515Y-78974554D01*
X114339383Y-79016127D01*
X114335308Y-79057500D01*
X114337618Y-79080950D01*
X114336976Y-79104512D01*
X114343976Y-79145509D01*
X114348051Y-79186882D01*
X114354890Y-79209428D01*
X114358858Y-79232666D01*
X114373722Y-79271510D01*
X114385790Y-79311292D01*
X114412189Y-79360681D01*
X114518239Y-79572782D01*
X114527511Y-79598263D01*
X114547237Y-79630777D01*
X114549677Y-79635657D01*
X114564058Y-79658503D01*
X114578049Y-79681564D01*
X114581319Y-79685924D01*
X114601582Y-79718114D01*
X114620231Y-79737807D01*
X115511054Y-80925573D01*
X115511091Y-80925649D01*
X115547746Y-80974495D01*
X115569451Y-81003435D01*
X115569518Y-81003509D01*
X115569572Y-81003580D01*
X115591090Y-81027054D01*
X115635269Y-81075276D01*
X115635343Y-81075330D01*
X116983979Y-82546569D01*
X117000970Y-82565876D01*
X117005862Y-82570442D01*
X117010384Y-82575375D01*
X117029544Y-82592545D01*
X117968482Y-83468888D01*
X117982909Y-83483364D01*
X117992113Y-83490944D01*
X118000869Y-83499116D01*
X118017171Y-83511580D01*
X119069527Y-84378227D01*
X119076210Y-84384569D01*
X119094534Y-84398821D01*
X119112458Y-84413582D01*
X119120113Y-84418716D01*
X119625755Y-84811994D01*
X119628923Y-84815550D01*
X119676976Y-84851832D01*
X119698888Y-84868875D01*
X119702902Y-84871408D01*
X119706681Y-84874261D01*
X119730313Y-84888703D01*
X119781290Y-84920867D01*
X119785741Y-84922576D01*
X120867765Y-85583812D01*
X120885420Y-85595446D01*
X120895381Y-85600689D01*
X120905005Y-85606570D01*
X120924072Y-85615789D01*
X122108859Y-86239363D01*
X122125377Y-86248926D01*
X122137491Y-86254432D01*
X122149295Y-86260645D01*
X122167014Y-86267852D01*
X123533221Y-86888856D01*
X123543728Y-86894444D01*
X123562709Y-86902260D01*
X123581403Y-86910757D01*
X123592673Y-86914598D01*
X124353851Y-87228024D01*
X124296946Y-87356060D01*
X123986633Y-87627585D01*
X123345733Y-87874085D01*
X122450413Y-87986000D01*
X121389587Y-87986000D01*
X119932918Y-87803917D01*
X118468297Y-87498787D01*
X117126410Y-87071823D01*
X116844099Y-86958899D01*
X115603643Y-86400694D01*
X115591218Y-86394246D01*
X115574089Y-86387395D01*
X115557277Y-86379829D01*
X115544019Y-86375366D01*
X115292438Y-86274734D01*
X115281777Y-86268351D01*
X115232173Y-86250629D01*
X115213517Y-86243166D01*
X115201657Y-86239726D01*
X115159347Y-86224609D01*
X115139356Y-86221653D01*
X115119941Y-86216021D01*
X115075171Y-86212162D01*
X115030737Y-86205592D01*
X115010554Y-86206593D01*
X114990414Y-86204857D01*
X114945749Y-86209806D01*
X114900890Y-86212031D01*
X114881293Y-86216949D01*
X114861197Y-86219176D01*
X114818362Y-86232743D01*
X114774792Y-86243677D01*
X114756523Y-86252328D01*
X114737256Y-86258430D01*
X114697896Y-86280090D01*
X114657291Y-86299317D01*
X114641063Y-86311364D01*
X114623354Y-86321109D01*
X114588977Y-86350031D01*
X114552902Y-86376811D01*
X114539333Y-86391796D01*
X114523870Y-86404805D01*
X114495795Y-86439877D01*
X114465638Y-86473181D01*
X114455257Y-86490518D01*
X114442624Y-86506300D01*
X114421931Y-86546177D01*
X114398851Y-86584723D01*
X114392050Y-86603758D01*
X114382741Y-86621697D01*
X114370224Y-86664849D01*
X114355109Y-86707153D01*
X114352153Y-86727143D01*
X114346521Y-86746559D01*
X114342662Y-86791329D01*
X114336092Y-86835763D01*
X114337093Y-86855946D01*
X114335357Y-86876086D01*
X114340306Y-86920751D01*
X114342531Y-86965610D01*
X114347449Y-86985207D01*
X114349676Y-87005303D01*
X114363243Y-87048138D01*
X114374177Y-87091708D01*
X114382828Y-87109977D01*
X114388930Y-87129244D01*
X114410590Y-87168606D01*
X114415876Y-87179768D01*
X114426217Y-87197004D01*
X114451609Y-87243146D01*
X114459606Y-87252652D01*
X114619951Y-87519893D01*
X114633093Y-87542736D01*
X114636615Y-87547667D01*
X114639734Y-87552865D01*
X114655442Y-87574025D01*
X114966595Y-88009638D01*
X115534942Y-88830584D01*
X116234080Y-89847516D01*
X116250777Y-89871831D01*
X116250887Y-89871962D01*
X116250998Y-89872123D01*
X116272410Y-89897520D01*
X117276482Y-91089858D01*
X117285541Y-91101843D01*
X117297323Y-91114607D01*
X117308540Y-91127927D01*
X117319323Y-91138440D01*
X118056507Y-91937057D01*
X118064886Y-91947266D01*
X118078475Y-91960855D01*
X118091519Y-91974986D01*
X118101391Y-91983771D01*
X118872733Y-92755114D01*
X118872739Y-92755119D01*
X119158113Y-93040493D01*
X119171290Y-93054752D01*
X119181028Y-93063408D01*
X119190234Y-93072614D01*
X119205230Y-93084921D01*
X119728499Y-93550049D01*
X119737043Y-93560438D01*
X119776984Y-93593147D01*
X119791249Y-93605827D01*
X119802077Y-93613696D01*
X119812424Y-93622170D01*
X119828289Y-93632747D01*
X119870066Y-93663109D01*
X119882286Y-93668745D01*
X120011305Y-93754757D01*
X120796595Y-94358827D01*
X120799565Y-94361548D01*
X120822258Y-94378568D01*
X120844786Y-94395897D01*
X120848211Y-94398032D01*
X121839955Y-95141841D01*
X121863986Y-95160103D01*
X121865760Y-95161194D01*
X121867435Y-95162451D01*
X121893379Y-95178191D01*
X122692653Y-95670052D01*
X122695634Y-95672265D01*
X122720239Y-95687028D01*
X122744705Y-95702084D01*
X122748047Y-95703713D01*
X123938381Y-96417913D01*
X123938973Y-96418448D01*
X123993996Y-96451283D01*
X124021232Y-96467624D01*
X124021953Y-96467965D01*
X124022641Y-96468376D01*
X124051421Y-96481920D01*
X124109291Y-96509323D01*
X124110067Y-96509518D01*
X126209055Y-97497278D01*
X126235983Y-97510184D01*
X126238174Y-97510981D01*
X126240306Y-97511984D01*
X126268721Y-97522089D01*
X126936902Y-97765064D01*
X126939237Y-97766161D01*
X126967398Y-97776153D01*
X126995416Y-97786342D01*
X126997910Y-97786980D01*
X128409598Y-98287902D01*
X128309448Y-98468172D01*
X128061019Y-98716601D01*
X127497545Y-99023951D01*
X127216787Y-99117537D01*
X126601258Y-99229452D01*
X124777500Y-99351036D01*
X123881516Y-99291303D01*
X122699724Y-99166904D01*
X121428297Y-98985271D01*
X121414383Y-98981050D01*
X121364049Y-98976093D01*
X121346244Y-98973549D01*
X121331811Y-98972918D01*
X121317419Y-98971500D01*
X121299414Y-98971500D01*
X121248905Y-98969290D01*
X121234539Y-98971500D01*
X121039952Y-98971500D01*
X120983988Y-98969976D01*
X120943006Y-98976974D01*
X120901617Y-98981050D01*
X120879064Y-98987892D01*
X120855834Y-98991858D01*
X120817000Y-99006719D01*
X120777207Y-99018790D01*
X120756418Y-99029902D01*
X120734412Y-99038323D01*
X120699233Y-99060468D01*
X120662550Y-99080075D01*
X120644328Y-99095029D01*
X120624387Y-99107582D01*
X120594201Y-99136168D01*
X120562052Y-99162552D01*
X120547096Y-99180776D01*
X120529989Y-99196976D01*
X120505963Y-99230896D01*
X120479575Y-99263050D01*
X120468463Y-99283840D01*
X120454844Y-99303067D01*
X120437896Y-99341027D01*
X120418290Y-99377707D01*
X120411446Y-99400268D01*
X120401841Y-99421781D01*
X120392625Y-99462312D01*
X120380550Y-99502117D01*
X120378239Y-99525578D01*
X120373015Y-99548554D01*
X120371883Y-99590112D01*
X120367807Y-99631500D01*
X120370117Y-99654958D01*
X120369476Y-99678512D01*
X120376474Y-99719494D01*
X120380550Y-99760883D01*
X120387392Y-99783436D01*
X120391358Y-99806666D01*
X120406219Y-99845503D01*
X120418290Y-99885293D01*
X120444694Y-99934691D01*
X120479006Y-100003315D01*
X120481525Y-100011651D01*
X120508037Y-100061377D01*
X120518677Y-100082657D01*
X120523288Y-100089982D01*
X120527364Y-100097627D01*
X120540569Y-100117434D01*
X120570582Y-100165113D01*
X120576570Y-100171437D01*
X120654555Y-100288413D01*
X120670075Y-100317450D01*
X120711060Y-100367389D01*
X120752062Y-100417458D01*
X120777493Y-100438373D01*
X121065242Y-100726122D01*
X122066342Y-101789791D01*
X122079948Y-101805321D01*
X122088533Y-101813370D01*
X122096606Y-101821947D01*
X122112175Y-101835534D01*
X123101820Y-102763328D01*
X123107248Y-102769227D01*
X123125414Y-102785447D01*
X123143249Y-102802167D01*
X123149631Y-102807069D01*
X124906354Y-104375573D01*
X124927065Y-104394548D01*
X124930444Y-104397082D01*
X124933611Y-104399910D01*
X124956414Y-104416560D01*
X126462557Y-105546168D01*
X126473553Y-105555396D01*
X126488472Y-105565604D01*
X126502935Y-105576451D01*
X126515210Y-105583898D01*
X127696335Y-106392037D01*
X127712134Y-106403765D01*
X127723043Y-106410310D01*
X127733564Y-106417509D01*
X127750847Y-106426993D01*
X129315169Y-107365587D01*
X129330269Y-107375562D01*
X129342941Y-107382250D01*
X129355231Y-107389624D01*
X129371593Y-107397372D01*
X131640730Y-108594972D01*
X131665011Y-108608238D01*
X131669403Y-108610104D01*
X131673610Y-108612325D01*
X131699162Y-108622752D01*
X134229385Y-109698096D01*
X134253535Y-109708879D01*
X134259196Y-109710766D01*
X134264683Y-109713098D01*
X134289917Y-109721006D01*
X135968032Y-110280378D01*
X135968035Y-110280379D01*
X136629959Y-110501020D01*
X136603505Y-110580386D01*
X136520030Y-110789074D01*
X136349963Y-111001657D01*
X136015980Y-111335640D01*
X135697182Y-111601306D01*
X135458059Y-111744780D01*
X134975821Y-111959108D01*
X134544283Y-112066992D01*
X133898365Y-112184432D01*
X132433559Y-112306500D01*
X131391490Y-112306500D01*
X129339743Y-112244326D01*
X127485500Y-111997093D01*
X126495926Y-111811547D01*
X125079465Y-111503621D01*
X124381962Y-111271121D01*
X124352219Y-111257841D01*
X124320456Y-111250619D01*
X124320454Y-111250618D01*
X124225446Y-111229015D01*
X124095487Y-111225476D01*
X124095486Y-111225476D01*
X123967334Y-111247359D01*
X123876336Y-111282180D01*
X123876329Y-111282183D01*
X123845912Y-111293823D01*
X123818348Y-111311174D01*
X123770685Y-111335006D01*
X123762349Y-111337525D01*
X123712633Y-111364032D01*
X123691343Y-111374677D01*
X123684013Y-111379291D01*
X123647627Y-111398691D01*
X123629127Y-111413841D01*
X123608887Y-111426582D01*
X123578947Y-111454935D01*
X123547043Y-111481062D01*
X123531851Y-111499535D01*
X123514489Y-111515976D01*
X123490654Y-111549626D01*
X123464462Y-111581474D01*
X123453168Y-111602550D01*
X123439344Y-111622067D01*
X123422534Y-111659717D01*
X123403056Y-111696066D01*
X123396089Y-111718948D01*
X123386341Y-111740781D01*
X123377198Y-111780990D01*
X123365187Y-111820438D01*
X123362818Y-111844230D01*
X123357515Y-111867554D01*
X123356392Y-111908780D01*
X123352308Y-111949807D01*
X123354627Y-111973606D01*
X123353976Y-111997512D01*
X123360918Y-112038166D01*
X123364916Y-112079201D01*
X123371832Y-112102085D01*
X123375858Y-112125666D01*
X123390599Y-112164186D01*
X123402525Y-112203651D01*
X123413777Y-112224755D01*
X123422323Y-112247088D01*
X123444287Y-112281980D01*
X123448364Y-112289627D01*
X123461571Y-112309438D01*
X123491582Y-112357113D01*
X123497570Y-112363437D01*
X123569225Y-112470919D01*
X123578705Y-112490227D01*
X123605198Y-112524878D01*
X123611330Y-112534076D01*
X123624897Y-112550643D01*
X123637884Y-112567629D01*
X123645416Y-112575699D01*
X123673062Y-112609458D01*
X123689681Y-112623126D01*
X124547269Y-113541973D01*
X124567256Y-113563742D01*
X124569266Y-113565541D01*
X124571123Y-113567530D01*
X124593466Y-113587193D01*
X125778087Y-114647118D01*
X125782076Y-114651313D01*
X125802192Y-114668686D01*
X125822075Y-114686476D01*
X125826764Y-114689907D01*
X127191916Y-115868903D01*
X127204210Y-115880569D01*
X127216428Y-115890072D01*
X127228146Y-115900192D01*
X127242003Y-115909964D01*
X128357862Y-116777854D01*
X128368003Y-116786720D01*
X128383415Y-116797729D01*
X128398389Y-116809375D01*
X128409798Y-116816573D01*
X130157818Y-118065161D01*
X130169127Y-118074204D01*
X130184147Y-118083967D01*
X130198763Y-118094407D01*
X130211344Y-118101645D01*
X131451511Y-118907755D01*
X131463424Y-118916439D01*
X131478653Y-118925397D01*
X131493488Y-118935040D01*
X131506594Y-118941833D01*
X133644502Y-120199426D01*
X133666239Y-120212827D01*
X133672393Y-120215833D01*
X133678310Y-120219313D01*
X133701540Y-120230067D01*
X134305450Y-120525000D01*
X110654322Y-120525000D01*
X110616999Y-120521324D01*
X110579676Y-120525000D01*
X110579667Y-120525000D01*
X110468014Y-120535997D01*
X110324753Y-120579454D01*
X110192724Y-120650026D01*
X110117037Y-120712141D01*
X109932835Y-120675500D01*
X109650165Y-120675500D01*
X109372926Y-120730647D01*
X109111773Y-120838820D01*
X108876741Y-120995863D01*
X108676863Y-121195741D01*
X108519820Y-121430773D01*
X108411647Y-121691926D01*
X108356500Y-121969165D01*
X108356500Y-122251835D01*
X108411647Y-122529074D01*
X108519820Y-122790227D01*
X108676863Y-123025259D01*
X108876741Y-123225137D01*
X109111773Y-123382180D01*
X109372926Y-123490353D01*
X109650165Y-123545500D01*
X109932835Y-123545500D01*
X110210074Y-123490353D01*
X110471227Y-123382180D01*
X110706259Y-123225137D01*
X110906137Y-123025259D01*
X111063180Y-122790227D01*
X111171353Y-122529074D01*
X111226500Y-122251835D01*
X111226500Y-122045000D01*
X134940199Y-122045000D01*
X135574500Y-122679302D01*
X135574501Y-123883687D01*
X135355995Y-124029688D01*
X135289556Y-124096127D01*
X135284002Y-124077820D01*
X135225037Y-123967506D01*
X135145685Y-123870815D01*
X135048994Y-123791463D01*
X134938680Y-123732498D01*
X134818982Y-123696188D01*
X134694500Y-123683928D01*
X134080250Y-123687000D01*
X133921500Y-123845750D01*
X133921500Y-125095000D01*
X133941500Y-125095000D01*
X133941500Y-125349000D01*
X133921500Y-125349000D01*
X133921500Y-126598250D01*
X134080250Y-126757000D01*
X134694500Y-126760072D01*
X134818982Y-126747812D01*
X134938680Y-126711502D01*
X135048994Y-126652537D01*
X135145685Y-126573185D01*
X135225037Y-126476494D01*
X135284002Y-126366180D01*
X135289556Y-126347873D01*
X135355995Y-126414312D01*
X135607405Y-126582299D01*
X135886757Y-126698011D01*
X136183316Y-126757000D01*
X136485684Y-126757000D01*
X136782243Y-126698011D01*
X137061595Y-126582299D01*
X137313005Y-126414312D01*
X137526812Y-126200505D01*
X137694799Y-125949095D01*
X137810511Y-125669743D01*
X137869500Y-125373184D01*
X137869500Y-125070816D01*
X137810511Y-124774257D01*
X137694799Y-124494905D01*
X137526812Y-124243495D01*
X137313005Y-124029688D01*
X137094500Y-123883687D01*
X137094500Y-122401833D01*
X137098177Y-122364500D01*
X137083503Y-122215514D01*
X137040046Y-122072253D01*
X136969474Y-121940224D01*
X136902816Y-121859001D01*
X136874501Y-121824499D01*
X136845504Y-121800702D01*
X136736645Y-121691843D01*
X139184036Y-122716333D01*
X139206535Y-122726379D01*
X139213892Y-122728831D01*
X139221053Y-122731829D01*
X139244635Y-122739079D01*
X141690944Y-123554515D01*
X141698632Y-123557718D01*
X141721672Y-123564758D01*
X141744544Y-123572382D01*
X141752671Y-123574230D01*
X143995992Y-124259690D01*
X144038949Y-124275798D01*
X143943868Y-124465959D01*
X143750770Y-124803881D01*
X143180038Y-125322729D01*
X142199573Y-125899473D01*
X141191333Y-126314631D01*
X139606866Y-126802159D01*
X138976514Y-126916769D01*
X138974165Y-126916978D01*
X138944593Y-126922573D01*
X138915040Y-126927946D01*
X138912776Y-126928592D01*
X136615925Y-127363132D01*
X133932784Y-127675125D01*
X130986487Y-127800500D01*
X126761685Y-127800500D01*
X125474319Y-127739197D01*
X125472366Y-127738922D01*
X125441815Y-127737649D01*
X125411511Y-127736206D01*
X125409557Y-127736305D01*
X123932140Y-127674746D01*
X123254416Y-127613135D01*
X122080155Y-127489528D01*
X122075539Y-127488646D01*
X122047932Y-127486136D01*
X122020351Y-127483233D01*
X122015649Y-127483201D01*
X121372466Y-127424730D01*
X121367943Y-127423931D01*
X121340182Y-127421796D01*
X121312467Y-127419276D01*
X121307876Y-127419310D01*
X120551989Y-127361165D01*
X120529462Y-127356508D01*
X120487331Y-127356191D01*
X120477796Y-127355458D01*
X120454909Y-127355948D01*
X120432031Y-127355776D01*
X120422513Y-127356641D01*
X120380386Y-127357543D01*
X120357925Y-127362513D01*
X119668961Y-127425146D01*
X119668960Y-127425146D01*
X118305609Y-127549087D01*
X116850525Y-127675616D01*
X115142535Y-127802135D01*
X115112474Y-127804151D01*
X115110203Y-127804530D01*
X115107915Y-127804699D01*
X115078317Y-127809844D01*
X114717241Y-127870023D01*
X113629445Y-127990889D01*
X113602020Y-127990805D01*
X113565011Y-127998049D01*
X113559895Y-127998617D01*
X113533176Y-128004280D01*
X113506401Y-128009520D01*
X113501476Y-128010998D01*
X113464579Y-128018817D01*
X113439372Y-128029629D01*
X112879391Y-128197623D01*
X112855502Y-128201677D01*
X112817286Y-128216255D01*
X112809299Y-128218651D01*
X112786985Y-128227813D01*
X112734032Y-128248013D01*
X112726930Y-128252473D01*
X112719169Y-128255660D01*
X112671938Y-128287010D01*
X112623936Y-128317157D01*
X112617838Y-128322920D01*
X112610850Y-128327558D01*
X112570649Y-128367513D01*
X112529444Y-128406451D01*
X112524589Y-128413291D01*
X112518639Y-128419204D01*
X112487006Y-128466233D01*
X112473044Y-128485902D01*
X112468906Y-128493143D01*
X112446079Y-128527081D01*
X112436738Y-128549437D01*
X112218874Y-128930700D01*
X112199844Y-128957567D01*
X112173389Y-129016817D01*
X112147060Y-129075623D01*
X112139728Y-129107713D01*
X111654581Y-130563157D01*
X111643940Y-130585561D01*
X111634074Y-130624678D01*
X111631618Y-130632046D01*
X111626146Y-130656110D01*
X111620112Y-130680035D01*
X111618960Y-130687714D01*
X111610015Y-130727054D01*
X111609340Y-130751850D01*
X111425567Y-131976997D01*
X111421119Y-132003751D01*
X111420771Y-132008968D01*
X111419993Y-132014156D01*
X111418614Y-132041330D01*
X111358647Y-132940835D01*
X111355053Y-132957581D01*
X111354331Y-133005563D01*
X111353306Y-133020945D01*
X111353844Y-133037967D01*
X111353588Y-133055002D01*
X111354869Y-133070370D01*
X111356385Y-133118329D01*
X111360256Y-133135014D01*
X111480555Y-134578606D01*
X111480033Y-134610787D01*
X111485941Y-134643227D01*
X111485973Y-134643617D01*
X111491762Y-134675195D01*
X111497489Y-134706644D01*
X111497596Y-134707018D01*
X111503542Y-134739453D01*
X111515411Y-134769373D01*
X111886902Y-136069591D01*
X111895127Y-136098999D01*
X111895796Y-136100719D01*
X111896301Y-136102487D01*
X111907497Y-136130807D01*
X112331648Y-137221482D01*
X112881920Y-139850559D01*
X112882829Y-139866338D01*
X112895211Y-139914056D01*
X112898640Y-139930441D01*
X112903355Y-139945442D01*
X112907300Y-139960648D01*
X112913067Y-139976348D01*
X112927852Y-140023392D01*
X112935443Y-140037258D01*
X114053549Y-143080995D01*
X114056166Y-143090017D01*
X114064705Y-143111364D01*
X114072656Y-143133009D01*
X114076756Y-143141492D01*
X114557475Y-144343289D01*
X114560765Y-144357473D01*
X114581568Y-144403524D01*
X114588246Y-144420218D01*
X114594918Y-144433075D01*
X114614288Y-144475953D01*
X114624799Y-144490656D01*
X114633125Y-144506700D01*
X114662532Y-144543437D01*
X114670952Y-144555215D01*
X114682786Y-144568740D01*
X114714369Y-144608195D01*
X114725513Y-144617570D01*
X115563868Y-145575692D01*
X115586811Y-145606598D01*
X115630570Y-145646223D01*
X115673686Y-145686695D01*
X115678758Y-145689857D01*
X115683181Y-145693862D01*
X115733852Y-145724202D01*
X115784012Y-145755471D01*
X115789599Y-145757581D01*
X115794723Y-145760649D01*
X115850339Y-145780520D01*
X115905636Y-145801403D01*
X115943629Y-145807719D01*
X117386112Y-146168340D01*
X117392938Y-146171379D01*
X117449109Y-146184089D01*
X117473377Y-146190156D01*
X117480721Y-146191242D01*
X117487969Y-146192882D01*
X117512807Y-146195987D01*
X117569762Y-146204409D01*
X117577224Y-146204039D01*
X118243323Y-146287301D01*
X118814778Y-147112736D01*
X118749920Y-147064359D01*
X118487099Y-146939175D01*
X118339890Y-146894524D01*
X118110000Y-147015845D01*
X118110000Y-148209000D01*
X118130000Y-148209000D01*
X118130000Y-148463000D01*
X118110000Y-148463000D01*
X118110000Y-149656155D01*
X118339890Y-149777476D01*
X118487099Y-149732825D01*
X118749920Y-149607641D01*
X118983269Y-149433588D01*
X119101001Y-149302976D01*
X119101000Y-150914500D01*
X106324000Y-150914500D01*
X106324000Y-147486000D01*
X106334928Y-147486000D01*
X106334928Y-149186000D01*
X106347188Y-149310482D01*
X106383498Y-149430180D01*
X106442463Y-149540494D01*
X106521815Y-149637185D01*
X106618506Y-149716537D01*
X106728820Y-149775502D01*
X106848518Y-149811812D01*
X106973000Y-149824072D01*
X108673000Y-149824072D01*
X108797482Y-149811812D01*
X108917180Y-149775502D01*
X109027494Y-149716537D01*
X109124185Y-149637185D01*
X109203537Y-149540494D01*
X109262502Y-149430180D01*
X109284513Y-149357620D01*
X109416368Y-149489475D01*
X109659589Y-149651990D01*
X109929842Y-149763932D01*
X110216740Y-149821000D01*
X110509260Y-149821000D01*
X110796158Y-149763932D01*
X111066411Y-149651990D01*
X111309632Y-149489475D01*
X111516475Y-149282632D01*
X111633000Y-149108240D01*
X111749525Y-149282632D01*
X111956368Y-149489475D01*
X112199589Y-149651990D01*
X112469842Y-149763932D01*
X112756740Y-149821000D01*
X113049260Y-149821000D01*
X113336158Y-149763932D01*
X113606411Y-149651990D01*
X113849632Y-149489475D01*
X114056475Y-149282632D01*
X114173000Y-149108240D01*
X114289525Y-149282632D01*
X114496368Y-149489475D01*
X114739589Y-149651990D01*
X115009842Y-149763932D01*
X115296740Y-149821000D01*
X115589260Y-149821000D01*
X115876158Y-149763932D01*
X116146411Y-149651990D01*
X116389632Y-149489475D01*
X116596475Y-149282632D01*
X116718195Y-149100466D01*
X116787822Y-149217355D01*
X116982731Y-149433588D01*
X117216080Y-149607641D01*
X117478901Y-149732825D01*
X117626110Y-149777476D01*
X117856000Y-149656155D01*
X117856000Y-148463000D01*
X117836000Y-148463000D01*
X117836000Y-148209000D01*
X117856000Y-148209000D01*
X117856000Y-147015845D01*
X117626110Y-146894524D01*
X117478901Y-146939175D01*
X117216080Y-147064359D01*
X116982731Y-147238412D01*
X116787822Y-147454645D01*
X116718195Y-147571534D01*
X116596475Y-147389368D01*
X116389632Y-147182525D01*
X116146411Y-147020010D01*
X115876158Y-146908068D01*
X115589260Y-146851000D01*
X115296740Y-146851000D01*
X115009842Y-146908068D01*
X114739589Y-147020010D01*
X114496368Y-147182525D01*
X114289525Y-147389368D01*
X114173000Y-147563760D01*
X114056475Y-147389368D01*
X113849632Y-147182525D01*
X113606411Y-147020010D01*
X113336158Y-146908068D01*
X113049260Y-146851000D01*
X112756740Y-146851000D01*
X112469842Y-146908068D01*
X112199589Y-147020010D01*
X111956368Y-147182525D01*
X111749525Y-147389368D01*
X111633000Y-147563760D01*
X111516475Y-147389368D01*
X111309632Y-147182525D01*
X111066411Y-147020010D01*
X110796158Y-146908068D01*
X110509260Y-146851000D01*
X110216740Y-146851000D01*
X109929842Y-146908068D01*
X109659589Y-147020010D01*
X109416368Y-147182525D01*
X109284513Y-147314380D01*
X109262502Y-147241820D01*
X109203537Y-147131506D01*
X109124185Y-147034815D01*
X109027494Y-146955463D01*
X108917180Y-146896498D01*
X108797482Y-146860188D01*
X108673000Y-146847928D01*
X106973000Y-146847928D01*
X106848518Y-146860188D01*
X106728820Y-146896498D01*
X106618506Y-146955463D01*
X106521815Y-147034815D01*
X106442463Y-147131506D01*
X106383498Y-147241820D01*
X106347188Y-147361518D01*
X106334928Y-147486000D01*
X106324000Y-147486000D01*
X106324000Y-132129165D01*
X108356500Y-132129165D01*
X108356500Y-132411835D01*
X108411647Y-132689074D01*
X108519820Y-132950227D01*
X108676863Y-133185259D01*
X108876741Y-133385137D01*
X109111773Y-133542180D01*
X109372926Y-133650353D01*
X109650165Y-133705500D01*
X109932835Y-133705500D01*
X110210074Y-133650353D01*
X110471227Y-133542180D01*
X110706259Y-133385137D01*
X110906137Y-133185259D01*
X111063180Y-132950227D01*
X111171353Y-132689074D01*
X111226500Y-132411835D01*
X111226500Y-132129165D01*
X111171353Y-131851926D01*
X111063180Y-131590773D01*
X110906137Y-131355741D01*
X110706259Y-131155863D01*
X110471227Y-130998820D01*
X110210074Y-130890647D01*
X109932835Y-130835500D01*
X109650165Y-130835500D01*
X109372926Y-130890647D01*
X109111773Y-130998820D01*
X108876741Y-131155863D01*
X108676863Y-131355741D01*
X108519820Y-131590773D01*
X108411647Y-131851926D01*
X108356500Y-132129165D01*
X106324000Y-132129165D01*
X106324000Y-124993061D01*
X107550000Y-124993061D01*
X107550000Y-125196939D01*
X107589774Y-125396898D01*
X107667795Y-125585256D01*
X107781063Y-125754774D01*
X107925226Y-125898937D01*
X108094744Y-126012205D01*
X108283102Y-126090226D01*
X108483061Y-126130000D01*
X108686939Y-126130000D01*
X108886898Y-126090226D01*
X109075256Y-126012205D01*
X109244774Y-125898937D01*
X109288711Y-125855000D01*
X115389027Y-125855000D01*
X115534863Y-126073259D01*
X115734741Y-126273137D01*
X115969773Y-126430180D01*
X116230926Y-126538353D01*
X116508165Y-126593500D01*
X116790835Y-126593500D01*
X117068074Y-126538353D01*
X117329227Y-126430180D01*
X117564259Y-126273137D01*
X117715396Y-126122000D01*
X132256428Y-126122000D01*
X132268688Y-126246482D01*
X132304998Y-126366180D01*
X132363963Y-126476494D01*
X132443315Y-126573185D01*
X132540006Y-126652537D01*
X132650320Y-126711502D01*
X132770018Y-126747812D01*
X132894500Y-126760072D01*
X133508750Y-126757000D01*
X133667500Y-126598250D01*
X133667500Y-125349000D01*
X132418250Y-125349000D01*
X132259500Y-125507750D01*
X132256428Y-126122000D01*
X117715396Y-126122000D01*
X117764137Y-126073259D01*
X117921180Y-125838227D01*
X118029353Y-125577074D01*
X118084500Y-125299835D01*
X118084500Y-125017165D01*
X118029353Y-124739926D01*
X117921180Y-124478773D01*
X117816428Y-124322000D01*
X132256428Y-124322000D01*
X132259500Y-124936250D01*
X132418250Y-125095000D01*
X133667500Y-125095000D01*
X133667500Y-123845750D01*
X133508750Y-123687000D01*
X132894500Y-123683928D01*
X132770018Y-123696188D01*
X132650320Y-123732498D01*
X132540006Y-123791463D01*
X132443315Y-123870815D01*
X132363963Y-123967506D01*
X132304998Y-124077820D01*
X132268688Y-124197518D01*
X132256428Y-124322000D01*
X117816428Y-124322000D01*
X117764137Y-124243741D01*
X117564259Y-124043863D01*
X117329227Y-123886820D01*
X117068074Y-123778647D01*
X116790835Y-123723500D01*
X116508165Y-123723500D01*
X116230926Y-123778647D01*
X115969773Y-123886820D01*
X115734741Y-124043863D01*
X115534863Y-124243741D01*
X115473886Y-124335000D01*
X109288711Y-124335000D01*
X109244774Y-124291063D01*
X109075256Y-124177795D01*
X108886898Y-124099774D01*
X108686939Y-124060000D01*
X108483061Y-124060000D01*
X108283102Y-124099774D01*
X108094744Y-124177795D01*
X107925226Y-124291063D01*
X107781063Y-124435226D01*
X107667795Y-124604744D01*
X107589774Y-124793102D01*
X107550000Y-124993061D01*
X106324000Y-124993061D01*
X106324000Y-116738061D01*
X107550000Y-116738061D01*
X107550000Y-116941939D01*
X107589774Y-117141898D01*
X107667795Y-117330256D01*
X107781063Y-117499774D01*
X107925226Y-117643937D01*
X108094744Y-117757205D01*
X108283102Y-117835226D01*
X108483061Y-117875000D01*
X108686939Y-117875000D01*
X108886898Y-117835226D01*
X109075256Y-117757205D01*
X109244774Y-117643937D01*
X109288711Y-117600000D01*
X120168178Y-117600000D01*
X120205500Y-117603676D01*
X120242822Y-117600000D01*
X120242833Y-117600000D01*
X120354486Y-117589003D01*
X120497747Y-117545546D01*
X120629776Y-117474974D01*
X120745501Y-117380001D01*
X120769303Y-117350998D01*
X120770613Y-117349688D01*
X120953165Y-117386000D01*
X121235835Y-117386000D01*
X121513074Y-117330853D01*
X121774227Y-117222680D01*
X122009259Y-117065637D01*
X122209137Y-116865759D01*
X122366180Y-116630727D01*
X122474353Y-116369574D01*
X122529500Y-116092335D01*
X122529500Y-115809665D01*
X122474353Y-115532426D01*
X122366180Y-115271273D01*
X122209137Y-115036241D01*
X122009259Y-114836363D01*
X121774227Y-114679320D01*
X121513074Y-114571147D01*
X121235835Y-114516000D01*
X120953165Y-114516000D01*
X120675926Y-114571147D01*
X120414773Y-114679320D01*
X120179741Y-114836363D01*
X119979863Y-115036241D01*
X119822820Y-115271273D01*
X119714647Y-115532426D01*
X119659500Y-115809665D01*
X119659500Y-116080000D01*
X117597396Y-116080000D01*
X117764137Y-115913259D01*
X117921180Y-115678227D01*
X118029353Y-115417074D01*
X118084500Y-115139835D01*
X118084500Y-114857165D01*
X118029353Y-114579926D01*
X117921180Y-114318773D01*
X117764137Y-114083741D01*
X117564259Y-113883863D01*
X117329227Y-113726820D01*
X117068074Y-113618647D01*
X116790835Y-113563500D01*
X116508165Y-113563500D01*
X116230926Y-113618647D01*
X115969773Y-113726820D01*
X115734741Y-113883863D01*
X115534863Y-114083741D01*
X115377820Y-114318773D01*
X115269647Y-114579926D01*
X115214500Y-114857165D01*
X115214500Y-115139835D01*
X115269647Y-115417074D01*
X115377820Y-115678227D01*
X115534863Y-115913259D01*
X115701604Y-116080000D01*
X109288711Y-116080000D01*
X109244774Y-116036063D01*
X109075256Y-115922795D01*
X108886898Y-115844774D01*
X108686939Y-115805000D01*
X108483061Y-115805000D01*
X108283102Y-115844774D01*
X108094744Y-115922795D01*
X107925226Y-116036063D01*
X107781063Y-116180226D01*
X107667795Y-116349744D01*
X107589774Y-116538102D01*
X107550000Y-116738061D01*
X106324000Y-116738061D01*
X106324000Y-109675500D01*
X108126428Y-109675500D01*
X108138688Y-109799982D01*
X108174998Y-109919680D01*
X108233963Y-110029994D01*
X108313315Y-110126685D01*
X108410006Y-110206037D01*
X108520320Y-110265002D01*
X108640018Y-110301312D01*
X108764500Y-110313572D01*
X109378750Y-110310500D01*
X109537500Y-110151750D01*
X109537500Y-108902500D01*
X108288250Y-108902500D01*
X108129500Y-109061250D01*
X108126428Y-109675500D01*
X106324000Y-109675500D01*
X106324000Y-108680919D01*
X106327193Y-108648500D01*
X106314450Y-108519117D01*
X106276710Y-108394707D01*
X106215425Y-108280050D01*
X106132948Y-108179552D01*
X106032450Y-108097075D01*
X105917793Y-108035790D01*
X105793383Y-107998050D01*
X105696419Y-107988500D01*
X105664000Y-107985307D01*
X105631581Y-107988500D01*
X103918419Y-107988500D01*
X103886000Y-107985307D01*
X103853581Y-107988500D01*
X103756617Y-107998050D01*
X103632207Y-108035790D01*
X103517550Y-108097075D01*
X103417052Y-108179552D01*
X103334575Y-108280050D01*
X103273290Y-108394707D01*
X103235550Y-108519117D01*
X103222807Y-108648500D01*
X103226000Y-108680919D01*
X103226001Y-150914500D01*
X90449000Y-150914500D01*
X90449000Y-149318107D01*
X90620368Y-149489475D01*
X90863589Y-149651990D01*
X91133842Y-149763932D01*
X91420740Y-149821000D01*
X91713260Y-149821000D01*
X92000158Y-149763932D01*
X92270411Y-149651990D01*
X92513632Y-149489475D01*
X92720475Y-149282632D01*
X92837000Y-149108240D01*
X92953525Y-149282632D01*
X93160368Y-149489475D01*
X93403589Y-149651990D01*
X93673842Y-149763932D01*
X93960740Y-149821000D01*
X94253260Y-149821000D01*
X94540158Y-149763932D01*
X94810411Y-149651990D01*
X95053632Y-149489475D01*
X95260475Y-149282632D01*
X95377000Y-149108240D01*
X95493525Y-149282632D01*
X95700368Y-149489475D01*
X95943589Y-149651990D01*
X96213842Y-149763932D01*
X96500740Y-149821000D01*
X96793260Y-149821000D01*
X97080158Y-149763932D01*
X97350411Y-149651990D01*
X97593632Y-149489475D01*
X97800475Y-149282632D01*
X97917000Y-149108240D01*
X98033525Y-149282632D01*
X98240368Y-149489475D01*
X98483589Y-149651990D01*
X98753842Y-149763932D01*
X99040740Y-149821000D01*
X99333260Y-149821000D01*
X99620158Y-149763932D01*
X99890411Y-149651990D01*
X100133632Y-149489475D01*
X100265487Y-149357620D01*
X100287498Y-149430180D01*
X100346463Y-149540494D01*
X100425815Y-149637185D01*
X100522506Y-149716537D01*
X100632820Y-149775502D01*
X100752518Y-149811812D01*
X100877000Y-149824072D01*
X102577000Y-149824072D01*
X102701482Y-149811812D01*
X102821180Y-149775502D01*
X102931494Y-149716537D01*
X103028185Y-149637185D01*
X103107537Y-149540494D01*
X103166502Y-149430180D01*
X103202812Y-149310482D01*
X103215072Y-149186000D01*
X103215072Y-147486000D01*
X103202812Y-147361518D01*
X103166502Y-147241820D01*
X103107537Y-147131506D01*
X103028185Y-147034815D01*
X102931494Y-146955463D01*
X102821180Y-146896498D01*
X102701482Y-146860188D01*
X102577000Y-146847928D01*
X100877000Y-146847928D01*
X100752518Y-146860188D01*
X100632820Y-146896498D01*
X100522506Y-146955463D01*
X100425815Y-147034815D01*
X100346463Y-147131506D01*
X100287498Y-147241820D01*
X100265487Y-147314380D01*
X100133632Y-147182525D01*
X99890411Y-147020010D01*
X99620158Y-146908068D01*
X99333260Y-146851000D01*
X99040740Y-146851000D01*
X98753842Y-146908068D01*
X98483589Y-147020010D01*
X98240368Y-147182525D01*
X98033525Y-147389368D01*
X97917000Y-147563760D01*
X97800475Y-147389368D01*
X97593632Y-147182525D01*
X97350411Y-147020010D01*
X97080158Y-146908068D01*
X96793260Y-146851000D01*
X96500740Y-146851000D01*
X96213842Y-146908068D01*
X95943589Y-147020010D01*
X95700368Y-147182525D01*
X95493525Y-147389368D01*
X95377000Y-147563760D01*
X95260475Y-147389368D01*
X95053632Y-147182525D01*
X94810411Y-147020010D01*
X94540158Y-146908068D01*
X94253260Y-146851000D01*
X93960740Y-146851000D01*
X93673842Y-146908068D01*
X93403589Y-147020010D01*
X93160368Y-147182525D01*
X92953525Y-147389368D01*
X92837000Y-147563760D01*
X92720475Y-147389368D01*
X92513632Y-147182525D01*
X92466438Y-147150991D01*
X94010640Y-146831500D01*
X94035135Y-146829495D01*
X94074140Y-146818362D01*
X94081966Y-146816743D01*
X94105316Y-146809464D01*
X94160151Y-146793813D01*
X94167303Y-146790140D01*
X94174984Y-146787746D01*
X94225082Y-146760472D01*
X94275803Y-146734427D01*
X94282103Y-146729428D01*
X94289168Y-146725582D01*
X94332974Y-146689066D01*
X94377648Y-146653620D01*
X94382852Y-146647488D01*
X94389030Y-146642338D01*
X94424869Y-146597979D01*
X94440693Y-146579333D01*
X94445242Y-146572762D01*
X94470733Y-146541211D01*
X94482152Y-146519448D01*
X95003290Y-145766694D01*
X95848362Y-144861261D01*
X95859894Y-144850070D01*
X95870452Y-144837593D01*
X95881616Y-144825631D01*
X95891387Y-144812850D01*
X97248808Y-143208626D01*
X97263718Y-143195214D01*
X97290696Y-143159122D01*
X97298775Y-143149574D01*
X97310117Y-143133140D01*
X97341555Y-143091081D01*
X97346972Y-143079738D01*
X97354118Y-143069384D01*
X97374948Y-143021159D01*
X97397582Y-142973765D01*
X97400684Y-142961575D01*
X97405669Y-142950034D01*
X97416688Y-142898688D01*
X97421611Y-142879341D01*
X97423492Y-142866979D01*
X97432947Y-142822920D01*
X97433248Y-142802866D01*
X97862991Y-139978843D01*
X97866622Y-139967576D01*
X97872754Y-139914687D01*
X97875865Y-139894242D01*
X97876486Y-139882491D01*
X97877843Y-139870791D01*
X97878200Y-139850098D01*
X97881011Y-139796945D01*
X97879318Y-139785230D01*
X97940068Y-136261681D01*
X98334981Y-135133360D01*
X98344567Y-135114452D01*
X98356402Y-135072159D01*
X98360156Y-135061433D01*
X98365141Y-135040928D01*
X98370823Y-135020624D01*
X98372796Y-135009443D01*
X98383174Y-134966758D01*
X98384067Y-134945572D01*
X98560076Y-133948192D01*
X98567450Y-133923883D01*
X98571345Y-133884331D01*
X98572591Y-133877273D01*
X98574522Y-133852078D01*
X98577000Y-133826919D01*
X98577000Y-133819749D01*
X98580037Y-133780125D01*
X98577000Y-133754908D01*
X98577000Y-133160504D01*
X98577096Y-133160018D01*
X98577000Y-133095952D01*
X98577000Y-133063581D01*
X98576951Y-133063081D01*
X98576950Y-133062585D01*
X98573766Y-133030745D01*
X98567450Y-132966617D01*
X98567305Y-132966141D01*
X98512876Y-132421853D01*
X98512767Y-132416081D01*
X98509648Y-132389568D01*
X98506998Y-132363070D01*
X98505866Y-132357424D01*
X98388420Y-131359131D01*
X98388909Y-131349263D01*
X98380835Y-131294665D01*
X98378191Y-131272188D01*
X98376093Y-131262592D01*
X98374656Y-131252877D01*
X98369168Y-131230924D01*
X98357377Y-131177004D01*
X98353424Y-131167951D01*
X98179515Y-130472312D01*
X98175626Y-130453581D01*
X98171657Y-130440881D01*
X98168431Y-130427976D01*
X98161996Y-130409967D01*
X97858123Y-129437572D01*
X97851503Y-129405686D01*
X97838789Y-129375703D01*
X97838787Y-129375696D01*
X97804896Y-129295774D01*
X97800749Y-129285993D01*
X97727619Y-129178503D01*
X97634924Y-129087345D01*
X97553462Y-129033893D01*
X97553448Y-129033886D01*
X97526226Y-129016024D01*
X97496042Y-129003816D01*
X96202579Y-128326289D01*
X96157329Y-128300301D01*
X96114297Y-128285803D01*
X96072201Y-128268777D01*
X96020942Y-128259026D01*
X94404200Y-127885932D01*
X94363383Y-127873550D01*
X94308663Y-127868161D01*
X94254190Y-127861115D01*
X94211661Y-127864000D01*
X94008637Y-127864000D01*
X91120388Y-127612848D01*
X89881483Y-127488957D01*
X89876116Y-127487973D01*
X89849283Y-127485737D01*
X89822414Y-127483050D01*
X89816942Y-127483042D01*
X89121556Y-127425093D01*
X89096962Y-127420008D01*
X89056933Y-127419707D01*
X89049502Y-127419088D01*
X89024517Y-127419464D01*
X88999531Y-127419276D01*
X88992105Y-127419951D01*
X88952081Y-127420553D01*
X88927530Y-127425822D01*
X88281257Y-127484574D01*
X87108418Y-127546302D01*
X87097121Y-127546173D01*
X87076035Y-127548007D01*
X87054937Y-127549117D01*
X87043787Y-127550811D01*
X84158060Y-127801744D01*
X82714869Y-127864492D01*
X80887646Y-127927500D01*
X78955840Y-127927500D01*
X78178699Y-127867720D01*
X78169537Y-127866364D01*
X78146405Y-127865236D01*
X78123296Y-127863458D01*
X78114030Y-127863656D01*
X75551294Y-127738645D01*
X73109674Y-127488223D01*
X71121164Y-127177518D01*
X69593398Y-126810854D01*
X67695908Y-126137552D01*
X66746610Y-125662903D01*
X66137962Y-125275582D01*
X65727403Y-124865023D01*
X65574831Y-124636165D01*
X90386000Y-124636165D01*
X90386000Y-124918835D01*
X90441147Y-125196074D01*
X90549320Y-125457227D01*
X90706363Y-125692259D01*
X90906241Y-125892137D01*
X91141273Y-126049180D01*
X91402426Y-126157353D01*
X91679665Y-126212500D01*
X91962335Y-126212500D01*
X92239574Y-126157353D01*
X92500727Y-126049180D01*
X92735759Y-125892137D01*
X92935637Y-125692259D01*
X93039043Y-125537500D01*
X98427699Y-125537500D01*
X98660000Y-125769802D01*
X98660000Y-125831939D01*
X98699774Y-126031898D01*
X98777795Y-126220256D01*
X98891063Y-126389774D01*
X99035226Y-126533937D01*
X99204744Y-126647205D01*
X99393102Y-126725226D01*
X99593061Y-126765000D01*
X99796939Y-126765000D01*
X99996898Y-126725226D01*
X100185256Y-126647205D01*
X100354774Y-126533937D01*
X100498937Y-126389774D01*
X100612205Y-126220256D01*
X100690226Y-126031898D01*
X100730000Y-125831939D01*
X100730000Y-125628061D01*
X100690226Y-125428102D01*
X100612205Y-125239744D01*
X100498937Y-125070226D01*
X100354774Y-124926063D01*
X100185256Y-124812795D01*
X99996898Y-124734774D01*
X99796939Y-124695000D01*
X99734802Y-124695000D01*
X99306303Y-124266502D01*
X99282501Y-124237499D01*
X99166776Y-124142526D01*
X99034747Y-124071954D01*
X98891486Y-124028497D01*
X98779833Y-124017500D01*
X98779822Y-124017500D01*
X98742500Y-124013824D01*
X98705178Y-124017500D01*
X93039043Y-124017500D01*
X92935637Y-123862741D01*
X92735759Y-123662863D01*
X92500727Y-123505820D01*
X92239574Y-123397647D01*
X91962335Y-123342500D01*
X91679665Y-123342500D01*
X91402426Y-123397647D01*
X91141273Y-123505820D01*
X90906241Y-123662863D01*
X90706363Y-123862741D01*
X90549320Y-124097773D01*
X90441147Y-124358926D01*
X90386000Y-124636165D01*
X65574831Y-124636165D01*
X65532447Y-124572590D01*
X65437573Y-124382843D01*
X65644471Y-124313877D01*
X66563900Y-124007401D01*
X69073047Y-123191929D01*
X69075454Y-123191382D01*
X69103654Y-123181982D01*
X69132328Y-123172663D01*
X69134622Y-123171659D01*
X69667842Y-122993920D01*
X69688892Y-122987635D01*
X69698550Y-122983684D01*
X69708465Y-122980379D01*
X69728551Y-122971411D01*
X70253889Y-122756500D01*
X79424428Y-122756500D01*
X79436688Y-122880982D01*
X79472998Y-123000680D01*
X79531963Y-123110994D01*
X79611315Y-123207685D01*
X79708006Y-123287037D01*
X79818320Y-123346002D01*
X79938018Y-123382312D01*
X80062500Y-123394572D01*
X80676750Y-123391500D01*
X80835500Y-123232750D01*
X80835500Y-121983500D01*
X79586250Y-121983500D01*
X79427500Y-122142250D01*
X79424428Y-122756500D01*
X70253889Y-122756500D01*
X71113602Y-122404800D01*
X72694080Y-121772610D01*
X72719664Y-121762820D01*
X72724098Y-121760603D01*
X72728718Y-121758755D01*
X72753113Y-121746095D01*
X72973661Y-121635821D01*
X72973664Y-121635820D01*
X73735664Y-121254820D01*
X74332304Y-120956500D01*
X79424428Y-120956500D01*
X79427500Y-121570750D01*
X79586250Y-121729500D01*
X80835500Y-121729500D01*
X80835500Y-120480250D01*
X81089500Y-120480250D01*
X81089500Y-121729500D01*
X81109500Y-121729500D01*
X81109500Y-121983500D01*
X81089500Y-121983500D01*
X81089500Y-123232750D01*
X81248250Y-123391500D01*
X81862500Y-123394572D01*
X81986982Y-123382312D01*
X82106680Y-123346002D01*
X82216994Y-123287037D01*
X82313685Y-123207685D01*
X82393037Y-123110994D01*
X82452002Y-123000680D01*
X82457556Y-122982373D01*
X82523995Y-123048812D01*
X82775405Y-123216799D01*
X83054757Y-123332511D01*
X83351316Y-123391500D01*
X83653684Y-123391500D01*
X83950243Y-123332511D01*
X84229595Y-123216799D01*
X84481005Y-123048812D01*
X84694812Y-122835005D01*
X84840813Y-122616500D01*
X90831178Y-122616500D01*
X90868500Y-122620176D01*
X90905822Y-122616500D01*
X90905833Y-122616500D01*
X91017486Y-122605503D01*
X91160747Y-122562046D01*
X91292776Y-122491474D01*
X91408501Y-122396501D01*
X91432303Y-122367498D01*
X91479801Y-122320000D01*
X91541939Y-122320000D01*
X91741898Y-122280226D01*
X91930256Y-122202205D01*
X92099774Y-122088937D01*
X92243937Y-121944774D01*
X92357205Y-121775256D01*
X92435226Y-121586898D01*
X92475000Y-121386939D01*
X92475000Y-121183061D01*
X92435226Y-120983102D01*
X92357205Y-120794744D01*
X92243937Y-120625226D01*
X92099774Y-120481063D01*
X91930256Y-120367795D01*
X91741898Y-120289774D01*
X91541939Y-120250000D01*
X91338061Y-120250000D01*
X91138102Y-120289774D01*
X90949744Y-120367795D01*
X90780226Y-120481063D01*
X90636063Y-120625226D01*
X90522795Y-120794744D01*
X90444774Y-120983102D01*
X90422218Y-121096500D01*
X84840813Y-121096500D01*
X84694812Y-120877995D01*
X84481005Y-120664188D01*
X84229595Y-120496201D01*
X83950243Y-120380489D01*
X83653684Y-120321500D01*
X83351316Y-120321500D01*
X83054757Y-120380489D01*
X82775405Y-120496201D01*
X82523995Y-120664188D01*
X82457556Y-120730627D01*
X82452002Y-120712320D01*
X82393037Y-120602006D01*
X82313685Y-120505315D01*
X82216994Y-120425963D01*
X82106680Y-120366998D01*
X81986982Y-120330688D01*
X81862500Y-120318428D01*
X81248250Y-120321500D01*
X81089500Y-120480250D01*
X80835500Y-120480250D01*
X80676750Y-120321500D01*
X80062500Y-120318428D01*
X79938018Y-120330688D01*
X79818320Y-120366998D01*
X79708006Y-120425963D01*
X79611315Y-120505315D01*
X79531963Y-120602006D01*
X79472998Y-120712320D01*
X79436688Y-120832018D01*
X79424428Y-120956500D01*
X74332304Y-120956500D01*
X76044393Y-120100456D01*
X76067268Y-120089624D01*
X76073323Y-120085991D01*
X76079657Y-120082824D01*
X76101143Y-120069299D01*
X78627623Y-118553412D01*
X78648223Y-118541781D01*
X78655363Y-118536768D01*
X78662866Y-118532266D01*
X78681918Y-118518123D01*
X81611391Y-116461260D01*
X81617295Y-116458514D01*
X81664504Y-116423968D01*
X81685788Y-116409024D01*
X81690704Y-116404796D01*
X81695924Y-116400976D01*
X81715259Y-116383677D01*
X81759657Y-116345490D01*
X81763675Y-116340357D01*
X83847184Y-114476165D01*
X90386000Y-114476165D01*
X90386000Y-114758835D01*
X90441147Y-115036074D01*
X90549320Y-115297227D01*
X90706363Y-115532259D01*
X90906241Y-115732137D01*
X91141273Y-115889180D01*
X91402426Y-115997353D01*
X91679665Y-116052500D01*
X91962335Y-116052500D01*
X92239574Y-115997353D01*
X92500727Y-115889180D01*
X92735759Y-115732137D01*
X92935637Y-115532259D01*
X93092680Y-115297227D01*
X93200853Y-115036074D01*
X93256000Y-114758835D01*
X93256000Y-114476165D01*
X93200853Y-114198926D01*
X93184177Y-114158665D01*
X94958000Y-114158665D01*
X94958000Y-114441335D01*
X95013147Y-114718574D01*
X95121320Y-114979727D01*
X95278363Y-115214759D01*
X95478241Y-115414637D01*
X95713273Y-115571680D01*
X95974426Y-115679853D01*
X96251665Y-115735000D01*
X96534335Y-115735000D01*
X96811574Y-115679853D01*
X97072727Y-115571680D01*
X97307759Y-115414637D01*
X97507637Y-115214759D01*
X97611043Y-115060000D01*
X98745199Y-115060000D01*
X99295000Y-115609802D01*
X99295000Y-115671939D01*
X99334774Y-115871898D01*
X99412795Y-116060256D01*
X99526063Y-116229774D01*
X99670226Y-116373937D01*
X99839744Y-116487205D01*
X100028102Y-116565226D01*
X100228061Y-116605000D01*
X100431939Y-116605000D01*
X100631898Y-116565226D01*
X100820256Y-116487205D01*
X100989774Y-116373937D01*
X101133937Y-116229774D01*
X101247205Y-116060256D01*
X101325226Y-115871898D01*
X101365000Y-115671939D01*
X101365000Y-115468061D01*
X101325226Y-115268102D01*
X101247205Y-115079744D01*
X101133937Y-114910226D01*
X100989774Y-114766063D01*
X100820256Y-114652795D01*
X100631898Y-114574774D01*
X100431939Y-114535000D01*
X100369802Y-114535000D01*
X99623804Y-113789003D01*
X99600001Y-113759999D01*
X99484276Y-113665026D01*
X99352247Y-113594454D01*
X99208986Y-113550997D01*
X99097333Y-113540000D01*
X99097322Y-113540000D01*
X99060000Y-113536324D01*
X99022678Y-113540000D01*
X97611043Y-113540000D01*
X97507637Y-113385241D01*
X97307759Y-113185363D01*
X97072727Y-113028320D01*
X96811574Y-112920147D01*
X96534335Y-112865000D01*
X96251665Y-112865000D01*
X95974426Y-112920147D01*
X95713273Y-113028320D01*
X95478241Y-113185363D01*
X95278363Y-113385241D01*
X95121320Y-113620273D01*
X95013147Y-113881426D01*
X94958000Y-114158665D01*
X93184177Y-114158665D01*
X93092680Y-113937773D01*
X92935637Y-113702741D01*
X92735759Y-113502863D01*
X92500727Y-113345820D01*
X92239574Y-113237647D01*
X91962335Y-113182500D01*
X91679665Y-113182500D01*
X91402426Y-113237647D01*
X91141273Y-113345820D01*
X90906241Y-113502863D01*
X90706363Y-113702741D01*
X90549320Y-113937773D01*
X90441147Y-114198926D01*
X90386000Y-114476165D01*
X83847184Y-114476165D01*
X85329105Y-113150236D01*
X85343266Y-113138614D01*
X85353228Y-113128652D01*
X85363744Y-113119243D01*
X85376153Y-113105727D01*
X85788018Y-112693863D01*
X85813438Y-112672957D01*
X85854056Y-112623359D01*
X85895425Y-112572950D01*
X85910946Y-112543912D01*
X86001976Y-112407367D01*
X86022425Y-112382450D01*
X86037946Y-112353412D01*
X86038136Y-112353127D01*
X86053167Y-112324934D01*
X86083710Y-112267793D01*
X86083811Y-112267461D01*
X86083976Y-112267151D01*
X86102687Y-112205234D01*
X86121450Y-112143383D01*
X86121485Y-112143031D01*
X86121584Y-112142702D01*
X86127780Y-112079110D01*
X86134193Y-112014000D01*
X86134159Y-112013650D01*
X86134192Y-112013307D01*
X86127837Y-111949463D01*
X86121450Y-111884617D01*
X86121348Y-111884282D01*
X86121314Y-111883937D01*
X86102549Y-111822309D01*
X86083710Y-111760207D01*
X86083545Y-111759899D01*
X86083444Y-111759566D01*
X86053040Y-111702827D01*
X86022425Y-111645550D01*
X86022202Y-111645278D01*
X86022039Y-111644974D01*
X85981021Y-111595099D01*
X85939948Y-111545052D01*
X85939680Y-111544832D01*
X85939458Y-111544562D01*
X85889356Y-111503532D01*
X85839450Y-111462575D01*
X85839142Y-111462411D01*
X85838873Y-111462190D01*
X85781723Y-111431719D01*
X85724793Y-111401290D01*
X85724461Y-111401189D01*
X85724151Y-111401024D01*
X85662504Y-111382394D01*
X85600383Y-111363550D01*
X85600031Y-111363515D01*
X85599702Y-111363416D01*
X85535663Y-111357176D01*
X85503419Y-111354000D01*
X85503073Y-111354000D01*
X85470306Y-111350807D01*
X85438233Y-111354000D01*
X85363447Y-111354000D01*
X85318013Y-111351317D01*
X85266448Y-111358445D01*
X85214617Y-111363550D01*
X85171047Y-111376767D01*
X83619322Y-111749182D01*
X81948096Y-112058669D01*
X79506505Y-112309089D01*
X77906499Y-112432166D01*
X76744769Y-112371022D01*
X75717537Y-112310597D01*
X74932585Y-112142393D01*
X74077417Y-111800326D01*
X73448410Y-111433405D01*
X73058618Y-110994889D01*
X72859500Y-110636478D01*
X72859500Y-110570552D01*
X73134035Y-110492114D01*
X73156583Y-110486342D01*
X73165187Y-110483213D01*
X73173987Y-110480699D01*
X73195629Y-110472143D01*
X75272518Y-109716912D01*
X75293133Y-109710164D01*
X75302934Y-109705851D01*
X75313017Y-109702185D01*
X75332616Y-109692792D01*
X78494992Y-108301347D01*
X78881662Y-108135631D01*
X78886877Y-108134440D01*
X78941317Y-108110065D01*
X78966284Y-108099365D01*
X78970950Y-108096797D01*
X78975804Y-108094624D01*
X78999355Y-108081166D01*
X79051646Y-108052391D01*
X79055742Y-108048945D01*
X79359271Y-107875500D01*
X108126428Y-107875500D01*
X108129500Y-108489750D01*
X108288250Y-108648500D01*
X109537500Y-108648500D01*
X109537500Y-107399250D01*
X109791500Y-107399250D01*
X109791500Y-108648500D01*
X109811500Y-108648500D01*
X109811500Y-108902500D01*
X109791500Y-108902500D01*
X109791500Y-110151750D01*
X109950250Y-110310500D01*
X110564500Y-110313572D01*
X110688982Y-110301312D01*
X110808680Y-110265002D01*
X110918994Y-110206037D01*
X111015685Y-110126685D01*
X111095037Y-110029994D01*
X111154002Y-109919680D01*
X111159556Y-109901373D01*
X111225995Y-109967812D01*
X111477405Y-110135799D01*
X111756757Y-110251511D01*
X112053316Y-110310500D01*
X112355684Y-110310500D01*
X112652243Y-110251511D01*
X112931595Y-110135799D01*
X113183005Y-109967812D01*
X113396812Y-109754005D01*
X113564799Y-109502595D01*
X113680511Y-109223243D01*
X113739500Y-108926684D01*
X113739500Y-108624316D01*
X113680511Y-108327757D01*
X113564799Y-108048405D01*
X113396812Y-107796995D01*
X113183005Y-107583188D01*
X112931595Y-107415201D01*
X112652243Y-107299489D01*
X112355684Y-107240500D01*
X112053316Y-107240500D01*
X111756757Y-107299489D01*
X111477405Y-107415201D01*
X111225995Y-107583188D01*
X111159556Y-107649627D01*
X111154002Y-107631320D01*
X111095037Y-107521006D01*
X111015685Y-107424315D01*
X110918994Y-107344963D01*
X110808680Y-107285998D01*
X110688982Y-107249688D01*
X110564500Y-107237428D01*
X109950250Y-107240500D01*
X109791500Y-107399250D01*
X109537500Y-107399250D01*
X109378750Y-107240500D01*
X108764500Y-107237428D01*
X108640018Y-107249688D01*
X108520320Y-107285998D01*
X108410006Y-107344963D01*
X108313315Y-107424315D01*
X108233963Y-107521006D01*
X108174998Y-107631320D01*
X108138688Y-107751018D01*
X108126428Y-107875500D01*
X79359271Y-107875500D01*
X81220052Y-106812198D01*
X81241952Y-106800331D01*
X81248113Y-106796163D01*
X81254599Y-106792457D01*
X81274991Y-106777981D01*
X81497441Y-106627500D01*
X87361928Y-106627500D01*
X87374188Y-106751982D01*
X87410498Y-106871680D01*
X87469463Y-106981994D01*
X87548815Y-107078685D01*
X87645506Y-107158037D01*
X87755820Y-107217002D01*
X87875518Y-107253312D01*
X88000000Y-107265572D01*
X88614250Y-107262500D01*
X88773000Y-107103750D01*
X88773000Y-105854500D01*
X87523750Y-105854500D01*
X87365000Y-106013250D01*
X87361928Y-106627500D01*
X81497441Y-106627500D01*
X83422896Y-105324988D01*
X83444983Y-105310625D01*
X83449666Y-105306878D01*
X83454656Y-105303503D01*
X83475014Y-105286600D01*
X84048890Y-104827500D01*
X87361928Y-104827500D01*
X87365000Y-105441750D01*
X87523750Y-105600500D01*
X88773000Y-105600500D01*
X88773000Y-104351250D01*
X89027000Y-104351250D01*
X89027000Y-105600500D01*
X89047000Y-105600500D01*
X89047000Y-105854500D01*
X89027000Y-105854500D01*
X89027000Y-107103750D01*
X89185750Y-107262500D01*
X89800000Y-107265572D01*
X89924482Y-107253312D01*
X90044180Y-107217002D01*
X90154494Y-107158037D01*
X90251185Y-107078685D01*
X90330537Y-106981994D01*
X90389502Y-106871680D01*
X90395056Y-106853373D01*
X90461495Y-106919812D01*
X90712905Y-107087799D01*
X90992257Y-107203511D01*
X91288816Y-107262500D01*
X91591184Y-107262500D01*
X91887743Y-107203511D01*
X92167095Y-107087799D01*
X92418505Y-106919812D01*
X92632312Y-106706005D01*
X92778313Y-106487500D01*
X94768178Y-106487500D01*
X94805500Y-106491176D01*
X94842822Y-106487500D01*
X94842833Y-106487500D01*
X94954486Y-106476503D01*
X95097747Y-106433046D01*
X95229776Y-106362474D01*
X95345501Y-106267501D01*
X95369304Y-106238497D01*
X95958136Y-105649665D01*
X119659500Y-105649665D01*
X119659500Y-105932335D01*
X119714647Y-106209574D01*
X119822820Y-106470727D01*
X119979863Y-106705759D01*
X120179741Y-106905637D01*
X120414773Y-107062680D01*
X120675926Y-107170853D01*
X120953165Y-107226000D01*
X121235835Y-107226000D01*
X121513074Y-107170853D01*
X121774227Y-107062680D01*
X122009259Y-106905637D01*
X122209137Y-106705759D01*
X122366180Y-106470727D01*
X122474353Y-106209574D01*
X122529500Y-105932335D01*
X122529500Y-105649665D01*
X122474353Y-105372426D01*
X122366180Y-105111273D01*
X122209137Y-104876241D01*
X122009259Y-104676363D01*
X121774227Y-104519320D01*
X121513074Y-104411147D01*
X121235835Y-104356000D01*
X120953165Y-104356000D01*
X120675926Y-104411147D01*
X120414773Y-104519320D01*
X120179741Y-104676363D01*
X119979863Y-104876241D01*
X119822820Y-105111273D01*
X119714647Y-105372426D01*
X119659500Y-105649665D01*
X95958136Y-105649665D01*
X96069114Y-105538688D01*
X96251665Y-105575000D01*
X96534335Y-105575000D01*
X96811574Y-105519853D01*
X97072727Y-105411680D01*
X97307759Y-105254637D01*
X97507637Y-105054759D01*
X97664680Y-104819727D01*
X97772853Y-104558574D01*
X97828000Y-104281335D01*
X97828000Y-103998665D01*
X97772853Y-103721426D01*
X97664680Y-103460273D01*
X97507637Y-103225241D01*
X97307759Y-103025363D01*
X97072727Y-102868320D01*
X96811574Y-102760147D01*
X96534335Y-102705000D01*
X96251665Y-102705000D01*
X95974426Y-102760147D01*
X95713273Y-102868320D01*
X95478241Y-103025363D01*
X95278363Y-103225241D01*
X95121320Y-103460273D01*
X95013147Y-103721426D01*
X94958000Y-103998665D01*
X94958000Y-104281335D01*
X94994312Y-104463886D01*
X94490699Y-104967500D01*
X92778313Y-104967500D01*
X92632312Y-104748995D01*
X92418505Y-104535188D01*
X92167095Y-104367201D01*
X91887743Y-104251489D01*
X91591184Y-104192500D01*
X91288816Y-104192500D01*
X90992257Y-104251489D01*
X90712905Y-104367201D01*
X90461495Y-104535188D01*
X90395056Y-104601627D01*
X90389502Y-104583320D01*
X90330537Y-104473006D01*
X90251185Y-104376315D01*
X90154494Y-104296963D01*
X90044180Y-104237998D01*
X89924482Y-104201688D01*
X89800000Y-104189428D01*
X89185750Y-104192500D01*
X89027000Y-104351250D01*
X88773000Y-104351250D01*
X88614250Y-104192500D01*
X88000000Y-104189428D01*
X87875518Y-104201688D01*
X87755820Y-104237998D01*
X87645506Y-104296963D01*
X87548815Y-104376315D01*
X87469463Y-104473006D01*
X87410498Y-104583320D01*
X87374188Y-104703018D01*
X87361928Y-104827500D01*
X84048890Y-104827500D01*
X84401157Y-104545687D01*
X84405041Y-104543082D01*
X84426395Y-104525496D01*
X84448113Y-104508122D01*
X84451479Y-104504839D01*
X85500385Y-103641036D01*
X85516629Y-103628616D01*
X85525352Y-103620475D01*
X85534591Y-103612866D01*
X85549069Y-103598339D01*
X86470942Y-102737925D01*
X86472876Y-102736424D01*
X86494489Y-102715949D01*
X86516530Y-102695377D01*
X86518167Y-102693516D01*
X87692355Y-101581130D01*
X87705832Y-101569446D01*
X87715851Y-101558870D01*
X87726446Y-101548833D01*
X87738150Y-101535332D01*
X88826474Y-100386546D01*
X88826524Y-100386511D01*
X88868604Y-100342076D01*
X88893424Y-100315877D01*
X88893471Y-100315817D01*
X88915918Y-100292113D01*
X88933235Y-100264603D01*
X88953178Y-100238918D01*
X88967789Y-100209712D01*
X88967823Y-100209657D01*
X88981918Y-100181468D01*
X89011343Y-100122647D01*
X89011361Y-100122581D01*
X89083441Y-99978422D01*
X89087682Y-99972709D01*
X89105696Y-99934665D01*
X98006000Y-99934665D01*
X98006000Y-100217335D01*
X98061147Y-100494574D01*
X98169320Y-100755727D01*
X98326363Y-100990759D01*
X98526241Y-101190637D01*
X98761273Y-101347680D01*
X99022426Y-101455853D01*
X99299665Y-101511000D01*
X99582335Y-101511000D01*
X99859574Y-101455853D01*
X100120727Y-101347680D01*
X100355759Y-101190637D01*
X100555637Y-100990759D01*
X100712680Y-100755727D01*
X100820853Y-100494574D01*
X100876000Y-100217335D01*
X100876000Y-99934665D01*
X100820853Y-99657426D01*
X100712680Y-99396273D01*
X100555637Y-99161241D01*
X100355759Y-98961363D01*
X100120727Y-98804320D01*
X99859574Y-98696147D01*
X99582335Y-98641000D01*
X99299665Y-98641000D01*
X99022426Y-98696147D01*
X98761273Y-98804320D01*
X98526241Y-98961363D01*
X98326363Y-99161241D01*
X98169320Y-99396273D01*
X98061147Y-99657426D01*
X98006000Y-99934665D01*
X89105696Y-99934665D01*
X89112448Y-99920407D01*
X89123820Y-99897664D01*
X89126356Y-99891037D01*
X89143322Y-99855208D01*
X89149525Y-99830490D01*
X89158642Y-99806667D01*
X89165320Y-99767559D01*
X89174969Y-99729111D01*
X89176231Y-99703653D01*
X89180524Y-99678513D01*
X89179444Y-99638863D01*
X89181408Y-99599263D01*
X89177679Y-99574045D01*
X89176985Y-99548553D01*
X89168191Y-99509879D01*
X89162391Y-99470653D01*
X89153812Y-99446641D01*
X89148159Y-99421780D01*
X89131994Y-99385575D01*
X89118649Y-99348223D01*
X89105549Y-99326345D01*
X89095156Y-99303067D01*
X89072231Y-99270701D01*
X89051861Y-99236681D01*
X89034751Y-99217785D01*
X89020011Y-99196975D01*
X88991215Y-99169705D01*
X88964598Y-99140311D01*
X88944127Y-99125114D01*
X88925613Y-99107582D01*
X88892041Y-99086449D01*
X88860209Y-99062818D01*
X88837176Y-99051911D01*
X88815589Y-99038322D01*
X88778540Y-99024145D01*
X88742708Y-99007177D01*
X88717983Y-99000972D01*
X88694166Y-98991858D01*
X88655064Y-98985181D01*
X88616611Y-98975531D01*
X88591151Y-98974268D01*
X88566013Y-98969976D01*
X88526372Y-98971055D01*
X88486762Y-98969091D01*
X88461538Y-98972821D01*
X88436053Y-98973515D01*
X88397379Y-98982309D01*
X88390377Y-98983344D01*
X88365771Y-98989496D01*
X88309281Y-99002340D01*
X88302777Y-99005244D01*
X88137958Y-99046449D01*
X85979223Y-99354840D01*
X84767793Y-99415411D01*
X83053109Y-99354173D01*
X82239516Y-99237945D01*
X81683986Y-99086437D01*
X81255981Y-98801100D01*
X80920189Y-98465309D01*
X80898168Y-98426772D01*
X80958821Y-98400778D01*
X83810878Y-97284756D01*
X83812359Y-97284485D01*
X83871150Y-97261172D01*
X83900193Y-97249807D01*
X83901542Y-97249120D01*
X83902931Y-97248569D01*
X83930330Y-97234454D01*
X83987010Y-97205580D01*
X83988198Y-97204644D01*
X85973653Y-96181834D01*
X85978151Y-96180475D01*
X86031342Y-96152115D01*
X86056070Y-96139377D01*
X86060001Y-96136836D01*
X86064127Y-96134636D01*
X86087235Y-96119231D01*
X86137895Y-96086482D01*
X86141272Y-96083206D01*
X86591489Y-95783061D01*
X106280000Y-95783061D01*
X106280000Y-95986939D01*
X106319774Y-96186898D01*
X106397795Y-96375256D01*
X106511063Y-96544774D01*
X106655226Y-96688937D01*
X106824744Y-96802205D01*
X107013102Y-96880226D01*
X107213061Y-96920000D01*
X107416939Y-96920000D01*
X107616898Y-96880226D01*
X107805256Y-96802205D01*
X107926039Y-96721500D01*
X114730428Y-96721500D01*
X114742688Y-96845982D01*
X114778998Y-96965680D01*
X114837963Y-97075994D01*
X114917315Y-97172685D01*
X115014006Y-97252037D01*
X115124320Y-97311002D01*
X115244018Y-97347312D01*
X115368500Y-97359572D01*
X115982750Y-97356500D01*
X116141500Y-97197750D01*
X116141500Y-95948500D01*
X114892250Y-95948500D01*
X114733500Y-96107250D01*
X114730428Y-96721500D01*
X107926039Y-96721500D01*
X107974774Y-96688937D01*
X108118937Y-96544774D01*
X108232205Y-96375256D01*
X108310226Y-96186898D01*
X108350000Y-95986939D01*
X108350000Y-95783061D01*
X108310226Y-95583102D01*
X108232205Y-95394744D01*
X108118937Y-95225226D01*
X108075000Y-95181289D01*
X108075000Y-94929801D01*
X108264802Y-94740000D01*
X109043196Y-94740000D01*
X109238773Y-94870680D01*
X109499926Y-94978853D01*
X109777165Y-95034000D01*
X110059835Y-95034000D01*
X110337074Y-94978853D01*
X110475536Y-94921500D01*
X114730428Y-94921500D01*
X114733500Y-95535750D01*
X114892250Y-95694500D01*
X116141500Y-95694500D01*
X116141500Y-94445250D01*
X116395500Y-94445250D01*
X116395500Y-95694500D01*
X116415500Y-95694500D01*
X116415500Y-95948500D01*
X116395500Y-95948500D01*
X116395500Y-97197750D01*
X116554250Y-97356500D01*
X117168500Y-97359572D01*
X117292982Y-97347312D01*
X117412680Y-97311002D01*
X117522994Y-97252037D01*
X117619685Y-97172685D01*
X117699037Y-97075994D01*
X117758002Y-96965680D01*
X117763556Y-96947373D01*
X117829995Y-97013812D01*
X118081405Y-97181799D01*
X118360757Y-97297511D01*
X118657316Y-97356500D01*
X118959684Y-97356500D01*
X119256243Y-97297511D01*
X119535595Y-97181799D01*
X119787005Y-97013812D01*
X120000812Y-96800005D01*
X120168799Y-96548595D01*
X120284511Y-96269243D01*
X120343500Y-95972684D01*
X120343500Y-95670316D01*
X120284511Y-95373757D01*
X120168799Y-95094405D01*
X120000812Y-94842995D01*
X119787005Y-94629188D01*
X119535595Y-94461201D01*
X119256243Y-94345489D01*
X118959684Y-94286500D01*
X118657316Y-94286500D01*
X118360757Y-94345489D01*
X118081405Y-94461201D01*
X117829995Y-94629188D01*
X117763556Y-94695627D01*
X117758002Y-94677320D01*
X117699037Y-94567006D01*
X117619685Y-94470315D01*
X117522994Y-94390963D01*
X117412680Y-94331998D01*
X117292982Y-94295688D01*
X117168500Y-94283428D01*
X116554250Y-94286500D01*
X116395500Y-94445250D01*
X116141500Y-94445250D01*
X115982750Y-94286500D01*
X115368500Y-94283428D01*
X115244018Y-94295688D01*
X115124320Y-94331998D01*
X115014006Y-94390963D01*
X114917315Y-94470315D01*
X114837963Y-94567006D01*
X114778998Y-94677320D01*
X114742688Y-94797018D01*
X114730428Y-94921500D01*
X110475536Y-94921500D01*
X110598227Y-94870680D01*
X110833259Y-94713637D01*
X111033137Y-94513759D01*
X111190180Y-94278727D01*
X111298353Y-94017574D01*
X111353500Y-93740335D01*
X111353500Y-93457665D01*
X111298353Y-93180426D01*
X111190180Y-92919273D01*
X111033137Y-92684241D01*
X110833259Y-92484363D01*
X110598227Y-92327320D01*
X110337074Y-92219147D01*
X110059835Y-92164000D01*
X109777165Y-92164000D01*
X109499926Y-92219147D01*
X109238773Y-92327320D01*
X109003741Y-92484363D01*
X108803863Y-92684241D01*
X108646820Y-92919273D01*
X108538647Y-93180426D01*
X108530775Y-93220000D01*
X107987333Y-93220000D01*
X107950000Y-93216323D01*
X107912667Y-93220000D01*
X107801014Y-93230997D01*
X107657753Y-93274454D01*
X107525724Y-93345026D01*
X107409999Y-93439999D01*
X107386200Y-93468998D01*
X106803998Y-94051201D01*
X106775000Y-94074999D01*
X106751202Y-94103997D01*
X106751201Y-94103998D01*
X106680026Y-94190724D01*
X106609454Y-94322754D01*
X106590788Y-94384291D01*
X106565998Y-94466014D01*
X106561201Y-94514720D01*
X106551324Y-94615000D01*
X106555001Y-94652332D01*
X106555001Y-95181288D01*
X106511063Y-95225226D01*
X106397795Y-95394744D01*
X106319774Y-95583102D01*
X106280000Y-95783061D01*
X86591489Y-95783061D01*
X88183563Y-94721679D01*
X88207483Y-94706125D01*
X88210423Y-94703773D01*
X88213576Y-94701671D01*
X88235792Y-94683477D01*
X90090287Y-93199883D01*
X90093950Y-93197925D01*
X90140961Y-93159343D01*
X90163113Y-93141622D01*
X90166076Y-93138732D01*
X90169266Y-93136114D01*
X90189270Y-93116110D01*
X90232863Y-93073592D01*
X90235216Y-93070164D01*
X91583355Y-91722026D01*
X91600813Y-91705424D01*
X91606234Y-91699147D01*
X91612113Y-91693268D01*
X91627427Y-91674607D01*
X92826596Y-90286096D01*
X92846009Y-90264024D01*
X92847746Y-90261607D01*
X92849692Y-90259354D01*
X92866645Y-90235313D01*
X93197735Y-89774665D01*
X98006000Y-89774665D01*
X98006000Y-90057335D01*
X98061147Y-90334574D01*
X98169320Y-90595727D01*
X98326363Y-90830759D01*
X98526241Y-91030637D01*
X98761273Y-91187680D01*
X99022426Y-91295853D01*
X99299665Y-91351000D01*
X99582335Y-91351000D01*
X99859574Y-91295853D01*
X100120727Y-91187680D01*
X100355759Y-91030637D01*
X100555637Y-90830759D01*
X100712680Y-90595727D01*
X100820853Y-90334574D01*
X100876000Y-90057335D01*
X100876000Y-89774665D01*
X100820853Y-89497426D01*
X100712680Y-89236273D01*
X100555637Y-89001241D01*
X100355759Y-88801363D01*
X100120727Y-88644320D01*
X99859574Y-88536147D01*
X99582335Y-88481000D01*
X99299665Y-88481000D01*
X99022426Y-88536147D01*
X98761273Y-88644320D01*
X98526241Y-88801363D01*
X98326363Y-89001241D01*
X98169320Y-89236273D01*
X98061147Y-89497426D01*
X98006000Y-89774665D01*
X93197735Y-89774665D01*
X94313305Y-88222569D01*
X94320670Y-88213576D01*
X94332203Y-88196277D01*
X94344351Y-88179375D01*
X94350184Y-88169304D01*
X94714501Y-87622830D01*
X94746656Y-87577433D01*
X94763744Y-87539160D01*
X94783476Y-87502152D01*
X94799579Y-87448864D01*
X94849880Y-87297962D01*
X94863159Y-87268220D01*
X94874417Y-87218711D01*
X94891985Y-87141447D01*
X94895524Y-87011487D01*
X94873641Y-86883334D01*
X94827177Y-86761911D01*
X94757918Y-86651887D01*
X94668525Y-86557489D01*
X94562433Y-86482344D01*
X94443720Y-86429340D01*
X94316946Y-86400515D01*
X94186986Y-86396976D01*
X94058834Y-86418858D01*
X94005875Y-86439124D01*
X93967836Y-86453680D01*
X93967831Y-86453682D01*
X93937412Y-86465323D01*
X93909848Y-86482674D01*
X93845718Y-86514739D01*
X93820237Y-86524011D01*
X93787723Y-86543737D01*
X93782843Y-86546177D01*
X93760005Y-86560553D01*
X93736936Y-86574549D01*
X93732572Y-86577822D01*
X93700387Y-86598082D01*
X93680697Y-86616728D01*
X93504612Y-86748791D01*
X93191982Y-86905108D01*
X92233321Y-87324523D01*
X90281645Y-87873431D01*
X88402623Y-88176500D01*
X87290087Y-88176500D01*
X86348438Y-88058794D01*
X85620375Y-87890780D01*
X85091066Y-87650185D01*
X84720106Y-87279225D01*
X84678739Y-87144783D01*
X89782305Y-84593000D01*
X91933928Y-84593000D01*
X91946188Y-84717482D01*
X91982498Y-84837180D01*
X92041463Y-84947494D01*
X92120815Y-85044185D01*
X92217506Y-85123537D01*
X92327820Y-85182502D01*
X92447518Y-85218812D01*
X92572000Y-85231072D01*
X93186250Y-85228000D01*
X93345000Y-85069250D01*
X93345000Y-83820000D01*
X92095750Y-83820000D01*
X91937000Y-83978750D01*
X91933928Y-84593000D01*
X89782305Y-84593000D01*
X90478630Y-84244838D01*
X90487292Y-84242210D01*
X90536665Y-84215820D01*
X90557657Y-84205324D01*
X90565282Y-84200524D01*
X90601950Y-84180925D01*
X90620166Y-84165976D01*
X90640113Y-84153419D01*
X90670310Y-84124823D01*
X90677266Y-84119114D01*
X90693839Y-84102541D01*
X90734511Y-84064025D01*
X90739746Y-84056634D01*
X91934274Y-82862106D01*
X91937000Y-83407250D01*
X92095750Y-83566000D01*
X93345000Y-83566000D01*
X93345000Y-82316750D01*
X93599000Y-82316750D01*
X93599000Y-83566000D01*
X93619000Y-83566000D01*
X93619000Y-83820000D01*
X93599000Y-83820000D01*
X93599000Y-85069250D01*
X93757750Y-85228000D01*
X94372000Y-85231072D01*
X94496482Y-85218812D01*
X94616180Y-85182502D01*
X94726494Y-85123537D01*
X94823185Y-85044185D01*
X94902537Y-84947494D01*
X94961502Y-84837180D01*
X94967056Y-84818873D01*
X95033495Y-84885312D01*
X95284905Y-85053299D01*
X95564257Y-85169011D01*
X95860816Y-85228000D01*
X96163184Y-85228000D01*
X96459743Y-85169011D01*
X96739095Y-85053299D01*
X96990505Y-84885312D01*
X97204312Y-84671505D01*
X97372299Y-84420095D01*
X97416383Y-84313665D01*
X100101500Y-84313665D01*
X100101500Y-84596335D01*
X100156647Y-84873574D01*
X100264820Y-85134727D01*
X100421863Y-85369759D01*
X100621741Y-85569637D01*
X100856773Y-85726680D01*
X101117926Y-85834853D01*
X101395165Y-85890000D01*
X101677835Y-85890000D01*
X101955074Y-85834853D01*
X102216227Y-85726680D01*
X102451259Y-85569637D01*
X102651137Y-85369759D01*
X102808180Y-85134727D01*
X102916353Y-84873574D01*
X102971500Y-84596335D01*
X102971500Y-84313665D01*
X102916353Y-84036426D01*
X102808180Y-83775273D01*
X102651137Y-83540241D01*
X102451259Y-83340363D01*
X102387357Y-83297665D01*
X108483500Y-83297665D01*
X108483500Y-83580335D01*
X108538647Y-83857574D01*
X108646820Y-84118727D01*
X108803863Y-84353759D01*
X109003741Y-84553637D01*
X109238773Y-84710680D01*
X109499926Y-84818853D01*
X109777165Y-84874000D01*
X110059835Y-84874000D01*
X110337074Y-84818853D01*
X110598227Y-84710680D01*
X110833259Y-84553637D01*
X111033137Y-84353759D01*
X111190180Y-84118727D01*
X111298353Y-83857574D01*
X111353500Y-83580335D01*
X111353500Y-83297665D01*
X111298353Y-83020426D01*
X111190180Y-82759273D01*
X111033137Y-82524241D01*
X110833259Y-82324363D01*
X110598227Y-82167320D01*
X110337074Y-82059147D01*
X110059835Y-82004000D01*
X109777165Y-82004000D01*
X109499926Y-82059147D01*
X109238773Y-82167320D01*
X109003741Y-82324363D01*
X108803863Y-82524241D01*
X108646820Y-82759273D01*
X108538647Y-83020426D01*
X108483500Y-83297665D01*
X102387357Y-83297665D01*
X102216227Y-83183320D01*
X101955074Y-83075147D01*
X101677835Y-83020000D01*
X101395165Y-83020000D01*
X101117926Y-83075147D01*
X100856773Y-83183320D01*
X100621741Y-83340363D01*
X100421863Y-83540241D01*
X100264820Y-83775273D01*
X100156647Y-84036426D01*
X100101500Y-84313665D01*
X97416383Y-84313665D01*
X97488011Y-84140743D01*
X97547000Y-83844184D01*
X97547000Y-83541816D01*
X97488011Y-83245257D01*
X97372299Y-82965905D01*
X97204312Y-82714495D01*
X96990505Y-82500688D01*
X96739095Y-82332701D01*
X96459743Y-82216989D01*
X96163184Y-82158000D01*
X95860816Y-82158000D01*
X95564257Y-82216989D01*
X95284905Y-82332701D01*
X95033495Y-82500688D01*
X94967056Y-82567127D01*
X94961502Y-82548820D01*
X94902537Y-82438506D01*
X94823185Y-82341815D01*
X94726494Y-82262463D01*
X94616180Y-82203498D01*
X94496482Y-82167188D01*
X94372000Y-82154928D01*
X93757750Y-82158000D01*
X93599000Y-82316750D01*
X93345000Y-82316750D01*
X93186250Y-82158000D01*
X92641106Y-82155274D01*
X95122507Y-79673873D01*
X95147938Y-79652958D01*
X95189029Y-79602781D01*
X95229925Y-79552951D01*
X95230091Y-79552640D01*
X95230310Y-79552373D01*
X95260876Y-79495043D01*
X95291209Y-79438293D01*
X95291308Y-79437965D01*
X95291476Y-79437651D01*
X95310409Y-79375000D01*
X95328949Y-79313884D01*
X95328983Y-79313535D01*
X95329084Y-79313202D01*
X95335458Y-79247792D01*
X95341692Y-79184501D01*
X95341658Y-79184160D01*
X95341693Y-79183806D01*
X95335187Y-79118452D01*
X95328949Y-79055118D01*
X95328849Y-79054788D01*
X95328814Y-79054438D01*
X95309782Y-78991933D01*
X95291209Y-78930708D01*
X95291047Y-78930404D01*
X95290944Y-78930067D01*
X95260238Y-78872763D01*
X95229925Y-78816051D01*
X95229704Y-78815781D01*
X95229539Y-78815474D01*
X95188329Y-78765365D01*
X95147448Y-78715552D01*
X95147180Y-78715332D01*
X95146958Y-78715062D01*
X95096820Y-78674003D01*
X95046949Y-78633075D01*
X95017918Y-78617558D01*
X94881367Y-78526524D01*
X94856450Y-78506075D01*
X94827412Y-78490554D01*
X94827127Y-78490364D01*
X94799178Y-78475463D01*
X94741793Y-78444790D01*
X94741457Y-78444688D01*
X94741151Y-78444525D01*
X94680073Y-78426067D01*
X94617383Y-78407050D01*
X94617029Y-78407015D01*
X94616701Y-78406916D01*
X94553134Y-78400722D01*
X94520419Y-78397500D01*
X94520066Y-78397500D01*
X94487307Y-78394308D01*
X94455243Y-78397500D01*
X94387556Y-78397500D01*
X94349254Y-78394411D01*
X94290496Y-78401251D01*
X94231617Y-78407050D01*
X94194840Y-78418206D01*
X92802577Y-78720873D01*
X92111058Y-78778500D01*
X91441850Y-78778500D01*
X90911228Y-78672375D01*
X90843561Y-78649820D01*
X90615746Y-78497943D01*
X90483036Y-78338692D01*
X90648112Y-78220781D01*
X91310127Y-77859683D01*
X92094445Y-77437359D01*
X92113339Y-77430283D01*
X92151547Y-77406611D01*
X92162449Y-77400741D01*
X92179103Y-77389539D01*
X92196164Y-77378969D01*
X92205998Y-77371449D01*
X92243295Y-77346362D01*
X92257519Y-77332051D01*
X92976163Y-76782500D01*
X109904428Y-76782500D01*
X109916688Y-76906982D01*
X109952998Y-77026680D01*
X110011963Y-77136994D01*
X110091315Y-77233685D01*
X110188006Y-77313037D01*
X110298320Y-77372002D01*
X110418018Y-77408312D01*
X110542500Y-77420572D01*
X111156750Y-77417500D01*
X111315500Y-77258750D01*
X111315500Y-76009500D01*
X110066250Y-76009500D01*
X109907500Y-76168250D01*
X109904428Y-76782500D01*
X92976163Y-76782500D01*
X93299144Y-76535515D01*
X93322580Y-76517928D01*
X93324783Y-76515909D01*
X93327169Y-76514084D01*
X93348703Y-76493982D01*
X94106796Y-75799063D01*
X94129053Y-75778952D01*
X94130639Y-75777207D01*
X94132375Y-75775616D01*
X94152395Y-75753276D01*
X95388688Y-74393354D01*
X95401938Y-74382457D01*
X95432309Y-74345370D01*
X95442668Y-74333976D01*
X95452866Y-74320269D01*
X95463670Y-74307076D01*
X95472196Y-74294287D01*
X95500826Y-74255805D01*
X95508189Y-74240298D01*
X95565944Y-74153665D01*
X100101500Y-74153665D01*
X100101500Y-74436335D01*
X100156647Y-74713574D01*
X100264820Y-74974727D01*
X100421863Y-75209759D01*
X100621741Y-75409637D01*
X100856773Y-75566680D01*
X101117926Y-75674853D01*
X101395165Y-75730000D01*
X101677835Y-75730000D01*
X101955074Y-75674853D01*
X102216227Y-75566680D01*
X102451259Y-75409637D01*
X102651137Y-75209759D01*
X102802986Y-74982500D01*
X109904428Y-74982500D01*
X109907500Y-75596750D01*
X110066250Y-75755500D01*
X111315500Y-75755500D01*
X111315500Y-74506250D01*
X111156750Y-74347500D01*
X110542500Y-74344428D01*
X110418018Y-74356688D01*
X110298320Y-74392998D01*
X110188006Y-74451963D01*
X110091315Y-74531315D01*
X110011963Y-74628006D01*
X109952998Y-74738320D01*
X109916688Y-74858018D01*
X109904428Y-74982500D01*
X102802986Y-74982500D01*
X102808180Y-74974727D01*
X102916353Y-74713574D01*
X102971500Y-74436335D01*
X102971500Y-74153665D01*
X102916353Y-73876426D01*
X102808180Y-73615273D01*
X102651137Y-73380241D01*
X102451259Y-73180363D01*
X102216227Y-73023320D01*
X101955074Y-72915147D01*
X101677835Y-72860000D01*
X101395165Y-72860000D01*
X101117926Y-72915147D01*
X100856773Y-73023320D01*
X100621741Y-73180363D01*
X100421863Y-73380241D01*
X100264820Y-73615273D01*
X100156647Y-73876426D01*
X100101500Y-74153665D01*
X95565944Y-74153665D01*
X96624703Y-72565527D01*
X96641967Y-72539742D01*
X96642268Y-72539179D01*
X96642636Y-72538628D01*
X96657778Y-72510228D01*
X97581144Y-70786612D01*
X97583876Y-70783200D01*
X97611808Y-70729373D01*
X97625085Y-70704590D01*
X97626752Y-70700575D01*
X97628754Y-70696718D01*
X97639196Y-70670612D01*
X97662455Y-70614609D01*
X97663311Y-70610325D01*
X97871575Y-70089665D01*
X106070500Y-70089665D01*
X106070500Y-70372335D01*
X106125647Y-70649574D01*
X106233820Y-70910727D01*
X106390863Y-71145759D01*
X106590741Y-71345637D01*
X106825773Y-71502680D01*
X107086926Y-71610853D01*
X107364165Y-71666000D01*
X107646835Y-71666000D01*
X107924074Y-71610853D01*
X108185227Y-71502680D01*
X108420259Y-71345637D01*
X108620137Y-71145759D01*
X108777180Y-70910727D01*
X108885353Y-70649574D01*
X108940500Y-70372335D01*
X108940500Y-70089665D01*
X108885353Y-69812426D01*
X108777180Y-69551273D01*
X108620137Y-69316241D01*
X108420259Y-69116363D01*
X108185227Y-68959320D01*
X107924074Y-68851147D01*
X107646835Y-68796000D01*
X107364165Y-68796000D01*
X107086926Y-68851147D01*
X106825773Y-68959320D01*
X106590741Y-69116363D01*
X106390863Y-69316241D01*
X106233820Y-69551273D01*
X106125647Y-69812426D01*
X106070500Y-70089665D01*
X97871575Y-70089665D01*
X98138392Y-69422624D01*
X98140370Y-69418684D01*
X98150430Y-69392529D01*
X98160834Y-69366518D01*
X98162062Y-69362285D01*
X98448416Y-68617765D01*
X98550820Y-68672502D01*
X98670518Y-68708812D01*
X98795000Y-68721072D01*
X99409250Y-68718000D01*
X99568000Y-68559250D01*
X99568000Y-67310000D01*
X99548000Y-67310000D01*
X99548000Y-67056000D01*
X99568000Y-67056000D01*
X99568000Y-65806750D01*
X99822000Y-65806750D01*
X99822000Y-67056000D01*
X99842000Y-67056000D01*
X99842000Y-67310000D01*
X99822000Y-67310000D01*
X99822000Y-68559250D01*
X99980750Y-68718000D01*
X100595000Y-68721072D01*
X100719482Y-68708812D01*
X100839180Y-68672502D01*
X100949494Y-68613537D01*
X101046185Y-68534185D01*
X101125537Y-68437494D01*
X101184502Y-68327180D01*
X101190056Y-68308873D01*
X101256495Y-68375312D01*
X101507905Y-68543299D01*
X101787257Y-68659011D01*
X102083816Y-68718000D01*
X102386184Y-68718000D01*
X102682743Y-68659011D01*
X102962095Y-68543299D01*
X103213505Y-68375312D01*
X103427312Y-68161505D01*
X103595299Y-67910095D01*
X103711011Y-67630743D01*
X103770000Y-67334184D01*
X103770000Y-67031816D01*
X103711011Y-66735257D01*
X103595299Y-66455905D01*
X103427312Y-66204495D01*
X103213505Y-65990688D01*
X102962095Y-65822701D01*
X102682743Y-65706989D01*
X102386184Y-65648000D01*
X102083816Y-65648000D01*
X101787257Y-65706989D01*
X101507905Y-65822701D01*
X101256495Y-65990688D01*
X101190056Y-66057127D01*
X101184502Y-66038820D01*
X101125537Y-65928506D01*
X101046185Y-65831815D01*
X100949494Y-65752463D01*
X100839180Y-65693498D01*
X100719482Y-65657188D01*
X100595000Y-65644928D01*
X99980750Y-65648000D01*
X99822000Y-65806750D01*
X99568000Y-65806750D01*
X99409250Y-65648000D01*
X99319115Y-65647549D01*
X99768436Y-63513273D01*
X99774554Y-63486042D01*
X99775100Y-63481618D01*
X99776021Y-63477244D01*
X99779072Y-63449450D01*
X100213613Y-59929665D01*
X106070500Y-59929665D01*
X106070500Y-60212335D01*
X106125647Y-60489574D01*
X106233820Y-60750727D01*
X106390863Y-60985759D01*
X106590741Y-61185637D01*
X106825773Y-61342680D01*
X107086926Y-61450853D01*
X107364165Y-61506000D01*
X107646835Y-61506000D01*
X107924074Y-61450853D01*
X108185227Y-61342680D01*
X108420259Y-61185637D01*
X108620137Y-60985759D01*
X108777180Y-60750727D01*
X108885353Y-60489574D01*
X108940500Y-60212335D01*
X108940500Y-59929665D01*
X108885353Y-59652426D01*
X108777180Y-59391273D01*
X108620137Y-59156241D01*
X108420259Y-58956363D01*
X108185227Y-58799320D01*
X107924074Y-58691147D01*
X107646835Y-58636000D01*
X107364165Y-58636000D01*
X107086926Y-58691147D01*
X106825773Y-58799320D01*
X106590741Y-58956363D01*
X106390863Y-59156241D01*
X106233820Y-59391273D01*
X106125647Y-59652426D01*
X106070500Y-59929665D01*
X100213613Y-59929665D01*
X100408872Y-58348072D01*
X100892163Y-56354500D01*
X101368347Y-55342609D01*
X101856478Y-54366348D01*
X101906037Y-54289757D01*
X101903428Y-54811500D01*
X101915688Y-54935982D01*
X101951998Y-55055680D01*
X102010963Y-55165994D01*
X102090315Y-55262685D01*
X102187006Y-55342037D01*
X102297320Y-55401002D01*
X102417018Y-55437312D01*
X102541500Y-55449572D01*
X103155750Y-55446500D01*
X103314500Y-55287750D01*
X103314500Y-54038500D01*
X103294500Y-54038500D01*
X103294500Y-53784500D01*
X103314500Y-53784500D01*
X103314500Y-53764500D01*
X103568500Y-53764500D01*
X103568500Y-53784500D01*
G37*
X103568500Y-53784500D02*
X103588500Y-53784500D01*
X103588500Y-54038500D01*
X103568500Y-54038500D01*
X103568500Y-55287750D01*
X103727250Y-55446500D01*
X104341500Y-55449572D01*
X104465982Y-55437312D01*
X104585680Y-55401002D01*
X104695994Y-55342037D01*
X104792685Y-55262685D01*
X104872037Y-55165994D01*
X104931002Y-55055680D01*
X104936556Y-55037373D01*
X105002995Y-55103812D01*
X105254405Y-55271799D01*
X105533757Y-55387511D01*
X105830316Y-55446500D01*
X106132684Y-55446500D01*
X106429243Y-55387511D01*
X106708595Y-55271799D01*
X106960005Y-55103812D01*
X107173812Y-54890005D01*
X107341799Y-54638595D01*
X107457511Y-54359243D01*
X107516500Y-54062684D01*
X107516500Y-53877719D01*
X107673387Y-53989782D01*
X107970272Y-54237187D01*
X108195008Y-54551816D01*
X108468292Y-55207699D01*
X108886949Y-56702902D01*
X109007783Y-57850818D01*
X109134345Y-59179723D01*
X109195201Y-59849149D01*
X109195233Y-59853851D01*
X109198136Y-59881432D01*
X109200646Y-59909039D01*
X109201528Y-59913655D01*
X109322656Y-61064369D01*
X109322733Y-61068418D01*
X109326054Y-61096645D01*
X109329021Y-61124833D01*
X109329835Y-61128789D01*
X109452833Y-62174265D01*
X109455459Y-62200647D01*
X109456619Y-62206447D01*
X109457309Y-62212312D01*
X109462966Y-62238182D01*
X109650844Y-63177568D01*
X109836937Y-64232097D01*
X109838684Y-64246527D01*
X109842567Y-64263999D01*
X109845677Y-64281624D01*
X109849594Y-64295622D01*
X109966764Y-64822886D01*
X109967439Y-64827832D01*
X109973807Y-64854577D01*
X109979750Y-64881321D01*
X109981300Y-64886048D01*
X110288354Y-66175675D01*
X110290989Y-66190144D01*
X110295850Y-66207157D01*
X110299957Y-66224407D01*
X110304759Y-66238338D01*
X110546185Y-67083331D01*
X110547020Y-67087597D01*
X110555081Y-67114467D01*
X110562801Y-67141487D01*
X110564402Y-67145536D01*
X110740397Y-67732188D01*
X110742618Y-67741954D01*
X110749710Y-67763231D01*
X110756151Y-67784700D01*
X110759953Y-67793960D01*
X111000490Y-68515572D01*
X111003640Y-68527386D01*
X111010729Y-68546291D01*
X111017121Y-68565466D01*
X111022111Y-68576643D01*
X111389992Y-69557658D01*
X111394594Y-69572188D01*
X111401369Y-69587996D01*
X111407406Y-69604095D01*
X111414128Y-69617768D01*
X111977722Y-70932820D01*
X111989020Y-70959861D01*
X111990445Y-70962508D01*
X111991635Y-70965284D01*
X112005839Y-70991096D01*
X112437473Y-71792703D01*
X112440876Y-71800304D01*
X112452828Y-71821221D01*
X112464259Y-71842449D01*
X112468911Y-71849365D01*
X112933193Y-72661860D01*
X112933505Y-72662783D01*
X112965330Y-72718100D01*
X112981044Y-72745599D01*
X112981610Y-72746396D01*
X112982093Y-72747236D01*
X113000367Y-72772819D01*
X113037443Y-72825049D01*
X113038153Y-72825720D01*
X113317685Y-73217064D01*
X114118409Y-74347500D01*
X113831316Y-74347500D01*
X113534757Y-74406489D01*
X113255405Y-74522201D01*
X113003995Y-74690188D01*
X112937556Y-74756627D01*
X112932002Y-74738320D01*
X112873037Y-74628006D01*
X112793685Y-74531315D01*
X112696994Y-74451963D01*
X112586680Y-74392998D01*
X112466982Y-74356688D01*
X112342500Y-74344428D01*
X111728250Y-74347500D01*
X111569500Y-74506250D01*
X111569500Y-75755500D01*
X111589500Y-75755500D01*
X111589500Y-76009500D01*
X111569500Y-76009500D01*
X111569500Y-77258750D01*
X111728250Y-77417500D01*
X112342500Y-77420572D01*
X112466982Y-77408312D01*
X112586680Y-77372002D01*
X112696994Y-77313037D01*
X112793685Y-77233685D01*
X112873037Y-77136994D01*
X112932002Y-77026680D01*
X112937556Y-77008373D01*
X113003995Y-77074812D01*
X113255405Y-77242799D01*
X113534757Y-77358511D01*
X113831316Y-77417500D01*
X114133684Y-77417500D01*
X114430243Y-77358511D01*
X114709595Y-77242799D01*
X114961005Y-77074812D01*
X115174812Y-76861005D01*
X115342799Y-76609595D01*
X115458511Y-76330243D01*
X115517500Y-76033684D01*
X115517500Y-75874381D01*
X115570733Y-75927614D01*
X115570739Y-75927619D01*
X115766124Y-76123003D01*
X115774724Y-76134730D01*
X115812022Y-76168901D01*
X115824734Y-76181613D01*
X115835898Y-76190775D01*
X115846565Y-76200548D01*
X115860967Y-76211350D01*
X115900050Y-76243425D01*
X115912872Y-76250278D01*
X116626266Y-76785324D01*
X117217349Y-77258191D01*
X117230451Y-77272056D01*
X117267990Y-77298704D01*
X117278516Y-77307125D01*
X117294431Y-77317474D01*
X117309901Y-77328456D01*
X117321594Y-77335138D01*
X117360198Y-77360241D01*
X117377918Y-77367323D01*
X118206136Y-77840590D01*
X118213051Y-77845241D01*
X118234280Y-77856672D01*
X118255196Y-77868624D01*
X118262797Y-77872027D01*
X118978614Y-78257468D01*
X118964576Y-78285544D01*
X118760400Y-78489720D01*
X118397689Y-78625737D01*
X118288604Y-78662098D01*
X117759590Y-78715000D01*
X116950398Y-78715000D01*
X116146659Y-78600180D01*
X115242871Y-78359169D01*
X115191383Y-78343550D01*
X115147796Y-78339257D01*
X115104582Y-78332176D01*
X115083244Y-78332900D01*
X115062000Y-78330808D01*
X115018413Y-78335101D01*
X114974649Y-78336586D01*
X114953871Y-78341457D01*
X114932618Y-78343550D01*
X114890698Y-78356266D01*
X114848073Y-78366259D01*
X114828640Y-78375092D01*
X114808208Y-78381290D01*
X114769581Y-78401936D01*
X114729717Y-78420056D01*
X114712381Y-78432510D01*
X114693551Y-78442575D01*
X114659694Y-78470361D01*
X114624130Y-78495910D01*
X114587408Y-78535212D01*
X114538142Y-78584478D01*
X114497489Y-78622976D01*
X114473462Y-78656898D01*
X114447075Y-78689050D01*
X114435963Y-78709840D01*
X114422344Y-78729067D01*
X114405394Y-78767031D01*
X114385790Y-78803708D01*
X114378948Y-78826264D01*
X114369341Y-78847781D01*
X114360122Y-78888325D01*
X114348051Y-78928118D01*
X114345741Y-78951570D01*
X114340515Y-78974554D01*
X114339383Y-79016127D01*
X114335308Y-79057500D01*
X114337618Y-79080950D01*
X114336976Y-79104512D01*
X114343976Y-79145509D01*
X114348051Y-79186882D01*
X114354890Y-79209428D01*
X114358858Y-79232666D01*
X114373722Y-79271510D01*
X114385790Y-79311292D01*
X114412189Y-79360681D01*
X114518239Y-79572782D01*
X114527511Y-79598263D01*
X114547237Y-79630777D01*
X114549677Y-79635657D01*
X114564058Y-79658503D01*
X114578049Y-79681564D01*
X114581319Y-79685924D01*
X114601582Y-79718114D01*
X114620231Y-79737807D01*
X115511054Y-80925573D01*
X115511091Y-80925649D01*
X115547746Y-80974495D01*
X115569451Y-81003435D01*
X115569518Y-81003509D01*
X115569572Y-81003580D01*
X115591090Y-81027054D01*
X115635269Y-81075276D01*
X115635343Y-81075330D01*
X116983979Y-82546569D01*
X117000970Y-82565876D01*
X117005862Y-82570442D01*
X117010384Y-82575375D01*
X117029544Y-82592545D01*
X117968482Y-83468888D01*
X117982909Y-83483364D01*
X117992113Y-83490944D01*
X118000869Y-83499116D01*
X118017171Y-83511580D01*
X119069527Y-84378227D01*
X119076210Y-84384569D01*
X119094534Y-84398821D01*
X119112458Y-84413582D01*
X119120113Y-84418716D01*
X119625755Y-84811994D01*
X119628923Y-84815550D01*
X119676976Y-84851832D01*
X119698888Y-84868875D01*
X119702902Y-84871408D01*
X119706681Y-84874261D01*
X119730313Y-84888703D01*
X119781290Y-84920867D01*
X119785741Y-84922576D01*
X120867765Y-85583812D01*
X120885420Y-85595446D01*
X120895381Y-85600689D01*
X120905005Y-85606570D01*
X120924072Y-85615789D01*
X122108859Y-86239363D01*
X122125377Y-86248926D01*
X122137491Y-86254432D01*
X122149295Y-86260645D01*
X122167014Y-86267852D01*
X123533221Y-86888856D01*
X123543728Y-86894444D01*
X123562709Y-86902260D01*
X123581403Y-86910757D01*
X123592673Y-86914598D01*
X124353851Y-87228024D01*
X124296946Y-87356060D01*
X123986633Y-87627585D01*
X123345733Y-87874085D01*
X122450413Y-87986000D01*
X121389587Y-87986000D01*
X119932918Y-87803917D01*
X118468297Y-87498787D01*
X117126410Y-87071823D01*
X116844099Y-86958899D01*
X115603643Y-86400694D01*
X115591218Y-86394246D01*
X115574089Y-86387395D01*
X115557277Y-86379829D01*
X115544019Y-86375366D01*
X115292438Y-86274734D01*
X115281777Y-86268351D01*
X115232173Y-86250629D01*
X115213517Y-86243166D01*
X115201657Y-86239726D01*
X115159347Y-86224609D01*
X115139356Y-86221653D01*
X115119941Y-86216021D01*
X115075171Y-86212162D01*
X115030737Y-86205592D01*
X115010554Y-86206593D01*
X114990414Y-86204857D01*
X114945749Y-86209806D01*
X114900890Y-86212031D01*
X114881293Y-86216949D01*
X114861197Y-86219176D01*
X114818362Y-86232743D01*
X114774792Y-86243677D01*
X114756523Y-86252328D01*
X114737256Y-86258430D01*
X114697896Y-86280090D01*
X114657291Y-86299317D01*
X114641063Y-86311364D01*
X114623354Y-86321109D01*
X114588977Y-86350031D01*
X114552902Y-86376811D01*
X114539333Y-86391796D01*
X114523870Y-86404805D01*
X114495795Y-86439877D01*
X114465638Y-86473181D01*
X114455257Y-86490518D01*
X114442624Y-86506300D01*
X114421931Y-86546177D01*
X114398851Y-86584723D01*
X114392050Y-86603758D01*
X114382741Y-86621697D01*
X114370224Y-86664849D01*
X114355109Y-86707153D01*
X114352153Y-86727143D01*
X114346521Y-86746559D01*
X114342662Y-86791329D01*
X114336092Y-86835763D01*
X114337093Y-86855946D01*
X114335357Y-86876086D01*
X114340306Y-86920751D01*
X114342531Y-86965610D01*
X114347449Y-86985207D01*
X114349676Y-87005303D01*
X114363243Y-87048138D01*
X114374177Y-87091708D01*
X114382828Y-87109977D01*
X114388930Y-87129244D01*
X114410590Y-87168606D01*
X114415876Y-87179768D01*
X114426217Y-87197004D01*
X114451609Y-87243146D01*
X114459606Y-87252652D01*
X114619951Y-87519893D01*
X114633093Y-87542736D01*
X114636615Y-87547667D01*
X114639734Y-87552865D01*
X114655442Y-87574025D01*
X114966595Y-88009638D01*
X115534942Y-88830584D01*
X116234080Y-89847516D01*
X116250777Y-89871831D01*
X116250887Y-89871962D01*
X116250998Y-89872123D01*
X116272410Y-89897520D01*
X117276482Y-91089858D01*
X117285541Y-91101843D01*
X117297323Y-91114607D01*
X117308540Y-91127927D01*
X117319323Y-91138440D01*
X118056507Y-91937057D01*
X118064886Y-91947266D01*
X118078475Y-91960855D01*
X118091519Y-91974986D01*
X118101391Y-91983771D01*
X118872733Y-92755114D01*
X118872739Y-92755119D01*
X119158113Y-93040493D01*
X119171290Y-93054752D01*
X119181028Y-93063408D01*
X119190234Y-93072614D01*
X119205230Y-93084921D01*
X119728499Y-93550049D01*
X119737043Y-93560438D01*
X119776984Y-93593147D01*
X119791249Y-93605827D01*
X119802077Y-93613696D01*
X119812424Y-93622170D01*
X119828289Y-93632747D01*
X119870066Y-93663109D01*
X119882286Y-93668745D01*
X120011305Y-93754757D01*
X120796595Y-94358827D01*
X120799565Y-94361548D01*
X120822258Y-94378568D01*
X120844786Y-94395897D01*
X120848211Y-94398032D01*
X121839955Y-95141841D01*
X121863986Y-95160103D01*
X121865760Y-95161194D01*
X121867435Y-95162451D01*
X121893379Y-95178191D01*
X122692653Y-95670052D01*
X122695634Y-95672265D01*
X122720239Y-95687028D01*
X122744705Y-95702084D01*
X122748047Y-95703713D01*
X123938381Y-96417913D01*
X123938973Y-96418448D01*
X123993996Y-96451283D01*
X124021232Y-96467624D01*
X124021953Y-96467965D01*
X124022641Y-96468376D01*
X124051421Y-96481920D01*
X124109291Y-96509323D01*
X124110067Y-96509518D01*
X126209055Y-97497278D01*
X126235983Y-97510184D01*
X126238174Y-97510981D01*
X126240306Y-97511984D01*
X126268721Y-97522089D01*
X126936902Y-97765064D01*
X126939237Y-97766161D01*
X126967398Y-97776153D01*
X126995416Y-97786342D01*
X126997910Y-97786980D01*
X128409598Y-98287902D01*
X128309448Y-98468172D01*
X128061019Y-98716601D01*
X127497545Y-99023951D01*
X127216787Y-99117537D01*
X126601258Y-99229452D01*
X124777500Y-99351036D01*
X123881516Y-99291303D01*
X122699724Y-99166904D01*
X121428297Y-98985271D01*
X121414383Y-98981050D01*
X121364049Y-98976093D01*
X121346244Y-98973549D01*
X121331811Y-98972918D01*
X121317419Y-98971500D01*
X121299414Y-98971500D01*
X121248905Y-98969290D01*
X121234539Y-98971500D01*
X121039952Y-98971500D01*
X120983988Y-98969976D01*
X120943006Y-98976974D01*
X120901617Y-98981050D01*
X120879064Y-98987892D01*
X120855834Y-98991858D01*
X120817000Y-99006719D01*
X120777207Y-99018790D01*
X120756418Y-99029902D01*
X120734412Y-99038323D01*
X120699233Y-99060468D01*
X120662550Y-99080075D01*
X120644328Y-99095029D01*
X120624387Y-99107582D01*
X120594201Y-99136168D01*
X120562052Y-99162552D01*
X120547096Y-99180776D01*
X120529989Y-99196976D01*
X120505963Y-99230896D01*
X120479575Y-99263050D01*
X120468463Y-99283840D01*
X120454844Y-99303067D01*
X120437896Y-99341027D01*
X120418290Y-99377707D01*
X120411446Y-99400268D01*
X120401841Y-99421781D01*
X120392625Y-99462312D01*
X120380550Y-99502117D01*
X120378239Y-99525578D01*
X120373015Y-99548554D01*
X120371883Y-99590112D01*
X120367807Y-99631500D01*
X120370117Y-99654958D01*
X120369476Y-99678512D01*
X120376474Y-99719494D01*
X120380550Y-99760883D01*
X120387392Y-99783436D01*
X120391358Y-99806666D01*
X120406219Y-99845503D01*
X120418290Y-99885293D01*
X120444694Y-99934691D01*
X120479006Y-100003315D01*
X120481525Y-100011651D01*
X120508037Y-100061377D01*
X120518677Y-100082657D01*
X120523288Y-100089982D01*
X120527364Y-100097627D01*
X120540569Y-100117434D01*
X120570582Y-100165113D01*
X120576570Y-100171437D01*
X120654555Y-100288413D01*
X120670075Y-100317450D01*
X120711060Y-100367389D01*
X120752062Y-100417458D01*
X120777493Y-100438373D01*
X121065242Y-100726122D01*
X122066342Y-101789791D01*
X122079948Y-101805321D01*
X122088533Y-101813370D01*
X122096606Y-101821947D01*
X122112175Y-101835534D01*
X123101820Y-102763328D01*
X123107248Y-102769227D01*
X123125414Y-102785447D01*
X123143249Y-102802167D01*
X123149631Y-102807069D01*
X124906354Y-104375573D01*
X124927065Y-104394548D01*
X124930444Y-104397082D01*
X124933611Y-104399910D01*
X124956414Y-104416560D01*
X126462557Y-105546168D01*
X126473553Y-105555396D01*
X126488472Y-105565604D01*
X126502935Y-105576451D01*
X126515210Y-105583898D01*
X127696335Y-106392037D01*
X127712134Y-106403765D01*
X127723043Y-106410310D01*
X127733564Y-106417509D01*
X127750847Y-106426993D01*
X129315169Y-107365587D01*
X129330269Y-107375562D01*
X129342941Y-107382250D01*
X129355231Y-107389624D01*
X129371593Y-107397372D01*
X131640730Y-108594972D01*
X131665011Y-108608238D01*
X131669403Y-108610104D01*
X131673610Y-108612325D01*
X131699162Y-108622752D01*
X134229385Y-109698096D01*
X134253535Y-109708879D01*
X134259196Y-109710766D01*
X134264683Y-109713098D01*
X134289917Y-109721006D01*
X135968032Y-110280378D01*
X135968035Y-110280379D01*
X136629959Y-110501020D01*
X136603505Y-110580386D01*
X136520030Y-110789074D01*
X136349963Y-111001657D01*
X136015980Y-111335640D01*
X135697182Y-111601306D01*
X135458059Y-111744780D01*
X134975821Y-111959108D01*
X134544283Y-112066992D01*
X133898365Y-112184432D01*
X132433559Y-112306500D01*
X131391490Y-112306500D01*
X129339743Y-112244326D01*
X127485500Y-111997093D01*
X126495926Y-111811547D01*
X125079465Y-111503621D01*
X124381962Y-111271121D01*
X124352219Y-111257841D01*
X124320456Y-111250619D01*
X124320454Y-111250618D01*
X124225446Y-111229015D01*
X124095487Y-111225476D01*
X124095486Y-111225476D01*
X123967334Y-111247359D01*
X123876336Y-111282180D01*
X123876329Y-111282183D01*
X123845912Y-111293823D01*
X123818348Y-111311174D01*
X123770685Y-111335006D01*
X123762349Y-111337525D01*
X123712633Y-111364032D01*
X123691343Y-111374677D01*
X123684013Y-111379291D01*
X123647627Y-111398691D01*
X123629127Y-111413841D01*
X123608887Y-111426582D01*
X123578947Y-111454935D01*
X123547043Y-111481062D01*
X123531851Y-111499535D01*
X123514489Y-111515976D01*
X123490654Y-111549626D01*
X123464462Y-111581474D01*
X123453168Y-111602550D01*
X123439344Y-111622067D01*
X123422534Y-111659717D01*
X123403056Y-111696066D01*
X123396089Y-111718948D01*
X123386341Y-111740781D01*
X123377198Y-111780990D01*
X123365187Y-111820438D01*
X123362818Y-111844230D01*
X123357515Y-111867554D01*
X123356392Y-111908780D01*
X123352308Y-111949807D01*
X123354627Y-111973606D01*
X123353976Y-111997512D01*
X123360918Y-112038166D01*
X123364916Y-112079201D01*
X123371832Y-112102085D01*
X123375858Y-112125666D01*
X123390599Y-112164186D01*
X123402525Y-112203651D01*
X123413777Y-112224755D01*
X123422323Y-112247088D01*
X123444287Y-112281980D01*
X123448364Y-112289627D01*
X123461571Y-112309438D01*
X123491582Y-112357113D01*
X123497570Y-112363437D01*
X123569225Y-112470919D01*
X123578705Y-112490227D01*
X123605198Y-112524878D01*
X123611330Y-112534076D01*
X123624897Y-112550643D01*
X123637884Y-112567629D01*
X123645416Y-112575699D01*
X123673062Y-112609458D01*
X123689681Y-112623126D01*
X124547269Y-113541973D01*
X124567256Y-113563742D01*
X124569266Y-113565541D01*
X124571123Y-113567530D01*
X124593466Y-113587193D01*
X125778087Y-114647118D01*
X125782076Y-114651313D01*
X125802192Y-114668686D01*
X125822075Y-114686476D01*
X125826764Y-114689907D01*
X127191916Y-115868903D01*
X127204210Y-115880569D01*
X127216428Y-115890072D01*
X127228146Y-115900192D01*
X127242003Y-115909964D01*
X128357862Y-116777854D01*
X128368003Y-116786720D01*
X128383415Y-116797729D01*
X128398389Y-116809375D01*
X128409798Y-116816573D01*
X130157818Y-118065161D01*
X130169127Y-118074204D01*
X130184147Y-118083967D01*
X130198763Y-118094407D01*
X130211344Y-118101645D01*
X131451511Y-118907755D01*
X131463424Y-118916439D01*
X131478653Y-118925397D01*
X131493488Y-118935040D01*
X131506594Y-118941833D01*
X133644502Y-120199426D01*
X133666239Y-120212827D01*
X133672393Y-120215833D01*
X133678310Y-120219313D01*
X133701540Y-120230067D01*
X134305450Y-120525000D01*
X110654322Y-120525000D01*
X110616999Y-120521324D01*
X110579676Y-120525000D01*
X110579667Y-120525000D01*
X110468014Y-120535997D01*
X110324753Y-120579454D01*
X110192724Y-120650026D01*
X110117037Y-120712141D01*
X109932835Y-120675500D01*
X109650165Y-120675500D01*
X109372926Y-120730647D01*
X109111773Y-120838820D01*
X108876741Y-120995863D01*
X108676863Y-121195741D01*
X108519820Y-121430773D01*
X108411647Y-121691926D01*
X108356500Y-121969165D01*
X108356500Y-122251835D01*
X108411647Y-122529074D01*
X108519820Y-122790227D01*
X108676863Y-123025259D01*
X108876741Y-123225137D01*
X109111773Y-123382180D01*
X109372926Y-123490353D01*
X109650165Y-123545500D01*
X109932835Y-123545500D01*
X110210074Y-123490353D01*
X110471227Y-123382180D01*
X110706259Y-123225137D01*
X110906137Y-123025259D01*
X111063180Y-122790227D01*
X111171353Y-122529074D01*
X111226500Y-122251835D01*
X111226500Y-122045000D01*
X134940199Y-122045000D01*
X135574500Y-122679302D01*
X135574501Y-123883687D01*
X135355995Y-124029688D01*
X135289556Y-124096127D01*
X135284002Y-124077820D01*
X135225037Y-123967506D01*
X135145685Y-123870815D01*
X135048994Y-123791463D01*
X134938680Y-123732498D01*
X134818982Y-123696188D01*
X134694500Y-123683928D01*
X134080250Y-123687000D01*
X133921500Y-123845750D01*
X133921500Y-125095000D01*
X133941500Y-125095000D01*
X133941500Y-125349000D01*
X133921500Y-125349000D01*
X133921500Y-126598250D01*
X134080250Y-126757000D01*
X134694500Y-126760072D01*
X134818982Y-126747812D01*
X134938680Y-126711502D01*
X135048994Y-126652537D01*
X135145685Y-126573185D01*
X135225037Y-126476494D01*
X135284002Y-126366180D01*
X135289556Y-126347873D01*
X135355995Y-126414312D01*
X135607405Y-126582299D01*
X135886757Y-126698011D01*
X136183316Y-126757000D01*
X136485684Y-126757000D01*
X136782243Y-126698011D01*
X137061595Y-126582299D01*
X137313005Y-126414312D01*
X137526812Y-126200505D01*
X137694799Y-125949095D01*
X137810511Y-125669743D01*
X137869500Y-125373184D01*
X137869500Y-125070816D01*
X137810511Y-124774257D01*
X137694799Y-124494905D01*
X137526812Y-124243495D01*
X137313005Y-124029688D01*
X137094500Y-123883687D01*
X137094500Y-122401833D01*
X137098177Y-122364500D01*
X137083503Y-122215514D01*
X137040046Y-122072253D01*
X136969474Y-121940224D01*
X136902816Y-121859001D01*
X136874501Y-121824499D01*
X136845504Y-121800702D01*
X136736645Y-121691843D01*
X139184036Y-122716333D01*
X139206535Y-122726379D01*
X139213892Y-122728831D01*
X139221053Y-122731829D01*
X139244635Y-122739079D01*
X141690944Y-123554515D01*
X141698632Y-123557718D01*
X141721672Y-123564758D01*
X141744544Y-123572382D01*
X141752671Y-123574230D01*
X143995992Y-124259690D01*
X144038949Y-124275798D01*
X143943868Y-124465959D01*
X143750770Y-124803881D01*
X143180038Y-125322729D01*
X142199573Y-125899473D01*
X141191333Y-126314631D01*
X139606866Y-126802159D01*
X138976514Y-126916769D01*
X138974165Y-126916978D01*
X138944593Y-126922573D01*
X138915040Y-126927946D01*
X138912776Y-126928592D01*
X136615925Y-127363132D01*
X133932784Y-127675125D01*
X130986487Y-127800500D01*
X126761685Y-127800500D01*
X125474319Y-127739197D01*
X125472366Y-127738922D01*
X125441815Y-127737649D01*
X125411511Y-127736206D01*
X125409557Y-127736305D01*
X123932140Y-127674746D01*
X123254416Y-127613135D01*
X122080155Y-127489528D01*
X122075539Y-127488646D01*
X122047932Y-127486136D01*
X122020351Y-127483233D01*
X122015649Y-127483201D01*
X121372466Y-127424730D01*
X121367943Y-127423931D01*
X121340182Y-127421796D01*
X121312467Y-127419276D01*
X121307876Y-127419310D01*
X120551989Y-127361165D01*
X120529462Y-127356508D01*
X120487331Y-127356191D01*
X120477796Y-127355458D01*
X120454909Y-127355948D01*
X120432031Y-127355776D01*
X120422513Y-127356641D01*
X120380386Y-127357543D01*
X120357925Y-127362513D01*
X119668961Y-127425146D01*
X119668960Y-127425146D01*
X118305609Y-127549087D01*
X116850525Y-127675616D01*
X115142535Y-127802135D01*
X115112474Y-127804151D01*
X115110203Y-127804530D01*
X115107915Y-127804699D01*
X115078317Y-127809844D01*
X114717241Y-127870023D01*
X113629445Y-127990889D01*
X113602020Y-127990805D01*
X113565011Y-127998049D01*
X113559895Y-127998617D01*
X113533176Y-128004280D01*
X113506401Y-128009520D01*
X113501476Y-128010998D01*
X113464579Y-128018817D01*
X113439372Y-128029629D01*
X112879391Y-128197623D01*
X112855502Y-128201677D01*
X112817286Y-128216255D01*
X112809299Y-128218651D01*
X112786985Y-128227813D01*
X112734032Y-128248013D01*
X112726930Y-128252473D01*
X112719169Y-128255660D01*
X112671938Y-128287010D01*
X112623936Y-128317157D01*
X112617838Y-128322920D01*
X112610850Y-128327558D01*
X112570649Y-128367513D01*
X112529444Y-128406451D01*
X112524589Y-128413291D01*
X112518639Y-128419204D01*
X112487006Y-128466233D01*
X112473044Y-128485902D01*
X112468906Y-128493143D01*
X112446079Y-128527081D01*
X112436738Y-128549437D01*
X112218874Y-128930700D01*
X112199844Y-128957567D01*
X112173389Y-129016817D01*
X112147060Y-129075623D01*
X112139728Y-129107713D01*
X111654581Y-130563157D01*
X111643940Y-130585561D01*
X111634074Y-130624678D01*
X111631618Y-130632046D01*
X111626146Y-130656110D01*
X111620112Y-130680035D01*
X111618960Y-130687714D01*
X111610015Y-130727054D01*
X111609340Y-130751850D01*
X111425567Y-131976997D01*
X111421119Y-132003751D01*
X111420771Y-132008968D01*
X111419993Y-132014156D01*
X111418614Y-132041330D01*
X111358647Y-132940835D01*
X111355053Y-132957581D01*
X111354331Y-133005563D01*
X111353306Y-133020945D01*
X111353844Y-133037967D01*
X111353588Y-133055002D01*
X111354869Y-133070370D01*
X111356385Y-133118329D01*
X111360256Y-133135014D01*
X111480555Y-134578606D01*
X111480033Y-134610787D01*
X111485941Y-134643227D01*
X111485973Y-134643617D01*
X111491762Y-134675195D01*
X111497489Y-134706644D01*
X111497596Y-134707018D01*
X111503542Y-134739453D01*
X111515411Y-134769373D01*
X111886902Y-136069591D01*
X111895127Y-136098999D01*
X111895796Y-136100719D01*
X111896301Y-136102487D01*
X111907497Y-136130807D01*
X112331648Y-137221482D01*
X112881920Y-139850559D01*
X112882829Y-139866338D01*
X112895211Y-139914056D01*
X112898640Y-139930441D01*
X112903355Y-139945442D01*
X112907300Y-139960648D01*
X112913067Y-139976348D01*
X112927852Y-140023392D01*
X112935443Y-140037258D01*
X114053549Y-143080995D01*
X114056166Y-143090017D01*
X114064705Y-143111364D01*
X114072656Y-143133009D01*
X114076756Y-143141492D01*
X114557475Y-144343289D01*
X114560765Y-144357473D01*
X114581568Y-144403524D01*
X114588246Y-144420218D01*
X114594918Y-144433075D01*
X114614288Y-144475953D01*
X114624799Y-144490656D01*
X114633125Y-144506700D01*
X114662532Y-144543437D01*
X114670952Y-144555215D01*
X114682786Y-144568740D01*
X114714369Y-144608195D01*
X114725513Y-144617570D01*
X115563868Y-145575692D01*
X115586811Y-145606598D01*
X115630570Y-145646223D01*
X115673686Y-145686695D01*
X115678758Y-145689857D01*
X115683181Y-145693862D01*
X115733852Y-145724202D01*
X115784012Y-145755471D01*
X115789599Y-145757581D01*
X115794723Y-145760649D01*
X115850339Y-145780520D01*
X115905636Y-145801403D01*
X115943629Y-145807719D01*
X117386112Y-146168340D01*
X117392938Y-146171379D01*
X117449109Y-146184089D01*
X117473377Y-146190156D01*
X117480721Y-146191242D01*
X117487969Y-146192882D01*
X117512807Y-146195987D01*
X117569762Y-146204409D01*
X117577224Y-146204039D01*
X118243323Y-146287301D01*
X118814778Y-147112736D01*
X118749920Y-147064359D01*
X118487099Y-146939175D01*
X118339890Y-146894524D01*
X118110000Y-147015845D01*
X118110000Y-148209000D01*
X118130000Y-148209000D01*
X118130000Y-148463000D01*
X118110000Y-148463000D01*
X118110000Y-149656155D01*
X118339890Y-149777476D01*
X118487099Y-149732825D01*
X118749920Y-149607641D01*
X118983269Y-149433588D01*
X119101001Y-149302976D01*
X119101000Y-150914500D01*
X106324000Y-150914500D01*
X106324000Y-147486000D01*
X106334928Y-147486000D01*
X106334928Y-149186000D01*
X106347188Y-149310482D01*
X106383498Y-149430180D01*
X106442463Y-149540494D01*
X106521815Y-149637185D01*
X106618506Y-149716537D01*
X106728820Y-149775502D01*
X106848518Y-149811812D01*
X106973000Y-149824072D01*
X108673000Y-149824072D01*
X108797482Y-149811812D01*
X108917180Y-149775502D01*
X109027494Y-149716537D01*
X109124185Y-149637185D01*
X109203537Y-149540494D01*
X109262502Y-149430180D01*
X109284513Y-149357620D01*
X109416368Y-149489475D01*
X109659589Y-149651990D01*
X109929842Y-149763932D01*
X110216740Y-149821000D01*
X110509260Y-149821000D01*
X110796158Y-149763932D01*
X111066411Y-149651990D01*
X111309632Y-149489475D01*
X111516475Y-149282632D01*
X111633000Y-149108240D01*
X111749525Y-149282632D01*
X111956368Y-149489475D01*
X112199589Y-149651990D01*
X112469842Y-149763932D01*
X112756740Y-149821000D01*
X113049260Y-149821000D01*
X113336158Y-149763932D01*
X113606411Y-149651990D01*
X113849632Y-149489475D01*
X114056475Y-149282632D01*
X114173000Y-149108240D01*
X114289525Y-149282632D01*
X114496368Y-149489475D01*
X114739589Y-149651990D01*
X115009842Y-149763932D01*
X115296740Y-149821000D01*
X115589260Y-149821000D01*
X115876158Y-149763932D01*
X116146411Y-149651990D01*
X116389632Y-149489475D01*
X116596475Y-149282632D01*
X116718195Y-149100466D01*
X116787822Y-149217355D01*
X116982731Y-149433588D01*
X117216080Y-149607641D01*
X117478901Y-149732825D01*
X117626110Y-149777476D01*
X117856000Y-149656155D01*
X117856000Y-148463000D01*
X117836000Y-148463000D01*
X117836000Y-148209000D01*
X117856000Y-148209000D01*
X117856000Y-147015845D01*
X117626110Y-146894524D01*
X117478901Y-146939175D01*
X117216080Y-147064359D01*
X116982731Y-147238412D01*
X116787822Y-147454645D01*
X116718195Y-147571534D01*
X116596475Y-147389368D01*
X116389632Y-147182525D01*
X116146411Y-147020010D01*
X115876158Y-146908068D01*
X115589260Y-146851000D01*
X115296740Y-146851000D01*
X115009842Y-146908068D01*
X114739589Y-147020010D01*
X114496368Y-147182525D01*
X114289525Y-147389368D01*
X114173000Y-147563760D01*
X114056475Y-147389368D01*
X113849632Y-147182525D01*
X113606411Y-147020010D01*
X113336158Y-146908068D01*
X113049260Y-146851000D01*
X112756740Y-146851000D01*
X112469842Y-146908068D01*
X112199589Y-147020010D01*
X111956368Y-147182525D01*
X111749525Y-147389368D01*
X111633000Y-147563760D01*
X111516475Y-147389368D01*
X111309632Y-147182525D01*
X111066411Y-147020010D01*
X110796158Y-146908068D01*
X110509260Y-146851000D01*
X110216740Y-146851000D01*
X109929842Y-146908068D01*
X109659589Y-147020010D01*
X109416368Y-147182525D01*
X109284513Y-147314380D01*
X109262502Y-147241820D01*
X109203537Y-147131506D01*
X109124185Y-147034815D01*
X109027494Y-146955463D01*
X108917180Y-146896498D01*
X108797482Y-146860188D01*
X108673000Y-146847928D01*
X106973000Y-146847928D01*
X106848518Y-146860188D01*
X106728820Y-146896498D01*
X106618506Y-146955463D01*
X106521815Y-147034815D01*
X106442463Y-147131506D01*
X106383498Y-147241820D01*
X106347188Y-147361518D01*
X106334928Y-147486000D01*
X106324000Y-147486000D01*
X106324000Y-132129165D01*
X108356500Y-132129165D01*
X108356500Y-132411835D01*
X108411647Y-132689074D01*
X108519820Y-132950227D01*
X108676863Y-133185259D01*
X108876741Y-133385137D01*
X109111773Y-133542180D01*
X109372926Y-133650353D01*
X109650165Y-133705500D01*
X109932835Y-133705500D01*
X110210074Y-133650353D01*
X110471227Y-133542180D01*
X110706259Y-133385137D01*
X110906137Y-133185259D01*
X111063180Y-132950227D01*
X111171353Y-132689074D01*
X111226500Y-132411835D01*
X111226500Y-132129165D01*
X111171353Y-131851926D01*
X111063180Y-131590773D01*
X110906137Y-131355741D01*
X110706259Y-131155863D01*
X110471227Y-130998820D01*
X110210074Y-130890647D01*
X109932835Y-130835500D01*
X109650165Y-130835500D01*
X109372926Y-130890647D01*
X109111773Y-130998820D01*
X108876741Y-131155863D01*
X108676863Y-131355741D01*
X108519820Y-131590773D01*
X108411647Y-131851926D01*
X108356500Y-132129165D01*
X106324000Y-132129165D01*
X106324000Y-124993061D01*
X107550000Y-124993061D01*
X107550000Y-125196939D01*
X107589774Y-125396898D01*
X107667795Y-125585256D01*
X107781063Y-125754774D01*
X107925226Y-125898937D01*
X108094744Y-126012205D01*
X108283102Y-126090226D01*
X108483061Y-126130000D01*
X108686939Y-126130000D01*
X108886898Y-126090226D01*
X109075256Y-126012205D01*
X109244774Y-125898937D01*
X109288711Y-125855000D01*
X115389027Y-125855000D01*
X115534863Y-126073259D01*
X115734741Y-126273137D01*
X115969773Y-126430180D01*
X116230926Y-126538353D01*
X116508165Y-126593500D01*
X116790835Y-126593500D01*
X117068074Y-126538353D01*
X117329227Y-126430180D01*
X117564259Y-126273137D01*
X117715396Y-126122000D01*
X132256428Y-126122000D01*
X132268688Y-126246482D01*
X132304998Y-126366180D01*
X132363963Y-126476494D01*
X132443315Y-126573185D01*
X132540006Y-126652537D01*
X132650320Y-126711502D01*
X132770018Y-126747812D01*
X132894500Y-126760072D01*
X133508750Y-126757000D01*
X133667500Y-126598250D01*
X133667500Y-125349000D01*
X132418250Y-125349000D01*
X132259500Y-125507750D01*
X132256428Y-126122000D01*
X117715396Y-126122000D01*
X117764137Y-126073259D01*
X117921180Y-125838227D01*
X118029353Y-125577074D01*
X118084500Y-125299835D01*
X118084500Y-125017165D01*
X118029353Y-124739926D01*
X117921180Y-124478773D01*
X117816428Y-124322000D01*
X132256428Y-124322000D01*
X132259500Y-124936250D01*
X132418250Y-125095000D01*
X133667500Y-125095000D01*
X133667500Y-123845750D01*
X133508750Y-123687000D01*
X132894500Y-123683928D01*
X132770018Y-123696188D01*
X132650320Y-123732498D01*
X132540006Y-123791463D01*
X132443315Y-123870815D01*
X132363963Y-123967506D01*
X132304998Y-124077820D01*
X132268688Y-124197518D01*
X132256428Y-124322000D01*
X117816428Y-124322000D01*
X117764137Y-124243741D01*
X117564259Y-124043863D01*
X117329227Y-123886820D01*
X117068074Y-123778647D01*
X116790835Y-123723500D01*
X116508165Y-123723500D01*
X116230926Y-123778647D01*
X115969773Y-123886820D01*
X115734741Y-124043863D01*
X115534863Y-124243741D01*
X115473886Y-124335000D01*
X109288711Y-124335000D01*
X109244774Y-124291063D01*
X109075256Y-124177795D01*
X108886898Y-124099774D01*
X108686939Y-124060000D01*
X108483061Y-124060000D01*
X108283102Y-124099774D01*
X108094744Y-124177795D01*
X107925226Y-124291063D01*
X107781063Y-124435226D01*
X107667795Y-124604744D01*
X107589774Y-124793102D01*
X107550000Y-124993061D01*
X106324000Y-124993061D01*
X106324000Y-116738061D01*
X107550000Y-116738061D01*
X107550000Y-116941939D01*
X107589774Y-117141898D01*
X107667795Y-117330256D01*
X107781063Y-117499774D01*
X107925226Y-117643937D01*
X108094744Y-117757205D01*
X108283102Y-117835226D01*
X108483061Y-117875000D01*
X108686939Y-117875000D01*
X108886898Y-117835226D01*
X109075256Y-117757205D01*
X109244774Y-117643937D01*
X109288711Y-117600000D01*
X120168178Y-117600000D01*
X120205500Y-117603676D01*
X120242822Y-117600000D01*
X120242833Y-117600000D01*
X120354486Y-117589003D01*
X120497747Y-117545546D01*
X120629776Y-117474974D01*
X120745501Y-117380001D01*
X120769303Y-117350998D01*
X120770613Y-117349688D01*
X120953165Y-117386000D01*
X121235835Y-117386000D01*
X121513074Y-117330853D01*
X121774227Y-117222680D01*
X122009259Y-117065637D01*
X122209137Y-116865759D01*
X122366180Y-116630727D01*
X122474353Y-116369574D01*
X122529500Y-116092335D01*
X122529500Y-115809665D01*
X122474353Y-115532426D01*
X122366180Y-115271273D01*
X122209137Y-115036241D01*
X122009259Y-114836363D01*
X121774227Y-114679320D01*
X121513074Y-114571147D01*
X121235835Y-114516000D01*
X120953165Y-114516000D01*
X120675926Y-114571147D01*
X120414773Y-114679320D01*
X120179741Y-114836363D01*
X119979863Y-115036241D01*
X119822820Y-115271273D01*
X119714647Y-115532426D01*
X119659500Y-115809665D01*
X119659500Y-116080000D01*
X117597396Y-116080000D01*
X117764137Y-115913259D01*
X117921180Y-115678227D01*
X118029353Y-115417074D01*
X118084500Y-115139835D01*
X118084500Y-114857165D01*
X118029353Y-114579926D01*
X117921180Y-114318773D01*
X117764137Y-114083741D01*
X117564259Y-113883863D01*
X117329227Y-113726820D01*
X117068074Y-113618647D01*
X116790835Y-113563500D01*
X116508165Y-113563500D01*
X116230926Y-113618647D01*
X115969773Y-113726820D01*
X115734741Y-113883863D01*
X115534863Y-114083741D01*
X115377820Y-114318773D01*
X115269647Y-114579926D01*
X115214500Y-114857165D01*
X115214500Y-115139835D01*
X115269647Y-115417074D01*
X115377820Y-115678227D01*
X115534863Y-115913259D01*
X115701604Y-116080000D01*
X109288711Y-116080000D01*
X109244774Y-116036063D01*
X109075256Y-115922795D01*
X108886898Y-115844774D01*
X108686939Y-115805000D01*
X108483061Y-115805000D01*
X108283102Y-115844774D01*
X108094744Y-115922795D01*
X107925226Y-116036063D01*
X107781063Y-116180226D01*
X107667795Y-116349744D01*
X107589774Y-116538102D01*
X107550000Y-116738061D01*
X106324000Y-116738061D01*
X106324000Y-109675500D01*
X108126428Y-109675500D01*
X108138688Y-109799982D01*
X108174998Y-109919680D01*
X108233963Y-110029994D01*
X108313315Y-110126685D01*
X108410006Y-110206037D01*
X108520320Y-110265002D01*
X108640018Y-110301312D01*
X108764500Y-110313572D01*
X109378750Y-110310500D01*
X109537500Y-110151750D01*
X109537500Y-108902500D01*
X108288250Y-108902500D01*
X108129500Y-109061250D01*
X108126428Y-109675500D01*
X106324000Y-109675500D01*
X106324000Y-108680919D01*
X106327193Y-108648500D01*
X106314450Y-108519117D01*
X106276710Y-108394707D01*
X106215425Y-108280050D01*
X106132948Y-108179552D01*
X106032450Y-108097075D01*
X105917793Y-108035790D01*
X105793383Y-107998050D01*
X105696419Y-107988500D01*
X105664000Y-107985307D01*
X105631581Y-107988500D01*
X103918419Y-107988500D01*
X103886000Y-107985307D01*
X103853581Y-107988500D01*
X103756617Y-107998050D01*
X103632207Y-108035790D01*
X103517550Y-108097075D01*
X103417052Y-108179552D01*
X103334575Y-108280050D01*
X103273290Y-108394707D01*
X103235550Y-108519117D01*
X103222807Y-108648500D01*
X103226000Y-108680919D01*
X103226001Y-150914500D01*
X90449000Y-150914500D01*
X90449000Y-149318107D01*
X90620368Y-149489475D01*
X90863589Y-149651990D01*
X91133842Y-149763932D01*
X91420740Y-149821000D01*
X91713260Y-149821000D01*
X92000158Y-149763932D01*
X92270411Y-149651990D01*
X92513632Y-149489475D01*
X92720475Y-149282632D01*
X92837000Y-149108240D01*
X92953525Y-149282632D01*
X93160368Y-149489475D01*
X93403589Y-149651990D01*
X93673842Y-149763932D01*
X93960740Y-149821000D01*
X94253260Y-149821000D01*
X94540158Y-149763932D01*
X94810411Y-149651990D01*
X95053632Y-149489475D01*
X95260475Y-149282632D01*
X95377000Y-149108240D01*
X95493525Y-149282632D01*
X95700368Y-149489475D01*
X95943589Y-149651990D01*
X96213842Y-149763932D01*
X96500740Y-149821000D01*
X96793260Y-149821000D01*
X97080158Y-149763932D01*
X97350411Y-149651990D01*
X97593632Y-149489475D01*
X97800475Y-149282632D01*
X97917000Y-149108240D01*
X98033525Y-149282632D01*
X98240368Y-149489475D01*
X98483589Y-149651990D01*
X98753842Y-149763932D01*
X99040740Y-149821000D01*
X99333260Y-149821000D01*
X99620158Y-149763932D01*
X99890411Y-149651990D01*
X100133632Y-149489475D01*
X100265487Y-149357620D01*
X100287498Y-149430180D01*
X100346463Y-149540494D01*
X100425815Y-149637185D01*
X100522506Y-149716537D01*
X100632820Y-149775502D01*
X100752518Y-149811812D01*
X100877000Y-149824072D01*
X102577000Y-149824072D01*
X102701482Y-149811812D01*
X102821180Y-149775502D01*
X102931494Y-149716537D01*
X103028185Y-149637185D01*
X103107537Y-149540494D01*
X103166502Y-149430180D01*
X103202812Y-149310482D01*
X103215072Y-149186000D01*
X103215072Y-147486000D01*
X103202812Y-147361518D01*
X103166502Y-147241820D01*
X103107537Y-147131506D01*
X103028185Y-147034815D01*
X102931494Y-146955463D01*
X102821180Y-146896498D01*
X102701482Y-146860188D01*
X102577000Y-146847928D01*
X100877000Y-146847928D01*
X100752518Y-146860188D01*
X100632820Y-146896498D01*
X100522506Y-146955463D01*
X100425815Y-147034815D01*
X100346463Y-147131506D01*
X100287498Y-147241820D01*
X100265487Y-147314380D01*
X100133632Y-147182525D01*
X99890411Y-147020010D01*
X99620158Y-146908068D01*
X99333260Y-146851000D01*
X99040740Y-146851000D01*
X98753842Y-146908068D01*
X98483589Y-147020010D01*
X98240368Y-147182525D01*
X98033525Y-147389368D01*
X97917000Y-147563760D01*
X97800475Y-147389368D01*
X97593632Y-147182525D01*
X97350411Y-147020010D01*
X97080158Y-146908068D01*
X96793260Y-146851000D01*
X96500740Y-146851000D01*
X96213842Y-146908068D01*
X95943589Y-147020010D01*
X95700368Y-147182525D01*
X95493525Y-147389368D01*
X95377000Y-147563760D01*
X95260475Y-147389368D01*
X95053632Y-147182525D01*
X94810411Y-147020010D01*
X94540158Y-146908068D01*
X94253260Y-146851000D01*
X93960740Y-146851000D01*
X93673842Y-146908068D01*
X93403589Y-147020010D01*
X93160368Y-147182525D01*
X92953525Y-147389368D01*
X92837000Y-147563760D01*
X92720475Y-147389368D01*
X92513632Y-147182525D01*
X92466438Y-147150991D01*
X94010640Y-146831500D01*
X94035135Y-146829495D01*
X94074140Y-146818362D01*
X94081966Y-146816743D01*
X94105316Y-146809464D01*
X94160151Y-146793813D01*
X94167303Y-146790140D01*
X94174984Y-146787746D01*
X94225082Y-146760472D01*
X94275803Y-146734427D01*
X94282103Y-146729428D01*
X94289168Y-146725582D01*
X94332974Y-146689066D01*
X94377648Y-146653620D01*
X94382852Y-146647488D01*
X94389030Y-146642338D01*
X94424869Y-146597979D01*
X94440693Y-146579333D01*
X94445242Y-146572762D01*
X94470733Y-146541211D01*
X94482152Y-146519448D01*
X95003290Y-145766694D01*
X95848362Y-144861261D01*
X95859894Y-144850070D01*
X95870452Y-144837593D01*
X95881616Y-144825631D01*
X95891387Y-144812850D01*
X97248808Y-143208626D01*
X97263718Y-143195214D01*
X97290696Y-143159122D01*
X97298775Y-143149574D01*
X97310117Y-143133140D01*
X97341555Y-143091081D01*
X97346972Y-143079738D01*
X97354118Y-143069384D01*
X97374948Y-143021159D01*
X97397582Y-142973765D01*
X97400684Y-142961575D01*
X97405669Y-142950034D01*
X97416688Y-142898688D01*
X97421611Y-142879341D01*
X97423492Y-142866979D01*
X97432947Y-142822920D01*
X97433248Y-142802866D01*
X97862991Y-139978843D01*
X97866622Y-139967576D01*
X97872754Y-139914687D01*
X97875865Y-139894242D01*
X97876486Y-139882491D01*
X97877843Y-139870791D01*
X97878200Y-139850098D01*
X97881011Y-139796945D01*
X97879318Y-139785230D01*
X97940068Y-136261681D01*
X98334981Y-135133360D01*
X98344567Y-135114452D01*
X98356402Y-135072159D01*
X98360156Y-135061433D01*
X98365141Y-135040928D01*
X98370823Y-135020624D01*
X98372796Y-135009443D01*
X98383174Y-134966758D01*
X98384067Y-134945572D01*
X98560076Y-133948192D01*
X98567450Y-133923883D01*
X98571345Y-133884331D01*
X98572591Y-133877273D01*
X98574522Y-133852078D01*
X98577000Y-133826919D01*
X98577000Y-133819749D01*
X98580037Y-133780125D01*
X98577000Y-133754908D01*
X98577000Y-133160504D01*
X98577096Y-133160018D01*
X98577000Y-133095952D01*
X98577000Y-133063581D01*
X98576951Y-133063081D01*
X98576950Y-133062585D01*
X98573766Y-133030745D01*
X98567450Y-132966617D01*
X98567305Y-132966141D01*
X98512876Y-132421853D01*
X98512767Y-132416081D01*
X98509648Y-132389568D01*
X98506998Y-132363070D01*
X98505866Y-132357424D01*
X98388420Y-131359131D01*
X98388909Y-131349263D01*
X98380835Y-131294665D01*
X98378191Y-131272188D01*
X98376093Y-131262592D01*
X98374656Y-131252877D01*
X98369168Y-131230924D01*
X98357377Y-131177004D01*
X98353424Y-131167951D01*
X98179515Y-130472312D01*
X98175626Y-130453581D01*
X98171657Y-130440881D01*
X98168431Y-130427976D01*
X98161996Y-130409967D01*
X97858123Y-129437572D01*
X97851503Y-129405686D01*
X97838789Y-129375703D01*
X97838787Y-129375696D01*
X97804896Y-129295774D01*
X97800749Y-129285993D01*
X97727619Y-129178503D01*
X97634924Y-129087345D01*
X97553462Y-129033893D01*
X97553448Y-129033886D01*
X97526226Y-129016024D01*
X97496042Y-129003816D01*
X96202579Y-128326289D01*
X96157329Y-128300301D01*
X96114297Y-128285803D01*
X96072201Y-128268777D01*
X96020942Y-128259026D01*
X94404200Y-127885932D01*
X94363383Y-127873550D01*
X94308663Y-127868161D01*
X94254190Y-127861115D01*
X94211661Y-127864000D01*
X94008637Y-127864000D01*
X91120388Y-127612848D01*
X89881483Y-127488957D01*
X89876116Y-127487973D01*
X89849283Y-127485737D01*
X89822414Y-127483050D01*
X89816942Y-127483042D01*
X89121556Y-127425093D01*
X89096962Y-127420008D01*
X89056933Y-127419707D01*
X89049502Y-127419088D01*
X89024517Y-127419464D01*
X88999531Y-127419276D01*
X88992105Y-127419951D01*
X88952081Y-127420553D01*
X88927530Y-127425822D01*
X88281257Y-127484574D01*
X87108418Y-127546302D01*
X87097121Y-127546173D01*
X87076035Y-127548007D01*
X87054937Y-127549117D01*
X87043787Y-127550811D01*
X84158060Y-127801744D01*
X82714869Y-127864492D01*
X80887646Y-127927500D01*
X78955840Y-127927500D01*
X78178699Y-127867720D01*
X78169537Y-127866364D01*
X78146405Y-127865236D01*
X78123296Y-127863458D01*
X78114030Y-127863656D01*
X75551294Y-127738645D01*
X73109674Y-127488223D01*
X71121164Y-127177518D01*
X69593398Y-126810854D01*
X67695908Y-126137552D01*
X66746610Y-125662903D01*
X66137962Y-125275582D01*
X65727403Y-124865023D01*
X65574831Y-124636165D01*
X90386000Y-124636165D01*
X90386000Y-124918835D01*
X90441147Y-125196074D01*
X90549320Y-125457227D01*
X90706363Y-125692259D01*
X90906241Y-125892137D01*
X91141273Y-126049180D01*
X91402426Y-126157353D01*
X91679665Y-126212500D01*
X91962335Y-126212500D01*
X92239574Y-126157353D01*
X92500727Y-126049180D01*
X92735759Y-125892137D01*
X92935637Y-125692259D01*
X93039043Y-125537500D01*
X98427699Y-125537500D01*
X98660000Y-125769802D01*
X98660000Y-125831939D01*
X98699774Y-126031898D01*
X98777795Y-126220256D01*
X98891063Y-126389774D01*
X99035226Y-126533937D01*
X99204744Y-126647205D01*
X99393102Y-126725226D01*
X99593061Y-126765000D01*
X99796939Y-126765000D01*
X99996898Y-126725226D01*
X100185256Y-126647205D01*
X100354774Y-126533937D01*
X100498937Y-126389774D01*
X100612205Y-126220256D01*
X100690226Y-126031898D01*
X100730000Y-125831939D01*
X100730000Y-125628061D01*
X100690226Y-125428102D01*
X100612205Y-125239744D01*
X100498937Y-125070226D01*
X100354774Y-124926063D01*
X100185256Y-124812795D01*
X99996898Y-124734774D01*
X99796939Y-124695000D01*
X99734802Y-124695000D01*
X99306303Y-124266502D01*
X99282501Y-124237499D01*
X99166776Y-124142526D01*
X99034747Y-124071954D01*
X98891486Y-124028497D01*
X98779833Y-124017500D01*
X98779822Y-124017500D01*
X98742500Y-124013824D01*
X98705178Y-124017500D01*
X93039043Y-124017500D01*
X92935637Y-123862741D01*
X92735759Y-123662863D01*
X92500727Y-123505820D01*
X92239574Y-123397647D01*
X91962335Y-123342500D01*
X91679665Y-123342500D01*
X91402426Y-123397647D01*
X91141273Y-123505820D01*
X90906241Y-123662863D01*
X90706363Y-123862741D01*
X90549320Y-124097773D01*
X90441147Y-124358926D01*
X90386000Y-124636165D01*
X65574831Y-124636165D01*
X65532447Y-124572590D01*
X65437573Y-124382843D01*
X65644471Y-124313877D01*
X66563900Y-124007401D01*
X69073047Y-123191929D01*
X69075454Y-123191382D01*
X69103654Y-123181982D01*
X69132328Y-123172663D01*
X69134622Y-123171659D01*
X69667842Y-122993920D01*
X69688892Y-122987635D01*
X69698550Y-122983684D01*
X69708465Y-122980379D01*
X69728551Y-122971411D01*
X70253889Y-122756500D01*
X79424428Y-122756500D01*
X79436688Y-122880982D01*
X79472998Y-123000680D01*
X79531963Y-123110994D01*
X79611315Y-123207685D01*
X79708006Y-123287037D01*
X79818320Y-123346002D01*
X79938018Y-123382312D01*
X80062500Y-123394572D01*
X80676750Y-123391500D01*
X80835500Y-123232750D01*
X80835500Y-121983500D01*
X79586250Y-121983500D01*
X79427500Y-122142250D01*
X79424428Y-122756500D01*
X70253889Y-122756500D01*
X71113602Y-122404800D01*
X72694080Y-121772610D01*
X72719664Y-121762820D01*
X72724098Y-121760603D01*
X72728718Y-121758755D01*
X72753113Y-121746095D01*
X72973661Y-121635821D01*
X72973664Y-121635820D01*
X73735664Y-121254820D01*
X74332304Y-120956500D01*
X79424428Y-120956500D01*
X79427500Y-121570750D01*
X79586250Y-121729500D01*
X80835500Y-121729500D01*
X80835500Y-120480250D01*
X81089500Y-120480250D01*
X81089500Y-121729500D01*
X81109500Y-121729500D01*
X81109500Y-121983500D01*
X81089500Y-121983500D01*
X81089500Y-123232750D01*
X81248250Y-123391500D01*
X81862500Y-123394572D01*
X81986982Y-123382312D01*
X82106680Y-123346002D01*
X82216994Y-123287037D01*
X82313685Y-123207685D01*
X82393037Y-123110994D01*
X82452002Y-123000680D01*
X82457556Y-122982373D01*
X82523995Y-123048812D01*
X82775405Y-123216799D01*
X83054757Y-123332511D01*
X83351316Y-123391500D01*
X83653684Y-123391500D01*
X83950243Y-123332511D01*
X84229595Y-123216799D01*
X84481005Y-123048812D01*
X84694812Y-122835005D01*
X84840813Y-122616500D01*
X90831178Y-122616500D01*
X90868500Y-122620176D01*
X90905822Y-122616500D01*
X90905833Y-122616500D01*
X91017486Y-122605503D01*
X91160747Y-122562046D01*
X91292776Y-122491474D01*
X91408501Y-122396501D01*
X91432303Y-122367498D01*
X91479801Y-122320000D01*
X91541939Y-122320000D01*
X91741898Y-122280226D01*
X91930256Y-122202205D01*
X92099774Y-122088937D01*
X92243937Y-121944774D01*
X92357205Y-121775256D01*
X92435226Y-121586898D01*
X92475000Y-121386939D01*
X92475000Y-121183061D01*
X92435226Y-120983102D01*
X92357205Y-120794744D01*
X92243937Y-120625226D01*
X92099774Y-120481063D01*
X91930256Y-120367795D01*
X91741898Y-120289774D01*
X91541939Y-120250000D01*
X91338061Y-120250000D01*
X91138102Y-120289774D01*
X90949744Y-120367795D01*
X90780226Y-120481063D01*
X90636063Y-120625226D01*
X90522795Y-120794744D01*
X90444774Y-120983102D01*
X90422218Y-121096500D01*
X84840813Y-121096500D01*
X84694812Y-120877995D01*
X84481005Y-120664188D01*
X84229595Y-120496201D01*
X83950243Y-120380489D01*
X83653684Y-120321500D01*
X83351316Y-120321500D01*
X83054757Y-120380489D01*
X82775405Y-120496201D01*
X82523995Y-120664188D01*
X82457556Y-120730627D01*
X82452002Y-120712320D01*
X82393037Y-120602006D01*
X82313685Y-120505315D01*
X82216994Y-120425963D01*
X82106680Y-120366998D01*
X81986982Y-120330688D01*
X81862500Y-120318428D01*
X81248250Y-120321500D01*
X81089500Y-120480250D01*
X80835500Y-120480250D01*
X80676750Y-120321500D01*
X80062500Y-120318428D01*
X79938018Y-120330688D01*
X79818320Y-120366998D01*
X79708006Y-120425963D01*
X79611315Y-120505315D01*
X79531963Y-120602006D01*
X79472998Y-120712320D01*
X79436688Y-120832018D01*
X79424428Y-120956500D01*
X74332304Y-120956500D01*
X76044393Y-120100456D01*
X76067268Y-120089624D01*
X76073323Y-120085991D01*
X76079657Y-120082824D01*
X76101143Y-120069299D01*
X78627623Y-118553412D01*
X78648223Y-118541781D01*
X78655363Y-118536768D01*
X78662866Y-118532266D01*
X78681918Y-118518123D01*
X81611391Y-116461260D01*
X81617295Y-116458514D01*
X81664504Y-116423968D01*
X81685788Y-116409024D01*
X81690704Y-116404796D01*
X81695924Y-116400976D01*
X81715259Y-116383677D01*
X81759657Y-116345490D01*
X81763675Y-116340357D01*
X83847184Y-114476165D01*
X90386000Y-114476165D01*
X90386000Y-114758835D01*
X90441147Y-115036074D01*
X90549320Y-115297227D01*
X90706363Y-115532259D01*
X90906241Y-115732137D01*
X91141273Y-115889180D01*
X91402426Y-115997353D01*
X91679665Y-116052500D01*
X91962335Y-116052500D01*
X92239574Y-115997353D01*
X92500727Y-115889180D01*
X92735759Y-115732137D01*
X92935637Y-115532259D01*
X93092680Y-115297227D01*
X93200853Y-115036074D01*
X93256000Y-114758835D01*
X93256000Y-114476165D01*
X93200853Y-114198926D01*
X93184177Y-114158665D01*
X94958000Y-114158665D01*
X94958000Y-114441335D01*
X95013147Y-114718574D01*
X95121320Y-114979727D01*
X95278363Y-115214759D01*
X95478241Y-115414637D01*
X95713273Y-115571680D01*
X95974426Y-115679853D01*
X96251665Y-115735000D01*
X96534335Y-115735000D01*
X96811574Y-115679853D01*
X97072727Y-115571680D01*
X97307759Y-115414637D01*
X97507637Y-115214759D01*
X97611043Y-115060000D01*
X98745199Y-115060000D01*
X99295000Y-115609802D01*
X99295000Y-115671939D01*
X99334774Y-115871898D01*
X99412795Y-116060256D01*
X99526063Y-116229774D01*
X99670226Y-116373937D01*
X99839744Y-116487205D01*
X100028102Y-116565226D01*
X100228061Y-116605000D01*
X100431939Y-116605000D01*
X100631898Y-116565226D01*
X100820256Y-116487205D01*
X100989774Y-116373937D01*
X101133937Y-116229774D01*
X101247205Y-116060256D01*
X101325226Y-115871898D01*
X101365000Y-115671939D01*
X101365000Y-115468061D01*
X101325226Y-115268102D01*
X101247205Y-115079744D01*
X101133937Y-114910226D01*
X100989774Y-114766063D01*
X100820256Y-114652795D01*
X100631898Y-114574774D01*
X100431939Y-114535000D01*
X100369802Y-114535000D01*
X99623804Y-113789003D01*
X99600001Y-113759999D01*
X99484276Y-113665026D01*
X99352247Y-113594454D01*
X99208986Y-113550997D01*
X99097333Y-113540000D01*
X99097322Y-113540000D01*
X99060000Y-113536324D01*
X99022678Y-113540000D01*
X97611043Y-113540000D01*
X97507637Y-113385241D01*
X97307759Y-113185363D01*
X97072727Y-113028320D01*
X96811574Y-112920147D01*
X96534335Y-112865000D01*
X96251665Y-112865000D01*
X95974426Y-112920147D01*
X95713273Y-113028320D01*
X95478241Y-113185363D01*
X95278363Y-113385241D01*
X95121320Y-113620273D01*
X95013147Y-113881426D01*
X94958000Y-114158665D01*
X93184177Y-114158665D01*
X93092680Y-113937773D01*
X92935637Y-113702741D01*
X92735759Y-113502863D01*
X92500727Y-113345820D01*
X92239574Y-113237647D01*
X91962335Y-113182500D01*
X91679665Y-113182500D01*
X91402426Y-113237647D01*
X91141273Y-113345820D01*
X90906241Y-113502863D01*
X90706363Y-113702741D01*
X90549320Y-113937773D01*
X90441147Y-114198926D01*
X90386000Y-114476165D01*
X83847184Y-114476165D01*
X85329105Y-113150236D01*
X85343266Y-113138614D01*
X85353228Y-113128652D01*
X85363744Y-113119243D01*
X85376153Y-113105727D01*
X85788018Y-112693863D01*
X85813438Y-112672957D01*
X85854056Y-112623359D01*
X85895425Y-112572950D01*
X85910946Y-112543912D01*
X86001976Y-112407367D01*
X86022425Y-112382450D01*
X86037946Y-112353412D01*
X86038136Y-112353127D01*
X86053167Y-112324934D01*
X86083710Y-112267793D01*
X86083811Y-112267461D01*
X86083976Y-112267151D01*
X86102687Y-112205234D01*
X86121450Y-112143383D01*
X86121485Y-112143031D01*
X86121584Y-112142702D01*
X86127780Y-112079110D01*
X86134193Y-112014000D01*
X86134159Y-112013650D01*
X86134192Y-112013307D01*
X86127837Y-111949463D01*
X86121450Y-111884617D01*
X86121348Y-111884282D01*
X86121314Y-111883937D01*
X86102549Y-111822309D01*
X86083710Y-111760207D01*
X86083545Y-111759899D01*
X86083444Y-111759566D01*
X86053040Y-111702827D01*
X86022425Y-111645550D01*
X86022202Y-111645278D01*
X86022039Y-111644974D01*
X85981021Y-111595099D01*
X85939948Y-111545052D01*
X85939680Y-111544832D01*
X85939458Y-111544562D01*
X85889356Y-111503532D01*
X85839450Y-111462575D01*
X85839142Y-111462411D01*
X85838873Y-111462190D01*
X85781723Y-111431719D01*
X85724793Y-111401290D01*
X85724461Y-111401189D01*
X85724151Y-111401024D01*
X85662504Y-111382394D01*
X85600383Y-111363550D01*
X85600031Y-111363515D01*
X85599702Y-111363416D01*
X85535663Y-111357176D01*
X85503419Y-111354000D01*
X85503073Y-111354000D01*
X85470306Y-111350807D01*
X85438233Y-111354000D01*
X85363447Y-111354000D01*
X85318013Y-111351317D01*
X85266448Y-111358445D01*
X85214617Y-111363550D01*
X85171047Y-111376767D01*
X83619322Y-111749182D01*
X81948096Y-112058669D01*
X79506505Y-112309089D01*
X77906499Y-112432166D01*
X76744769Y-112371022D01*
X75717537Y-112310597D01*
X74932585Y-112142393D01*
X74077417Y-111800326D01*
X73448410Y-111433405D01*
X73058618Y-110994889D01*
X72859500Y-110636478D01*
X72859500Y-110570552D01*
X73134035Y-110492114D01*
X73156583Y-110486342D01*
X73165187Y-110483213D01*
X73173987Y-110480699D01*
X73195629Y-110472143D01*
X75272518Y-109716912D01*
X75293133Y-109710164D01*
X75302934Y-109705851D01*
X75313017Y-109702185D01*
X75332616Y-109692792D01*
X78494992Y-108301347D01*
X78881662Y-108135631D01*
X78886877Y-108134440D01*
X78941317Y-108110065D01*
X78966284Y-108099365D01*
X78970950Y-108096797D01*
X78975804Y-108094624D01*
X78999355Y-108081166D01*
X79051646Y-108052391D01*
X79055742Y-108048945D01*
X79359271Y-107875500D01*
X108126428Y-107875500D01*
X108129500Y-108489750D01*
X108288250Y-108648500D01*
X109537500Y-108648500D01*
X109537500Y-107399250D01*
X109791500Y-107399250D01*
X109791500Y-108648500D01*
X109811500Y-108648500D01*
X109811500Y-108902500D01*
X109791500Y-108902500D01*
X109791500Y-110151750D01*
X109950250Y-110310500D01*
X110564500Y-110313572D01*
X110688982Y-110301312D01*
X110808680Y-110265002D01*
X110918994Y-110206037D01*
X111015685Y-110126685D01*
X111095037Y-110029994D01*
X111154002Y-109919680D01*
X111159556Y-109901373D01*
X111225995Y-109967812D01*
X111477405Y-110135799D01*
X111756757Y-110251511D01*
X112053316Y-110310500D01*
X112355684Y-110310500D01*
X112652243Y-110251511D01*
X112931595Y-110135799D01*
X113183005Y-109967812D01*
X113396812Y-109754005D01*
X113564799Y-109502595D01*
X113680511Y-109223243D01*
X113739500Y-108926684D01*
X113739500Y-108624316D01*
X113680511Y-108327757D01*
X113564799Y-108048405D01*
X113396812Y-107796995D01*
X113183005Y-107583188D01*
X112931595Y-107415201D01*
X112652243Y-107299489D01*
X112355684Y-107240500D01*
X112053316Y-107240500D01*
X111756757Y-107299489D01*
X111477405Y-107415201D01*
X111225995Y-107583188D01*
X111159556Y-107649627D01*
X111154002Y-107631320D01*
X111095037Y-107521006D01*
X111015685Y-107424315D01*
X110918994Y-107344963D01*
X110808680Y-107285998D01*
X110688982Y-107249688D01*
X110564500Y-107237428D01*
X109950250Y-107240500D01*
X109791500Y-107399250D01*
X109537500Y-107399250D01*
X109378750Y-107240500D01*
X108764500Y-107237428D01*
X108640018Y-107249688D01*
X108520320Y-107285998D01*
X108410006Y-107344963D01*
X108313315Y-107424315D01*
X108233963Y-107521006D01*
X108174998Y-107631320D01*
X108138688Y-107751018D01*
X108126428Y-107875500D01*
X79359271Y-107875500D01*
X81220052Y-106812198D01*
X81241952Y-106800331D01*
X81248113Y-106796163D01*
X81254599Y-106792457D01*
X81274991Y-106777981D01*
X81497441Y-106627500D01*
X87361928Y-106627500D01*
X87374188Y-106751982D01*
X87410498Y-106871680D01*
X87469463Y-106981994D01*
X87548815Y-107078685D01*
X87645506Y-107158037D01*
X87755820Y-107217002D01*
X87875518Y-107253312D01*
X88000000Y-107265572D01*
X88614250Y-107262500D01*
X88773000Y-107103750D01*
X88773000Y-105854500D01*
X87523750Y-105854500D01*
X87365000Y-106013250D01*
X87361928Y-106627500D01*
X81497441Y-106627500D01*
X83422896Y-105324988D01*
X83444983Y-105310625D01*
X83449666Y-105306878D01*
X83454656Y-105303503D01*
X83475014Y-105286600D01*
X84048890Y-104827500D01*
X87361928Y-104827500D01*
X87365000Y-105441750D01*
X87523750Y-105600500D01*
X88773000Y-105600500D01*
X88773000Y-104351250D01*
X89027000Y-104351250D01*
X89027000Y-105600500D01*
X89047000Y-105600500D01*
X89047000Y-105854500D01*
X89027000Y-105854500D01*
X89027000Y-107103750D01*
X89185750Y-107262500D01*
X89800000Y-107265572D01*
X89924482Y-107253312D01*
X90044180Y-107217002D01*
X90154494Y-107158037D01*
X90251185Y-107078685D01*
X90330537Y-106981994D01*
X90389502Y-106871680D01*
X90395056Y-106853373D01*
X90461495Y-106919812D01*
X90712905Y-107087799D01*
X90992257Y-107203511D01*
X91288816Y-107262500D01*
X91591184Y-107262500D01*
X91887743Y-107203511D01*
X92167095Y-107087799D01*
X92418505Y-106919812D01*
X92632312Y-106706005D01*
X92778313Y-106487500D01*
X94768178Y-106487500D01*
X94805500Y-106491176D01*
X94842822Y-106487500D01*
X94842833Y-106487500D01*
X94954486Y-106476503D01*
X95097747Y-106433046D01*
X95229776Y-106362474D01*
X95345501Y-106267501D01*
X95369304Y-106238497D01*
X95958136Y-105649665D01*
X119659500Y-105649665D01*
X119659500Y-105932335D01*
X119714647Y-106209574D01*
X119822820Y-106470727D01*
X119979863Y-106705759D01*
X120179741Y-106905637D01*
X120414773Y-107062680D01*
X120675926Y-107170853D01*
X120953165Y-107226000D01*
X121235835Y-107226000D01*
X121513074Y-107170853D01*
X121774227Y-107062680D01*
X122009259Y-106905637D01*
X122209137Y-106705759D01*
X122366180Y-106470727D01*
X122474353Y-106209574D01*
X122529500Y-105932335D01*
X122529500Y-105649665D01*
X122474353Y-105372426D01*
X122366180Y-105111273D01*
X122209137Y-104876241D01*
X122009259Y-104676363D01*
X121774227Y-104519320D01*
X121513074Y-104411147D01*
X121235835Y-104356000D01*
X120953165Y-104356000D01*
X120675926Y-104411147D01*
X120414773Y-104519320D01*
X120179741Y-104676363D01*
X119979863Y-104876241D01*
X119822820Y-105111273D01*
X119714647Y-105372426D01*
X119659500Y-105649665D01*
X95958136Y-105649665D01*
X96069114Y-105538688D01*
X96251665Y-105575000D01*
X96534335Y-105575000D01*
X96811574Y-105519853D01*
X97072727Y-105411680D01*
X97307759Y-105254637D01*
X97507637Y-105054759D01*
X97664680Y-104819727D01*
X97772853Y-104558574D01*
X97828000Y-104281335D01*
X97828000Y-103998665D01*
X97772853Y-103721426D01*
X97664680Y-103460273D01*
X97507637Y-103225241D01*
X97307759Y-103025363D01*
X97072727Y-102868320D01*
X96811574Y-102760147D01*
X96534335Y-102705000D01*
X96251665Y-102705000D01*
X95974426Y-102760147D01*
X95713273Y-102868320D01*
X95478241Y-103025363D01*
X95278363Y-103225241D01*
X95121320Y-103460273D01*
X95013147Y-103721426D01*
X94958000Y-103998665D01*
X94958000Y-104281335D01*
X94994312Y-104463886D01*
X94490699Y-104967500D01*
X92778313Y-104967500D01*
X92632312Y-104748995D01*
X92418505Y-104535188D01*
X92167095Y-104367201D01*
X91887743Y-104251489D01*
X91591184Y-104192500D01*
X91288816Y-104192500D01*
X90992257Y-104251489D01*
X90712905Y-104367201D01*
X90461495Y-104535188D01*
X90395056Y-104601627D01*
X90389502Y-104583320D01*
X90330537Y-104473006D01*
X90251185Y-104376315D01*
X90154494Y-104296963D01*
X90044180Y-104237998D01*
X89924482Y-104201688D01*
X89800000Y-104189428D01*
X89185750Y-104192500D01*
X89027000Y-104351250D01*
X88773000Y-104351250D01*
X88614250Y-104192500D01*
X88000000Y-104189428D01*
X87875518Y-104201688D01*
X87755820Y-104237998D01*
X87645506Y-104296963D01*
X87548815Y-104376315D01*
X87469463Y-104473006D01*
X87410498Y-104583320D01*
X87374188Y-104703018D01*
X87361928Y-104827500D01*
X84048890Y-104827500D01*
X84401157Y-104545687D01*
X84405041Y-104543082D01*
X84426395Y-104525496D01*
X84448113Y-104508122D01*
X84451479Y-104504839D01*
X85500385Y-103641036D01*
X85516629Y-103628616D01*
X85525352Y-103620475D01*
X85534591Y-103612866D01*
X85549069Y-103598339D01*
X86470942Y-102737925D01*
X86472876Y-102736424D01*
X86494489Y-102715949D01*
X86516530Y-102695377D01*
X86518167Y-102693516D01*
X87692355Y-101581130D01*
X87705832Y-101569446D01*
X87715851Y-101558870D01*
X87726446Y-101548833D01*
X87738150Y-101535332D01*
X88826474Y-100386546D01*
X88826524Y-100386511D01*
X88868604Y-100342076D01*
X88893424Y-100315877D01*
X88893471Y-100315817D01*
X88915918Y-100292113D01*
X88933235Y-100264603D01*
X88953178Y-100238918D01*
X88967789Y-100209712D01*
X88967823Y-100209657D01*
X88981918Y-100181468D01*
X89011343Y-100122647D01*
X89011361Y-100122581D01*
X89083441Y-99978422D01*
X89087682Y-99972709D01*
X89105696Y-99934665D01*
X98006000Y-99934665D01*
X98006000Y-100217335D01*
X98061147Y-100494574D01*
X98169320Y-100755727D01*
X98326363Y-100990759D01*
X98526241Y-101190637D01*
X98761273Y-101347680D01*
X99022426Y-101455853D01*
X99299665Y-101511000D01*
X99582335Y-101511000D01*
X99859574Y-101455853D01*
X100120727Y-101347680D01*
X100355759Y-101190637D01*
X100555637Y-100990759D01*
X100712680Y-100755727D01*
X100820853Y-100494574D01*
X100876000Y-100217335D01*
X100876000Y-99934665D01*
X100820853Y-99657426D01*
X100712680Y-99396273D01*
X100555637Y-99161241D01*
X100355759Y-98961363D01*
X100120727Y-98804320D01*
X99859574Y-98696147D01*
X99582335Y-98641000D01*
X99299665Y-98641000D01*
X99022426Y-98696147D01*
X98761273Y-98804320D01*
X98526241Y-98961363D01*
X98326363Y-99161241D01*
X98169320Y-99396273D01*
X98061147Y-99657426D01*
X98006000Y-99934665D01*
X89105696Y-99934665D01*
X89112448Y-99920407D01*
X89123820Y-99897664D01*
X89126356Y-99891037D01*
X89143322Y-99855208D01*
X89149525Y-99830490D01*
X89158642Y-99806667D01*
X89165320Y-99767559D01*
X89174969Y-99729111D01*
X89176231Y-99703653D01*
X89180524Y-99678513D01*
X89179444Y-99638863D01*
X89181408Y-99599263D01*
X89177679Y-99574045D01*
X89176985Y-99548553D01*
X89168191Y-99509879D01*
X89162391Y-99470653D01*
X89153812Y-99446641D01*
X89148159Y-99421780D01*
X89131994Y-99385575D01*
X89118649Y-99348223D01*
X89105549Y-99326345D01*
X89095156Y-99303067D01*
X89072231Y-99270701D01*
X89051861Y-99236681D01*
X89034751Y-99217785D01*
X89020011Y-99196975D01*
X88991215Y-99169705D01*
X88964598Y-99140311D01*
X88944127Y-99125114D01*
X88925613Y-99107582D01*
X88892041Y-99086449D01*
X88860209Y-99062818D01*
X88837176Y-99051911D01*
X88815589Y-99038322D01*
X88778540Y-99024145D01*
X88742708Y-99007177D01*
X88717983Y-99000972D01*
X88694166Y-98991858D01*
X88655064Y-98985181D01*
X88616611Y-98975531D01*
X88591151Y-98974268D01*
X88566013Y-98969976D01*
X88526372Y-98971055D01*
X88486762Y-98969091D01*
X88461538Y-98972821D01*
X88436053Y-98973515D01*
X88397379Y-98982309D01*
X88390377Y-98983344D01*
X88365771Y-98989496D01*
X88309281Y-99002340D01*
X88302777Y-99005244D01*
X88137958Y-99046449D01*
X85979223Y-99354840D01*
X84767793Y-99415411D01*
X83053109Y-99354173D01*
X82239516Y-99237945D01*
X81683986Y-99086437D01*
X81255981Y-98801100D01*
X80920189Y-98465309D01*
X80898168Y-98426772D01*
X80958821Y-98400778D01*
X83810878Y-97284756D01*
X83812359Y-97284485D01*
X83871150Y-97261172D01*
X83900193Y-97249807D01*
X83901542Y-97249120D01*
X83902931Y-97248569D01*
X83930330Y-97234454D01*
X83987010Y-97205580D01*
X83988198Y-97204644D01*
X85973653Y-96181834D01*
X85978151Y-96180475D01*
X86031342Y-96152115D01*
X86056070Y-96139377D01*
X86060001Y-96136836D01*
X86064127Y-96134636D01*
X86087235Y-96119231D01*
X86137895Y-96086482D01*
X86141272Y-96083206D01*
X86591489Y-95783061D01*
X106280000Y-95783061D01*
X106280000Y-95986939D01*
X106319774Y-96186898D01*
X106397795Y-96375256D01*
X106511063Y-96544774D01*
X106655226Y-96688937D01*
X106824744Y-96802205D01*
X107013102Y-96880226D01*
X107213061Y-96920000D01*
X107416939Y-96920000D01*
X107616898Y-96880226D01*
X107805256Y-96802205D01*
X107926039Y-96721500D01*
X114730428Y-96721500D01*
X114742688Y-96845982D01*
X114778998Y-96965680D01*
X114837963Y-97075994D01*
X114917315Y-97172685D01*
X115014006Y-97252037D01*
X115124320Y-97311002D01*
X115244018Y-97347312D01*
X115368500Y-97359572D01*
X115982750Y-97356500D01*
X116141500Y-97197750D01*
X116141500Y-95948500D01*
X114892250Y-95948500D01*
X114733500Y-96107250D01*
X114730428Y-96721500D01*
X107926039Y-96721500D01*
X107974774Y-96688937D01*
X108118937Y-96544774D01*
X108232205Y-96375256D01*
X108310226Y-96186898D01*
X108350000Y-95986939D01*
X108350000Y-95783061D01*
X108310226Y-95583102D01*
X108232205Y-95394744D01*
X108118937Y-95225226D01*
X108075000Y-95181289D01*
X108075000Y-94929801D01*
X108264802Y-94740000D01*
X109043196Y-94740000D01*
X109238773Y-94870680D01*
X109499926Y-94978853D01*
X109777165Y-95034000D01*
X110059835Y-95034000D01*
X110337074Y-94978853D01*
X110475536Y-94921500D01*
X114730428Y-94921500D01*
X114733500Y-95535750D01*
X114892250Y-95694500D01*
X116141500Y-95694500D01*
X116141500Y-94445250D01*
X116395500Y-94445250D01*
X116395500Y-95694500D01*
X116415500Y-95694500D01*
X116415500Y-95948500D01*
X116395500Y-95948500D01*
X116395500Y-97197750D01*
X116554250Y-97356500D01*
X117168500Y-97359572D01*
X117292982Y-97347312D01*
X117412680Y-97311002D01*
X117522994Y-97252037D01*
X117619685Y-97172685D01*
X117699037Y-97075994D01*
X117758002Y-96965680D01*
X117763556Y-96947373D01*
X117829995Y-97013812D01*
X118081405Y-97181799D01*
X118360757Y-97297511D01*
X118657316Y-97356500D01*
X118959684Y-97356500D01*
X119256243Y-97297511D01*
X119535595Y-97181799D01*
X119787005Y-97013812D01*
X120000812Y-96800005D01*
X120168799Y-96548595D01*
X120284511Y-96269243D01*
X120343500Y-95972684D01*
X120343500Y-95670316D01*
X120284511Y-95373757D01*
X120168799Y-95094405D01*
X120000812Y-94842995D01*
X119787005Y-94629188D01*
X119535595Y-94461201D01*
X119256243Y-94345489D01*
X118959684Y-94286500D01*
X118657316Y-94286500D01*
X118360757Y-94345489D01*
X118081405Y-94461201D01*
X117829995Y-94629188D01*
X117763556Y-94695627D01*
X117758002Y-94677320D01*
X117699037Y-94567006D01*
X117619685Y-94470315D01*
X117522994Y-94390963D01*
X117412680Y-94331998D01*
X117292982Y-94295688D01*
X117168500Y-94283428D01*
X116554250Y-94286500D01*
X116395500Y-94445250D01*
X116141500Y-94445250D01*
X115982750Y-94286500D01*
X115368500Y-94283428D01*
X115244018Y-94295688D01*
X115124320Y-94331998D01*
X115014006Y-94390963D01*
X114917315Y-94470315D01*
X114837963Y-94567006D01*
X114778998Y-94677320D01*
X114742688Y-94797018D01*
X114730428Y-94921500D01*
X110475536Y-94921500D01*
X110598227Y-94870680D01*
X110833259Y-94713637D01*
X111033137Y-94513759D01*
X111190180Y-94278727D01*
X111298353Y-94017574D01*
X111353500Y-93740335D01*
X111353500Y-93457665D01*
X111298353Y-93180426D01*
X111190180Y-92919273D01*
X111033137Y-92684241D01*
X110833259Y-92484363D01*
X110598227Y-92327320D01*
X110337074Y-92219147D01*
X110059835Y-92164000D01*
X109777165Y-92164000D01*
X109499926Y-92219147D01*
X109238773Y-92327320D01*
X109003741Y-92484363D01*
X108803863Y-92684241D01*
X108646820Y-92919273D01*
X108538647Y-93180426D01*
X108530775Y-93220000D01*
X107987333Y-93220000D01*
X107950000Y-93216323D01*
X107912667Y-93220000D01*
X107801014Y-93230997D01*
X107657753Y-93274454D01*
X107525724Y-93345026D01*
X107409999Y-93439999D01*
X107386200Y-93468998D01*
X106803998Y-94051201D01*
X106775000Y-94074999D01*
X106751202Y-94103997D01*
X106751201Y-94103998D01*
X106680026Y-94190724D01*
X106609454Y-94322754D01*
X106590788Y-94384291D01*
X106565998Y-94466014D01*
X106561201Y-94514720D01*
X106551324Y-94615000D01*
X106555001Y-94652332D01*
X106555001Y-95181288D01*
X106511063Y-95225226D01*
X106397795Y-95394744D01*
X106319774Y-95583102D01*
X106280000Y-95783061D01*
X86591489Y-95783061D01*
X88183563Y-94721679D01*
X88207483Y-94706125D01*
X88210423Y-94703773D01*
X88213576Y-94701671D01*
X88235792Y-94683477D01*
X90090287Y-93199883D01*
X90093950Y-93197925D01*
X90140961Y-93159343D01*
X90163113Y-93141622D01*
X90166076Y-93138732D01*
X90169266Y-93136114D01*
X90189270Y-93116110D01*
X90232863Y-93073592D01*
X90235216Y-93070164D01*
X91583355Y-91722026D01*
X91600813Y-91705424D01*
X91606234Y-91699147D01*
X91612113Y-91693268D01*
X91627427Y-91674607D01*
X92826596Y-90286096D01*
X92846009Y-90264024D01*
X92847746Y-90261607D01*
X92849692Y-90259354D01*
X92866645Y-90235313D01*
X93197735Y-89774665D01*
X98006000Y-89774665D01*
X98006000Y-90057335D01*
X98061147Y-90334574D01*
X98169320Y-90595727D01*
X98326363Y-90830759D01*
X98526241Y-91030637D01*
X98761273Y-91187680D01*
X99022426Y-91295853D01*
X99299665Y-91351000D01*
X99582335Y-91351000D01*
X99859574Y-91295853D01*
X100120727Y-91187680D01*
X100355759Y-91030637D01*
X100555637Y-90830759D01*
X100712680Y-90595727D01*
X100820853Y-90334574D01*
X100876000Y-90057335D01*
X100876000Y-89774665D01*
X100820853Y-89497426D01*
X100712680Y-89236273D01*
X100555637Y-89001241D01*
X100355759Y-88801363D01*
X100120727Y-88644320D01*
X99859574Y-88536147D01*
X99582335Y-88481000D01*
X99299665Y-88481000D01*
X99022426Y-88536147D01*
X98761273Y-88644320D01*
X98526241Y-88801363D01*
X98326363Y-89001241D01*
X98169320Y-89236273D01*
X98061147Y-89497426D01*
X98006000Y-89774665D01*
X93197735Y-89774665D01*
X94313305Y-88222569D01*
X94320670Y-88213576D01*
X94332203Y-88196277D01*
X94344351Y-88179375D01*
X94350184Y-88169304D01*
X94714501Y-87622830D01*
X94746656Y-87577433D01*
X94763744Y-87539160D01*
X94783476Y-87502152D01*
X94799579Y-87448864D01*
X94849880Y-87297962D01*
X94863159Y-87268220D01*
X94874417Y-87218711D01*
X94891985Y-87141447D01*
X94895524Y-87011487D01*
X94873641Y-86883334D01*
X94827177Y-86761911D01*
X94757918Y-86651887D01*
X94668525Y-86557489D01*
X94562433Y-86482344D01*
X94443720Y-86429340D01*
X94316946Y-86400515D01*
X94186986Y-86396976D01*
X94058834Y-86418858D01*
X94005875Y-86439124D01*
X93967836Y-86453680D01*
X93967831Y-86453682D01*
X93937412Y-86465323D01*
X93909848Y-86482674D01*
X93845718Y-86514739D01*
X93820237Y-86524011D01*
X93787723Y-86543737D01*
X93782843Y-86546177D01*
X93760005Y-86560553D01*
X93736936Y-86574549D01*
X93732572Y-86577822D01*
X93700387Y-86598082D01*
X93680697Y-86616728D01*
X93504612Y-86748791D01*
X93191982Y-86905108D01*
X92233321Y-87324523D01*
X90281645Y-87873431D01*
X88402623Y-88176500D01*
X87290087Y-88176500D01*
X86348438Y-88058794D01*
X85620375Y-87890780D01*
X85091066Y-87650185D01*
X84720106Y-87279225D01*
X84678739Y-87144783D01*
X89782305Y-84593000D01*
X91933928Y-84593000D01*
X91946188Y-84717482D01*
X91982498Y-84837180D01*
X92041463Y-84947494D01*
X92120815Y-85044185D01*
X92217506Y-85123537D01*
X92327820Y-85182502D01*
X92447518Y-85218812D01*
X92572000Y-85231072D01*
X93186250Y-85228000D01*
X93345000Y-85069250D01*
X93345000Y-83820000D01*
X92095750Y-83820000D01*
X91937000Y-83978750D01*
X91933928Y-84593000D01*
X89782305Y-84593000D01*
X90478630Y-84244838D01*
X90487292Y-84242210D01*
X90536665Y-84215820D01*
X90557657Y-84205324D01*
X90565282Y-84200524D01*
X90601950Y-84180925D01*
X90620166Y-84165976D01*
X90640113Y-84153419D01*
X90670310Y-84124823D01*
X90677266Y-84119114D01*
X90693839Y-84102541D01*
X90734511Y-84064025D01*
X90739746Y-84056634D01*
X91934274Y-82862106D01*
X91937000Y-83407250D01*
X92095750Y-83566000D01*
X93345000Y-83566000D01*
X93345000Y-82316750D01*
X93599000Y-82316750D01*
X93599000Y-83566000D01*
X93619000Y-83566000D01*
X93619000Y-83820000D01*
X93599000Y-83820000D01*
X93599000Y-85069250D01*
X93757750Y-85228000D01*
X94372000Y-85231072D01*
X94496482Y-85218812D01*
X94616180Y-85182502D01*
X94726494Y-85123537D01*
X94823185Y-85044185D01*
X94902537Y-84947494D01*
X94961502Y-84837180D01*
X94967056Y-84818873D01*
X95033495Y-84885312D01*
X95284905Y-85053299D01*
X95564257Y-85169011D01*
X95860816Y-85228000D01*
X96163184Y-85228000D01*
X96459743Y-85169011D01*
X96739095Y-85053299D01*
X96990505Y-84885312D01*
X97204312Y-84671505D01*
X97372299Y-84420095D01*
X97416383Y-84313665D01*
X100101500Y-84313665D01*
X100101500Y-84596335D01*
X100156647Y-84873574D01*
X100264820Y-85134727D01*
X100421863Y-85369759D01*
X100621741Y-85569637D01*
X100856773Y-85726680D01*
X101117926Y-85834853D01*
X101395165Y-85890000D01*
X101677835Y-85890000D01*
X101955074Y-85834853D01*
X102216227Y-85726680D01*
X102451259Y-85569637D01*
X102651137Y-85369759D01*
X102808180Y-85134727D01*
X102916353Y-84873574D01*
X102971500Y-84596335D01*
X102971500Y-84313665D01*
X102916353Y-84036426D01*
X102808180Y-83775273D01*
X102651137Y-83540241D01*
X102451259Y-83340363D01*
X102387357Y-83297665D01*
X108483500Y-83297665D01*
X108483500Y-83580335D01*
X108538647Y-83857574D01*
X108646820Y-84118727D01*
X108803863Y-84353759D01*
X109003741Y-84553637D01*
X109238773Y-84710680D01*
X109499926Y-84818853D01*
X109777165Y-84874000D01*
X110059835Y-84874000D01*
X110337074Y-84818853D01*
X110598227Y-84710680D01*
X110833259Y-84553637D01*
X111033137Y-84353759D01*
X111190180Y-84118727D01*
X111298353Y-83857574D01*
X111353500Y-83580335D01*
X111353500Y-83297665D01*
X111298353Y-83020426D01*
X111190180Y-82759273D01*
X111033137Y-82524241D01*
X110833259Y-82324363D01*
X110598227Y-82167320D01*
X110337074Y-82059147D01*
X110059835Y-82004000D01*
X109777165Y-82004000D01*
X109499926Y-82059147D01*
X109238773Y-82167320D01*
X109003741Y-82324363D01*
X108803863Y-82524241D01*
X108646820Y-82759273D01*
X108538647Y-83020426D01*
X108483500Y-83297665D01*
X102387357Y-83297665D01*
X102216227Y-83183320D01*
X101955074Y-83075147D01*
X101677835Y-83020000D01*
X101395165Y-83020000D01*
X101117926Y-83075147D01*
X100856773Y-83183320D01*
X100621741Y-83340363D01*
X100421863Y-83540241D01*
X100264820Y-83775273D01*
X100156647Y-84036426D01*
X100101500Y-84313665D01*
X97416383Y-84313665D01*
X97488011Y-84140743D01*
X97547000Y-83844184D01*
X97547000Y-83541816D01*
X97488011Y-83245257D01*
X97372299Y-82965905D01*
X97204312Y-82714495D01*
X96990505Y-82500688D01*
X96739095Y-82332701D01*
X96459743Y-82216989D01*
X96163184Y-82158000D01*
X95860816Y-82158000D01*
X95564257Y-82216989D01*
X95284905Y-82332701D01*
X95033495Y-82500688D01*
X94967056Y-82567127D01*
X94961502Y-82548820D01*
X94902537Y-82438506D01*
X94823185Y-82341815D01*
X94726494Y-82262463D01*
X94616180Y-82203498D01*
X94496482Y-82167188D01*
X94372000Y-82154928D01*
X93757750Y-82158000D01*
X93599000Y-82316750D01*
X93345000Y-82316750D01*
X93186250Y-82158000D01*
X92641106Y-82155274D01*
X95122507Y-79673873D01*
X95147938Y-79652958D01*
X95189029Y-79602781D01*
X95229925Y-79552951D01*
X95230091Y-79552640D01*
X95230310Y-79552373D01*
X95260876Y-79495043D01*
X95291209Y-79438293D01*
X95291308Y-79437965D01*
X95291476Y-79437651D01*
X95310409Y-79375000D01*
X95328949Y-79313884D01*
X95328983Y-79313535D01*
X95329084Y-79313202D01*
X95335458Y-79247792D01*
X95341692Y-79184501D01*
X95341658Y-79184160D01*
X95341693Y-79183806D01*
X95335187Y-79118452D01*
X95328949Y-79055118D01*
X95328849Y-79054788D01*
X95328814Y-79054438D01*
X95309782Y-78991933D01*
X95291209Y-78930708D01*
X95291047Y-78930404D01*
X95290944Y-78930067D01*
X95260238Y-78872763D01*
X95229925Y-78816051D01*
X95229704Y-78815781D01*
X95229539Y-78815474D01*
X95188329Y-78765365D01*
X95147448Y-78715552D01*
X95147180Y-78715332D01*
X95146958Y-78715062D01*
X95096820Y-78674003D01*
X95046949Y-78633075D01*
X95017918Y-78617558D01*
X94881367Y-78526524D01*
X94856450Y-78506075D01*
X94827412Y-78490554D01*
X94827127Y-78490364D01*
X94799178Y-78475463D01*
X94741793Y-78444790D01*
X94741457Y-78444688D01*
X94741151Y-78444525D01*
X94680073Y-78426067D01*
X94617383Y-78407050D01*
X94617029Y-78407015D01*
X94616701Y-78406916D01*
X94553134Y-78400722D01*
X94520419Y-78397500D01*
X94520066Y-78397500D01*
X94487307Y-78394308D01*
X94455243Y-78397500D01*
X94387556Y-78397500D01*
X94349254Y-78394411D01*
X94290496Y-78401251D01*
X94231617Y-78407050D01*
X94194840Y-78418206D01*
X92802577Y-78720873D01*
X92111058Y-78778500D01*
X91441850Y-78778500D01*
X90911228Y-78672375D01*
X90843561Y-78649820D01*
X90615746Y-78497943D01*
X90483036Y-78338692D01*
X90648112Y-78220781D01*
X91310127Y-77859683D01*
X92094445Y-77437359D01*
X92113339Y-77430283D01*
X92151547Y-77406611D01*
X92162449Y-77400741D01*
X92179103Y-77389539D01*
X92196164Y-77378969D01*
X92205998Y-77371449D01*
X92243295Y-77346362D01*
X92257519Y-77332051D01*
X92976163Y-76782500D01*
X109904428Y-76782500D01*
X109916688Y-76906982D01*
X109952998Y-77026680D01*
X110011963Y-77136994D01*
X110091315Y-77233685D01*
X110188006Y-77313037D01*
X110298320Y-77372002D01*
X110418018Y-77408312D01*
X110542500Y-77420572D01*
X111156750Y-77417500D01*
X111315500Y-77258750D01*
X111315500Y-76009500D01*
X110066250Y-76009500D01*
X109907500Y-76168250D01*
X109904428Y-76782500D01*
X92976163Y-76782500D01*
X93299144Y-76535515D01*
X93322580Y-76517928D01*
X93324783Y-76515909D01*
X93327169Y-76514084D01*
X93348703Y-76493982D01*
X94106796Y-75799063D01*
X94129053Y-75778952D01*
X94130639Y-75777207D01*
X94132375Y-75775616D01*
X94152395Y-75753276D01*
X95388688Y-74393354D01*
X95401938Y-74382457D01*
X95432309Y-74345370D01*
X95442668Y-74333976D01*
X95452866Y-74320269D01*
X95463670Y-74307076D01*
X95472196Y-74294287D01*
X95500826Y-74255805D01*
X95508189Y-74240298D01*
X95565944Y-74153665D01*
X100101500Y-74153665D01*
X100101500Y-74436335D01*
X100156647Y-74713574D01*
X100264820Y-74974727D01*
X100421863Y-75209759D01*
X100621741Y-75409637D01*
X100856773Y-75566680D01*
X101117926Y-75674853D01*
X101395165Y-75730000D01*
X101677835Y-75730000D01*
X101955074Y-75674853D01*
X102216227Y-75566680D01*
X102451259Y-75409637D01*
X102651137Y-75209759D01*
X102802986Y-74982500D01*
X109904428Y-74982500D01*
X109907500Y-75596750D01*
X110066250Y-75755500D01*
X111315500Y-75755500D01*
X111315500Y-74506250D01*
X111156750Y-74347500D01*
X110542500Y-74344428D01*
X110418018Y-74356688D01*
X110298320Y-74392998D01*
X110188006Y-74451963D01*
X110091315Y-74531315D01*
X110011963Y-74628006D01*
X109952998Y-74738320D01*
X109916688Y-74858018D01*
X109904428Y-74982500D01*
X102802986Y-74982500D01*
X102808180Y-74974727D01*
X102916353Y-74713574D01*
X102971500Y-74436335D01*
X102971500Y-74153665D01*
X102916353Y-73876426D01*
X102808180Y-73615273D01*
X102651137Y-73380241D01*
X102451259Y-73180363D01*
X102216227Y-73023320D01*
X101955074Y-72915147D01*
X101677835Y-72860000D01*
X101395165Y-72860000D01*
X101117926Y-72915147D01*
X100856773Y-73023320D01*
X100621741Y-73180363D01*
X100421863Y-73380241D01*
X100264820Y-73615273D01*
X100156647Y-73876426D01*
X100101500Y-74153665D01*
X95565944Y-74153665D01*
X96624703Y-72565527D01*
X96641967Y-72539742D01*
X96642268Y-72539179D01*
X96642636Y-72538628D01*
X96657778Y-72510228D01*
X97581144Y-70786612D01*
X97583876Y-70783200D01*
X97611808Y-70729373D01*
X97625085Y-70704590D01*
X97626752Y-70700575D01*
X97628754Y-70696718D01*
X97639196Y-70670612D01*
X97662455Y-70614609D01*
X97663311Y-70610325D01*
X97871575Y-70089665D01*
X106070500Y-70089665D01*
X106070500Y-70372335D01*
X106125647Y-70649574D01*
X106233820Y-70910727D01*
X106390863Y-71145759D01*
X106590741Y-71345637D01*
X106825773Y-71502680D01*
X107086926Y-71610853D01*
X107364165Y-71666000D01*
X107646835Y-71666000D01*
X107924074Y-71610853D01*
X108185227Y-71502680D01*
X108420259Y-71345637D01*
X108620137Y-71145759D01*
X108777180Y-70910727D01*
X108885353Y-70649574D01*
X108940500Y-70372335D01*
X108940500Y-70089665D01*
X108885353Y-69812426D01*
X108777180Y-69551273D01*
X108620137Y-69316241D01*
X108420259Y-69116363D01*
X108185227Y-68959320D01*
X107924074Y-68851147D01*
X107646835Y-68796000D01*
X107364165Y-68796000D01*
X107086926Y-68851147D01*
X106825773Y-68959320D01*
X106590741Y-69116363D01*
X106390863Y-69316241D01*
X106233820Y-69551273D01*
X106125647Y-69812426D01*
X106070500Y-70089665D01*
X97871575Y-70089665D01*
X98138392Y-69422624D01*
X98140370Y-69418684D01*
X98150430Y-69392529D01*
X98160834Y-69366518D01*
X98162062Y-69362285D01*
X98448416Y-68617765D01*
X98550820Y-68672502D01*
X98670518Y-68708812D01*
X98795000Y-68721072D01*
X99409250Y-68718000D01*
X99568000Y-68559250D01*
X99568000Y-67310000D01*
X99548000Y-67310000D01*
X99548000Y-67056000D01*
X99568000Y-67056000D01*
X99568000Y-65806750D01*
X99822000Y-65806750D01*
X99822000Y-67056000D01*
X99842000Y-67056000D01*
X99842000Y-67310000D01*
X99822000Y-67310000D01*
X99822000Y-68559250D01*
X99980750Y-68718000D01*
X100595000Y-68721072D01*
X100719482Y-68708812D01*
X100839180Y-68672502D01*
X100949494Y-68613537D01*
X101046185Y-68534185D01*
X101125537Y-68437494D01*
X101184502Y-68327180D01*
X101190056Y-68308873D01*
X101256495Y-68375312D01*
X101507905Y-68543299D01*
X101787257Y-68659011D01*
X102083816Y-68718000D01*
X102386184Y-68718000D01*
X102682743Y-68659011D01*
X102962095Y-68543299D01*
X103213505Y-68375312D01*
X103427312Y-68161505D01*
X103595299Y-67910095D01*
X103711011Y-67630743D01*
X103770000Y-67334184D01*
X103770000Y-67031816D01*
X103711011Y-66735257D01*
X103595299Y-66455905D01*
X103427312Y-66204495D01*
X103213505Y-65990688D01*
X102962095Y-65822701D01*
X102682743Y-65706989D01*
X102386184Y-65648000D01*
X102083816Y-65648000D01*
X101787257Y-65706989D01*
X101507905Y-65822701D01*
X101256495Y-65990688D01*
X101190056Y-66057127D01*
X101184502Y-66038820D01*
X101125537Y-65928506D01*
X101046185Y-65831815D01*
X100949494Y-65752463D01*
X100839180Y-65693498D01*
X100719482Y-65657188D01*
X100595000Y-65644928D01*
X99980750Y-65648000D01*
X99822000Y-65806750D01*
X99568000Y-65806750D01*
X99409250Y-65648000D01*
X99319115Y-65647549D01*
X99768436Y-63513273D01*
X99774554Y-63486042D01*
X99775100Y-63481618D01*
X99776021Y-63477244D01*
X99779072Y-63449450D01*
X100213613Y-59929665D01*
X106070500Y-59929665D01*
X106070500Y-60212335D01*
X106125647Y-60489574D01*
X106233820Y-60750727D01*
X106390863Y-60985759D01*
X106590741Y-61185637D01*
X106825773Y-61342680D01*
X107086926Y-61450853D01*
X107364165Y-61506000D01*
X107646835Y-61506000D01*
X107924074Y-61450853D01*
X108185227Y-61342680D01*
X108420259Y-61185637D01*
X108620137Y-60985759D01*
X108777180Y-60750727D01*
X108885353Y-60489574D01*
X108940500Y-60212335D01*
X108940500Y-59929665D01*
X108885353Y-59652426D01*
X108777180Y-59391273D01*
X108620137Y-59156241D01*
X108420259Y-58956363D01*
X108185227Y-58799320D01*
X107924074Y-58691147D01*
X107646835Y-58636000D01*
X107364165Y-58636000D01*
X107086926Y-58691147D01*
X106825773Y-58799320D01*
X106590741Y-58956363D01*
X106390863Y-59156241D01*
X106233820Y-59391273D01*
X106125647Y-59652426D01*
X106070500Y-59929665D01*
X100213613Y-59929665D01*
X100408872Y-58348072D01*
X100892163Y-56354500D01*
X101368347Y-55342609D01*
X101856478Y-54366348D01*
X101906037Y-54289757D01*
X101903428Y-54811500D01*
X101915688Y-54935982D01*
X101951998Y-55055680D01*
X102010963Y-55165994D01*
X102090315Y-55262685D01*
X102187006Y-55342037D01*
X102297320Y-55401002D01*
X102417018Y-55437312D01*
X102541500Y-55449572D01*
X103155750Y-55446500D01*
X103314500Y-55287750D01*
X103314500Y-54038500D01*
X103294500Y-54038500D01*
X103294500Y-53784500D01*
X103314500Y-53784500D01*
X103314500Y-53764500D01*
X103568500Y-53764500D01*
X103568500Y-53784500D01*
M02*
