G04 #@! TF.GenerationSoftware,KiCad,Pcbnew,(5.1.5)-3*
G04 #@! TF.CreationDate,2020-10-16T01:58:04+02:00*
G04 #@! TF.ProjectId,Christmas A,43687269-7374-46d6-9173-20412e6b6963,rev?*
G04 #@! TF.SameCoordinates,Original*
G04 #@! TF.FileFunction,Legend,Top*
G04 #@! TF.FilePolarity,Positive*
%FSLAX46Y46*%
G04 Gerber Fmt 4.6, Leading zero omitted, Abs format (unit mm)*
G04 Created by KiCad (PCBNEW (5.1.5)-3) date 2020-10-16 01:58:04*
%MOMM*%
%LPD*%
G04 APERTURE LIST*
%ADD10C,0.200000*%
%ADD11C,0.150000*%
%ADD12C,0.100000*%
%ADD13C,0.120000*%
G04 APERTURE END LIST*
D10*
X119634000Y-78295500D02*
X119761000Y-77851000D01*
X119443500Y-78676500D02*
X119634000Y-78295500D01*
X119126000Y-78994000D02*
X119443500Y-78676500D01*
X118427500Y-79248000D02*
X119126000Y-78994000D01*
X117792500Y-79311500D02*
X118427500Y-79248000D01*
X116903500Y-79311500D02*
X117792500Y-79311500D01*
X116014500Y-79184500D02*
X116903500Y-79311500D01*
X114998500Y-78930500D02*
X116014500Y-79184500D01*
X113792000Y-78740000D02*
X114998500Y-78930500D01*
X113347500Y-78740000D02*
X113792000Y-78740000D01*
X112268000Y-78867000D02*
X113347500Y-78740000D01*
X110998000Y-78994000D02*
X112268000Y-78867000D01*
X110109000Y-78994000D02*
X110998000Y-78994000D01*
X108521500Y-78867000D02*
X110109000Y-78994000D01*
X107188000Y-78549500D02*
X108521500Y-78867000D01*
X105981500Y-78422500D02*
X107188000Y-78549500D01*
X104965500Y-78359000D02*
X105981500Y-78422500D01*
X103759000Y-78486000D02*
X104965500Y-78359000D01*
X102870000Y-78740000D02*
X103759000Y-78486000D01*
X102298500Y-78994000D02*
X102870000Y-78740000D01*
X101663500Y-79121000D02*
X102298500Y-78994000D01*
X99949000Y-79565500D02*
X100457000Y-79438500D01*
X98615500Y-79565500D02*
X99949000Y-79565500D01*
X97345500Y-79438500D02*
X98615500Y-79565500D01*
X96266000Y-79248000D02*
X97345500Y-79438500D01*
X95250000Y-79057500D02*
X96266000Y-79248000D01*
X94551500Y-78994000D02*
X95250000Y-79057500D01*
X94361000Y-78994000D02*
X94551500Y-78994000D01*
X93789500Y-79121000D02*
X94361000Y-78994000D01*
X92900500Y-79311500D02*
X93789500Y-79121000D01*
X92138500Y-79375000D02*
X92900500Y-79311500D01*
X91376500Y-79375000D02*
X92138500Y-79375000D01*
X90995500Y-79311500D02*
X91376500Y-79375000D01*
X90551000Y-79184500D02*
X90995500Y-79311500D01*
X90170000Y-78930500D02*
X90551000Y-79184500D01*
X89916000Y-78613000D02*
X90170000Y-78930500D01*
X89725500Y-77978000D02*
X89916000Y-78613000D01*
X125095000Y-87058500D02*
X125158500Y-86741000D01*
X124777500Y-87757000D02*
X125095000Y-87058500D01*
X124333000Y-88138000D02*
X124777500Y-87757000D01*
X123507500Y-88455500D02*
X124333000Y-88138000D01*
X122555000Y-88582500D02*
X123507500Y-88455500D01*
X121285000Y-88582500D02*
X122555000Y-88582500D01*
X120015000Y-88455500D02*
X121285000Y-88582500D01*
X118427500Y-88138000D02*
X120015000Y-88455500D01*
X117221000Y-87757000D02*
X118427500Y-88138000D01*
X116268500Y-87376000D02*
X117221000Y-87757000D01*
X115379500Y-86931500D02*
X116268500Y-87376000D01*
X114490500Y-86614000D02*
X115379500Y-86931500D01*
X113538000Y-86233000D02*
X114490500Y-86614000D01*
X112712500Y-85852000D02*
X113538000Y-86233000D01*
X112077500Y-85534500D02*
X112712500Y-85852000D01*
X111442500Y-85344000D02*
X112077500Y-85534500D01*
X110680500Y-85217000D02*
X111442500Y-85344000D01*
X110426500Y-85217000D02*
X110680500Y-85217000D01*
X108013500Y-85725000D02*
X109347000Y-85280500D01*
X106553000Y-86042500D02*
X108013500Y-85725000D01*
X104648000Y-85979000D02*
X106553000Y-86042500D01*
X103251000Y-85725000D02*
X104648000Y-85979000D01*
X101663500Y-85534500D02*
X103251000Y-85725000D01*
X100457000Y-85280500D02*
X101663500Y-85534500D01*
X99758500Y-85217000D02*
X100457000Y-85280500D01*
X97790000Y-85407500D02*
X99758500Y-85217000D01*
X96202500Y-85915500D02*
X97790000Y-85407500D01*
X95186500Y-86423500D02*
X96202500Y-85915500D01*
X94234000Y-86995000D02*
X95186500Y-86423500D01*
X93853000Y-87249000D02*
X94234000Y-86995000D01*
X93599000Y-87376000D02*
X93853000Y-87249000D01*
X92456000Y-87884000D02*
X93599000Y-87376000D01*
X91567000Y-88138000D02*
X92456000Y-87884000D01*
X90424000Y-88455500D02*
X91567000Y-88138000D01*
X89725500Y-88582500D02*
X90424000Y-88455500D01*
X88519000Y-88773000D02*
X89725500Y-88582500D01*
X87249000Y-88773000D02*
X88519000Y-88773000D01*
X86360000Y-88709500D02*
X87249000Y-88773000D01*
X85407500Y-88455500D02*
X86360000Y-88709500D01*
X84709000Y-88138000D02*
X85407500Y-88455500D01*
X84137500Y-87566500D02*
X84709000Y-88138000D01*
X83820000Y-86614000D02*
X84137500Y-87566500D01*
X144716500Y-124015500D02*
X144716500Y-123507500D01*
X144653000Y-124396500D02*
X144716500Y-124015500D01*
X144208500Y-125222000D02*
X144653000Y-124396500D01*
X143573500Y-125793500D02*
X144208500Y-125222000D01*
X143129000Y-126047500D02*
X143573500Y-125793500D01*
X142113000Y-126619000D02*
X143129000Y-126047500D01*
X140906500Y-127063500D02*
X142113000Y-126619000D01*
X139763500Y-127381000D02*
X140906500Y-127063500D01*
X139319000Y-127444500D02*
X139763500Y-127381000D01*
X138049000Y-127698500D02*
X139319000Y-127444500D01*
X136779000Y-127952500D02*
X138049000Y-127698500D01*
X136144000Y-128016000D02*
X136779000Y-127952500D01*
X133731000Y-128270000D02*
X136144000Y-128016000D01*
X132207000Y-128333500D02*
X133731000Y-128270000D01*
X131000500Y-128397000D02*
X132207000Y-128333500D01*
X128016000Y-128397000D02*
X131000500Y-128397000D01*
X126746000Y-128397000D02*
X128016000Y-128397000D01*
X125476000Y-128333500D02*
X126746000Y-128397000D01*
X123888500Y-128270000D02*
X125476000Y-128333500D01*
X122618500Y-128143000D02*
X123888500Y-128270000D01*
X121221500Y-128016000D02*
X122618500Y-128143000D01*
X120459500Y-127952500D02*
X121221500Y-128016000D01*
X119951500Y-128016000D02*
X120459500Y-127952500D01*
X118427500Y-128143000D02*
X119951500Y-128016000D01*
X116840000Y-128270000D02*
X118427500Y-128143000D01*
X115887500Y-128333500D02*
X116840000Y-128270000D01*
X114871500Y-128460500D02*
X115887500Y-128333500D01*
X114300000Y-128460500D02*
X114871500Y-128460500D01*
X113601500Y-128270000D02*
X114300000Y-128460500D01*
X112966500Y-127762000D02*
X113601500Y-128270000D01*
X112331500Y-127317500D02*
X112966500Y-127762000D01*
X111760000Y-127127000D02*
X112331500Y-127317500D01*
X111061500Y-127190500D02*
X111760000Y-127127000D01*
X110680500Y-127317500D02*
X111061500Y-127190500D01*
X108648500Y-128016000D02*
X109664500Y-127698500D01*
X107061000Y-128587500D02*
X108648500Y-128016000D01*
X105537000Y-129032000D02*
X107061000Y-128587500D01*
X104013000Y-129286000D02*
X105537000Y-129032000D01*
X101917500Y-129349500D02*
X104013000Y-129286000D01*
X98679000Y-129032000D02*
X101917500Y-129349500D01*
X94297500Y-128524000D02*
X98679000Y-129032000D01*
X93916500Y-128524000D02*
X94297500Y-128524000D01*
X93408500Y-128460500D02*
X93916500Y-128524000D01*
X91313000Y-128270000D02*
X93408500Y-128460500D01*
X89852500Y-128079500D02*
X91313000Y-128270000D01*
X89027000Y-128016000D02*
X89852500Y-128079500D01*
X88265000Y-128079500D02*
X89027000Y-128016000D01*
X84899500Y-128333500D02*
X88265000Y-128079500D01*
X83947000Y-128397000D02*
X84899500Y-128333500D01*
X80835500Y-128524000D02*
X83947000Y-128397000D01*
X78803500Y-128524000D02*
X80835500Y-128524000D01*
X78041500Y-128460500D02*
X78803500Y-128524000D01*
X75565000Y-128333500D02*
X78041500Y-128460500D01*
X73088500Y-128079500D02*
X75565000Y-128333500D01*
X70993000Y-127762000D02*
X73088500Y-128079500D01*
X69405500Y-127381000D02*
X70993000Y-127762000D01*
X67437000Y-126682500D02*
X69405500Y-127381000D01*
X66421000Y-126174500D02*
X67437000Y-126682500D01*
X65722500Y-125730000D02*
X66421000Y-126174500D01*
X65214500Y-125222000D02*
X65722500Y-125730000D01*
X64960500Y-124841000D02*
X65214500Y-125222000D01*
X64833500Y-124523500D02*
X64960500Y-124841000D01*
X64579500Y-123888500D02*
X64833500Y-124523500D01*
X137287000Y-110363000D02*
X137287000Y-109855000D01*
X137223500Y-110617000D02*
X137287000Y-110363000D01*
X137033000Y-111125000D02*
X137223500Y-110617000D01*
X136652000Y-111569500D02*
X137033000Y-111125000D01*
X136080500Y-112077500D02*
X136652000Y-111569500D01*
X135763000Y-112268000D02*
X136080500Y-112077500D01*
X135191500Y-112522000D02*
X135763000Y-112268000D01*
X134620000Y-112649000D02*
X135191500Y-112522000D01*
X133921500Y-112776000D02*
X134620000Y-112649000D01*
X132461000Y-112903000D02*
X133921500Y-112776000D01*
X131635500Y-112903000D02*
X132461000Y-112903000D01*
X129286000Y-112839500D02*
X131635500Y-112903000D01*
X128397000Y-112712500D02*
X129286000Y-112839500D01*
X127381000Y-112585500D02*
X128397000Y-112712500D01*
X126111000Y-112331500D02*
X127381000Y-112585500D01*
X124904500Y-112077500D02*
X126111000Y-112331500D01*
X124269500Y-111887000D02*
X124904500Y-112077500D01*
X123952000Y-111696500D02*
X124269500Y-111887000D01*
X123571000Y-111315500D02*
X123952000Y-111696500D01*
X123126500Y-111061500D02*
X123571000Y-111315500D01*
X122745500Y-111061500D02*
X123126500Y-111061500D01*
X122364500Y-111188500D02*
X122745500Y-111061500D01*
X119507000Y-112522000D02*
X121412000Y-111633000D01*
X117729000Y-112585500D02*
X119507000Y-112522000D01*
X112776000Y-111950500D02*
X117729000Y-112585500D01*
X108585000Y-111252000D02*
X112776000Y-111950500D01*
X106045000Y-111061500D02*
X108585000Y-111252000D01*
X103314500Y-111188500D02*
X106045000Y-111061500D01*
X100584000Y-111569500D02*
X103314500Y-111188500D01*
X97980500Y-112141000D02*
X100584000Y-111569500D01*
X96964500Y-112458500D02*
X97980500Y-112141000D01*
X94488000Y-112966500D02*
X95821500Y-112712500D01*
X92392500Y-112966500D02*
X94488000Y-112966500D01*
X89916000Y-112585500D02*
X92392500Y-112966500D01*
X87884000Y-112141000D02*
X89916000Y-112585500D01*
X86423500Y-111950500D02*
X87884000Y-112141000D01*
X85344000Y-111950500D02*
X86423500Y-111950500D01*
X83820000Y-112331500D02*
X85344000Y-111950500D01*
X82105500Y-112649000D02*
X83820000Y-112331500D01*
X80454500Y-112839500D02*
X82105500Y-112649000D01*
X77978000Y-113030000D02*
X80454500Y-112839500D01*
X75628500Y-112903000D02*
X77978000Y-113030000D01*
X74739500Y-112712500D02*
X75628500Y-112903000D01*
X73787000Y-112331500D02*
X74739500Y-112712500D01*
X73025000Y-111887000D02*
X73787000Y-112331500D01*
X72580500Y-111379000D02*
X73025000Y-111887000D01*
X72263000Y-110807500D02*
X72580500Y-111379000D01*
X72263000Y-110045500D02*
X72263000Y-110807500D01*
X129159000Y-98044000D02*
X129159000Y-97663000D01*
X129095500Y-98298000D02*
X129159000Y-98044000D01*
X128841500Y-98806000D02*
X129095500Y-98298000D01*
X128460500Y-99187000D02*
X128841500Y-98806000D01*
X127762000Y-99568000D02*
X128460500Y-99187000D01*
X127381000Y-99695000D02*
X127762000Y-99568000D01*
X126682500Y-99822000D02*
X127381000Y-99695000D01*
X124777500Y-99949000D02*
X126682500Y-99822000D01*
X124015500Y-99949000D02*
X124777500Y-99949000D01*
X122491500Y-99758500D02*
X124015500Y-99949000D01*
X120904000Y-99568000D02*
X122491500Y-99758500D01*
X119888000Y-99504500D02*
X120904000Y-99568000D01*
X118618000Y-99758500D02*
X119888000Y-99504500D01*
X117602000Y-100076000D02*
X118618000Y-99758500D01*
X116141500Y-100203000D02*
X117602000Y-100076000D01*
X112966500Y-99758500D02*
X116141500Y-100203000D01*
X109410500Y-99060000D02*
X112966500Y-99758500D01*
X105854500Y-98107500D02*
X109410500Y-99060000D01*
X102298500Y-97409000D02*
X105854500Y-98107500D01*
X100584000Y-96901000D02*
X102298500Y-97409000D01*
X99631500Y-96774000D02*
X100584000Y-96901000D01*
X97917000Y-96583500D02*
X98171000Y-96583500D01*
X96901000Y-96774000D02*
X97917000Y-96583500D01*
X94996000Y-97409000D02*
X96901000Y-96774000D01*
X91122500Y-98806000D02*
X94996000Y-97409000D01*
X88519000Y-99568000D02*
X91122500Y-98806000D01*
X88265000Y-99631500D02*
X88519000Y-99568000D01*
X86042500Y-99949000D02*
X88265000Y-99631500D01*
X84772500Y-100012500D02*
X86042500Y-99949000D01*
X83058000Y-99949000D02*
X84772500Y-100012500D01*
X82105500Y-99822000D02*
X83058000Y-99949000D01*
X81407000Y-99631500D02*
X82105500Y-99822000D01*
X80835500Y-99314000D02*
X81407000Y-99631500D01*
X80327500Y-98806000D02*
X80835500Y-99314000D01*
X80137000Y-98425000D02*
X80327500Y-98806000D01*
X80137000Y-97980500D02*
X80137000Y-98425000D01*
D11*
X102298500Y-107442000D02*
X102044500Y-107188000D01*
X102298500Y-106426000D02*
X102044500Y-106680000D01*
X99504500Y-107442000D02*
X99250500Y-107696000D01*
X99504500Y-106680000D02*
X99250500Y-106426000D01*
X101028500Y-108204000D02*
X101282500Y-108458000D01*
X100266500Y-108458000D02*
X100520500Y-108204000D01*
X101028500Y-105664000D02*
X101282500Y-105410000D01*
X100266500Y-105410000D02*
X100520500Y-105664000D01*
X100266500Y-107442000D02*
X99250500Y-108458000D01*
X101282500Y-107442000D02*
X102298500Y-108458000D01*
X101282500Y-106426000D02*
X102298500Y-105410000D01*
X99250500Y-105410000D02*
X100266500Y-106426000D01*
X100774500Y-106680000D02*
X100774500Y-104902000D01*
X101028500Y-106934000D02*
X102806500Y-106934000D01*
X98742500Y-106934000D02*
X100520500Y-106934000D01*
X100774500Y-107188000D02*
X100774500Y-108966000D01*
X101536500Y-105156000D02*
X102552500Y-105156000D01*
X100774500Y-104434000D02*
X100012500Y-105156000D01*
X101536500Y-108712000D02*
X102552500Y-108712000D01*
X100774500Y-109434000D02*
X100012500Y-108712000D01*
X102552500Y-106172000D02*
X103274500Y-106934000D01*
X102552500Y-107696000D02*
X103274500Y-106934000D01*
X102552500Y-107696000D02*
X102552500Y-108712000D01*
X98996500Y-107696000D02*
X98996500Y-108712000D01*
X98996500Y-106172000D02*
X98996500Y-105156000D01*
X100012500Y-108712000D02*
X98996500Y-108712000D01*
X102552500Y-105156000D02*
X102552500Y-106172000D01*
X98996500Y-105156000D02*
X100012500Y-105156000D01*
X101536500Y-105156000D02*
X100774500Y-104434000D01*
X100774500Y-109434000D02*
X101536500Y-108712000D01*
X98274500Y-106934000D02*
X98996500Y-107696000D01*
X98996500Y-106172000D02*
X98274500Y-106934000D01*
X101028500Y-103124000D02*
X100774500Y-103886000D01*
X100774500Y-102362000D02*
X101028500Y-103124000D01*
X100520500Y-103124000D02*
X100774500Y-102362000D01*
X100774500Y-103886000D02*
X100520500Y-103124000D01*
X100774500Y-104394000D02*
X100774500Y-103886000D01*
X115951000Y-81788000D02*
X115951000Y-81280000D01*
X115951000Y-81280000D02*
X115697000Y-80518000D01*
X115697000Y-80518000D02*
X115951000Y-79756000D01*
X115951000Y-79756000D02*
X116205000Y-80518000D01*
X116205000Y-80518000D02*
X115951000Y-81280000D01*
X114173000Y-83566000D02*
X113451000Y-84328000D01*
X113451000Y-84328000D02*
X114173000Y-85090000D01*
X115951000Y-86828000D02*
X116713000Y-86106000D01*
X116713000Y-82550000D02*
X115951000Y-81828000D01*
X114173000Y-82550000D02*
X115189000Y-82550000D01*
X117729000Y-82550000D02*
X117729000Y-83566000D01*
X115189000Y-86106000D02*
X114173000Y-86106000D01*
X114173000Y-83566000D02*
X114173000Y-82550000D01*
X114173000Y-85090000D02*
X114173000Y-86106000D01*
X117729000Y-85090000D02*
X117729000Y-86106000D01*
X117729000Y-85090000D02*
X118451000Y-84328000D01*
X117729000Y-83566000D02*
X118451000Y-84328000D01*
X115951000Y-86828000D02*
X115189000Y-86106000D01*
X116713000Y-86106000D02*
X117729000Y-86106000D01*
X115951000Y-81828000D02*
X115189000Y-82550000D01*
X116713000Y-82550000D02*
X117729000Y-82550000D01*
X115951000Y-84582000D02*
X115951000Y-86360000D01*
X113919000Y-84328000D02*
X115697000Y-84328000D01*
X116205000Y-84328000D02*
X117983000Y-84328000D01*
X115951000Y-84074000D02*
X115951000Y-82296000D01*
X114427000Y-82804000D02*
X115443000Y-83820000D01*
X116459000Y-83820000D02*
X117475000Y-82804000D01*
X116459000Y-84836000D02*
X117475000Y-85852000D01*
X115443000Y-84836000D02*
X114427000Y-85852000D01*
X115443000Y-82804000D02*
X115697000Y-83058000D01*
X116205000Y-83058000D02*
X116459000Y-82804000D01*
X115443000Y-85852000D02*
X115697000Y-85598000D01*
X116205000Y-85598000D02*
X116459000Y-85852000D01*
X114681000Y-84074000D02*
X114427000Y-83820000D01*
X114681000Y-84836000D02*
X114427000Y-85090000D01*
X117475000Y-83820000D02*
X117221000Y-84074000D01*
X117475000Y-84836000D02*
X117221000Y-84582000D01*
X97028000Y-72898000D02*
X97028000Y-72390000D01*
X97028000Y-72390000D02*
X96774000Y-71628000D01*
X96774000Y-71628000D02*
X97028000Y-70866000D01*
X97028000Y-70866000D02*
X97282000Y-71628000D01*
X97282000Y-71628000D02*
X97028000Y-72390000D01*
X95250000Y-74676000D02*
X94528000Y-75438000D01*
X94528000Y-75438000D02*
X95250000Y-76200000D01*
X97028000Y-77938000D02*
X97790000Y-77216000D01*
X97790000Y-73660000D02*
X97028000Y-72938000D01*
X95250000Y-73660000D02*
X96266000Y-73660000D01*
X98806000Y-73660000D02*
X98806000Y-74676000D01*
X96266000Y-77216000D02*
X95250000Y-77216000D01*
X95250000Y-74676000D02*
X95250000Y-73660000D01*
X95250000Y-76200000D02*
X95250000Y-77216000D01*
X98806000Y-76200000D02*
X98806000Y-77216000D01*
X98806000Y-76200000D02*
X99528000Y-75438000D01*
X98806000Y-74676000D02*
X99528000Y-75438000D01*
X97028000Y-77938000D02*
X96266000Y-77216000D01*
X97790000Y-77216000D02*
X98806000Y-77216000D01*
X97028000Y-72938000D02*
X96266000Y-73660000D01*
X97790000Y-73660000D02*
X98806000Y-73660000D01*
X97028000Y-75692000D02*
X97028000Y-77470000D01*
X94996000Y-75438000D02*
X96774000Y-75438000D01*
X97282000Y-75438000D02*
X99060000Y-75438000D01*
X97028000Y-75184000D02*
X97028000Y-73406000D01*
X95504000Y-73914000D02*
X96520000Y-74930000D01*
X97536000Y-74930000D02*
X98552000Y-73914000D01*
X97536000Y-75946000D02*
X98552000Y-76962000D01*
X96520000Y-75946000D02*
X95504000Y-76962000D01*
X96520000Y-73914000D02*
X96774000Y-74168000D01*
X97282000Y-74168000D02*
X97536000Y-73914000D01*
X96520000Y-76962000D02*
X96774000Y-76708000D01*
X97282000Y-76708000D02*
X97536000Y-76962000D01*
X95758000Y-75184000D02*
X95504000Y-74930000D01*
X95758000Y-75946000D02*
X95504000Y-76200000D01*
X98552000Y-74930000D02*
X98298000Y-75184000D01*
X98552000Y-75946000D02*
X98298000Y-75692000D01*
X128016000Y-118046500D02*
X128016000Y-117538500D01*
X128016000Y-117538500D02*
X127762000Y-116776500D01*
X127762000Y-116776500D02*
X128016000Y-116014500D01*
X128016000Y-116014500D02*
X128270000Y-116776500D01*
X128270000Y-116776500D02*
X128016000Y-117538500D01*
X126238000Y-119824500D02*
X125516000Y-120586500D01*
X125516000Y-120586500D02*
X126238000Y-121348500D01*
X128016000Y-123086500D02*
X128778000Y-122364500D01*
X128778000Y-118808500D02*
X128016000Y-118086500D01*
X126238000Y-118808500D02*
X127254000Y-118808500D01*
X129794000Y-118808500D02*
X129794000Y-119824500D01*
X127254000Y-122364500D02*
X126238000Y-122364500D01*
X126238000Y-119824500D02*
X126238000Y-118808500D01*
X126238000Y-121348500D02*
X126238000Y-122364500D01*
X129794000Y-121348500D02*
X129794000Y-122364500D01*
X129794000Y-121348500D02*
X130516000Y-120586500D01*
X129794000Y-119824500D02*
X130516000Y-120586500D01*
X128016000Y-123086500D02*
X127254000Y-122364500D01*
X128778000Y-122364500D02*
X129794000Y-122364500D01*
X128016000Y-118086500D02*
X127254000Y-118808500D01*
X128778000Y-118808500D02*
X129794000Y-118808500D01*
X128016000Y-120840500D02*
X128016000Y-122618500D01*
X125984000Y-120586500D02*
X127762000Y-120586500D01*
X128270000Y-120586500D02*
X130048000Y-120586500D01*
X128016000Y-120332500D02*
X128016000Y-118554500D01*
X126492000Y-119062500D02*
X127508000Y-120078500D01*
X128524000Y-120078500D02*
X129540000Y-119062500D01*
X128524000Y-121094500D02*
X129540000Y-122110500D01*
X127508000Y-121094500D02*
X126492000Y-122110500D01*
X127508000Y-119062500D02*
X127762000Y-119316500D01*
X128270000Y-119316500D02*
X128524000Y-119062500D01*
X127508000Y-122110500D02*
X127762000Y-121856500D01*
X128270000Y-121856500D02*
X128524000Y-122110500D01*
X126746000Y-120332500D02*
X126492000Y-120078500D01*
X126746000Y-121094500D02*
X126492000Y-121348500D01*
X129540000Y-120078500D02*
X129286000Y-120332500D01*
X129540000Y-121094500D02*
X129286000Y-120840500D01*
X116713000Y-102552500D02*
X116713000Y-102044500D01*
X116713000Y-102044500D02*
X116459000Y-101282500D01*
X116459000Y-101282500D02*
X116713000Y-100520500D01*
X116713000Y-100520500D02*
X116967000Y-101282500D01*
X116967000Y-101282500D02*
X116713000Y-102044500D01*
X114935000Y-104330500D02*
X114213000Y-105092500D01*
X114213000Y-105092500D02*
X114935000Y-105854500D01*
X116713000Y-107592500D02*
X117475000Y-106870500D01*
X117475000Y-103314500D02*
X116713000Y-102592500D01*
X114935000Y-103314500D02*
X115951000Y-103314500D01*
X118491000Y-103314500D02*
X118491000Y-104330500D01*
X115951000Y-106870500D02*
X114935000Y-106870500D01*
X114935000Y-104330500D02*
X114935000Y-103314500D01*
X114935000Y-105854500D02*
X114935000Y-106870500D01*
X118491000Y-105854500D02*
X118491000Y-106870500D01*
X118491000Y-105854500D02*
X119213000Y-105092500D01*
X118491000Y-104330500D02*
X119213000Y-105092500D01*
X116713000Y-107592500D02*
X115951000Y-106870500D01*
X117475000Y-106870500D02*
X118491000Y-106870500D01*
X116713000Y-102592500D02*
X115951000Y-103314500D01*
X117475000Y-103314500D02*
X118491000Y-103314500D01*
X116713000Y-105346500D02*
X116713000Y-107124500D01*
X114681000Y-105092500D02*
X116459000Y-105092500D01*
X116967000Y-105092500D02*
X118745000Y-105092500D01*
X116713000Y-104838500D02*
X116713000Y-103060500D01*
X115189000Y-103568500D02*
X116205000Y-104584500D01*
X117221000Y-104584500D02*
X118237000Y-103568500D01*
X117221000Y-105600500D02*
X118237000Y-106616500D01*
X116205000Y-105600500D02*
X115189000Y-106616500D01*
X116205000Y-103568500D02*
X116459000Y-103822500D01*
X116967000Y-103822500D02*
X117221000Y-103568500D01*
X116205000Y-106616500D02*
X116459000Y-106362500D01*
X116967000Y-106362500D02*
X117221000Y-106616500D01*
X115443000Y-104838500D02*
X115189000Y-104584500D01*
X115443000Y-105600500D02*
X115189000Y-105854500D01*
X118237000Y-104584500D02*
X117983000Y-104838500D01*
X118237000Y-105600500D02*
X117983000Y-105346500D01*
X99568000Y-120332500D02*
X99568000Y-119824500D01*
X99568000Y-119824500D02*
X99314000Y-119062500D01*
X99314000Y-119062500D02*
X99568000Y-118300500D01*
X99568000Y-118300500D02*
X99822000Y-119062500D01*
X99822000Y-119062500D02*
X99568000Y-119824500D01*
X97790000Y-122110500D02*
X97068000Y-122872500D01*
X97068000Y-122872500D02*
X97790000Y-123634500D01*
X99568000Y-125372500D02*
X100330000Y-124650500D01*
X100330000Y-121094500D02*
X99568000Y-120372500D01*
X97790000Y-121094500D02*
X98806000Y-121094500D01*
X101346000Y-121094500D02*
X101346000Y-122110500D01*
X98806000Y-124650500D02*
X97790000Y-124650500D01*
X97790000Y-122110500D02*
X97790000Y-121094500D01*
X97790000Y-123634500D02*
X97790000Y-124650500D01*
X101346000Y-123634500D02*
X101346000Y-124650500D01*
X101346000Y-123634500D02*
X102068000Y-122872500D01*
X101346000Y-122110500D02*
X102068000Y-122872500D01*
X99568000Y-125372500D02*
X98806000Y-124650500D01*
X100330000Y-124650500D02*
X101346000Y-124650500D01*
X99568000Y-120372500D02*
X98806000Y-121094500D01*
X100330000Y-121094500D02*
X101346000Y-121094500D01*
X99568000Y-123126500D02*
X99568000Y-124904500D01*
X97536000Y-122872500D02*
X99314000Y-122872500D01*
X99822000Y-122872500D02*
X101600000Y-122872500D01*
X99568000Y-122618500D02*
X99568000Y-120840500D01*
X98044000Y-121348500D02*
X99060000Y-122364500D01*
X100076000Y-122364500D02*
X101092000Y-121348500D01*
X100076000Y-123380500D02*
X101092000Y-124396500D01*
X99060000Y-123380500D02*
X98044000Y-124396500D01*
X99060000Y-121348500D02*
X99314000Y-121602500D01*
X99822000Y-121602500D02*
X100076000Y-121348500D01*
X99060000Y-124396500D02*
X99314000Y-124142500D01*
X99822000Y-124142500D02*
X100076000Y-124396500D01*
X98298000Y-122618500D02*
X98044000Y-122364500D01*
X98298000Y-123380500D02*
X98044000Y-123634500D01*
X101092000Y-122364500D02*
X100838000Y-122618500D01*
X101092000Y-123380500D02*
X100838000Y-123126500D01*
X95440500Y-94932500D02*
X95186500Y-94678500D01*
X95440500Y-93916500D02*
X95186500Y-94170500D01*
X92646500Y-94932500D02*
X92392500Y-95186500D01*
X92646500Y-94170500D02*
X92392500Y-93916500D01*
X94170500Y-95694500D02*
X94424500Y-95948500D01*
X93408500Y-95948500D02*
X93662500Y-95694500D01*
X94170500Y-93154500D02*
X94424500Y-92900500D01*
X93408500Y-92900500D02*
X93662500Y-93154500D01*
X93408500Y-94932500D02*
X92392500Y-95948500D01*
X94424500Y-94932500D02*
X95440500Y-95948500D01*
X94424500Y-93916500D02*
X95440500Y-92900500D01*
X92392500Y-92900500D02*
X93408500Y-93916500D01*
X93916500Y-94170500D02*
X93916500Y-92392500D01*
X94170500Y-94424500D02*
X95948500Y-94424500D01*
X91884500Y-94424500D02*
X93662500Y-94424500D01*
X93916500Y-94678500D02*
X93916500Y-96456500D01*
X94678500Y-92646500D02*
X95694500Y-92646500D01*
X93916500Y-91924500D02*
X93154500Y-92646500D01*
X94678500Y-96202500D02*
X95694500Y-96202500D01*
X93916500Y-96924500D02*
X93154500Y-96202500D01*
X95694500Y-93662500D02*
X96416500Y-94424500D01*
X95694500Y-95186500D02*
X96416500Y-94424500D01*
X95694500Y-95186500D02*
X95694500Y-96202500D01*
X92138500Y-95186500D02*
X92138500Y-96202500D01*
X92138500Y-93662500D02*
X92138500Y-92646500D01*
X93154500Y-96202500D02*
X92138500Y-96202500D01*
X95694500Y-92646500D02*
X95694500Y-93662500D01*
X92138500Y-92646500D02*
X93154500Y-92646500D01*
X94678500Y-92646500D02*
X93916500Y-91924500D01*
X93916500Y-96924500D02*
X94678500Y-96202500D01*
X91416500Y-94424500D02*
X92138500Y-95186500D01*
X92138500Y-93662500D02*
X91416500Y-94424500D01*
X94170500Y-90614500D02*
X93916500Y-91376500D01*
X93916500Y-89852500D02*
X94170500Y-90614500D01*
X93662500Y-90614500D02*
X93916500Y-89852500D01*
X93916500Y-91376500D02*
X93662500Y-90614500D01*
X93916500Y-91884500D02*
X93916500Y-91376500D01*
X107251500Y-62357000D02*
X107251500Y-61087000D01*
X105981500Y-67183000D02*
X107251500Y-67853000D01*
X108521500Y-63373000D02*
X105981500Y-64643000D01*
X105981500Y-64643000D02*
X108521500Y-65913000D01*
X107251500Y-62357000D02*
X108521500Y-63373000D01*
X107251500Y-67853000D02*
X107251500Y-68961000D01*
X108521500Y-65913000D02*
X105981500Y-67183000D01*
X107759500Y-67853000D02*
X107759500Y-68961000D01*
X107759500Y-62357000D02*
X107759500Y-61087000D01*
X106489500Y-67183000D02*
X107759500Y-67853000D01*
X109029500Y-65913000D02*
X106489500Y-67183000D01*
X106489500Y-64643000D02*
X109029500Y-65913000D01*
X109029500Y-63373000D02*
X106489500Y-64643000D01*
X107759500Y-62357000D02*
X109029500Y-63373000D01*
X101282500Y-76581000D02*
X101282500Y-75311000D01*
X100012500Y-81407000D02*
X101282500Y-82077000D01*
X102552500Y-77597000D02*
X100012500Y-78867000D01*
X100012500Y-78867000D02*
X102552500Y-80137000D01*
X101282500Y-76581000D02*
X102552500Y-77597000D01*
X101282500Y-82077000D02*
X101282500Y-83185000D01*
X102552500Y-80137000D02*
X100012500Y-81407000D01*
X101790500Y-82077000D02*
X101790500Y-83185000D01*
X101790500Y-76581000D02*
X101790500Y-75311000D01*
X100520500Y-81407000D02*
X101790500Y-82077000D01*
X103060500Y-80137000D02*
X100520500Y-81407000D01*
X100520500Y-78867000D02*
X103060500Y-80137000D01*
X103060500Y-77597000D02*
X100520500Y-78867000D01*
X101790500Y-76581000D02*
X103060500Y-77597000D01*
X99187000Y-92202000D02*
X99187000Y-90932000D01*
X97917000Y-97028000D02*
X99187000Y-97698000D01*
X100457000Y-93218000D02*
X97917000Y-94488000D01*
X97917000Y-94488000D02*
X100457000Y-95758000D01*
X99187000Y-92202000D02*
X100457000Y-93218000D01*
X99187000Y-97698000D02*
X99187000Y-98806000D01*
X100457000Y-95758000D02*
X97917000Y-97028000D01*
X99695000Y-97698000D02*
X99695000Y-98806000D01*
X99695000Y-92202000D02*
X99695000Y-90932000D01*
X98425000Y-97028000D02*
X99695000Y-97698000D01*
X100965000Y-95758000D02*
X98425000Y-97028000D01*
X98425000Y-94488000D02*
X100965000Y-95758000D01*
X100965000Y-93218000D02*
X98425000Y-94488000D01*
X99695000Y-92202000D02*
X100965000Y-93218000D01*
X96139000Y-106426000D02*
X96139000Y-105156000D01*
X94869000Y-111252000D02*
X96139000Y-111922000D01*
X97409000Y-107442000D02*
X94869000Y-108712000D01*
X94869000Y-108712000D02*
X97409000Y-109982000D01*
X96139000Y-106426000D02*
X97409000Y-107442000D01*
X96139000Y-111922000D02*
X96139000Y-113030000D01*
X97409000Y-109982000D02*
X94869000Y-111252000D01*
X96647000Y-111922000D02*
X96647000Y-113030000D01*
X96647000Y-106426000D02*
X96647000Y-105156000D01*
X95377000Y-111252000D02*
X96647000Y-111922000D01*
X97917000Y-109982000D02*
X95377000Y-111252000D01*
X95377000Y-108712000D02*
X97917000Y-109982000D01*
X97917000Y-107442000D02*
X95377000Y-108712000D01*
X96647000Y-106426000D02*
X97917000Y-107442000D01*
X91567000Y-116903500D02*
X91567000Y-115633500D01*
X90297000Y-121729500D02*
X91567000Y-122399500D01*
X92837000Y-117919500D02*
X90297000Y-119189500D01*
X90297000Y-119189500D02*
X92837000Y-120459500D01*
X91567000Y-116903500D02*
X92837000Y-117919500D01*
X91567000Y-122399500D02*
X91567000Y-123507500D01*
X92837000Y-120459500D02*
X90297000Y-121729500D01*
X92075000Y-122399500D02*
X92075000Y-123507500D01*
X92075000Y-116903500D02*
X92075000Y-115633500D01*
X90805000Y-121729500D02*
X92075000Y-122399500D01*
X93345000Y-120459500D02*
X90805000Y-121729500D01*
X90805000Y-119189500D02*
X93345000Y-120459500D01*
X93345000Y-117919500D02*
X90805000Y-119189500D01*
X92075000Y-116903500D02*
X93345000Y-117919500D01*
X109664500Y-85725000D02*
X109664500Y-84455000D01*
X108394500Y-90551000D02*
X109664500Y-91221000D01*
X110934500Y-86741000D02*
X108394500Y-88011000D01*
X108394500Y-88011000D02*
X110934500Y-89281000D01*
X109664500Y-85725000D02*
X110934500Y-86741000D01*
X109664500Y-91221000D02*
X109664500Y-92329000D01*
X110934500Y-89281000D02*
X108394500Y-90551000D01*
X110172500Y-91221000D02*
X110172500Y-92329000D01*
X110172500Y-85725000D02*
X110172500Y-84455000D01*
X108902500Y-90551000D02*
X110172500Y-91221000D01*
X111442500Y-89281000D02*
X108902500Y-90551000D01*
X108902500Y-88011000D02*
X111442500Y-89281000D01*
X111442500Y-86741000D02*
X108902500Y-88011000D01*
X110172500Y-85725000D02*
X111442500Y-86741000D01*
X120840500Y-108077000D02*
X120840500Y-106807000D01*
X119570500Y-112903000D02*
X120840500Y-113573000D01*
X122110500Y-109093000D02*
X119570500Y-110363000D01*
X119570500Y-110363000D02*
X122110500Y-111633000D01*
X120840500Y-108077000D02*
X122110500Y-109093000D01*
X120840500Y-113573000D02*
X120840500Y-114681000D01*
X122110500Y-111633000D02*
X119570500Y-112903000D01*
X121348500Y-113573000D02*
X121348500Y-114681000D01*
X121348500Y-108077000D02*
X121348500Y-106807000D01*
X120078500Y-112903000D02*
X121348500Y-113573000D01*
X122618500Y-111633000D02*
X120078500Y-112903000D01*
X120078500Y-110363000D02*
X122618500Y-111633000D01*
X122618500Y-109093000D02*
X120078500Y-110363000D01*
X121348500Y-108077000D02*
X122618500Y-109093000D01*
X116395500Y-117284500D02*
X116395500Y-116014500D01*
X115125500Y-122110500D02*
X116395500Y-122780500D01*
X117665500Y-118300500D02*
X115125500Y-119570500D01*
X115125500Y-119570500D02*
X117665500Y-120840500D01*
X116395500Y-117284500D02*
X117665500Y-118300500D01*
X116395500Y-122780500D02*
X116395500Y-123888500D01*
X117665500Y-120840500D02*
X115125500Y-122110500D01*
X116903500Y-122780500D02*
X116903500Y-123888500D01*
X116903500Y-117284500D02*
X116903500Y-116014500D01*
X115633500Y-122110500D02*
X116903500Y-122780500D01*
X118173500Y-120840500D02*
X115633500Y-122110500D01*
X115633500Y-119570500D02*
X118173500Y-120840500D01*
X118173500Y-118300500D02*
X115633500Y-119570500D01*
X116903500Y-117284500D02*
X118173500Y-118300500D01*
X109537500Y-124396500D02*
X109537500Y-123126500D01*
X108267500Y-129222500D02*
X109537500Y-129892500D01*
X110807500Y-125412500D02*
X108267500Y-126682500D01*
X108267500Y-126682500D02*
X110807500Y-127952500D01*
X109537500Y-124396500D02*
X110807500Y-125412500D01*
X109537500Y-129892500D02*
X109537500Y-131000500D01*
X110807500Y-127952500D02*
X108267500Y-129222500D01*
X110045500Y-129892500D02*
X110045500Y-131000500D01*
X110045500Y-124396500D02*
X110045500Y-123126500D01*
X108775500Y-129222500D02*
X110045500Y-129892500D01*
X111315500Y-127952500D02*
X108775500Y-129222500D01*
X108775500Y-126682500D02*
X111315500Y-127952500D01*
X111315500Y-125412500D02*
X108775500Y-126682500D01*
X110045500Y-124396500D02*
X111315500Y-125412500D01*
X94996000Y-79883000D02*
X94742000Y-80645000D01*
X94742000Y-79121000D02*
X94996000Y-79883000D01*
X94488000Y-79883000D02*
X94742000Y-79121000D01*
X94742000Y-80645000D02*
X94488000Y-79883000D01*
X94742000Y-81153000D02*
X94742000Y-80645000D01*
X94107000Y-83693000D02*
X95377000Y-83693000D01*
D12*
X97242000Y-83693000D02*
G75*
G03X97242000Y-83693000I-2500000J0D01*
G01*
D11*
X101219000Y-63373000D02*
X100965000Y-64135000D01*
X100965000Y-62611000D02*
X101219000Y-63373000D01*
X100711000Y-63373000D02*
X100965000Y-62611000D01*
X100965000Y-64135000D02*
X100711000Y-63373000D01*
X100965000Y-64643000D02*
X100965000Y-64135000D01*
X100330000Y-67183000D02*
X101600000Y-67183000D01*
D12*
X103465000Y-67183000D02*
G75*
G03X103465000Y-67183000I-2500000J0D01*
G01*
D11*
X90424000Y-101917500D02*
X90170000Y-102679500D01*
X90170000Y-101155500D02*
X90424000Y-101917500D01*
X89916000Y-101917500D02*
X90170000Y-101155500D01*
X90170000Y-102679500D02*
X89916000Y-101917500D01*
X90170000Y-103187500D02*
X90170000Y-102679500D01*
X89535000Y-105727500D02*
X90805000Y-105727500D01*
D12*
X92670000Y-105727500D02*
G75*
G03X92670000Y-105727500I-2500000J0D01*
G01*
D11*
X82486500Y-118046500D02*
X82232500Y-118808500D01*
X82232500Y-117284500D02*
X82486500Y-118046500D01*
X81978500Y-118046500D02*
X82232500Y-117284500D01*
X82232500Y-118808500D02*
X81978500Y-118046500D01*
X82232500Y-119316500D02*
X82232500Y-118808500D01*
X81597500Y-121856500D02*
X82867500Y-121856500D01*
D12*
X84732500Y-121856500D02*
G75*
G03X84732500Y-121856500I-2500000J0D01*
G01*
D11*
X112966500Y-72072500D02*
X112712500Y-72834500D01*
X112712500Y-71310500D02*
X112966500Y-72072500D01*
X112458500Y-72072500D02*
X112712500Y-71310500D01*
X112712500Y-72834500D02*
X112458500Y-72072500D01*
X112712500Y-73342500D02*
X112712500Y-72834500D01*
X112077500Y-75882500D02*
X113347500Y-75882500D01*
D12*
X115212500Y-75882500D02*
G75*
G03X115212500Y-75882500I-2500000J0D01*
G01*
D11*
X117792500Y-92011500D02*
X117538500Y-92773500D01*
X117538500Y-91249500D02*
X117792500Y-92011500D01*
X117284500Y-92011500D02*
X117538500Y-91249500D01*
X117538500Y-92773500D02*
X117284500Y-92011500D01*
X117538500Y-93281500D02*
X117538500Y-92773500D01*
X116903500Y-95821500D02*
X118173500Y-95821500D01*
D12*
X120038500Y-95821500D02*
G75*
G03X120038500Y-95821500I-2500000J0D01*
G01*
D11*
X111188500Y-104965500D02*
X110934500Y-105727500D01*
X110934500Y-104203500D02*
X111188500Y-104965500D01*
X110680500Y-104965500D02*
X110934500Y-104203500D01*
X110934500Y-105727500D02*
X110680500Y-104965500D01*
X110934500Y-106235500D02*
X110934500Y-105727500D01*
X110299500Y-108775500D02*
X111569500Y-108775500D01*
D12*
X113434500Y-108775500D02*
G75*
G03X113434500Y-108775500I-2500000J0D01*
G01*
D11*
X135318500Y-121412000D02*
X135064500Y-122174000D01*
X135064500Y-120650000D02*
X135318500Y-121412000D01*
X134810500Y-121412000D02*
X135064500Y-120650000D01*
X135064500Y-122174000D02*
X134810500Y-121412000D01*
X135064500Y-122682000D02*
X135064500Y-122174000D01*
X134429500Y-125222000D02*
X135699500Y-125222000D01*
D12*
X137564500Y-125222000D02*
G75*
G03X137564500Y-125222000I-2500000J0D01*
G01*
D13*
X103057000Y-149776000D02*
X90237000Y-149776000D01*
X90237000Y-149776000D02*
X90237000Y-152436000D01*
X90237000Y-152436000D02*
X103057000Y-152436000D01*
X103057000Y-152436000D02*
X103057000Y-149776000D01*
X102107000Y-152436000D02*
X102107000Y-158436000D01*
X102107000Y-158436000D02*
X101347000Y-158436000D01*
X101347000Y-158436000D02*
X101347000Y-152436000D01*
X102047000Y-152436000D02*
X102047000Y-158436000D01*
X101927000Y-152436000D02*
X101927000Y-158436000D01*
X101807000Y-152436000D02*
X101807000Y-158436000D01*
X101687000Y-152436000D02*
X101687000Y-158436000D01*
X101567000Y-152436000D02*
X101567000Y-158436000D01*
X101447000Y-152436000D02*
X101447000Y-158436000D01*
X102107000Y-149446000D02*
X102107000Y-149776000D01*
X101347000Y-149446000D02*
X101347000Y-149776000D01*
X100457000Y-149776000D02*
X100457000Y-152436000D01*
X99567000Y-152436000D02*
X99567000Y-158436000D01*
X99567000Y-158436000D02*
X98807000Y-158436000D01*
X98807000Y-158436000D02*
X98807000Y-152436000D01*
X99567000Y-149378929D02*
X99567000Y-149776000D01*
X98807000Y-149378929D02*
X98807000Y-149776000D01*
X97917000Y-149776000D02*
X97917000Y-152436000D01*
X97027000Y-152436000D02*
X97027000Y-158436000D01*
X97027000Y-158436000D02*
X96267000Y-158436000D01*
X96267000Y-158436000D02*
X96267000Y-152436000D01*
X97027000Y-149378929D02*
X97027000Y-149776000D01*
X96267000Y-149378929D02*
X96267000Y-149776000D01*
X95377000Y-149776000D02*
X95377000Y-152436000D01*
X94487000Y-152436000D02*
X94487000Y-158436000D01*
X94487000Y-158436000D02*
X93727000Y-158436000D01*
X93727000Y-158436000D02*
X93727000Y-152436000D01*
X94487000Y-149378929D02*
X94487000Y-149776000D01*
X93727000Y-149378929D02*
X93727000Y-149776000D01*
X92837000Y-149776000D02*
X92837000Y-152436000D01*
X91947000Y-152436000D02*
X91947000Y-158436000D01*
X91947000Y-158436000D02*
X91187000Y-158436000D01*
X91187000Y-158436000D02*
X91187000Y-152436000D01*
X91947000Y-149378929D02*
X91947000Y-149776000D01*
X91187000Y-149378929D02*
X91187000Y-149776000D01*
X101727000Y-147066000D02*
X102997000Y-147066000D01*
X102997000Y-147066000D02*
X102997000Y-148336000D01*
D11*
X103449380Y-153054333D02*
X104163666Y-153054333D01*
X104306523Y-153101952D01*
X104401761Y-153197190D01*
X104449380Y-153340047D01*
X104449380Y-153435285D01*
X104449380Y-152054333D02*
X104449380Y-152625761D01*
X104449380Y-152340047D02*
X103449380Y-152340047D01*
X103592238Y-152435285D01*
X103687476Y-152530523D01*
X103735095Y-152625761D01*
M02*
