G04 #@! TF.GenerationSoftware,KiCad,Pcbnew,(5.1.5)-3*
G04 #@! TF.CreationDate,2020-10-16T01:58:04+02:00*
G04 #@! TF.ProjectId,Christmas A,43687269-7374-46d6-9173-20412e6b6963,rev?*
G04 #@! TF.SameCoordinates,Original*
G04 #@! TF.FileFunction,Copper,L2,Bot*
G04 #@! TF.FilePolarity,Positive*
%FSLAX46Y46*%
G04 Gerber Fmt 4.6, Leading zero omitted, Abs format (unit mm)*
G04 Created by KiCad (PCBNEW (5.1.5)-3) date 2020-10-16 01:58:04*
%MOMM*%
%LPD*%
G04 APERTURE LIST*
%ADD10C,1.600000*%
%ADD11O,1.600000X1.600000*%
%ADD12C,1.800000*%
%ADD13R,1.800000X1.800000*%
%ADD14R,1.700000X1.700000*%
%ADD15O,1.700000X1.700000*%
%ADD16C,0.800000*%
%ADD17C,0.250000*%
G04 APERTURE END LIST*
D10*
X107505500Y-60071000D03*
D11*
X107505500Y-70231000D03*
D10*
X101536500Y-74295000D03*
D11*
X101536500Y-84455000D03*
D10*
X99441000Y-89916000D03*
D11*
X99441000Y-100076000D03*
D10*
X96393000Y-104140000D03*
D11*
X96393000Y-114300000D03*
D10*
X91821000Y-114617500D03*
D11*
X91821000Y-124777500D03*
D10*
X109918500Y-83439000D03*
D11*
X109918500Y-93599000D03*
D10*
X121094500Y-105791000D03*
D11*
X121094500Y-115951000D03*
D10*
X116649500Y-114998500D03*
D11*
X116649500Y-125158500D03*
D10*
X109791500Y-122110500D03*
D11*
X109791500Y-132270500D03*
D12*
X96012000Y-83693000D03*
D13*
X93472000Y-83693000D03*
D12*
X102235000Y-67183000D03*
D13*
X99695000Y-67183000D03*
D12*
X91440000Y-105727500D03*
D13*
X88900000Y-105727500D03*
D12*
X83502500Y-121856500D03*
D13*
X80962500Y-121856500D03*
D12*
X113982500Y-75882500D03*
D13*
X111442500Y-75882500D03*
D12*
X118808500Y-95821500D03*
D13*
X116268500Y-95821500D03*
D12*
X112204500Y-108775500D03*
D13*
X109664500Y-108775500D03*
D12*
X136334500Y-125222000D03*
D13*
X133794500Y-125222000D03*
D14*
X101727000Y-148336000D03*
D15*
X99187000Y-148336000D03*
X96647000Y-148336000D03*
X94107000Y-148336000D03*
X91567000Y-148336000D03*
X117983000Y-148336000D03*
X115443000Y-148336000D03*
X112903000Y-148336000D03*
X110363000Y-148336000D03*
D14*
X107823000Y-148336000D03*
D13*
X103441500Y-53911500D03*
D12*
X105981500Y-53911500D03*
D16*
X91440000Y-121285000D03*
X99695000Y-125730000D03*
X100330000Y-115570000D03*
X108585000Y-125095000D03*
X108585000Y-116840000D03*
X107315000Y-95885000D03*
D17*
X102235000Y-73596500D02*
X101536500Y-74295000D01*
X102235000Y-67183000D02*
X102235000Y-73596500D01*
X97536000Y-89916000D02*
X99441000Y-89916000D01*
X96012000Y-83693000D02*
X96012000Y-88392000D01*
X96012000Y-88392000D02*
X97536000Y-89916000D01*
X91440000Y-121285000D02*
X92075000Y-120650000D01*
X92075000Y-114871500D02*
X91821000Y-114617500D01*
X92075000Y-120650000D02*
X92075000Y-114871500D01*
X109918500Y-81216500D02*
X109918500Y-83439000D01*
X113982500Y-75882500D02*
X113982500Y-77152500D01*
X113982500Y-77152500D02*
X109918500Y-81216500D01*
X118808500Y-103505000D02*
X118808500Y-95821500D01*
X121094500Y-105791000D02*
X118808500Y-103505000D01*
X116649500Y-114998500D02*
X116649500Y-109664500D01*
X115760500Y-108775500D02*
X112204500Y-108775500D01*
X116649500Y-109664500D02*
X115760500Y-108775500D01*
X100330000Y-140462000D02*
X100330000Y-126365000D01*
X92424991Y-146843009D02*
X92574871Y-146812000D01*
X100330000Y-126365000D02*
X99695000Y-125730000D01*
X92574871Y-146812000D02*
X93980000Y-146812000D01*
X91567000Y-147701000D02*
X92424991Y-146843009D01*
X91567000Y-148336000D02*
X91567000Y-147701000D01*
X93980000Y-146812000D02*
X100330000Y-140462000D01*
X100965000Y-140843000D02*
X94107000Y-147701000D01*
X100330000Y-115570000D02*
X100965000Y-116205000D01*
X94107000Y-147701000D02*
X94107000Y-148336000D01*
X100965000Y-116205000D02*
X100965000Y-140843000D01*
X99441000Y-100076000D02*
X100711000Y-100076000D01*
X100711000Y-100076000D02*
X101600000Y-100965000D01*
X96647000Y-148336000D02*
X96647000Y-146177000D01*
X96647000Y-146177000D02*
X101600000Y-141224000D01*
X101600000Y-100965000D02*
X101600000Y-141224000D01*
X99187000Y-144780000D02*
X99187000Y-148336000D01*
X102235000Y-89535000D02*
X102235000Y-141732000D01*
X102235000Y-141732000D02*
X99187000Y-144780000D01*
X101536500Y-84455000D02*
X101536500Y-88836500D01*
X101536500Y-88836500D02*
X102235000Y-89535000D01*
X102870000Y-142240000D02*
X101727000Y-143383000D01*
X107505500Y-70231000D02*
X107505500Y-85534500D01*
X101727000Y-143383000D02*
X101727000Y-148336000D01*
X102870000Y-90170000D02*
X102870000Y-142240000D01*
X107505500Y-85534500D02*
X102870000Y-90170000D01*
X115443000Y-145669000D02*
X115443000Y-148336000D01*
X109220000Y-139446000D02*
X115443000Y-145669000D01*
X109791500Y-132270500D02*
X109220000Y-132842000D01*
X109220000Y-132842000D02*
X109220000Y-139446000D01*
X112903000Y-144399000D02*
X112903000Y-148336000D01*
X108185001Y-139681001D02*
X112903000Y-144399000D01*
X108585000Y-125095000D02*
X108185001Y-125494999D01*
X108185001Y-125494999D02*
X108185001Y-139681001D01*
X107499989Y-140265989D02*
X110363000Y-143129000D01*
X108585000Y-116840000D02*
X107499989Y-117925011D01*
X110363000Y-143129000D02*
X110363000Y-148336000D01*
X107499989Y-117925011D02*
X107499989Y-140265989D01*
X106915001Y-96284999D02*
X107315000Y-95885000D01*
X107823000Y-148336000D02*
X107823000Y-141859000D01*
X106915001Y-140951001D02*
X106915001Y-96284999D01*
X107823000Y-141859000D02*
X106915001Y-140951001D01*
X107505500Y-54162708D02*
X107505500Y-58939630D01*
X107505500Y-58939630D02*
X107505500Y-60071000D01*
X107254292Y-53911500D02*
X107505500Y-54162708D01*
X105981500Y-53911500D02*
X107254292Y-53911500D01*
M02*
