G04 #@! TF.GenerationSoftware,KiCad,Pcbnew,(5.1.5)-3*
G04 #@! TF.CreationDate,2020-10-31T02:18:59+01:00*
G04 #@! TF.ProjectId,Christmas A,43687269-7374-46d6-9173-20412e6b6963,rev?*
G04 #@! TF.SameCoordinates,Original*
G04 #@! TF.FileFunction,Legend,Bot*
G04 #@! TF.FilePolarity,Positive*
%FSLAX46Y46*%
G04 Gerber Fmt 4.6, Leading zero omitted, Abs format (unit mm)*
G04 Created by KiCad (PCBNEW (5.1.5)-3) date 2020-10-31 02:18:59*
%MOMM*%
%LPD*%
G04 APERTURE LIST*
%ADD10C,0.100000*%
%ADD11C,0.200000*%
%ADD12C,0.150000*%
%ADD13C,0.120000*%
G04 APERTURE END LIST*
D10*
X104497214Y-98609690D02*
X105306738Y-98609690D01*
X105401976Y-98571595D01*
X105449595Y-98533500D01*
X105497214Y-98457309D01*
X105497214Y-98343023D01*
X105449595Y-98266833D01*
X105116261Y-98609690D02*
X105163880Y-98533500D01*
X105163880Y-98381119D01*
X105116261Y-98304928D01*
X105068642Y-98266833D01*
X104973404Y-98228738D01*
X104687690Y-98228738D01*
X104592452Y-98266833D01*
X104544833Y-98304928D01*
X104497214Y-98381119D01*
X104497214Y-98533500D01*
X104544833Y-98609690D01*
X105163880Y-98990642D02*
X104497214Y-98990642D01*
X104163880Y-98990642D02*
X104211500Y-98952547D01*
X104259119Y-98990642D01*
X104211500Y-99028738D01*
X104163880Y-98990642D01*
X104259119Y-98990642D01*
X104497214Y-99257309D02*
X104497214Y-99562071D01*
X104163880Y-99371595D02*
X105021023Y-99371595D01*
X105116261Y-99409690D01*
X105163880Y-99485880D01*
X105163880Y-99562071D01*
X105163880Y-99828738D02*
X104163880Y-99828738D01*
X105163880Y-100171595D02*
X104640071Y-100171595D01*
X104544833Y-100133500D01*
X104497214Y-100057309D01*
X104497214Y-99943023D01*
X104544833Y-99866833D01*
X104592452Y-99828738D01*
X104497214Y-100895404D02*
X105163880Y-100895404D01*
X104497214Y-100552547D02*
X105021023Y-100552547D01*
X105116261Y-100590642D01*
X105163880Y-100666833D01*
X105163880Y-100781119D01*
X105116261Y-100857309D01*
X105068642Y-100895404D01*
X105163880Y-101276357D02*
X104163880Y-101276357D01*
X104544833Y-101276357D02*
X104497214Y-101352547D01*
X104497214Y-101504928D01*
X104544833Y-101581119D01*
X104592452Y-101619214D01*
X104687690Y-101657309D01*
X104973404Y-101657309D01*
X105068642Y-101619214D01*
X105116261Y-101581119D01*
X105163880Y-101504928D01*
X105163880Y-101352547D01*
X105116261Y-101276357D01*
X105068642Y-102000166D02*
X105116261Y-102038261D01*
X105163880Y-102000166D01*
X105116261Y-101962071D01*
X105068642Y-102000166D01*
X105163880Y-102000166D01*
X105116261Y-102723976D02*
X105163880Y-102647785D01*
X105163880Y-102495404D01*
X105116261Y-102419214D01*
X105068642Y-102381119D01*
X104973404Y-102343023D01*
X104687690Y-102343023D01*
X104592452Y-102381119D01*
X104544833Y-102419214D01*
X104497214Y-102495404D01*
X104497214Y-102647785D01*
X104544833Y-102723976D01*
X105163880Y-103181119D02*
X105116261Y-103104928D01*
X105068642Y-103066833D01*
X104973404Y-103028738D01*
X104687690Y-103028738D01*
X104592452Y-103066833D01*
X104544833Y-103104928D01*
X104497214Y-103181119D01*
X104497214Y-103295404D01*
X104544833Y-103371595D01*
X104592452Y-103409690D01*
X104687690Y-103447785D01*
X104973404Y-103447785D01*
X105068642Y-103409690D01*
X105116261Y-103371595D01*
X105163880Y-103295404D01*
X105163880Y-103181119D01*
X105163880Y-103790642D02*
X104497214Y-103790642D01*
X104592452Y-103790642D02*
X104544833Y-103828738D01*
X104497214Y-103904928D01*
X104497214Y-104019214D01*
X104544833Y-104095404D01*
X104640071Y-104133499D01*
X105163880Y-104133499D01*
X104640071Y-104133499D02*
X104544833Y-104171595D01*
X104497214Y-104247785D01*
X104497214Y-104362071D01*
X104544833Y-104438261D01*
X104640071Y-104476357D01*
X105163880Y-104476357D01*
X104116261Y-105428738D02*
X105401976Y-104743023D01*
X104497214Y-105581119D02*
X104497214Y-105885880D01*
X104163880Y-105695404D02*
X105021023Y-105695404D01*
X105116261Y-105733499D01*
X105163880Y-105809690D01*
X105163880Y-105885880D01*
X105116261Y-106457309D02*
X105163880Y-106381119D01*
X105163880Y-106228738D01*
X105116261Y-106152547D01*
X105021023Y-106114452D01*
X104640071Y-106114452D01*
X104544833Y-106152547D01*
X104497214Y-106228738D01*
X104497214Y-106381119D01*
X104544833Y-106457309D01*
X104640071Y-106495404D01*
X104735309Y-106495404D01*
X104830547Y-106114452D01*
X105163880Y-106838261D02*
X104163880Y-106838261D01*
X104544833Y-106838261D02*
X104497214Y-106914452D01*
X104497214Y-107066833D01*
X104544833Y-107143023D01*
X104592452Y-107181119D01*
X104687690Y-107219214D01*
X104973404Y-107219214D01*
X105068642Y-107181119D01*
X105116261Y-107143023D01*
X105163880Y-107066833D01*
X105163880Y-106914452D01*
X105116261Y-106838261D01*
X105163880Y-107676357D02*
X105116261Y-107600166D01*
X105021023Y-107562071D01*
X104163880Y-107562071D01*
D11*
X105346500Y-127698500D02*
X102933500Y-127825500D01*
X107124500Y-128079500D02*
X105346500Y-127698500D01*
X107950000Y-128397000D02*
X107124500Y-128079500D01*
X108902500Y-128587500D02*
X107950000Y-128397000D01*
X112331500Y-128778000D02*
X110871000Y-128714500D01*
X113411000Y-128714500D02*
X112331500Y-128778000D01*
X114236500Y-128587500D02*
X113411000Y-128714500D01*
X114871500Y-128460500D02*
X114236500Y-128587500D01*
X115506500Y-128397000D02*
X114871500Y-128460500D01*
X116840000Y-128270000D02*
X115506500Y-128397000D01*
X118618000Y-128143000D02*
X116840000Y-128270000D01*
X120015000Y-128016000D02*
X118618000Y-128143000D01*
X120777000Y-128016000D02*
X120015000Y-128016000D01*
X121666000Y-128079500D02*
X120777000Y-128016000D01*
X123888500Y-128270000D02*
X121666000Y-128079500D01*
X126746000Y-128460500D02*
X123888500Y-128270000D01*
X130429000Y-128397000D02*
X126746000Y-128460500D01*
X131445000Y-128397000D02*
X130429000Y-128397000D01*
X132778500Y-128333500D02*
X131445000Y-128397000D01*
X133667500Y-128333500D02*
X132778500Y-128333500D01*
X134239000Y-128270000D02*
X133667500Y-128333500D01*
X135636000Y-128079500D02*
X134239000Y-128270000D01*
X137858500Y-127762000D02*
X135636000Y-128079500D01*
X139255500Y-127571500D02*
X137858500Y-127762000D01*
X140144500Y-127254000D02*
X139255500Y-127571500D01*
X141478000Y-126873000D02*
X140144500Y-127254000D01*
X142494000Y-126428500D02*
X141478000Y-126873000D01*
X143573500Y-125857000D02*
X142494000Y-126428500D01*
X144272000Y-125222000D02*
X143573500Y-125857000D01*
X144716500Y-124396500D02*
X144272000Y-125222000D01*
X144716500Y-124396500D02*
X144843500Y-123571000D01*
X99060000Y-128333500D02*
X102933500Y-127825500D01*
X96139000Y-128587500D02*
X99060000Y-128333500D01*
X94107000Y-128524000D02*
X96139000Y-128587500D01*
X93472000Y-128460500D02*
X94107000Y-128524000D01*
X92138500Y-128333500D02*
X93472000Y-128460500D01*
X90868500Y-128206500D02*
X92138500Y-128333500D01*
X89535000Y-128079500D02*
X90868500Y-128206500D01*
X88709500Y-128079500D02*
X89535000Y-128079500D01*
X87947500Y-128143000D02*
X88709500Y-128079500D01*
X84518500Y-128397000D02*
X87947500Y-128143000D01*
X83693000Y-128460500D02*
X84518500Y-128397000D01*
X81089500Y-128524000D02*
X83693000Y-128460500D01*
X80327500Y-128524000D02*
X81089500Y-128524000D01*
X78867000Y-128524000D02*
X80327500Y-128524000D01*
X77787500Y-128460500D02*
X78867000Y-128524000D01*
X75438000Y-128333500D02*
X77787500Y-128460500D01*
X73025000Y-128079500D02*
X75438000Y-128333500D01*
X70993000Y-127762000D02*
X73025000Y-128079500D01*
X69405500Y-127381000D02*
X70993000Y-127762000D01*
X67564000Y-126746000D02*
X69405500Y-127381000D01*
X66611500Y-126301500D02*
X67564000Y-126746000D01*
X65786000Y-125793500D02*
X66611500Y-126301500D01*
X65214500Y-125222000D02*
X65786000Y-125793500D01*
X64960500Y-124841000D02*
X65214500Y-125222000D01*
X64643000Y-124142500D02*
X64960500Y-124841000D01*
X64643000Y-123888500D02*
X64643000Y-124142500D01*
X115125500Y-110998000D02*
X114427000Y-111188500D01*
X115824000Y-110934500D02*
X115125500Y-110998000D01*
X116903500Y-110934500D02*
X115824000Y-110934500D01*
X118237000Y-110998000D02*
X116903500Y-110934500D01*
X119126000Y-111061500D02*
X118237000Y-110998000D01*
X119951500Y-111125000D02*
X119126000Y-111061500D01*
X121920000Y-111379000D02*
X121348500Y-111315500D01*
X122618500Y-111569500D02*
X121920000Y-111379000D01*
X123761500Y-111887000D02*
X122618500Y-111569500D01*
X124968000Y-112077500D02*
X123761500Y-111887000D01*
X126047500Y-112331500D02*
X124968000Y-112077500D01*
X127762000Y-112649000D02*
X126047500Y-112331500D01*
X129349500Y-112839500D02*
X127762000Y-112649000D01*
X131445000Y-112903000D02*
X129349500Y-112839500D01*
X132461000Y-112903000D02*
X131445000Y-112903000D01*
X133985000Y-112776000D02*
X132461000Y-112903000D01*
X135128000Y-112585500D02*
X133985000Y-112776000D01*
X135509000Y-112395000D02*
X135128000Y-112585500D01*
X136080500Y-112141000D02*
X135509000Y-112395000D01*
X136525000Y-111696500D02*
X136080500Y-112141000D01*
X137096500Y-111061500D02*
X136525000Y-111696500D01*
X137096500Y-111061500D02*
X137541000Y-109918500D01*
X112776000Y-111442500D02*
X114427000Y-111188500D01*
X111188500Y-111569500D02*
X112776000Y-111442500D01*
X110236000Y-111442500D02*
X111188500Y-111569500D01*
X109283500Y-111125000D02*
X110236000Y-111442500D01*
X107759500Y-110680500D02*
X109283500Y-111125000D01*
X104965500Y-110426500D02*
X107759500Y-110680500D01*
X102362000Y-110744000D02*
X104965500Y-110426500D01*
X100520500Y-111379000D02*
X102362000Y-110744000D01*
X98361500Y-112331500D02*
X100520500Y-111379000D01*
X97472500Y-112585500D02*
X98361500Y-112331500D01*
X96901000Y-112712500D02*
X97472500Y-112585500D01*
X94805500Y-112966500D02*
X95885000Y-112903000D01*
X93091000Y-112776000D02*
X94805500Y-112966500D01*
X90297000Y-112331500D02*
X93091000Y-112776000D01*
X87566500Y-112014000D02*
X90297000Y-112331500D01*
X85852000Y-111887000D02*
X87566500Y-112014000D01*
X85344000Y-111950500D02*
X85852000Y-111887000D01*
X84137500Y-112268000D02*
X85344000Y-111950500D01*
X82232500Y-112649000D02*
X84137500Y-112268000D01*
X81788000Y-112712500D02*
X82232500Y-112649000D01*
X77914500Y-113093500D02*
X81788000Y-112712500D01*
X75565000Y-112966500D02*
X77914500Y-113093500D01*
X74739500Y-112712500D02*
X75565000Y-112966500D01*
X73787000Y-112395000D02*
X74739500Y-112712500D01*
X73025000Y-111950500D02*
X73787000Y-112395000D01*
X72517000Y-111315500D02*
X73025000Y-111950500D01*
X72199500Y-110744000D02*
X72517000Y-111315500D01*
X72199500Y-109855000D02*
X72199500Y-110744000D01*
X107315000Y-97091500D02*
X106553000Y-97155000D01*
X108394500Y-97218500D02*
X107315000Y-97091500D01*
X109728000Y-97536000D02*
X108394500Y-97218500D01*
X110871000Y-97726500D02*
X109728000Y-97536000D01*
X111887000Y-98044000D02*
X110871000Y-97726500D01*
X112776000Y-98552000D02*
X111887000Y-98044000D01*
X114363500Y-98742500D02*
X112776000Y-98552000D01*
X115697000Y-98679000D02*
X114363500Y-98742500D01*
X116840000Y-98552000D02*
X115697000Y-98679000D01*
X117729000Y-98552000D02*
X116840000Y-98552000D01*
X118808500Y-98996500D02*
X117729000Y-98552000D01*
X119570500Y-99250500D02*
X118808500Y-98996500D01*
X120269000Y-99504500D02*
X119570500Y-99250500D01*
X120967500Y-99568000D02*
X120269000Y-99504500D01*
X121285000Y-99568000D02*
X120967500Y-99568000D01*
X121983500Y-99695000D02*
X121285000Y-99568000D01*
X122936000Y-99822000D02*
X121983500Y-99695000D01*
X124650500Y-99949000D02*
X122936000Y-99822000D01*
X124968000Y-99949000D02*
X124650500Y-99949000D01*
X126682500Y-99822000D02*
X124968000Y-99949000D01*
X127444500Y-99695000D02*
X126682500Y-99822000D01*
X127698500Y-99631500D02*
X127444500Y-99695000D01*
X128270000Y-99314000D02*
X127698500Y-99631500D01*
X128714500Y-98996500D02*
X128270000Y-99314000D01*
X129032000Y-98488500D02*
X128714500Y-98996500D01*
X129286000Y-98044000D02*
X129032000Y-98488500D01*
X129286000Y-97663000D02*
X129286000Y-98044000D01*
X104775000Y-97599500D02*
X106553000Y-97155000D01*
X102616000Y-97917000D02*
X104775000Y-97599500D01*
X101092000Y-98171000D02*
X102616000Y-97917000D01*
X99949000Y-98361500D02*
X101092000Y-98171000D01*
X98107500Y-98742500D02*
X98933000Y-98615500D01*
X96075500Y-98742500D02*
X98107500Y-98742500D01*
X93599000Y-98742500D02*
X96075500Y-98742500D01*
X90614500Y-99187000D02*
X93599000Y-98742500D01*
X88646000Y-99568000D02*
X90614500Y-99187000D01*
X87884000Y-99695000D02*
X88646000Y-99568000D01*
X87122000Y-99822000D02*
X87884000Y-99695000D01*
X86233000Y-99949000D02*
X87122000Y-99822000D01*
X84772500Y-100012500D02*
X86233000Y-99949000D01*
X82994500Y-99949000D02*
X84772500Y-100012500D01*
X82550000Y-99885500D02*
X82994500Y-99949000D01*
X82105500Y-99822000D02*
X82550000Y-99885500D01*
X81407000Y-99631500D02*
X82105500Y-99822000D01*
X80835500Y-99314000D02*
X81407000Y-99631500D01*
X80391000Y-98806000D02*
X80835500Y-99314000D01*
X80137000Y-98361500D02*
X80391000Y-98806000D01*
X80137000Y-97980500D02*
X80137000Y-98361500D01*
X125095000Y-86995000D02*
X125095000Y-86614000D01*
X125031500Y-87312500D02*
X125095000Y-86995000D01*
X124841000Y-87693500D02*
X125031500Y-87312500D01*
X124587000Y-87947500D02*
X124841000Y-87693500D01*
X124333000Y-88138000D02*
X124587000Y-87947500D01*
X123507500Y-88455500D02*
X124333000Y-88138000D01*
X122491500Y-88582500D02*
X123507500Y-88455500D01*
X122237500Y-88582500D02*
X122491500Y-88582500D01*
X121412000Y-88582500D02*
X122237500Y-88582500D01*
X120015000Y-88455500D02*
X121412000Y-88582500D01*
X118491000Y-88138000D02*
X120015000Y-88455500D01*
X117602000Y-87884000D02*
X118491000Y-88138000D01*
X116649500Y-87566500D02*
X117602000Y-87884000D01*
X115316000Y-86931500D02*
X116649500Y-87566500D01*
X114808000Y-86804500D02*
X115316000Y-86931500D01*
X113728500Y-86868000D02*
X114808000Y-86804500D01*
X112903000Y-86804500D02*
X113728500Y-86868000D01*
X111950500Y-86550500D02*
X112903000Y-86804500D01*
X110871000Y-86296500D02*
X111950500Y-86550500D01*
X109918500Y-86233000D02*
X110871000Y-86296500D01*
X108331000Y-86106000D02*
X108775500Y-86106000D01*
X106616500Y-85852000D02*
X108331000Y-86106000D01*
X105029000Y-85661500D02*
X106616500Y-85852000D01*
X103060500Y-85534500D02*
X105029000Y-85661500D01*
X101600000Y-85471000D02*
X103060500Y-85534500D01*
X100711000Y-85407500D02*
X101600000Y-85471000D01*
X100012500Y-85471000D02*
X100711000Y-85407500D01*
X98869500Y-85661500D02*
X100012500Y-85471000D01*
X97917000Y-85979000D02*
X98869500Y-85661500D01*
X96520000Y-86296500D02*
X97917000Y-85979000D01*
X95567500Y-86360000D02*
X96520000Y-86296500D01*
X94932500Y-86487000D02*
X95567500Y-86360000D01*
X94488000Y-86741000D02*
X94932500Y-86487000D01*
X94107000Y-87058500D02*
X94488000Y-86741000D01*
X93853000Y-87312500D02*
X94107000Y-87058500D01*
X93408500Y-87503000D02*
X93853000Y-87312500D01*
X92519500Y-87884000D02*
X93408500Y-87503000D01*
X91440000Y-88201500D02*
X92519500Y-87884000D01*
X90424000Y-88455500D02*
X91440000Y-88201500D01*
X89281000Y-88709500D02*
X90424000Y-88455500D01*
X88455500Y-88836500D02*
X89281000Y-88709500D01*
X87439500Y-88836500D02*
X88455500Y-88836500D01*
X86296500Y-88646000D02*
X87439500Y-88836500D01*
X85407500Y-88455500D02*
X86296500Y-88646000D01*
X84709000Y-88201500D02*
X85407500Y-88455500D01*
X84137500Y-87630000D02*
X84709000Y-88201500D01*
X83947000Y-87058500D02*
X84137500Y-87630000D01*
X83947000Y-86487000D02*
X83947000Y-87058500D01*
X119697500Y-78295500D02*
X119761000Y-77787500D01*
X119507000Y-78676500D02*
X119697500Y-78295500D01*
X119189500Y-78994000D02*
X119507000Y-78676500D01*
X118491000Y-79248000D02*
X119189500Y-78994000D01*
X117919500Y-79311500D02*
X118491000Y-79248000D01*
X116840000Y-79311500D02*
X117919500Y-79311500D01*
X116141500Y-79248000D02*
X116840000Y-79311500D01*
X115062000Y-78930500D02*
X116141500Y-79248000D01*
X113855500Y-78676500D02*
X115062000Y-78930500D01*
X112077500Y-78549500D02*
X113855500Y-78676500D01*
X111315500Y-78549500D02*
X112077500Y-78549500D01*
X110426500Y-78740000D02*
X111315500Y-78549500D01*
X108712000Y-78930500D02*
X110426500Y-78740000D01*
X106997500Y-78676500D02*
X108712000Y-78930500D01*
X105727500Y-78422500D02*
X106997500Y-78676500D01*
X104521000Y-78232000D02*
X105727500Y-78422500D01*
X103124000Y-78105000D02*
X104521000Y-78232000D01*
X102044500Y-78105000D02*
X103124000Y-78105000D01*
X99885500Y-78105000D02*
X100520500Y-78105000D01*
X96520000Y-78613000D02*
X99885500Y-78105000D01*
X94932500Y-78867000D02*
X96520000Y-78613000D01*
X94488000Y-78994000D02*
X94932500Y-78867000D01*
X94170500Y-79057500D02*
X94488000Y-78994000D01*
X93027500Y-79311500D02*
X94170500Y-79057500D01*
X92138500Y-79375000D02*
X93027500Y-79311500D01*
X91503500Y-79375000D02*
X92138500Y-79375000D01*
X90805000Y-79311500D02*
X91503500Y-79375000D01*
X90170000Y-78930500D02*
X90805000Y-79311500D01*
X89852500Y-78613000D02*
X90170000Y-78930500D01*
X89725500Y-78232000D02*
X89852500Y-78613000D01*
X89725500Y-77914500D02*
X89725500Y-78232000D01*
D12*
X93346002Y-92075334D02*
G75*
G02X94615000Y-93345000I-636001J-1904665D01*
G01*
D10*
X95210000Y-93980000D02*
G75*
G03X95210000Y-93980000I-2500000J0D01*
G01*
D12*
X92710000Y-89408000D02*
X92456000Y-90170000D01*
X92456000Y-90170000D02*
X92710000Y-90932000D01*
X92710000Y-90932000D02*
X92964000Y-90170000D01*
X92964000Y-90170000D02*
X92710000Y-89408000D01*
X92710000Y-91440000D02*
X92710000Y-90932000D01*
X96139000Y-75184000D02*
X96393000Y-74930000D01*
X96139000Y-74168000D02*
X96393000Y-74422000D01*
X98933000Y-75184000D02*
X99187000Y-75438000D01*
X98933000Y-74422000D02*
X99187000Y-74168000D01*
X97409000Y-75946000D02*
X97155000Y-76200000D01*
X98171000Y-76200000D02*
X97917000Y-75946000D01*
X97409000Y-73406000D02*
X97155000Y-73152000D01*
X98171000Y-73152000D02*
X97917000Y-73406000D01*
X98171000Y-75184000D02*
X99187000Y-76200000D01*
X97155000Y-75184000D02*
X96139000Y-76200000D01*
X97155000Y-74168000D02*
X96139000Y-73152000D01*
X99187000Y-73152000D02*
X98171000Y-74168000D01*
X97663000Y-74422000D02*
X97663000Y-72644000D01*
X97409000Y-74676000D02*
X95631000Y-74676000D01*
X99695000Y-74676000D02*
X97917000Y-74676000D01*
X97663000Y-74930000D02*
X97663000Y-76708000D01*
X96901000Y-72898000D02*
X95885000Y-72898000D01*
X97663000Y-72176000D02*
X98425000Y-72898000D01*
X96901000Y-76454000D02*
X95885000Y-76454000D01*
X97663000Y-77176000D02*
X98425000Y-76454000D01*
X95885000Y-73914000D02*
X95163000Y-74676000D01*
X95885000Y-75438000D02*
X95163000Y-74676000D01*
X95885000Y-75438000D02*
X95885000Y-76454000D01*
X99441000Y-75438000D02*
X99441000Y-76454000D01*
X99441000Y-73914000D02*
X99441000Y-72898000D01*
X98425000Y-76454000D02*
X99441000Y-76454000D01*
X95885000Y-72898000D02*
X95885000Y-73914000D01*
X99441000Y-72898000D02*
X98425000Y-72898000D01*
X96901000Y-72898000D02*
X97663000Y-72176000D01*
X97663000Y-77176000D02*
X96901000Y-76454000D01*
X100163000Y-74676000D02*
X99441000Y-75438000D01*
X99441000Y-73914000D02*
X100163000Y-74676000D01*
X97409000Y-70866000D02*
X97663000Y-71628000D01*
X97663000Y-70104000D02*
X97409000Y-70866000D01*
X97917000Y-70866000D02*
X97663000Y-70104000D01*
X97663000Y-71628000D02*
X97917000Y-70866000D01*
X97663000Y-72136000D02*
X97663000Y-71628000D01*
X123507500Y-122237500D02*
X123761500Y-121983500D01*
X123507500Y-121221500D02*
X123761500Y-121475500D01*
X126301500Y-122237500D02*
X126555500Y-122491500D01*
X126301500Y-121475500D02*
X126555500Y-121221500D01*
X124777500Y-122999500D02*
X124523500Y-123253500D01*
X125539500Y-123253500D02*
X125285500Y-122999500D01*
X124777500Y-120459500D02*
X124523500Y-120205500D01*
X125539500Y-120205500D02*
X125285500Y-120459500D01*
X125539500Y-122237500D02*
X126555500Y-123253500D01*
X124523500Y-122237500D02*
X123507500Y-123253500D01*
X124523500Y-121221500D02*
X123507500Y-120205500D01*
X126555500Y-120205500D02*
X125539500Y-121221500D01*
X125031500Y-121475500D02*
X125031500Y-119697500D01*
X124777500Y-121729500D02*
X122999500Y-121729500D01*
X127063500Y-121729500D02*
X125285500Y-121729500D01*
X125031500Y-121983500D02*
X125031500Y-123761500D01*
X124269500Y-119951500D02*
X123253500Y-119951500D01*
X125031500Y-119229500D02*
X125793500Y-119951500D01*
X124269500Y-123507500D02*
X123253500Y-123507500D01*
X125031500Y-124229500D02*
X125793500Y-123507500D01*
X123253500Y-120967500D02*
X122531500Y-121729500D01*
X123253500Y-122491500D02*
X122531500Y-121729500D01*
X123253500Y-122491500D02*
X123253500Y-123507500D01*
X126809500Y-122491500D02*
X126809500Y-123507500D01*
X126809500Y-120967500D02*
X126809500Y-119951500D01*
X125793500Y-123507500D02*
X126809500Y-123507500D01*
X123253500Y-119951500D02*
X123253500Y-120967500D01*
X126809500Y-119951500D02*
X125793500Y-119951500D01*
X124269500Y-119951500D02*
X125031500Y-119229500D01*
X125031500Y-124229500D02*
X124269500Y-123507500D01*
X127531500Y-121729500D02*
X126809500Y-122491500D01*
X126809500Y-120967500D02*
X127531500Y-121729500D01*
X124777500Y-117919500D02*
X125031500Y-118681500D01*
X125031500Y-117157500D02*
X124777500Y-117919500D01*
X125285500Y-117919500D02*
X125031500Y-117157500D01*
X125031500Y-118681500D02*
X125285500Y-117919500D01*
X125031500Y-119189500D02*
X125031500Y-118681500D01*
X97218500Y-121412000D02*
X97472500Y-121158000D01*
X97218500Y-120396000D02*
X97472500Y-120650000D01*
X100012500Y-121412000D02*
X100266500Y-121666000D01*
X100012500Y-120650000D02*
X100266500Y-120396000D01*
X98488500Y-122174000D02*
X98234500Y-122428000D01*
X99250500Y-122428000D02*
X98996500Y-122174000D01*
X98488500Y-119634000D02*
X98234500Y-119380000D01*
X99250500Y-119380000D02*
X98996500Y-119634000D01*
X99250500Y-121412000D02*
X100266500Y-122428000D01*
X98234500Y-121412000D02*
X97218500Y-122428000D01*
X98234500Y-120396000D02*
X97218500Y-119380000D01*
X100266500Y-119380000D02*
X99250500Y-120396000D01*
X98742500Y-120650000D02*
X98742500Y-118872000D01*
X98488500Y-120904000D02*
X96710500Y-120904000D01*
X100774500Y-120904000D02*
X98996500Y-120904000D01*
X98742500Y-121158000D02*
X98742500Y-122936000D01*
X97980500Y-119126000D02*
X96964500Y-119126000D01*
X98742500Y-118404000D02*
X99504500Y-119126000D01*
X97980500Y-122682000D02*
X96964500Y-122682000D01*
X98742500Y-123404000D02*
X99504500Y-122682000D01*
X96964500Y-120142000D02*
X96242500Y-120904000D01*
X96964500Y-121666000D02*
X96242500Y-120904000D01*
X96964500Y-121666000D02*
X96964500Y-122682000D01*
X100520500Y-121666000D02*
X100520500Y-122682000D01*
X100520500Y-120142000D02*
X100520500Y-119126000D01*
X99504500Y-122682000D02*
X100520500Y-122682000D01*
X96964500Y-119126000D02*
X96964500Y-120142000D01*
X100520500Y-119126000D02*
X99504500Y-119126000D01*
X97980500Y-119126000D02*
X98742500Y-118404000D01*
X98742500Y-123404000D02*
X97980500Y-122682000D01*
X101242500Y-120904000D02*
X100520500Y-121666000D01*
X100520500Y-120142000D02*
X101242500Y-120904000D01*
X98488500Y-117094000D02*
X98742500Y-117856000D01*
X98742500Y-116332000D02*
X98488500Y-117094000D01*
X98996500Y-117094000D02*
X98742500Y-116332000D01*
X98742500Y-117856000D02*
X98996500Y-117094000D01*
X98742500Y-118364000D02*
X98742500Y-117856000D01*
X127000000Y-110045500D02*
X127254000Y-109791500D01*
X127000000Y-109029500D02*
X127254000Y-109283500D01*
X129794000Y-110045500D02*
X130048000Y-110299500D01*
X129794000Y-109283500D02*
X130048000Y-109029500D01*
X128270000Y-110807500D02*
X128016000Y-111061500D01*
X129032000Y-111061500D02*
X128778000Y-110807500D01*
X128270000Y-108267500D02*
X128016000Y-108013500D01*
X129032000Y-108013500D02*
X128778000Y-108267500D01*
X129032000Y-110045500D02*
X130048000Y-111061500D01*
X128016000Y-110045500D02*
X127000000Y-111061500D01*
X128016000Y-109029500D02*
X127000000Y-108013500D01*
X130048000Y-108013500D02*
X129032000Y-109029500D01*
X128524000Y-109283500D02*
X128524000Y-107505500D01*
X128270000Y-109537500D02*
X126492000Y-109537500D01*
X130556000Y-109537500D02*
X128778000Y-109537500D01*
X128524000Y-109791500D02*
X128524000Y-111569500D01*
X127762000Y-107759500D02*
X126746000Y-107759500D01*
X128524000Y-107037500D02*
X129286000Y-107759500D01*
X127762000Y-111315500D02*
X126746000Y-111315500D01*
X128524000Y-112037500D02*
X129286000Y-111315500D01*
X126746000Y-108775500D02*
X126024000Y-109537500D01*
X126746000Y-110299500D02*
X126024000Y-109537500D01*
X126746000Y-110299500D02*
X126746000Y-111315500D01*
X130302000Y-110299500D02*
X130302000Y-111315500D01*
X130302000Y-108775500D02*
X130302000Y-107759500D01*
X129286000Y-111315500D02*
X130302000Y-111315500D01*
X126746000Y-107759500D02*
X126746000Y-108775500D01*
X130302000Y-107759500D02*
X129286000Y-107759500D01*
X127762000Y-107759500D02*
X128524000Y-107037500D01*
X128524000Y-112037500D02*
X127762000Y-111315500D01*
X131024000Y-109537500D02*
X130302000Y-110299500D01*
X130302000Y-108775500D02*
X131024000Y-109537500D01*
X128270000Y-105727500D02*
X128524000Y-106489500D01*
X128524000Y-104965500D02*
X128270000Y-105727500D01*
X128778000Y-105727500D02*
X128524000Y-104965500D01*
X128524000Y-106489500D02*
X128778000Y-105727500D01*
X128524000Y-106997500D02*
X128524000Y-106489500D01*
X106870500Y-102679500D02*
X107124500Y-102425500D01*
X106870500Y-101663500D02*
X107124500Y-101917500D01*
X109664500Y-102679500D02*
X109918500Y-102933500D01*
X109664500Y-101917500D02*
X109918500Y-101663500D01*
X108140500Y-103441500D02*
X107886500Y-103695500D01*
X108902500Y-103695500D02*
X108648500Y-103441500D01*
X108140500Y-100901500D02*
X107886500Y-100647500D01*
X108902500Y-100647500D02*
X108648500Y-100901500D01*
X108902500Y-102679500D02*
X109918500Y-103695500D01*
X107886500Y-102679500D02*
X106870500Y-103695500D01*
X107886500Y-101663500D02*
X106870500Y-100647500D01*
X109918500Y-100647500D02*
X108902500Y-101663500D01*
X108394500Y-101917500D02*
X108394500Y-100139500D01*
X108140500Y-102171500D02*
X106362500Y-102171500D01*
X110426500Y-102171500D02*
X108648500Y-102171500D01*
X108394500Y-102425500D02*
X108394500Y-104203500D01*
X107632500Y-100393500D02*
X106616500Y-100393500D01*
X108394500Y-99671500D02*
X109156500Y-100393500D01*
X107632500Y-103949500D02*
X106616500Y-103949500D01*
X108394500Y-104671500D02*
X109156500Y-103949500D01*
X106616500Y-101409500D02*
X105894500Y-102171500D01*
X106616500Y-102933500D02*
X105894500Y-102171500D01*
X106616500Y-102933500D02*
X106616500Y-103949500D01*
X110172500Y-102933500D02*
X110172500Y-103949500D01*
X110172500Y-101409500D02*
X110172500Y-100393500D01*
X109156500Y-103949500D02*
X110172500Y-103949500D01*
X106616500Y-100393500D02*
X106616500Y-101409500D01*
X110172500Y-100393500D02*
X109156500Y-100393500D01*
X107632500Y-100393500D02*
X108394500Y-99671500D01*
X108394500Y-104671500D02*
X107632500Y-103949500D01*
X110894500Y-102171500D02*
X110172500Y-102933500D01*
X110172500Y-101409500D02*
X110894500Y-102171500D01*
X108140500Y-98361500D02*
X108394500Y-99123500D01*
X108394500Y-97599500D02*
X108140500Y-98361500D01*
X108648500Y-98361500D02*
X108394500Y-97599500D01*
X108394500Y-99123500D02*
X108648500Y-98361500D01*
X108394500Y-99631500D02*
X108394500Y-99123500D01*
X114236500Y-80772000D02*
X114236500Y-80264000D01*
X114236500Y-80264000D02*
X114490500Y-79502000D01*
X114490500Y-79502000D02*
X114236500Y-78740000D01*
X114236500Y-78740000D02*
X113982500Y-79502000D01*
X113982500Y-79502000D02*
X114236500Y-80264000D01*
X116014500Y-82550000D02*
X116736500Y-83312000D01*
X116736500Y-83312000D02*
X116014500Y-84074000D01*
X114236500Y-85812000D02*
X113474500Y-85090000D01*
X113474500Y-81534000D02*
X114236500Y-80812000D01*
X116014500Y-81534000D02*
X114998500Y-81534000D01*
X112458500Y-81534000D02*
X112458500Y-82550000D01*
X114998500Y-85090000D02*
X116014500Y-85090000D01*
X116014500Y-82550000D02*
X116014500Y-81534000D01*
X116014500Y-84074000D02*
X116014500Y-85090000D01*
X112458500Y-84074000D02*
X112458500Y-85090000D01*
X112458500Y-84074000D02*
X111736500Y-83312000D01*
X112458500Y-82550000D02*
X111736500Y-83312000D01*
X114236500Y-85812000D02*
X114998500Y-85090000D01*
X113474500Y-85090000D02*
X112458500Y-85090000D01*
X114236500Y-80812000D02*
X114998500Y-81534000D01*
X113474500Y-81534000D02*
X112458500Y-81534000D01*
X114236500Y-83566000D02*
X114236500Y-85344000D01*
X116268500Y-83312000D02*
X114490500Y-83312000D01*
X113982500Y-83312000D02*
X112204500Y-83312000D01*
X114236500Y-83058000D02*
X114236500Y-81280000D01*
X115760500Y-81788000D02*
X114744500Y-82804000D01*
X113728500Y-82804000D02*
X112712500Y-81788000D01*
X113728500Y-83820000D02*
X112712500Y-84836000D01*
X114744500Y-83820000D02*
X115760500Y-84836000D01*
X114744500Y-81788000D02*
X114490500Y-82042000D01*
X113982500Y-82042000D02*
X113728500Y-81788000D01*
X114744500Y-84836000D02*
X114490500Y-84582000D01*
X113982500Y-84582000D02*
X113728500Y-84836000D01*
X115506500Y-83058000D02*
X115760500Y-82804000D01*
X115506500Y-83820000D02*
X115760500Y-84074000D01*
X112712500Y-82804000D02*
X112966500Y-83058000D01*
X112712500Y-83820000D02*
X112966500Y-83566000D01*
X108521500Y-67183000D02*
X107251500Y-67853000D01*
X105981500Y-65913000D02*
X108521500Y-67183000D01*
X107759500Y-62357000D02*
X106489500Y-63373000D01*
X107251500Y-62357000D02*
X107251500Y-61087000D01*
X106489500Y-65913000D02*
X109029500Y-67183000D01*
X106489500Y-63373000D02*
X109029500Y-64643000D01*
X109029500Y-67183000D02*
X107759500Y-67853000D01*
X109029500Y-64643000D02*
X106489500Y-65913000D01*
X108521500Y-64643000D02*
X105981500Y-65913000D01*
X107251500Y-67853000D02*
X107251500Y-68961000D01*
X107251500Y-62357000D02*
X105981500Y-63373000D01*
X107759500Y-62357000D02*
X107759500Y-61087000D01*
X105981500Y-63373000D02*
X108521500Y-64643000D01*
X107759500Y-67853000D02*
X107759500Y-68961000D01*
X102552500Y-81407000D02*
X101282500Y-82077000D01*
X100012500Y-80137000D02*
X102552500Y-81407000D01*
X101790500Y-76581000D02*
X100520500Y-77597000D01*
X101282500Y-76581000D02*
X101282500Y-75311000D01*
X100520500Y-80137000D02*
X103060500Y-81407000D01*
X100520500Y-77597000D02*
X103060500Y-78867000D01*
X103060500Y-81407000D02*
X101790500Y-82077000D01*
X103060500Y-78867000D02*
X100520500Y-80137000D01*
X102552500Y-78867000D02*
X100012500Y-80137000D01*
X101282500Y-82077000D02*
X101282500Y-83185000D01*
X101282500Y-76581000D02*
X100012500Y-77597000D01*
X101790500Y-76581000D02*
X101790500Y-75311000D01*
X100012500Y-77597000D02*
X102552500Y-78867000D01*
X101790500Y-82077000D02*
X101790500Y-83185000D01*
X100457000Y-97028000D02*
X99187000Y-97698000D01*
X97917000Y-95758000D02*
X100457000Y-97028000D01*
X99695000Y-92202000D02*
X98425000Y-93218000D01*
X99187000Y-92202000D02*
X99187000Y-90932000D01*
X98425000Y-95758000D02*
X100965000Y-97028000D01*
X98425000Y-93218000D02*
X100965000Y-94488000D01*
X100965000Y-97028000D02*
X99695000Y-97698000D01*
X100965000Y-94488000D02*
X98425000Y-95758000D01*
X100457000Y-94488000D02*
X97917000Y-95758000D01*
X99187000Y-97698000D02*
X99187000Y-98806000D01*
X99187000Y-92202000D02*
X97917000Y-93218000D01*
X99695000Y-92202000D02*
X99695000Y-90932000D01*
X97917000Y-93218000D02*
X100457000Y-94488000D01*
X99695000Y-97698000D02*
X99695000Y-98806000D01*
X97409000Y-111252000D02*
X96139000Y-111922000D01*
X94869000Y-109982000D02*
X97409000Y-111252000D01*
X96647000Y-106426000D02*
X95377000Y-107442000D01*
X96139000Y-106426000D02*
X96139000Y-105156000D01*
X95377000Y-109982000D02*
X97917000Y-111252000D01*
X95377000Y-107442000D02*
X97917000Y-108712000D01*
X97917000Y-111252000D02*
X96647000Y-111922000D01*
X97917000Y-108712000D02*
X95377000Y-109982000D01*
X97409000Y-108712000D02*
X94869000Y-109982000D01*
X96139000Y-111922000D02*
X96139000Y-113030000D01*
X96139000Y-106426000D02*
X94869000Y-107442000D01*
X96647000Y-106426000D02*
X96647000Y-105156000D01*
X94869000Y-107442000D02*
X97409000Y-108712000D01*
X96647000Y-111922000D02*
X96647000Y-113030000D01*
X92837000Y-121729500D02*
X91567000Y-122399500D01*
X90297000Y-120459500D02*
X92837000Y-121729500D01*
X92075000Y-116903500D02*
X90805000Y-117919500D01*
X91567000Y-116903500D02*
X91567000Y-115633500D01*
X90805000Y-120459500D02*
X93345000Y-121729500D01*
X90805000Y-117919500D02*
X93345000Y-119189500D01*
X93345000Y-121729500D02*
X92075000Y-122399500D01*
X93345000Y-119189500D02*
X90805000Y-120459500D01*
X92837000Y-119189500D02*
X90297000Y-120459500D01*
X91567000Y-122399500D02*
X91567000Y-123507500D01*
X91567000Y-116903500D02*
X90297000Y-117919500D01*
X92075000Y-116903500D02*
X92075000Y-115633500D01*
X90297000Y-117919500D02*
X92837000Y-119189500D01*
X92075000Y-122399500D02*
X92075000Y-123507500D01*
X110934500Y-90551000D02*
X109664500Y-91221000D01*
X108394500Y-89281000D02*
X110934500Y-90551000D01*
X110172500Y-85725000D02*
X108902500Y-86741000D01*
X109664500Y-85725000D02*
X109664500Y-84455000D01*
X108902500Y-89281000D02*
X111442500Y-90551000D01*
X108902500Y-86741000D02*
X111442500Y-88011000D01*
X111442500Y-90551000D02*
X110172500Y-91221000D01*
X111442500Y-88011000D02*
X108902500Y-89281000D01*
X110934500Y-88011000D02*
X108394500Y-89281000D01*
X109664500Y-91221000D02*
X109664500Y-92329000D01*
X109664500Y-85725000D02*
X108394500Y-86741000D01*
X110172500Y-85725000D02*
X110172500Y-84455000D01*
X108394500Y-86741000D02*
X110934500Y-88011000D01*
X110172500Y-91221000D02*
X110172500Y-92329000D01*
X122110500Y-112903000D02*
X120840500Y-113573000D01*
X119570500Y-111633000D02*
X122110500Y-112903000D01*
X121348500Y-108077000D02*
X120078500Y-109093000D01*
X120840500Y-108077000D02*
X120840500Y-106807000D01*
X120078500Y-111633000D02*
X122618500Y-112903000D01*
X120078500Y-109093000D02*
X122618500Y-110363000D01*
X122618500Y-112903000D02*
X121348500Y-113573000D01*
X122618500Y-110363000D02*
X120078500Y-111633000D01*
X122110500Y-110363000D02*
X119570500Y-111633000D01*
X120840500Y-113573000D02*
X120840500Y-114681000D01*
X120840500Y-108077000D02*
X119570500Y-109093000D01*
X121348500Y-108077000D02*
X121348500Y-106807000D01*
X119570500Y-109093000D02*
X122110500Y-110363000D01*
X121348500Y-113573000D02*
X121348500Y-114681000D01*
X117665500Y-122110500D02*
X116395500Y-122780500D01*
X115125500Y-120840500D02*
X117665500Y-122110500D01*
X116903500Y-117284500D02*
X115633500Y-118300500D01*
X116395500Y-117284500D02*
X116395500Y-116014500D01*
X115633500Y-120840500D02*
X118173500Y-122110500D01*
X115633500Y-118300500D02*
X118173500Y-119570500D01*
X118173500Y-122110500D02*
X116903500Y-122780500D01*
X118173500Y-119570500D02*
X115633500Y-120840500D01*
X117665500Y-119570500D02*
X115125500Y-120840500D01*
X116395500Y-122780500D02*
X116395500Y-123888500D01*
X116395500Y-117284500D02*
X115125500Y-118300500D01*
X116903500Y-117284500D02*
X116903500Y-116014500D01*
X115125500Y-118300500D02*
X117665500Y-119570500D01*
X116903500Y-122780500D02*
X116903500Y-123888500D01*
X110807500Y-129222500D02*
X109537500Y-129892500D01*
X108267500Y-127952500D02*
X110807500Y-129222500D01*
X110045500Y-124396500D02*
X108775500Y-125412500D01*
X109537500Y-124396500D02*
X109537500Y-123126500D01*
X108775500Y-127952500D02*
X111315500Y-129222500D01*
X108775500Y-125412500D02*
X111315500Y-126682500D01*
X111315500Y-129222500D02*
X110045500Y-129892500D01*
X111315500Y-126682500D02*
X108775500Y-127952500D01*
X110807500Y-126682500D02*
X108267500Y-127952500D01*
X109537500Y-129892500D02*
X109537500Y-131000500D01*
X109537500Y-124396500D02*
X108267500Y-125412500D01*
X110045500Y-124396500D02*
X110045500Y-123126500D01*
X108267500Y-125412500D02*
X110807500Y-126682500D01*
X110045500Y-129892500D02*
X110045500Y-131000500D01*
D10*
X97242000Y-83693000D02*
G75*
G03X97242000Y-83693000I-2500000J0D01*
G01*
D12*
X94742000Y-79121000D02*
X94488000Y-79883000D01*
X94488000Y-79883000D02*
X94742000Y-80645000D01*
X94742000Y-80645000D02*
X94996000Y-79883000D01*
X94996000Y-79883000D02*
X94742000Y-79121000D01*
X94742000Y-81153000D02*
X94742000Y-80645000D01*
X95377000Y-83693000D02*
X94107000Y-83693000D01*
D10*
X103465000Y-67183000D02*
G75*
G03X103465000Y-67183000I-2500000J0D01*
G01*
D12*
X100965000Y-62611000D02*
X100711000Y-63373000D01*
X100711000Y-63373000D02*
X100965000Y-64135000D01*
X100965000Y-64135000D02*
X101219000Y-63373000D01*
X101219000Y-63373000D02*
X100965000Y-62611000D01*
X100965000Y-64643000D02*
X100965000Y-64135000D01*
X101600000Y-67183000D02*
X100330000Y-67183000D01*
D10*
X92670000Y-105727500D02*
G75*
G03X92670000Y-105727500I-2500000J0D01*
G01*
D12*
X90170000Y-101155500D02*
X89916000Y-101917500D01*
X89916000Y-101917500D02*
X90170000Y-102679500D01*
X90170000Y-102679500D02*
X90424000Y-101917500D01*
X90424000Y-101917500D02*
X90170000Y-101155500D01*
X90170000Y-103187500D02*
X90170000Y-102679500D01*
X90805000Y-105727500D02*
X89535000Y-105727500D01*
D10*
X84732500Y-121856500D02*
G75*
G03X84732500Y-121856500I-2500000J0D01*
G01*
D12*
X82232500Y-117284500D02*
X81978500Y-118046500D01*
X81978500Y-118046500D02*
X82232500Y-118808500D01*
X82232500Y-118808500D02*
X82486500Y-118046500D01*
X82486500Y-118046500D02*
X82232500Y-117284500D01*
X82232500Y-119316500D02*
X82232500Y-118808500D01*
X82867500Y-121856500D02*
X81597500Y-121856500D01*
D10*
X115212500Y-75882500D02*
G75*
G03X115212500Y-75882500I-2500000J0D01*
G01*
D12*
X112712500Y-71310500D02*
X112458500Y-72072500D01*
X112458500Y-72072500D02*
X112712500Y-72834500D01*
X112712500Y-72834500D02*
X112966500Y-72072500D01*
X112966500Y-72072500D02*
X112712500Y-71310500D01*
X112712500Y-73342500D02*
X112712500Y-72834500D01*
X113347500Y-75882500D02*
X112077500Y-75882500D01*
D10*
X120038500Y-95821500D02*
G75*
G03X120038500Y-95821500I-2500000J0D01*
G01*
D12*
X117538500Y-91249500D02*
X117284500Y-92011500D01*
X117284500Y-92011500D02*
X117538500Y-92773500D01*
X117538500Y-92773500D02*
X117792500Y-92011500D01*
X117792500Y-92011500D02*
X117538500Y-91249500D01*
X117538500Y-93281500D02*
X117538500Y-92773500D01*
X118173500Y-95821500D02*
X116903500Y-95821500D01*
D10*
X113434500Y-108775500D02*
G75*
G03X113434500Y-108775500I-2500000J0D01*
G01*
D12*
X110934500Y-104203500D02*
X110680500Y-104965500D01*
X110680500Y-104965500D02*
X110934500Y-105727500D01*
X110934500Y-105727500D02*
X111188500Y-104965500D01*
X111188500Y-104965500D02*
X110934500Y-104203500D01*
X110934500Y-106235500D02*
X110934500Y-105727500D01*
X111569500Y-108775500D02*
X110299500Y-108775500D01*
D10*
X137564500Y-125222000D02*
G75*
G03X137564500Y-125222000I-2500000J0D01*
G01*
D12*
X135064500Y-120650000D02*
X134810500Y-121412000D01*
X134810500Y-121412000D02*
X135064500Y-122174000D01*
X135064500Y-122174000D02*
X135318500Y-121412000D01*
X135318500Y-121412000D02*
X135064500Y-120650000D01*
X135064500Y-122682000D02*
X135064500Y-122174000D01*
X135699500Y-125222000D02*
X134429500Y-125222000D01*
D13*
X106553000Y-147066000D02*
X106553000Y-148336000D01*
X107823000Y-147066000D02*
X106553000Y-147066000D01*
X118363000Y-149378929D02*
X118363000Y-149776000D01*
X117603000Y-149378929D02*
X117603000Y-149776000D01*
X118363000Y-158436000D02*
X118363000Y-152436000D01*
X117603000Y-158436000D02*
X118363000Y-158436000D01*
X117603000Y-152436000D02*
X117603000Y-158436000D01*
X116713000Y-149776000D02*
X116713000Y-152436000D01*
X115823000Y-149378929D02*
X115823000Y-149776000D01*
X115063000Y-149378929D02*
X115063000Y-149776000D01*
X115823000Y-158436000D02*
X115823000Y-152436000D01*
X115063000Y-158436000D02*
X115823000Y-158436000D01*
X115063000Y-152436000D02*
X115063000Y-158436000D01*
X114173000Y-149776000D02*
X114173000Y-152436000D01*
X113283000Y-149378929D02*
X113283000Y-149776000D01*
X112523000Y-149378929D02*
X112523000Y-149776000D01*
X113283000Y-158436000D02*
X113283000Y-152436000D01*
X112523000Y-158436000D02*
X113283000Y-158436000D01*
X112523000Y-152436000D02*
X112523000Y-158436000D01*
X111633000Y-149776000D02*
X111633000Y-152436000D01*
X110743000Y-149378929D02*
X110743000Y-149776000D01*
X109983000Y-149378929D02*
X109983000Y-149776000D01*
X110743000Y-158436000D02*
X110743000Y-152436000D01*
X109983000Y-158436000D02*
X110743000Y-158436000D01*
X109983000Y-152436000D02*
X109983000Y-158436000D01*
X109093000Y-149776000D02*
X109093000Y-152436000D01*
X108203000Y-149446000D02*
X108203000Y-149776000D01*
X107443000Y-149446000D02*
X107443000Y-149776000D01*
X108103000Y-152436000D02*
X108103000Y-158436000D01*
X107983000Y-152436000D02*
X107983000Y-158436000D01*
X107863000Y-152436000D02*
X107863000Y-158436000D01*
X107743000Y-152436000D02*
X107743000Y-158436000D01*
X107623000Y-152436000D02*
X107623000Y-158436000D01*
X107503000Y-152436000D02*
X107503000Y-158436000D01*
X108203000Y-158436000D02*
X108203000Y-152436000D01*
X107443000Y-158436000D02*
X108203000Y-158436000D01*
X107443000Y-152436000D02*
X107443000Y-158436000D01*
X106493000Y-152436000D02*
X106493000Y-149776000D01*
X119313000Y-152436000D02*
X106493000Y-152436000D01*
X119313000Y-149776000D02*
X119313000Y-152436000D01*
X106493000Y-149776000D02*
X119313000Y-149776000D01*
D10*
X93795714Y-94557857D02*
X93681428Y-94595952D01*
X93643333Y-94634047D01*
X93605238Y-94710238D01*
X93605238Y-94824523D01*
X93643333Y-94900714D01*
X93681428Y-94938809D01*
X93757619Y-94976904D01*
X94062380Y-94976904D01*
X94062380Y-94176904D01*
X93795714Y-94176904D01*
X93719523Y-94215000D01*
X93681428Y-94253095D01*
X93643333Y-94329285D01*
X93643333Y-94405476D01*
X93681428Y-94481666D01*
X93719523Y-94519761D01*
X93795714Y-94557857D01*
X94062380Y-94557857D01*
X93300476Y-94748333D02*
X92919523Y-94748333D01*
X93376666Y-94976904D02*
X93110000Y-94176904D01*
X92843333Y-94976904D01*
X92119523Y-94900714D02*
X92157619Y-94938809D01*
X92271904Y-94976904D01*
X92348095Y-94976904D01*
X92462380Y-94938809D01*
X92538571Y-94862619D01*
X92576666Y-94786428D01*
X92614761Y-94634047D01*
X92614761Y-94519761D01*
X92576666Y-94367380D01*
X92538571Y-94291190D01*
X92462380Y-94215000D01*
X92348095Y-94176904D01*
X92271904Y-94176904D01*
X92157619Y-94215000D01*
X92119523Y-94253095D01*
X91776666Y-94976904D02*
X91776666Y-94176904D01*
X91319523Y-94976904D02*
X91662380Y-94519761D01*
X91319523Y-94176904D02*
X91776666Y-94634047D01*
D12*
X92948095Y-93511666D02*
X92471904Y-93511666D01*
X93043333Y-93797380D02*
X92710000Y-92797380D01*
X92376666Y-93797380D01*
X105005380Y-152387666D02*
X105719666Y-152387666D01*
X105862523Y-152340047D01*
X105957761Y-152244809D01*
X106005380Y-152101952D01*
X106005380Y-152006714D01*
X105100619Y-152816238D02*
X105053000Y-152863857D01*
X105005380Y-152959095D01*
X105005380Y-153197190D01*
X105053000Y-153292428D01*
X105100619Y-153340047D01*
X105195857Y-153387666D01*
X105291095Y-153387666D01*
X105433952Y-153340047D01*
X106005380Y-152768619D01*
X106005380Y-153387666D01*
M02*
