G04 #@! TF.GenerationSoftware,KiCad,Pcbnew,(5.1.5)-3*
G04 #@! TF.CreationDate,2020-11-14T22:32:06+01:00*
G04 #@! TF.ProjectId,Christmas C2,43687269-7374-46d6-9173-2043322e6b69,rev?*
G04 #@! TF.SameCoordinates,Original*
G04 #@! TF.FileFunction,Copper,L1,Top*
G04 #@! TF.FilePolarity,Positive*
%FSLAX46Y46*%
G04 Gerber Fmt 4.6, Leading zero omitted, Abs format (unit mm)*
G04 Created by KiCad (PCBNEW (5.1.5)-3) date 2020-11-14 22:32:06*
%MOMM*%
%LPD*%
G04 APERTURE LIST*
%ADD10O,1.700000X1.700000*%
%ADD11R,1.700000X1.700000*%
%ADD12C,5.000000*%
%ADD13C,0.254000*%
G04 APERTURE END LIST*
D10*
X91567000Y-155511500D03*
X94107000Y-155511500D03*
X96647000Y-155511500D03*
X99187000Y-155511500D03*
D11*
X101727000Y-155511500D03*
D10*
X99949000Y-137414000D03*
X99949000Y-139954000D03*
X99949000Y-142494000D03*
X99949000Y-145034000D03*
D11*
X99949000Y-147574000D03*
D10*
X117983000Y-145859500D03*
X115443000Y-145859500D03*
X112903000Y-145859500D03*
X110363000Y-145859500D03*
D11*
X107823000Y-145859500D03*
X109601000Y-153797000D03*
D10*
X109601000Y-156337000D03*
X109601000Y-158877000D03*
X109601000Y-161417000D03*
X109601000Y-163957000D03*
X86106000Y-116586000D03*
D11*
X88646000Y-116586000D03*
D12*
X135191500Y-120269000D03*
X74358500Y-181102000D03*
X74358500Y-120269000D03*
X135191500Y-181102000D03*
D13*
G36*
X108823994Y-104405283D02*
G01*
X111508099Y-104719010D01*
X114169422Y-105188273D01*
X116798956Y-105811484D01*
X119387806Y-106586535D01*
X121927210Y-107510802D01*
X124408577Y-108581159D01*
X126823509Y-109793984D01*
X129163837Y-111145173D01*
X131421641Y-112630153D01*
X133589280Y-114243901D01*
X135659422Y-115980956D01*
X137625060Y-117835440D01*
X139479544Y-119801078D01*
X141216599Y-121871220D01*
X142830347Y-124038859D01*
X144315327Y-126296663D01*
X145666516Y-128636991D01*
X146879341Y-131051923D01*
X147949698Y-133533290D01*
X148873965Y-136072694D01*
X149649016Y-138661544D01*
X150272227Y-141291078D01*
X150741490Y-143952401D01*
X151055217Y-146636506D01*
X151212346Y-149334311D01*
X151212346Y-152036689D01*
X151055217Y-154734494D01*
X150741490Y-157418599D01*
X150272227Y-160079922D01*
X149649016Y-162709456D01*
X148873965Y-165298306D01*
X147949698Y-167837710D01*
X146879341Y-170319077D01*
X145666516Y-172734009D01*
X144315327Y-175074337D01*
X142830347Y-177332141D01*
X141216599Y-179499780D01*
X139479544Y-181569922D01*
X137625060Y-183535560D01*
X135659422Y-185390044D01*
X133589280Y-187127099D01*
X131421641Y-188740847D01*
X129163837Y-190225827D01*
X126823509Y-191577016D01*
X124408577Y-192789841D01*
X121927210Y-193860198D01*
X119387806Y-194784465D01*
X116798956Y-195559516D01*
X114169422Y-196182727D01*
X111508099Y-196651990D01*
X108823994Y-196965717D01*
X106126189Y-197122846D01*
X103423811Y-197122846D01*
X100726006Y-196965717D01*
X98041901Y-196651990D01*
X95380578Y-196182727D01*
X92751044Y-195559516D01*
X90162194Y-194784465D01*
X87622790Y-193860198D01*
X85141423Y-192789841D01*
X82726491Y-191577016D01*
X80386163Y-190225827D01*
X78128359Y-188740847D01*
X75960720Y-187127099D01*
X73890578Y-185390044D01*
X71924940Y-183535560D01*
X70070456Y-181569922D01*
X69418734Y-180793229D01*
X71223500Y-180793229D01*
X71223500Y-181410771D01*
X71343976Y-182016446D01*
X71580299Y-182586979D01*
X71923386Y-183100446D01*
X72360054Y-183537114D01*
X72873521Y-183880201D01*
X73444054Y-184116524D01*
X74049729Y-184237000D01*
X74667271Y-184237000D01*
X75272946Y-184116524D01*
X75843479Y-183880201D01*
X76356946Y-183537114D01*
X76793614Y-183100446D01*
X77136701Y-182586979D01*
X77373024Y-182016446D01*
X77493500Y-181410771D01*
X77493500Y-180793229D01*
X132056500Y-180793229D01*
X132056500Y-181410771D01*
X132176976Y-182016446D01*
X132413299Y-182586979D01*
X132756386Y-183100446D01*
X133193054Y-183537114D01*
X133706521Y-183880201D01*
X134277054Y-184116524D01*
X134882729Y-184237000D01*
X135500271Y-184237000D01*
X136105946Y-184116524D01*
X136676479Y-183880201D01*
X137189946Y-183537114D01*
X137626614Y-183100446D01*
X137969701Y-182586979D01*
X138206024Y-182016446D01*
X138326500Y-181410771D01*
X138326500Y-180793229D01*
X138206024Y-180187554D01*
X137969701Y-179617021D01*
X137626614Y-179103554D01*
X137189946Y-178666886D01*
X136676479Y-178323799D01*
X136105946Y-178087476D01*
X135500271Y-177967000D01*
X134882729Y-177967000D01*
X134277054Y-178087476D01*
X133706521Y-178323799D01*
X133193054Y-178666886D01*
X132756386Y-179103554D01*
X132413299Y-179617021D01*
X132176976Y-180187554D01*
X132056500Y-180793229D01*
X77493500Y-180793229D01*
X77373024Y-180187554D01*
X77136701Y-179617021D01*
X76793614Y-179103554D01*
X76356946Y-178666886D01*
X75843479Y-178323799D01*
X75272946Y-178087476D01*
X74667271Y-177967000D01*
X74049729Y-177967000D01*
X73444054Y-178087476D01*
X72873521Y-178323799D01*
X72360054Y-178666886D01*
X71923386Y-179103554D01*
X71580299Y-179617021D01*
X71343976Y-180187554D01*
X71223500Y-180793229D01*
X69418734Y-180793229D01*
X68333401Y-179499780D01*
X66719653Y-177332141D01*
X65234673Y-175074337D01*
X63883484Y-172734009D01*
X62670659Y-170319077D01*
X61600302Y-167837710D01*
X60676035Y-165298306D01*
X59900984Y-162709456D01*
X59277773Y-160079922D01*
X58808510Y-157418599D01*
X58568507Y-155365240D01*
X90082000Y-155365240D01*
X90082000Y-155657760D01*
X90139068Y-155944658D01*
X90251010Y-156214911D01*
X90413525Y-156458132D01*
X90620368Y-156664975D01*
X90863589Y-156827490D01*
X91133842Y-156939432D01*
X91420740Y-156996500D01*
X91713260Y-156996500D01*
X92000158Y-156939432D01*
X92270411Y-156827490D01*
X92513632Y-156664975D01*
X92720475Y-156458132D01*
X92837000Y-156283740D01*
X92953525Y-156458132D01*
X93160368Y-156664975D01*
X93403589Y-156827490D01*
X93673842Y-156939432D01*
X93960740Y-156996500D01*
X94253260Y-156996500D01*
X94540158Y-156939432D01*
X94810411Y-156827490D01*
X95053632Y-156664975D01*
X95260475Y-156458132D01*
X95377000Y-156283740D01*
X95493525Y-156458132D01*
X95700368Y-156664975D01*
X95943589Y-156827490D01*
X96213842Y-156939432D01*
X96500740Y-156996500D01*
X96793260Y-156996500D01*
X97080158Y-156939432D01*
X97350411Y-156827490D01*
X97593632Y-156664975D01*
X97800475Y-156458132D01*
X97917000Y-156283740D01*
X98033525Y-156458132D01*
X98240368Y-156664975D01*
X98483589Y-156827490D01*
X98753842Y-156939432D01*
X99040740Y-156996500D01*
X99333260Y-156996500D01*
X99620158Y-156939432D01*
X99890411Y-156827490D01*
X100133632Y-156664975D01*
X100265487Y-156533120D01*
X100287498Y-156605680D01*
X100346463Y-156715994D01*
X100425815Y-156812685D01*
X100522506Y-156892037D01*
X100632820Y-156951002D01*
X100752518Y-156987312D01*
X100877000Y-156999572D01*
X102577000Y-156999572D01*
X102701482Y-156987312D01*
X102821180Y-156951002D01*
X102931494Y-156892037D01*
X103028185Y-156812685D01*
X103107537Y-156715994D01*
X103166502Y-156605680D01*
X103202812Y-156485982D01*
X103215072Y-156361500D01*
X103215072Y-154661500D01*
X103202812Y-154537018D01*
X103166502Y-154417320D01*
X103107537Y-154307006D01*
X103028185Y-154210315D01*
X102931494Y-154130963D01*
X102821180Y-154071998D01*
X102701482Y-154035688D01*
X102577000Y-154023428D01*
X100877000Y-154023428D01*
X100752518Y-154035688D01*
X100632820Y-154071998D01*
X100522506Y-154130963D01*
X100425815Y-154210315D01*
X100346463Y-154307006D01*
X100287498Y-154417320D01*
X100265487Y-154489880D01*
X100133632Y-154358025D01*
X99890411Y-154195510D01*
X99620158Y-154083568D01*
X99333260Y-154026500D01*
X99040740Y-154026500D01*
X98753842Y-154083568D01*
X98483589Y-154195510D01*
X98240368Y-154358025D01*
X98033525Y-154564868D01*
X97917000Y-154739260D01*
X97800475Y-154564868D01*
X97593632Y-154358025D01*
X97350411Y-154195510D01*
X97080158Y-154083568D01*
X96793260Y-154026500D01*
X96500740Y-154026500D01*
X96213842Y-154083568D01*
X95943589Y-154195510D01*
X95700368Y-154358025D01*
X95493525Y-154564868D01*
X95377000Y-154739260D01*
X95260475Y-154564868D01*
X95053632Y-154358025D01*
X94810411Y-154195510D01*
X94540158Y-154083568D01*
X94253260Y-154026500D01*
X93960740Y-154026500D01*
X93673842Y-154083568D01*
X93403589Y-154195510D01*
X93160368Y-154358025D01*
X92953525Y-154564868D01*
X92837000Y-154739260D01*
X92720475Y-154564868D01*
X92513632Y-154358025D01*
X92270411Y-154195510D01*
X92000158Y-154083568D01*
X91713260Y-154026500D01*
X91420740Y-154026500D01*
X91133842Y-154083568D01*
X90863589Y-154195510D01*
X90620368Y-154358025D01*
X90413525Y-154564868D01*
X90251010Y-154808089D01*
X90139068Y-155078342D01*
X90082000Y-155365240D01*
X58568507Y-155365240D01*
X58494783Y-154734494D01*
X58337654Y-152036689D01*
X58337654Y-149796500D01*
X88998807Y-149796500D01*
X89002000Y-149828918D01*
X89002001Y-151542071D01*
X88998807Y-151574500D01*
X89011550Y-151703883D01*
X89049290Y-151828293D01*
X89110575Y-151942950D01*
X89193052Y-152043448D01*
X89293550Y-152125925D01*
X89408207Y-152187210D01*
X89532617Y-152224950D01*
X89629581Y-152234500D01*
X89662000Y-152237693D01*
X89694419Y-152234500D01*
X103226000Y-152234500D01*
X103226001Y-165702571D01*
X103222807Y-165735000D01*
X103235550Y-165864383D01*
X103273290Y-165988793D01*
X103334575Y-166103450D01*
X103417052Y-166203948D01*
X103517550Y-166286425D01*
X103632207Y-166347710D01*
X103756617Y-166385450D01*
X103853581Y-166395000D01*
X103886000Y-166398193D01*
X103918419Y-166395000D01*
X105631581Y-166395000D01*
X105664000Y-166398193D01*
X105696419Y-166395000D01*
X105793383Y-166385450D01*
X105917793Y-166347710D01*
X106032450Y-166286425D01*
X106132948Y-166203948D01*
X106215425Y-166103450D01*
X106276710Y-165988793D01*
X106314450Y-165864383D01*
X106327193Y-165735000D01*
X106324000Y-165702581D01*
X106324000Y-152947000D01*
X108112928Y-152947000D01*
X108112928Y-154647000D01*
X108125188Y-154771482D01*
X108161498Y-154891180D01*
X108220463Y-155001494D01*
X108299815Y-155098185D01*
X108396506Y-155177537D01*
X108506820Y-155236502D01*
X108579380Y-155258513D01*
X108447525Y-155390368D01*
X108285010Y-155633589D01*
X108173068Y-155903842D01*
X108116000Y-156190740D01*
X108116000Y-156483260D01*
X108173068Y-156770158D01*
X108285010Y-157040411D01*
X108447525Y-157283632D01*
X108654368Y-157490475D01*
X108828760Y-157607000D01*
X108654368Y-157723525D01*
X108447525Y-157930368D01*
X108285010Y-158173589D01*
X108173068Y-158443842D01*
X108116000Y-158730740D01*
X108116000Y-159023260D01*
X108173068Y-159310158D01*
X108285010Y-159580411D01*
X108447525Y-159823632D01*
X108654368Y-160030475D01*
X108828760Y-160147000D01*
X108654368Y-160263525D01*
X108447525Y-160470368D01*
X108285010Y-160713589D01*
X108173068Y-160983842D01*
X108116000Y-161270740D01*
X108116000Y-161563260D01*
X108173068Y-161850158D01*
X108285010Y-162120411D01*
X108447525Y-162363632D01*
X108654368Y-162570475D01*
X108828760Y-162687000D01*
X108654368Y-162803525D01*
X108447525Y-163010368D01*
X108285010Y-163253589D01*
X108173068Y-163523842D01*
X108116000Y-163810740D01*
X108116000Y-164103260D01*
X108173068Y-164390158D01*
X108285010Y-164660411D01*
X108447525Y-164903632D01*
X108654368Y-165110475D01*
X108897589Y-165272990D01*
X109167842Y-165384932D01*
X109454740Y-165442000D01*
X109747260Y-165442000D01*
X110034158Y-165384932D01*
X110304411Y-165272990D01*
X110547632Y-165110475D01*
X110754475Y-164903632D01*
X110916990Y-164660411D01*
X111028932Y-164390158D01*
X111086000Y-164103260D01*
X111086000Y-163810740D01*
X111028932Y-163523842D01*
X110916990Y-163253589D01*
X110754475Y-163010368D01*
X110547632Y-162803525D01*
X110373240Y-162687000D01*
X110547632Y-162570475D01*
X110754475Y-162363632D01*
X110916990Y-162120411D01*
X111028932Y-161850158D01*
X111086000Y-161563260D01*
X111086000Y-161270740D01*
X111028932Y-160983842D01*
X110916990Y-160713589D01*
X110754475Y-160470368D01*
X110547632Y-160263525D01*
X110373240Y-160147000D01*
X110547632Y-160030475D01*
X110754475Y-159823632D01*
X110916990Y-159580411D01*
X111028932Y-159310158D01*
X111086000Y-159023260D01*
X111086000Y-158730740D01*
X111028932Y-158443842D01*
X110916990Y-158173589D01*
X110754475Y-157930368D01*
X110547632Y-157723525D01*
X110373240Y-157607000D01*
X110547632Y-157490475D01*
X110754475Y-157283632D01*
X110916990Y-157040411D01*
X111028932Y-156770158D01*
X111086000Y-156483260D01*
X111086000Y-156190740D01*
X111028932Y-155903842D01*
X110916990Y-155633589D01*
X110754475Y-155390368D01*
X110622620Y-155258513D01*
X110695180Y-155236502D01*
X110805494Y-155177537D01*
X110902185Y-155098185D01*
X110981537Y-155001494D01*
X111040502Y-154891180D01*
X111076812Y-154771482D01*
X111089072Y-154647000D01*
X111089072Y-152947000D01*
X111076812Y-152822518D01*
X111040502Y-152702820D01*
X110981537Y-152592506D01*
X110902185Y-152495815D01*
X110805494Y-152416463D01*
X110695180Y-152357498D01*
X110575482Y-152321188D01*
X110451000Y-152308928D01*
X108751000Y-152308928D01*
X108626518Y-152321188D01*
X108506820Y-152357498D01*
X108396506Y-152416463D01*
X108299815Y-152495815D01*
X108220463Y-152592506D01*
X108161498Y-152702820D01*
X108125188Y-152822518D01*
X108112928Y-152947000D01*
X106324000Y-152947000D01*
X106324000Y-152234500D01*
X119855581Y-152234500D01*
X119888000Y-152237693D01*
X119920419Y-152234500D01*
X120017383Y-152224950D01*
X120141793Y-152187210D01*
X120256450Y-152125925D01*
X120356948Y-152043448D01*
X120439425Y-151942950D01*
X120500710Y-151828293D01*
X120538450Y-151703883D01*
X120551193Y-151574500D01*
X120548000Y-151542081D01*
X120548000Y-149828918D01*
X120551193Y-149796500D01*
X120538450Y-149667117D01*
X120500710Y-149542707D01*
X120439425Y-149428050D01*
X120356948Y-149327552D01*
X120256450Y-149245075D01*
X120141793Y-149183790D01*
X120017383Y-149146050D01*
X119920419Y-149136500D01*
X119888000Y-149133307D01*
X119855581Y-149136500D01*
X106324000Y-149136500D01*
X106324000Y-145009500D01*
X106334928Y-145009500D01*
X106334928Y-146709500D01*
X106347188Y-146833982D01*
X106383498Y-146953680D01*
X106442463Y-147063994D01*
X106521815Y-147160685D01*
X106618506Y-147240037D01*
X106728820Y-147299002D01*
X106848518Y-147335312D01*
X106973000Y-147347572D01*
X108673000Y-147347572D01*
X108797482Y-147335312D01*
X108917180Y-147299002D01*
X109027494Y-147240037D01*
X109124185Y-147160685D01*
X109203537Y-147063994D01*
X109262502Y-146953680D01*
X109284513Y-146881120D01*
X109416368Y-147012975D01*
X109659589Y-147175490D01*
X109929842Y-147287432D01*
X110216740Y-147344500D01*
X110509260Y-147344500D01*
X110796158Y-147287432D01*
X111066411Y-147175490D01*
X111309632Y-147012975D01*
X111516475Y-146806132D01*
X111633000Y-146631740D01*
X111749525Y-146806132D01*
X111956368Y-147012975D01*
X112199589Y-147175490D01*
X112469842Y-147287432D01*
X112756740Y-147344500D01*
X113049260Y-147344500D01*
X113336158Y-147287432D01*
X113606411Y-147175490D01*
X113849632Y-147012975D01*
X114056475Y-146806132D01*
X114173000Y-146631740D01*
X114289525Y-146806132D01*
X114496368Y-147012975D01*
X114739589Y-147175490D01*
X115009842Y-147287432D01*
X115296740Y-147344500D01*
X115589260Y-147344500D01*
X115876158Y-147287432D01*
X116146411Y-147175490D01*
X116389632Y-147012975D01*
X116596475Y-146806132D01*
X116718195Y-146623966D01*
X116787822Y-146740855D01*
X116982731Y-146957088D01*
X117216080Y-147131141D01*
X117478901Y-147256325D01*
X117626110Y-147300976D01*
X117856000Y-147179655D01*
X117856000Y-145986500D01*
X118110000Y-145986500D01*
X118110000Y-147179655D01*
X118339890Y-147300976D01*
X118487099Y-147256325D01*
X118749920Y-147131141D01*
X118983269Y-146957088D01*
X119178178Y-146740855D01*
X119327157Y-146490752D01*
X119424481Y-146216391D01*
X119303814Y-145986500D01*
X118110000Y-145986500D01*
X117856000Y-145986500D01*
X117836000Y-145986500D01*
X117836000Y-145732500D01*
X117856000Y-145732500D01*
X117856000Y-144539345D01*
X118110000Y-144539345D01*
X118110000Y-145732500D01*
X119303814Y-145732500D01*
X119424481Y-145502609D01*
X119327157Y-145228248D01*
X119178178Y-144978145D01*
X118983269Y-144761912D01*
X118749920Y-144587859D01*
X118487099Y-144462675D01*
X118339890Y-144418024D01*
X118110000Y-144539345D01*
X117856000Y-144539345D01*
X117626110Y-144418024D01*
X117478901Y-144462675D01*
X117216080Y-144587859D01*
X116982731Y-144761912D01*
X116787822Y-144978145D01*
X116718195Y-145095034D01*
X116596475Y-144912868D01*
X116389632Y-144706025D01*
X116146411Y-144543510D01*
X115876158Y-144431568D01*
X115589260Y-144374500D01*
X115296740Y-144374500D01*
X115009842Y-144431568D01*
X114739589Y-144543510D01*
X114496368Y-144706025D01*
X114289525Y-144912868D01*
X114173000Y-145087260D01*
X114056475Y-144912868D01*
X113849632Y-144706025D01*
X113606411Y-144543510D01*
X113336158Y-144431568D01*
X113049260Y-144374500D01*
X112756740Y-144374500D01*
X112469842Y-144431568D01*
X112199589Y-144543510D01*
X111956368Y-144706025D01*
X111749525Y-144912868D01*
X111633000Y-145087260D01*
X111516475Y-144912868D01*
X111309632Y-144706025D01*
X111066411Y-144543510D01*
X110796158Y-144431568D01*
X110509260Y-144374500D01*
X110216740Y-144374500D01*
X109929842Y-144431568D01*
X109659589Y-144543510D01*
X109416368Y-144706025D01*
X109284513Y-144837880D01*
X109262502Y-144765320D01*
X109203537Y-144655006D01*
X109124185Y-144558315D01*
X109027494Y-144478963D01*
X108917180Y-144419998D01*
X108797482Y-144383688D01*
X108673000Y-144371428D01*
X106973000Y-144371428D01*
X106848518Y-144383688D01*
X106728820Y-144419998D01*
X106618506Y-144478963D01*
X106521815Y-144558315D01*
X106442463Y-144655006D01*
X106383498Y-144765320D01*
X106347188Y-144885018D01*
X106334928Y-145009500D01*
X106324000Y-145009500D01*
X106324000Y-135668419D01*
X106327193Y-135636000D01*
X106314450Y-135506617D01*
X106276710Y-135382207D01*
X106215425Y-135267550D01*
X106132948Y-135167052D01*
X106032450Y-135084575D01*
X105917793Y-135023290D01*
X105793383Y-134985550D01*
X105696419Y-134976000D01*
X105664000Y-134972807D01*
X105631581Y-134976000D01*
X103918419Y-134976000D01*
X103886000Y-134972807D01*
X103853581Y-134976000D01*
X103756617Y-134985550D01*
X103632207Y-135023290D01*
X103517550Y-135084575D01*
X103417052Y-135167052D01*
X103334575Y-135267550D01*
X103273290Y-135382207D01*
X103235550Y-135506617D01*
X103222807Y-135636000D01*
X103226001Y-135668429D01*
X103226000Y-149136500D01*
X89694419Y-149136500D01*
X89662000Y-149133307D01*
X89629581Y-149136500D01*
X89532617Y-149146050D01*
X89408207Y-149183790D01*
X89293550Y-149245075D01*
X89193052Y-149327552D01*
X89110575Y-149428050D01*
X89049290Y-149542707D01*
X89011550Y-149667117D01*
X88998807Y-149796500D01*
X58337654Y-149796500D01*
X58337654Y-149334311D01*
X58489687Y-146724000D01*
X98460928Y-146724000D01*
X98460928Y-148424000D01*
X98473188Y-148548482D01*
X98509498Y-148668180D01*
X98568463Y-148778494D01*
X98647815Y-148875185D01*
X98744506Y-148954537D01*
X98854820Y-149013502D01*
X98974518Y-149049812D01*
X99099000Y-149062072D01*
X100799000Y-149062072D01*
X100923482Y-149049812D01*
X101043180Y-149013502D01*
X101153494Y-148954537D01*
X101250185Y-148875185D01*
X101329537Y-148778494D01*
X101388502Y-148668180D01*
X101424812Y-148548482D01*
X101437072Y-148424000D01*
X101437072Y-146724000D01*
X101424812Y-146599518D01*
X101388502Y-146479820D01*
X101329537Y-146369506D01*
X101250185Y-146272815D01*
X101153494Y-146193463D01*
X101043180Y-146134498D01*
X100970620Y-146112487D01*
X101102475Y-145980632D01*
X101264990Y-145737411D01*
X101376932Y-145467158D01*
X101434000Y-145180260D01*
X101434000Y-144887740D01*
X101376932Y-144600842D01*
X101264990Y-144330589D01*
X101102475Y-144087368D01*
X100895632Y-143880525D01*
X100721240Y-143764000D01*
X100895632Y-143647475D01*
X101102475Y-143440632D01*
X101264990Y-143197411D01*
X101376932Y-142927158D01*
X101434000Y-142640260D01*
X101434000Y-142347740D01*
X101376932Y-142060842D01*
X101264990Y-141790589D01*
X101102475Y-141547368D01*
X100895632Y-141340525D01*
X100721240Y-141224000D01*
X100895632Y-141107475D01*
X101102475Y-140900632D01*
X101264990Y-140657411D01*
X101376932Y-140387158D01*
X101434000Y-140100260D01*
X101434000Y-139807740D01*
X101376932Y-139520842D01*
X101264990Y-139250589D01*
X101102475Y-139007368D01*
X100895632Y-138800525D01*
X100713466Y-138678805D01*
X100830355Y-138609178D01*
X101046588Y-138414269D01*
X101220641Y-138180920D01*
X101345825Y-137918099D01*
X101390476Y-137770890D01*
X101269155Y-137541000D01*
X100076000Y-137541000D01*
X100076000Y-137561000D01*
X99822000Y-137561000D01*
X99822000Y-137541000D01*
X98628845Y-137541000D01*
X98507524Y-137770890D01*
X98552175Y-137918099D01*
X98677359Y-138180920D01*
X98851412Y-138414269D01*
X99067645Y-138609178D01*
X99184534Y-138678805D01*
X99002368Y-138800525D01*
X98795525Y-139007368D01*
X98633010Y-139250589D01*
X98521068Y-139520842D01*
X98464000Y-139807740D01*
X98464000Y-140100260D01*
X98521068Y-140387158D01*
X98633010Y-140657411D01*
X98795525Y-140900632D01*
X99002368Y-141107475D01*
X99176760Y-141224000D01*
X99002368Y-141340525D01*
X98795525Y-141547368D01*
X98633010Y-141790589D01*
X98521068Y-142060842D01*
X98464000Y-142347740D01*
X98464000Y-142640260D01*
X98521068Y-142927158D01*
X98633010Y-143197411D01*
X98795525Y-143440632D01*
X99002368Y-143647475D01*
X99176760Y-143764000D01*
X99002368Y-143880525D01*
X98795525Y-144087368D01*
X98633010Y-144330589D01*
X98521068Y-144600842D01*
X98464000Y-144887740D01*
X98464000Y-145180260D01*
X98521068Y-145467158D01*
X98633010Y-145737411D01*
X98795525Y-145980632D01*
X98927380Y-146112487D01*
X98854820Y-146134498D01*
X98744506Y-146193463D01*
X98647815Y-146272815D01*
X98568463Y-146369506D01*
X98509498Y-146479820D01*
X98473188Y-146599518D01*
X98460928Y-146724000D01*
X58489687Y-146724000D01*
X58494783Y-146636506D01*
X58808510Y-143952401D01*
X59277773Y-141291078D01*
X59900984Y-138661544D01*
X60381320Y-137057110D01*
X98507524Y-137057110D01*
X98628845Y-137287000D01*
X99822000Y-137287000D01*
X99822000Y-136093186D01*
X100076000Y-136093186D01*
X100076000Y-137287000D01*
X101269155Y-137287000D01*
X101390476Y-137057110D01*
X101345825Y-136909901D01*
X101220641Y-136647080D01*
X101046588Y-136413731D01*
X100830355Y-136218822D01*
X100580252Y-136069843D01*
X100305891Y-135972519D01*
X100076000Y-136093186D01*
X99822000Y-136093186D01*
X99592109Y-135972519D01*
X99317748Y-136069843D01*
X99067645Y-136218822D01*
X98851412Y-136413731D01*
X98677359Y-136647080D01*
X98552175Y-136909901D01*
X98507524Y-137057110D01*
X60381320Y-137057110D01*
X60676035Y-136072694D01*
X61600302Y-133533290D01*
X62670659Y-131051923D01*
X63883484Y-128636991D01*
X65234673Y-126296663D01*
X66719653Y-124038859D01*
X68333401Y-121871220D01*
X69936912Y-119960229D01*
X71223500Y-119960229D01*
X71223500Y-120577771D01*
X71343976Y-121183446D01*
X71580299Y-121753979D01*
X71923386Y-122267446D01*
X72360054Y-122704114D01*
X72873521Y-123047201D01*
X73444054Y-123283524D01*
X74049729Y-123404000D01*
X74667271Y-123404000D01*
X75272946Y-123283524D01*
X75843479Y-123047201D01*
X76356946Y-122704114D01*
X76793614Y-122267446D01*
X77136701Y-121753979D01*
X77373024Y-121183446D01*
X77493500Y-120577771D01*
X77493500Y-119960229D01*
X132056500Y-119960229D01*
X132056500Y-120577771D01*
X132176976Y-121183446D01*
X132413299Y-121753979D01*
X132756386Y-122267446D01*
X133193054Y-122704114D01*
X133706521Y-123047201D01*
X134277054Y-123283524D01*
X134882729Y-123404000D01*
X135500271Y-123404000D01*
X136105946Y-123283524D01*
X136676479Y-123047201D01*
X137189946Y-122704114D01*
X137626614Y-122267446D01*
X137969701Y-121753979D01*
X138206024Y-121183446D01*
X138326500Y-120577771D01*
X138326500Y-119960229D01*
X138206024Y-119354554D01*
X137969701Y-118784021D01*
X137626614Y-118270554D01*
X137189946Y-117833886D01*
X136676479Y-117490799D01*
X136105946Y-117254476D01*
X135500271Y-117134000D01*
X134882729Y-117134000D01*
X134277054Y-117254476D01*
X133706521Y-117490799D01*
X133193054Y-117833886D01*
X132756386Y-118270554D01*
X132413299Y-118784021D01*
X132176976Y-119354554D01*
X132056500Y-119960229D01*
X77493500Y-119960229D01*
X77373024Y-119354554D01*
X77136701Y-118784021D01*
X76793614Y-118270554D01*
X76356946Y-117833886D01*
X75843479Y-117490799D01*
X75272946Y-117254476D01*
X74667271Y-117134000D01*
X74049729Y-117134000D01*
X73444054Y-117254476D01*
X72873521Y-117490799D01*
X72360054Y-117833886D01*
X71923386Y-118270554D01*
X71580299Y-118784021D01*
X71343976Y-119354554D01*
X71223500Y-119960229D01*
X69936912Y-119960229D01*
X70070456Y-119801078D01*
X71924940Y-117835440D01*
X72870986Y-116942891D01*
X84664519Y-116942891D01*
X84761843Y-117217252D01*
X84910822Y-117467355D01*
X85105731Y-117683588D01*
X85339080Y-117857641D01*
X85601901Y-117982825D01*
X85749110Y-118027476D01*
X85979000Y-117906155D01*
X85979000Y-116713000D01*
X84785186Y-116713000D01*
X84664519Y-116942891D01*
X72870986Y-116942891D01*
X73627551Y-116229109D01*
X84664519Y-116229109D01*
X84785186Y-116459000D01*
X85979000Y-116459000D01*
X85979000Y-115265845D01*
X86233000Y-115265845D01*
X86233000Y-116459000D01*
X86253000Y-116459000D01*
X86253000Y-116713000D01*
X86233000Y-116713000D01*
X86233000Y-117906155D01*
X86462890Y-118027476D01*
X86610099Y-117982825D01*
X86872920Y-117857641D01*
X87106269Y-117683588D01*
X87182034Y-117599534D01*
X87206498Y-117680180D01*
X87265463Y-117790494D01*
X87344815Y-117887185D01*
X87441506Y-117966537D01*
X87551820Y-118025502D01*
X87671518Y-118061812D01*
X87796000Y-118074072D01*
X89496000Y-118074072D01*
X89620482Y-118061812D01*
X89740180Y-118025502D01*
X89850494Y-117966537D01*
X89947185Y-117887185D01*
X90026537Y-117790494D01*
X90085502Y-117680180D01*
X90121812Y-117560482D01*
X90134072Y-117436000D01*
X90134072Y-115736000D01*
X90121812Y-115611518D01*
X90085502Y-115491820D01*
X90026537Y-115381506D01*
X89947185Y-115284815D01*
X89850494Y-115205463D01*
X89740180Y-115146498D01*
X89620482Y-115110188D01*
X89496000Y-115097928D01*
X87796000Y-115097928D01*
X87671518Y-115110188D01*
X87551820Y-115146498D01*
X87441506Y-115205463D01*
X87344815Y-115284815D01*
X87265463Y-115381506D01*
X87206498Y-115491820D01*
X87182034Y-115572466D01*
X87106269Y-115488412D01*
X86872920Y-115314359D01*
X86610099Y-115189175D01*
X86462890Y-115144524D01*
X86233000Y-115265845D01*
X85979000Y-115265845D01*
X85749110Y-115144524D01*
X85601901Y-115189175D01*
X85339080Y-115314359D01*
X85105731Y-115488412D01*
X84910822Y-115704645D01*
X84761843Y-115954748D01*
X84664519Y-116229109D01*
X73627551Y-116229109D01*
X73890578Y-115980956D01*
X75960720Y-114243901D01*
X78128359Y-112630153D01*
X80386163Y-111145173D01*
X82726491Y-109793984D01*
X85141423Y-108581159D01*
X87622790Y-107510802D01*
X90162194Y-106586535D01*
X92751044Y-105811484D01*
X95380578Y-105188273D01*
X98041901Y-104719010D01*
X100726006Y-104405283D01*
X103423811Y-104248154D01*
X106126189Y-104248154D01*
X108823994Y-104405283D01*
G37*
X108823994Y-104405283D02*
X111508099Y-104719010D01*
X114169422Y-105188273D01*
X116798956Y-105811484D01*
X119387806Y-106586535D01*
X121927210Y-107510802D01*
X124408577Y-108581159D01*
X126823509Y-109793984D01*
X129163837Y-111145173D01*
X131421641Y-112630153D01*
X133589280Y-114243901D01*
X135659422Y-115980956D01*
X137625060Y-117835440D01*
X139479544Y-119801078D01*
X141216599Y-121871220D01*
X142830347Y-124038859D01*
X144315327Y-126296663D01*
X145666516Y-128636991D01*
X146879341Y-131051923D01*
X147949698Y-133533290D01*
X148873965Y-136072694D01*
X149649016Y-138661544D01*
X150272227Y-141291078D01*
X150741490Y-143952401D01*
X151055217Y-146636506D01*
X151212346Y-149334311D01*
X151212346Y-152036689D01*
X151055217Y-154734494D01*
X150741490Y-157418599D01*
X150272227Y-160079922D01*
X149649016Y-162709456D01*
X148873965Y-165298306D01*
X147949698Y-167837710D01*
X146879341Y-170319077D01*
X145666516Y-172734009D01*
X144315327Y-175074337D01*
X142830347Y-177332141D01*
X141216599Y-179499780D01*
X139479544Y-181569922D01*
X137625060Y-183535560D01*
X135659422Y-185390044D01*
X133589280Y-187127099D01*
X131421641Y-188740847D01*
X129163837Y-190225827D01*
X126823509Y-191577016D01*
X124408577Y-192789841D01*
X121927210Y-193860198D01*
X119387806Y-194784465D01*
X116798956Y-195559516D01*
X114169422Y-196182727D01*
X111508099Y-196651990D01*
X108823994Y-196965717D01*
X106126189Y-197122846D01*
X103423811Y-197122846D01*
X100726006Y-196965717D01*
X98041901Y-196651990D01*
X95380578Y-196182727D01*
X92751044Y-195559516D01*
X90162194Y-194784465D01*
X87622790Y-193860198D01*
X85141423Y-192789841D01*
X82726491Y-191577016D01*
X80386163Y-190225827D01*
X78128359Y-188740847D01*
X75960720Y-187127099D01*
X73890578Y-185390044D01*
X71924940Y-183535560D01*
X70070456Y-181569922D01*
X69418734Y-180793229D01*
X71223500Y-180793229D01*
X71223500Y-181410771D01*
X71343976Y-182016446D01*
X71580299Y-182586979D01*
X71923386Y-183100446D01*
X72360054Y-183537114D01*
X72873521Y-183880201D01*
X73444054Y-184116524D01*
X74049729Y-184237000D01*
X74667271Y-184237000D01*
X75272946Y-184116524D01*
X75843479Y-183880201D01*
X76356946Y-183537114D01*
X76793614Y-183100446D01*
X77136701Y-182586979D01*
X77373024Y-182016446D01*
X77493500Y-181410771D01*
X77493500Y-180793229D01*
X132056500Y-180793229D01*
X132056500Y-181410771D01*
X132176976Y-182016446D01*
X132413299Y-182586979D01*
X132756386Y-183100446D01*
X133193054Y-183537114D01*
X133706521Y-183880201D01*
X134277054Y-184116524D01*
X134882729Y-184237000D01*
X135500271Y-184237000D01*
X136105946Y-184116524D01*
X136676479Y-183880201D01*
X137189946Y-183537114D01*
X137626614Y-183100446D01*
X137969701Y-182586979D01*
X138206024Y-182016446D01*
X138326500Y-181410771D01*
X138326500Y-180793229D01*
X138206024Y-180187554D01*
X137969701Y-179617021D01*
X137626614Y-179103554D01*
X137189946Y-178666886D01*
X136676479Y-178323799D01*
X136105946Y-178087476D01*
X135500271Y-177967000D01*
X134882729Y-177967000D01*
X134277054Y-178087476D01*
X133706521Y-178323799D01*
X133193054Y-178666886D01*
X132756386Y-179103554D01*
X132413299Y-179617021D01*
X132176976Y-180187554D01*
X132056500Y-180793229D01*
X77493500Y-180793229D01*
X77373024Y-180187554D01*
X77136701Y-179617021D01*
X76793614Y-179103554D01*
X76356946Y-178666886D01*
X75843479Y-178323799D01*
X75272946Y-178087476D01*
X74667271Y-177967000D01*
X74049729Y-177967000D01*
X73444054Y-178087476D01*
X72873521Y-178323799D01*
X72360054Y-178666886D01*
X71923386Y-179103554D01*
X71580299Y-179617021D01*
X71343976Y-180187554D01*
X71223500Y-180793229D01*
X69418734Y-180793229D01*
X68333401Y-179499780D01*
X66719653Y-177332141D01*
X65234673Y-175074337D01*
X63883484Y-172734009D01*
X62670659Y-170319077D01*
X61600302Y-167837710D01*
X60676035Y-165298306D01*
X59900984Y-162709456D01*
X59277773Y-160079922D01*
X58808510Y-157418599D01*
X58568507Y-155365240D01*
X90082000Y-155365240D01*
X90082000Y-155657760D01*
X90139068Y-155944658D01*
X90251010Y-156214911D01*
X90413525Y-156458132D01*
X90620368Y-156664975D01*
X90863589Y-156827490D01*
X91133842Y-156939432D01*
X91420740Y-156996500D01*
X91713260Y-156996500D01*
X92000158Y-156939432D01*
X92270411Y-156827490D01*
X92513632Y-156664975D01*
X92720475Y-156458132D01*
X92837000Y-156283740D01*
X92953525Y-156458132D01*
X93160368Y-156664975D01*
X93403589Y-156827490D01*
X93673842Y-156939432D01*
X93960740Y-156996500D01*
X94253260Y-156996500D01*
X94540158Y-156939432D01*
X94810411Y-156827490D01*
X95053632Y-156664975D01*
X95260475Y-156458132D01*
X95377000Y-156283740D01*
X95493525Y-156458132D01*
X95700368Y-156664975D01*
X95943589Y-156827490D01*
X96213842Y-156939432D01*
X96500740Y-156996500D01*
X96793260Y-156996500D01*
X97080158Y-156939432D01*
X97350411Y-156827490D01*
X97593632Y-156664975D01*
X97800475Y-156458132D01*
X97917000Y-156283740D01*
X98033525Y-156458132D01*
X98240368Y-156664975D01*
X98483589Y-156827490D01*
X98753842Y-156939432D01*
X99040740Y-156996500D01*
X99333260Y-156996500D01*
X99620158Y-156939432D01*
X99890411Y-156827490D01*
X100133632Y-156664975D01*
X100265487Y-156533120D01*
X100287498Y-156605680D01*
X100346463Y-156715994D01*
X100425815Y-156812685D01*
X100522506Y-156892037D01*
X100632820Y-156951002D01*
X100752518Y-156987312D01*
X100877000Y-156999572D01*
X102577000Y-156999572D01*
X102701482Y-156987312D01*
X102821180Y-156951002D01*
X102931494Y-156892037D01*
X103028185Y-156812685D01*
X103107537Y-156715994D01*
X103166502Y-156605680D01*
X103202812Y-156485982D01*
X103215072Y-156361500D01*
X103215072Y-154661500D01*
X103202812Y-154537018D01*
X103166502Y-154417320D01*
X103107537Y-154307006D01*
X103028185Y-154210315D01*
X102931494Y-154130963D01*
X102821180Y-154071998D01*
X102701482Y-154035688D01*
X102577000Y-154023428D01*
X100877000Y-154023428D01*
X100752518Y-154035688D01*
X100632820Y-154071998D01*
X100522506Y-154130963D01*
X100425815Y-154210315D01*
X100346463Y-154307006D01*
X100287498Y-154417320D01*
X100265487Y-154489880D01*
X100133632Y-154358025D01*
X99890411Y-154195510D01*
X99620158Y-154083568D01*
X99333260Y-154026500D01*
X99040740Y-154026500D01*
X98753842Y-154083568D01*
X98483589Y-154195510D01*
X98240368Y-154358025D01*
X98033525Y-154564868D01*
X97917000Y-154739260D01*
X97800475Y-154564868D01*
X97593632Y-154358025D01*
X97350411Y-154195510D01*
X97080158Y-154083568D01*
X96793260Y-154026500D01*
X96500740Y-154026500D01*
X96213842Y-154083568D01*
X95943589Y-154195510D01*
X95700368Y-154358025D01*
X95493525Y-154564868D01*
X95377000Y-154739260D01*
X95260475Y-154564868D01*
X95053632Y-154358025D01*
X94810411Y-154195510D01*
X94540158Y-154083568D01*
X94253260Y-154026500D01*
X93960740Y-154026500D01*
X93673842Y-154083568D01*
X93403589Y-154195510D01*
X93160368Y-154358025D01*
X92953525Y-154564868D01*
X92837000Y-154739260D01*
X92720475Y-154564868D01*
X92513632Y-154358025D01*
X92270411Y-154195510D01*
X92000158Y-154083568D01*
X91713260Y-154026500D01*
X91420740Y-154026500D01*
X91133842Y-154083568D01*
X90863589Y-154195510D01*
X90620368Y-154358025D01*
X90413525Y-154564868D01*
X90251010Y-154808089D01*
X90139068Y-155078342D01*
X90082000Y-155365240D01*
X58568507Y-155365240D01*
X58494783Y-154734494D01*
X58337654Y-152036689D01*
X58337654Y-149796500D01*
X88998807Y-149796500D01*
X89002000Y-149828918D01*
X89002001Y-151542071D01*
X88998807Y-151574500D01*
X89011550Y-151703883D01*
X89049290Y-151828293D01*
X89110575Y-151942950D01*
X89193052Y-152043448D01*
X89293550Y-152125925D01*
X89408207Y-152187210D01*
X89532617Y-152224950D01*
X89629581Y-152234500D01*
X89662000Y-152237693D01*
X89694419Y-152234500D01*
X103226000Y-152234500D01*
X103226001Y-165702571D01*
X103222807Y-165735000D01*
X103235550Y-165864383D01*
X103273290Y-165988793D01*
X103334575Y-166103450D01*
X103417052Y-166203948D01*
X103517550Y-166286425D01*
X103632207Y-166347710D01*
X103756617Y-166385450D01*
X103853581Y-166395000D01*
X103886000Y-166398193D01*
X103918419Y-166395000D01*
X105631581Y-166395000D01*
X105664000Y-166398193D01*
X105696419Y-166395000D01*
X105793383Y-166385450D01*
X105917793Y-166347710D01*
X106032450Y-166286425D01*
X106132948Y-166203948D01*
X106215425Y-166103450D01*
X106276710Y-165988793D01*
X106314450Y-165864383D01*
X106327193Y-165735000D01*
X106324000Y-165702581D01*
X106324000Y-152947000D01*
X108112928Y-152947000D01*
X108112928Y-154647000D01*
X108125188Y-154771482D01*
X108161498Y-154891180D01*
X108220463Y-155001494D01*
X108299815Y-155098185D01*
X108396506Y-155177537D01*
X108506820Y-155236502D01*
X108579380Y-155258513D01*
X108447525Y-155390368D01*
X108285010Y-155633589D01*
X108173068Y-155903842D01*
X108116000Y-156190740D01*
X108116000Y-156483260D01*
X108173068Y-156770158D01*
X108285010Y-157040411D01*
X108447525Y-157283632D01*
X108654368Y-157490475D01*
X108828760Y-157607000D01*
X108654368Y-157723525D01*
X108447525Y-157930368D01*
X108285010Y-158173589D01*
X108173068Y-158443842D01*
X108116000Y-158730740D01*
X108116000Y-159023260D01*
X108173068Y-159310158D01*
X108285010Y-159580411D01*
X108447525Y-159823632D01*
X108654368Y-160030475D01*
X108828760Y-160147000D01*
X108654368Y-160263525D01*
X108447525Y-160470368D01*
X108285010Y-160713589D01*
X108173068Y-160983842D01*
X108116000Y-161270740D01*
X108116000Y-161563260D01*
X108173068Y-161850158D01*
X108285010Y-162120411D01*
X108447525Y-162363632D01*
X108654368Y-162570475D01*
X108828760Y-162687000D01*
X108654368Y-162803525D01*
X108447525Y-163010368D01*
X108285010Y-163253589D01*
X108173068Y-163523842D01*
X108116000Y-163810740D01*
X108116000Y-164103260D01*
X108173068Y-164390158D01*
X108285010Y-164660411D01*
X108447525Y-164903632D01*
X108654368Y-165110475D01*
X108897589Y-165272990D01*
X109167842Y-165384932D01*
X109454740Y-165442000D01*
X109747260Y-165442000D01*
X110034158Y-165384932D01*
X110304411Y-165272990D01*
X110547632Y-165110475D01*
X110754475Y-164903632D01*
X110916990Y-164660411D01*
X111028932Y-164390158D01*
X111086000Y-164103260D01*
X111086000Y-163810740D01*
X111028932Y-163523842D01*
X110916990Y-163253589D01*
X110754475Y-163010368D01*
X110547632Y-162803525D01*
X110373240Y-162687000D01*
X110547632Y-162570475D01*
X110754475Y-162363632D01*
X110916990Y-162120411D01*
X111028932Y-161850158D01*
X111086000Y-161563260D01*
X111086000Y-161270740D01*
X111028932Y-160983842D01*
X110916990Y-160713589D01*
X110754475Y-160470368D01*
X110547632Y-160263525D01*
X110373240Y-160147000D01*
X110547632Y-160030475D01*
X110754475Y-159823632D01*
X110916990Y-159580411D01*
X111028932Y-159310158D01*
X111086000Y-159023260D01*
X111086000Y-158730740D01*
X111028932Y-158443842D01*
X110916990Y-158173589D01*
X110754475Y-157930368D01*
X110547632Y-157723525D01*
X110373240Y-157607000D01*
X110547632Y-157490475D01*
X110754475Y-157283632D01*
X110916990Y-157040411D01*
X111028932Y-156770158D01*
X111086000Y-156483260D01*
X111086000Y-156190740D01*
X111028932Y-155903842D01*
X110916990Y-155633589D01*
X110754475Y-155390368D01*
X110622620Y-155258513D01*
X110695180Y-155236502D01*
X110805494Y-155177537D01*
X110902185Y-155098185D01*
X110981537Y-155001494D01*
X111040502Y-154891180D01*
X111076812Y-154771482D01*
X111089072Y-154647000D01*
X111089072Y-152947000D01*
X111076812Y-152822518D01*
X111040502Y-152702820D01*
X110981537Y-152592506D01*
X110902185Y-152495815D01*
X110805494Y-152416463D01*
X110695180Y-152357498D01*
X110575482Y-152321188D01*
X110451000Y-152308928D01*
X108751000Y-152308928D01*
X108626518Y-152321188D01*
X108506820Y-152357498D01*
X108396506Y-152416463D01*
X108299815Y-152495815D01*
X108220463Y-152592506D01*
X108161498Y-152702820D01*
X108125188Y-152822518D01*
X108112928Y-152947000D01*
X106324000Y-152947000D01*
X106324000Y-152234500D01*
X119855581Y-152234500D01*
X119888000Y-152237693D01*
X119920419Y-152234500D01*
X120017383Y-152224950D01*
X120141793Y-152187210D01*
X120256450Y-152125925D01*
X120356948Y-152043448D01*
X120439425Y-151942950D01*
X120500710Y-151828293D01*
X120538450Y-151703883D01*
X120551193Y-151574500D01*
X120548000Y-151542081D01*
X120548000Y-149828918D01*
X120551193Y-149796500D01*
X120538450Y-149667117D01*
X120500710Y-149542707D01*
X120439425Y-149428050D01*
X120356948Y-149327552D01*
X120256450Y-149245075D01*
X120141793Y-149183790D01*
X120017383Y-149146050D01*
X119920419Y-149136500D01*
X119888000Y-149133307D01*
X119855581Y-149136500D01*
X106324000Y-149136500D01*
X106324000Y-145009500D01*
X106334928Y-145009500D01*
X106334928Y-146709500D01*
X106347188Y-146833982D01*
X106383498Y-146953680D01*
X106442463Y-147063994D01*
X106521815Y-147160685D01*
X106618506Y-147240037D01*
X106728820Y-147299002D01*
X106848518Y-147335312D01*
X106973000Y-147347572D01*
X108673000Y-147347572D01*
X108797482Y-147335312D01*
X108917180Y-147299002D01*
X109027494Y-147240037D01*
X109124185Y-147160685D01*
X109203537Y-147063994D01*
X109262502Y-146953680D01*
X109284513Y-146881120D01*
X109416368Y-147012975D01*
X109659589Y-147175490D01*
X109929842Y-147287432D01*
X110216740Y-147344500D01*
X110509260Y-147344500D01*
X110796158Y-147287432D01*
X111066411Y-147175490D01*
X111309632Y-147012975D01*
X111516475Y-146806132D01*
X111633000Y-146631740D01*
X111749525Y-146806132D01*
X111956368Y-147012975D01*
X112199589Y-147175490D01*
X112469842Y-147287432D01*
X112756740Y-147344500D01*
X113049260Y-147344500D01*
X113336158Y-147287432D01*
X113606411Y-147175490D01*
X113849632Y-147012975D01*
X114056475Y-146806132D01*
X114173000Y-146631740D01*
X114289525Y-146806132D01*
X114496368Y-147012975D01*
X114739589Y-147175490D01*
X115009842Y-147287432D01*
X115296740Y-147344500D01*
X115589260Y-147344500D01*
X115876158Y-147287432D01*
X116146411Y-147175490D01*
X116389632Y-147012975D01*
X116596475Y-146806132D01*
X116718195Y-146623966D01*
X116787822Y-146740855D01*
X116982731Y-146957088D01*
X117216080Y-147131141D01*
X117478901Y-147256325D01*
X117626110Y-147300976D01*
X117856000Y-147179655D01*
X117856000Y-145986500D01*
X118110000Y-145986500D01*
X118110000Y-147179655D01*
X118339890Y-147300976D01*
X118487099Y-147256325D01*
X118749920Y-147131141D01*
X118983269Y-146957088D01*
X119178178Y-146740855D01*
X119327157Y-146490752D01*
X119424481Y-146216391D01*
X119303814Y-145986500D01*
X118110000Y-145986500D01*
X117856000Y-145986500D01*
X117836000Y-145986500D01*
X117836000Y-145732500D01*
X117856000Y-145732500D01*
X117856000Y-144539345D01*
X118110000Y-144539345D01*
X118110000Y-145732500D01*
X119303814Y-145732500D01*
X119424481Y-145502609D01*
X119327157Y-145228248D01*
X119178178Y-144978145D01*
X118983269Y-144761912D01*
X118749920Y-144587859D01*
X118487099Y-144462675D01*
X118339890Y-144418024D01*
X118110000Y-144539345D01*
X117856000Y-144539345D01*
X117626110Y-144418024D01*
X117478901Y-144462675D01*
X117216080Y-144587859D01*
X116982731Y-144761912D01*
X116787822Y-144978145D01*
X116718195Y-145095034D01*
X116596475Y-144912868D01*
X116389632Y-144706025D01*
X116146411Y-144543510D01*
X115876158Y-144431568D01*
X115589260Y-144374500D01*
X115296740Y-144374500D01*
X115009842Y-144431568D01*
X114739589Y-144543510D01*
X114496368Y-144706025D01*
X114289525Y-144912868D01*
X114173000Y-145087260D01*
X114056475Y-144912868D01*
X113849632Y-144706025D01*
X113606411Y-144543510D01*
X113336158Y-144431568D01*
X113049260Y-144374500D01*
X112756740Y-144374500D01*
X112469842Y-144431568D01*
X112199589Y-144543510D01*
X111956368Y-144706025D01*
X111749525Y-144912868D01*
X111633000Y-145087260D01*
X111516475Y-144912868D01*
X111309632Y-144706025D01*
X111066411Y-144543510D01*
X110796158Y-144431568D01*
X110509260Y-144374500D01*
X110216740Y-144374500D01*
X109929842Y-144431568D01*
X109659589Y-144543510D01*
X109416368Y-144706025D01*
X109284513Y-144837880D01*
X109262502Y-144765320D01*
X109203537Y-144655006D01*
X109124185Y-144558315D01*
X109027494Y-144478963D01*
X108917180Y-144419998D01*
X108797482Y-144383688D01*
X108673000Y-144371428D01*
X106973000Y-144371428D01*
X106848518Y-144383688D01*
X106728820Y-144419998D01*
X106618506Y-144478963D01*
X106521815Y-144558315D01*
X106442463Y-144655006D01*
X106383498Y-144765320D01*
X106347188Y-144885018D01*
X106334928Y-145009500D01*
X106324000Y-145009500D01*
X106324000Y-135668419D01*
X106327193Y-135636000D01*
X106314450Y-135506617D01*
X106276710Y-135382207D01*
X106215425Y-135267550D01*
X106132948Y-135167052D01*
X106032450Y-135084575D01*
X105917793Y-135023290D01*
X105793383Y-134985550D01*
X105696419Y-134976000D01*
X105664000Y-134972807D01*
X105631581Y-134976000D01*
X103918419Y-134976000D01*
X103886000Y-134972807D01*
X103853581Y-134976000D01*
X103756617Y-134985550D01*
X103632207Y-135023290D01*
X103517550Y-135084575D01*
X103417052Y-135167052D01*
X103334575Y-135267550D01*
X103273290Y-135382207D01*
X103235550Y-135506617D01*
X103222807Y-135636000D01*
X103226001Y-135668429D01*
X103226000Y-149136500D01*
X89694419Y-149136500D01*
X89662000Y-149133307D01*
X89629581Y-149136500D01*
X89532617Y-149146050D01*
X89408207Y-149183790D01*
X89293550Y-149245075D01*
X89193052Y-149327552D01*
X89110575Y-149428050D01*
X89049290Y-149542707D01*
X89011550Y-149667117D01*
X88998807Y-149796500D01*
X58337654Y-149796500D01*
X58337654Y-149334311D01*
X58489687Y-146724000D01*
X98460928Y-146724000D01*
X98460928Y-148424000D01*
X98473188Y-148548482D01*
X98509498Y-148668180D01*
X98568463Y-148778494D01*
X98647815Y-148875185D01*
X98744506Y-148954537D01*
X98854820Y-149013502D01*
X98974518Y-149049812D01*
X99099000Y-149062072D01*
X100799000Y-149062072D01*
X100923482Y-149049812D01*
X101043180Y-149013502D01*
X101153494Y-148954537D01*
X101250185Y-148875185D01*
X101329537Y-148778494D01*
X101388502Y-148668180D01*
X101424812Y-148548482D01*
X101437072Y-148424000D01*
X101437072Y-146724000D01*
X101424812Y-146599518D01*
X101388502Y-146479820D01*
X101329537Y-146369506D01*
X101250185Y-146272815D01*
X101153494Y-146193463D01*
X101043180Y-146134498D01*
X100970620Y-146112487D01*
X101102475Y-145980632D01*
X101264990Y-145737411D01*
X101376932Y-145467158D01*
X101434000Y-145180260D01*
X101434000Y-144887740D01*
X101376932Y-144600842D01*
X101264990Y-144330589D01*
X101102475Y-144087368D01*
X100895632Y-143880525D01*
X100721240Y-143764000D01*
X100895632Y-143647475D01*
X101102475Y-143440632D01*
X101264990Y-143197411D01*
X101376932Y-142927158D01*
X101434000Y-142640260D01*
X101434000Y-142347740D01*
X101376932Y-142060842D01*
X101264990Y-141790589D01*
X101102475Y-141547368D01*
X100895632Y-141340525D01*
X100721240Y-141224000D01*
X100895632Y-141107475D01*
X101102475Y-140900632D01*
X101264990Y-140657411D01*
X101376932Y-140387158D01*
X101434000Y-140100260D01*
X101434000Y-139807740D01*
X101376932Y-139520842D01*
X101264990Y-139250589D01*
X101102475Y-139007368D01*
X100895632Y-138800525D01*
X100713466Y-138678805D01*
X100830355Y-138609178D01*
X101046588Y-138414269D01*
X101220641Y-138180920D01*
X101345825Y-137918099D01*
X101390476Y-137770890D01*
X101269155Y-137541000D01*
X100076000Y-137541000D01*
X100076000Y-137561000D01*
X99822000Y-137561000D01*
X99822000Y-137541000D01*
X98628845Y-137541000D01*
X98507524Y-137770890D01*
X98552175Y-137918099D01*
X98677359Y-138180920D01*
X98851412Y-138414269D01*
X99067645Y-138609178D01*
X99184534Y-138678805D01*
X99002368Y-138800525D01*
X98795525Y-139007368D01*
X98633010Y-139250589D01*
X98521068Y-139520842D01*
X98464000Y-139807740D01*
X98464000Y-140100260D01*
X98521068Y-140387158D01*
X98633010Y-140657411D01*
X98795525Y-140900632D01*
X99002368Y-141107475D01*
X99176760Y-141224000D01*
X99002368Y-141340525D01*
X98795525Y-141547368D01*
X98633010Y-141790589D01*
X98521068Y-142060842D01*
X98464000Y-142347740D01*
X98464000Y-142640260D01*
X98521068Y-142927158D01*
X98633010Y-143197411D01*
X98795525Y-143440632D01*
X99002368Y-143647475D01*
X99176760Y-143764000D01*
X99002368Y-143880525D01*
X98795525Y-144087368D01*
X98633010Y-144330589D01*
X98521068Y-144600842D01*
X98464000Y-144887740D01*
X98464000Y-145180260D01*
X98521068Y-145467158D01*
X98633010Y-145737411D01*
X98795525Y-145980632D01*
X98927380Y-146112487D01*
X98854820Y-146134498D01*
X98744506Y-146193463D01*
X98647815Y-146272815D01*
X98568463Y-146369506D01*
X98509498Y-146479820D01*
X98473188Y-146599518D01*
X98460928Y-146724000D01*
X58489687Y-146724000D01*
X58494783Y-146636506D01*
X58808510Y-143952401D01*
X59277773Y-141291078D01*
X59900984Y-138661544D01*
X60381320Y-137057110D01*
X98507524Y-137057110D01*
X98628845Y-137287000D01*
X99822000Y-137287000D01*
X99822000Y-136093186D01*
X100076000Y-136093186D01*
X100076000Y-137287000D01*
X101269155Y-137287000D01*
X101390476Y-137057110D01*
X101345825Y-136909901D01*
X101220641Y-136647080D01*
X101046588Y-136413731D01*
X100830355Y-136218822D01*
X100580252Y-136069843D01*
X100305891Y-135972519D01*
X100076000Y-136093186D01*
X99822000Y-136093186D01*
X99592109Y-135972519D01*
X99317748Y-136069843D01*
X99067645Y-136218822D01*
X98851412Y-136413731D01*
X98677359Y-136647080D01*
X98552175Y-136909901D01*
X98507524Y-137057110D01*
X60381320Y-137057110D01*
X60676035Y-136072694D01*
X61600302Y-133533290D01*
X62670659Y-131051923D01*
X63883484Y-128636991D01*
X65234673Y-126296663D01*
X66719653Y-124038859D01*
X68333401Y-121871220D01*
X69936912Y-119960229D01*
X71223500Y-119960229D01*
X71223500Y-120577771D01*
X71343976Y-121183446D01*
X71580299Y-121753979D01*
X71923386Y-122267446D01*
X72360054Y-122704114D01*
X72873521Y-123047201D01*
X73444054Y-123283524D01*
X74049729Y-123404000D01*
X74667271Y-123404000D01*
X75272946Y-123283524D01*
X75843479Y-123047201D01*
X76356946Y-122704114D01*
X76793614Y-122267446D01*
X77136701Y-121753979D01*
X77373024Y-121183446D01*
X77493500Y-120577771D01*
X77493500Y-119960229D01*
X132056500Y-119960229D01*
X132056500Y-120577771D01*
X132176976Y-121183446D01*
X132413299Y-121753979D01*
X132756386Y-122267446D01*
X133193054Y-122704114D01*
X133706521Y-123047201D01*
X134277054Y-123283524D01*
X134882729Y-123404000D01*
X135500271Y-123404000D01*
X136105946Y-123283524D01*
X136676479Y-123047201D01*
X137189946Y-122704114D01*
X137626614Y-122267446D01*
X137969701Y-121753979D01*
X138206024Y-121183446D01*
X138326500Y-120577771D01*
X138326500Y-119960229D01*
X138206024Y-119354554D01*
X137969701Y-118784021D01*
X137626614Y-118270554D01*
X137189946Y-117833886D01*
X136676479Y-117490799D01*
X136105946Y-117254476D01*
X135500271Y-117134000D01*
X134882729Y-117134000D01*
X134277054Y-117254476D01*
X133706521Y-117490799D01*
X133193054Y-117833886D01*
X132756386Y-118270554D01*
X132413299Y-118784021D01*
X132176976Y-119354554D01*
X132056500Y-119960229D01*
X77493500Y-119960229D01*
X77373024Y-119354554D01*
X77136701Y-118784021D01*
X76793614Y-118270554D01*
X76356946Y-117833886D01*
X75843479Y-117490799D01*
X75272946Y-117254476D01*
X74667271Y-117134000D01*
X74049729Y-117134000D01*
X73444054Y-117254476D01*
X72873521Y-117490799D01*
X72360054Y-117833886D01*
X71923386Y-118270554D01*
X71580299Y-118784021D01*
X71343976Y-119354554D01*
X71223500Y-119960229D01*
X69936912Y-119960229D01*
X70070456Y-119801078D01*
X71924940Y-117835440D01*
X72870986Y-116942891D01*
X84664519Y-116942891D01*
X84761843Y-117217252D01*
X84910822Y-117467355D01*
X85105731Y-117683588D01*
X85339080Y-117857641D01*
X85601901Y-117982825D01*
X85749110Y-118027476D01*
X85979000Y-117906155D01*
X85979000Y-116713000D01*
X84785186Y-116713000D01*
X84664519Y-116942891D01*
X72870986Y-116942891D01*
X73627551Y-116229109D01*
X84664519Y-116229109D01*
X84785186Y-116459000D01*
X85979000Y-116459000D01*
X85979000Y-115265845D01*
X86233000Y-115265845D01*
X86233000Y-116459000D01*
X86253000Y-116459000D01*
X86253000Y-116713000D01*
X86233000Y-116713000D01*
X86233000Y-117906155D01*
X86462890Y-118027476D01*
X86610099Y-117982825D01*
X86872920Y-117857641D01*
X87106269Y-117683588D01*
X87182034Y-117599534D01*
X87206498Y-117680180D01*
X87265463Y-117790494D01*
X87344815Y-117887185D01*
X87441506Y-117966537D01*
X87551820Y-118025502D01*
X87671518Y-118061812D01*
X87796000Y-118074072D01*
X89496000Y-118074072D01*
X89620482Y-118061812D01*
X89740180Y-118025502D01*
X89850494Y-117966537D01*
X89947185Y-117887185D01*
X90026537Y-117790494D01*
X90085502Y-117680180D01*
X90121812Y-117560482D01*
X90134072Y-117436000D01*
X90134072Y-115736000D01*
X90121812Y-115611518D01*
X90085502Y-115491820D01*
X90026537Y-115381506D01*
X89947185Y-115284815D01*
X89850494Y-115205463D01*
X89740180Y-115146498D01*
X89620482Y-115110188D01*
X89496000Y-115097928D01*
X87796000Y-115097928D01*
X87671518Y-115110188D01*
X87551820Y-115146498D01*
X87441506Y-115205463D01*
X87344815Y-115284815D01*
X87265463Y-115381506D01*
X87206498Y-115491820D01*
X87182034Y-115572466D01*
X87106269Y-115488412D01*
X86872920Y-115314359D01*
X86610099Y-115189175D01*
X86462890Y-115144524D01*
X86233000Y-115265845D01*
X85979000Y-115265845D01*
X85749110Y-115144524D01*
X85601901Y-115189175D01*
X85339080Y-115314359D01*
X85105731Y-115488412D01*
X84910822Y-115704645D01*
X84761843Y-115954748D01*
X84664519Y-116229109D01*
X73627551Y-116229109D01*
X73890578Y-115980956D01*
X75960720Y-114243901D01*
X78128359Y-112630153D01*
X80386163Y-111145173D01*
X82726491Y-109793984D01*
X85141423Y-108581159D01*
X87622790Y-107510802D01*
X90162194Y-106586535D01*
X92751044Y-105811484D01*
X95380578Y-105188273D01*
X98041901Y-104719010D01*
X100726006Y-104405283D01*
X103423811Y-104248154D01*
X106126189Y-104248154D01*
X108823994Y-104405283D01*
M02*
