G04 #@! TF.GenerationSoftware,KiCad,Pcbnew,(5.1.5)-3*
G04 #@! TF.CreationDate,2020-11-14T23:35:12+01:00*
G04 #@! TF.ProjectId,Christmas C2,43687269-7374-46d6-9173-2043322e6b69,rev?*
G04 #@! TF.SameCoordinates,Original*
G04 #@! TF.FileFunction,Soldermask,Top*
G04 #@! TF.FilePolarity,Negative*
%FSLAX46Y46*%
G04 Gerber Fmt 4.6, Leading zero omitted, Abs format (unit mm)*
G04 Created by KiCad (PCBNEW (5.1.5)-3) date 2020-11-14 23:35:12*
%MOMM*%
%LPD*%
G04 APERTURE LIST*
%ADD10C,0.100000*%
G04 APERTURE END LIST*
D10*
G36*
X135935598Y-178649033D02*
G01*
X136399850Y-178841332D01*
X136399852Y-178841333D01*
X136817668Y-179120509D01*
X137172991Y-179475832D01*
X137452167Y-179893648D01*
X137452168Y-179893650D01*
X137644467Y-180357902D01*
X137742500Y-180850747D01*
X137742500Y-181353253D01*
X137644467Y-181846098D01*
X137452168Y-182310350D01*
X137452167Y-182310352D01*
X137172991Y-182728168D01*
X136817668Y-183083491D01*
X136399852Y-183362667D01*
X136399851Y-183362668D01*
X136399850Y-183362668D01*
X135935598Y-183554967D01*
X135442753Y-183653000D01*
X134940247Y-183653000D01*
X134447402Y-183554967D01*
X133983150Y-183362668D01*
X133983149Y-183362668D01*
X133983148Y-183362667D01*
X133565332Y-183083491D01*
X133210009Y-182728168D01*
X132930833Y-182310352D01*
X132930832Y-182310350D01*
X132738533Y-181846098D01*
X132640500Y-181353253D01*
X132640500Y-180850747D01*
X132738533Y-180357902D01*
X132930832Y-179893650D01*
X132930833Y-179893648D01*
X133210009Y-179475832D01*
X133565332Y-179120509D01*
X133983148Y-178841333D01*
X133983150Y-178841332D01*
X134447402Y-178649033D01*
X134940247Y-178551000D01*
X135442753Y-178551000D01*
X135935598Y-178649033D01*
G37*
G36*
X75102598Y-178649033D02*
G01*
X75566850Y-178841332D01*
X75566852Y-178841333D01*
X75984668Y-179120509D01*
X76339991Y-179475832D01*
X76619167Y-179893648D01*
X76619168Y-179893650D01*
X76811467Y-180357902D01*
X76909500Y-180850747D01*
X76909500Y-181353253D01*
X76811467Y-181846098D01*
X76619168Y-182310350D01*
X76619167Y-182310352D01*
X76339991Y-182728168D01*
X75984668Y-183083491D01*
X75566852Y-183362667D01*
X75566851Y-183362668D01*
X75566850Y-183362668D01*
X75102598Y-183554967D01*
X74609753Y-183653000D01*
X74107247Y-183653000D01*
X73614402Y-183554967D01*
X73150150Y-183362668D01*
X73150149Y-183362668D01*
X73150148Y-183362667D01*
X72732332Y-183083491D01*
X72377009Y-182728168D01*
X72097833Y-182310352D01*
X72097832Y-182310350D01*
X71905533Y-181846098D01*
X71807500Y-181353253D01*
X71807500Y-180850747D01*
X71905533Y-180357902D01*
X72097832Y-179893650D01*
X72097833Y-179893648D01*
X72377009Y-179475832D01*
X72732332Y-179120509D01*
X73150148Y-178841333D01*
X73150150Y-178841332D01*
X73614402Y-178649033D01*
X74107247Y-178551000D01*
X74609753Y-178551000D01*
X75102598Y-178649033D01*
G37*
G36*
X109714512Y-163060927D02*
G01*
X109863812Y-163090624D01*
X110027784Y-163158544D01*
X110175354Y-163257147D01*
X110300853Y-163382646D01*
X110399456Y-163530216D01*
X110467376Y-163694188D01*
X110502000Y-163868259D01*
X110502000Y-164045741D01*
X110467376Y-164219812D01*
X110399456Y-164383784D01*
X110300853Y-164531354D01*
X110175354Y-164656853D01*
X110027784Y-164755456D01*
X109863812Y-164823376D01*
X109714512Y-164853073D01*
X109689742Y-164858000D01*
X109512258Y-164858000D01*
X109487488Y-164853073D01*
X109338188Y-164823376D01*
X109174216Y-164755456D01*
X109026646Y-164656853D01*
X108901147Y-164531354D01*
X108802544Y-164383784D01*
X108734624Y-164219812D01*
X108700000Y-164045741D01*
X108700000Y-163868259D01*
X108734624Y-163694188D01*
X108802544Y-163530216D01*
X108901147Y-163382646D01*
X109026646Y-163257147D01*
X109174216Y-163158544D01*
X109338188Y-163090624D01*
X109487488Y-163060927D01*
X109512258Y-163056000D01*
X109689742Y-163056000D01*
X109714512Y-163060927D01*
G37*
G36*
X109714512Y-160520927D02*
G01*
X109863812Y-160550624D01*
X110027784Y-160618544D01*
X110175354Y-160717147D01*
X110300853Y-160842646D01*
X110399456Y-160990216D01*
X110467376Y-161154188D01*
X110502000Y-161328259D01*
X110502000Y-161505741D01*
X110467376Y-161679812D01*
X110399456Y-161843784D01*
X110300853Y-161991354D01*
X110175354Y-162116853D01*
X110027784Y-162215456D01*
X109863812Y-162283376D01*
X109714512Y-162313073D01*
X109689742Y-162318000D01*
X109512258Y-162318000D01*
X109487488Y-162313073D01*
X109338188Y-162283376D01*
X109174216Y-162215456D01*
X109026646Y-162116853D01*
X108901147Y-161991354D01*
X108802544Y-161843784D01*
X108734624Y-161679812D01*
X108700000Y-161505741D01*
X108700000Y-161328259D01*
X108734624Y-161154188D01*
X108802544Y-160990216D01*
X108901147Y-160842646D01*
X109026646Y-160717147D01*
X109174216Y-160618544D01*
X109338188Y-160550624D01*
X109487488Y-160520927D01*
X109512258Y-160516000D01*
X109689742Y-160516000D01*
X109714512Y-160520927D01*
G37*
G36*
X109714512Y-157980927D02*
G01*
X109863812Y-158010624D01*
X110027784Y-158078544D01*
X110175354Y-158177147D01*
X110300853Y-158302646D01*
X110399456Y-158450216D01*
X110467376Y-158614188D01*
X110502000Y-158788259D01*
X110502000Y-158965741D01*
X110467376Y-159139812D01*
X110399456Y-159303784D01*
X110300853Y-159451354D01*
X110175354Y-159576853D01*
X110027784Y-159675456D01*
X109863812Y-159743376D01*
X109714512Y-159773073D01*
X109689742Y-159778000D01*
X109512258Y-159778000D01*
X109487488Y-159773073D01*
X109338188Y-159743376D01*
X109174216Y-159675456D01*
X109026646Y-159576853D01*
X108901147Y-159451354D01*
X108802544Y-159303784D01*
X108734624Y-159139812D01*
X108700000Y-158965741D01*
X108700000Y-158788259D01*
X108734624Y-158614188D01*
X108802544Y-158450216D01*
X108901147Y-158302646D01*
X109026646Y-158177147D01*
X109174216Y-158078544D01*
X109338188Y-158010624D01*
X109487488Y-157980927D01*
X109512258Y-157976000D01*
X109689742Y-157976000D01*
X109714512Y-157980927D01*
G37*
G36*
X109714512Y-155440927D02*
G01*
X109863812Y-155470624D01*
X110027784Y-155538544D01*
X110175354Y-155637147D01*
X110300853Y-155762646D01*
X110399456Y-155910216D01*
X110467376Y-156074188D01*
X110502000Y-156248259D01*
X110502000Y-156425741D01*
X110467376Y-156599812D01*
X110399456Y-156763784D01*
X110300853Y-156911354D01*
X110175354Y-157036853D01*
X110027784Y-157135456D01*
X109863812Y-157203376D01*
X109714512Y-157233073D01*
X109689742Y-157238000D01*
X109512258Y-157238000D01*
X109487488Y-157233073D01*
X109338188Y-157203376D01*
X109174216Y-157135456D01*
X109026646Y-157036853D01*
X108901147Y-156911354D01*
X108802544Y-156763784D01*
X108734624Y-156599812D01*
X108700000Y-156425741D01*
X108700000Y-156248259D01*
X108734624Y-156074188D01*
X108802544Y-155910216D01*
X108901147Y-155762646D01*
X109026646Y-155637147D01*
X109174216Y-155538544D01*
X109338188Y-155470624D01*
X109487488Y-155440927D01*
X109512258Y-155436000D01*
X109689742Y-155436000D01*
X109714512Y-155440927D01*
G37*
G36*
X102628000Y-156412500D02*
G01*
X100826000Y-156412500D01*
X100826000Y-154610500D01*
X102628000Y-154610500D01*
X102628000Y-156412500D01*
G37*
G36*
X91680512Y-154615427D02*
G01*
X91829812Y-154645124D01*
X91993784Y-154713044D01*
X92141354Y-154811647D01*
X92266853Y-154937146D01*
X92365456Y-155084716D01*
X92433376Y-155248688D01*
X92468000Y-155422759D01*
X92468000Y-155600241D01*
X92433376Y-155774312D01*
X92365456Y-155938284D01*
X92266853Y-156085854D01*
X92141354Y-156211353D01*
X91993784Y-156309956D01*
X91829812Y-156377876D01*
X91680512Y-156407573D01*
X91655742Y-156412500D01*
X91478258Y-156412500D01*
X91453488Y-156407573D01*
X91304188Y-156377876D01*
X91140216Y-156309956D01*
X90992646Y-156211353D01*
X90867147Y-156085854D01*
X90768544Y-155938284D01*
X90700624Y-155774312D01*
X90666000Y-155600241D01*
X90666000Y-155422759D01*
X90700624Y-155248688D01*
X90768544Y-155084716D01*
X90867147Y-154937146D01*
X90992646Y-154811647D01*
X91140216Y-154713044D01*
X91304188Y-154645124D01*
X91453488Y-154615427D01*
X91478258Y-154610500D01*
X91655742Y-154610500D01*
X91680512Y-154615427D01*
G37*
G36*
X94220512Y-154615427D02*
G01*
X94369812Y-154645124D01*
X94533784Y-154713044D01*
X94681354Y-154811647D01*
X94806853Y-154937146D01*
X94905456Y-155084716D01*
X94973376Y-155248688D01*
X95008000Y-155422759D01*
X95008000Y-155600241D01*
X94973376Y-155774312D01*
X94905456Y-155938284D01*
X94806853Y-156085854D01*
X94681354Y-156211353D01*
X94533784Y-156309956D01*
X94369812Y-156377876D01*
X94220512Y-156407573D01*
X94195742Y-156412500D01*
X94018258Y-156412500D01*
X93993488Y-156407573D01*
X93844188Y-156377876D01*
X93680216Y-156309956D01*
X93532646Y-156211353D01*
X93407147Y-156085854D01*
X93308544Y-155938284D01*
X93240624Y-155774312D01*
X93206000Y-155600241D01*
X93206000Y-155422759D01*
X93240624Y-155248688D01*
X93308544Y-155084716D01*
X93407147Y-154937146D01*
X93532646Y-154811647D01*
X93680216Y-154713044D01*
X93844188Y-154645124D01*
X93993488Y-154615427D01*
X94018258Y-154610500D01*
X94195742Y-154610500D01*
X94220512Y-154615427D01*
G37*
G36*
X96760512Y-154615427D02*
G01*
X96909812Y-154645124D01*
X97073784Y-154713044D01*
X97221354Y-154811647D01*
X97346853Y-154937146D01*
X97445456Y-155084716D01*
X97513376Y-155248688D01*
X97548000Y-155422759D01*
X97548000Y-155600241D01*
X97513376Y-155774312D01*
X97445456Y-155938284D01*
X97346853Y-156085854D01*
X97221354Y-156211353D01*
X97073784Y-156309956D01*
X96909812Y-156377876D01*
X96760512Y-156407573D01*
X96735742Y-156412500D01*
X96558258Y-156412500D01*
X96533488Y-156407573D01*
X96384188Y-156377876D01*
X96220216Y-156309956D01*
X96072646Y-156211353D01*
X95947147Y-156085854D01*
X95848544Y-155938284D01*
X95780624Y-155774312D01*
X95746000Y-155600241D01*
X95746000Y-155422759D01*
X95780624Y-155248688D01*
X95848544Y-155084716D01*
X95947147Y-154937146D01*
X96072646Y-154811647D01*
X96220216Y-154713044D01*
X96384188Y-154645124D01*
X96533488Y-154615427D01*
X96558258Y-154610500D01*
X96735742Y-154610500D01*
X96760512Y-154615427D01*
G37*
G36*
X99300512Y-154615427D02*
G01*
X99449812Y-154645124D01*
X99613784Y-154713044D01*
X99761354Y-154811647D01*
X99886853Y-154937146D01*
X99985456Y-155084716D01*
X100053376Y-155248688D01*
X100088000Y-155422759D01*
X100088000Y-155600241D01*
X100053376Y-155774312D01*
X99985456Y-155938284D01*
X99886853Y-156085854D01*
X99761354Y-156211353D01*
X99613784Y-156309956D01*
X99449812Y-156377876D01*
X99300512Y-156407573D01*
X99275742Y-156412500D01*
X99098258Y-156412500D01*
X99073488Y-156407573D01*
X98924188Y-156377876D01*
X98760216Y-156309956D01*
X98612646Y-156211353D01*
X98487147Y-156085854D01*
X98388544Y-155938284D01*
X98320624Y-155774312D01*
X98286000Y-155600241D01*
X98286000Y-155422759D01*
X98320624Y-155248688D01*
X98388544Y-155084716D01*
X98487147Y-154937146D01*
X98612646Y-154811647D01*
X98760216Y-154713044D01*
X98924188Y-154645124D01*
X99073488Y-154615427D01*
X99098258Y-154610500D01*
X99275742Y-154610500D01*
X99300512Y-154615427D01*
G37*
G36*
X110502000Y-154698000D02*
G01*
X108700000Y-154698000D01*
X108700000Y-152896000D01*
X110502000Y-152896000D01*
X110502000Y-154698000D01*
G37*
G36*
X100850000Y-148475000D02*
G01*
X99048000Y-148475000D01*
X99048000Y-146673000D01*
X100850000Y-146673000D01*
X100850000Y-148475000D01*
G37*
G36*
X113016512Y-144963427D02*
G01*
X113165812Y-144993124D01*
X113329784Y-145061044D01*
X113477354Y-145159647D01*
X113602853Y-145285146D01*
X113701456Y-145432716D01*
X113769376Y-145596688D01*
X113804000Y-145770759D01*
X113804000Y-145948241D01*
X113769376Y-146122312D01*
X113701456Y-146286284D01*
X113602853Y-146433854D01*
X113477354Y-146559353D01*
X113329784Y-146657956D01*
X113165812Y-146725876D01*
X113016512Y-146755573D01*
X112991742Y-146760500D01*
X112814258Y-146760500D01*
X112789488Y-146755573D01*
X112640188Y-146725876D01*
X112476216Y-146657956D01*
X112328646Y-146559353D01*
X112203147Y-146433854D01*
X112104544Y-146286284D01*
X112036624Y-146122312D01*
X112002000Y-145948241D01*
X112002000Y-145770759D01*
X112036624Y-145596688D01*
X112104544Y-145432716D01*
X112203147Y-145285146D01*
X112328646Y-145159647D01*
X112476216Y-145061044D01*
X112640188Y-144993124D01*
X112789488Y-144963427D01*
X112814258Y-144958500D01*
X112991742Y-144958500D01*
X113016512Y-144963427D01*
G37*
G36*
X110476512Y-144963427D02*
G01*
X110625812Y-144993124D01*
X110789784Y-145061044D01*
X110937354Y-145159647D01*
X111062853Y-145285146D01*
X111161456Y-145432716D01*
X111229376Y-145596688D01*
X111264000Y-145770759D01*
X111264000Y-145948241D01*
X111229376Y-146122312D01*
X111161456Y-146286284D01*
X111062853Y-146433854D01*
X110937354Y-146559353D01*
X110789784Y-146657956D01*
X110625812Y-146725876D01*
X110476512Y-146755573D01*
X110451742Y-146760500D01*
X110274258Y-146760500D01*
X110249488Y-146755573D01*
X110100188Y-146725876D01*
X109936216Y-146657956D01*
X109788646Y-146559353D01*
X109663147Y-146433854D01*
X109564544Y-146286284D01*
X109496624Y-146122312D01*
X109462000Y-145948241D01*
X109462000Y-145770759D01*
X109496624Y-145596688D01*
X109564544Y-145432716D01*
X109663147Y-145285146D01*
X109788646Y-145159647D01*
X109936216Y-145061044D01*
X110100188Y-144993124D01*
X110249488Y-144963427D01*
X110274258Y-144958500D01*
X110451742Y-144958500D01*
X110476512Y-144963427D01*
G37*
G36*
X108724000Y-146760500D02*
G01*
X106922000Y-146760500D01*
X106922000Y-144958500D01*
X108724000Y-144958500D01*
X108724000Y-146760500D01*
G37*
G36*
X115556512Y-144963427D02*
G01*
X115705812Y-144993124D01*
X115869784Y-145061044D01*
X116017354Y-145159647D01*
X116142853Y-145285146D01*
X116241456Y-145432716D01*
X116309376Y-145596688D01*
X116344000Y-145770759D01*
X116344000Y-145948241D01*
X116309376Y-146122312D01*
X116241456Y-146286284D01*
X116142853Y-146433854D01*
X116017354Y-146559353D01*
X115869784Y-146657956D01*
X115705812Y-146725876D01*
X115556512Y-146755573D01*
X115531742Y-146760500D01*
X115354258Y-146760500D01*
X115329488Y-146755573D01*
X115180188Y-146725876D01*
X115016216Y-146657956D01*
X114868646Y-146559353D01*
X114743147Y-146433854D01*
X114644544Y-146286284D01*
X114576624Y-146122312D01*
X114542000Y-145948241D01*
X114542000Y-145770759D01*
X114576624Y-145596688D01*
X114644544Y-145432716D01*
X114743147Y-145285146D01*
X114868646Y-145159647D01*
X115016216Y-145061044D01*
X115180188Y-144993124D01*
X115329488Y-144963427D01*
X115354258Y-144958500D01*
X115531742Y-144958500D01*
X115556512Y-144963427D01*
G37*
G36*
X118096512Y-144963427D02*
G01*
X118245812Y-144993124D01*
X118409784Y-145061044D01*
X118557354Y-145159647D01*
X118682853Y-145285146D01*
X118781456Y-145432716D01*
X118849376Y-145596688D01*
X118884000Y-145770759D01*
X118884000Y-145948241D01*
X118849376Y-146122312D01*
X118781456Y-146286284D01*
X118682853Y-146433854D01*
X118557354Y-146559353D01*
X118409784Y-146657956D01*
X118245812Y-146725876D01*
X118096512Y-146755573D01*
X118071742Y-146760500D01*
X117894258Y-146760500D01*
X117869488Y-146755573D01*
X117720188Y-146725876D01*
X117556216Y-146657956D01*
X117408646Y-146559353D01*
X117283147Y-146433854D01*
X117184544Y-146286284D01*
X117116624Y-146122312D01*
X117082000Y-145948241D01*
X117082000Y-145770759D01*
X117116624Y-145596688D01*
X117184544Y-145432716D01*
X117283147Y-145285146D01*
X117408646Y-145159647D01*
X117556216Y-145061044D01*
X117720188Y-144993124D01*
X117869488Y-144963427D01*
X117894258Y-144958500D01*
X118071742Y-144958500D01*
X118096512Y-144963427D01*
G37*
G36*
X100062512Y-144137927D02*
G01*
X100211812Y-144167624D01*
X100375784Y-144235544D01*
X100523354Y-144334147D01*
X100648853Y-144459646D01*
X100747456Y-144607216D01*
X100815376Y-144771188D01*
X100850000Y-144945259D01*
X100850000Y-145122741D01*
X100815376Y-145296812D01*
X100747456Y-145460784D01*
X100648853Y-145608354D01*
X100523354Y-145733853D01*
X100375784Y-145832456D01*
X100211812Y-145900376D01*
X100062512Y-145930073D01*
X100037742Y-145935000D01*
X99860258Y-145935000D01*
X99835488Y-145930073D01*
X99686188Y-145900376D01*
X99522216Y-145832456D01*
X99374646Y-145733853D01*
X99249147Y-145608354D01*
X99150544Y-145460784D01*
X99082624Y-145296812D01*
X99048000Y-145122741D01*
X99048000Y-144945259D01*
X99082624Y-144771188D01*
X99150544Y-144607216D01*
X99249147Y-144459646D01*
X99374646Y-144334147D01*
X99522216Y-144235544D01*
X99686188Y-144167624D01*
X99835488Y-144137927D01*
X99860258Y-144133000D01*
X100037742Y-144133000D01*
X100062512Y-144137927D01*
G37*
G36*
X100062512Y-141597927D02*
G01*
X100211812Y-141627624D01*
X100375784Y-141695544D01*
X100523354Y-141794147D01*
X100648853Y-141919646D01*
X100747456Y-142067216D01*
X100815376Y-142231188D01*
X100850000Y-142405259D01*
X100850000Y-142582741D01*
X100815376Y-142756812D01*
X100747456Y-142920784D01*
X100648853Y-143068354D01*
X100523354Y-143193853D01*
X100375784Y-143292456D01*
X100211812Y-143360376D01*
X100062512Y-143390073D01*
X100037742Y-143395000D01*
X99860258Y-143395000D01*
X99835488Y-143390073D01*
X99686188Y-143360376D01*
X99522216Y-143292456D01*
X99374646Y-143193853D01*
X99249147Y-143068354D01*
X99150544Y-142920784D01*
X99082624Y-142756812D01*
X99048000Y-142582741D01*
X99048000Y-142405259D01*
X99082624Y-142231188D01*
X99150544Y-142067216D01*
X99249147Y-141919646D01*
X99374646Y-141794147D01*
X99522216Y-141695544D01*
X99686188Y-141627624D01*
X99835488Y-141597927D01*
X99860258Y-141593000D01*
X100037742Y-141593000D01*
X100062512Y-141597927D01*
G37*
G36*
X100062512Y-139057927D02*
G01*
X100211812Y-139087624D01*
X100375784Y-139155544D01*
X100523354Y-139254147D01*
X100648853Y-139379646D01*
X100747456Y-139527216D01*
X100815376Y-139691188D01*
X100850000Y-139865259D01*
X100850000Y-140042741D01*
X100815376Y-140216812D01*
X100747456Y-140380784D01*
X100648853Y-140528354D01*
X100523354Y-140653853D01*
X100375784Y-140752456D01*
X100211812Y-140820376D01*
X100062512Y-140850073D01*
X100037742Y-140855000D01*
X99860258Y-140855000D01*
X99835488Y-140850073D01*
X99686188Y-140820376D01*
X99522216Y-140752456D01*
X99374646Y-140653853D01*
X99249147Y-140528354D01*
X99150544Y-140380784D01*
X99082624Y-140216812D01*
X99048000Y-140042741D01*
X99048000Y-139865259D01*
X99082624Y-139691188D01*
X99150544Y-139527216D01*
X99249147Y-139379646D01*
X99374646Y-139254147D01*
X99522216Y-139155544D01*
X99686188Y-139087624D01*
X99835488Y-139057927D01*
X99860258Y-139053000D01*
X100037742Y-139053000D01*
X100062512Y-139057927D01*
G37*
G36*
X100062512Y-136517927D02*
G01*
X100211812Y-136547624D01*
X100375784Y-136615544D01*
X100523354Y-136714147D01*
X100648853Y-136839646D01*
X100747456Y-136987216D01*
X100815376Y-137151188D01*
X100850000Y-137325259D01*
X100850000Y-137502741D01*
X100815376Y-137676812D01*
X100747456Y-137840784D01*
X100648853Y-137988354D01*
X100523354Y-138113853D01*
X100375784Y-138212456D01*
X100211812Y-138280376D01*
X100062512Y-138310073D01*
X100037742Y-138315000D01*
X99860258Y-138315000D01*
X99835488Y-138310073D01*
X99686188Y-138280376D01*
X99522216Y-138212456D01*
X99374646Y-138113853D01*
X99249147Y-137988354D01*
X99150544Y-137840784D01*
X99082624Y-137676812D01*
X99048000Y-137502741D01*
X99048000Y-137325259D01*
X99082624Y-137151188D01*
X99150544Y-136987216D01*
X99249147Y-136839646D01*
X99374646Y-136714147D01*
X99522216Y-136615544D01*
X99686188Y-136547624D01*
X99835488Y-136517927D01*
X99860258Y-136513000D01*
X100037742Y-136513000D01*
X100062512Y-136517927D01*
G37*
G36*
X75102598Y-117816033D02*
G01*
X75566850Y-118008332D01*
X75566852Y-118008333D01*
X75984668Y-118287509D01*
X76339991Y-118642832D01*
X76619167Y-119060648D01*
X76619168Y-119060650D01*
X76811467Y-119524902D01*
X76909500Y-120017747D01*
X76909500Y-120520253D01*
X76811467Y-121013098D01*
X76619168Y-121477350D01*
X76619167Y-121477352D01*
X76339991Y-121895168D01*
X75984668Y-122250491D01*
X75566852Y-122529667D01*
X75566851Y-122529668D01*
X75566850Y-122529668D01*
X75102598Y-122721967D01*
X74609753Y-122820000D01*
X74107247Y-122820000D01*
X73614402Y-122721967D01*
X73150150Y-122529668D01*
X73150149Y-122529668D01*
X73150148Y-122529667D01*
X72732332Y-122250491D01*
X72377009Y-121895168D01*
X72097833Y-121477352D01*
X72097832Y-121477350D01*
X71905533Y-121013098D01*
X71807500Y-120520253D01*
X71807500Y-120017747D01*
X71905533Y-119524902D01*
X72097832Y-119060650D01*
X72097833Y-119060648D01*
X72377009Y-118642832D01*
X72732332Y-118287509D01*
X73150148Y-118008333D01*
X73150150Y-118008332D01*
X73614402Y-117816033D01*
X74107247Y-117718000D01*
X74609753Y-117718000D01*
X75102598Y-117816033D01*
G37*
G36*
X135935598Y-117816033D02*
G01*
X136399850Y-118008332D01*
X136399852Y-118008333D01*
X136817668Y-118287509D01*
X137172991Y-118642832D01*
X137452167Y-119060648D01*
X137452168Y-119060650D01*
X137644467Y-119524902D01*
X137742500Y-120017747D01*
X137742500Y-120520253D01*
X137644467Y-121013098D01*
X137452168Y-121477350D01*
X137452167Y-121477352D01*
X137172991Y-121895168D01*
X136817668Y-122250491D01*
X136399852Y-122529667D01*
X136399851Y-122529668D01*
X136399850Y-122529668D01*
X135935598Y-122721967D01*
X135442753Y-122820000D01*
X134940247Y-122820000D01*
X134447402Y-122721967D01*
X133983150Y-122529668D01*
X133983149Y-122529668D01*
X133983148Y-122529667D01*
X133565332Y-122250491D01*
X133210009Y-121895168D01*
X132930833Y-121477352D01*
X132930832Y-121477350D01*
X132738533Y-121013098D01*
X132640500Y-120520253D01*
X132640500Y-120017747D01*
X132738533Y-119524902D01*
X132930832Y-119060650D01*
X132930833Y-119060648D01*
X133210009Y-118642832D01*
X133565332Y-118287509D01*
X133983148Y-118008333D01*
X133983150Y-118008332D01*
X134447402Y-117816033D01*
X134940247Y-117718000D01*
X135442753Y-117718000D01*
X135935598Y-117816033D01*
G37*
G36*
X114264585Y-115318802D02*
G01*
X114414410Y-115348604D01*
X114696674Y-115465521D01*
X114950705Y-115635259D01*
X115166741Y-115851295D01*
X115336479Y-116105326D01*
X115453396Y-116387590D01*
X115513000Y-116687240D01*
X115513000Y-116992760D01*
X115453396Y-117292410D01*
X115336479Y-117574674D01*
X115166741Y-117828705D01*
X114950705Y-118044741D01*
X114696674Y-118214479D01*
X114414410Y-118331396D01*
X114264585Y-118361198D01*
X114114761Y-118391000D01*
X113809239Y-118391000D01*
X113659415Y-118361198D01*
X113509590Y-118331396D01*
X113227326Y-118214479D01*
X112973295Y-118044741D01*
X112757259Y-117828705D01*
X112587521Y-117574674D01*
X112470604Y-117292410D01*
X112411000Y-116992760D01*
X112411000Y-116687240D01*
X112470604Y-116387590D01*
X112587521Y-116105326D01*
X112757259Y-115851295D01*
X112973295Y-115635259D01*
X113227326Y-115465521D01*
X113509590Y-115348604D01*
X113659415Y-115318802D01*
X113809239Y-115289000D01*
X114114761Y-115289000D01*
X114264585Y-115318802D01*
G37*
G36*
X95023000Y-118391000D02*
G01*
X91921000Y-118391000D01*
X91921000Y-115289000D01*
X95023000Y-115289000D01*
X95023000Y-118391000D01*
G37*
G36*
X109841512Y-115943927D02*
G01*
X109990812Y-115973624D01*
X110154784Y-116041544D01*
X110302354Y-116140147D01*
X110427853Y-116265646D01*
X110526456Y-116413216D01*
X110594376Y-116577188D01*
X110629000Y-116751259D01*
X110629000Y-116928741D01*
X110594376Y-117102812D01*
X110526456Y-117266784D01*
X110427853Y-117414354D01*
X110302354Y-117539853D01*
X110154784Y-117638456D01*
X109990812Y-117706376D01*
X109841512Y-117736073D01*
X109816742Y-117741000D01*
X109639258Y-117741000D01*
X109614488Y-117736073D01*
X109465188Y-117706376D01*
X109301216Y-117638456D01*
X109153646Y-117539853D01*
X109028147Y-117414354D01*
X108929544Y-117266784D01*
X108861624Y-117102812D01*
X108827000Y-116928741D01*
X108827000Y-116751259D01*
X108861624Y-116577188D01*
X108929544Y-116413216D01*
X109028147Y-116265646D01*
X109153646Y-116140147D01*
X109301216Y-116041544D01*
X109465188Y-115973624D01*
X109614488Y-115943927D01*
X109639258Y-115939000D01*
X109816742Y-115939000D01*
X109841512Y-115943927D01*
G37*
G36*
X107301512Y-115943927D02*
G01*
X107450812Y-115973624D01*
X107614784Y-116041544D01*
X107762354Y-116140147D01*
X107887853Y-116265646D01*
X107986456Y-116413216D01*
X108054376Y-116577188D01*
X108089000Y-116751259D01*
X108089000Y-116928741D01*
X108054376Y-117102812D01*
X107986456Y-117266784D01*
X107887853Y-117414354D01*
X107762354Y-117539853D01*
X107614784Y-117638456D01*
X107450812Y-117706376D01*
X107301512Y-117736073D01*
X107276742Y-117741000D01*
X107099258Y-117741000D01*
X107074488Y-117736073D01*
X106925188Y-117706376D01*
X106761216Y-117638456D01*
X106613646Y-117539853D01*
X106488147Y-117414354D01*
X106389544Y-117266784D01*
X106321624Y-117102812D01*
X106287000Y-116928741D01*
X106287000Y-116751259D01*
X106321624Y-116577188D01*
X106389544Y-116413216D01*
X106488147Y-116265646D01*
X106613646Y-116140147D01*
X106761216Y-116041544D01*
X106925188Y-115973624D01*
X107074488Y-115943927D01*
X107099258Y-115939000D01*
X107276742Y-115939000D01*
X107301512Y-115943927D01*
G37*
G36*
X104761512Y-115943927D02*
G01*
X104910812Y-115973624D01*
X105074784Y-116041544D01*
X105222354Y-116140147D01*
X105347853Y-116265646D01*
X105446456Y-116413216D01*
X105514376Y-116577188D01*
X105549000Y-116751259D01*
X105549000Y-116928741D01*
X105514376Y-117102812D01*
X105446456Y-117266784D01*
X105347853Y-117414354D01*
X105222354Y-117539853D01*
X105074784Y-117638456D01*
X104910812Y-117706376D01*
X104761512Y-117736073D01*
X104736742Y-117741000D01*
X104559258Y-117741000D01*
X104534488Y-117736073D01*
X104385188Y-117706376D01*
X104221216Y-117638456D01*
X104073646Y-117539853D01*
X103948147Y-117414354D01*
X103849544Y-117266784D01*
X103781624Y-117102812D01*
X103747000Y-116928741D01*
X103747000Y-116751259D01*
X103781624Y-116577188D01*
X103849544Y-116413216D01*
X103948147Y-116265646D01*
X104073646Y-116140147D01*
X104221216Y-116041544D01*
X104385188Y-115973624D01*
X104534488Y-115943927D01*
X104559258Y-115939000D01*
X104736742Y-115939000D01*
X104761512Y-115943927D01*
G37*
G36*
X102221512Y-115943927D02*
G01*
X102370812Y-115973624D01*
X102534784Y-116041544D01*
X102682354Y-116140147D01*
X102807853Y-116265646D01*
X102906456Y-116413216D01*
X102974376Y-116577188D01*
X103009000Y-116751259D01*
X103009000Y-116928741D01*
X102974376Y-117102812D01*
X102906456Y-117266784D01*
X102807853Y-117414354D01*
X102682354Y-117539853D01*
X102534784Y-117638456D01*
X102370812Y-117706376D01*
X102221512Y-117736073D01*
X102196742Y-117741000D01*
X102019258Y-117741000D01*
X101994488Y-117736073D01*
X101845188Y-117706376D01*
X101681216Y-117638456D01*
X101533646Y-117539853D01*
X101408147Y-117414354D01*
X101309544Y-117266784D01*
X101241624Y-117102812D01*
X101207000Y-116928741D01*
X101207000Y-116751259D01*
X101241624Y-116577188D01*
X101309544Y-116413216D01*
X101408147Y-116265646D01*
X101533646Y-116140147D01*
X101681216Y-116041544D01*
X101845188Y-115973624D01*
X101994488Y-115943927D01*
X102019258Y-115939000D01*
X102196742Y-115939000D01*
X102221512Y-115943927D01*
G37*
G36*
X100469000Y-117741000D02*
G01*
X98667000Y-117741000D01*
X98667000Y-115939000D01*
X100469000Y-115939000D01*
X100469000Y-117741000D01*
G37*
M02*
