G04 #@! TF.GenerationSoftware,KiCad,Pcbnew,(5.1.5)-3*
G04 #@! TF.CreationDate,2020-11-14T22:32:06+01:00*
G04 #@! TF.ProjectId,Christmas C2,43687269-7374-46d6-9173-2043322e6b69,rev?*
G04 #@! TF.SameCoordinates,Original*
G04 #@! TF.FileFunction,Copper,L2,Bot*
G04 #@! TF.FilePolarity,Positive*
%FSLAX46Y46*%
G04 Gerber Fmt 4.6, Leading zero omitted, Abs format (unit mm)*
G04 Created by KiCad (PCBNEW (5.1.5)-3) date 2020-11-14 22:32:06*
%MOMM*%
%LPD*%
G04 APERTURE LIST*
%ADD10O,1.700000X1.700000*%
%ADD11R,1.700000X1.700000*%
%ADD12C,5.000000*%
%ADD13C,0.381000*%
G04 APERTURE END LIST*
D10*
X91567000Y-155511500D03*
X94107000Y-155511500D03*
X96647000Y-155511500D03*
X99187000Y-155511500D03*
D11*
X101727000Y-155511500D03*
D10*
X99949000Y-137414000D03*
X99949000Y-139954000D03*
X99949000Y-142494000D03*
X99949000Y-145034000D03*
D11*
X99949000Y-147574000D03*
D10*
X117983000Y-145859500D03*
X115443000Y-145859500D03*
X112903000Y-145859500D03*
X110363000Y-145859500D03*
D11*
X107823000Y-145859500D03*
X109601000Y-153797000D03*
D10*
X109601000Y-156337000D03*
X109601000Y-158877000D03*
X109601000Y-161417000D03*
X109601000Y-163957000D03*
X86106000Y-116586000D03*
D11*
X88646000Y-116586000D03*
D12*
X135191500Y-120269000D03*
X74358500Y-181102000D03*
X74358500Y-120269000D03*
X135191500Y-181102000D03*
D13*
X91567000Y-155511500D02*
X94107000Y-155511500D01*
X96647000Y-155511500D02*
X94107000Y-155511500D01*
X96647000Y-155511500D02*
X99187000Y-155511500D01*
X109601000Y-156337000D02*
X109601000Y-158877000D01*
X109601000Y-158877000D02*
X109601000Y-161417000D01*
X109601000Y-161417000D02*
X109601000Y-163957000D01*
X107823000Y-145859500D02*
X110363000Y-145859500D01*
X110363000Y-145859500D02*
X112903000Y-145859500D01*
X112903000Y-145859500D02*
X115443000Y-145859500D01*
X99949000Y-147574000D02*
X99949000Y-145034000D01*
X99949000Y-145034000D02*
X99949000Y-142494000D01*
X99949000Y-142494000D02*
X99949000Y-139954000D01*
X88646000Y-117817000D02*
X88392000Y-118071000D01*
X88646000Y-116586000D02*
X88646000Y-117817000D01*
X89217500Y-155511500D02*
X91567000Y-155511500D01*
X88392000Y-154686000D02*
X89217500Y-155511500D01*
X88392000Y-145796000D02*
X88392000Y-154686000D01*
X107188000Y-132334000D02*
X90678000Y-132334000D01*
X90678000Y-132334000D02*
X88392000Y-130048000D01*
X88392000Y-118071000D02*
X88392000Y-130048000D01*
X88392000Y-130048000D02*
X88392000Y-131572000D01*
X99187000Y-155511500D02*
X101727000Y-155511500D01*
X115443000Y-133477000D02*
X114300000Y-132334000D01*
X115443000Y-145859500D02*
X115443000Y-133477000D01*
X114300000Y-132334000D02*
X107188000Y-132334000D01*
X88392000Y-145288000D02*
X88392000Y-145796000D01*
X99949000Y-139954000D02*
X89662000Y-139954000D01*
X89662000Y-139954000D02*
X88392000Y-138684000D01*
X88392000Y-130302000D02*
X88392000Y-138684000D01*
X88392000Y-138684000D02*
X88392000Y-145288000D01*
X119888000Y-132334000D02*
X114300000Y-132334000D01*
X121158000Y-133604000D02*
X119888000Y-132334000D01*
X121158000Y-155194000D02*
X121158000Y-133604000D01*
X109601000Y-156337000D02*
X120015000Y-156337000D01*
X120015000Y-156337000D02*
X121158000Y-155194000D01*
M02*
