G04 #@! TF.GenerationSoftware,KiCad,Pcbnew,(5.1.5)-3*
G04 #@! TF.CreationDate,2020-11-14T23:35:12+01:00*
G04 #@! TF.ProjectId,Christmas C2,43687269-7374-46d6-9173-2043322e6b69,rev?*
G04 #@! TF.SameCoordinates,Original*
G04 #@! TF.FileFunction,Legend,Bot*
G04 #@! TF.FilePolarity,Positive*
%FSLAX46Y46*%
G04 Gerber Fmt 4.6, Leading zero omitted, Abs format (unit mm)*
G04 Created by KiCad (PCBNEW (5.1.5)-3) date 2020-11-14 23:35:12*
%MOMM*%
%LPD*%
G04 APERTURE LIST*
%ADD10C,0.150000*%
%ADD11C,0.120000*%
%ADD12C,0.100000*%
G04 APERTURE END LIST*
D10*
X112737541Y-176488014D02*
X112817898Y-176559442D01*
X113041112Y-176630871D01*
X113183969Y-176630871D01*
X113389326Y-176559442D01*
X113514326Y-176416585D01*
X113567898Y-176273728D01*
X113603612Y-175988014D01*
X113576826Y-175773728D01*
X113469683Y-175488014D01*
X113380398Y-175345157D01*
X113219683Y-175202300D01*
X112996469Y-175130871D01*
X112853612Y-175130871D01*
X112648255Y-175202300D01*
X112585755Y-175273728D01*
X112112541Y-176630871D02*
X111925041Y-175130871D01*
X111469683Y-176630871D02*
X111371469Y-175845157D01*
X111425041Y-175702300D01*
X111558969Y-175630871D01*
X111773255Y-175630871D01*
X111925041Y-175702300D01*
X112005398Y-175773728D01*
X110755398Y-176630871D02*
X110630398Y-175630871D01*
X110666112Y-175916585D02*
X110576826Y-175773728D01*
X110496469Y-175702300D01*
X110344683Y-175630871D01*
X110201826Y-175630871D01*
X109826826Y-176630871D02*
X109701826Y-175630871D01*
X109639326Y-175130871D02*
X109719683Y-175202300D01*
X109657183Y-175273728D01*
X109576826Y-175202300D01*
X109639326Y-175130871D01*
X109657183Y-175273728D01*
X109175041Y-176559442D02*
X109041112Y-176630871D01*
X108755398Y-176630871D01*
X108603612Y-176559442D01*
X108514326Y-176416585D01*
X108505398Y-176345157D01*
X108558969Y-176202300D01*
X108692898Y-176130871D01*
X108907183Y-176130871D01*
X109041112Y-176059442D01*
X109094683Y-175916585D01*
X109085755Y-175845157D01*
X108996469Y-175702300D01*
X108844683Y-175630871D01*
X108630398Y-175630871D01*
X108496469Y-175702300D01*
X107987541Y-175630871D02*
X107416112Y-175630871D01*
X107710755Y-175130871D02*
X107871469Y-176416585D01*
X107817898Y-176559442D01*
X107683969Y-176630871D01*
X107541112Y-176630871D01*
X107041112Y-176630871D02*
X106916112Y-175630871D01*
X106933969Y-175773728D02*
X106853612Y-175702300D01*
X106701826Y-175630871D01*
X106487541Y-175630871D01*
X106353612Y-175702300D01*
X106300041Y-175845157D01*
X106398255Y-176630871D01*
X106300041Y-175845157D02*
X106210755Y-175702300D01*
X106058969Y-175630871D01*
X105844683Y-175630871D01*
X105710755Y-175702300D01*
X105657183Y-175845157D01*
X105755398Y-176630871D01*
X104398255Y-176630871D02*
X104300041Y-175845157D01*
X104353612Y-175702300D01*
X104487541Y-175630871D01*
X104773255Y-175630871D01*
X104925041Y-175702300D01*
X104389326Y-176559442D02*
X104541112Y-176630871D01*
X104898255Y-176630871D01*
X105032183Y-176559442D01*
X105085755Y-176416585D01*
X105067898Y-176273728D01*
X104978612Y-176130871D01*
X104826826Y-176059442D01*
X104469683Y-176059442D01*
X104317898Y-175988014D01*
X103746469Y-176559442D02*
X103612541Y-176630871D01*
X103326826Y-176630871D01*
X103175041Y-176559442D01*
X103085755Y-176416585D01*
X103076826Y-176345157D01*
X103130398Y-176202300D01*
X103264326Y-176130871D01*
X103478612Y-176130871D01*
X103612541Y-176059442D01*
X103666112Y-175916585D01*
X103657183Y-175845157D01*
X103567898Y-175702300D01*
X103416112Y-175630871D01*
X103201826Y-175630871D01*
X103067898Y-175702300D01*
X101228612Y-175273728D02*
X101148255Y-175202300D01*
X100996469Y-175130871D01*
X100639326Y-175130871D01*
X100505398Y-175202300D01*
X100442898Y-175273728D01*
X100389326Y-175416585D01*
X100407183Y-175559442D01*
X100505398Y-175773728D01*
X101469683Y-176630871D01*
X100541112Y-176630871D01*
X99425041Y-175130871D02*
X99282183Y-175130871D01*
X99148255Y-175202300D01*
X99085755Y-175273728D01*
X99032183Y-175416585D01*
X98996469Y-175702300D01*
X99041112Y-176059442D01*
X99148255Y-176345157D01*
X99237541Y-176488014D01*
X99317898Y-176559442D01*
X99469683Y-176630871D01*
X99612541Y-176630871D01*
X99746469Y-176559442D01*
X99808969Y-176488014D01*
X99862541Y-176345157D01*
X99898255Y-176059442D01*
X99853612Y-175702300D01*
X99746469Y-175416585D01*
X99657183Y-175273728D01*
X99576826Y-175202300D01*
X99425041Y-175130871D01*
X98371469Y-175273728D02*
X98291112Y-175202300D01*
X98139326Y-175130871D01*
X97782183Y-175130871D01*
X97648255Y-175202300D01*
X97585755Y-175273728D01*
X97532183Y-175416585D01*
X97550041Y-175559442D01*
X97648255Y-175773728D01*
X98612541Y-176630871D01*
X97683969Y-176630871D01*
X96567898Y-175130871D02*
X96425041Y-175130871D01*
X96291112Y-175202300D01*
X96228612Y-175273728D01*
X96175041Y-175416585D01*
X96139326Y-175702300D01*
X96183969Y-176059442D01*
X96291112Y-176345157D01*
X96380398Y-176488014D01*
X96460755Y-176559442D01*
X96612541Y-176630871D01*
X96755398Y-176630871D01*
X96889326Y-176559442D01*
X96951826Y-176488014D01*
X97005398Y-176345157D01*
X97041112Y-176059442D01*
X96996469Y-175702300D01*
X96889326Y-175416585D01*
X96800041Y-175273728D01*
X96719683Y-175202300D01*
X96567898Y-175130871D01*
X112951826Y-178030871D02*
X113103612Y-179245157D01*
X113192898Y-179388014D01*
X113273255Y-179459442D01*
X113425041Y-179530871D01*
X113639326Y-179530871D01*
X113773255Y-179459442D01*
X113067898Y-178959442D02*
X113219683Y-179030871D01*
X113505398Y-179030871D01*
X113639326Y-178959442D01*
X113701826Y-178888014D01*
X113755398Y-178745157D01*
X113701826Y-178316585D01*
X113612541Y-178173728D01*
X113532183Y-178102300D01*
X113380398Y-178030871D01*
X113094683Y-178030871D01*
X112960755Y-178102300D01*
X112362541Y-179030871D02*
X112237541Y-178030871D01*
X112175041Y-177530871D02*
X112255398Y-177602300D01*
X112192898Y-177673728D01*
X112112541Y-177602300D01*
X112175041Y-177530871D01*
X112192898Y-177673728D01*
X111737541Y-178030871D02*
X111166112Y-178030871D01*
X111460755Y-177530871D02*
X111621469Y-178816585D01*
X111567898Y-178959442D01*
X111433969Y-179030871D01*
X111291112Y-179030871D01*
X110791112Y-179030871D02*
X110603612Y-177530871D01*
X110148255Y-179030871D02*
X110050041Y-178245157D01*
X110103612Y-178102300D01*
X110237541Y-178030871D01*
X110451826Y-178030871D01*
X110603612Y-178102300D01*
X110683969Y-178173728D01*
X108666112Y-178030871D02*
X108791112Y-179030871D01*
X109308969Y-178030871D02*
X109407183Y-178816585D01*
X109353612Y-178959442D01*
X109219683Y-179030871D01*
X109005398Y-179030871D01*
X108853612Y-178959442D01*
X108773255Y-178888014D01*
X108076826Y-179030871D02*
X107889326Y-177530871D01*
X107960755Y-178102300D02*
X107808969Y-178030871D01*
X107523255Y-178030871D01*
X107389326Y-178102300D01*
X107326826Y-178173728D01*
X107273255Y-178316585D01*
X107326826Y-178745157D01*
X107416112Y-178888014D01*
X107496469Y-178959442D01*
X107648255Y-179030871D01*
X107933969Y-179030871D01*
X108067898Y-178959442D01*
X106701826Y-178888014D02*
X106639326Y-178959442D01*
X106719683Y-179030871D01*
X106782183Y-178959442D01*
X106701826Y-178888014D01*
X106719683Y-179030871D01*
X105353612Y-178959442D02*
X105505398Y-179030871D01*
X105791112Y-179030871D01*
X105925041Y-178959442D01*
X105987541Y-178888014D01*
X106041112Y-178745157D01*
X105987541Y-178316585D01*
X105898255Y-178173728D01*
X105817898Y-178102300D01*
X105666112Y-178030871D01*
X105380398Y-178030871D01*
X105246469Y-178102300D01*
X104505398Y-179030871D02*
X104639326Y-178959442D01*
X104701826Y-178888014D01*
X104755398Y-178745157D01*
X104701826Y-178316585D01*
X104612541Y-178173728D01*
X104532183Y-178102300D01*
X104380398Y-178030871D01*
X104166112Y-178030871D01*
X104032183Y-178102300D01*
X103969683Y-178173728D01*
X103916112Y-178316585D01*
X103969683Y-178745157D01*
X104058969Y-178888014D01*
X104139326Y-178959442D01*
X104291112Y-179030871D01*
X104505398Y-179030871D01*
X103362541Y-179030871D02*
X103237541Y-178030871D01*
X103255398Y-178173728D02*
X103175041Y-178102300D01*
X103023255Y-178030871D01*
X102808969Y-178030871D01*
X102675041Y-178102300D01*
X102621469Y-178245157D01*
X102719683Y-179030871D01*
X102621469Y-178245157D02*
X102532183Y-178102300D01*
X102380398Y-178030871D01*
X102166112Y-178030871D01*
X102032183Y-178102300D01*
X101978612Y-178245157D01*
X102076826Y-179030871D01*
X100094683Y-177459442D02*
X101621469Y-179388014D01*
X99880398Y-178030871D02*
X99308969Y-178030871D01*
X99603612Y-177530871D02*
X99764326Y-178816585D01*
X99710755Y-178959442D01*
X99576826Y-179030871D01*
X99433969Y-179030871D01*
X98353612Y-178959442D02*
X98505398Y-179030871D01*
X98791112Y-179030871D01*
X98925041Y-178959442D01*
X98978612Y-178816585D01*
X98907183Y-178245157D01*
X98817898Y-178102300D01*
X98666112Y-178030871D01*
X98380398Y-178030871D01*
X98246469Y-178102300D01*
X98192898Y-178245157D01*
X98210755Y-178388014D01*
X98942898Y-178530871D01*
X97648255Y-179030871D02*
X97460755Y-177530871D01*
X97532183Y-178102300D02*
X97380398Y-178030871D01*
X97094683Y-178030871D01*
X96960755Y-178102300D01*
X96898255Y-178173728D01*
X96844683Y-178316585D01*
X96898255Y-178745157D01*
X96987541Y-178888014D01*
X97067898Y-178959442D01*
X97219683Y-179030871D01*
X97505398Y-179030871D01*
X97639326Y-178959442D01*
X96076826Y-179030871D02*
X96210755Y-178959442D01*
X96264326Y-178816585D01*
X96103612Y-177530871D01*
X108458000Y-104775000D02*
X111633000Y-104775000D01*
X100838000Y-109855000D02*
X100838000Y-104140000D01*
X108458000Y-109855000D02*
X100838000Y-109855000D01*
X108458000Y-104140000D02*
X108458000Y-109855000D01*
X100838000Y-104140000D02*
X108458000Y-104140000D01*
X111633000Y-118745000D02*
X97663000Y-118745000D01*
X111633000Y-104775000D02*
X111633000Y-118745000D01*
X97663000Y-104775000D02*
X100838000Y-104775000D01*
X97663000Y-118745000D02*
X97663000Y-104775000D01*
D11*
X120167671Y-116885281D02*
G75*
G03X97722000Y-113340000I-11495671J45281D01*
G01*
X97723754Y-113313616D02*
G75*
G02X96972000Y-113840000I-751754J273616D01*
G01*
X120167671Y-116794719D02*
G75*
G02X97722000Y-120340000I-11495671J-45281D01*
G01*
X97723754Y-120366384D02*
G75*
G03X96972000Y-119840000I-751754J-273616D01*
G01*
X91272000Y-119840000D02*
X96972000Y-119840000D01*
X91272000Y-113840000D02*
X91272000Y-119840000D01*
X91272000Y-113840000D02*
X96972000Y-113840000D01*
D10*
X97194666Y-116125714D02*
X97194666Y-116601904D01*
X97480380Y-116030476D02*
X96480380Y-116363809D01*
X97480380Y-116697142D01*
X97480380Y-117554285D02*
X97480380Y-116982857D01*
X97480380Y-117268571D02*
X96480380Y-117268571D01*
X96623238Y-117173333D01*
X96718476Y-117078095D01*
X96766095Y-116982857D01*
X107909904Y-105862380D02*
X107909904Y-104862380D01*
X107576571Y-105576666D01*
X107243238Y-104862380D01*
X107243238Y-105862380D01*
X106767047Y-105862380D02*
X106767047Y-105195714D01*
X106767047Y-104862380D02*
X106814666Y-104910000D01*
X106767047Y-104957619D01*
X106719428Y-104910000D01*
X106767047Y-104862380D01*
X106767047Y-104957619D01*
X105862285Y-105814761D02*
X105957523Y-105862380D01*
X106148000Y-105862380D01*
X106243238Y-105814761D01*
X106290857Y-105767142D01*
X106338476Y-105671904D01*
X106338476Y-105386190D01*
X106290857Y-105290952D01*
X106243238Y-105243333D01*
X106148000Y-105195714D01*
X105957523Y-105195714D01*
X105862285Y-105243333D01*
X105433714Y-105862380D02*
X105433714Y-105195714D01*
X105433714Y-105386190D02*
X105386095Y-105290952D01*
X105338476Y-105243333D01*
X105243238Y-105195714D01*
X105148000Y-105195714D01*
X104671809Y-105862380D02*
X104767047Y-105814761D01*
X104814666Y-105767142D01*
X104862285Y-105671904D01*
X104862285Y-105386190D01*
X104814666Y-105290952D01*
X104767047Y-105243333D01*
X104671809Y-105195714D01*
X104528952Y-105195714D01*
X104433714Y-105243333D01*
X104386095Y-105290952D01*
X104338476Y-105386190D01*
X104338476Y-105671904D01*
X104386095Y-105767142D01*
X104433714Y-105814761D01*
X104528952Y-105862380D01*
X104671809Y-105862380D01*
X103909904Y-104862380D02*
X103909904Y-105671904D01*
X103862285Y-105767142D01*
X103814666Y-105814761D01*
X103719428Y-105862380D01*
X103528952Y-105862380D01*
X103433714Y-105814761D01*
X103386095Y-105767142D01*
X103338476Y-105671904D01*
X103338476Y-104862380D01*
X102909904Y-105814761D02*
X102767047Y-105862380D01*
X102528952Y-105862380D01*
X102433714Y-105814761D01*
X102386095Y-105767142D01*
X102338476Y-105671904D01*
X102338476Y-105576666D01*
X102386095Y-105481428D01*
X102433714Y-105433809D01*
X102528952Y-105386190D01*
X102719428Y-105338571D01*
X102814666Y-105290952D01*
X102862285Y-105243333D01*
X102909904Y-105148095D01*
X102909904Y-105052857D01*
X102862285Y-104957619D01*
X102814666Y-104910000D01*
X102719428Y-104862380D01*
X102481333Y-104862380D01*
X102338476Y-104910000D01*
X101576571Y-105338571D02*
X101433714Y-105386190D01*
X101386095Y-105433809D01*
X101338476Y-105529047D01*
X101338476Y-105671904D01*
X101386095Y-105767142D01*
X101433714Y-105814761D01*
X101528952Y-105862380D01*
X101909904Y-105862380D01*
X101909904Y-104862380D01*
X101576571Y-104862380D01*
X101481333Y-104910000D01*
X101433714Y-104957619D01*
X101386095Y-105052857D01*
X101386095Y-105148095D01*
X101433714Y-105243333D01*
X101481333Y-105290952D01*
X101576571Y-105338571D01*
X101909904Y-105338571D01*
D12*
X102469904Y-113270000D02*
X101669904Y-113270000D01*
X101669904Y-113460476D01*
X101708000Y-113574761D01*
X101784190Y-113650952D01*
X101860380Y-113689047D01*
X102012761Y-113727142D01*
X102127047Y-113727142D01*
X102279428Y-113689047D01*
X102355619Y-113650952D01*
X102431809Y-113574761D01*
X102469904Y-113460476D01*
X102469904Y-113270000D01*
X102165142Y-114070000D02*
X102165142Y-114679523D01*
X105009904Y-113270000D02*
X104209904Y-113270000D01*
X104209904Y-113460476D01*
X104248000Y-113574761D01*
X104324190Y-113650952D01*
X104400380Y-113689047D01*
X104552761Y-113727142D01*
X104667047Y-113727142D01*
X104819428Y-113689047D01*
X104895619Y-113650952D01*
X104971809Y-113574761D01*
X105009904Y-113460476D01*
X105009904Y-113270000D01*
X104705142Y-114070000D02*
X104705142Y-114679523D01*
X105009904Y-114374761D02*
X104400380Y-114374761D01*
X107549904Y-113879523D02*
X106749904Y-113879523D01*
X107549904Y-114260476D02*
X106749904Y-114260476D01*
X106749904Y-114450952D01*
X106788000Y-114565238D01*
X106864190Y-114641428D01*
X106940380Y-114679523D01*
X107092761Y-114717619D01*
X107207047Y-114717619D01*
X107359428Y-114679523D01*
X107435619Y-114641428D01*
X107511809Y-114565238D01*
X107549904Y-114450952D01*
X107549904Y-114260476D01*
X109328000Y-113041428D02*
X109289904Y-112965238D01*
X109289904Y-112850952D01*
X109328000Y-112736666D01*
X109404190Y-112660476D01*
X109480380Y-112622380D01*
X109632761Y-112584285D01*
X109747047Y-112584285D01*
X109899428Y-112622380D01*
X109975619Y-112660476D01*
X110051809Y-112736666D01*
X110089904Y-112850952D01*
X110089904Y-112927142D01*
X110051809Y-113041428D01*
X110013714Y-113079523D01*
X109747047Y-113079523D01*
X109747047Y-112927142D01*
X110089904Y-113422380D02*
X109289904Y-113422380D01*
X110089904Y-113879523D01*
X109289904Y-113879523D01*
X110089904Y-114260476D02*
X109289904Y-114260476D01*
X109289904Y-114450952D01*
X109328000Y-114565238D01*
X109404190Y-114641428D01*
X109480380Y-114679523D01*
X109632761Y-114717619D01*
X109747047Y-114717619D01*
X109899428Y-114679523D01*
X109975619Y-114641428D01*
X110051809Y-114565238D01*
X110089904Y-114450952D01*
X110089904Y-114260476D01*
X99129904Y-112660476D02*
X99929904Y-112927142D01*
X99129904Y-113193809D01*
X99853714Y-113917619D02*
X99891809Y-113879523D01*
X99929904Y-113765238D01*
X99929904Y-113689047D01*
X99891809Y-113574761D01*
X99815619Y-113498571D01*
X99739428Y-113460476D01*
X99587047Y-113422380D01*
X99472761Y-113422380D01*
X99320380Y-113460476D01*
X99244190Y-113498571D01*
X99168000Y-113574761D01*
X99129904Y-113689047D01*
X99129904Y-113765238D01*
X99168000Y-113879523D01*
X99206095Y-113917619D01*
X99853714Y-114717619D02*
X99891809Y-114679523D01*
X99929904Y-114565238D01*
X99929904Y-114489047D01*
X99891809Y-114374761D01*
X99815619Y-114298571D01*
X99739428Y-114260476D01*
X99587047Y-114222380D01*
X99472761Y-114222380D01*
X99320380Y-114260476D01*
X99244190Y-114298571D01*
X99168000Y-114374761D01*
X99129904Y-114489047D01*
X99129904Y-114565238D01*
X99168000Y-114679523D01*
X99206095Y-114717619D01*
D10*
X94257714Y-121068571D02*
X94114857Y-121116190D01*
X94067238Y-121163809D01*
X94019619Y-121259047D01*
X94019619Y-121401904D01*
X94067238Y-121497142D01*
X94114857Y-121544761D01*
X94210095Y-121592380D01*
X94591047Y-121592380D01*
X94591047Y-120592380D01*
X94257714Y-120592380D01*
X94162476Y-120640000D01*
X94114857Y-120687619D01*
X94067238Y-120782857D01*
X94067238Y-120878095D01*
X94114857Y-120973333D01*
X94162476Y-121020952D01*
X94257714Y-121068571D01*
X94591047Y-121068571D01*
X93733904Y-120592380D02*
X93162476Y-120592380D01*
X93448190Y-121592380D02*
X93448190Y-120592380D01*
X92305333Y-121592380D02*
X92876761Y-121592380D01*
X92591047Y-121592380D02*
X92591047Y-120592380D01*
X92686285Y-120735238D01*
X92781523Y-120830476D01*
X92876761Y-120878095D01*
X96793428Y-116947142D02*
X95650571Y-116947142D01*
X96222000Y-117518571D02*
X96222000Y-116375714D01*
M02*
