M48
; DRILL file {KiCad (5.1.5)-3} date 14/11/2020 23:35:14
; FORMAT={2:4/ absolute / inch / suppress leading zeros}
; #@! TF.CreationDate,2020-11-14T23:35:14+01:00
; #@! TF.GenerationSoftware,Kicad,Pcbnew,(5.1.5)-3
FMAT,2
INCH,TZ
T1C0.0394
T2C0.0591
T3C0.1200
%
G90
G05
T1
X39350Y-55100
X43150Y-60550
X39200Y-46000
X40200Y-46000
X41200Y-46000
X42200Y-46000
X43200Y-46000
X42450Y-57425
X43450Y-57425
X44450Y-57425
X45450Y-57425
X46450Y-57425
X39350Y-54100
X39350Y-56100
X39350Y-57100
X39350Y-58100
X36050Y-61225
X37050Y-61225
X38050Y-61225
X39050Y-61225
X40050Y-61225
X43150Y-61550
X43150Y-62550
X43150Y-63550
X43150Y-64550
T2
X36800Y-46000
X44867Y-46000
T3
X29275Y-71300
X53225Y-71300
X53225Y-47350
X29275Y-47350
T0
M30
