G04 #@! TF.GenerationSoftware,KiCad,Pcbnew,(5.1.5)-3*
G04 #@! TF.CreationDate,2020-10-16T01:56:22+02:00*
G04 #@! TF.ProjectId,Christmas C,43687269-7374-46d6-9173-20432e6b6963,rev?*
G04 #@! TF.SameCoordinates,Original*
G04 #@! TF.FileFunction,Legend,Bot*
G04 #@! TF.FilePolarity,Positive*
%FSLAX46Y46*%
G04 Gerber Fmt 4.6, Leading zero omitted, Abs format (unit mm)*
G04 Created by KiCad (PCBNEW (5.1.5)-3) date 2020-10-16 01:56:22*
%MOMM*%
%LPD*%
G04 APERTURE LIST*
%ADD10C,0.150000*%
%ADD11C,0.100000*%
%ADD12C,0.120000*%
G04 APERTURE END LIST*
D10*
X112737541Y-176488014D02*
X112817898Y-176559442D01*
X113041112Y-176630871D01*
X113183969Y-176630871D01*
X113389326Y-176559442D01*
X113514326Y-176416585D01*
X113567898Y-176273728D01*
X113603612Y-175988014D01*
X113576826Y-175773728D01*
X113469683Y-175488014D01*
X113380398Y-175345157D01*
X113219683Y-175202300D01*
X112996469Y-175130871D01*
X112853612Y-175130871D01*
X112648255Y-175202300D01*
X112585755Y-175273728D01*
X112112541Y-176630871D02*
X111925041Y-175130871D01*
X111469683Y-176630871D02*
X111371469Y-175845157D01*
X111425041Y-175702300D01*
X111558969Y-175630871D01*
X111773255Y-175630871D01*
X111925041Y-175702300D01*
X112005398Y-175773728D01*
X110755398Y-176630871D02*
X110630398Y-175630871D01*
X110666112Y-175916585D02*
X110576826Y-175773728D01*
X110496469Y-175702300D01*
X110344683Y-175630871D01*
X110201826Y-175630871D01*
X109826826Y-176630871D02*
X109701826Y-175630871D01*
X109639326Y-175130871D02*
X109719683Y-175202300D01*
X109657183Y-175273728D01*
X109576826Y-175202300D01*
X109639326Y-175130871D01*
X109657183Y-175273728D01*
X109175041Y-176559442D02*
X109041112Y-176630871D01*
X108755398Y-176630871D01*
X108603612Y-176559442D01*
X108514326Y-176416585D01*
X108505398Y-176345157D01*
X108558969Y-176202300D01*
X108692898Y-176130871D01*
X108907183Y-176130871D01*
X109041112Y-176059442D01*
X109094683Y-175916585D01*
X109085755Y-175845157D01*
X108996469Y-175702300D01*
X108844683Y-175630871D01*
X108630398Y-175630871D01*
X108496469Y-175702300D01*
X107987541Y-175630871D02*
X107416112Y-175630871D01*
X107710755Y-175130871D02*
X107871469Y-176416585D01*
X107817898Y-176559442D01*
X107683969Y-176630871D01*
X107541112Y-176630871D01*
X107041112Y-176630871D02*
X106916112Y-175630871D01*
X106933969Y-175773728D02*
X106853612Y-175702300D01*
X106701826Y-175630871D01*
X106487541Y-175630871D01*
X106353612Y-175702300D01*
X106300041Y-175845157D01*
X106398255Y-176630871D01*
X106300041Y-175845157D02*
X106210755Y-175702300D01*
X106058969Y-175630871D01*
X105844683Y-175630871D01*
X105710755Y-175702300D01*
X105657183Y-175845157D01*
X105755398Y-176630871D01*
X104398255Y-176630871D02*
X104300041Y-175845157D01*
X104353612Y-175702300D01*
X104487541Y-175630871D01*
X104773255Y-175630871D01*
X104925041Y-175702300D01*
X104389326Y-176559442D02*
X104541112Y-176630871D01*
X104898255Y-176630871D01*
X105032183Y-176559442D01*
X105085755Y-176416585D01*
X105067898Y-176273728D01*
X104978612Y-176130871D01*
X104826826Y-176059442D01*
X104469683Y-176059442D01*
X104317898Y-175988014D01*
X103746469Y-176559442D02*
X103612541Y-176630871D01*
X103326826Y-176630871D01*
X103175041Y-176559442D01*
X103085755Y-176416585D01*
X103076826Y-176345157D01*
X103130398Y-176202300D01*
X103264326Y-176130871D01*
X103478612Y-176130871D01*
X103612541Y-176059442D01*
X103666112Y-175916585D01*
X103657183Y-175845157D01*
X103567898Y-175702300D01*
X103416112Y-175630871D01*
X103201826Y-175630871D01*
X103067898Y-175702300D01*
X101228612Y-175273728D02*
X101148255Y-175202300D01*
X100996469Y-175130871D01*
X100639326Y-175130871D01*
X100505398Y-175202300D01*
X100442898Y-175273728D01*
X100389326Y-175416585D01*
X100407183Y-175559442D01*
X100505398Y-175773728D01*
X101469683Y-176630871D01*
X100541112Y-176630871D01*
X99425041Y-175130871D02*
X99282183Y-175130871D01*
X99148255Y-175202300D01*
X99085755Y-175273728D01*
X99032183Y-175416585D01*
X98996469Y-175702300D01*
X99041112Y-176059442D01*
X99148255Y-176345157D01*
X99237541Y-176488014D01*
X99317898Y-176559442D01*
X99469683Y-176630871D01*
X99612541Y-176630871D01*
X99746469Y-176559442D01*
X99808969Y-176488014D01*
X99862541Y-176345157D01*
X99898255Y-176059442D01*
X99853612Y-175702300D01*
X99746469Y-175416585D01*
X99657183Y-175273728D01*
X99576826Y-175202300D01*
X99425041Y-175130871D01*
X98371469Y-175273728D02*
X98291112Y-175202300D01*
X98139326Y-175130871D01*
X97782183Y-175130871D01*
X97648255Y-175202300D01*
X97585755Y-175273728D01*
X97532183Y-175416585D01*
X97550041Y-175559442D01*
X97648255Y-175773728D01*
X98612541Y-176630871D01*
X97683969Y-176630871D01*
X96567898Y-175130871D02*
X96425041Y-175130871D01*
X96291112Y-175202300D01*
X96228612Y-175273728D01*
X96175041Y-175416585D01*
X96139326Y-175702300D01*
X96183969Y-176059442D01*
X96291112Y-176345157D01*
X96380398Y-176488014D01*
X96460755Y-176559442D01*
X96612541Y-176630871D01*
X96755398Y-176630871D01*
X96889326Y-176559442D01*
X96951826Y-176488014D01*
X97005398Y-176345157D01*
X97041112Y-176059442D01*
X96996469Y-175702300D01*
X96889326Y-175416585D01*
X96800041Y-175273728D01*
X96719683Y-175202300D01*
X96567898Y-175130871D01*
X112951826Y-178030871D02*
X113103612Y-179245157D01*
X113192898Y-179388014D01*
X113273255Y-179459442D01*
X113425041Y-179530871D01*
X113639326Y-179530871D01*
X113773255Y-179459442D01*
X113067898Y-178959442D02*
X113219683Y-179030871D01*
X113505398Y-179030871D01*
X113639326Y-178959442D01*
X113701826Y-178888014D01*
X113755398Y-178745157D01*
X113701826Y-178316585D01*
X113612541Y-178173728D01*
X113532183Y-178102300D01*
X113380398Y-178030871D01*
X113094683Y-178030871D01*
X112960755Y-178102300D01*
X112362541Y-179030871D02*
X112237541Y-178030871D01*
X112175041Y-177530871D02*
X112255398Y-177602300D01*
X112192898Y-177673728D01*
X112112541Y-177602300D01*
X112175041Y-177530871D01*
X112192898Y-177673728D01*
X111737541Y-178030871D02*
X111166112Y-178030871D01*
X111460755Y-177530871D02*
X111621469Y-178816585D01*
X111567898Y-178959442D01*
X111433969Y-179030871D01*
X111291112Y-179030871D01*
X110791112Y-179030871D02*
X110603612Y-177530871D01*
X110148255Y-179030871D02*
X110050041Y-178245157D01*
X110103612Y-178102300D01*
X110237541Y-178030871D01*
X110451826Y-178030871D01*
X110603612Y-178102300D01*
X110683969Y-178173728D01*
X108666112Y-178030871D02*
X108791112Y-179030871D01*
X109308969Y-178030871D02*
X109407183Y-178816585D01*
X109353612Y-178959442D01*
X109219683Y-179030871D01*
X109005398Y-179030871D01*
X108853612Y-178959442D01*
X108773255Y-178888014D01*
X108076826Y-179030871D02*
X107889326Y-177530871D01*
X107960755Y-178102300D02*
X107808969Y-178030871D01*
X107523255Y-178030871D01*
X107389326Y-178102300D01*
X107326826Y-178173728D01*
X107273255Y-178316585D01*
X107326826Y-178745157D01*
X107416112Y-178888014D01*
X107496469Y-178959442D01*
X107648255Y-179030871D01*
X107933969Y-179030871D01*
X108067898Y-178959442D01*
X106701826Y-178888014D02*
X106639326Y-178959442D01*
X106719683Y-179030871D01*
X106782183Y-178959442D01*
X106701826Y-178888014D01*
X106719683Y-179030871D01*
X105353612Y-178959442D02*
X105505398Y-179030871D01*
X105791112Y-179030871D01*
X105925041Y-178959442D01*
X105987541Y-178888014D01*
X106041112Y-178745157D01*
X105987541Y-178316585D01*
X105898255Y-178173728D01*
X105817898Y-178102300D01*
X105666112Y-178030871D01*
X105380398Y-178030871D01*
X105246469Y-178102300D01*
X104505398Y-179030871D02*
X104639326Y-178959442D01*
X104701826Y-178888014D01*
X104755398Y-178745157D01*
X104701826Y-178316585D01*
X104612541Y-178173728D01*
X104532183Y-178102300D01*
X104380398Y-178030871D01*
X104166112Y-178030871D01*
X104032183Y-178102300D01*
X103969683Y-178173728D01*
X103916112Y-178316585D01*
X103969683Y-178745157D01*
X104058969Y-178888014D01*
X104139326Y-178959442D01*
X104291112Y-179030871D01*
X104505398Y-179030871D01*
X103362541Y-179030871D02*
X103237541Y-178030871D01*
X103255398Y-178173728D02*
X103175041Y-178102300D01*
X103023255Y-178030871D01*
X102808969Y-178030871D01*
X102675041Y-178102300D01*
X102621469Y-178245157D01*
X102719683Y-179030871D01*
X102621469Y-178245157D02*
X102532183Y-178102300D01*
X102380398Y-178030871D01*
X102166112Y-178030871D01*
X102032183Y-178102300D01*
X101978612Y-178245157D01*
X102076826Y-179030871D01*
X100094683Y-177459442D02*
X101621469Y-179388014D01*
X99880398Y-178030871D02*
X99308969Y-178030871D01*
X99603612Y-177530871D02*
X99764326Y-178816585D01*
X99710755Y-178959442D01*
X99576826Y-179030871D01*
X99433969Y-179030871D01*
X98353612Y-178959442D02*
X98505398Y-179030871D01*
X98791112Y-179030871D01*
X98925041Y-178959442D01*
X98978612Y-178816585D01*
X98907183Y-178245157D01*
X98817898Y-178102300D01*
X98666112Y-178030871D01*
X98380398Y-178030871D01*
X98246469Y-178102300D01*
X98192898Y-178245157D01*
X98210755Y-178388014D01*
X98942898Y-178530871D01*
X97648255Y-179030871D02*
X97460755Y-177530871D01*
X97532183Y-178102300D02*
X97380398Y-178030871D01*
X97094683Y-178030871D01*
X96960755Y-178102300D01*
X96898255Y-178173728D01*
X96844683Y-178316585D01*
X96898255Y-178745157D01*
X96987541Y-178888014D01*
X97067898Y-178959442D01*
X97219683Y-179030871D01*
X97505398Y-179030871D01*
X97639326Y-178959442D01*
X96076826Y-179030871D02*
X96210755Y-178959442D01*
X96264326Y-178816585D01*
X96103612Y-177530871D01*
D11*
X130642258Y-126039044D02*
X130561446Y-126012106D01*
X130480634Y-125931294D01*
X130426759Y-125823545D01*
X130426759Y-125715795D01*
X130453697Y-125634983D01*
X130534509Y-125500296D01*
X130615321Y-125419484D01*
X130750008Y-125338671D01*
X130830820Y-125311734D01*
X130938570Y-125311734D01*
X131046319Y-125365609D01*
X131100194Y-125419484D01*
X131154069Y-125527233D01*
X131154069Y-125581108D01*
X130965507Y-125769670D01*
X130857758Y-125661920D01*
X131450380Y-125769670D02*
X130884695Y-126335355D01*
X131773629Y-126092919D01*
X131207944Y-126658604D01*
X132043003Y-126362293D02*
X131477318Y-126927978D01*
X131612005Y-127062665D01*
X131719754Y-127116540D01*
X131827504Y-127116540D01*
X131908316Y-127089602D01*
X132043003Y-127008790D01*
X132123815Y-126927978D01*
X132204628Y-126793291D01*
X132231565Y-126712479D01*
X132231565Y-126604729D01*
X132177690Y-126496980D01*
X132043003Y-126362293D01*
X129109770Y-124611230D02*
X128840396Y-124341856D01*
X129082832Y-124045545D01*
X129082832Y-124099419D01*
X129109770Y-124180232D01*
X129244457Y-124314919D01*
X129325269Y-124341856D01*
X129379144Y-124341856D01*
X129459956Y-124314919D01*
X129594643Y-124180232D01*
X129621580Y-124099419D01*
X129621580Y-124045545D01*
X129594643Y-123964732D01*
X129459956Y-123830045D01*
X129379144Y-123803108D01*
X129325269Y-123803108D01*
X129298332Y-124799792D02*
X130052579Y-124422668D01*
X129675455Y-125176915D01*
D10*
X107684065Y-121353975D02*
X105439001Y-119108911D01*
X111276168Y-117761873D02*
X107684065Y-121353975D01*
X111276168Y-117761873D02*
X109031104Y-115516808D01*
D12*
X138665949Y-139763500D02*
X140462000Y-141559551D01*
X138665949Y-139763500D02*
X140553924Y-137875525D01*
X140553924Y-137875525D02*
X113521232Y-110842833D01*
X144237950Y-141559551D02*
X142349975Y-139671576D01*
X131481744Y-150539807D02*
X129593769Y-152427782D01*
X131481744Y-150539807D02*
X104540976Y-123599039D01*
X104540976Y-123599039D02*
X102653000Y-125487014D01*
X138665949Y-139763500D02*
X140553924Y-137875525D01*
X138665949Y-139763500D02*
X113521232Y-114618783D01*
X113521232Y-114618783D02*
X115409207Y-112730808D01*
X113521232Y-110842833D02*
X100765025Y-123599039D01*
X100765025Y-123599039D02*
X131481744Y-154315758D01*
X131481744Y-154315758D02*
X144237950Y-141559551D01*
X130937000Y-121118596D02*
X129996548Y-122059048D01*
X131877452Y-122059048D02*
X130937000Y-121118596D01*
X132775478Y-122957074D02*
X130894574Y-124837978D01*
X130894574Y-124837978D02*
X132733051Y-126676455D01*
X132775478Y-122957074D02*
X134613955Y-124795551D01*
X134613955Y-124795551D02*
X132733051Y-126676455D01*
X77887000Y-124019000D02*
X79137000Y-124019000D01*
X77887000Y-144459000D02*
X77887000Y-124019000D01*
X82387000Y-144459000D02*
X77887000Y-144459000D01*
X82387000Y-124019000D02*
X82387000Y-144459000D01*
X81137000Y-124019000D02*
X82387000Y-124019000D01*
X79137000Y-124019000D02*
G75*
G03X81137000Y-124019000I1000000J0D01*
G01*
X92345000Y-124082500D02*
G75*
G03X94345000Y-124082500I1000000J0D01*
G01*
X94345000Y-124082500D02*
X95595000Y-124082500D01*
X95595000Y-124082500D02*
X95595000Y-144522500D01*
X95595000Y-144522500D02*
X91095000Y-144522500D01*
X91095000Y-144522500D02*
X91095000Y-124082500D01*
X91095000Y-124082500D02*
X92345000Y-124082500D01*
D10*
X138278723Y-149366683D02*
X138615441Y-149029965D01*
X138413410Y-149636057D02*
X137942006Y-148693248D01*
X138884815Y-149164652D01*
X139490906Y-148558561D02*
X139086845Y-148962622D01*
X139288876Y-148760591D02*
X138581769Y-148053485D01*
X138615441Y-148221843D01*
X138615441Y-148356530D01*
X138581769Y-148457546D01*
X126330999Y-140476210D02*
X126398342Y-140476210D01*
X126566701Y-140442538D01*
X126667716Y-140408867D01*
X126802403Y-140341523D01*
X127004434Y-140206836D01*
X127139121Y-140072149D01*
X127273808Y-139870119D01*
X127341151Y-139735432D01*
X127374823Y-139634416D01*
X127408495Y-139466058D01*
X127408495Y-139398714D01*
X126398342Y-139937462D02*
X126297327Y-139903790D01*
X126162640Y-139769103D01*
X126128968Y-139668088D01*
X126162640Y-139567073D01*
X126196312Y-139533401D01*
X126297327Y-139499729D01*
X126398342Y-139533401D01*
X126499358Y-139634416D01*
X126600373Y-139668088D01*
X126701388Y-139634416D01*
X126735060Y-139600745D01*
X126768732Y-139499729D01*
X126735060Y-139398714D01*
X126634045Y-139297699D01*
X126533029Y-139264027D01*
X125657564Y-139264027D02*
X125758579Y-139297699D01*
X125825923Y-139297699D01*
X125926938Y-139264027D01*
X126128968Y-139061997D01*
X126162640Y-138960981D01*
X126162640Y-138893638D01*
X126128968Y-138792623D01*
X126027953Y-138691607D01*
X125926938Y-138657936D01*
X125859594Y-138657936D01*
X125758579Y-138691607D01*
X125556549Y-138893638D01*
X125522877Y-138994653D01*
X125522877Y-139061997D01*
X125556549Y-139163012D01*
X125657564Y-139264027D01*
X125017801Y-138624264D02*
X125118816Y-138657936D01*
X125219831Y-138624264D01*
X125825923Y-138018172D01*
X124445381Y-138051844D02*
X125152488Y-137344737D01*
X124479053Y-138018172D02*
X124512724Y-138119188D01*
X124647411Y-138253875D01*
X124748427Y-138287546D01*
X124815770Y-138287546D01*
X124916785Y-138253875D01*
X125118816Y-138051844D01*
X125152488Y-137950829D01*
X125152488Y-137883485D01*
X125118816Y-137782470D01*
X124984129Y-137647783D01*
X124883114Y-137614111D01*
X123872961Y-137412081D02*
X123906633Y-137513096D01*
X124041320Y-137647783D01*
X124142335Y-137681455D01*
X124243350Y-137647783D01*
X124512724Y-137378409D01*
X124546396Y-137277394D01*
X124512724Y-137176379D01*
X124378037Y-137041692D01*
X124277022Y-137008020D01*
X124176007Y-137041692D01*
X124108663Y-137109035D01*
X124378037Y-137513096D01*
X123502572Y-137109035D02*
X123973976Y-136637631D01*
X123839289Y-136772318D02*
X123872961Y-136671302D01*
X123872961Y-136603959D01*
X123839289Y-136502944D01*
X123771946Y-136435600D01*
X122593435Y-136132554D02*
X122492419Y-136098883D01*
X122357732Y-135964196D01*
X122324061Y-135863180D01*
X122357732Y-135762165D01*
X122391404Y-135728493D01*
X122492419Y-135694822D01*
X122593435Y-135728493D01*
X122694450Y-135829509D01*
X122795465Y-135863180D01*
X122896480Y-135829509D01*
X122930152Y-135795837D01*
X122963824Y-135694822D01*
X122930152Y-135593806D01*
X122829137Y-135492791D01*
X122728122Y-135459119D01*
X122492419Y-135156074D02*
X121886328Y-135492791D01*
X122088358Y-135021387D01*
X121616954Y-135223417D01*
X121953671Y-134617325D01*
X121212893Y-134819356D02*
X121684297Y-134347951D01*
X121920000Y-134112249D02*
X121920000Y-134179593D01*
X121852656Y-134179593D01*
X121852656Y-134112249D01*
X121920000Y-134112249D01*
X121852656Y-134179593D01*
X121448595Y-134112249D02*
X121179221Y-133842875D01*
X121583282Y-133775532D02*
X120977190Y-134381623D01*
X120876175Y-134415295D01*
X120775160Y-134381623D01*
X120707816Y-134314280D01*
X120202740Y-133741860D02*
X120236412Y-133842875D01*
X120371099Y-133977562D01*
X120472114Y-134011234D01*
X120539458Y-134011234D01*
X120640473Y-133977562D01*
X120842503Y-133775532D01*
X120876175Y-133674516D01*
X120876175Y-133607173D01*
X120842503Y-133506158D01*
X120707816Y-133371471D01*
X120606801Y-133337799D01*
X119866023Y-133472486D02*
X120573129Y-132765379D01*
X119562977Y-133169440D02*
X119933366Y-132799051D01*
X120034381Y-132765379D01*
X120135397Y-132799051D01*
X120236412Y-132900066D01*
X120270084Y-133001081D01*
X120270084Y-133068425D01*
X119259931Y-131923585D02*
X118990557Y-131654211D01*
X118687511Y-132293975D02*
X119293603Y-131687883D01*
X119327275Y-131586868D01*
X119293603Y-131485853D01*
X119226259Y-131418509D01*
X118283450Y-131889914D02*
X118754855Y-131418509D01*
X118990557Y-131182807D02*
X118990557Y-131250150D01*
X118923214Y-131250150D01*
X118923214Y-131182807D01*
X118990557Y-131182807D01*
X118923214Y-131250150D01*
X117946733Y-131553196D02*
X118418137Y-131081792D01*
X118283450Y-131216479D02*
X118317122Y-131115463D01*
X118317122Y-131048120D01*
X118283450Y-130947105D01*
X118216107Y-130879761D01*
X117576344Y-131115463D02*
X117475328Y-131081792D01*
X117340641Y-130947105D01*
X117306970Y-130846089D01*
X117340641Y-130745074D01*
X117374313Y-130711402D01*
X117475328Y-130677731D01*
X117576344Y-130711402D01*
X117677359Y-130812418D01*
X117778374Y-130846089D01*
X117879389Y-130812418D01*
X117913061Y-130778746D01*
X117946733Y-130677731D01*
X117913061Y-130576715D01*
X117812046Y-130475700D01*
X117711031Y-130442028D01*
X117509000Y-130172654D02*
X117239626Y-129903280D01*
X117643687Y-129835937D02*
X117037596Y-130442028D01*
X116936580Y-130475700D01*
X116835565Y-130442028D01*
X116768222Y-130374685D01*
X116330489Y-130475700D02*
X116330489Y-130408357D01*
X116364161Y-130239998D01*
X116397832Y-130138983D01*
X116465176Y-130004296D01*
X116599863Y-129802265D01*
X116734550Y-129667578D01*
X116936580Y-129532891D01*
X117071267Y-129465548D01*
X117172283Y-129431876D01*
X117340641Y-129398204D01*
X117407985Y-129398204D01*
D11*
X108638154Y-116931358D02*
X109210574Y-117503778D01*
X109244245Y-117604793D01*
X109244245Y-117672136D01*
X109210574Y-117773152D01*
X109075887Y-117907839D01*
X108974871Y-117941510D01*
X108907528Y-117941510D01*
X108806513Y-117907839D01*
X108234093Y-117335419D01*
X108604482Y-118311900D02*
X108537139Y-118446587D01*
X108368780Y-118614946D01*
X108267765Y-118648617D01*
X108200421Y-118648617D01*
X108099406Y-118614946D01*
X108032062Y-118547602D01*
X107998390Y-118446587D01*
X107998390Y-118379243D01*
X108032062Y-118278228D01*
X108133078Y-118109869D01*
X108166749Y-118008854D01*
X108166749Y-117941510D01*
X108133078Y-117840495D01*
X108065734Y-117773152D01*
X107964719Y-117739480D01*
X107897375Y-117739480D01*
X107796360Y-117773152D01*
X107628001Y-117941510D01*
X107560658Y-118076197D01*
X107324955Y-118917991D02*
X107257612Y-119052678D01*
X107257612Y-119120022D01*
X107291284Y-119221037D01*
X107392299Y-119322052D01*
X107493314Y-119355724D01*
X107560658Y-119355724D01*
X107661673Y-119322052D01*
X107931047Y-119052678D01*
X107223940Y-118345572D01*
X106988238Y-118581274D01*
X106954566Y-118682289D01*
X106954566Y-118749633D01*
X106988238Y-118850648D01*
X107055581Y-118917991D01*
X107156597Y-118951663D01*
X107223940Y-118951663D01*
X107324955Y-118917991D01*
X107560658Y-118682289D01*
X134522303Y-144835812D02*
X134185585Y-144499095D01*
X134387616Y-145105186D02*
X134859020Y-144162377D01*
X133916211Y-144633782D01*
X133680509Y-144398079D02*
X134151914Y-143926675D01*
X134017227Y-144061362D02*
X134050898Y-143960347D01*
X134050898Y-143893003D01*
X134017227Y-143791988D01*
X133949883Y-143724644D01*
X132939730Y-143657301D02*
X133646837Y-142950194D01*
X132973402Y-143623629D02*
X133007074Y-143724644D01*
X133141761Y-143859331D01*
X133242776Y-143893003D01*
X133310120Y-143893003D01*
X133411135Y-143859331D01*
X133613165Y-143657301D01*
X133646837Y-143556285D01*
X133646837Y-143488942D01*
X133613165Y-143387927D01*
X133478478Y-143253240D01*
X133377463Y-143219568D01*
X132771372Y-142546133D02*
X132299967Y-143017537D01*
X133074417Y-142849179D02*
X132704028Y-143219568D01*
X132603013Y-143253240D01*
X132501998Y-143219568D01*
X132400982Y-143118553D01*
X132367311Y-143017537D01*
X132367311Y-142950194D01*
X131963250Y-142680820D02*
X132434654Y-142209415D01*
X132670356Y-141973713D02*
X132670356Y-142041057D01*
X132603013Y-142041057D01*
X132603013Y-141973713D01*
X132670356Y-141973713D01*
X132603013Y-142041057D01*
X132097937Y-141872698D02*
X131626532Y-142344102D01*
X132030593Y-141940041D02*
X132030593Y-141872698D01*
X131996921Y-141771683D01*
X131895906Y-141670667D01*
X131794891Y-141636996D01*
X131693876Y-141670667D01*
X131323486Y-142041057D01*
X130885754Y-141603324D02*
X130986769Y-141636996D01*
X131054112Y-141636996D01*
X131155128Y-141603324D01*
X131357158Y-141401293D01*
X131390830Y-141300278D01*
X131390830Y-141232935D01*
X131357158Y-141131919D01*
X131256143Y-141030904D01*
X131155128Y-140997232D01*
X131087784Y-140997232D01*
X130986769Y-141030904D01*
X130784738Y-141232935D01*
X130751067Y-141333950D01*
X130751067Y-141401293D01*
X130784738Y-141502309D01*
X130885754Y-141603324D01*
X129808258Y-140525828D02*
X130515364Y-139818721D01*
X129404197Y-140121767D01*
X130111303Y-139414660D01*
X128764433Y-139482004D02*
X129134823Y-139111614D01*
X129235838Y-139077943D01*
X129336853Y-139111614D01*
X129471540Y-139246301D01*
X129505212Y-139347317D01*
X128798105Y-139448332D02*
X128831777Y-139549347D01*
X129000136Y-139717706D01*
X129101151Y-139751378D01*
X129202166Y-139717706D01*
X129269510Y-139650362D01*
X129303181Y-139549347D01*
X129269510Y-139448332D01*
X129101151Y-139279973D01*
X129067479Y-139178958D01*
X128899120Y-138673882D02*
X128427716Y-139145286D01*
X128831777Y-138741225D02*
X128831777Y-138673882D01*
X128798105Y-138572866D01*
X128697090Y-138471851D01*
X128596075Y-138438179D01*
X128495059Y-138471851D01*
X128124670Y-138842240D01*
X127686937Y-138404508D02*
X127787952Y-138438179D01*
X127855296Y-138438179D01*
X127956311Y-138404508D01*
X128158342Y-138202477D01*
X128192014Y-138101462D01*
X128192014Y-138034118D01*
X128158342Y-137933103D01*
X128057326Y-137832088D01*
X127956311Y-137798416D01*
X127888968Y-137798416D01*
X127787952Y-137832088D01*
X127585922Y-138034118D01*
X127552250Y-138135133D01*
X127552250Y-138202477D01*
X127585922Y-138303492D01*
X127686937Y-138404508D01*
X126609441Y-137327011D02*
X127080846Y-136855607D01*
X127013502Y-136922950D02*
X127013502Y-136855607D01*
X126979830Y-136754592D01*
X126878815Y-136653576D01*
X126777800Y-136619905D01*
X126676785Y-136653576D01*
X126306395Y-137023966D01*
X126676785Y-136653576D02*
X126710456Y-136552561D01*
X126676785Y-136451546D01*
X126575769Y-136350531D01*
X126474754Y-136316859D01*
X126373739Y-136350531D01*
X126003350Y-136720920D01*
X125565617Y-136283187D02*
X125666632Y-136316859D01*
X125733976Y-136316859D01*
X125834991Y-136283187D01*
X126037021Y-136081157D01*
X126070693Y-135980141D01*
X126070693Y-135912798D01*
X126037021Y-135811783D01*
X125936006Y-135710767D01*
X125834991Y-135677096D01*
X125767647Y-135677096D01*
X125666632Y-135710767D01*
X125464602Y-135912798D01*
X125430930Y-136013813D01*
X125430930Y-136081157D01*
X125464602Y-136182172D01*
X125565617Y-136283187D01*
X125195228Y-134969989D02*
X124723823Y-135441393D01*
X125498273Y-135273035D02*
X125127884Y-135643424D01*
X125026869Y-135677096D01*
X124925854Y-135643424D01*
X124824838Y-135542409D01*
X124791167Y-135441393D01*
X124791167Y-135374050D01*
X124858510Y-134633271D02*
X124387106Y-135104676D01*
X124791167Y-134700615D02*
X124791167Y-134633271D01*
X124757495Y-134532256D01*
X124656480Y-134431241D01*
X124555464Y-134397569D01*
X124454449Y-134431241D01*
X124084060Y-134801630D01*
X124319762Y-134094523D02*
X124050388Y-133825149D01*
X124454449Y-133757806D02*
X123848358Y-134363897D01*
X123747342Y-134397569D01*
X123646327Y-134363897D01*
X123578984Y-134296554D01*
X123107579Y-133757806D02*
X123141251Y-133858821D01*
X123275938Y-133993508D01*
X123376953Y-134027180D01*
X123477968Y-133993508D01*
X123747342Y-133724134D01*
X123781014Y-133623119D01*
X123747342Y-133522104D01*
X123612655Y-133387417D01*
X123511640Y-133353745D01*
X123410625Y-133387417D01*
X123343281Y-133454760D01*
X123612655Y-133858821D01*
X122434144Y-133151714D02*
X123141251Y-132444607D01*
X122467816Y-133118043D02*
X122501488Y-133219058D01*
X122636175Y-133353745D01*
X122737190Y-133387417D01*
X122804533Y-133387417D01*
X122905549Y-133353745D01*
X123107579Y-133151714D01*
X123141251Y-133050699D01*
X123141251Y-132983356D01*
X123107579Y-132882340D01*
X122972892Y-132747653D01*
X122871877Y-132713982D01*
X122097426Y-131872188D02*
X121491335Y-132208905D01*
X121693365Y-131737501D01*
X121221961Y-131939531D01*
X121558678Y-131333440D01*
X120817900Y-131535470D02*
X121289304Y-131064066D01*
X121525007Y-130828363D02*
X121525007Y-130895707D01*
X121457663Y-130895707D01*
X121457663Y-130828363D01*
X121525007Y-130828363D01*
X121457663Y-130895707D01*
X121053602Y-130828363D02*
X120784228Y-130558989D01*
X121188289Y-130491646D02*
X120582198Y-131097737D01*
X120481182Y-131131409D01*
X120380167Y-131097737D01*
X120312824Y-131030394D01*
X120077121Y-130794692D02*
X120784228Y-130087585D01*
X119774076Y-130491646D02*
X120144465Y-130121257D01*
X120245480Y-130087585D01*
X120346495Y-130121257D01*
X120447511Y-130222272D01*
X120481182Y-130323287D01*
X120481182Y-130390631D01*
X119370015Y-129144776D02*
X118662908Y-129851883D01*
X119336343Y-129178448D02*
X119302671Y-129077432D01*
X119167984Y-128942745D01*
X119066969Y-128909074D01*
X118999625Y-128909074D01*
X118898610Y-128942745D01*
X118696580Y-129144776D01*
X118662908Y-129245791D01*
X118662908Y-129313135D01*
X118696580Y-129414150D01*
X118831267Y-129548837D01*
X118932282Y-129582509D01*
X118258847Y-128976417D02*
X118730251Y-128505013D01*
X118965954Y-128269310D02*
X118965954Y-128336654D01*
X118898610Y-128336654D01*
X118898610Y-128269310D01*
X118965954Y-128269310D01*
X118898610Y-128336654D01*
X118393534Y-128168295D02*
X117922129Y-128639700D01*
X118326190Y-128235639D02*
X118326190Y-128168295D01*
X118292519Y-128067280D01*
X118191503Y-127966265D01*
X118090488Y-127932593D01*
X117989473Y-127966265D01*
X117619084Y-128336654D01*
X117349710Y-127999936D02*
X117248694Y-127966265D01*
X117114007Y-127831578D01*
X117080336Y-127730562D01*
X117114007Y-127629547D01*
X117147679Y-127595875D01*
X117248694Y-127562204D01*
X117349710Y-127595875D01*
X117450725Y-127696891D01*
X117551740Y-127730562D01*
X117652755Y-127696891D01*
X117686427Y-127663219D01*
X117720099Y-127562204D01*
X117686427Y-127461188D01*
X117585412Y-127360173D01*
X117484397Y-127326501D01*
X116642603Y-126417364D02*
X115935496Y-127124471D01*
X116608931Y-126451036D02*
X116575259Y-126350020D01*
X116440572Y-126215333D01*
X116339557Y-126181662D01*
X116272213Y-126181662D01*
X116171198Y-126215333D01*
X115969168Y-126417364D01*
X115935496Y-126518379D01*
X115935496Y-126585723D01*
X115969168Y-126686738D01*
X116103855Y-126821425D01*
X116204870Y-126855097D01*
X115430420Y-126147990D02*
X115531435Y-126181662D01*
X115598778Y-126181662D01*
X115699794Y-126147990D01*
X115901824Y-125945959D01*
X115935496Y-125844944D01*
X115935496Y-125777601D01*
X115901824Y-125676585D01*
X115800809Y-125575570D01*
X115699794Y-125541898D01*
X115632450Y-125541898D01*
X115531435Y-125575570D01*
X115329404Y-125777601D01*
X115295733Y-125878616D01*
X115295733Y-125945959D01*
X115329404Y-126046975D01*
X115430420Y-126147990D01*
X114891672Y-125609242D02*
X115363076Y-125137837D01*
X115598778Y-124902135D02*
X115598778Y-124969479D01*
X115531435Y-124969479D01*
X115531435Y-124902135D01*
X115598778Y-124902135D01*
X115531435Y-124969479D01*
X115026359Y-124801120D02*
X114554954Y-125272524D01*
X114959015Y-124868463D02*
X114959015Y-124801120D01*
X114925343Y-124700105D01*
X114824328Y-124599089D01*
X114723313Y-124565418D01*
X114622298Y-124599089D01*
X114251908Y-124969479D01*
X114487611Y-124262372D02*
X114218237Y-123992998D01*
X114622298Y-123925654D02*
X114016206Y-124531746D01*
X113915191Y-124565418D01*
X113814176Y-124531746D01*
X113746832Y-124464402D01*
X113511130Y-124228700D02*
X113982534Y-123757296D01*
X114218237Y-123521593D02*
X114218237Y-123588937D01*
X114150893Y-123588937D01*
X114150893Y-123521593D01*
X114218237Y-123521593D01*
X114150893Y-123588937D01*
X113645817Y-123420578D02*
X113174412Y-123891983D01*
X113578473Y-123487922D02*
X113578473Y-123420578D01*
X113544802Y-123319563D01*
X113443786Y-123218548D01*
X113342771Y-123184876D01*
X113241756Y-123218548D01*
X112871367Y-123588937D01*
X112703008Y-122477769D02*
X112130588Y-123050189D01*
X112096916Y-123151204D01*
X112096916Y-123218548D01*
X112130588Y-123319563D01*
X112231603Y-123420578D01*
X112332619Y-123454250D01*
X112265275Y-122915502D02*
X112298947Y-123016517D01*
X112433634Y-123151204D01*
X112534649Y-123184876D01*
X112601993Y-123184876D01*
X112703008Y-123151204D01*
X112905038Y-122949174D01*
X112938710Y-122848158D01*
X112938710Y-122780815D01*
X112905038Y-122679800D01*
X112770351Y-122545113D01*
X112669336Y-122511441D01*
X111524497Y-121299258D02*
X111053092Y-121770662D01*
X111827542Y-121602304D02*
X111457153Y-121972693D01*
X111356138Y-122006365D01*
X111255123Y-121972693D01*
X111154107Y-121871678D01*
X111120435Y-121770662D01*
X111120435Y-121703319D01*
X111187779Y-120962540D02*
X110480672Y-121669647D01*
X111154107Y-120996212D02*
X111120435Y-120895197D01*
X110985748Y-120760510D01*
X110884733Y-120726838D01*
X110817390Y-120726838D01*
X110716374Y-120760510D01*
X110514344Y-120962540D01*
X110480672Y-121063555D01*
X110480672Y-121130899D01*
X110514344Y-121231914D01*
X110649031Y-121366601D01*
X110750046Y-121400273D01*
X110143955Y-120726838D02*
X110076611Y-120726838D01*
X110076611Y-120794181D01*
X110143955Y-120794181D01*
X110143955Y-120726838D01*
X110076611Y-120794181D01*
X110345985Y-120524807D02*
X110783718Y-120154418D01*
X110783718Y-120087075D01*
X110716374Y-120087075D01*
X110345985Y-120524807D01*
X110783718Y-120087075D01*
D10*
X129137918Y-120729013D02*
X129642994Y-121234089D01*
X129777681Y-121301433D01*
X129912368Y-121301433D01*
X130047055Y-121234089D01*
X130114398Y-121166746D01*
X128464483Y-121402448D02*
X128801200Y-121065731D01*
X129171589Y-121368776D01*
X129104246Y-121368776D01*
X129003231Y-121402448D01*
X128834872Y-121570807D01*
X128801200Y-121671822D01*
X128801200Y-121739166D01*
X128834872Y-121840181D01*
X129003231Y-122008540D01*
X129104246Y-122042211D01*
X129171589Y-122042211D01*
X129272605Y-122008540D01*
X129440963Y-121840181D01*
X129474635Y-121739166D01*
X129474635Y-121671822D01*
X80898904Y-122471380D02*
X80898904Y-123280904D01*
X80851285Y-123376142D01*
X80803666Y-123423761D01*
X80708428Y-123471380D01*
X80517952Y-123471380D01*
X80422714Y-123423761D01*
X80375095Y-123376142D01*
X80327476Y-123280904D01*
X80327476Y-122471380D01*
X79327476Y-123471380D02*
X79898904Y-123471380D01*
X79613190Y-123471380D02*
X79613190Y-122471380D01*
X79708428Y-122614238D01*
X79803666Y-122709476D01*
X79898904Y-122757095D01*
X94106904Y-122534880D02*
X94106904Y-123344404D01*
X94059285Y-123439642D01*
X94011666Y-123487261D01*
X93916428Y-123534880D01*
X93725952Y-123534880D01*
X93630714Y-123487261D01*
X93583095Y-123439642D01*
X93535476Y-123344404D01*
X93535476Y-122534880D01*
X93106904Y-122630119D02*
X93059285Y-122582500D01*
X92964047Y-122534880D01*
X92725952Y-122534880D01*
X92630714Y-122582500D01*
X92583095Y-122630119D01*
X92535476Y-122725357D01*
X92535476Y-122820595D01*
X92583095Y-122963452D01*
X93154523Y-123534880D01*
X92535476Y-123534880D01*
M02*
