M48
; DRILL file {KiCad (5.1.5)-3} date 16/10/2020 01:55:59
; FORMAT={2:4/ absolute / inch / suppress leading zeros}
; #@! TF.CreationDate,2020-10-16T01:55:59+02:00
; #@! TF.GenerationSoftware,Kicad,Pcbnew,(5.1.5)-3
FMAT,2
INCH,TZ
T1C0.0157
T2C0.0315
T3C0.0394
T4C0.0433
T5C0.1200
%
G90
G05
T1
X31000Y-52000
X31000Y-53250
X31000Y-54250
X31000Y-55000
X34035Y-55370
X35950Y-49885
X36650Y-53380
X36660Y-54375
X38885Y-53880
X38900Y-52885
X41865Y-56345
X42150Y-55968
X42250Y-65465
X42750Y-57500
X43610Y-56535
X43985Y-56245
X44000Y-65500
T2
X30050Y-49350
X30050Y-50350
X30050Y-51350
X30050Y-52350
X30050Y-53350
X30050Y-54350
X30050Y-55350
X30050Y-56350
X33050Y-49350
X33050Y-50350
X33050Y-51350
X33050Y-52350
X33050Y-53350
X33050Y-54350
X33050Y-55350
X33050Y-56350
X35250Y-49375
X35250Y-50375
X35250Y-51375
X35250Y-52375
X35250Y-53375
X35250Y-54375
X35250Y-55375
X35250Y-56375
X38250Y-49375
X38250Y-50375
X38250Y-51375
X38250Y-52375
X38250Y-53375
X38250Y-54375
X38250Y-55375
X38250Y-56375
X41158Y-49368
X41865Y-50075
X42572Y-50782
X43279Y-51489
X43986Y-52197
X44693Y-52904
X45401Y-45126
X45401Y-53611
X46108Y-45833
X46108Y-54318
X46815Y-46540
X46815Y-55025
X47522Y-47247
X47522Y-55732
X48229Y-47954
X48229Y-56439
X48936Y-48661
X48936Y-57146
X49643Y-49368
X49643Y-57853
X50350Y-50075
X50350Y-58561
X51057Y-50782
X51057Y-59268
X51764Y-51489
X52472Y-52197
X53179Y-52904
X53886Y-53611
X54593Y-54318
X55300Y-55025
T3
X40400Y-54125
X40400Y-55125
X40400Y-56125
X40400Y-57125
X40400Y-58125
X42450Y-58400
X43450Y-58400
X44450Y-58400
X45450Y-58400
X46450Y-58400
X36050Y-60175
X37050Y-60175
X38050Y-60175
X39050Y-60175
X40050Y-60175
X51550Y-48425
X52257Y-49132
X42100Y-60525
X42100Y-61525
X42100Y-62525
X42100Y-63525
X42100Y-64525
T4
X46800Y-52900
X48053Y-54153
X48610Y-51090
X49862Y-52343
T5
X53225Y-71300
X29275Y-71300
X29275Y-47350
X53225Y-47350
T0
M30
