G04 #@! TF.GenerationSoftware,KiCad,Pcbnew,(5.1.5)-3*
G04 #@! TF.CreationDate,2020-10-31T02:17:23+01:00*
G04 #@! TF.ProjectId,Christmas C,43687269-7374-46d6-9173-20432e6b6963,rev?*
G04 #@! TF.SameCoordinates,Original*
G04 #@! TF.FileFunction,Legend,Bot*
G04 #@! TF.FilePolarity,Positive*
%FSLAX46Y46*%
G04 Gerber Fmt 4.6, Leading zero omitted, Abs format (unit mm)*
G04 Created by KiCad (PCBNEW (5.1.5)-3) date 2020-10-31 02:17:23*
%MOMM*%
%LPD*%
G04 APERTURE LIST*
%ADD10C,0.200000*%
%ADD11C,0.150000*%
%ADD12C,0.100000*%
%ADD13C,0.120000*%
G04 APERTURE END LIST*
D10*
X86106000Y-114427000D02*
X86106000Y-115189000D01*
X88646000Y-115189000D02*
X88646000Y-114427000D01*
D11*
X112737541Y-176488014D02*
X112817898Y-176559442D01*
X113041112Y-176630871D01*
X113183969Y-176630871D01*
X113389326Y-176559442D01*
X113514326Y-176416585D01*
X113567898Y-176273728D01*
X113603612Y-175988014D01*
X113576826Y-175773728D01*
X113469683Y-175488014D01*
X113380398Y-175345157D01*
X113219683Y-175202300D01*
X112996469Y-175130871D01*
X112853612Y-175130871D01*
X112648255Y-175202300D01*
X112585755Y-175273728D01*
X112112541Y-176630871D02*
X111925041Y-175130871D01*
X111469683Y-176630871D02*
X111371469Y-175845157D01*
X111425041Y-175702300D01*
X111558969Y-175630871D01*
X111773255Y-175630871D01*
X111925041Y-175702300D01*
X112005398Y-175773728D01*
X110755398Y-176630871D02*
X110630398Y-175630871D01*
X110666112Y-175916585D02*
X110576826Y-175773728D01*
X110496469Y-175702300D01*
X110344683Y-175630871D01*
X110201826Y-175630871D01*
X109826826Y-176630871D02*
X109701826Y-175630871D01*
X109639326Y-175130871D02*
X109719683Y-175202300D01*
X109657183Y-175273728D01*
X109576826Y-175202300D01*
X109639326Y-175130871D01*
X109657183Y-175273728D01*
X109175041Y-176559442D02*
X109041112Y-176630871D01*
X108755398Y-176630871D01*
X108603612Y-176559442D01*
X108514326Y-176416585D01*
X108505398Y-176345157D01*
X108558969Y-176202300D01*
X108692898Y-176130871D01*
X108907183Y-176130871D01*
X109041112Y-176059442D01*
X109094683Y-175916585D01*
X109085755Y-175845157D01*
X108996469Y-175702300D01*
X108844683Y-175630871D01*
X108630398Y-175630871D01*
X108496469Y-175702300D01*
X107987541Y-175630871D02*
X107416112Y-175630871D01*
X107710755Y-175130871D02*
X107871469Y-176416585D01*
X107817898Y-176559442D01*
X107683969Y-176630871D01*
X107541112Y-176630871D01*
X107041112Y-176630871D02*
X106916112Y-175630871D01*
X106933969Y-175773728D02*
X106853612Y-175702300D01*
X106701826Y-175630871D01*
X106487541Y-175630871D01*
X106353612Y-175702300D01*
X106300041Y-175845157D01*
X106398255Y-176630871D01*
X106300041Y-175845157D02*
X106210755Y-175702300D01*
X106058969Y-175630871D01*
X105844683Y-175630871D01*
X105710755Y-175702300D01*
X105657183Y-175845157D01*
X105755398Y-176630871D01*
X104398255Y-176630871D02*
X104300041Y-175845157D01*
X104353612Y-175702300D01*
X104487541Y-175630871D01*
X104773255Y-175630871D01*
X104925041Y-175702300D01*
X104389326Y-176559442D02*
X104541112Y-176630871D01*
X104898255Y-176630871D01*
X105032183Y-176559442D01*
X105085755Y-176416585D01*
X105067898Y-176273728D01*
X104978612Y-176130871D01*
X104826826Y-176059442D01*
X104469683Y-176059442D01*
X104317898Y-175988014D01*
X103746469Y-176559442D02*
X103612541Y-176630871D01*
X103326826Y-176630871D01*
X103175041Y-176559442D01*
X103085755Y-176416585D01*
X103076826Y-176345157D01*
X103130398Y-176202300D01*
X103264326Y-176130871D01*
X103478612Y-176130871D01*
X103612541Y-176059442D01*
X103666112Y-175916585D01*
X103657183Y-175845157D01*
X103567898Y-175702300D01*
X103416112Y-175630871D01*
X103201826Y-175630871D01*
X103067898Y-175702300D01*
X101228612Y-175273728D02*
X101148255Y-175202300D01*
X100996469Y-175130871D01*
X100639326Y-175130871D01*
X100505398Y-175202300D01*
X100442898Y-175273728D01*
X100389326Y-175416585D01*
X100407183Y-175559442D01*
X100505398Y-175773728D01*
X101469683Y-176630871D01*
X100541112Y-176630871D01*
X99425041Y-175130871D02*
X99282183Y-175130871D01*
X99148255Y-175202300D01*
X99085755Y-175273728D01*
X99032183Y-175416585D01*
X98996469Y-175702300D01*
X99041112Y-176059442D01*
X99148255Y-176345157D01*
X99237541Y-176488014D01*
X99317898Y-176559442D01*
X99469683Y-176630871D01*
X99612541Y-176630871D01*
X99746469Y-176559442D01*
X99808969Y-176488014D01*
X99862541Y-176345157D01*
X99898255Y-176059442D01*
X99853612Y-175702300D01*
X99746469Y-175416585D01*
X99657183Y-175273728D01*
X99576826Y-175202300D01*
X99425041Y-175130871D01*
X98371469Y-175273728D02*
X98291112Y-175202300D01*
X98139326Y-175130871D01*
X97782183Y-175130871D01*
X97648255Y-175202300D01*
X97585755Y-175273728D01*
X97532183Y-175416585D01*
X97550041Y-175559442D01*
X97648255Y-175773728D01*
X98612541Y-176630871D01*
X97683969Y-176630871D01*
X96567898Y-175130871D02*
X96425041Y-175130871D01*
X96291112Y-175202300D01*
X96228612Y-175273728D01*
X96175041Y-175416585D01*
X96139326Y-175702300D01*
X96183969Y-176059442D01*
X96291112Y-176345157D01*
X96380398Y-176488014D01*
X96460755Y-176559442D01*
X96612541Y-176630871D01*
X96755398Y-176630871D01*
X96889326Y-176559442D01*
X96951826Y-176488014D01*
X97005398Y-176345157D01*
X97041112Y-176059442D01*
X96996469Y-175702300D01*
X96889326Y-175416585D01*
X96800041Y-175273728D01*
X96719683Y-175202300D01*
X96567898Y-175130871D01*
X112951826Y-178030871D02*
X113103612Y-179245157D01*
X113192898Y-179388014D01*
X113273255Y-179459442D01*
X113425041Y-179530871D01*
X113639326Y-179530871D01*
X113773255Y-179459442D01*
X113067898Y-178959442D02*
X113219683Y-179030871D01*
X113505398Y-179030871D01*
X113639326Y-178959442D01*
X113701826Y-178888014D01*
X113755398Y-178745157D01*
X113701826Y-178316585D01*
X113612541Y-178173728D01*
X113532183Y-178102300D01*
X113380398Y-178030871D01*
X113094683Y-178030871D01*
X112960755Y-178102300D01*
X112362541Y-179030871D02*
X112237541Y-178030871D01*
X112175041Y-177530871D02*
X112255398Y-177602300D01*
X112192898Y-177673728D01*
X112112541Y-177602300D01*
X112175041Y-177530871D01*
X112192898Y-177673728D01*
X111737541Y-178030871D02*
X111166112Y-178030871D01*
X111460755Y-177530871D02*
X111621469Y-178816585D01*
X111567898Y-178959442D01*
X111433969Y-179030871D01*
X111291112Y-179030871D01*
X110791112Y-179030871D02*
X110603612Y-177530871D01*
X110148255Y-179030871D02*
X110050041Y-178245157D01*
X110103612Y-178102300D01*
X110237541Y-178030871D01*
X110451826Y-178030871D01*
X110603612Y-178102300D01*
X110683969Y-178173728D01*
X108666112Y-178030871D02*
X108791112Y-179030871D01*
X109308969Y-178030871D02*
X109407183Y-178816585D01*
X109353612Y-178959442D01*
X109219683Y-179030871D01*
X109005398Y-179030871D01*
X108853612Y-178959442D01*
X108773255Y-178888014D01*
X108076826Y-179030871D02*
X107889326Y-177530871D01*
X107960755Y-178102300D02*
X107808969Y-178030871D01*
X107523255Y-178030871D01*
X107389326Y-178102300D01*
X107326826Y-178173728D01*
X107273255Y-178316585D01*
X107326826Y-178745157D01*
X107416112Y-178888014D01*
X107496469Y-178959442D01*
X107648255Y-179030871D01*
X107933969Y-179030871D01*
X108067898Y-178959442D01*
X106701826Y-178888014D02*
X106639326Y-178959442D01*
X106719683Y-179030871D01*
X106782183Y-178959442D01*
X106701826Y-178888014D01*
X106719683Y-179030871D01*
X105353612Y-178959442D02*
X105505398Y-179030871D01*
X105791112Y-179030871D01*
X105925041Y-178959442D01*
X105987541Y-178888014D01*
X106041112Y-178745157D01*
X105987541Y-178316585D01*
X105898255Y-178173728D01*
X105817898Y-178102300D01*
X105666112Y-178030871D01*
X105380398Y-178030871D01*
X105246469Y-178102300D01*
X104505398Y-179030871D02*
X104639326Y-178959442D01*
X104701826Y-178888014D01*
X104755398Y-178745157D01*
X104701826Y-178316585D01*
X104612541Y-178173728D01*
X104532183Y-178102300D01*
X104380398Y-178030871D01*
X104166112Y-178030871D01*
X104032183Y-178102300D01*
X103969683Y-178173728D01*
X103916112Y-178316585D01*
X103969683Y-178745157D01*
X104058969Y-178888014D01*
X104139326Y-178959442D01*
X104291112Y-179030871D01*
X104505398Y-179030871D01*
X103362541Y-179030871D02*
X103237541Y-178030871D01*
X103255398Y-178173728D02*
X103175041Y-178102300D01*
X103023255Y-178030871D01*
X102808969Y-178030871D01*
X102675041Y-178102300D01*
X102621469Y-178245157D01*
X102719683Y-179030871D01*
X102621469Y-178245157D02*
X102532183Y-178102300D01*
X102380398Y-178030871D01*
X102166112Y-178030871D01*
X102032183Y-178102300D01*
X101978612Y-178245157D01*
X102076826Y-179030871D01*
X100094683Y-177459442D02*
X101621469Y-179388014D01*
X99880398Y-178030871D02*
X99308969Y-178030871D01*
X99603612Y-177530871D02*
X99764326Y-178816585D01*
X99710755Y-178959442D01*
X99576826Y-179030871D01*
X99433969Y-179030871D01*
X98353612Y-178959442D02*
X98505398Y-179030871D01*
X98791112Y-179030871D01*
X98925041Y-178959442D01*
X98978612Y-178816585D01*
X98907183Y-178245157D01*
X98817898Y-178102300D01*
X98666112Y-178030871D01*
X98380398Y-178030871D01*
X98246469Y-178102300D01*
X98192898Y-178245157D01*
X98210755Y-178388014D01*
X98942898Y-178530871D01*
X97648255Y-179030871D02*
X97460755Y-177530871D01*
X97532183Y-178102300D02*
X97380398Y-178030871D01*
X97094683Y-178030871D01*
X96960755Y-178102300D01*
X96898255Y-178173728D01*
X96844683Y-178316585D01*
X96898255Y-178745157D01*
X96987541Y-178888014D01*
X97067898Y-178959442D01*
X97219683Y-179030871D01*
X97505398Y-179030871D01*
X97639326Y-178959442D01*
X96076826Y-179030871D02*
X96210755Y-178959442D01*
X96264326Y-178816585D01*
X96103612Y-177530871D01*
D12*
X86715523Y-113455500D02*
X86791714Y-113417404D01*
X86906000Y-113417404D01*
X87020285Y-113455500D01*
X87096476Y-113531690D01*
X87134571Y-113607880D01*
X87172666Y-113760261D01*
X87172666Y-113874547D01*
X87134571Y-114026928D01*
X87096476Y-114103119D01*
X87020285Y-114179309D01*
X86906000Y-114217404D01*
X86829809Y-114217404D01*
X86715523Y-114179309D01*
X86677428Y-114141214D01*
X86677428Y-113874547D01*
X86829809Y-113874547D01*
X86334571Y-114217404D02*
X86334571Y-113417404D01*
X85877428Y-114217404D01*
X85877428Y-113417404D01*
X85496476Y-114217404D02*
X85496476Y-113417404D01*
X85306000Y-113417404D01*
X85191714Y-113455500D01*
X85115523Y-113531690D01*
X85077428Y-113607880D01*
X85039333Y-113760261D01*
X85039333Y-113874547D01*
X85077428Y-114026928D01*
X85115523Y-114103119D01*
X85191714Y-114179309D01*
X85306000Y-114217404D01*
X85496476Y-114217404D01*
X88798380Y-113417404D02*
X89179333Y-113417404D01*
X89217428Y-113798357D01*
X89179333Y-113760261D01*
X89103142Y-113722166D01*
X88912666Y-113722166D01*
X88836476Y-113760261D01*
X88798380Y-113798357D01*
X88760285Y-113874547D01*
X88760285Y-114065023D01*
X88798380Y-114141214D01*
X88836476Y-114179309D01*
X88912666Y-114217404D01*
X89103142Y-114217404D01*
X89179333Y-114179309D01*
X89217428Y-114141214D01*
X88531714Y-113417404D02*
X88265047Y-114217404D01*
X87998380Y-113417404D01*
D11*
X113098975Y-116383565D02*
X110853911Y-114138501D01*
X109506873Y-119975668D02*
X113098975Y-116383565D01*
X109506873Y-119975668D02*
X107261808Y-117730604D01*
D13*
X131508500Y-147365449D02*
X133304551Y-149161500D01*
X131508500Y-147365449D02*
X129620525Y-149253424D01*
X129620525Y-149253424D02*
X102587833Y-122220732D01*
X133304551Y-152937450D02*
X131416576Y-151049475D01*
X142284807Y-140181244D02*
X144172782Y-138293269D01*
X142284807Y-140181244D02*
X115344039Y-113240476D01*
X115344039Y-113240476D02*
X117232014Y-111352500D01*
X131508500Y-147365449D02*
X106363783Y-122220732D01*
X106363783Y-122220732D02*
X104475808Y-124108707D01*
X102587833Y-122220732D02*
X115344039Y-109464525D01*
X115344039Y-109464525D02*
X146060758Y-140181244D01*
X146060758Y-140181244D02*
X133304551Y-152937450D01*
X73803000Y-125924000D02*
G75*
G03X75803000Y-125924000I1000000J0D01*
G01*
X75803000Y-125924000D02*
X77053000Y-125924000D01*
X77053000Y-125924000D02*
X77053000Y-146364000D01*
X77053000Y-146364000D02*
X72553000Y-146364000D01*
X72553000Y-146364000D02*
X72553000Y-125924000D01*
X72553000Y-125924000D02*
X73803000Y-125924000D01*
X89976000Y-117916000D02*
X89976000Y-116586000D01*
X88646000Y-117916000D02*
X89976000Y-117916000D01*
X87376000Y-117916000D02*
X87376000Y-115256000D01*
X87376000Y-115256000D02*
X84776000Y-115256000D01*
X87376000Y-117916000D02*
X84776000Y-117916000D01*
X84776000Y-117916000D02*
X84776000Y-115256000D01*
X87011000Y-125987500D02*
G75*
G03X89011000Y-125987500I1000000J0D01*
G01*
X89011000Y-125987500D02*
X90261000Y-125987500D01*
X90261000Y-125987500D02*
X90261000Y-146427500D01*
X90261000Y-146427500D02*
X85761000Y-146427500D01*
X85761000Y-146427500D02*
X85761000Y-125987500D01*
X85761000Y-125987500D02*
X87011000Y-125987500D01*
D11*
X129759999Y-137606010D02*
X129827342Y-137606010D01*
X129995701Y-137572338D01*
X130096716Y-137538667D01*
X130231403Y-137471323D01*
X130433434Y-137336636D01*
X130568121Y-137201949D01*
X130702808Y-136999919D01*
X130770151Y-136865232D01*
X130803823Y-136764216D01*
X130837495Y-136595858D01*
X130837495Y-136528514D01*
X129827342Y-137067262D02*
X129726327Y-137033590D01*
X129591640Y-136898903D01*
X129557968Y-136797888D01*
X129591640Y-136696873D01*
X129625312Y-136663201D01*
X129726327Y-136629529D01*
X129827342Y-136663201D01*
X129928358Y-136764216D01*
X130029373Y-136797888D01*
X130130388Y-136764216D01*
X130164060Y-136730545D01*
X130197732Y-136629529D01*
X130164060Y-136528514D01*
X130063045Y-136427499D01*
X129962029Y-136393827D01*
X129086564Y-136393827D02*
X129187579Y-136427499D01*
X129254923Y-136427499D01*
X129355938Y-136393827D01*
X129557968Y-136191797D01*
X129591640Y-136090781D01*
X129591640Y-136023438D01*
X129557968Y-135922423D01*
X129456953Y-135821407D01*
X129355938Y-135787736D01*
X129288594Y-135787736D01*
X129187579Y-135821407D01*
X128985549Y-136023438D01*
X128951877Y-136124453D01*
X128951877Y-136191797D01*
X128985549Y-136292812D01*
X129086564Y-136393827D01*
X128446801Y-135754064D02*
X128547816Y-135787736D01*
X128648831Y-135754064D01*
X129254923Y-135147972D01*
X127874381Y-135181644D02*
X128581488Y-134474537D01*
X127908053Y-135147972D02*
X127941724Y-135248988D01*
X128076411Y-135383675D01*
X128177427Y-135417346D01*
X128244770Y-135417346D01*
X128345785Y-135383675D01*
X128547816Y-135181644D01*
X128581488Y-135080629D01*
X128581488Y-135013285D01*
X128547816Y-134912270D01*
X128413129Y-134777583D01*
X128312114Y-134743911D01*
X127301961Y-134541881D02*
X127335633Y-134642896D01*
X127470320Y-134777583D01*
X127571335Y-134811255D01*
X127672350Y-134777583D01*
X127941724Y-134508209D01*
X127975396Y-134407194D01*
X127941724Y-134306179D01*
X127807037Y-134171492D01*
X127706022Y-134137820D01*
X127605007Y-134171492D01*
X127537663Y-134238835D01*
X127807037Y-134642896D01*
X126931572Y-134238835D02*
X127402976Y-133767431D01*
X127268289Y-133902118D02*
X127301961Y-133801102D01*
X127301961Y-133733759D01*
X127268289Y-133632744D01*
X127200946Y-133565400D01*
X126022435Y-133262354D02*
X125921419Y-133228683D01*
X125786732Y-133093996D01*
X125753061Y-132992980D01*
X125786732Y-132891965D01*
X125820404Y-132858293D01*
X125921419Y-132824622D01*
X126022435Y-132858293D01*
X126123450Y-132959309D01*
X126224465Y-132992980D01*
X126325480Y-132959309D01*
X126359152Y-132925637D01*
X126392824Y-132824622D01*
X126359152Y-132723606D01*
X126258137Y-132622591D01*
X126157122Y-132588919D01*
X125921419Y-132285874D02*
X125315328Y-132622591D01*
X125517358Y-132151187D01*
X125045954Y-132353217D01*
X125382671Y-131747125D01*
X124641893Y-131949156D02*
X125113297Y-131477751D01*
X125349000Y-131242049D02*
X125349000Y-131309393D01*
X125281656Y-131309393D01*
X125281656Y-131242049D01*
X125349000Y-131242049D01*
X125281656Y-131309393D01*
X124877595Y-131242049D02*
X124608221Y-130972675D01*
X125012282Y-130905332D02*
X124406190Y-131511423D01*
X124305175Y-131545095D01*
X124204160Y-131511423D01*
X124136816Y-131444080D01*
X123631740Y-130871660D02*
X123665412Y-130972675D01*
X123800099Y-131107362D01*
X123901114Y-131141034D01*
X123968458Y-131141034D01*
X124069473Y-131107362D01*
X124271503Y-130905332D01*
X124305175Y-130804316D01*
X124305175Y-130736973D01*
X124271503Y-130635958D01*
X124136816Y-130501271D01*
X124035801Y-130467599D01*
X123295023Y-130602286D02*
X124002129Y-129895179D01*
X122991977Y-130299240D02*
X123362366Y-129928851D01*
X123463381Y-129895179D01*
X123564397Y-129928851D01*
X123665412Y-130029866D01*
X123699084Y-130130881D01*
X123699084Y-130198225D01*
X122688931Y-129053385D02*
X122419557Y-128784011D01*
X122116511Y-129423775D02*
X122722603Y-128817683D01*
X122756275Y-128716668D01*
X122722603Y-128615653D01*
X122655259Y-128548309D01*
X121712450Y-129019714D02*
X122183855Y-128548309D01*
X122419557Y-128312607D02*
X122419557Y-128379950D01*
X122352214Y-128379950D01*
X122352214Y-128312607D01*
X122419557Y-128312607D01*
X122352214Y-128379950D01*
X121375733Y-128682996D02*
X121847137Y-128211592D01*
X121712450Y-128346279D02*
X121746122Y-128245263D01*
X121746122Y-128177920D01*
X121712450Y-128076905D01*
X121645107Y-128009561D01*
X121005344Y-128245263D02*
X120904328Y-128211592D01*
X120769641Y-128076905D01*
X120735970Y-127975889D01*
X120769641Y-127874874D01*
X120803313Y-127841202D01*
X120904328Y-127807531D01*
X121005344Y-127841202D01*
X121106359Y-127942218D01*
X121207374Y-127975889D01*
X121308389Y-127942218D01*
X121342061Y-127908546D01*
X121375733Y-127807531D01*
X121342061Y-127706515D01*
X121241046Y-127605500D01*
X121140031Y-127571828D01*
X120938000Y-127302454D02*
X120668626Y-127033080D01*
X121072687Y-126965737D02*
X120466596Y-127571828D01*
X120365580Y-127605500D01*
X120264565Y-127571828D01*
X120197222Y-127504485D01*
X119759489Y-127605500D02*
X119759489Y-127538157D01*
X119793161Y-127369798D01*
X119826832Y-127268783D01*
X119894176Y-127134096D01*
X120028863Y-126932065D01*
X120163550Y-126797378D01*
X120365580Y-126662691D01*
X120500267Y-126595348D01*
X120601283Y-126561676D01*
X120769641Y-126528004D01*
X120836985Y-126528004D01*
D12*
X110460961Y-115553051D02*
X111033381Y-116125471D01*
X111067052Y-116226486D01*
X111067052Y-116293829D01*
X111033381Y-116394845D01*
X110898694Y-116529532D01*
X110797678Y-116563203D01*
X110730335Y-116563203D01*
X110629320Y-116529532D01*
X110056900Y-115957112D01*
X110427289Y-116933593D02*
X110359946Y-117068280D01*
X110191587Y-117236639D01*
X110090572Y-117270310D01*
X110023228Y-117270310D01*
X109922213Y-117236639D01*
X109854869Y-117169295D01*
X109821197Y-117068280D01*
X109821197Y-117000936D01*
X109854869Y-116899921D01*
X109955885Y-116731562D01*
X109989556Y-116630547D01*
X109989556Y-116563203D01*
X109955885Y-116462188D01*
X109888541Y-116394845D01*
X109787526Y-116361173D01*
X109720182Y-116361173D01*
X109619167Y-116394845D01*
X109450808Y-116563203D01*
X109383465Y-116697890D01*
X109147762Y-117539684D02*
X109080419Y-117674371D01*
X109080419Y-117741715D01*
X109114091Y-117842730D01*
X109215106Y-117943745D01*
X109316121Y-117977417D01*
X109383465Y-117977417D01*
X109484480Y-117943745D01*
X109753854Y-117674371D01*
X109046747Y-116967265D01*
X108811045Y-117202967D01*
X108777373Y-117303982D01*
X108777373Y-117371326D01*
X108811045Y-117472341D01*
X108878388Y-117539684D01*
X108979404Y-117573356D01*
X109046747Y-117573356D01*
X109147762Y-117539684D01*
X109383465Y-117303982D01*
D11*
X75564904Y-124376380D02*
X75564904Y-125185904D01*
X75517285Y-125281142D01*
X75469666Y-125328761D01*
X75374428Y-125376380D01*
X75183952Y-125376380D01*
X75088714Y-125328761D01*
X75041095Y-125281142D01*
X74993476Y-125185904D01*
X74993476Y-124376380D01*
X73993476Y-125376380D02*
X74564904Y-125376380D01*
X74279190Y-125376380D02*
X74279190Y-124376380D01*
X74374428Y-124519238D01*
X74469666Y-124614476D01*
X74564904Y-124662095D01*
X74255380Y-132096380D02*
X74255380Y-132763047D01*
X75255380Y-132334476D01*
X74588714Y-133572571D02*
X75255380Y-133572571D01*
X74207761Y-133334476D02*
X74922047Y-133096380D01*
X74922047Y-133715428D01*
X75255380Y-134096380D02*
X74255380Y-134096380D01*
X74731571Y-134096380D02*
X74731571Y-134667809D01*
X75255380Y-134667809D02*
X74255380Y-134667809D01*
X75160142Y-135715428D02*
X75207761Y-135667809D01*
X75255380Y-135524952D01*
X75255380Y-135429714D01*
X75207761Y-135286857D01*
X75112523Y-135191619D01*
X75017285Y-135144000D01*
X74826809Y-135096380D01*
X74683952Y-135096380D01*
X74493476Y-135144000D01*
X74398238Y-135191619D01*
X74303000Y-135286857D01*
X74255380Y-135429714D01*
X74255380Y-135524952D01*
X74303000Y-135667809D01*
X74350619Y-135715428D01*
X74255380Y-136620190D02*
X74255380Y-136144000D01*
X74731571Y-136096380D01*
X74683952Y-136144000D01*
X74636333Y-136239238D01*
X74636333Y-136477333D01*
X74683952Y-136572571D01*
X74731571Y-136620190D01*
X74826809Y-136667809D01*
X75064904Y-136667809D01*
X75160142Y-136620190D01*
X75207761Y-136572571D01*
X75255380Y-136477333D01*
X75255380Y-136239238D01*
X75207761Y-136144000D01*
X75160142Y-136096380D01*
X75255380Y-137144000D02*
X75255380Y-137334476D01*
X75207761Y-137429714D01*
X75160142Y-137477333D01*
X75017285Y-137572571D01*
X74826809Y-137620190D01*
X74445857Y-137620190D01*
X74350619Y-137572571D01*
X74303000Y-137524952D01*
X74255380Y-137429714D01*
X74255380Y-137239238D01*
X74303000Y-137144000D01*
X74350619Y-137096380D01*
X74445857Y-137048761D01*
X74683952Y-137048761D01*
X74779190Y-137096380D01*
X74826809Y-137144000D01*
X74874428Y-137239238D01*
X74874428Y-137429714D01*
X74826809Y-137524952D01*
X74779190Y-137572571D01*
X74683952Y-137620190D01*
X74255380Y-138524952D02*
X74255380Y-138048761D01*
X74731571Y-138001142D01*
X74683952Y-138048761D01*
X74636333Y-138144000D01*
X74636333Y-138382095D01*
X74683952Y-138477333D01*
X74731571Y-138524952D01*
X74826809Y-138572571D01*
X75064904Y-138572571D01*
X75160142Y-138524952D01*
X75207761Y-138477333D01*
X75255380Y-138382095D01*
X75255380Y-138144000D01*
X75207761Y-138048761D01*
X75160142Y-138001142D01*
X75350619Y-138763047D02*
X75350619Y-139524952D01*
X75255380Y-140239238D02*
X75255380Y-139763047D01*
X74255380Y-139763047D01*
X88772904Y-124439880D02*
X88772904Y-125249404D01*
X88725285Y-125344642D01*
X88677666Y-125392261D01*
X88582428Y-125439880D01*
X88391952Y-125439880D01*
X88296714Y-125392261D01*
X88249095Y-125344642D01*
X88201476Y-125249404D01*
X88201476Y-124439880D01*
X87772904Y-124535119D02*
X87725285Y-124487500D01*
X87630047Y-124439880D01*
X87391952Y-124439880D01*
X87296714Y-124487500D01*
X87249095Y-124535119D01*
X87201476Y-124630357D01*
X87201476Y-124725595D01*
X87249095Y-124868452D01*
X87820523Y-125439880D01*
X87201476Y-125439880D01*
X87463380Y-132001142D02*
X87463380Y-132667809D01*
X88463380Y-132239238D01*
X87796714Y-133477333D02*
X88463380Y-133477333D01*
X87415761Y-133239238D02*
X88130047Y-133001142D01*
X88130047Y-133620190D01*
X88463380Y-134001142D02*
X87463380Y-134001142D01*
X87939571Y-134001142D02*
X87939571Y-134572571D01*
X88463380Y-134572571D02*
X87463380Y-134572571D01*
X88368142Y-135620190D02*
X88415761Y-135572571D01*
X88463380Y-135429714D01*
X88463380Y-135334476D01*
X88415761Y-135191619D01*
X88320523Y-135096380D01*
X88225285Y-135048761D01*
X88034809Y-135001142D01*
X87891952Y-135001142D01*
X87701476Y-135048761D01*
X87606238Y-135096380D01*
X87511000Y-135191619D01*
X87463380Y-135334476D01*
X87463380Y-135429714D01*
X87511000Y-135572571D01*
X87558619Y-135620190D01*
X87463380Y-136524952D02*
X87463380Y-136048761D01*
X87939571Y-136001142D01*
X87891952Y-136048761D01*
X87844333Y-136144000D01*
X87844333Y-136382095D01*
X87891952Y-136477333D01*
X87939571Y-136524952D01*
X88034809Y-136572571D01*
X88272904Y-136572571D01*
X88368142Y-136524952D01*
X88415761Y-136477333D01*
X88463380Y-136382095D01*
X88463380Y-136144000D01*
X88415761Y-136048761D01*
X88368142Y-136001142D01*
X88463380Y-137048761D02*
X88463380Y-137239238D01*
X88415761Y-137334476D01*
X88368142Y-137382095D01*
X88225285Y-137477333D01*
X88034809Y-137524952D01*
X87653857Y-137524952D01*
X87558619Y-137477333D01*
X87511000Y-137429714D01*
X87463380Y-137334476D01*
X87463380Y-137144000D01*
X87511000Y-137048761D01*
X87558619Y-137001142D01*
X87653857Y-136953523D01*
X87891952Y-136953523D01*
X87987190Y-137001142D01*
X88034809Y-137048761D01*
X88082428Y-137144000D01*
X88082428Y-137334476D01*
X88034809Y-137429714D01*
X87987190Y-137477333D01*
X87891952Y-137524952D01*
X87463380Y-138429714D02*
X87463380Y-137953523D01*
X87939571Y-137905904D01*
X87891952Y-137953523D01*
X87844333Y-138048761D01*
X87844333Y-138286857D01*
X87891952Y-138382095D01*
X87939571Y-138429714D01*
X88034809Y-138477333D01*
X88272904Y-138477333D01*
X88368142Y-138429714D01*
X88415761Y-138382095D01*
X88463380Y-138286857D01*
X88463380Y-138048761D01*
X88415761Y-137953523D01*
X88368142Y-137905904D01*
X88558619Y-138667809D02*
X88558619Y-139429714D01*
X88463380Y-140239238D02*
X87987190Y-139905904D01*
X88463380Y-139667809D02*
X87463380Y-139667809D01*
X87463380Y-140048761D01*
X87511000Y-140144000D01*
X87558619Y-140191619D01*
X87653857Y-140239238D01*
X87796714Y-140239238D01*
X87891952Y-140191619D01*
X87939571Y-140144000D01*
X87987190Y-140048761D01*
X87987190Y-139667809D01*
M02*
