G04 #@! TF.GenerationSoftware,KiCad,Pcbnew,(5.1.5)-3*
G04 #@! TF.CreationDate,2020-10-16T01:56:22+02:00*
G04 #@! TF.ProjectId,Christmas C,43687269-7374-46d6-9173-20432e6b6963,rev?*
G04 #@! TF.SameCoordinates,Original*
G04 #@! TF.FileFunction,Copper,L2,Bot*
G04 #@! TF.FilePolarity,Positive*
%FSLAX46Y46*%
G04 Gerber Fmt 4.6, Leading zero omitted, Abs format (unit mm)*
G04 Created by KiCad (PCBNEW (5.1.5)-3) date 2020-10-16 01:56:22*
%MOMM*%
%LPD*%
G04 APERTURE LIST*
%ADD10C,0.100000*%
%ADD11C,1.600000*%
%ADD12O,1.700000X1.700000*%
%ADD13R,1.700000X1.700000*%
%ADD14C,1.700000*%
%ADD15C,2.000000*%
%ADD16O,2.400000X1.600000*%
%ADD17R,2.400000X1.600000*%
%ADD18C,5.000000*%
%ADD19C,0.800000*%
%ADD20C,0.250000*%
%ADD21C,0.381000*%
G04 APERTURE END LIST*
G04 #@! TA.AperFunction,ComponentPad*
D10*
G36*
X140462000Y-138632129D02*
G01*
X141593371Y-139763500D01*
X140462000Y-140894871D01*
X139330629Y-139763500D01*
X140462000Y-138632129D01*
G37*
G04 #@! TD.AperFunction*
D11*
X106337027Y-127191141D02*
X106337027Y-127191141D01*
X138665949Y-137967449D02*
X138665949Y-137967449D01*
X108133078Y-128987193D02*
X108133078Y-128987193D01*
X136869898Y-136171398D02*
X136869898Y-136171398D01*
X109929129Y-130783244D02*
X109929129Y-130783244D01*
X135073846Y-134375346D02*
X135073846Y-134375346D01*
X111725180Y-132579295D02*
X111725180Y-132579295D01*
X133277795Y-132579295D02*
X133277795Y-132579295D01*
X113521232Y-134375346D02*
X113521232Y-134375346D01*
X131481744Y-130783244D02*
X131481744Y-130783244D01*
X115317283Y-136171398D02*
X115317283Y-136171398D01*
X129685693Y-128987193D02*
X129685693Y-128987193D01*
X117113334Y-137967449D02*
X117113334Y-137967449D01*
X127889641Y-127191141D02*
X127889641Y-127191141D01*
X118909385Y-139763500D02*
X118909385Y-139763500D01*
X126093590Y-125395090D02*
X126093590Y-125395090D01*
X120705437Y-141559551D02*
X120705437Y-141559551D01*
X124297539Y-123599039D02*
X124297539Y-123599039D01*
X122501488Y-143355602D02*
X122501488Y-143355602D01*
X122501488Y-121802988D02*
X122501488Y-121802988D01*
X124297539Y-145151654D02*
X124297539Y-145151654D01*
X120705437Y-120006937D02*
X120705437Y-120006937D01*
X126093590Y-146947705D02*
X126093590Y-146947705D01*
X118909385Y-118210885D02*
X118909385Y-118210885D01*
X127889641Y-148743756D02*
X127889641Y-148743756D01*
X117113334Y-116414834D02*
X117113334Y-116414834D01*
X129685693Y-150539807D02*
X129685693Y-150539807D01*
X115317283Y-114618783D02*
X115317283Y-114618783D01*
X104540976Y-125395090D02*
X104540976Y-125395090D01*
D12*
X91567000Y-152844500D03*
X94107000Y-152844500D03*
X96647000Y-152844500D03*
X99187000Y-152844500D03*
D13*
X101727000Y-152844500D03*
D12*
X117983000Y-148336000D03*
X115443000Y-148336000D03*
X112903000Y-148336000D03*
X110363000Y-148336000D03*
D13*
X107823000Y-148336000D03*
X106934000Y-153733500D03*
D12*
X106934000Y-156273500D03*
X106934000Y-158813500D03*
X106934000Y-161353500D03*
X106934000Y-163893500D03*
X102616000Y-137477500D03*
X102616000Y-140017500D03*
X102616000Y-142557500D03*
X102616000Y-145097500D03*
D13*
X102616000Y-147637500D03*
D14*
X132733051Y-124795551D02*
X132733051Y-124795551D01*
G04 #@! TA.AperFunction,ComponentPad*
D10*
G36*
X130937000Y-121797418D02*
G01*
X132139082Y-122999500D01*
X130937000Y-124201582D01*
X129734918Y-122999500D01*
X130937000Y-121797418D01*
G37*
G04 #@! TD.AperFunction*
D15*
X123468194Y-129769806D03*
X126650175Y-132951786D03*
X118872000Y-134366000D03*
X122053981Y-137547981D03*
D16*
X76327000Y-125349000D03*
X83947000Y-143129000D03*
X76327000Y-127889000D03*
X83947000Y-140589000D03*
X76327000Y-130429000D03*
X83947000Y-138049000D03*
X76327000Y-132969000D03*
X83947000Y-135509000D03*
X76327000Y-135509000D03*
X83947000Y-132969000D03*
X76327000Y-138049000D03*
X83947000Y-130429000D03*
X76327000Y-140589000D03*
X83947000Y-127889000D03*
X76327000Y-143129000D03*
D17*
X83947000Y-125349000D03*
X97155000Y-125412500D03*
D16*
X89535000Y-143192500D03*
X97155000Y-127952500D03*
X89535000Y-140652500D03*
X97155000Y-130492500D03*
X89535000Y-138112500D03*
X97155000Y-133032500D03*
X89535000Y-135572500D03*
X97155000Y-135572500D03*
X89535000Y-133032500D03*
X97155000Y-138112500D03*
X89535000Y-130492500D03*
X97155000Y-140652500D03*
X89535000Y-127952500D03*
X97155000Y-143192500D03*
X89535000Y-125412500D03*
D18*
X135191500Y-120269000D03*
X74358500Y-181102000D03*
X74358500Y-120269000D03*
X135191500Y-181102000D03*
D19*
X86448900Y-140639800D03*
X91313000Y-126707900D03*
X110769400Y-143598900D03*
X106337100Y-143116300D03*
X98767900Y-136855200D03*
X93116400Y-138112500D03*
X111760000Y-166370000D03*
X107315000Y-166279990D03*
X111721900Y-142862300D03*
X107062110Y-142157529D03*
X93091000Y-135585200D03*
X98806000Y-134327900D03*
X108585000Y-146049992D03*
X78740000Y-132080000D03*
X78740000Y-135255000D03*
X78740000Y-137795008D03*
X78740000Y-139700000D03*
D20*
X123053980Y-136547981D02*
X126650175Y-132951786D01*
X122053981Y-137547981D02*
X123053980Y-136547981D01*
X126650175Y-130460175D02*
X120705437Y-124515437D01*
X126650175Y-132951786D02*
X126650175Y-130460175D01*
X120705437Y-124515437D02*
X120705437Y-120006937D01*
D21*
X130175000Y-123761500D02*
X130937000Y-122999500D01*
X138693346Y-145151654D02*
X142875000Y-140970000D01*
X130175000Y-125095000D02*
X130175000Y-123761500D01*
X124297539Y-145151654D02*
X138693346Y-145151654D01*
X142875000Y-140970000D02*
X142875000Y-137795000D01*
X142875000Y-137795000D02*
X130175000Y-125095000D01*
X76327000Y-124168000D02*
X76327000Y-125349000D01*
X83185000Y-117475000D02*
X76327000Y-124168000D01*
X83814452Y-116834452D02*
X83814452Y-122549452D01*
X83814452Y-116834452D02*
X83185000Y-117475000D01*
X83814452Y-122549452D02*
X84455000Y-123190000D01*
X89535000Y-123825000D02*
X89535000Y-125412500D01*
X88900000Y-123190000D02*
X89535000Y-123825000D01*
X84455000Y-123190000D02*
X86360000Y-123190000D01*
X86360000Y-123190000D02*
X88900000Y-123190000D01*
D20*
X86448900Y-123278900D02*
X86448900Y-140074115D01*
X86448900Y-140074115D02*
X86448900Y-140639800D01*
X86360000Y-123190000D02*
X86448900Y-123278900D01*
D21*
X89612804Y-111036100D02*
X83814452Y-116834452D01*
X118960900Y-111036100D02*
X89612804Y-111036100D01*
X130937000Y-122999500D02*
X130335959Y-122398459D01*
X130323259Y-122398459D02*
X118960900Y-111036100D01*
X130335959Y-122398459D02*
X130323259Y-122398459D01*
D20*
X91313000Y-112966500D02*
X91313000Y-126707900D01*
X123304300Y-121000176D02*
X123304300Y-119087900D01*
X123304300Y-119087900D02*
X116370100Y-112153700D01*
X122501488Y-121802988D02*
X123304300Y-121000176D01*
X116370100Y-112153700D02*
X92125800Y-112153700D01*
X92125800Y-112153700D02*
X91313000Y-112966500D01*
X129685693Y-134506395D02*
X120593188Y-143598900D01*
X129685693Y-128987193D02*
X129685693Y-134506395D01*
X120593188Y-143598900D02*
X115404900Y-143598900D01*
X115404900Y-143598900D02*
X110769400Y-143598900D01*
X92550715Y-138112500D02*
X89535000Y-138112500D01*
X93116400Y-138112500D02*
X92550715Y-138112500D01*
X106337100Y-143116300D02*
X106337100Y-135343900D01*
X100838000Y-134785100D02*
X98767900Y-136855200D01*
X105778300Y-134785100D02*
X100838000Y-134785100D01*
X106337100Y-135343900D02*
X105778300Y-134785100D01*
X122555000Y-144967092D02*
X122555000Y-155575000D01*
X122555000Y-155575000D02*
X112159999Y-165970001D01*
X112159999Y-165970001D02*
X111760000Y-166370000D01*
X131481744Y-130783244D02*
X131481744Y-136040348D01*
X131481744Y-136040348D02*
X122555000Y-144967092D01*
X101727000Y-164522685D02*
X103484305Y-166279990D01*
X103484305Y-166279990D02*
X106749315Y-166279990D01*
X101727000Y-152844500D02*
X101727000Y-164522685D01*
X106749315Y-166279990D02*
X107315000Y-166279990D01*
X133277795Y-132579295D02*
X133277795Y-129607495D01*
X129145692Y-127862192D02*
X128346200Y-128661684D01*
X133277795Y-129607495D02*
X131532492Y-127862192D01*
X131532492Y-127862192D02*
X129145692Y-127862192D01*
X128346200Y-128661684D02*
X128346200Y-134340600D01*
X119903337Y-140434550D02*
X117475587Y-142862300D01*
X128346200Y-134340600D02*
X122252250Y-140434550D01*
X122252250Y-140434550D02*
X119903337Y-140434550D01*
X117475587Y-142862300D02*
X111721900Y-142862300D01*
X89535000Y-135572500D02*
X93078300Y-135572500D01*
X93078300Y-135572500D02*
X93091000Y-135585200D01*
X107062110Y-136970610D02*
X107062110Y-142157529D01*
X107062110Y-134951310D02*
X107062110Y-136970610D01*
X106057700Y-133946900D02*
X107062110Y-134951310D01*
X98806000Y-134327900D02*
X99187000Y-133946900D01*
X99187000Y-133946900D02*
X106057700Y-133946900D01*
X91567000Y-154178000D02*
X91567000Y-152844500D01*
X82497000Y-130429000D02*
X81915000Y-131011000D01*
X90805000Y-154940000D02*
X91567000Y-154178000D01*
X83947000Y-130429000D02*
X82497000Y-130429000D01*
X89535000Y-154940000D02*
X90805000Y-154940000D01*
X81915000Y-131011000D02*
X81915000Y-147320000D01*
X81915000Y-147320000D02*
X89535000Y-154940000D01*
X94107000Y-154813000D02*
X94107000Y-152844500D01*
X93345000Y-155575000D02*
X94107000Y-154813000D01*
X82497000Y-127889000D02*
X81280000Y-129106000D01*
X83947000Y-127889000D02*
X82497000Y-127889000D01*
X81280000Y-129106000D02*
X81280000Y-147955000D01*
X81280000Y-147955000D02*
X88900000Y-155575000D01*
X88900000Y-155575000D02*
X93345000Y-155575000D01*
X95885000Y-156210000D02*
X96647000Y-155448000D01*
X80645000Y-148590000D02*
X88265000Y-156210000D01*
X96647000Y-155448000D02*
X96647000Y-152844500D01*
X81026000Y-125349000D02*
X80645000Y-125730000D01*
X83947000Y-125349000D02*
X81026000Y-125349000D01*
X80645000Y-125730000D02*
X80645000Y-148590000D01*
X88265000Y-156210000D02*
X95885000Y-156210000D01*
X99187000Y-154046581D02*
X99187000Y-152844500D01*
X79629000Y-127889000D02*
X80010000Y-128270000D01*
X76327000Y-127889000D02*
X79629000Y-127889000D01*
X80010000Y-128270000D02*
X80010000Y-149225000D01*
X96388581Y-156845000D02*
X99187000Y-154046581D01*
X80010000Y-149225000D02*
X87630000Y-156845000D01*
X87630000Y-156845000D02*
X96388581Y-156845000D01*
X108585000Y-133032500D02*
X108585000Y-145484307D01*
X97155000Y-130492500D02*
X106045000Y-130492500D01*
X108585000Y-145484307D02*
X108585000Y-146049992D01*
X106045000Y-130492500D02*
X108585000Y-133032500D01*
X109855000Y-144716500D02*
X112903000Y-147764500D01*
X109855000Y-132676900D02*
X109855000Y-144716500D01*
X97155000Y-127952500D02*
X105130600Y-127952500D01*
X112903000Y-147764500D02*
X112903000Y-148336000D01*
X105130600Y-127952500D02*
X109855000Y-132676900D01*
X110363000Y-147133919D02*
X110363000Y-148336000D01*
X110363000Y-146559410D02*
X110363000Y-147133919D01*
X109220000Y-132854700D02*
X109220000Y-145416410D01*
X109220000Y-145416410D02*
X110363000Y-146559410D01*
X105732790Y-129367490D02*
X109220000Y-132854700D01*
X95705000Y-125412500D02*
X94615000Y-126502500D01*
X94615000Y-128270000D02*
X95712490Y-129367490D01*
X97155000Y-125412500D02*
X95705000Y-125412500D01*
X94615000Y-126502500D02*
X94615000Y-128270000D01*
X95712490Y-129367490D02*
X105732790Y-129367490D01*
X90985000Y-127952500D02*
X89535000Y-127952500D01*
X92075000Y-129042500D02*
X90985000Y-127952500D01*
X107823000Y-133108700D02*
X106621790Y-131907490D01*
X107823000Y-148336000D02*
X107823000Y-133108700D01*
X92075000Y-131445000D02*
X92075000Y-129042500D01*
X106621790Y-131907490D02*
X92537490Y-131907490D01*
X92537490Y-131907490D02*
X92075000Y-131445000D01*
X110490000Y-168275000D02*
X110490000Y-158019750D01*
X94615000Y-168910000D02*
X109855000Y-168910000D01*
X78340001Y-131680001D02*
X73424999Y-131680001D01*
X110490000Y-158019750D02*
X108743750Y-156273500D01*
X78740000Y-132080000D02*
X78340001Y-131680001D01*
X109855000Y-168910000D02*
X110490000Y-168275000D01*
X73424999Y-131680001D02*
X72390000Y-132715000D01*
X72390000Y-132715000D02*
X72390000Y-146685000D01*
X108743750Y-156273500D02*
X106934000Y-156273500D01*
X72390000Y-146685000D02*
X94615000Y-168910000D01*
X109855000Y-160655000D02*
X108013500Y-158813500D01*
X109855000Y-167640000D02*
X109855000Y-160655000D01*
X95250000Y-168275000D02*
X109220000Y-168275000D01*
X77868990Y-134383990D02*
X73896010Y-134383990D01*
X109220000Y-168275000D02*
X109855000Y-167640000D01*
X78740000Y-135255000D02*
X77868990Y-134383990D01*
X108013500Y-158813500D02*
X106934000Y-158813500D01*
X73025000Y-146050000D02*
X95250000Y-168275000D01*
X73896010Y-134383990D02*
X73025000Y-135255000D01*
X73025000Y-135255000D02*
X73025000Y-146050000D01*
X78340001Y-137395009D02*
X78740000Y-137795008D01*
X73660000Y-137160000D02*
X74060019Y-136759981D01*
X73660000Y-145415000D02*
X73660000Y-137160000D01*
X77704973Y-136759981D02*
X78340001Y-137395009D01*
X109220000Y-163639500D02*
X109220000Y-167005000D01*
X74060019Y-136759981D02*
X77704973Y-136759981D01*
X106934000Y-161353500D02*
X109220000Y-163639500D01*
X109220000Y-167005000D02*
X108585000Y-167640000D01*
X108585000Y-167640000D02*
X95885000Y-167640000D01*
X95885000Y-167640000D02*
X73660000Y-145415000D01*
X108458000Y-166497000D02*
X108458000Y-164465000D01*
X107950000Y-167005000D02*
X108458000Y-166497000D01*
X107886500Y-163893500D02*
X106934000Y-163893500D01*
X96520000Y-167005000D02*
X107950000Y-167005000D01*
X78340001Y-139300001D02*
X74694999Y-139300001D01*
X74694999Y-139300001D02*
X74295000Y-139700000D01*
X108458000Y-164465000D02*
X107886500Y-163893500D01*
X74295000Y-139700000D02*
X74295000Y-144780000D01*
X78740000Y-139700000D02*
X78340001Y-139300001D01*
X74295000Y-144780000D02*
X96520000Y-167005000D01*
X101981000Y-140652500D02*
X102616000Y-140017500D01*
X97155000Y-140652500D02*
X101981000Y-140652500D01*
X101413919Y-142557500D02*
X102616000Y-142557500D01*
X100923909Y-142067490D02*
X101413919Y-142557500D01*
X95705000Y-138112500D02*
X95250000Y-138567500D01*
X95250000Y-141605000D02*
X95712490Y-142067490D01*
X97155000Y-138112500D02*
X95705000Y-138112500D01*
X95250000Y-138567500D02*
X95250000Y-141605000D01*
X95712490Y-142067490D02*
X100923909Y-142067490D01*
X94615000Y-136525000D02*
X95567500Y-135572500D01*
X94615000Y-144145000D02*
X94615000Y-136525000D01*
X102616000Y-145097500D02*
X95567500Y-145097500D01*
X95567500Y-135572500D02*
X97155000Y-135572500D01*
X95567500Y-145097500D02*
X94615000Y-144145000D01*
X93980000Y-133985000D02*
X94932500Y-133032500D01*
X93980000Y-146685000D02*
X93980000Y-133985000D01*
X102616000Y-147637500D02*
X94932500Y-147637500D01*
X94932500Y-133032500D02*
X97155000Y-133032500D01*
X94932500Y-147637500D02*
X93980000Y-146685000D01*
M02*
