M48
; DRILL file {KiCad (5.1.5)-3} date 31/10/2020 02:17:26
; FORMAT={2:4/ absolute / inch / suppress leading zeros}
; #@! TF.CreationDate,2020-10-31T02:17:26+01:00
; #@! TF.GenerationSoftware,Kicad,Pcbnew,(5.1.5)-3
FMAT,2
INCH,TZ
T1C0.0157
T2C0.0315
T3C0.0394
T4C0.0433
T5C0.1200
%
G90
G05
T1
X28900Y-52750
X28900Y-54000
X28900Y-55000
X28900Y-55750
X31935Y-56120
X33850Y-50635
X34550Y-54130
X34560Y-55125
X36900Y-53600
X37100Y-54100
X37800Y-51850
X41865Y-55965
X42150Y-55600
X44100Y-55975
X44550Y-56300
T2
X27950Y-50100
X27950Y-51100
X27950Y-52100
X27950Y-53100
X27950Y-54100
X27950Y-55100
X27950Y-56100
X27950Y-57100
X30950Y-50100
X30950Y-51100
X30950Y-52100
X30950Y-53100
X30950Y-54100
X30950Y-55100
X30950Y-56100
X30950Y-57100
X41876Y-48826
X42583Y-49533
X43290Y-50240
X43997Y-50947
X44704Y-51654
X45411Y-52361
X46118Y-44583
X46118Y-53068
X46825Y-45290
X46825Y-53775
X47532Y-45997
X47532Y-54482
X48239Y-46704
X48239Y-55189
X48947Y-47411
X48947Y-55897
X49654Y-48118
X49654Y-56604
X50361Y-48826
X50361Y-57311
X51068Y-49533
X51068Y-58018
X51775Y-50240
X51775Y-58725
X52482Y-50947
X53189Y-51654
X53896Y-52361
X54603Y-53068
X55311Y-53775
X56018Y-54482
X33150Y-50125
X33150Y-51125
X33150Y-52125
X33150Y-53125
X33150Y-54125
X33150Y-55125
X33150Y-56125
X33150Y-57125
X36150Y-50125
X36150Y-51125
X36150Y-52125
X36150Y-53125
X36150Y-54125
X36150Y-55125
X36150Y-56125
X36150Y-57125
T3
X33900Y-45900
X34900Y-45900
X43150Y-60550
X43150Y-61550
X43150Y-62550
X43150Y-63550
X43150Y-64550
X42450Y-57425
X43450Y-57425
X44450Y-57425
X45450Y-57425
X46450Y-57425
X36050Y-61225
X37050Y-61225
X38050Y-61225
X39050Y-61225
X40050Y-61225
X39350Y-54100
X39350Y-55100
X39350Y-56100
X39350Y-57100
X39350Y-58100
T4
X47825Y-52250
X49078Y-53503
X49635Y-50440
X50887Y-51693
T5
X53225Y-71300
X29275Y-47350
X29275Y-71300
X53225Y-47350
T0
M30
