G04 #@! TF.GenerationSoftware,KiCad,Pcbnew,(5.1.5)-3*
G04 #@! TF.CreationDate,2020-10-31T02:17:23+01:00*
G04 #@! TF.ProjectId,Christmas C,43687269-7374-46d6-9173-20432e6b6963,rev?*
G04 #@! TF.SameCoordinates,Original*
G04 #@! TF.FileFunction,Soldermask,Top*
G04 #@! TF.FilePolarity,Negative*
%FSLAX46Y46*%
G04 Gerber Fmt 4.6, Leading zero omitted, Abs format (unit mm)*
G04 Created by KiCad (PCBNEW (5.1.5)-3) date 2020-10-31 02:17:23*
%MOMM*%
%LPD*%
G04 APERTURE LIST*
%ADD10C,0.100000*%
G04 APERTURE END LIST*
D10*
G36*
X135935598Y-178649033D02*
G01*
X136399850Y-178841332D01*
X136399852Y-178841333D01*
X136817668Y-179120509D01*
X137172991Y-179475832D01*
X137452167Y-179893648D01*
X137452168Y-179893650D01*
X137644467Y-180357902D01*
X137742500Y-180850747D01*
X137742500Y-181353253D01*
X137644467Y-181846098D01*
X137452168Y-182310350D01*
X137452167Y-182310352D01*
X137172991Y-182728168D01*
X136817668Y-183083491D01*
X136399852Y-183362667D01*
X136399851Y-183362668D01*
X136399850Y-183362668D01*
X135935598Y-183554967D01*
X135442753Y-183653000D01*
X134940247Y-183653000D01*
X134447402Y-183554967D01*
X133983150Y-183362668D01*
X133983149Y-183362668D01*
X133983148Y-183362667D01*
X133565332Y-183083491D01*
X133210009Y-182728168D01*
X132930833Y-182310352D01*
X132930832Y-182310350D01*
X132738533Y-181846098D01*
X132640500Y-181353253D01*
X132640500Y-180850747D01*
X132738533Y-180357902D01*
X132930832Y-179893650D01*
X132930833Y-179893648D01*
X133210009Y-179475832D01*
X133565332Y-179120509D01*
X133983148Y-178841333D01*
X133983150Y-178841332D01*
X134447402Y-178649033D01*
X134940247Y-178551000D01*
X135442753Y-178551000D01*
X135935598Y-178649033D01*
G37*
G36*
X75102598Y-178649033D02*
G01*
X75566850Y-178841332D01*
X75566852Y-178841333D01*
X75984668Y-179120509D01*
X76339991Y-179475832D01*
X76619167Y-179893648D01*
X76619168Y-179893650D01*
X76811467Y-180357902D01*
X76909500Y-180850747D01*
X76909500Y-181353253D01*
X76811467Y-181846098D01*
X76619168Y-182310350D01*
X76619167Y-182310352D01*
X76339991Y-182728168D01*
X75984668Y-183083491D01*
X75566852Y-183362667D01*
X75566851Y-183362668D01*
X75566850Y-183362668D01*
X75102598Y-183554967D01*
X74609753Y-183653000D01*
X74107247Y-183653000D01*
X73614402Y-183554967D01*
X73150150Y-183362668D01*
X73150149Y-183362668D01*
X73150148Y-183362667D01*
X72732332Y-183083491D01*
X72377009Y-182728168D01*
X72097833Y-182310352D01*
X72097832Y-182310350D01*
X71905533Y-181846098D01*
X71807500Y-181353253D01*
X71807500Y-180850747D01*
X71905533Y-180357902D01*
X72097832Y-179893650D01*
X72097833Y-179893648D01*
X72377009Y-179475832D01*
X72732332Y-179120509D01*
X73150148Y-178841333D01*
X73150150Y-178841332D01*
X73614402Y-178649033D01*
X74107247Y-178551000D01*
X74609753Y-178551000D01*
X75102598Y-178649033D01*
G37*
G36*
X109714512Y-163060927D02*
G01*
X109863812Y-163090624D01*
X110027784Y-163158544D01*
X110175354Y-163257147D01*
X110300853Y-163382646D01*
X110399456Y-163530216D01*
X110467376Y-163694188D01*
X110502000Y-163868259D01*
X110502000Y-164045741D01*
X110467376Y-164219812D01*
X110399456Y-164383784D01*
X110300853Y-164531354D01*
X110175354Y-164656853D01*
X110027784Y-164755456D01*
X109863812Y-164823376D01*
X109714512Y-164853073D01*
X109689742Y-164858000D01*
X109512258Y-164858000D01*
X109487488Y-164853073D01*
X109338188Y-164823376D01*
X109174216Y-164755456D01*
X109026646Y-164656853D01*
X108901147Y-164531354D01*
X108802544Y-164383784D01*
X108734624Y-164219812D01*
X108700000Y-164045741D01*
X108700000Y-163868259D01*
X108734624Y-163694188D01*
X108802544Y-163530216D01*
X108901147Y-163382646D01*
X109026646Y-163257147D01*
X109174216Y-163158544D01*
X109338188Y-163090624D01*
X109487488Y-163060927D01*
X109512258Y-163056000D01*
X109689742Y-163056000D01*
X109714512Y-163060927D01*
G37*
G36*
X109714512Y-160520927D02*
G01*
X109863812Y-160550624D01*
X110027784Y-160618544D01*
X110175354Y-160717147D01*
X110300853Y-160842646D01*
X110399456Y-160990216D01*
X110467376Y-161154188D01*
X110502000Y-161328259D01*
X110502000Y-161505741D01*
X110467376Y-161679812D01*
X110399456Y-161843784D01*
X110300853Y-161991354D01*
X110175354Y-162116853D01*
X110027784Y-162215456D01*
X109863812Y-162283376D01*
X109714512Y-162313073D01*
X109689742Y-162318000D01*
X109512258Y-162318000D01*
X109487488Y-162313073D01*
X109338188Y-162283376D01*
X109174216Y-162215456D01*
X109026646Y-162116853D01*
X108901147Y-161991354D01*
X108802544Y-161843784D01*
X108734624Y-161679812D01*
X108700000Y-161505741D01*
X108700000Y-161328259D01*
X108734624Y-161154188D01*
X108802544Y-160990216D01*
X108901147Y-160842646D01*
X109026646Y-160717147D01*
X109174216Y-160618544D01*
X109338188Y-160550624D01*
X109487488Y-160520927D01*
X109512258Y-160516000D01*
X109689742Y-160516000D01*
X109714512Y-160520927D01*
G37*
G36*
X109714512Y-157980927D02*
G01*
X109863812Y-158010624D01*
X110027784Y-158078544D01*
X110175354Y-158177147D01*
X110300853Y-158302646D01*
X110399456Y-158450216D01*
X110467376Y-158614188D01*
X110502000Y-158788259D01*
X110502000Y-158965741D01*
X110467376Y-159139812D01*
X110399456Y-159303784D01*
X110300853Y-159451354D01*
X110175354Y-159576853D01*
X110027784Y-159675456D01*
X109863812Y-159743376D01*
X109714512Y-159773073D01*
X109689742Y-159778000D01*
X109512258Y-159778000D01*
X109487488Y-159773073D01*
X109338188Y-159743376D01*
X109174216Y-159675456D01*
X109026646Y-159576853D01*
X108901147Y-159451354D01*
X108802544Y-159303784D01*
X108734624Y-159139812D01*
X108700000Y-158965741D01*
X108700000Y-158788259D01*
X108734624Y-158614188D01*
X108802544Y-158450216D01*
X108901147Y-158302646D01*
X109026646Y-158177147D01*
X109174216Y-158078544D01*
X109338188Y-158010624D01*
X109487488Y-157980927D01*
X109512258Y-157976000D01*
X109689742Y-157976000D01*
X109714512Y-157980927D01*
G37*
G36*
X109714512Y-155440927D02*
G01*
X109863812Y-155470624D01*
X110027784Y-155538544D01*
X110175354Y-155637147D01*
X110300853Y-155762646D01*
X110399456Y-155910216D01*
X110467376Y-156074188D01*
X110502000Y-156248259D01*
X110502000Y-156425741D01*
X110467376Y-156599812D01*
X110399456Y-156763784D01*
X110300853Y-156911354D01*
X110175354Y-157036853D01*
X110027784Y-157135456D01*
X109863812Y-157203376D01*
X109714512Y-157233073D01*
X109689742Y-157238000D01*
X109512258Y-157238000D01*
X109487488Y-157233073D01*
X109338188Y-157203376D01*
X109174216Y-157135456D01*
X109026646Y-157036853D01*
X108901147Y-156911354D01*
X108802544Y-156763784D01*
X108734624Y-156599812D01*
X108700000Y-156425741D01*
X108700000Y-156248259D01*
X108734624Y-156074188D01*
X108802544Y-155910216D01*
X108901147Y-155762646D01*
X109026646Y-155637147D01*
X109174216Y-155538544D01*
X109338188Y-155470624D01*
X109487488Y-155440927D01*
X109512258Y-155436000D01*
X109689742Y-155436000D01*
X109714512Y-155440927D01*
G37*
G36*
X91680512Y-154615427D02*
G01*
X91829812Y-154645124D01*
X91993784Y-154713044D01*
X92141354Y-154811647D01*
X92266853Y-154937146D01*
X92365456Y-155084716D01*
X92433376Y-155248688D01*
X92468000Y-155422759D01*
X92468000Y-155600241D01*
X92433376Y-155774312D01*
X92365456Y-155938284D01*
X92266853Y-156085854D01*
X92141354Y-156211353D01*
X91993784Y-156309956D01*
X91829812Y-156377876D01*
X91680512Y-156407573D01*
X91655742Y-156412500D01*
X91478258Y-156412500D01*
X91453488Y-156407573D01*
X91304188Y-156377876D01*
X91140216Y-156309956D01*
X90992646Y-156211353D01*
X90867147Y-156085854D01*
X90768544Y-155938284D01*
X90700624Y-155774312D01*
X90666000Y-155600241D01*
X90666000Y-155422759D01*
X90700624Y-155248688D01*
X90768544Y-155084716D01*
X90867147Y-154937146D01*
X90992646Y-154811647D01*
X91140216Y-154713044D01*
X91304188Y-154645124D01*
X91453488Y-154615427D01*
X91478258Y-154610500D01*
X91655742Y-154610500D01*
X91680512Y-154615427D01*
G37*
G36*
X102628000Y-156412500D02*
G01*
X100826000Y-156412500D01*
X100826000Y-154610500D01*
X102628000Y-154610500D01*
X102628000Y-156412500D01*
G37*
G36*
X99300512Y-154615427D02*
G01*
X99449812Y-154645124D01*
X99613784Y-154713044D01*
X99761354Y-154811647D01*
X99886853Y-154937146D01*
X99985456Y-155084716D01*
X100053376Y-155248688D01*
X100088000Y-155422759D01*
X100088000Y-155600241D01*
X100053376Y-155774312D01*
X99985456Y-155938284D01*
X99886853Y-156085854D01*
X99761354Y-156211353D01*
X99613784Y-156309956D01*
X99449812Y-156377876D01*
X99300512Y-156407573D01*
X99275742Y-156412500D01*
X99098258Y-156412500D01*
X99073488Y-156407573D01*
X98924188Y-156377876D01*
X98760216Y-156309956D01*
X98612646Y-156211353D01*
X98487147Y-156085854D01*
X98388544Y-155938284D01*
X98320624Y-155774312D01*
X98286000Y-155600241D01*
X98286000Y-155422759D01*
X98320624Y-155248688D01*
X98388544Y-155084716D01*
X98487147Y-154937146D01*
X98612646Y-154811647D01*
X98760216Y-154713044D01*
X98924188Y-154645124D01*
X99073488Y-154615427D01*
X99098258Y-154610500D01*
X99275742Y-154610500D01*
X99300512Y-154615427D01*
G37*
G36*
X96760512Y-154615427D02*
G01*
X96909812Y-154645124D01*
X97073784Y-154713044D01*
X97221354Y-154811647D01*
X97346853Y-154937146D01*
X97445456Y-155084716D01*
X97513376Y-155248688D01*
X97548000Y-155422759D01*
X97548000Y-155600241D01*
X97513376Y-155774312D01*
X97445456Y-155938284D01*
X97346853Y-156085854D01*
X97221354Y-156211353D01*
X97073784Y-156309956D01*
X96909812Y-156377876D01*
X96760512Y-156407573D01*
X96735742Y-156412500D01*
X96558258Y-156412500D01*
X96533488Y-156407573D01*
X96384188Y-156377876D01*
X96220216Y-156309956D01*
X96072646Y-156211353D01*
X95947147Y-156085854D01*
X95848544Y-155938284D01*
X95780624Y-155774312D01*
X95746000Y-155600241D01*
X95746000Y-155422759D01*
X95780624Y-155248688D01*
X95848544Y-155084716D01*
X95947147Y-154937146D01*
X96072646Y-154811647D01*
X96220216Y-154713044D01*
X96384188Y-154645124D01*
X96533488Y-154615427D01*
X96558258Y-154610500D01*
X96735742Y-154610500D01*
X96760512Y-154615427D01*
G37*
G36*
X94220512Y-154615427D02*
G01*
X94369812Y-154645124D01*
X94533784Y-154713044D01*
X94681354Y-154811647D01*
X94806853Y-154937146D01*
X94905456Y-155084716D01*
X94973376Y-155248688D01*
X95008000Y-155422759D01*
X95008000Y-155600241D01*
X94973376Y-155774312D01*
X94905456Y-155938284D01*
X94806853Y-156085854D01*
X94681354Y-156211353D01*
X94533784Y-156309956D01*
X94369812Y-156377876D01*
X94220512Y-156407573D01*
X94195742Y-156412500D01*
X94018258Y-156412500D01*
X93993488Y-156407573D01*
X93844188Y-156377876D01*
X93680216Y-156309956D01*
X93532646Y-156211353D01*
X93407147Y-156085854D01*
X93308544Y-155938284D01*
X93240624Y-155774312D01*
X93206000Y-155600241D01*
X93206000Y-155422759D01*
X93240624Y-155248688D01*
X93308544Y-155084716D01*
X93407147Y-154937146D01*
X93532646Y-154811647D01*
X93680216Y-154713044D01*
X93844188Y-154645124D01*
X93993488Y-154615427D01*
X94018258Y-154610500D01*
X94195742Y-154610500D01*
X94220512Y-154615427D01*
G37*
G36*
X110502000Y-154698000D02*
G01*
X108700000Y-154698000D01*
X108700000Y-152896000D01*
X110502000Y-152896000D01*
X110502000Y-154698000D01*
G37*
G36*
X132711996Y-149161500D02*
G01*
X131508500Y-150364996D01*
X130305004Y-149161500D01*
X131508500Y-147958004D01*
X132711996Y-149161500D01*
G37*
G36*
X100850000Y-148475000D02*
G01*
X99048000Y-148475000D01*
X99048000Y-146673000D01*
X100850000Y-146673000D01*
X100850000Y-148475000D01*
G37*
G36*
X129960677Y-146547152D02*
G01*
X130115549Y-146611302D01*
X130254930Y-146704434D01*
X130373464Y-146822968D01*
X130466596Y-146962349D01*
X130530746Y-147117221D01*
X130563449Y-147281633D01*
X130563449Y-147449265D01*
X130530746Y-147613677D01*
X130466596Y-147768549D01*
X130373464Y-147907930D01*
X130254930Y-148026464D01*
X130115549Y-148119596D01*
X129960677Y-148183746D01*
X129796265Y-148216449D01*
X129628633Y-148216449D01*
X129464221Y-148183746D01*
X129309349Y-148119596D01*
X129169968Y-148026464D01*
X129051434Y-147907930D01*
X128958302Y-147768549D01*
X128894152Y-147613677D01*
X128861449Y-147449265D01*
X128861449Y-147281633D01*
X128894152Y-147117221D01*
X128958302Y-146962349D01*
X129051434Y-146822968D01*
X129169968Y-146704434D01*
X129309349Y-146611302D01*
X129464221Y-146547152D01*
X129628633Y-146514449D01*
X129796265Y-146514449D01*
X129960677Y-146547152D01*
G37*
G36*
X110476512Y-144963427D02*
G01*
X110625812Y-144993124D01*
X110789784Y-145061044D01*
X110937354Y-145159647D01*
X111062853Y-145285146D01*
X111161456Y-145432716D01*
X111229376Y-145596688D01*
X111240619Y-145653214D01*
X111264000Y-145770758D01*
X111264000Y-145948242D01*
X111259176Y-145972495D01*
X111229376Y-146122312D01*
X111161456Y-146286284D01*
X111062853Y-146433854D01*
X110937354Y-146559353D01*
X110789784Y-146657956D01*
X110625812Y-146725876D01*
X110476512Y-146755573D01*
X110451742Y-146760500D01*
X110274258Y-146760500D01*
X110249488Y-146755573D01*
X110100188Y-146725876D01*
X109936216Y-146657956D01*
X109788646Y-146559353D01*
X109663147Y-146433854D01*
X109564544Y-146286284D01*
X109496624Y-146122312D01*
X109466824Y-145972495D01*
X109462000Y-145948242D01*
X109462000Y-145770758D01*
X109485381Y-145653214D01*
X109496624Y-145596688D01*
X109564544Y-145432716D01*
X109663147Y-145285146D01*
X109788646Y-145159647D01*
X109936216Y-145061044D01*
X110100188Y-144993124D01*
X110249488Y-144963427D01*
X110274258Y-144958500D01*
X110451742Y-144958500D01*
X110476512Y-144963427D01*
G37*
G36*
X108724000Y-146760500D02*
G01*
X106922000Y-146760500D01*
X106922000Y-144958500D01*
X108724000Y-144958500D01*
X108724000Y-146760500D01*
G37*
G36*
X118096512Y-144963427D02*
G01*
X118245812Y-144993124D01*
X118409784Y-145061044D01*
X118557354Y-145159647D01*
X118682853Y-145285146D01*
X118781456Y-145432716D01*
X118849376Y-145596688D01*
X118860619Y-145653214D01*
X118884000Y-145770758D01*
X118884000Y-145948242D01*
X118879176Y-145972495D01*
X118849376Y-146122312D01*
X118781456Y-146286284D01*
X118682853Y-146433854D01*
X118557354Y-146559353D01*
X118409784Y-146657956D01*
X118245812Y-146725876D01*
X118096512Y-146755573D01*
X118071742Y-146760500D01*
X117894258Y-146760500D01*
X117869488Y-146755573D01*
X117720188Y-146725876D01*
X117556216Y-146657956D01*
X117408646Y-146559353D01*
X117283147Y-146433854D01*
X117184544Y-146286284D01*
X117116624Y-146122312D01*
X117086824Y-145972495D01*
X117082000Y-145948242D01*
X117082000Y-145770758D01*
X117105381Y-145653214D01*
X117116624Y-145596688D01*
X117184544Y-145432716D01*
X117283147Y-145285146D01*
X117408646Y-145159647D01*
X117556216Y-145061044D01*
X117720188Y-144993124D01*
X117869488Y-144963427D01*
X117894258Y-144958500D01*
X118071742Y-144958500D01*
X118096512Y-144963427D01*
G37*
G36*
X115556512Y-144963427D02*
G01*
X115705812Y-144993124D01*
X115869784Y-145061044D01*
X116017354Y-145159647D01*
X116142853Y-145285146D01*
X116241456Y-145432716D01*
X116309376Y-145596688D01*
X116320619Y-145653214D01*
X116344000Y-145770758D01*
X116344000Y-145948242D01*
X116339176Y-145972495D01*
X116309376Y-146122312D01*
X116241456Y-146286284D01*
X116142853Y-146433854D01*
X116017354Y-146559353D01*
X115869784Y-146657956D01*
X115705812Y-146725876D01*
X115556512Y-146755573D01*
X115531742Y-146760500D01*
X115354258Y-146760500D01*
X115329488Y-146755573D01*
X115180188Y-146725876D01*
X115016216Y-146657956D01*
X114868646Y-146559353D01*
X114743147Y-146433854D01*
X114644544Y-146286284D01*
X114576624Y-146122312D01*
X114546824Y-145972495D01*
X114542000Y-145948242D01*
X114542000Y-145770758D01*
X114565381Y-145653214D01*
X114576624Y-145596688D01*
X114644544Y-145432716D01*
X114743147Y-145285146D01*
X114868646Y-145159647D01*
X115016216Y-145061044D01*
X115180188Y-144993124D01*
X115329488Y-144963427D01*
X115354258Y-144958500D01*
X115531742Y-144958500D01*
X115556512Y-144963427D01*
G37*
G36*
X113016512Y-144963427D02*
G01*
X113165812Y-144993124D01*
X113329784Y-145061044D01*
X113477354Y-145159647D01*
X113602853Y-145285146D01*
X113701456Y-145432716D01*
X113769376Y-145596688D01*
X113780619Y-145653214D01*
X113804000Y-145770758D01*
X113804000Y-145948242D01*
X113799176Y-145972495D01*
X113769376Y-146122312D01*
X113701456Y-146286284D01*
X113602853Y-146433854D01*
X113477354Y-146559353D01*
X113329784Y-146657956D01*
X113165812Y-146725876D01*
X113016512Y-146755573D01*
X112991742Y-146760500D01*
X112814258Y-146760500D01*
X112789488Y-146755573D01*
X112640188Y-146725876D01*
X112476216Y-146657956D01*
X112328646Y-146559353D01*
X112203147Y-146433854D01*
X112104544Y-146286284D01*
X112036624Y-146122312D01*
X112006824Y-145972495D01*
X112002000Y-145948242D01*
X112002000Y-145770758D01*
X112025381Y-145653214D01*
X112036624Y-145596688D01*
X112104544Y-145432716D01*
X112203147Y-145285146D01*
X112328646Y-145159647D01*
X112476216Y-145061044D01*
X112640188Y-144993124D01*
X112789488Y-144963427D01*
X112814258Y-144958500D01*
X112991742Y-144958500D01*
X113016512Y-144963427D01*
G37*
G36*
X128164626Y-144751101D02*
G01*
X128319498Y-144815251D01*
X128458879Y-144908383D01*
X128577413Y-145026917D01*
X128670545Y-145166298D01*
X128734695Y-145321170D01*
X128767398Y-145485582D01*
X128767398Y-145653214D01*
X128734695Y-145817626D01*
X128670545Y-145972498D01*
X128577413Y-146111879D01*
X128458879Y-146230413D01*
X128319498Y-146323545D01*
X128164626Y-146387695D01*
X128000214Y-146420398D01*
X127832582Y-146420398D01*
X127668170Y-146387695D01*
X127513298Y-146323545D01*
X127373917Y-146230413D01*
X127255383Y-146111879D01*
X127162251Y-145972498D01*
X127098101Y-145817626D01*
X127065398Y-145653214D01*
X127065398Y-145485582D01*
X127098101Y-145321170D01*
X127162251Y-145166298D01*
X127255383Y-145026917D01*
X127373917Y-144908383D01*
X127513298Y-144815251D01*
X127668170Y-144751101D01*
X127832582Y-144718398D01*
X128000214Y-144718398D01*
X128164626Y-144751101D01*
G37*
G36*
X92387823Y-144258813D02*
G01*
X92548242Y-144307476D01*
X92680906Y-144378386D01*
X92696078Y-144386496D01*
X92825659Y-144492841D01*
X92932004Y-144622422D01*
X92932005Y-144622424D01*
X93011024Y-144770258D01*
X93011025Y-144770261D01*
X93020083Y-144800120D01*
X93059687Y-144930677D01*
X93076117Y-145097500D01*
X93059687Y-145264323D01*
X93011024Y-145424742D01*
X92965946Y-145509076D01*
X92932004Y-145572578D01*
X92825659Y-145702159D01*
X92696078Y-145808504D01*
X92696076Y-145808505D01*
X92548242Y-145887524D01*
X92387823Y-145936187D01*
X92262804Y-145948500D01*
X91379196Y-145948500D01*
X91254177Y-145936187D01*
X91093758Y-145887524D01*
X90945924Y-145808505D01*
X90945922Y-145808504D01*
X90816341Y-145702159D01*
X90709996Y-145572578D01*
X90676054Y-145509076D01*
X90630976Y-145424742D01*
X90582313Y-145264323D01*
X90565883Y-145097500D01*
X90582313Y-144930677D01*
X90621917Y-144800120D01*
X90630975Y-144770261D01*
X90630976Y-144770258D01*
X90709995Y-144622424D01*
X90709996Y-144622422D01*
X90816341Y-144492841D01*
X90945922Y-144386496D01*
X90961094Y-144378386D01*
X91093758Y-144307476D01*
X91254177Y-144258813D01*
X91379196Y-144246500D01*
X92262804Y-144246500D01*
X92387823Y-144258813D01*
G37*
G36*
X84767823Y-144258813D02*
G01*
X84928242Y-144307476D01*
X85060906Y-144378386D01*
X85076078Y-144386496D01*
X85205659Y-144492841D01*
X85312004Y-144622422D01*
X85312005Y-144622424D01*
X85391024Y-144770258D01*
X85391025Y-144770261D01*
X85400083Y-144800120D01*
X85439687Y-144930677D01*
X85456117Y-145097500D01*
X85439687Y-145264323D01*
X85391024Y-145424742D01*
X85345946Y-145509076D01*
X85312004Y-145572578D01*
X85205659Y-145702159D01*
X85076078Y-145808504D01*
X85076076Y-145808505D01*
X84928242Y-145887524D01*
X84767823Y-145936187D01*
X84642804Y-145948500D01*
X83759196Y-145948500D01*
X83634177Y-145936187D01*
X83473758Y-145887524D01*
X83325924Y-145808505D01*
X83325922Y-145808504D01*
X83196341Y-145702159D01*
X83089996Y-145572578D01*
X83056054Y-145509076D01*
X83010976Y-145424742D01*
X82962313Y-145264323D01*
X82945883Y-145097500D01*
X82962313Y-144930677D01*
X83001917Y-144800120D01*
X83010975Y-144770261D01*
X83010976Y-144770258D01*
X83089995Y-144622424D01*
X83089996Y-144622422D01*
X83196341Y-144492841D01*
X83325922Y-144386496D01*
X83341094Y-144378386D01*
X83473758Y-144307476D01*
X83634177Y-144258813D01*
X83759196Y-144246500D01*
X84642804Y-144246500D01*
X84767823Y-144258813D01*
G37*
G36*
X100062512Y-144137927D02*
G01*
X100211812Y-144167624D01*
X100375784Y-144235544D01*
X100523354Y-144334147D01*
X100648853Y-144459646D01*
X100747456Y-144607216D01*
X100815376Y-144771188D01*
X100850000Y-144945259D01*
X100850000Y-145122741D01*
X100815376Y-145296812D01*
X100747456Y-145460784D01*
X100648853Y-145608354D01*
X100523354Y-145733853D01*
X100375784Y-145832456D01*
X100211812Y-145900376D01*
X100062512Y-145930073D01*
X100037742Y-145935000D01*
X99860258Y-145935000D01*
X99835488Y-145930073D01*
X99686188Y-145900376D01*
X99522216Y-145832456D01*
X99374646Y-145733853D01*
X99249147Y-145608354D01*
X99150544Y-145460784D01*
X99082624Y-145296812D01*
X99048000Y-145122741D01*
X99048000Y-144945259D01*
X99082624Y-144771188D01*
X99150544Y-144607216D01*
X99249147Y-144459646D01*
X99374646Y-144334147D01*
X99522216Y-144235544D01*
X99686188Y-144167624D01*
X99835488Y-144137927D01*
X99860258Y-144133000D01*
X100037742Y-144133000D01*
X100062512Y-144137927D01*
G37*
G36*
X79179823Y-144195313D02*
G01*
X79340242Y-144243976D01*
X79459040Y-144307475D01*
X79488078Y-144322996D01*
X79617659Y-144429341D01*
X79724004Y-144558922D01*
X79724005Y-144558924D01*
X79803024Y-144706758D01*
X79851687Y-144867177D01*
X79868117Y-145034000D01*
X79851687Y-145200823D01*
X79803024Y-145361242D01*
X79736563Y-145485582D01*
X79724004Y-145509078D01*
X79617659Y-145638659D01*
X79488078Y-145745004D01*
X79488076Y-145745005D01*
X79340242Y-145824024D01*
X79179823Y-145872687D01*
X79054804Y-145885000D01*
X78171196Y-145885000D01*
X78046177Y-145872687D01*
X77885758Y-145824024D01*
X77737924Y-145745005D01*
X77737922Y-145745004D01*
X77608341Y-145638659D01*
X77501996Y-145509078D01*
X77489437Y-145485582D01*
X77422976Y-145361242D01*
X77374313Y-145200823D01*
X77357883Y-145034000D01*
X77374313Y-144867177D01*
X77422976Y-144706758D01*
X77501995Y-144558924D01*
X77501996Y-144558922D01*
X77608341Y-144429341D01*
X77737922Y-144322996D01*
X77766960Y-144307475D01*
X77885758Y-144243976D01*
X78046177Y-144195313D01*
X78171196Y-144183000D01*
X79054804Y-144183000D01*
X79179823Y-144195313D01*
G37*
G36*
X71559823Y-144195313D02*
G01*
X71720242Y-144243976D01*
X71839040Y-144307475D01*
X71868078Y-144322996D01*
X71997659Y-144429341D01*
X72104004Y-144558922D01*
X72104005Y-144558924D01*
X72183024Y-144706758D01*
X72231687Y-144867177D01*
X72248117Y-145034000D01*
X72231687Y-145200823D01*
X72183024Y-145361242D01*
X72116563Y-145485582D01*
X72104004Y-145509078D01*
X71997659Y-145638659D01*
X71868078Y-145745004D01*
X71868076Y-145745005D01*
X71720242Y-145824024D01*
X71559823Y-145872687D01*
X71434804Y-145885000D01*
X70551196Y-145885000D01*
X70426177Y-145872687D01*
X70265758Y-145824024D01*
X70117924Y-145745005D01*
X70117922Y-145745004D01*
X69988341Y-145638659D01*
X69881996Y-145509078D01*
X69869437Y-145485582D01*
X69802976Y-145361242D01*
X69754313Y-145200823D01*
X69737883Y-145034000D01*
X69754313Y-144867177D01*
X69802976Y-144706758D01*
X69881995Y-144558924D01*
X69881996Y-144558922D01*
X69988341Y-144429341D01*
X70117922Y-144322996D01*
X70146960Y-144307475D01*
X70265758Y-144243976D01*
X70426177Y-144195313D01*
X70551196Y-144183000D01*
X71434804Y-144183000D01*
X71559823Y-144195313D01*
G37*
G36*
X126368574Y-142955049D02*
G01*
X126523446Y-143019199D01*
X126662827Y-143112331D01*
X126781361Y-143230865D01*
X126874493Y-143370246D01*
X126938643Y-143525118D01*
X126971346Y-143689530D01*
X126971346Y-143857162D01*
X126938643Y-144021574D01*
X126874493Y-144176446D01*
X126781361Y-144315827D01*
X126662827Y-144434361D01*
X126523446Y-144527493D01*
X126368574Y-144591643D01*
X126204162Y-144624346D01*
X126036530Y-144624346D01*
X125872118Y-144591643D01*
X125717246Y-144527493D01*
X125577865Y-144434361D01*
X125459331Y-144315827D01*
X125366199Y-144176446D01*
X125302049Y-144021574D01*
X125269346Y-143857162D01*
X125269346Y-143689530D01*
X125302049Y-143525118D01*
X125366199Y-143370246D01*
X125459331Y-143230865D01*
X125577865Y-143112331D01*
X125717246Y-143019199D01*
X125872118Y-142955049D01*
X126036530Y-142922346D01*
X126204162Y-142922346D01*
X126368574Y-142955049D01*
G37*
G36*
X92387823Y-141718813D02*
G01*
X92548242Y-141767476D01*
X92680906Y-141838386D01*
X92696078Y-141846496D01*
X92825659Y-141952841D01*
X92932004Y-142082422D01*
X92932005Y-142082424D01*
X93011024Y-142230258D01*
X93011025Y-142230261D01*
X93020083Y-142260120D01*
X93059687Y-142390677D01*
X93076117Y-142557500D01*
X93059687Y-142724323D01*
X93011024Y-142884742D01*
X92991760Y-142920782D01*
X92932004Y-143032578D01*
X92825659Y-143162159D01*
X92696078Y-143268504D01*
X92696076Y-143268505D01*
X92548242Y-143347524D01*
X92387823Y-143396187D01*
X92262804Y-143408500D01*
X91379196Y-143408500D01*
X91254177Y-143396187D01*
X91093758Y-143347524D01*
X90945924Y-143268505D01*
X90945922Y-143268504D01*
X90816341Y-143162159D01*
X90709996Y-143032578D01*
X90650240Y-142920782D01*
X90630976Y-142884742D01*
X90582313Y-142724323D01*
X90565883Y-142557500D01*
X90582313Y-142390677D01*
X90621917Y-142260120D01*
X90630975Y-142230261D01*
X90630976Y-142230258D01*
X90709995Y-142082424D01*
X90709996Y-142082422D01*
X90816341Y-141952841D01*
X90945922Y-141846496D01*
X90961094Y-141838386D01*
X91093758Y-141767476D01*
X91254177Y-141718813D01*
X91379196Y-141706500D01*
X92262804Y-141706500D01*
X92387823Y-141718813D01*
G37*
G36*
X84767823Y-141718813D02*
G01*
X84928242Y-141767476D01*
X85060906Y-141838386D01*
X85076078Y-141846496D01*
X85205659Y-141952841D01*
X85312004Y-142082422D01*
X85312005Y-142082424D01*
X85391024Y-142230258D01*
X85391025Y-142230261D01*
X85400083Y-142260120D01*
X85439687Y-142390677D01*
X85456117Y-142557500D01*
X85439687Y-142724323D01*
X85391024Y-142884742D01*
X85371760Y-142920782D01*
X85312004Y-143032578D01*
X85205659Y-143162159D01*
X85076078Y-143268504D01*
X85076076Y-143268505D01*
X84928242Y-143347524D01*
X84767823Y-143396187D01*
X84642804Y-143408500D01*
X83759196Y-143408500D01*
X83634177Y-143396187D01*
X83473758Y-143347524D01*
X83325924Y-143268505D01*
X83325922Y-143268504D01*
X83196341Y-143162159D01*
X83089996Y-143032578D01*
X83030240Y-142920782D01*
X83010976Y-142884742D01*
X82962313Y-142724323D01*
X82945883Y-142557500D01*
X82962313Y-142390677D01*
X83001917Y-142260120D01*
X83010975Y-142230261D01*
X83010976Y-142230258D01*
X83089995Y-142082424D01*
X83089996Y-142082422D01*
X83196341Y-141952841D01*
X83325922Y-141846496D01*
X83341094Y-141838386D01*
X83473758Y-141767476D01*
X83634177Y-141718813D01*
X83759196Y-141706500D01*
X84642804Y-141706500D01*
X84767823Y-141718813D01*
G37*
G36*
X100062512Y-141597927D02*
G01*
X100211812Y-141627624D01*
X100375784Y-141695544D01*
X100523354Y-141794147D01*
X100648853Y-141919646D01*
X100747456Y-142067216D01*
X100815376Y-142231188D01*
X100850000Y-142405259D01*
X100850000Y-142582741D01*
X100815376Y-142756812D01*
X100747456Y-142920784D01*
X100648853Y-143068354D01*
X100523354Y-143193853D01*
X100375784Y-143292456D01*
X100211812Y-143360376D01*
X100062512Y-143390073D01*
X100037742Y-143395000D01*
X99860258Y-143395000D01*
X99835488Y-143390073D01*
X99686188Y-143360376D01*
X99522216Y-143292456D01*
X99374646Y-143193853D01*
X99249147Y-143068354D01*
X99150544Y-142920784D01*
X99082624Y-142756812D01*
X99048000Y-142582741D01*
X99048000Y-142405259D01*
X99082624Y-142231188D01*
X99150544Y-142067216D01*
X99249147Y-141919646D01*
X99374646Y-141794147D01*
X99522216Y-141695544D01*
X99686188Y-141627624D01*
X99835488Y-141597927D01*
X99860258Y-141593000D01*
X100037742Y-141593000D01*
X100062512Y-141597927D01*
G37*
G36*
X79179823Y-141655313D02*
G01*
X79340242Y-141703976D01*
X79459040Y-141767475D01*
X79488078Y-141782996D01*
X79617659Y-141889341D01*
X79724004Y-142018922D01*
X79724005Y-142018924D01*
X79803024Y-142166758D01*
X79851687Y-142327177D01*
X79868117Y-142494000D01*
X79851687Y-142660823D01*
X79803024Y-142821242D01*
X79748983Y-142922346D01*
X79724004Y-142969078D01*
X79617659Y-143098659D01*
X79488078Y-143205004D01*
X79488076Y-143205005D01*
X79340242Y-143284024D01*
X79179823Y-143332687D01*
X79054804Y-143345000D01*
X78171196Y-143345000D01*
X78046177Y-143332687D01*
X77885758Y-143284024D01*
X77737924Y-143205005D01*
X77737922Y-143205004D01*
X77608341Y-143098659D01*
X77501996Y-142969078D01*
X77477017Y-142922346D01*
X77422976Y-142821242D01*
X77374313Y-142660823D01*
X77357883Y-142494000D01*
X77374313Y-142327177D01*
X77422976Y-142166758D01*
X77501995Y-142018924D01*
X77501996Y-142018922D01*
X77608341Y-141889341D01*
X77737922Y-141782996D01*
X77766960Y-141767475D01*
X77885758Y-141703976D01*
X78046177Y-141655313D01*
X78171196Y-141643000D01*
X79054804Y-141643000D01*
X79179823Y-141655313D01*
G37*
G36*
X71559823Y-141655313D02*
G01*
X71720242Y-141703976D01*
X71839040Y-141767475D01*
X71868078Y-141782996D01*
X71997659Y-141889341D01*
X72104004Y-142018922D01*
X72104005Y-142018924D01*
X72183024Y-142166758D01*
X72231687Y-142327177D01*
X72248117Y-142494000D01*
X72231687Y-142660823D01*
X72183024Y-142821242D01*
X72128983Y-142922346D01*
X72104004Y-142969078D01*
X71997659Y-143098659D01*
X71868078Y-143205004D01*
X71868076Y-143205005D01*
X71720242Y-143284024D01*
X71559823Y-143332687D01*
X71434804Y-143345000D01*
X70551196Y-143345000D01*
X70426177Y-143332687D01*
X70265758Y-143284024D01*
X70117924Y-143205005D01*
X70117922Y-143205004D01*
X69988341Y-143098659D01*
X69881996Y-142969078D01*
X69857017Y-142922346D01*
X69802976Y-142821242D01*
X69754313Y-142660823D01*
X69737883Y-142494000D01*
X69754313Y-142327177D01*
X69802976Y-142166758D01*
X69881995Y-142018924D01*
X69881996Y-142018922D01*
X69988341Y-141889341D01*
X70117922Y-141782996D01*
X70146960Y-141767475D01*
X70265758Y-141703976D01*
X70426177Y-141655313D01*
X70551196Y-141643000D01*
X71434804Y-141643000D01*
X71559823Y-141655313D01*
G37*
G36*
X124572523Y-141158998D02*
G01*
X124727395Y-141223148D01*
X124866776Y-141316280D01*
X124985310Y-141434814D01*
X125078442Y-141574195D01*
X125142592Y-141729067D01*
X125175295Y-141893479D01*
X125175295Y-142061111D01*
X125142592Y-142225523D01*
X125078442Y-142380395D01*
X124985310Y-142519776D01*
X124866776Y-142638310D01*
X124727395Y-142731442D01*
X124572523Y-142795592D01*
X124408111Y-142828295D01*
X124240479Y-142828295D01*
X124076067Y-142795592D01*
X123921195Y-142731442D01*
X123781814Y-142638310D01*
X123663280Y-142519776D01*
X123570148Y-142380395D01*
X123505998Y-142225523D01*
X123473295Y-142061111D01*
X123473295Y-141893479D01*
X123505998Y-141729067D01*
X123570148Y-141574195D01*
X123663280Y-141434814D01*
X123781814Y-141316280D01*
X123921195Y-141223148D01*
X124076067Y-141158998D01*
X124240479Y-141126295D01*
X124408111Y-141126295D01*
X124572523Y-141158998D01*
G37*
G36*
X122776472Y-139362947D02*
G01*
X122931344Y-139427097D01*
X123070725Y-139520229D01*
X123189259Y-139638763D01*
X123282391Y-139778144D01*
X123346541Y-139933016D01*
X123379244Y-140097428D01*
X123379244Y-140265060D01*
X123346541Y-140429472D01*
X123282391Y-140584344D01*
X123189259Y-140723725D01*
X123070725Y-140842259D01*
X122931344Y-140935391D01*
X122776472Y-140999541D01*
X122612060Y-141032244D01*
X122444428Y-141032244D01*
X122280016Y-140999541D01*
X122125144Y-140935391D01*
X121985763Y-140842259D01*
X121867229Y-140723725D01*
X121774097Y-140584344D01*
X121709947Y-140429472D01*
X121677244Y-140265060D01*
X121677244Y-140097428D01*
X121709947Y-139933016D01*
X121774097Y-139778144D01*
X121867229Y-139638763D01*
X121985763Y-139520229D01*
X122125144Y-139427097D01*
X122280016Y-139362947D01*
X122444428Y-139330244D01*
X122612060Y-139330244D01*
X122776472Y-139362947D01*
G37*
G36*
X84767823Y-139178813D02*
G01*
X84928242Y-139227476D01*
X85060906Y-139298386D01*
X85076078Y-139306496D01*
X85205659Y-139412841D01*
X85312004Y-139542422D01*
X85312005Y-139542424D01*
X85391024Y-139690258D01*
X85391025Y-139690261D01*
X85400083Y-139720120D01*
X85439687Y-139850677D01*
X85456117Y-140017500D01*
X85439687Y-140184323D01*
X85391024Y-140344742D01*
X85371760Y-140380782D01*
X85312004Y-140492578D01*
X85205659Y-140622159D01*
X85076078Y-140728504D01*
X85076076Y-140728505D01*
X84928242Y-140807524D01*
X84767823Y-140856187D01*
X84642804Y-140868500D01*
X83759196Y-140868500D01*
X83634177Y-140856187D01*
X83473758Y-140807524D01*
X83325924Y-140728505D01*
X83325922Y-140728504D01*
X83196341Y-140622159D01*
X83089996Y-140492578D01*
X83030240Y-140380782D01*
X83010976Y-140344742D01*
X82962313Y-140184323D01*
X82945883Y-140017500D01*
X82962313Y-139850677D01*
X83001917Y-139720120D01*
X83010975Y-139690261D01*
X83010976Y-139690258D01*
X83089995Y-139542424D01*
X83089996Y-139542422D01*
X83196341Y-139412841D01*
X83325922Y-139306496D01*
X83341094Y-139298386D01*
X83473758Y-139227476D01*
X83634177Y-139178813D01*
X83759196Y-139166500D01*
X84642804Y-139166500D01*
X84767823Y-139178813D01*
G37*
G36*
X92387823Y-139178813D02*
G01*
X92548242Y-139227476D01*
X92680906Y-139298386D01*
X92696078Y-139306496D01*
X92825659Y-139412841D01*
X92932004Y-139542422D01*
X92932005Y-139542424D01*
X93011024Y-139690258D01*
X93011025Y-139690261D01*
X93020083Y-139720120D01*
X93059687Y-139850677D01*
X93076117Y-140017500D01*
X93059687Y-140184323D01*
X93011024Y-140344742D01*
X92991760Y-140380782D01*
X92932004Y-140492578D01*
X92825659Y-140622159D01*
X92696078Y-140728504D01*
X92696076Y-140728505D01*
X92548242Y-140807524D01*
X92387823Y-140856187D01*
X92262804Y-140868500D01*
X91379196Y-140868500D01*
X91254177Y-140856187D01*
X91093758Y-140807524D01*
X90945924Y-140728505D01*
X90945922Y-140728504D01*
X90816341Y-140622159D01*
X90709996Y-140492578D01*
X90650240Y-140380782D01*
X90630976Y-140344742D01*
X90582313Y-140184323D01*
X90565883Y-140017500D01*
X90582313Y-139850677D01*
X90621917Y-139720120D01*
X90630975Y-139690261D01*
X90630976Y-139690258D01*
X90709995Y-139542424D01*
X90709996Y-139542422D01*
X90816341Y-139412841D01*
X90945922Y-139306496D01*
X90961094Y-139298386D01*
X91093758Y-139227476D01*
X91254177Y-139178813D01*
X91379196Y-139166500D01*
X92262804Y-139166500D01*
X92387823Y-139178813D01*
G37*
G36*
X100062512Y-139057927D02*
G01*
X100211812Y-139087624D01*
X100375784Y-139155544D01*
X100523354Y-139254147D01*
X100648853Y-139379646D01*
X100747456Y-139527216D01*
X100815376Y-139691188D01*
X100850000Y-139865259D01*
X100850000Y-140042741D01*
X100815376Y-140216812D01*
X100747456Y-140380784D01*
X100648853Y-140528354D01*
X100523354Y-140653853D01*
X100375784Y-140752456D01*
X100211812Y-140820376D01*
X100062512Y-140850073D01*
X100037742Y-140855000D01*
X99860258Y-140855000D01*
X99835488Y-140850073D01*
X99686188Y-140820376D01*
X99522216Y-140752456D01*
X99374646Y-140653853D01*
X99249147Y-140528354D01*
X99150544Y-140380784D01*
X99082624Y-140216812D01*
X99048000Y-140042741D01*
X99048000Y-139865259D01*
X99082624Y-139691188D01*
X99150544Y-139527216D01*
X99249147Y-139379646D01*
X99374646Y-139254147D01*
X99522216Y-139155544D01*
X99686188Y-139087624D01*
X99835488Y-139057927D01*
X99860258Y-139053000D01*
X100037742Y-139053000D01*
X100062512Y-139057927D01*
G37*
G36*
X79179823Y-139115313D02*
G01*
X79340242Y-139163976D01*
X79414167Y-139203490D01*
X79488078Y-139242996D01*
X79617659Y-139349341D01*
X79724004Y-139478922D01*
X79724005Y-139478924D01*
X79803024Y-139626758D01*
X79851687Y-139787177D01*
X79868117Y-139954000D01*
X79851687Y-140120823D01*
X79803024Y-140281242D01*
X79732114Y-140413906D01*
X79724004Y-140429078D01*
X79617659Y-140558659D01*
X79488078Y-140665004D01*
X79488076Y-140665005D01*
X79340242Y-140744024D01*
X79179823Y-140792687D01*
X79054804Y-140805000D01*
X78171196Y-140805000D01*
X78046177Y-140792687D01*
X77885758Y-140744024D01*
X77737924Y-140665005D01*
X77737922Y-140665004D01*
X77608341Y-140558659D01*
X77501996Y-140429078D01*
X77493886Y-140413906D01*
X77422976Y-140281242D01*
X77374313Y-140120823D01*
X77357883Y-139954000D01*
X77374313Y-139787177D01*
X77422976Y-139626758D01*
X77501995Y-139478924D01*
X77501996Y-139478922D01*
X77608341Y-139349341D01*
X77737922Y-139242996D01*
X77811833Y-139203490D01*
X77885758Y-139163976D01*
X78046177Y-139115313D01*
X78171196Y-139103000D01*
X79054804Y-139103000D01*
X79179823Y-139115313D01*
G37*
G36*
X71559823Y-139115313D02*
G01*
X71720242Y-139163976D01*
X71794167Y-139203490D01*
X71868078Y-139242996D01*
X71997659Y-139349341D01*
X72104004Y-139478922D01*
X72104005Y-139478924D01*
X72183024Y-139626758D01*
X72231687Y-139787177D01*
X72248117Y-139954000D01*
X72231687Y-140120823D01*
X72183024Y-140281242D01*
X72112114Y-140413906D01*
X72104004Y-140429078D01*
X71997659Y-140558659D01*
X71868078Y-140665004D01*
X71868076Y-140665005D01*
X71720242Y-140744024D01*
X71559823Y-140792687D01*
X71434804Y-140805000D01*
X70551196Y-140805000D01*
X70426177Y-140792687D01*
X70265758Y-140744024D01*
X70117924Y-140665005D01*
X70117922Y-140665004D01*
X69988341Y-140558659D01*
X69881996Y-140429078D01*
X69873886Y-140413906D01*
X69802976Y-140281242D01*
X69754313Y-140120823D01*
X69737883Y-139954000D01*
X69754313Y-139787177D01*
X69802976Y-139626758D01*
X69881995Y-139478924D01*
X69881996Y-139478922D01*
X69988341Y-139349341D01*
X70117922Y-139242996D01*
X70191833Y-139203490D01*
X70265758Y-139163976D01*
X70426177Y-139115313D01*
X70551196Y-139103000D01*
X71434804Y-139103000D01*
X71559823Y-139115313D01*
G37*
G36*
X142533035Y-137566896D02*
G01*
X142687907Y-137631046D01*
X142827288Y-137724178D01*
X142945822Y-137842712D01*
X143038954Y-137982093D01*
X143103104Y-138136965D01*
X143135807Y-138301377D01*
X143135807Y-138469009D01*
X143103104Y-138633421D01*
X143038954Y-138788293D01*
X142945822Y-138927674D01*
X142827288Y-139046208D01*
X142687907Y-139139340D01*
X142533035Y-139203490D01*
X142368623Y-139236193D01*
X142200991Y-139236193D01*
X142036579Y-139203490D01*
X141881707Y-139139340D01*
X141742326Y-139046208D01*
X141623792Y-138927674D01*
X141530660Y-138788293D01*
X141466510Y-138633421D01*
X141433807Y-138469009D01*
X141433807Y-138301377D01*
X141466510Y-138136965D01*
X141530660Y-137982093D01*
X141623792Y-137842712D01*
X141742326Y-137724178D01*
X141881707Y-137631046D01*
X142036579Y-137566896D01*
X142200991Y-137534193D01*
X142368623Y-137534193D01*
X142533035Y-137566896D01*
G37*
G36*
X120980421Y-137566896D02*
G01*
X121135293Y-137631046D01*
X121274674Y-137724178D01*
X121393208Y-137842712D01*
X121486340Y-137982093D01*
X121550490Y-138136965D01*
X121583193Y-138301377D01*
X121583193Y-138469009D01*
X121550490Y-138633421D01*
X121486340Y-138788293D01*
X121393208Y-138927674D01*
X121274674Y-139046208D01*
X121135293Y-139139340D01*
X120980421Y-139203490D01*
X120816009Y-139236193D01*
X120648377Y-139236193D01*
X120483965Y-139203490D01*
X120329093Y-139139340D01*
X120189712Y-139046208D01*
X120071178Y-138927674D01*
X119978046Y-138788293D01*
X119913896Y-138633421D01*
X119881193Y-138469009D01*
X119881193Y-138301377D01*
X119913896Y-138136965D01*
X119978046Y-137982093D01*
X120071178Y-137842712D01*
X120189712Y-137724178D01*
X120329093Y-137631046D01*
X120483965Y-137566896D01*
X120648377Y-137534193D01*
X120816009Y-137534193D01*
X120980421Y-137566896D01*
G37*
G36*
X84767823Y-136638813D02*
G01*
X84928242Y-136687476D01*
X85060906Y-136758386D01*
X85076078Y-136766496D01*
X85205659Y-136872841D01*
X85312004Y-137002422D01*
X85312005Y-137002424D01*
X85391024Y-137150258D01*
X85391025Y-137150261D01*
X85400083Y-137180120D01*
X85439687Y-137310677D01*
X85456117Y-137477500D01*
X85439687Y-137644323D01*
X85391024Y-137804742D01*
X85370728Y-137842713D01*
X85312004Y-137952578D01*
X85205659Y-138082159D01*
X85076078Y-138188504D01*
X85076076Y-138188505D01*
X84928242Y-138267524D01*
X84767823Y-138316187D01*
X84642804Y-138328500D01*
X83759196Y-138328500D01*
X83634177Y-138316187D01*
X83473758Y-138267524D01*
X83325924Y-138188505D01*
X83325922Y-138188504D01*
X83196341Y-138082159D01*
X83089996Y-137952578D01*
X83031272Y-137842713D01*
X83010976Y-137804742D01*
X82962313Y-137644323D01*
X82945883Y-137477500D01*
X82962313Y-137310677D01*
X83001917Y-137180120D01*
X83010975Y-137150261D01*
X83010976Y-137150258D01*
X83089995Y-137002424D01*
X83089996Y-137002422D01*
X83196341Y-136872841D01*
X83325922Y-136766496D01*
X83341094Y-136758386D01*
X83473758Y-136687476D01*
X83634177Y-136638813D01*
X83759196Y-136626500D01*
X84642804Y-136626500D01*
X84767823Y-136638813D01*
G37*
G36*
X92387823Y-136638813D02*
G01*
X92548242Y-136687476D01*
X92680906Y-136758386D01*
X92696078Y-136766496D01*
X92825659Y-136872841D01*
X92932004Y-137002422D01*
X92932005Y-137002424D01*
X93011024Y-137150258D01*
X93011025Y-137150261D01*
X93020083Y-137180120D01*
X93059687Y-137310677D01*
X93076117Y-137477500D01*
X93059687Y-137644323D01*
X93011024Y-137804742D01*
X92990728Y-137842713D01*
X92932004Y-137952578D01*
X92825659Y-138082159D01*
X92696078Y-138188504D01*
X92696076Y-138188505D01*
X92548242Y-138267524D01*
X92387823Y-138316187D01*
X92262804Y-138328500D01*
X91379196Y-138328500D01*
X91254177Y-138316187D01*
X91093758Y-138267524D01*
X90945924Y-138188505D01*
X90945922Y-138188504D01*
X90816341Y-138082159D01*
X90709996Y-137952578D01*
X90651272Y-137842713D01*
X90630976Y-137804742D01*
X90582313Y-137644323D01*
X90565883Y-137477500D01*
X90582313Y-137310677D01*
X90621917Y-137180120D01*
X90630975Y-137150261D01*
X90630976Y-137150258D01*
X90709995Y-137002424D01*
X90709996Y-137002422D01*
X90816341Y-136872841D01*
X90945922Y-136766496D01*
X90961094Y-136758386D01*
X91093758Y-136687476D01*
X91254177Y-136638813D01*
X91379196Y-136626500D01*
X92262804Y-136626500D01*
X92387823Y-136638813D01*
G37*
G36*
X100062512Y-136517927D02*
G01*
X100211812Y-136547624D01*
X100375784Y-136615544D01*
X100523354Y-136714147D01*
X100648853Y-136839646D01*
X100747456Y-136987216D01*
X100815376Y-137151188D01*
X100850000Y-137325259D01*
X100850000Y-137502741D01*
X100815376Y-137676812D01*
X100747456Y-137840784D01*
X100648853Y-137988354D01*
X100523354Y-138113853D01*
X100375784Y-138212456D01*
X100211812Y-138280376D01*
X100062512Y-138310073D01*
X100037742Y-138315000D01*
X99860258Y-138315000D01*
X99835488Y-138310073D01*
X99686188Y-138280376D01*
X99522216Y-138212456D01*
X99374646Y-138113853D01*
X99249147Y-137988354D01*
X99150544Y-137840784D01*
X99082624Y-137676812D01*
X99048000Y-137502741D01*
X99048000Y-137325259D01*
X99082624Y-137151188D01*
X99150544Y-136987216D01*
X99249147Y-136839646D01*
X99374646Y-136714147D01*
X99522216Y-136615544D01*
X99686188Y-136547624D01*
X99835488Y-136517927D01*
X99860258Y-136513000D01*
X100037742Y-136513000D01*
X100062512Y-136517927D01*
G37*
G36*
X71559823Y-136575313D02*
G01*
X71720242Y-136623976D01*
X71811877Y-136672956D01*
X71868078Y-136702996D01*
X71997659Y-136809341D01*
X72104004Y-136938922D01*
X72104005Y-136938924D01*
X72183024Y-137086758D01*
X72231687Y-137247177D01*
X72248117Y-137414000D01*
X72231687Y-137580823D01*
X72183024Y-137741242D01*
X72112114Y-137873906D01*
X72104004Y-137889078D01*
X71997659Y-138018659D01*
X71868078Y-138125004D01*
X71868076Y-138125005D01*
X71720242Y-138204024D01*
X71559823Y-138252687D01*
X71434804Y-138265000D01*
X70551196Y-138265000D01*
X70426177Y-138252687D01*
X70265758Y-138204024D01*
X70117924Y-138125005D01*
X70117922Y-138125004D01*
X69988341Y-138018659D01*
X69881996Y-137889078D01*
X69873886Y-137873906D01*
X69802976Y-137741242D01*
X69754313Y-137580823D01*
X69737883Y-137414000D01*
X69754313Y-137247177D01*
X69802976Y-137086758D01*
X69881995Y-136938924D01*
X69881996Y-136938922D01*
X69988341Y-136809341D01*
X70117922Y-136702996D01*
X70174123Y-136672956D01*
X70265758Y-136623976D01*
X70426177Y-136575313D01*
X70551196Y-136563000D01*
X71434804Y-136563000D01*
X71559823Y-136575313D01*
G37*
G36*
X79179823Y-136575313D02*
G01*
X79340242Y-136623976D01*
X79431877Y-136672956D01*
X79488078Y-136702996D01*
X79617659Y-136809341D01*
X79724004Y-136938922D01*
X79724005Y-136938924D01*
X79803024Y-137086758D01*
X79851687Y-137247177D01*
X79868117Y-137414000D01*
X79851687Y-137580823D01*
X79803024Y-137741242D01*
X79732114Y-137873906D01*
X79724004Y-137889078D01*
X79617659Y-138018659D01*
X79488078Y-138125004D01*
X79488076Y-138125005D01*
X79340242Y-138204024D01*
X79179823Y-138252687D01*
X79054804Y-138265000D01*
X78171196Y-138265000D01*
X78046177Y-138252687D01*
X77885758Y-138204024D01*
X77737924Y-138125005D01*
X77737922Y-138125004D01*
X77608341Y-138018659D01*
X77501996Y-137889078D01*
X77493886Y-137873906D01*
X77422976Y-137741242D01*
X77374313Y-137580823D01*
X77357883Y-137414000D01*
X77374313Y-137247177D01*
X77422976Y-137086758D01*
X77501995Y-136938924D01*
X77501996Y-136938922D01*
X77608341Y-136809341D01*
X77737922Y-136702996D01*
X77794123Y-136672956D01*
X77885758Y-136623976D01*
X78046177Y-136575313D01*
X78171196Y-136563000D01*
X79054804Y-136563000D01*
X79179823Y-136575313D01*
G37*
G36*
X140736984Y-135770844D02*
G01*
X140891856Y-135834994D01*
X141031237Y-135928126D01*
X141149771Y-136046660D01*
X141242903Y-136186041D01*
X141307053Y-136340913D01*
X141339756Y-136505325D01*
X141339756Y-136672957D01*
X141307053Y-136837369D01*
X141242903Y-136992241D01*
X141149771Y-137131622D01*
X141031237Y-137250156D01*
X140891856Y-137343288D01*
X140736984Y-137407438D01*
X140572572Y-137440141D01*
X140404940Y-137440141D01*
X140240528Y-137407438D01*
X140085656Y-137343288D01*
X139946275Y-137250156D01*
X139827741Y-137131622D01*
X139734609Y-136992241D01*
X139670459Y-136837369D01*
X139637756Y-136672957D01*
X139637756Y-136505325D01*
X139670459Y-136340913D01*
X139734609Y-136186041D01*
X139827741Y-136046660D01*
X139946275Y-135928126D01*
X140085656Y-135834994D01*
X140240528Y-135770844D01*
X140404940Y-135738141D01*
X140572572Y-135738141D01*
X140736984Y-135770844D01*
G37*
G36*
X119184369Y-135770844D02*
G01*
X119339241Y-135834994D01*
X119478622Y-135928126D01*
X119597156Y-136046660D01*
X119690288Y-136186041D01*
X119754438Y-136340913D01*
X119787141Y-136505325D01*
X119787141Y-136672957D01*
X119754438Y-136837369D01*
X119690288Y-136992241D01*
X119597156Y-137131622D01*
X119478622Y-137250156D01*
X119339241Y-137343288D01*
X119184369Y-137407438D01*
X119019957Y-137440141D01*
X118852325Y-137440141D01*
X118687913Y-137407438D01*
X118533041Y-137343288D01*
X118393660Y-137250156D01*
X118275126Y-137131622D01*
X118181994Y-136992241D01*
X118117844Y-136837369D01*
X118085141Y-136672957D01*
X118085141Y-136505325D01*
X118117844Y-136340913D01*
X118181994Y-136186041D01*
X118275126Y-136046660D01*
X118393660Y-135928126D01*
X118533041Y-135834994D01*
X118687913Y-135770844D01*
X118852325Y-135738141D01*
X119019957Y-135738141D01*
X119184369Y-135770844D01*
G37*
G36*
X124964045Y-134886370D02*
G01*
X125155314Y-134965596D01*
X125155316Y-134965597D01*
X125327454Y-135080616D01*
X125473846Y-135227008D01*
X125555411Y-135349078D01*
X125588866Y-135399148D01*
X125668092Y-135590417D01*
X125708481Y-135793465D01*
X125708481Y-136000497D01*
X125668092Y-136203545D01*
X125611193Y-136340912D01*
X125588865Y-136394816D01*
X125473846Y-136566954D01*
X125327454Y-136713346D01*
X125155316Y-136828365D01*
X125155315Y-136828366D01*
X125155314Y-136828366D01*
X124964045Y-136907592D01*
X124760997Y-136947981D01*
X124553965Y-136947981D01*
X124350917Y-136907592D01*
X124159648Y-136828366D01*
X124159647Y-136828366D01*
X124159646Y-136828365D01*
X123987508Y-136713346D01*
X123841116Y-136566954D01*
X123726097Y-136394816D01*
X123703769Y-136340912D01*
X123646870Y-136203545D01*
X123606481Y-136000497D01*
X123606481Y-135793465D01*
X123646870Y-135590417D01*
X123726096Y-135399148D01*
X123759552Y-135349078D01*
X123841116Y-135227008D01*
X123987508Y-135080616D01*
X124159646Y-134965597D01*
X124159648Y-134965596D01*
X124350917Y-134886370D01*
X124553965Y-134845981D01*
X124760997Y-134845981D01*
X124964045Y-134886370D01*
G37*
G36*
X84767823Y-134098813D02*
G01*
X84928242Y-134147476D01*
X85060906Y-134218386D01*
X85076078Y-134226496D01*
X85205659Y-134332841D01*
X85312004Y-134462422D01*
X85312005Y-134462424D01*
X85391024Y-134610258D01*
X85439687Y-134770677D01*
X85456117Y-134937500D01*
X85439687Y-135104323D01*
X85391024Y-135264742D01*
X85353165Y-135335571D01*
X85312004Y-135412578D01*
X85205659Y-135542159D01*
X85076078Y-135648504D01*
X85076076Y-135648505D01*
X84928242Y-135727524D01*
X84767823Y-135776187D01*
X84642804Y-135788500D01*
X83759196Y-135788500D01*
X83634177Y-135776187D01*
X83473758Y-135727524D01*
X83325924Y-135648505D01*
X83325922Y-135648504D01*
X83196341Y-135542159D01*
X83089996Y-135412578D01*
X83048835Y-135335571D01*
X83010976Y-135264742D01*
X82962313Y-135104323D01*
X82945883Y-134937500D01*
X82962313Y-134770677D01*
X83010976Y-134610258D01*
X83089995Y-134462424D01*
X83089996Y-134462422D01*
X83196341Y-134332841D01*
X83325922Y-134226496D01*
X83341094Y-134218386D01*
X83473758Y-134147476D01*
X83634177Y-134098813D01*
X83759196Y-134086500D01*
X84642804Y-134086500D01*
X84767823Y-134098813D01*
G37*
G36*
X92387823Y-134098813D02*
G01*
X92548242Y-134147476D01*
X92680906Y-134218386D01*
X92696078Y-134226496D01*
X92825659Y-134332841D01*
X92932004Y-134462422D01*
X92932005Y-134462424D01*
X93011024Y-134610258D01*
X93059687Y-134770677D01*
X93076117Y-134937500D01*
X93059687Y-135104323D01*
X93011024Y-135264742D01*
X92973165Y-135335571D01*
X92932004Y-135412578D01*
X92825659Y-135542159D01*
X92696078Y-135648504D01*
X92696076Y-135648505D01*
X92548242Y-135727524D01*
X92387823Y-135776187D01*
X92262804Y-135788500D01*
X91379196Y-135788500D01*
X91254177Y-135776187D01*
X91093758Y-135727524D01*
X90945924Y-135648505D01*
X90945922Y-135648504D01*
X90816341Y-135542159D01*
X90709996Y-135412578D01*
X90668835Y-135335571D01*
X90630976Y-135264742D01*
X90582313Y-135104323D01*
X90565883Y-134937500D01*
X90582313Y-134770677D01*
X90630976Y-134610258D01*
X90709995Y-134462424D01*
X90709996Y-134462422D01*
X90816341Y-134332841D01*
X90945922Y-134226496D01*
X90961094Y-134218386D01*
X91093758Y-134147476D01*
X91254177Y-134098813D01*
X91379196Y-134086500D01*
X92262804Y-134086500D01*
X92387823Y-134098813D01*
G37*
G36*
X71559823Y-134035313D02*
G01*
X71720242Y-134083976D01*
X71839040Y-134147475D01*
X71868078Y-134162996D01*
X71997659Y-134269341D01*
X72104004Y-134398922D01*
X72104005Y-134398924D01*
X72183024Y-134546758D01*
X72231687Y-134707177D01*
X72248117Y-134874000D01*
X72231687Y-135040823D01*
X72219616Y-135080616D01*
X72184558Y-135196187D01*
X72183024Y-135201242D01*
X72112114Y-135333906D01*
X72104004Y-135349078D01*
X71997659Y-135478659D01*
X71868078Y-135585004D01*
X71868076Y-135585005D01*
X71720242Y-135664024D01*
X71559823Y-135712687D01*
X71434804Y-135725000D01*
X70551196Y-135725000D01*
X70426177Y-135712687D01*
X70265758Y-135664024D01*
X70117924Y-135585005D01*
X70117922Y-135585004D01*
X69988341Y-135478659D01*
X69881996Y-135349078D01*
X69873886Y-135333906D01*
X69802976Y-135201242D01*
X69801443Y-135196187D01*
X69766384Y-135080616D01*
X69754313Y-135040823D01*
X69737883Y-134874000D01*
X69754313Y-134707177D01*
X69802976Y-134546758D01*
X69881995Y-134398924D01*
X69881996Y-134398922D01*
X69988341Y-134269341D01*
X70117922Y-134162996D01*
X70146960Y-134147475D01*
X70265758Y-134083976D01*
X70426177Y-134035313D01*
X70551196Y-134023000D01*
X71434804Y-134023000D01*
X71559823Y-134035313D01*
G37*
G36*
X79179823Y-134035313D02*
G01*
X79340242Y-134083976D01*
X79459040Y-134147475D01*
X79488078Y-134162996D01*
X79617659Y-134269341D01*
X79724004Y-134398922D01*
X79724005Y-134398924D01*
X79803024Y-134546758D01*
X79851687Y-134707177D01*
X79868117Y-134874000D01*
X79851687Y-135040823D01*
X79839616Y-135080616D01*
X79804558Y-135196187D01*
X79803024Y-135201242D01*
X79732114Y-135333906D01*
X79724004Y-135349078D01*
X79617659Y-135478659D01*
X79488078Y-135585004D01*
X79488076Y-135585005D01*
X79340242Y-135664024D01*
X79179823Y-135712687D01*
X79054804Y-135725000D01*
X78171196Y-135725000D01*
X78046177Y-135712687D01*
X77885758Y-135664024D01*
X77737924Y-135585005D01*
X77737922Y-135585004D01*
X77608341Y-135478659D01*
X77501996Y-135349078D01*
X77493886Y-135333906D01*
X77422976Y-135201242D01*
X77421443Y-135196187D01*
X77386384Y-135080616D01*
X77374313Y-135040823D01*
X77357883Y-134874000D01*
X77374313Y-134707177D01*
X77422976Y-134546758D01*
X77501995Y-134398924D01*
X77501996Y-134398922D01*
X77608341Y-134269341D01*
X77737922Y-134162996D01*
X77766960Y-134147475D01*
X77885758Y-134083976D01*
X78046177Y-134035313D01*
X78171196Y-134023000D01*
X79054804Y-134023000D01*
X79179823Y-134035313D01*
G37*
G36*
X138940933Y-133974793D02*
G01*
X139095805Y-134038943D01*
X139235186Y-134132075D01*
X139353720Y-134250609D01*
X139446852Y-134389990D01*
X139511002Y-134544862D01*
X139543705Y-134709274D01*
X139543705Y-134876906D01*
X139511002Y-135041318D01*
X139446852Y-135196190D01*
X139353720Y-135335571D01*
X139235186Y-135454105D01*
X139095805Y-135547237D01*
X138940933Y-135611387D01*
X138776521Y-135644090D01*
X138608889Y-135644090D01*
X138444477Y-135611387D01*
X138289605Y-135547237D01*
X138150224Y-135454105D01*
X138031690Y-135335571D01*
X137938558Y-135196190D01*
X137874408Y-135041318D01*
X137841705Y-134876906D01*
X137841705Y-134709274D01*
X137874408Y-134544862D01*
X137938558Y-134389990D01*
X138031690Y-134250609D01*
X138150224Y-134132075D01*
X138289605Y-134038943D01*
X138444477Y-133974793D01*
X138608889Y-133942090D01*
X138776521Y-133942090D01*
X138940933Y-133974793D01*
G37*
G36*
X117388318Y-133974793D02*
G01*
X117543190Y-134038943D01*
X117682571Y-134132075D01*
X117801105Y-134250609D01*
X117894237Y-134389990D01*
X117958387Y-134544862D01*
X117991090Y-134709274D01*
X117991090Y-134876906D01*
X117958387Y-135041318D01*
X117894237Y-135196190D01*
X117801105Y-135335571D01*
X117682571Y-135454105D01*
X117543190Y-135547237D01*
X117388318Y-135611387D01*
X117223906Y-135644090D01*
X117056274Y-135644090D01*
X116891862Y-135611387D01*
X116736990Y-135547237D01*
X116597609Y-135454105D01*
X116479075Y-135335571D01*
X116385943Y-135196190D01*
X116321793Y-135041318D01*
X116289090Y-134876906D01*
X116289090Y-134709274D01*
X116321793Y-134544862D01*
X116385943Y-134389990D01*
X116479075Y-134250609D01*
X116597609Y-134132075D01*
X116736990Y-134038943D01*
X116891862Y-133974793D01*
X117056274Y-133942090D01*
X117223906Y-133942090D01*
X117388318Y-133974793D01*
G37*
G36*
X115592267Y-132178742D02*
G01*
X115747139Y-132242892D01*
X115886520Y-132336024D01*
X116005054Y-132454558D01*
X116098186Y-132593939D01*
X116162336Y-132748811D01*
X116195039Y-132913223D01*
X116195039Y-133080855D01*
X116162336Y-133245267D01*
X116098186Y-133400139D01*
X116005054Y-133539520D01*
X115886520Y-133658054D01*
X115747139Y-133751186D01*
X115592267Y-133815336D01*
X115427855Y-133848039D01*
X115260223Y-133848039D01*
X115095811Y-133815336D01*
X114940939Y-133751186D01*
X114801558Y-133658054D01*
X114683024Y-133539520D01*
X114589892Y-133400139D01*
X114525742Y-133245267D01*
X114493039Y-133080855D01*
X114493039Y-132913223D01*
X114525742Y-132748811D01*
X114589892Y-132593939D01*
X114683024Y-132454558D01*
X114801558Y-132336024D01*
X114940939Y-132242892D01*
X115095811Y-132178742D01*
X115260223Y-132146039D01*
X115427855Y-132146039D01*
X115592267Y-132178742D01*
G37*
G36*
X137144882Y-132178742D02*
G01*
X137299754Y-132242892D01*
X137439135Y-132336024D01*
X137557669Y-132454558D01*
X137650801Y-132593939D01*
X137714951Y-132748811D01*
X137747654Y-132913223D01*
X137747654Y-133080855D01*
X137714951Y-133245267D01*
X137650801Y-133400139D01*
X137557669Y-133539520D01*
X137439135Y-133658054D01*
X137299754Y-133751186D01*
X137144882Y-133815336D01*
X136980470Y-133848039D01*
X136812838Y-133848039D01*
X136648426Y-133815336D01*
X136493554Y-133751186D01*
X136354173Y-133658054D01*
X136235639Y-133539520D01*
X136142507Y-133400139D01*
X136078357Y-133245267D01*
X136045654Y-133080855D01*
X136045654Y-132913223D01*
X136078357Y-132748811D01*
X136142507Y-132593939D01*
X136235639Y-132454558D01*
X136354173Y-132336024D01*
X136493554Y-132242892D01*
X136648426Y-132178742D01*
X136812838Y-132146039D01*
X136980470Y-132146039D01*
X137144882Y-132178742D01*
G37*
G36*
X121782064Y-131704389D02*
G01*
X121973333Y-131783615D01*
X121973335Y-131783616D01*
X122145473Y-131898635D01*
X122291865Y-132045027D01*
X122381211Y-132178742D01*
X122406885Y-132217167D01*
X122486111Y-132408436D01*
X122526500Y-132611484D01*
X122526500Y-132818516D01*
X122486111Y-133021564D01*
X122443670Y-133124025D01*
X122406884Y-133212835D01*
X122291865Y-133384973D01*
X122145473Y-133531365D01*
X121973335Y-133646384D01*
X121973334Y-133646385D01*
X121973333Y-133646385D01*
X121782064Y-133725611D01*
X121579016Y-133766000D01*
X121371984Y-133766000D01*
X121168936Y-133725611D01*
X120977667Y-133646385D01*
X120977666Y-133646385D01*
X120977665Y-133646384D01*
X120805527Y-133531365D01*
X120659135Y-133384973D01*
X120544116Y-133212835D01*
X120507330Y-133124025D01*
X120464889Y-133021564D01*
X120424500Y-132818516D01*
X120424500Y-132611484D01*
X120464889Y-132408436D01*
X120544115Y-132217167D01*
X120569790Y-132178742D01*
X120659135Y-132045027D01*
X120805527Y-131898635D01*
X120977665Y-131783616D01*
X120977667Y-131783615D01*
X121168936Y-131704389D01*
X121371984Y-131664000D01*
X121579016Y-131664000D01*
X121782064Y-131704389D01*
G37*
G36*
X92387823Y-131558813D02*
G01*
X92518380Y-131598417D01*
X92537074Y-131604088D01*
X92548242Y-131607476D01*
X92653991Y-131664000D01*
X92696078Y-131686496D01*
X92825659Y-131792841D01*
X92932004Y-131922422D01*
X92932005Y-131922424D01*
X93011024Y-132070258D01*
X93059687Y-132230677D01*
X93076117Y-132397500D01*
X93059687Y-132564323D01*
X93011024Y-132724742D01*
X92965946Y-132809076D01*
X92932004Y-132872578D01*
X92825659Y-133002159D01*
X92696078Y-133108504D01*
X92696076Y-133108505D01*
X92548242Y-133187524D01*
X92387823Y-133236187D01*
X92262804Y-133248500D01*
X91379196Y-133248500D01*
X91254177Y-133236187D01*
X91093758Y-133187524D01*
X90945924Y-133108505D01*
X90945922Y-133108504D01*
X90816341Y-133002159D01*
X90709996Y-132872578D01*
X90676054Y-132809076D01*
X90630976Y-132724742D01*
X90582313Y-132564323D01*
X90565883Y-132397500D01*
X90582313Y-132230677D01*
X90630976Y-132070258D01*
X90709995Y-131922424D01*
X90709996Y-131922422D01*
X90816341Y-131792841D01*
X90945922Y-131686496D01*
X90988009Y-131664000D01*
X91093758Y-131607476D01*
X91104927Y-131604088D01*
X91123620Y-131598417D01*
X91254177Y-131558813D01*
X91379196Y-131546500D01*
X92262804Y-131546500D01*
X92387823Y-131558813D01*
G37*
G36*
X84767823Y-131558813D02*
G01*
X84898380Y-131598417D01*
X84917074Y-131604088D01*
X84928242Y-131607476D01*
X85033991Y-131664000D01*
X85076078Y-131686496D01*
X85205659Y-131792841D01*
X85312004Y-131922422D01*
X85312005Y-131922424D01*
X85391024Y-132070258D01*
X85439687Y-132230677D01*
X85456117Y-132397500D01*
X85439687Y-132564323D01*
X85391024Y-132724742D01*
X85345946Y-132809076D01*
X85312004Y-132872578D01*
X85205659Y-133002159D01*
X85076078Y-133108504D01*
X85076076Y-133108505D01*
X84928242Y-133187524D01*
X84767823Y-133236187D01*
X84642804Y-133248500D01*
X83759196Y-133248500D01*
X83634177Y-133236187D01*
X83473758Y-133187524D01*
X83325924Y-133108505D01*
X83325922Y-133108504D01*
X83196341Y-133002159D01*
X83089996Y-132872578D01*
X83056054Y-132809076D01*
X83010976Y-132724742D01*
X82962313Y-132564323D01*
X82945883Y-132397500D01*
X82962313Y-132230677D01*
X83010976Y-132070258D01*
X83089995Y-131922424D01*
X83089996Y-131922422D01*
X83196341Y-131792841D01*
X83325922Y-131686496D01*
X83368009Y-131664000D01*
X83473758Y-131607476D01*
X83484927Y-131604088D01*
X83503620Y-131598417D01*
X83634177Y-131558813D01*
X83759196Y-131546500D01*
X84642804Y-131546500D01*
X84767823Y-131558813D01*
G37*
G36*
X71559823Y-131495313D02*
G01*
X71720242Y-131543976D01*
X71838806Y-131607350D01*
X71868078Y-131622996D01*
X71997659Y-131729341D01*
X72104004Y-131858922D01*
X72104005Y-131858924D01*
X72183024Y-132006758D01*
X72183025Y-132006761D01*
X72186824Y-132019285D01*
X72231687Y-132167177D01*
X72248117Y-132334000D01*
X72231687Y-132500823D01*
X72183024Y-132661242D01*
X72136218Y-132748810D01*
X72104004Y-132809078D01*
X71997659Y-132938659D01*
X71868078Y-133045004D01*
X71868076Y-133045005D01*
X71720242Y-133124024D01*
X71559823Y-133172687D01*
X71434804Y-133185000D01*
X70551196Y-133185000D01*
X70426177Y-133172687D01*
X70265758Y-133124024D01*
X70117924Y-133045005D01*
X70117922Y-133045004D01*
X69988341Y-132938659D01*
X69881996Y-132809078D01*
X69849782Y-132748810D01*
X69802976Y-132661242D01*
X69754313Y-132500823D01*
X69737883Y-132334000D01*
X69754313Y-132167177D01*
X69799176Y-132019285D01*
X69802975Y-132006761D01*
X69802976Y-132006758D01*
X69881995Y-131858924D01*
X69881996Y-131858922D01*
X69988341Y-131729341D01*
X70117922Y-131622996D01*
X70147194Y-131607350D01*
X70265758Y-131543976D01*
X70426177Y-131495313D01*
X70551196Y-131483000D01*
X71434804Y-131483000D01*
X71559823Y-131495313D01*
G37*
G36*
X79179823Y-131495313D02*
G01*
X79340242Y-131543976D01*
X79458806Y-131607350D01*
X79488078Y-131622996D01*
X79617659Y-131729341D01*
X79724004Y-131858922D01*
X79724005Y-131858924D01*
X79803024Y-132006758D01*
X79803025Y-132006761D01*
X79806824Y-132019285D01*
X79851687Y-132167177D01*
X79868117Y-132334000D01*
X79851687Y-132500823D01*
X79803024Y-132661242D01*
X79756218Y-132748810D01*
X79724004Y-132809078D01*
X79617659Y-132938659D01*
X79488078Y-133045004D01*
X79488076Y-133045005D01*
X79340242Y-133124024D01*
X79179823Y-133172687D01*
X79054804Y-133185000D01*
X78171196Y-133185000D01*
X78046177Y-133172687D01*
X77885758Y-133124024D01*
X77737924Y-133045005D01*
X77737922Y-133045004D01*
X77608341Y-132938659D01*
X77501996Y-132809078D01*
X77469782Y-132748810D01*
X77422976Y-132661242D01*
X77374313Y-132500823D01*
X77357883Y-132334000D01*
X77374313Y-132167177D01*
X77419176Y-132019285D01*
X77422975Y-132006761D01*
X77422976Y-132006758D01*
X77501995Y-131858924D01*
X77501996Y-131858922D01*
X77608341Y-131729341D01*
X77737922Y-131622996D01*
X77767194Y-131607350D01*
X77885758Y-131543976D01*
X78046177Y-131495313D01*
X78171196Y-131483000D01*
X79054804Y-131483000D01*
X79179823Y-131495313D01*
G37*
G36*
X129560239Y-130290175D02*
G01*
X129751508Y-130369401D01*
X129751510Y-130369402D01*
X129923648Y-130484421D01*
X130070040Y-130630813D01*
X130113722Y-130696187D01*
X130185060Y-130802953D01*
X130264286Y-130994222D01*
X130304675Y-131197270D01*
X130304675Y-131404302D01*
X130264286Y-131607350D01*
X130207904Y-131743468D01*
X130185059Y-131798621D01*
X130070040Y-131970759D01*
X129923648Y-132117151D01*
X129751510Y-132232170D01*
X129751509Y-132232171D01*
X129751508Y-132232171D01*
X129560239Y-132311397D01*
X129357191Y-132351786D01*
X129150159Y-132351786D01*
X128947111Y-132311397D01*
X128755842Y-132232171D01*
X128755841Y-132232171D01*
X128755840Y-132232170D01*
X128583702Y-132117151D01*
X128437310Y-131970759D01*
X128322291Y-131798621D01*
X128299446Y-131743468D01*
X128243064Y-131607350D01*
X128202675Y-131404302D01*
X128202675Y-131197270D01*
X128243064Y-130994222D01*
X128322290Y-130802953D01*
X128393629Y-130696187D01*
X128437310Y-130630813D01*
X128583702Y-130484421D01*
X128755840Y-130369402D01*
X128755842Y-130369401D01*
X128947111Y-130290175D01*
X129150159Y-130249786D01*
X129357191Y-130249786D01*
X129560239Y-130290175D01*
G37*
G36*
X135348830Y-130382691D02*
G01*
X135503702Y-130446841D01*
X135643083Y-130539973D01*
X135761617Y-130658507D01*
X135854749Y-130797888D01*
X135918899Y-130952760D01*
X135951602Y-131117172D01*
X135951602Y-131284804D01*
X135918899Y-131449216D01*
X135854749Y-131604088D01*
X135761617Y-131743469D01*
X135643083Y-131862003D01*
X135503702Y-131955135D01*
X135348830Y-132019285D01*
X135184418Y-132051988D01*
X135016786Y-132051988D01*
X134852374Y-132019285D01*
X134697502Y-131955135D01*
X134558121Y-131862003D01*
X134439587Y-131743469D01*
X134346455Y-131604088D01*
X134282305Y-131449216D01*
X134249602Y-131284804D01*
X134249602Y-131117172D01*
X134282305Y-130952760D01*
X134346455Y-130797888D01*
X134439587Y-130658507D01*
X134558121Y-130539973D01*
X134697502Y-130446841D01*
X134852374Y-130382691D01*
X135016786Y-130349988D01*
X135184418Y-130349988D01*
X135348830Y-130382691D01*
G37*
G36*
X113796216Y-130382691D02*
G01*
X113951088Y-130446841D01*
X114090469Y-130539973D01*
X114209003Y-130658507D01*
X114302135Y-130797888D01*
X114366285Y-130952760D01*
X114398988Y-131117172D01*
X114398988Y-131284804D01*
X114366285Y-131449216D01*
X114302135Y-131604088D01*
X114209003Y-131743469D01*
X114090469Y-131862003D01*
X113951088Y-131955135D01*
X113796216Y-132019285D01*
X113631804Y-132051988D01*
X113464172Y-132051988D01*
X113299760Y-132019285D01*
X113144888Y-131955135D01*
X113005507Y-131862003D01*
X112886973Y-131743469D01*
X112793841Y-131604088D01*
X112729691Y-131449216D01*
X112696988Y-131284804D01*
X112696988Y-131117172D01*
X112729691Y-130952760D01*
X112793841Y-130797888D01*
X112886973Y-130658507D01*
X113005507Y-130539973D01*
X113144888Y-130446841D01*
X113299760Y-130382691D01*
X113464172Y-130349988D01*
X113631804Y-130349988D01*
X113796216Y-130382691D01*
G37*
G36*
X84767823Y-129018813D02*
G01*
X84928242Y-129067476D01*
X85044123Y-129129416D01*
X85076078Y-129146496D01*
X85205659Y-129252841D01*
X85312004Y-129382422D01*
X85312005Y-129382424D01*
X85391024Y-129530258D01*
X85439687Y-129690677D01*
X85456117Y-129857500D01*
X85439687Y-130024323D01*
X85391024Y-130184742D01*
X85356257Y-130249786D01*
X85312004Y-130332578D01*
X85205659Y-130462159D01*
X85076078Y-130568504D01*
X85076076Y-130568505D01*
X84928242Y-130647524D01*
X84767823Y-130696187D01*
X84642804Y-130708500D01*
X83759196Y-130708500D01*
X83634177Y-130696187D01*
X83473758Y-130647524D01*
X83325924Y-130568505D01*
X83325922Y-130568504D01*
X83196341Y-130462159D01*
X83089996Y-130332578D01*
X83045743Y-130249786D01*
X83010976Y-130184742D01*
X82962313Y-130024323D01*
X82945883Y-129857500D01*
X82962313Y-129690677D01*
X83010976Y-129530258D01*
X83089995Y-129382424D01*
X83089996Y-129382422D01*
X83196341Y-129252841D01*
X83325922Y-129146496D01*
X83357877Y-129129416D01*
X83473758Y-129067476D01*
X83634177Y-129018813D01*
X83759196Y-129006500D01*
X84642804Y-129006500D01*
X84767823Y-129018813D01*
G37*
G36*
X92387823Y-129018813D02*
G01*
X92548242Y-129067476D01*
X92664123Y-129129416D01*
X92696078Y-129146496D01*
X92825659Y-129252841D01*
X92932004Y-129382422D01*
X92932005Y-129382424D01*
X93011024Y-129530258D01*
X93059687Y-129690677D01*
X93076117Y-129857500D01*
X93059687Y-130024323D01*
X93011024Y-130184742D01*
X92976257Y-130249786D01*
X92932004Y-130332578D01*
X92825659Y-130462159D01*
X92696078Y-130568504D01*
X92696076Y-130568505D01*
X92548242Y-130647524D01*
X92387823Y-130696187D01*
X92262804Y-130708500D01*
X91379196Y-130708500D01*
X91254177Y-130696187D01*
X91093758Y-130647524D01*
X90945924Y-130568505D01*
X90945922Y-130568504D01*
X90816341Y-130462159D01*
X90709996Y-130332578D01*
X90665743Y-130249786D01*
X90630976Y-130184742D01*
X90582313Y-130024323D01*
X90565883Y-129857500D01*
X90582313Y-129690677D01*
X90630976Y-129530258D01*
X90709995Y-129382424D01*
X90709996Y-129382422D01*
X90816341Y-129252841D01*
X90945922Y-129146496D01*
X90977877Y-129129416D01*
X91093758Y-129067476D01*
X91254177Y-129018813D01*
X91379196Y-129006500D01*
X92262804Y-129006500D01*
X92387823Y-129018813D01*
G37*
G36*
X71559823Y-128955313D02*
G01*
X71720242Y-129003976D01*
X71806702Y-129050190D01*
X71868078Y-129082996D01*
X71997659Y-129189341D01*
X72104004Y-129318922D01*
X72104005Y-129318924D01*
X72183024Y-129466758D01*
X72231687Y-129627177D01*
X72248117Y-129794000D01*
X72231687Y-129960823D01*
X72183024Y-130121242D01*
X72128509Y-130223232D01*
X72104004Y-130269078D01*
X71997659Y-130398659D01*
X71868078Y-130505004D01*
X71868076Y-130505005D01*
X71720242Y-130584024D01*
X71559823Y-130632687D01*
X71434804Y-130645000D01*
X70551196Y-130645000D01*
X70426177Y-130632687D01*
X70265758Y-130584024D01*
X70117924Y-130505005D01*
X70117922Y-130505004D01*
X69988341Y-130398659D01*
X69881996Y-130269078D01*
X69857491Y-130223232D01*
X69802976Y-130121242D01*
X69754313Y-129960823D01*
X69737883Y-129794000D01*
X69754313Y-129627177D01*
X69802976Y-129466758D01*
X69881995Y-129318924D01*
X69881996Y-129318922D01*
X69988341Y-129189341D01*
X70117922Y-129082996D01*
X70179298Y-129050190D01*
X70265758Y-129003976D01*
X70426177Y-128955313D01*
X70551196Y-128943000D01*
X71434804Y-128943000D01*
X71559823Y-128955313D01*
G37*
G36*
X79179823Y-128955313D02*
G01*
X79340242Y-129003976D01*
X79426702Y-129050190D01*
X79488078Y-129082996D01*
X79617659Y-129189341D01*
X79724004Y-129318922D01*
X79724005Y-129318924D01*
X79803024Y-129466758D01*
X79851687Y-129627177D01*
X79868117Y-129794000D01*
X79851687Y-129960823D01*
X79803024Y-130121242D01*
X79748509Y-130223232D01*
X79724004Y-130269078D01*
X79617659Y-130398659D01*
X79488078Y-130505004D01*
X79488076Y-130505005D01*
X79340242Y-130584024D01*
X79179823Y-130632687D01*
X79054804Y-130645000D01*
X78171196Y-130645000D01*
X78046177Y-130632687D01*
X77885758Y-130584024D01*
X77737924Y-130505005D01*
X77737922Y-130505004D01*
X77608341Y-130398659D01*
X77501996Y-130269078D01*
X77477491Y-130223232D01*
X77422976Y-130121242D01*
X77374313Y-129960823D01*
X77357883Y-129794000D01*
X77374313Y-129627177D01*
X77422976Y-129466758D01*
X77501995Y-129318924D01*
X77501996Y-129318922D01*
X77608341Y-129189341D01*
X77737922Y-129082996D01*
X77799298Y-129050190D01*
X77885758Y-129003976D01*
X78046177Y-128955313D01*
X78171196Y-128943000D01*
X79054804Y-128943000D01*
X79179823Y-128955313D01*
G37*
G36*
X133552779Y-128586640D02*
G01*
X133707651Y-128650790D01*
X133847032Y-128743922D01*
X133965566Y-128862456D01*
X134058698Y-129001837D01*
X134122848Y-129156709D01*
X134155551Y-129321121D01*
X134155551Y-129488753D01*
X134122848Y-129653165D01*
X134058698Y-129808037D01*
X133965566Y-129947418D01*
X133847032Y-130065952D01*
X133707651Y-130159084D01*
X133552779Y-130223234D01*
X133388367Y-130255937D01*
X133220735Y-130255937D01*
X133056323Y-130223234D01*
X132901451Y-130159084D01*
X132762070Y-130065952D01*
X132643536Y-129947418D01*
X132550404Y-129808037D01*
X132486254Y-129653165D01*
X132453551Y-129488753D01*
X132453551Y-129321121D01*
X132486254Y-129156709D01*
X132550404Y-129001837D01*
X132643536Y-128862456D01*
X132762070Y-128743922D01*
X132901451Y-128650790D01*
X133056323Y-128586640D01*
X133220735Y-128553937D01*
X133388367Y-128553937D01*
X133552779Y-128586640D01*
G37*
G36*
X112000165Y-128586640D02*
G01*
X112155037Y-128650790D01*
X112294418Y-128743922D01*
X112412952Y-128862456D01*
X112506084Y-129001837D01*
X112570234Y-129156709D01*
X112602937Y-129321121D01*
X112602937Y-129488753D01*
X112570234Y-129653165D01*
X112506084Y-129808037D01*
X112412952Y-129947418D01*
X112294418Y-130065952D01*
X112155037Y-130159084D01*
X112000165Y-130223234D01*
X111835753Y-130255937D01*
X111668121Y-130255937D01*
X111503709Y-130223234D01*
X111348837Y-130159084D01*
X111209456Y-130065952D01*
X111090922Y-129947418D01*
X110997790Y-129808037D01*
X110933640Y-129653165D01*
X110900937Y-129488753D01*
X110900937Y-129321121D01*
X110933640Y-129156709D01*
X110997790Y-129001837D01*
X111090922Y-128862456D01*
X111209456Y-128743922D01*
X111348837Y-128650790D01*
X111503709Y-128586640D01*
X111668121Y-128553937D01*
X111835753Y-128553937D01*
X112000165Y-128586640D01*
G37*
G36*
X126378258Y-127108195D02*
G01*
X126569527Y-127187421D01*
X126569529Y-127187422D01*
X126669170Y-127254000D01*
X126741667Y-127302441D01*
X126888059Y-127448833D01*
X127003079Y-127620973D01*
X127082305Y-127812242D01*
X127122694Y-128015290D01*
X127122694Y-128222322D01*
X127082305Y-128425370D01*
X127081555Y-128427180D01*
X127003078Y-128616641D01*
X126888059Y-128788779D01*
X126741667Y-128935171D01*
X126569529Y-129050190D01*
X126569528Y-129050191D01*
X126569527Y-129050191D01*
X126378258Y-129129417D01*
X126175210Y-129169806D01*
X125968178Y-129169806D01*
X125765130Y-129129417D01*
X125573861Y-129050191D01*
X125573860Y-129050191D01*
X125573859Y-129050190D01*
X125401721Y-128935171D01*
X125255329Y-128788779D01*
X125140310Y-128616641D01*
X125061833Y-128427180D01*
X125061083Y-128425370D01*
X125020694Y-128222322D01*
X125020694Y-128015290D01*
X125061083Y-127812242D01*
X125140309Y-127620973D01*
X125255329Y-127448833D01*
X125401721Y-127302441D01*
X125474218Y-127254000D01*
X125573859Y-127187422D01*
X125573861Y-127187421D01*
X125765130Y-127108195D01*
X125968178Y-127067806D01*
X126175210Y-127067806D01*
X126378258Y-127108195D01*
G37*
G36*
X110204113Y-126790588D02*
G01*
X110358985Y-126854738D01*
X110498366Y-126947870D01*
X110616900Y-127066404D01*
X110710032Y-127205785D01*
X110774182Y-127360657D01*
X110806885Y-127525069D01*
X110806885Y-127692701D01*
X110774182Y-127857113D01*
X110710032Y-128011985D01*
X110616900Y-128151366D01*
X110498366Y-128269900D01*
X110358985Y-128363032D01*
X110204113Y-128427182D01*
X110039701Y-128459885D01*
X109872069Y-128459885D01*
X109707657Y-128427182D01*
X109552785Y-128363032D01*
X109413404Y-128269900D01*
X109294870Y-128151366D01*
X109201738Y-128011985D01*
X109137588Y-127857113D01*
X109104885Y-127692701D01*
X109104885Y-127525069D01*
X109137588Y-127360657D01*
X109201738Y-127205785D01*
X109294870Y-127066404D01*
X109413404Y-126947870D01*
X109552785Y-126854738D01*
X109707657Y-126790588D01*
X109872069Y-126757885D01*
X110039701Y-126757885D01*
X110204113Y-126790588D01*
G37*
G36*
X131756728Y-126790588D02*
G01*
X131911600Y-126854738D01*
X132050981Y-126947870D01*
X132169515Y-127066404D01*
X132262647Y-127205785D01*
X132326797Y-127360657D01*
X132359500Y-127525069D01*
X132359500Y-127692701D01*
X132326797Y-127857113D01*
X132262647Y-128011985D01*
X132169515Y-128151366D01*
X132050981Y-128269900D01*
X131911600Y-128363032D01*
X131756728Y-128427182D01*
X131592316Y-128459885D01*
X131424684Y-128459885D01*
X131260272Y-128427182D01*
X131105400Y-128363032D01*
X130966019Y-128269900D01*
X130847485Y-128151366D01*
X130754353Y-128011985D01*
X130690203Y-127857113D01*
X130657500Y-127692701D01*
X130657500Y-127525069D01*
X130690203Y-127360657D01*
X130754353Y-127205785D01*
X130847485Y-127066404D01*
X130966019Y-126947870D01*
X131105400Y-126854738D01*
X131260272Y-126790588D01*
X131424684Y-126757885D01*
X131592316Y-126757885D01*
X131756728Y-126790588D01*
G37*
G36*
X84767823Y-126478813D02*
G01*
X84928242Y-126527476D01*
X85002152Y-126566982D01*
X85076078Y-126606496D01*
X85205659Y-126712841D01*
X85312004Y-126842422D01*
X85312005Y-126842424D01*
X85391024Y-126990258D01*
X85439687Y-127150677D01*
X85456117Y-127317500D01*
X85439687Y-127484323D01*
X85391024Y-127644742D01*
X85365390Y-127692700D01*
X85312004Y-127792578D01*
X85205659Y-127922159D01*
X85076078Y-128028504D01*
X85076076Y-128028505D01*
X84928242Y-128107524D01*
X84767823Y-128156187D01*
X84642804Y-128168500D01*
X83759196Y-128168500D01*
X83634177Y-128156187D01*
X83473758Y-128107524D01*
X83325924Y-128028505D01*
X83325922Y-128028504D01*
X83196341Y-127922159D01*
X83089996Y-127792578D01*
X83036610Y-127692700D01*
X83010976Y-127644742D01*
X82962313Y-127484323D01*
X82945883Y-127317500D01*
X82962313Y-127150677D01*
X83010976Y-126990258D01*
X83089995Y-126842424D01*
X83089996Y-126842422D01*
X83196341Y-126712841D01*
X83325922Y-126606496D01*
X83399848Y-126566982D01*
X83473758Y-126527476D01*
X83634177Y-126478813D01*
X83759196Y-126466500D01*
X84642804Y-126466500D01*
X84767823Y-126478813D01*
G37*
G36*
X93072000Y-128168500D02*
G01*
X90570000Y-128168500D01*
X90570000Y-126466500D01*
X93072000Y-126466500D01*
X93072000Y-128168500D01*
G37*
G36*
X79864000Y-128105000D02*
G01*
X77362000Y-128105000D01*
X77362000Y-126403000D01*
X79864000Y-126403000D01*
X79864000Y-128105000D01*
G37*
G36*
X71559823Y-126415313D02*
G01*
X71720242Y-126463976D01*
X71839040Y-126527475D01*
X71868078Y-126542996D01*
X71997659Y-126649341D01*
X72104004Y-126778922D01*
X72104005Y-126778924D01*
X72183024Y-126926758D01*
X72231687Y-127087177D01*
X72248117Y-127254000D01*
X72231687Y-127420823D01*
X72183024Y-127581242D01*
X72123448Y-127692700D01*
X72104004Y-127729078D01*
X71997659Y-127858659D01*
X71868078Y-127965004D01*
X71868076Y-127965005D01*
X71720242Y-128044024D01*
X71559823Y-128092687D01*
X71434804Y-128105000D01*
X70551196Y-128105000D01*
X70426177Y-128092687D01*
X70265758Y-128044024D01*
X70117924Y-127965005D01*
X70117922Y-127965004D01*
X69988341Y-127858659D01*
X69881996Y-127729078D01*
X69862552Y-127692700D01*
X69802976Y-127581242D01*
X69754313Y-127420823D01*
X69737883Y-127254000D01*
X69754313Y-127087177D01*
X69802976Y-126926758D01*
X69881995Y-126778924D01*
X69881996Y-126778922D01*
X69988341Y-126649341D01*
X70117922Y-126542996D01*
X70146960Y-126527475D01*
X70265758Y-126463976D01*
X70426177Y-126415313D01*
X70551196Y-126403000D01*
X71434804Y-126403000D01*
X71559823Y-126415313D01*
G37*
G36*
X108408062Y-124994537D02*
G01*
X108562934Y-125058687D01*
X108702315Y-125151819D01*
X108820849Y-125270353D01*
X108913981Y-125409734D01*
X108978131Y-125564606D01*
X109010834Y-125729018D01*
X109010834Y-125896650D01*
X108978131Y-126061062D01*
X108913981Y-126215934D01*
X108820849Y-126355315D01*
X108702315Y-126473849D01*
X108562934Y-126566981D01*
X108408062Y-126631131D01*
X108243650Y-126663834D01*
X108076018Y-126663834D01*
X107911606Y-126631131D01*
X107756734Y-126566981D01*
X107617353Y-126473849D01*
X107498819Y-126355315D01*
X107405687Y-126215934D01*
X107341537Y-126061062D01*
X107308834Y-125896650D01*
X107308834Y-125729018D01*
X107341537Y-125564606D01*
X107405687Y-125409734D01*
X107498819Y-125270353D01*
X107617353Y-125151819D01*
X107756734Y-125058687D01*
X107911606Y-124994537D01*
X108076018Y-124961834D01*
X108243650Y-124961834D01*
X108408062Y-124994537D01*
G37*
G36*
X129960677Y-124994537D02*
G01*
X130115549Y-125058687D01*
X130254930Y-125151819D01*
X130373464Y-125270353D01*
X130466596Y-125409734D01*
X130530746Y-125564606D01*
X130563449Y-125729018D01*
X130563449Y-125896650D01*
X130530746Y-126061062D01*
X130466596Y-126215934D01*
X130373464Y-126355315D01*
X130254930Y-126473849D01*
X130115549Y-126566981D01*
X129960677Y-126631131D01*
X129796265Y-126663834D01*
X129628633Y-126663834D01*
X129464221Y-126631131D01*
X129309349Y-126566981D01*
X129169968Y-126473849D01*
X129051434Y-126355315D01*
X128958302Y-126215934D01*
X128894152Y-126061062D01*
X128861449Y-125896650D01*
X128861449Y-125729018D01*
X128894152Y-125564606D01*
X128958302Y-125409734D01*
X129051434Y-125270353D01*
X129169968Y-125151819D01*
X129309349Y-125058687D01*
X129464221Y-124994537D01*
X129628633Y-124961834D01*
X129796265Y-124961834D01*
X129960677Y-124994537D01*
G37*
G36*
X106612011Y-123198486D02*
G01*
X106766883Y-123262636D01*
X106906264Y-123355768D01*
X107024798Y-123474302D01*
X107117930Y-123613683D01*
X107182080Y-123768555D01*
X107214783Y-123932967D01*
X107214783Y-124100599D01*
X107182080Y-124265011D01*
X107117930Y-124419883D01*
X107024798Y-124559264D01*
X106906264Y-124677798D01*
X106766883Y-124770930D01*
X106612011Y-124835080D01*
X106447599Y-124867783D01*
X106279967Y-124867783D01*
X106115555Y-124835080D01*
X105960683Y-124770930D01*
X105821302Y-124677798D01*
X105702768Y-124559264D01*
X105609636Y-124419883D01*
X105545486Y-124265011D01*
X105512783Y-124100599D01*
X105512783Y-123932967D01*
X105545486Y-123768555D01*
X105609636Y-123613683D01*
X105702768Y-123474302D01*
X105821302Y-123355768D01*
X105960683Y-123262636D01*
X106115555Y-123198486D01*
X106279967Y-123165783D01*
X106447599Y-123165783D01*
X106612011Y-123198486D01*
G37*
G36*
X128164626Y-123198486D02*
G01*
X128319498Y-123262636D01*
X128458879Y-123355768D01*
X128577413Y-123474302D01*
X128670545Y-123613683D01*
X128734695Y-123768555D01*
X128767398Y-123932967D01*
X128767398Y-124100599D01*
X128734695Y-124265011D01*
X128670545Y-124419883D01*
X128577413Y-124559264D01*
X128458879Y-124677798D01*
X128319498Y-124770930D01*
X128164626Y-124835080D01*
X128000214Y-124867783D01*
X127832582Y-124867783D01*
X127668170Y-124835080D01*
X127513298Y-124770930D01*
X127373917Y-124677798D01*
X127255383Y-124559264D01*
X127162251Y-124419883D01*
X127098101Y-124265011D01*
X127065398Y-124100599D01*
X127065398Y-123932967D01*
X127098101Y-123768555D01*
X127162251Y-123613683D01*
X127255383Y-123474302D01*
X127373917Y-123355768D01*
X127513298Y-123262636D01*
X127668170Y-123198486D01*
X127832582Y-123165783D01*
X128000214Y-123165783D01*
X128164626Y-123198486D01*
G37*
G36*
X126368574Y-121402435D02*
G01*
X126523446Y-121466585D01*
X126662827Y-121559717D01*
X126781361Y-121678251D01*
X126874493Y-121817632D01*
X126938643Y-121972504D01*
X126971346Y-122136916D01*
X126971346Y-122304548D01*
X126938643Y-122468960D01*
X126874493Y-122623832D01*
X126781361Y-122763213D01*
X126662827Y-122881747D01*
X126523446Y-122974879D01*
X126368574Y-123039029D01*
X126204162Y-123071732D01*
X126036530Y-123071732D01*
X125872118Y-123039029D01*
X125717246Y-122974879D01*
X125577865Y-122881747D01*
X125459331Y-122763213D01*
X125366199Y-122623832D01*
X125302049Y-122468960D01*
X125269346Y-122304548D01*
X125269346Y-122136916D01*
X125302049Y-121972504D01*
X125366199Y-121817632D01*
X125459331Y-121678251D01*
X125577865Y-121559717D01*
X125717246Y-121466585D01*
X125872118Y-121402435D01*
X126036530Y-121369732D01*
X126204162Y-121369732D01*
X126368574Y-121402435D01*
G37*
G36*
X135935598Y-117816033D02*
G01*
X136399850Y-118008332D01*
X136399852Y-118008333D01*
X136817668Y-118287509D01*
X137172991Y-118642832D01*
X137329362Y-118876858D01*
X137452168Y-119060650D01*
X137644467Y-119524902D01*
X137742500Y-120017747D01*
X137742500Y-120520253D01*
X137644467Y-121013098D01*
X137483198Y-121402437D01*
X137452167Y-121477352D01*
X137172991Y-121895168D01*
X136817668Y-122250491D01*
X136399852Y-122529667D01*
X136399851Y-122529668D01*
X136399850Y-122529668D01*
X135935598Y-122721967D01*
X135442753Y-122820000D01*
X134940247Y-122820000D01*
X134447402Y-122721967D01*
X133983150Y-122529668D01*
X133983149Y-122529668D01*
X133983148Y-122529667D01*
X133565332Y-122250491D01*
X133210009Y-121895168D01*
X132930833Y-121477352D01*
X132899802Y-121402437D01*
X132738533Y-121013098D01*
X132640500Y-120520253D01*
X132640500Y-120017747D01*
X132738533Y-119524902D01*
X132930832Y-119060650D01*
X133053638Y-118876858D01*
X133210009Y-118642832D01*
X133565332Y-118287509D01*
X133983148Y-118008333D01*
X133983150Y-118008332D01*
X134447402Y-117816033D01*
X134940247Y-117718000D01*
X135442753Y-117718000D01*
X135935598Y-117816033D01*
G37*
G36*
X75102598Y-117816033D02*
G01*
X75566850Y-118008332D01*
X75566852Y-118008333D01*
X75984668Y-118287509D01*
X76339991Y-118642832D01*
X76496362Y-118876858D01*
X76619168Y-119060650D01*
X76811467Y-119524902D01*
X76909500Y-120017747D01*
X76909500Y-120520253D01*
X76811467Y-121013098D01*
X76650198Y-121402437D01*
X76619167Y-121477352D01*
X76339991Y-121895168D01*
X75984668Y-122250491D01*
X75566852Y-122529667D01*
X75566851Y-122529668D01*
X75566850Y-122529668D01*
X75102598Y-122721967D01*
X74609753Y-122820000D01*
X74107247Y-122820000D01*
X73614402Y-122721967D01*
X73150150Y-122529668D01*
X73150149Y-122529668D01*
X73150148Y-122529667D01*
X72732332Y-122250491D01*
X72377009Y-121895168D01*
X72097833Y-121477352D01*
X72066802Y-121402437D01*
X71905533Y-121013098D01*
X71807500Y-120520253D01*
X71807500Y-120017747D01*
X71905533Y-119524902D01*
X72097832Y-119060650D01*
X72220638Y-118876858D01*
X72377009Y-118642832D01*
X72732332Y-118287509D01*
X73150148Y-118008333D01*
X73150150Y-118008332D01*
X73614402Y-117816033D01*
X74107247Y-117718000D01*
X74609753Y-117718000D01*
X75102598Y-117816033D01*
G37*
G36*
X124572523Y-119606383D02*
G01*
X124727395Y-119670533D01*
X124866776Y-119763665D01*
X124985310Y-119882199D01*
X125078442Y-120021580D01*
X125142592Y-120176452D01*
X125175295Y-120340864D01*
X125175295Y-120508496D01*
X125142592Y-120672908D01*
X125078442Y-120827780D01*
X124985310Y-120967161D01*
X124866776Y-121085695D01*
X124727395Y-121178827D01*
X124572523Y-121242977D01*
X124408111Y-121275680D01*
X124240479Y-121275680D01*
X124076067Y-121242977D01*
X123921195Y-121178827D01*
X123781814Y-121085695D01*
X123663280Y-120967161D01*
X123570148Y-120827780D01*
X123505998Y-120672908D01*
X123473295Y-120508496D01*
X123473295Y-120340864D01*
X123505998Y-120176452D01*
X123570148Y-120021580D01*
X123663280Y-119882199D01*
X123781814Y-119763665D01*
X123921195Y-119670533D01*
X124076067Y-119606383D01*
X124240479Y-119573680D01*
X124408111Y-119573680D01*
X124572523Y-119606383D01*
G37*
G36*
X122776472Y-117810332D02*
G01*
X122931344Y-117874482D01*
X123070725Y-117967614D01*
X123189259Y-118086148D01*
X123282391Y-118225529D01*
X123346541Y-118380401D01*
X123379244Y-118544813D01*
X123379244Y-118712445D01*
X123346541Y-118876857D01*
X123282391Y-119031729D01*
X123189259Y-119171110D01*
X123070725Y-119289644D01*
X122931344Y-119382776D01*
X122776472Y-119446926D01*
X122612060Y-119479629D01*
X122444428Y-119479629D01*
X122280016Y-119446926D01*
X122125144Y-119382776D01*
X121985763Y-119289644D01*
X121867229Y-119171110D01*
X121774097Y-119031729D01*
X121709947Y-118876857D01*
X121677244Y-118712445D01*
X121677244Y-118544813D01*
X121709947Y-118380401D01*
X121774097Y-118225529D01*
X121867229Y-118086148D01*
X121985763Y-117967614D01*
X122125144Y-117874482D01*
X122280016Y-117810332D01*
X122444428Y-117777629D01*
X122612060Y-117777629D01*
X122776472Y-117810332D01*
G37*
G36*
X120980421Y-116014281D02*
G01*
X121135293Y-116078431D01*
X121274674Y-116171563D01*
X121393208Y-116290097D01*
X121486340Y-116429478D01*
X121550490Y-116584350D01*
X121583193Y-116748762D01*
X121583193Y-116916394D01*
X121550490Y-117080806D01*
X121486340Y-117235678D01*
X121393208Y-117375059D01*
X121274674Y-117493593D01*
X121135293Y-117586725D01*
X120980421Y-117650875D01*
X120816009Y-117683578D01*
X120648377Y-117683578D01*
X120483965Y-117650875D01*
X120329093Y-117586725D01*
X120189712Y-117493593D01*
X120071178Y-117375059D01*
X119978046Y-117235678D01*
X119913896Y-117080806D01*
X119881193Y-116916394D01*
X119881193Y-116748762D01*
X119913896Y-116584350D01*
X119978046Y-116429478D01*
X120071178Y-116290097D01*
X120189712Y-116171563D01*
X120329093Y-116078431D01*
X120483965Y-116014281D01*
X120648377Y-115981578D01*
X120816009Y-115981578D01*
X120980421Y-116014281D01*
G37*
G36*
X86219512Y-115689927D02*
G01*
X86368812Y-115719624D01*
X86532784Y-115787544D01*
X86680354Y-115886147D01*
X86805853Y-116011646D01*
X86904456Y-116159216D01*
X86972376Y-116323188D01*
X87007000Y-116497259D01*
X87007000Y-116674741D01*
X86972376Y-116848812D01*
X86904456Y-117012784D01*
X86805853Y-117160354D01*
X86680354Y-117285853D01*
X86532784Y-117384456D01*
X86368812Y-117452376D01*
X86219512Y-117482073D01*
X86194742Y-117487000D01*
X86017258Y-117487000D01*
X85992488Y-117482073D01*
X85843188Y-117452376D01*
X85679216Y-117384456D01*
X85531646Y-117285853D01*
X85406147Y-117160354D01*
X85307544Y-117012784D01*
X85239624Y-116848812D01*
X85205000Y-116674741D01*
X85205000Y-116497259D01*
X85239624Y-116323188D01*
X85307544Y-116159216D01*
X85406147Y-116011646D01*
X85531646Y-115886147D01*
X85679216Y-115787544D01*
X85843188Y-115719624D01*
X85992488Y-115689927D01*
X86017258Y-115685000D01*
X86194742Y-115685000D01*
X86219512Y-115689927D01*
G37*
G36*
X89547000Y-117487000D02*
G01*
X87745000Y-117487000D01*
X87745000Y-115685000D01*
X89547000Y-115685000D01*
X89547000Y-117487000D01*
G37*
G36*
X119184369Y-114218230D02*
G01*
X119339241Y-114282380D01*
X119478622Y-114375512D01*
X119597156Y-114494046D01*
X119690288Y-114633427D01*
X119754438Y-114788299D01*
X119787141Y-114952711D01*
X119787141Y-115120343D01*
X119754438Y-115284755D01*
X119690288Y-115439627D01*
X119597156Y-115579008D01*
X119478622Y-115697542D01*
X119339241Y-115790674D01*
X119184369Y-115854824D01*
X119019957Y-115887527D01*
X118852325Y-115887527D01*
X118687913Y-115854824D01*
X118533041Y-115790674D01*
X118393660Y-115697542D01*
X118275126Y-115579008D01*
X118181994Y-115439627D01*
X118117844Y-115284755D01*
X118085141Y-115120343D01*
X118085141Y-114952711D01*
X118117844Y-114788299D01*
X118181994Y-114633427D01*
X118275126Y-114494046D01*
X118393660Y-114375512D01*
X118533041Y-114282380D01*
X118687913Y-114218230D01*
X118852325Y-114185527D01*
X119019957Y-114185527D01*
X119184369Y-114218230D01*
G37*
G36*
X117388318Y-112422179D02*
G01*
X117543190Y-112486329D01*
X117682571Y-112579461D01*
X117801105Y-112697995D01*
X117894237Y-112837376D01*
X117958387Y-112992248D01*
X117991090Y-113156660D01*
X117991090Y-113324292D01*
X117958387Y-113488704D01*
X117894237Y-113643576D01*
X117801105Y-113782957D01*
X117682571Y-113901491D01*
X117543190Y-113994623D01*
X117388318Y-114058773D01*
X117223906Y-114091476D01*
X117056274Y-114091476D01*
X116891862Y-114058773D01*
X116736990Y-113994623D01*
X116597609Y-113901491D01*
X116479075Y-113782957D01*
X116385943Y-113643576D01*
X116321793Y-113488704D01*
X116289090Y-113324292D01*
X116289090Y-113156660D01*
X116321793Y-112992248D01*
X116385943Y-112837376D01*
X116479075Y-112697995D01*
X116597609Y-112579461D01*
X116736990Y-112486329D01*
X116891862Y-112422179D01*
X117056274Y-112389476D01*
X117223906Y-112389476D01*
X117388318Y-112422179D01*
G37*
M02*
