G04 #@! TF.GenerationSoftware,KiCad,Pcbnew,(5.1.5)-3*
G04 #@! TF.CreationDate,2020-10-31T02:17:23+01:00*
G04 #@! TF.ProjectId,Christmas C,43687269-7374-46d6-9173-20432e6b6963,rev?*
G04 #@! TF.SameCoordinates,Original*
G04 #@! TF.FileFunction,Copper,L2,Bot*
G04 #@! TF.FilePolarity,Positive*
%FSLAX46Y46*%
G04 Gerber Fmt 4.6, Leading zero omitted, Abs format (unit mm)*
G04 Created by KiCad (PCBNEW (5.1.5)-3) date 2020-10-31 02:17:23*
%MOMM*%
%LPD*%
G04 APERTURE LIST*
%ADD10C,0.100000*%
%ADD11C,1.600000*%
%ADD12R,2.400000X1.600000*%
%ADD13O,2.400000X1.600000*%
%ADD14O,1.700000X1.700000*%
%ADD15R,1.700000X1.700000*%
%ADD16C,2.000000*%
%ADD17C,5.000000*%
%ADD18C,0.800000*%
%ADD19C,0.250000*%
%ADD20C,0.381000*%
G04 APERTURE END LIST*
G04 #@! TA.AperFunction,ComponentPad*
D10*
G36*
X131508500Y-150292871D02*
G01*
X130377129Y-149161500D01*
X131508500Y-148030129D01*
X132639871Y-149161500D01*
X131508500Y-150292871D01*
G37*
G04 #@! TD.AperFunction*
D11*
X118936141Y-115036527D02*
X118936141Y-115036527D01*
X129712449Y-147365449D02*
X129712449Y-147365449D01*
X120732193Y-116832578D02*
X120732193Y-116832578D01*
X127916398Y-145569398D02*
X127916398Y-145569398D01*
X122528244Y-118628629D02*
X122528244Y-118628629D01*
X126120346Y-143773346D02*
X126120346Y-143773346D01*
X124324295Y-120424680D02*
X124324295Y-120424680D01*
X124324295Y-141977295D02*
X124324295Y-141977295D01*
X126120346Y-122220732D02*
X126120346Y-122220732D01*
X122528244Y-140181244D02*
X122528244Y-140181244D01*
X127916398Y-124016783D02*
X127916398Y-124016783D01*
X120732193Y-138385193D02*
X120732193Y-138385193D01*
X129712449Y-125812834D02*
X129712449Y-125812834D01*
X118936141Y-136589141D02*
X118936141Y-136589141D01*
X131508500Y-127608885D02*
X131508500Y-127608885D01*
X117140090Y-134793090D02*
X117140090Y-134793090D01*
X133304551Y-129404937D02*
X133304551Y-129404937D01*
X115344039Y-132997039D02*
X115344039Y-132997039D01*
X135100602Y-131200988D02*
X135100602Y-131200988D01*
X113547988Y-131200988D02*
X113547988Y-131200988D01*
X136896654Y-132997039D02*
X136896654Y-132997039D01*
X111751937Y-129404937D02*
X111751937Y-129404937D01*
X138692705Y-134793090D02*
X138692705Y-134793090D01*
X109955885Y-127608885D02*
X109955885Y-127608885D01*
X140488756Y-136589141D02*
X140488756Y-136589141D01*
X108159834Y-125812834D02*
X108159834Y-125812834D01*
X142284807Y-138385193D02*
X142284807Y-138385193D01*
X106363783Y-124016783D02*
X106363783Y-124016783D01*
X117140090Y-113240476D02*
X117140090Y-113240476D01*
D12*
X78613000Y-127254000D03*
D13*
X70993000Y-145034000D03*
X78613000Y-129794000D03*
X70993000Y-142494000D03*
X78613000Y-132334000D03*
X70993000Y-139954000D03*
X78613000Y-134874000D03*
X70993000Y-137414000D03*
X78613000Y-137414000D03*
X70993000Y-134874000D03*
X78613000Y-139954000D03*
X70993000Y-132334000D03*
X78613000Y-142494000D03*
X70993000Y-129794000D03*
X78613000Y-145034000D03*
X70993000Y-127254000D03*
D14*
X91567000Y-155511500D03*
X94107000Y-155511500D03*
X96647000Y-155511500D03*
X99187000Y-155511500D03*
D15*
X101727000Y-155511500D03*
D14*
X99949000Y-137414000D03*
X99949000Y-139954000D03*
X99949000Y-142494000D03*
X99949000Y-145034000D03*
D15*
X99949000Y-147574000D03*
D14*
X117983000Y-145859500D03*
X115443000Y-145859500D03*
X112903000Y-145859500D03*
X110363000Y-145859500D03*
D15*
X107823000Y-145859500D03*
X109601000Y-153797000D03*
D14*
X109601000Y-156337000D03*
X109601000Y-158877000D03*
X109601000Y-161417000D03*
X109601000Y-163957000D03*
X86106000Y-116586000D03*
D15*
X88646000Y-116586000D03*
D16*
X126071694Y-128118806D03*
X129253675Y-131300786D03*
X121475500Y-132715000D03*
X124657481Y-135896981D03*
D12*
X91821000Y-127317500D03*
D13*
X84201000Y-145097500D03*
X91821000Y-129857500D03*
X84201000Y-142557500D03*
X91821000Y-132397500D03*
X84201000Y-140017500D03*
X91821000Y-134937500D03*
X84201000Y-137477500D03*
X91821000Y-137477500D03*
X84201000Y-134937500D03*
X91821000Y-140017500D03*
X84201000Y-132397500D03*
X91821000Y-142557500D03*
X84201000Y-129857500D03*
X91821000Y-145097500D03*
X84201000Y-127317500D03*
D17*
X135191500Y-120269000D03*
X74358500Y-181102000D03*
X74358500Y-120269000D03*
X135191500Y-181102000D03*
D18*
X81114900Y-142544800D03*
X85979000Y-128612900D03*
X87782400Y-140017500D03*
X94234000Y-137414000D03*
X106337100Y-142151100D03*
X113157000Y-143002000D03*
X87757000Y-137490200D03*
X93726000Y-136144000D03*
X107062110Y-141222890D03*
X112014000Y-142176500D03*
X96011982Y-131699000D03*
X73406000Y-133985000D03*
X73406000Y-137160000D03*
X73406000Y-139700008D03*
X73406000Y-141605000D03*
D19*
X129253675Y-132714999D02*
X129253675Y-131300786D01*
X126071694Y-135896981D02*
X129253675Y-132714999D01*
X124657481Y-135896981D02*
X126071694Y-135896981D01*
X114990437Y-129404937D02*
X111751937Y-129404937D01*
X124657481Y-135896981D02*
X121482481Y-135896981D01*
X121482481Y-135896981D02*
X114990437Y-129404937D01*
D20*
X84201000Y-125730000D02*
X84201000Y-127317500D01*
X81026000Y-125095000D02*
X83566000Y-125095000D01*
D19*
X81114900Y-125183900D02*
X81114900Y-141979115D01*
X81114900Y-141979115D02*
X81114900Y-142544800D01*
X81026000Y-125095000D02*
X81114900Y-125183900D01*
D20*
X70993000Y-125603000D02*
X70993000Y-127254000D01*
X81026000Y-125095000D02*
X71501000Y-125095000D01*
X71501000Y-125095000D02*
X70993000Y-125603000D01*
X89828000Y-118999000D02*
X119824500Y-118999000D01*
X133822539Y-132997039D02*
X136896654Y-132997039D01*
X119824500Y-118999000D02*
X133822539Y-132997039D01*
X85471000Y-118999000D02*
X84201000Y-120269000D01*
X84201000Y-120269000D02*
X84201000Y-124460000D01*
X83566000Y-125095000D02*
X84201000Y-124460000D01*
X84201000Y-124460000D02*
X84201000Y-125730000D01*
X88646000Y-118935500D02*
X88646000Y-116586000D01*
X89828000Y-118999000D02*
X88582500Y-118999000D01*
X88582500Y-118999000D02*
X88646000Y-118935500D01*
X88582500Y-118999000D02*
X85471000Y-118999000D01*
D19*
X85979000Y-122555000D02*
X87122000Y-121412000D01*
X85979000Y-128612900D02*
X85979000Y-122555000D01*
X87122000Y-121412000D02*
X99441000Y-121412000D01*
X110182488Y-131200988D02*
X113547988Y-131200988D01*
X99441000Y-121412000D02*
X109229988Y-131200988D01*
X109229988Y-131200988D02*
X110182488Y-131200988D01*
X87216715Y-140017500D02*
X84201000Y-140017500D01*
X87782400Y-140017500D02*
X87216715Y-140017500D01*
X96647000Y-135001000D02*
X94234000Y-137414000D01*
X105918000Y-135001000D02*
X96647000Y-135001000D01*
X106337100Y-142151100D02*
X106337100Y-135420100D01*
X106337100Y-135420100D02*
X105918000Y-135001000D01*
X116115386Y-143002000D02*
X113157000Y-143002000D01*
X120732193Y-138385193D02*
X116115386Y-143002000D01*
X101727000Y-165862000D02*
X101727000Y-155511500D01*
X102108000Y-166243000D02*
X101727000Y-165862000D01*
X107061000Y-166116000D02*
X106934000Y-166243000D01*
X107823000Y-152146000D02*
X107061000Y-152908000D01*
X106934000Y-166243000D02*
X102108000Y-166243000D01*
X107061000Y-152908000D02*
X107061000Y-166116000D01*
X122174000Y-152146000D02*
X107823000Y-152146000D01*
X122555000Y-151765000D02*
X122174000Y-152146000D01*
X122528244Y-151738244D02*
X122528244Y-140181244D01*
X122555000Y-151765000D02*
X122528244Y-151738244D01*
X84201000Y-137477500D02*
X87744300Y-137477500D01*
X87744300Y-137477500D02*
X87757000Y-137490200D01*
X95504000Y-134366000D02*
X94125999Y-135744001D01*
X106172000Y-134366000D02*
X95504000Y-134366000D01*
X107062110Y-141222890D02*
X107062110Y-135256110D01*
X94125999Y-135744001D02*
X93726000Y-136144000D01*
X107062110Y-135256110D02*
X106172000Y-134366000D01*
X124324295Y-139754795D02*
X121475500Y-136906000D01*
X115125500Y-142176500D02*
X112579685Y-142176500D01*
X112579685Y-142176500D02*
X112014000Y-142176500D01*
X121475500Y-136906000D02*
X120396000Y-136906000D01*
X124324295Y-141977295D02*
X124324295Y-139754795D01*
X120396000Y-136906000D02*
X115125500Y-142176500D01*
X91567000Y-156845000D02*
X91567000Y-155511500D01*
X90805000Y-157607000D02*
X91567000Y-156845000D01*
X77163000Y-132334000D02*
X76581000Y-132916000D01*
X78613000Y-132334000D02*
X77163000Y-132334000D01*
X76581000Y-156591000D02*
X77597000Y-157607000D01*
X76581000Y-132916000D02*
X76581000Y-156591000D01*
X77597000Y-157607000D02*
X90805000Y-157607000D01*
X75946000Y-131011000D02*
X77163000Y-129794000D01*
X77163000Y-129794000D02*
X78613000Y-129794000D01*
X94107000Y-157480000D02*
X93345000Y-158242000D01*
X93345000Y-158242000D02*
X76962000Y-158242000D01*
X94107000Y-155511500D02*
X94107000Y-157480000D01*
X76962000Y-158242000D02*
X75946000Y-157226000D01*
X75946000Y-157226000D02*
X75946000Y-131011000D01*
X96647000Y-158115000D02*
X96647000Y-155511500D01*
X95885000Y-158877000D02*
X96647000Y-158115000D01*
X78613000Y-127254000D02*
X75692000Y-127254000D01*
X75692000Y-127254000D02*
X75311000Y-127635000D01*
X75311000Y-127635000D02*
X75311000Y-157861000D01*
X75311000Y-157861000D02*
X76327000Y-158877000D01*
X76327000Y-158877000D02*
X95885000Y-158877000D01*
X74295000Y-129794000D02*
X70993000Y-129794000D01*
X74676000Y-130175000D02*
X74295000Y-129794000D01*
X99187000Y-156713581D02*
X96388581Y-159512000D01*
X96388581Y-159512000D02*
X75819000Y-159512000D01*
X99187000Y-155511500D02*
X99187000Y-156713581D01*
X75819000Y-159512000D02*
X74676000Y-158369000D01*
X74676000Y-158369000D02*
X74676000Y-130175000D01*
X110109000Y-134493000D02*
X107315000Y-131699000D01*
X115443000Y-144526000D02*
X115062000Y-144145000D01*
X107315000Y-131699000D02*
X96577667Y-131699000D01*
X115443000Y-145859500D02*
X115443000Y-144526000D01*
X115062000Y-144145000D02*
X112522000Y-144145000D01*
X96577667Y-131699000D02*
X96011982Y-131699000D01*
X110109000Y-141732000D02*
X110109000Y-134493000D01*
X112522000Y-144145000D02*
X110109000Y-141732000D01*
X112903000Y-145637250D02*
X112903000Y-145859500D01*
X109347000Y-142081250D02*
X112903000Y-145637250D01*
X92970496Y-129857500D02*
X95573996Y-132461000D01*
X95573996Y-132461000D02*
X106934000Y-132461000D01*
X91821000Y-129857500D02*
X92970496Y-129857500D01*
X106934000Y-132461000D02*
X109347000Y-134874000D01*
X109347000Y-134874000D02*
X109347000Y-142081250D01*
X110363000Y-144145000D02*
X110363000Y-145859500D01*
X108585000Y-142367000D02*
X110363000Y-144145000D01*
X108585000Y-135001000D02*
X108585000Y-142367000D01*
X95123000Y-133096000D02*
X106680000Y-133096000D01*
X89916000Y-130556000D02*
X90424000Y-131064000D01*
X91821000Y-127317500D02*
X90371000Y-127317500D01*
X89916000Y-127772500D02*
X89916000Y-130556000D01*
X106680000Y-133096000D02*
X108585000Y-135001000D01*
X93091000Y-131064000D02*
X95123000Y-133096000D01*
X90371000Y-127317500D02*
X89916000Y-127772500D01*
X90424000Y-131064000D02*
X93091000Y-131064000D01*
X107823000Y-144759500D02*
X107823000Y-145859500D01*
X107823000Y-135128000D02*
X107823000Y-144759500D01*
X106426000Y-133731000D02*
X107823000Y-135128000D01*
X85651000Y-129857500D02*
X86741000Y-130947500D01*
X84201000Y-129857500D02*
X85651000Y-129857500D01*
X86741000Y-130947500D02*
X86741000Y-132715000D01*
X86741000Y-132715000D02*
X87757000Y-133731000D01*
X87757000Y-133731000D02*
X106426000Y-133731000D01*
X113157000Y-158083250D02*
X111410750Y-156337000D01*
X113157000Y-168338500D02*
X113157000Y-158083250D01*
X73006001Y-133585001D02*
X68090999Y-133585001D01*
X73850500Y-168973500D02*
X112522000Y-168973500D01*
X73406000Y-133985000D02*
X73006001Y-133585001D01*
X68090999Y-133585001D02*
X67056000Y-134620000D01*
X111410750Y-156337000D02*
X109601000Y-156337000D01*
X67056000Y-134620000D02*
X67056000Y-162179000D01*
X112522000Y-168973500D02*
X113157000Y-168338500D01*
X67056000Y-162179000D02*
X73850500Y-168973500D01*
X68562010Y-136288990D02*
X72534990Y-136288990D01*
X74104500Y-168338500D02*
X67691000Y-161925000D01*
X72534990Y-136288990D02*
X73406000Y-137160000D01*
X67691000Y-161925000D02*
X67691000Y-137160000D01*
X110680500Y-158877000D02*
X112522000Y-160718500D01*
X109601000Y-158877000D02*
X110680500Y-158877000D01*
X67691000Y-137160000D02*
X68562010Y-136288990D01*
X111887000Y-168338500D02*
X74104500Y-168338500D01*
X112522000Y-160718500D02*
X112522000Y-167703500D01*
X112522000Y-167703500D02*
X111887000Y-168338500D01*
X73006001Y-139300009D02*
X73406000Y-139700008D01*
X72370973Y-138664981D02*
X73006001Y-139300009D01*
X68726019Y-138664981D02*
X72370973Y-138664981D01*
X68326000Y-161671000D02*
X68326000Y-139065000D01*
X109601000Y-161417000D02*
X111887000Y-163703000D01*
X111887000Y-167068500D02*
X111252000Y-167703500D01*
X68326000Y-139065000D02*
X68726019Y-138664981D01*
X111252000Y-167703500D02*
X74358500Y-167703500D01*
X111887000Y-163703000D02*
X111887000Y-167068500D01*
X74358500Y-167703500D02*
X68326000Y-161671000D01*
X68961000Y-141605000D02*
X69360999Y-141205001D01*
X68961000Y-161417000D02*
X68961000Y-141605000D01*
X74612500Y-167068500D02*
X68961000Y-161417000D01*
X110553500Y-163957000D02*
X111125000Y-164528500D01*
X73006001Y-141205001D02*
X73406000Y-141605000D01*
X109601000Y-163957000D02*
X110553500Y-163957000D01*
X111125000Y-164528500D02*
X111125000Y-166560500D01*
X111125000Y-166560500D02*
X110617000Y-167068500D01*
X69360999Y-141205001D02*
X73006001Y-141205001D01*
X110617000Y-167068500D02*
X74612500Y-167068500D01*
X99949000Y-139954000D02*
X97155000Y-139954000D01*
X94551500Y-142557500D02*
X91821000Y-142557500D01*
X97155000Y-139954000D02*
X94551500Y-142557500D01*
X99099001Y-143343999D02*
X99949000Y-142494000D01*
X90297000Y-143891000D02*
X98552000Y-143891000D01*
X90371000Y-140017500D02*
X89916000Y-140472500D01*
X91821000Y-140017500D02*
X90371000Y-140017500D01*
X89916000Y-140472500D02*
X89916000Y-143510000D01*
X98552000Y-143891000D02*
X99099001Y-143343999D01*
X89916000Y-143510000D02*
X90297000Y-143891000D01*
X94361000Y-146685000D02*
X96012000Y-145034000D01*
X90233500Y-137477500D02*
X89281000Y-138430000D01*
X91821000Y-137477500D02*
X90233500Y-137477500D01*
X89281000Y-138430000D02*
X89281000Y-146304000D01*
X96012000Y-145034000D02*
X99949000Y-145034000D01*
X89281000Y-146304000D02*
X89662000Y-146685000D01*
X89662000Y-146685000D02*
X94361000Y-146685000D01*
X89027000Y-147574000D02*
X99949000Y-147574000D01*
X88646000Y-147193000D02*
X89027000Y-147574000D01*
X88646000Y-135890000D02*
X88646000Y-147193000D01*
X91821000Y-134937500D02*
X89598500Y-134937500D01*
X89598500Y-134937500D02*
X88646000Y-135890000D01*
M02*
