G04 #@! TF.GenerationSoftware,KiCad,Pcbnew,(5.1.5)-3*
G04 #@! TF.CreationDate,2020-10-16T01:56:22+02:00*
G04 #@! TF.ProjectId,Christmas C,43687269-7374-46d6-9173-20432e6b6963,rev?*
G04 #@! TF.SameCoordinates,Original*
G04 #@! TF.FileFunction,Copper,L1,Top*
G04 #@! TF.FilePolarity,Positive*
%FSLAX46Y46*%
G04 Gerber Fmt 4.6, Leading zero omitted, Abs format (unit mm)*
G04 Created by KiCad (PCBNEW (5.1.5)-3) date 2020-10-16 01:56:22*
%MOMM*%
%LPD*%
G04 APERTURE LIST*
%ADD10C,0.200000*%
%ADD11C,0.100000*%
%ADD12C,1.600000*%
%ADD13O,1.700000X1.700000*%
%ADD14R,1.700000X1.700000*%
%ADD15C,1.700000*%
%ADD16C,2.000000*%
%ADD17O,2.400000X1.600000*%
%ADD18R,2.400000X1.600000*%
%ADD19C,5.000000*%
%ADD20C,0.800000*%
%ADD21C,0.250000*%
%ADD22C,0.254000*%
G04 APERTURE END LIST*
D10*
X144843500Y-150685500D02*
G75*
G03X144843500Y-150685500I-40068500J0D01*
G01*
G04 #@! TA.AperFunction,ComponentPad*
D11*
G36*
X140462000Y-138632129D02*
G01*
X141593371Y-139763500D01*
X140462000Y-140894871D01*
X139330629Y-139763500D01*
X140462000Y-138632129D01*
G37*
G04 #@! TD.AperFunction*
D12*
X106337027Y-127191141D02*
X106337027Y-127191141D01*
X138665949Y-137967449D02*
X138665949Y-137967449D01*
X108133078Y-128987193D02*
X108133078Y-128987193D01*
X136869898Y-136171398D02*
X136869898Y-136171398D01*
X109929129Y-130783244D02*
X109929129Y-130783244D01*
X135073846Y-134375346D02*
X135073846Y-134375346D01*
X111725180Y-132579295D02*
X111725180Y-132579295D01*
X133277795Y-132579295D02*
X133277795Y-132579295D01*
X113521232Y-134375346D02*
X113521232Y-134375346D01*
X131481744Y-130783244D02*
X131481744Y-130783244D01*
X115317283Y-136171398D02*
X115317283Y-136171398D01*
X129685693Y-128987193D02*
X129685693Y-128987193D01*
X117113334Y-137967449D02*
X117113334Y-137967449D01*
X127889641Y-127191141D02*
X127889641Y-127191141D01*
X118909385Y-139763500D02*
X118909385Y-139763500D01*
X126093590Y-125395090D02*
X126093590Y-125395090D01*
X120705437Y-141559551D02*
X120705437Y-141559551D01*
X124297539Y-123599039D02*
X124297539Y-123599039D01*
X122501488Y-143355602D02*
X122501488Y-143355602D01*
X122501488Y-121802988D02*
X122501488Y-121802988D01*
X124297539Y-145151654D02*
X124297539Y-145151654D01*
X120705437Y-120006937D02*
X120705437Y-120006937D01*
X126093590Y-146947705D02*
X126093590Y-146947705D01*
X118909385Y-118210885D02*
X118909385Y-118210885D01*
X127889641Y-148743756D02*
X127889641Y-148743756D01*
X117113334Y-116414834D02*
X117113334Y-116414834D01*
X129685693Y-150539807D02*
X129685693Y-150539807D01*
X115317283Y-114618783D02*
X115317283Y-114618783D01*
X104540976Y-125395090D02*
X104540976Y-125395090D01*
D13*
X91567000Y-152844500D03*
X94107000Y-152844500D03*
X96647000Y-152844500D03*
X99187000Y-152844500D03*
D14*
X101727000Y-152844500D03*
D13*
X117983000Y-148336000D03*
X115443000Y-148336000D03*
X112903000Y-148336000D03*
X110363000Y-148336000D03*
D14*
X107823000Y-148336000D03*
X106934000Y-153733500D03*
D13*
X106934000Y-156273500D03*
X106934000Y-158813500D03*
X106934000Y-161353500D03*
X106934000Y-163893500D03*
X102616000Y-137477500D03*
X102616000Y-140017500D03*
X102616000Y-142557500D03*
X102616000Y-145097500D03*
D14*
X102616000Y-147637500D03*
D15*
X132733051Y-124795551D02*
X132733051Y-124795551D01*
G04 #@! TA.AperFunction,ComponentPad*
D11*
G36*
X130937000Y-121797418D02*
G01*
X132139082Y-122999500D01*
X130937000Y-124201582D01*
X129734918Y-122999500D01*
X130937000Y-121797418D01*
G37*
G04 #@! TD.AperFunction*
D16*
X123468194Y-129769806D03*
X126650175Y-132951786D03*
X118872000Y-134366000D03*
X122053981Y-137547981D03*
D17*
X76327000Y-125349000D03*
X83947000Y-143129000D03*
X76327000Y-127889000D03*
X83947000Y-140589000D03*
X76327000Y-130429000D03*
X83947000Y-138049000D03*
X76327000Y-132969000D03*
X83947000Y-135509000D03*
X76327000Y-135509000D03*
X83947000Y-132969000D03*
X76327000Y-138049000D03*
X83947000Y-130429000D03*
X76327000Y-140589000D03*
X83947000Y-127889000D03*
X76327000Y-143129000D03*
D18*
X83947000Y-125349000D03*
X97155000Y-125412500D03*
D17*
X89535000Y-143192500D03*
X97155000Y-127952500D03*
X89535000Y-140652500D03*
X97155000Y-130492500D03*
X89535000Y-138112500D03*
X97155000Y-133032500D03*
X89535000Y-135572500D03*
X97155000Y-135572500D03*
X89535000Y-133032500D03*
X97155000Y-138112500D03*
X89535000Y-130492500D03*
X97155000Y-140652500D03*
X89535000Y-127952500D03*
X97155000Y-143192500D03*
X89535000Y-125412500D03*
D19*
X135191500Y-120269000D03*
X74358500Y-181102000D03*
X74358500Y-120269000D03*
X135191500Y-181102000D03*
D20*
X86448900Y-140639800D03*
X91313000Y-126707900D03*
X110769400Y-143598900D03*
X106337100Y-143116300D03*
X98767900Y-136855200D03*
X93116400Y-138112500D03*
X111760000Y-166370000D03*
X107315000Y-166279990D03*
X111721900Y-142862300D03*
X107062110Y-142157529D03*
X93091000Y-135585200D03*
X98806000Y-134327900D03*
X108585000Y-146049992D03*
X78740000Y-132080000D03*
X78740000Y-135255000D03*
X78740000Y-137795008D03*
X78740000Y-139700000D03*
D21*
X76559700Y-141871700D02*
X85217000Y-141871700D01*
X86048901Y-141039799D02*
X86448900Y-140639800D01*
X76327000Y-141639000D02*
X76559700Y-141871700D01*
X85217000Y-141871700D02*
X86048901Y-141039799D01*
X76327000Y-140589000D02*
X76327000Y-141639000D01*
X86461600Y-140652500D02*
X86448900Y-140639800D01*
X89535000Y-140652500D02*
X86461600Y-140652500D01*
X77777000Y-130429000D02*
X78983500Y-129222500D01*
X76327000Y-130429000D02*
X77777000Y-130429000D01*
X78983500Y-129222500D02*
X90843100Y-129222500D01*
X90843100Y-129222500D02*
X91313000Y-128752600D01*
X91313000Y-128752600D02*
X91313000Y-126707900D01*
X78828600Y-138520010D02*
X79482600Y-139174010D01*
X89523490Y-139174010D02*
X89535000Y-139162500D01*
X76327000Y-138049000D02*
X77777000Y-138049000D01*
X78248010Y-138520010D02*
X78828600Y-138520010D01*
X89535000Y-139162500D02*
X89535000Y-138112500D01*
X79482600Y-139174010D02*
X89523490Y-139174010D01*
X77777000Y-138049000D02*
X78248010Y-138520010D01*
X106819700Y-143598900D02*
X106337100Y-143116300D01*
X110769400Y-143598900D02*
X106819700Y-143598900D01*
X98767900Y-136855200D02*
X94373700Y-136855200D01*
X94373700Y-136855200D02*
X93116400Y-138112500D01*
X111760000Y-166370000D02*
X107405010Y-166370000D01*
X107405010Y-166370000D02*
X107315000Y-166279990D01*
X89535000Y-135999010D02*
X89535000Y-135572500D01*
X78849010Y-136634010D02*
X88900000Y-136634010D01*
X88900000Y-136634010D02*
X89535000Y-135999010D01*
X76327000Y-135509000D02*
X77724000Y-135509000D01*
X77724000Y-135509000D02*
X78849010Y-136634010D01*
X107766881Y-142862300D02*
X107062110Y-142157529D01*
X111721900Y-142862300D02*
X107766881Y-142862300D01*
X93091000Y-135585200D02*
X94348300Y-134327900D01*
X94348300Y-134327900D02*
X98806000Y-134327900D01*
X109220000Y-146685000D02*
X108585000Y-146050000D01*
X114363500Y-146685000D02*
X109220000Y-146685000D01*
X108585000Y-146050000D02*
X108585000Y-146049992D01*
X115443000Y-147764500D02*
X114363500Y-146685000D01*
X115443000Y-148336000D02*
X115443000Y-147764500D01*
X83947000Y-132969000D02*
X79629000Y-132969000D01*
X79629000Y-132969000D02*
X78740000Y-132080000D01*
X83947000Y-135509000D02*
X78994000Y-135509000D01*
X78994000Y-135509000D02*
X78740000Y-135255000D01*
X83947000Y-138049000D02*
X78993992Y-138049000D01*
X78993992Y-138049000D02*
X78740000Y-137795008D01*
X83947000Y-140589000D02*
X79629000Y-140589000D01*
X79629000Y-140589000D02*
X78740000Y-139700000D01*
X74295000Y-142547000D02*
X74877000Y-143129000D01*
X74820990Y-134094010D02*
X74295000Y-134620000D01*
X74877000Y-143129000D02*
X76327000Y-143129000D01*
X85725000Y-133350000D02*
X84980990Y-134094010D01*
X86042500Y-130492500D02*
X85725000Y-130810000D01*
X89535000Y-130492500D02*
X86042500Y-130492500D01*
X74295000Y-134620000D02*
X74295000Y-142547000D01*
X85725000Y-130810000D02*
X85725000Y-133350000D01*
X84980990Y-134094010D02*
X74820990Y-134094010D01*
D22*
G36*
X107892178Y-111475713D02*
G01*
X110372741Y-111752358D01*
X112830763Y-112185774D01*
X115256348Y-112774214D01*
X117639728Y-113515310D01*
X119971306Y-114406077D01*
X122241694Y-115442929D01*
X124441750Y-116621690D01*
X126562615Y-117937614D01*
X128595749Y-119385402D01*
X130532965Y-120959224D01*
X130775168Y-121182936D01*
X130692820Y-121207916D01*
X130582506Y-121266881D01*
X130485815Y-121346233D01*
X129283733Y-122548315D01*
X129204381Y-122645006D01*
X129145416Y-122755320D01*
X129109106Y-122875018D01*
X129096846Y-122999500D01*
X129109106Y-123123982D01*
X129145416Y-123243680D01*
X129204381Y-123353994D01*
X129283733Y-123450685D01*
X130485815Y-124652767D01*
X130582506Y-124732119D01*
X130692820Y-124791084D01*
X130812518Y-124827394D01*
X130937000Y-124839654D01*
X131061482Y-124827394D01*
X131181180Y-124791084D01*
X131255503Y-124751357D01*
X131249642Y-124864366D01*
X131291571Y-125152443D01*
X131388895Y-125426804D01*
X131461414Y-125562469D01*
X131709758Y-125639239D01*
X132553446Y-124795551D01*
X132539304Y-124781409D01*
X132718909Y-124601804D01*
X132733051Y-124615946D01*
X132747194Y-124601804D01*
X132926799Y-124781409D01*
X132912656Y-124795551D01*
X133756810Y-125639705D01*
X134004692Y-125562472D01*
X134129876Y-125299651D01*
X134201382Y-125017457D01*
X134216460Y-124726736D01*
X134196117Y-124586967D01*
X135693219Y-126371144D01*
X137173083Y-128381051D01*
X138522491Y-130480770D01*
X139736009Y-132661847D01*
X140808752Y-134915499D01*
X141736400Y-137232651D01*
X142515217Y-139603972D01*
X143142068Y-142019916D01*
X143614428Y-144470752D01*
X143930395Y-146946613D01*
X144088697Y-149437529D01*
X144088697Y-151933471D01*
X143930395Y-154424387D01*
X143614428Y-156900248D01*
X143142068Y-159351084D01*
X142515217Y-161767028D01*
X141736400Y-164138349D01*
X140808752Y-166455501D01*
X139736009Y-168709153D01*
X138522491Y-170890230D01*
X137173083Y-172989949D01*
X135693219Y-174999856D01*
X134088859Y-176911858D01*
X132366462Y-178718256D01*
X130532965Y-180411776D01*
X128595749Y-181985598D01*
X126562615Y-183433386D01*
X124441750Y-184749310D01*
X122241694Y-185928071D01*
X119971306Y-186964923D01*
X117639728Y-187855690D01*
X115256348Y-188596786D01*
X112830763Y-189185226D01*
X110372741Y-189618642D01*
X107892178Y-189895287D01*
X105399064Y-190014049D01*
X102903437Y-189974448D01*
X100415346Y-189776645D01*
X97944809Y-189421436D01*
X95501776Y-188910250D01*
X93096082Y-188245147D01*
X90737416Y-187428805D01*
X88435274Y-186464510D01*
X86198926Y-185356146D01*
X84037377Y-184108175D01*
X81959332Y-182725623D01*
X79973157Y-181214057D01*
X78086850Y-179579563D01*
X76308007Y-177828723D01*
X74643791Y-175968586D01*
X73100902Y-174006644D01*
X71685554Y-171950796D01*
X70403446Y-169809319D01*
X69259739Y-167590838D01*
X68259040Y-165304285D01*
X67405378Y-162958868D01*
X66702190Y-160564029D01*
X66152308Y-158129414D01*
X65757945Y-155664824D01*
X65520691Y-153180185D01*
X65441500Y-150685500D01*
X65469720Y-149796500D01*
X89125807Y-149796500D01*
X89129000Y-149828918D01*
X89129001Y-151542071D01*
X89125807Y-151574500D01*
X89138550Y-151703883D01*
X89176290Y-151828293D01*
X89237575Y-151942950D01*
X89320052Y-152043448D01*
X89420550Y-152125925D01*
X89535207Y-152187210D01*
X89659617Y-152224950D01*
X89756581Y-152234500D01*
X89789000Y-152237693D01*
X89821419Y-152234500D01*
X90212318Y-152234500D01*
X90139068Y-152411342D01*
X90082000Y-152698240D01*
X90082000Y-152990760D01*
X90139068Y-153277658D01*
X90251010Y-153547911D01*
X90413525Y-153791132D01*
X90620368Y-153997975D01*
X90863589Y-154160490D01*
X91133842Y-154272432D01*
X91420740Y-154329500D01*
X91713260Y-154329500D01*
X92000158Y-154272432D01*
X92270411Y-154160490D01*
X92513632Y-153997975D01*
X92720475Y-153791132D01*
X92837000Y-153616740D01*
X92953525Y-153791132D01*
X93160368Y-153997975D01*
X93403589Y-154160490D01*
X93673842Y-154272432D01*
X93960740Y-154329500D01*
X94253260Y-154329500D01*
X94540158Y-154272432D01*
X94810411Y-154160490D01*
X95053632Y-153997975D01*
X95260475Y-153791132D01*
X95377000Y-153616740D01*
X95493525Y-153791132D01*
X95700368Y-153997975D01*
X95943589Y-154160490D01*
X96213842Y-154272432D01*
X96500740Y-154329500D01*
X96793260Y-154329500D01*
X97080158Y-154272432D01*
X97350411Y-154160490D01*
X97593632Y-153997975D01*
X97800475Y-153791132D01*
X97917000Y-153616740D01*
X98033525Y-153791132D01*
X98240368Y-153997975D01*
X98483589Y-154160490D01*
X98753842Y-154272432D01*
X99040740Y-154329500D01*
X99333260Y-154329500D01*
X99620158Y-154272432D01*
X99890411Y-154160490D01*
X100133632Y-153997975D01*
X100265487Y-153866120D01*
X100287498Y-153938680D01*
X100346463Y-154048994D01*
X100425815Y-154145685D01*
X100522506Y-154225037D01*
X100632820Y-154284002D01*
X100752518Y-154320312D01*
X100877000Y-154332572D01*
X102577000Y-154332572D01*
X102701482Y-154320312D01*
X102821180Y-154284002D01*
X102931494Y-154225037D01*
X103028185Y-154145685D01*
X103107537Y-154048994D01*
X103166502Y-153938680D01*
X103202812Y-153818982D01*
X103215072Y-153694500D01*
X103215072Y-152234500D01*
X103226000Y-152234500D01*
X103226001Y-165639071D01*
X103222807Y-165671500D01*
X103235550Y-165800883D01*
X103273290Y-165925293D01*
X103334575Y-166039950D01*
X103417052Y-166140448D01*
X103517550Y-166222925D01*
X103632207Y-166284210D01*
X103756617Y-166321950D01*
X103853581Y-166331500D01*
X103886000Y-166334693D01*
X103918419Y-166331500D01*
X105631581Y-166331500D01*
X105664000Y-166334693D01*
X105696419Y-166331500D01*
X105793383Y-166321950D01*
X105917793Y-166284210D01*
X106032450Y-166222925D01*
X106132948Y-166140448D01*
X106215425Y-166039950D01*
X106276710Y-165925293D01*
X106314450Y-165800883D01*
X106327193Y-165671500D01*
X106324000Y-165639081D01*
X106324000Y-165248182D01*
X106500842Y-165321432D01*
X106787740Y-165378500D01*
X106801225Y-165378500D01*
X106655226Y-165476053D01*
X106511063Y-165620216D01*
X106397795Y-165789734D01*
X106319774Y-165978092D01*
X106280000Y-166178051D01*
X106280000Y-166381929D01*
X106319774Y-166581888D01*
X106397795Y-166770246D01*
X106511063Y-166939764D01*
X106655226Y-167083927D01*
X106824744Y-167197195D01*
X107013102Y-167275216D01*
X107213061Y-167314990D01*
X107416939Y-167314990D01*
X107616898Y-167275216D01*
X107805256Y-167197195D01*
X107905821Y-167130000D01*
X111056289Y-167130000D01*
X111100226Y-167173937D01*
X111269744Y-167287205D01*
X111458102Y-167365226D01*
X111658061Y-167405000D01*
X111861939Y-167405000D01*
X112061898Y-167365226D01*
X112250256Y-167287205D01*
X112419774Y-167173937D01*
X112563937Y-167029774D01*
X112677205Y-166860256D01*
X112755226Y-166671898D01*
X112795000Y-166471939D01*
X112795000Y-166268061D01*
X112755226Y-166068102D01*
X112677205Y-165879744D01*
X112563937Y-165710226D01*
X112419774Y-165566063D01*
X112250256Y-165452795D01*
X112061898Y-165374774D01*
X111861939Y-165335000D01*
X111658061Y-165335000D01*
X111458102Y-165374774D01*
X111269744Y-165452795D01*
X111100226Y-165566063D01*
X111056289Y-165610000D01*
X108108721Y-165610000D01*
X107974774Y-165476053D01*
X107805256Y-165362785D01*
X107616898Y-165284764D01*
X107507985Y-165263100D01*
X107637411Y-165209490D01*
X107880632Y-165046975D01*
X108087475Y-164840132D01*
X108249990Y-164596911D01*
X108361932Y-164326658D01*
X108419000Y-164039760D01*
X108419000Y-163747240D01*
X108361932Y-163460342D01*
X108249990Y-163190089D01*
X108087475Y-162946868D01*
X107880632Y-162740025D01*
X107706240Y-162623500D01*
X107880632Y-162506975D01*
X108087475Y-162300132D01*
X108249990Y-162056911D01*
X108361932Y-161786658D01*
X108419000Y-161499760D01*
X108419000Y-161207240D01*
X108361932Y-160920342D01*
X108249990Y-160650089D01*
X108087475Y-160406868D01*
X107880632Y-160200025D01*
X107706240Y-160083500D01*
X107880632Y-159966975D01*
X108087475Y-159760132D01*
X108249990Y-159516911D01*
X108361932Y-159246658D01*
X108419000Y-158959760D01*
X108419000Y-158667240D01*
X108361932Y-158380342D01*
X108249990Y-158110089D01*
X108087475Y-157866868D01*
X107880632Y-157660025D01*
X107706240Y-157543500D01*
X107880632Y-157426975D01*
X108087475Y-157220132D01*
X108249990Y-156976911D01*
X108361932Y-156706658D01*
X108419000Y-156419760D01*
X108419000Y-156127240D01*
X108361932Y-155840342D01*
X108249990Y-155570089D01*
X108087475Y-155326868D01*
X107955620Y-155195013D01*
X108028180Y-155173002D01*
X108138494Y-155114037D01*
X108235185Y-155034685D01*
X108314537Y-154937994D01*
X108373502Y-154827680D01*
X108409812Y-154707982D01*
X108422072Y-154583500D01*
X108422072Y-152883500D01*
X108409812Y-152759018D01*
X108373502Y-152639320D01*
X108314537Y-152529006D01*
X108235185Y-152432315D01*
X108138494Y-152352963D01*
X108028180Y-152293998D01*
X107908482Y-152257688D01*
X107784000Y-152245428D01*
X106324000Y-152245428D01*
X106324000Y-152234500D01*
X119728581Y-152234500D01*
X119761000Y-152237693D01*
X119793419Y-152234500D01*
X119890383Y-152224950D01*
X120014793Y-152187210D01*
X120129450Y-152125925D01*
X120229948Y-152043448D01*
X120312425Y-151942950D01*
X120373710Y-151828293D01*
X120411450Y-151703883D01*
X120424193Y-151574500D01*
X120421000Y-151542081D01*
X120421000Y-149828918D01*
X120424193Y-149796500D01*
X120417794Y-149731524D01*
X127081478Y-149731524D01*
X127152224Y-149974789D01*
X127275760Y-150040825D01*
X127540601Y-150135665D01*
X127818856Y-150177014D01*
X128099831Y-150163284D01*
X128310228Y-150110641D01*
X128305840Y-150121233D01*
X128250693Y-150398472D01*
X128250693Y-150681142D01*
X128305840Y-150958381D01*
X128414013Y-151219534D01*
X128571056Y-151454566D01*
X128770934Y-151654444D01*
X129005966Y-151811487D01*
X129267119Y-151919660D01*
X129544358Y-151974807D01*
X129827028Y-151974807D01*
X130104267Y-151919660D01*
X130365420Y-151811487D01*
X130600452Y-151654444D01*
X130800330Y-151454566D01*
X130957373Y-151219534D01*
X131065546Y-150958381D01*
X131120693Y-150681142D01*
X131120693Y-150398472D01*
X131065546Y-150121233D01*
X130957373Y-149860080D01*
X130800330Y-149625048D01*
X130600452Y-149425170D01*
X130365420Y-149268127D01*
X130104267Y-149159954D01*
X129827028Y-149104807D01*
X129544358Y-149104807D01*
X129267119Y-149159954D01*
X129256526Y-149164342D01*
X129309169Y-148953946D01*
X129322899Y-148672971D01*
X129281550Y-148394716D01*
X129186710Y-148129875D01*
X129120674Y-148006339D01*
X128877409Y-147935593D01*
X128069246Y-148743756D01*
X128083389Y-148757899D01*
X127903784Y-148937504D01*
X127889641Y-148923361D01*
X127081478Y-149731524D01*
X120417794Y-149731524D01*
X120411450Y-149667117D01*
X120373710Y-149542707D01*
X120312425Y-149428050D01*
X120229948Y-149327552D01*
X120129450Y-149245075D01*
X120014793Y-149183790D01*
X119890383Y-149146050D01*
X119793419Y-149136500D01*
X119761000Y-149133307D01*
X119728581Y-149136500D01*
X119226341Y-149136500D01*
X119327157Y-148967252D01*
X119424481Y-148692891D01*
X119303814Y-148463000D01*
X118110000Y-148463000D01*
X118110000Y-148483000D01*
X117856000Y-148483000D01*
X117856000Y-148463000D01*
X117836000Y-148463000D01*
X117836000Y-148209000D01*
X117856000Y-148209000D01*
X117856000Y-147015845D01*
X118110000Y-147015845D01*
X118110000Y-148209000D01*
X119303814Y-148209000D01*
X119424481Y-147979109D01*
X119327157Y-147704748D01*
X119178178Y-147454645D01*
X118983269Y-147238412D01*
X118749920Y-147064359D01*
X118487099Y-146939175D01*
X118339890Y-146894524D01*
X118110000Y-147015845D01*
X117856000Y-147015845D01*
X117626110Y-146894524D01*
X117478901Y-146939175D01*
X117216080Y-147064359D01*
X116982731Y-147238412D01*
X116787822Y-147454645D01*
X116718195Y-147571534D01*
X116596475Y-147389368D01*
X116389632Y-147182525D01*
X116146411Y-147020010D01*
X115876158Y-146908068D01*
X115608037Y-146854735D01*
X114927304Y-146174002D01*
X114903501Y-146144999D01*
X114787776Y-146050026D01*
X114655747Y-145979454D01*
X114512486Y-145935997D01*
X114400833Y-145925000D01*
X114400822Y-145925000D01*
X114363500Y-145921324D01*
X114326178Y-145925000D01*
X109615415Y-145925000D01*
X109580226Y-145748094D01*
X109502205Y-145559736D01*
X109388937Y-145390218D01*
X109244774Y-145246055D01*
X109075256Y-145132787D01*
X108886898Y-145054766D01*
X108686939Y-145014992D01*
X108483061Y-145014992D01*
X108283102Y-145054766D01*
X108094744Y-145132787D01*
X107925226Y-145246055D01*
X107781063Y-145390218D01*
X107667795Y-145559736D01*
X107589774Y-145748094D01*
X107550000Y-145948053D01*
X107550000Y-146151931D01*
X107589774Y-146351890D01*
X107667795Y-146540248D01*
X107781063Y-146709766D01*
X107919225Y-146847928D01*
X106973000Y-146847928D01*
X106848518Y-146860188D01*
X106728820Y-146896498D01*
X106618506Y-146955463D01*
X106521815Y-147034815D01*
X106442463Y-147131506D01*
X106383498Y-147241820D01*
X106347188Y-147361518D01*
X106334928Y-147486000D01*
X106334928Y-149136500D01*
X106324000Y-149136500D01*
X106324000Y-144175258D01*
X106395424Y-144233874D01*
X106527453Y-144304446D01*
X106670714Y-144347903D01*
X106782367Y-144358900D01*
X106782376Y-144358900D01*
X106819699Y-144362576D01*
X106857022Y-144358900D01*
X110065689Y-144358900D01*
X110109626Y-144402837D01*
X110279144Y-144516105D01*
X110467502Y-144594126D01*
X110667461Y-144633900D01*
X110871339Y-144633900D01*
X111071298Y-144594126D01*
X111259656Y-144516105D01*
X111429174Y-144402837D01*
X111573337Y-144258674D01*
X111686605Y-144089156D01*
X111764626Y-143900798D01*
X111765322Y-143897300D01*
X111823839Y-143897300D01*
X112023798Y-143857526D01*
X112212156Y-143779505D01*
X112381674Y-143666237D01*
X112525837Y-143522074D01*
X112639105Y-143352556D01*
X112717126Y-143164198D01*
X112756900Y-142964239D01*
X112756900Y-142760361D01*
X112717126Y-142560402D01*
X112639105Y-142372044D01*
X112525837Y-142202526D01*
X112381674Y-142058363D01*
X112212156Y-141945095D01*
X112023798Y-141867074D01*
X111823839Y-141827300D01*
X111619961Y-141827300D01*
X111420002Y-141867074D01*
X111231644Y-141945095D01*
X111062126Y-142058363D01*
X111018189Y-142102300D01*
X108097110Y-142102300D01*
X108097110Y-142055590D01*
X108057336Y-141855631D01*
X107979315Y-141667273D01*
X107866047Y-141497755D01*
X107721884Y-141353592D01*
X107552366Y-141240324D01*
X107364008Y-141162303D01*
X107164049Y-141122529D01*
X106960171Y-141122529D01*
X106760212Y-141162303D01*
X106571854Y-141240324D01*
X106402336Y-141353592D01*
X106324000Y-141431928D01*
X106324000Y-135731919D01*
X106327193Y-135699500D01*
X106314450Y-135570117D01*
X106276710Y-135445707D01*
X106215425Y-135331050D01*
X106132948Y-135230552D01*
X106032450Y-135148075D01*
X105917793Y-135086790D01*
X105793383Y-135049050D01*
X105696419Y-135039500D01*
X105664000Y-135036307D01*
X105631581Y-135039500D01*
X103918419Y-135039500D01*
X103886000Y-135036307D01*
X103853581Y-135039500D01*
X103756617Y-135049050D01*
X103632207Y-135086790D01*
X103517550Y-135148075D01*
X103417052Y-135230552D01*
X103334575Y-135331050D01*
X103273290Y-135445707D01*
X103235550Y-135570117D01*
X103222807Y-135699500D01*
X103226001Y-135731929D01*
X103226001Y-136125805D01*
X102972891Y-136036019D01*
X102743000Y-136156686D01*
X102743000Y-137350500D01*
X102763000Y-137350500D01*
X102763000Y-137604500D01*
X102743000Y-137604500D01*
X102743000Y-137624500D01*
X102489000Y-137624500D01*
X102489000Y-137604500D01*
X101295845Y-137604500D01*
X101174524Y-137834390D01*
X101219175Y-137981599D01*
X101344359Y-138244420D01*
X101518412Y-138477769D01*
X101734645Y-138672678D01*
X101851534Y-138742305D01*
X101669368Y-138864025D01*
X101462525Y-139070868D01*
X101300010Y-139314089D01*
X101188068Y-139584342D01*
X101131000Y-139871240D01*
X101131000Y-140163760D01*
X101188068Y-140450658D01*
X101300010Y-140720911D01*
X101462525Y-140964132D01*
X101669368Y-141170975D01*
X101843760Y-141287500D01*
X101669368Y-141404025D01*
X101462525Y-141610868D01*
X101300010Y-141854089D01*
X101188068Y-142124342D01*
X101131000Y-142411240D01*
X101131000Y-142703760D01*
X101188068Y-142990658D01*
X101300010Y-143260911D01*
X101462525Y-143504132D01*
X101669368Y-143710975D01*
X101843760Y-143827500D01*
X101669368Y-143944025D01*
X101462525Y-144150868D01*
X101300010Y-144394089D01*
X101188068Y-144664342D01*
X101131000Y-144951240D01*
X101131000Y-145243760D01*
X101188068Y-145530658D01*
X101300010Y-145800911D01*
X101462525Y-146044132D01*
X101594380Y-146175987D01*
X101521820Y-146197998D01*
X101411506Y-146256963D01*
X101314815Y-146336315D01*
X101235463Y-146433006D01*
X101176498Y-146543320D01*
X101140188Y-146663018D01*
X101127928Y-146787500D01*
X101127928Y-148487500D01*
X101140188Y-148611982D01*
X101176498Y-148731680D01*
X101235463Y-148841994D01*
X101314815Y-148938685D01*
X101411506Y-149018037D01*
X101521820Y-149077002D01*
X101641518Y-149113312D01*
X101766000Y-149125572D01*
X103226000Y-149125572D01*
X103226000Y-149136500D01*
X89821419Y-149136500D01*
X89789000Y-149133307D01*
X89756581Y-149136500D01*
X89659617Y-149146050D01*
X89535207Y-149183790D01*
X89420550Y-149245075D01*
X89320052Y-149327552D01*
X89237575Y-149428050D01*
X89176290Y-149542707D01*
X89138550Y-149667117D01*
X89125807Y-149796500D01*
X65469720Y-149796500D01*
X65520691Y-148190815D01*
X65757945Y-145706176D01*
X66152308Y-143241586D01*
X66702190Y-140806971D01*
X67405378Y-138412132D01*
X68259040Y-136066715D01*
X69259739Y-133780162D01*
X70403446Y-131561681D01*
X71685554Y-129420204D01*
X73100902Y-127364356D01*
X74507400Y-125575849D01*
X74512764Y-125630309D01*
X74594818Y-125900808D01*
X74728068Y-126150101D01*
X74907392Y-126368608D01*
X75125899Y-126547932D01*
X75258858Y-126619000D01*
X75125899Y-126690068D01*
X74907392Y-126869392D01*
X74728068Y-127087899D01*
X74594818Y-127337192D01*
X74512764Y-127607691D01*
X74485057Y-127889000D01*
X74512764Y-128170309D01*
X74594818Y-128440808D01*
X74728068Y-128690101D01*
X74907392Y-128908608D01*
X75125899Y-129087932D01*
X75258858Y-129159000D01*
X75125899Y-129230068D01*
X74907392Y-129409392D01*
X74728068Y-129627899D01*
X74594818Y-129877192D01*
X74512764Y-130147691D01*
X74485057Y-130429000D01*
X74512764Y-130710309D01*
X74594818Y-130980808D01*
X74728068Y-131230101D01*
X74907392Y-131448608D01*
X75125899Y-131627932D01*
X75253741Y-131696265D01*
X75024161Y-131846399D01*
X74822500Y-132044105D01*
X74663285Y-132277354D01*
X74552633Y-132537182D01*
X74535096Y-132619961D01*
X74657085Y-132842000D01*
X76200000Y-132842000D01*
X76200000Y-132822000D01*
X76454000Y-132822000D01*
X76454000Y-132842000D01*
X77996915Y-132842000D01*
X78011586Y-132815297D01*
X78080226Y-132883937D01*
X78249744Y-132997205D01*
X78438102Y-133075226D01*
X78638061Y-133115000D01*
X78700198Y-133115000D01*
X78919208Y-133334010D01*
X78115520Y-133334010D01*
X78118904Y-133318039D01*
X77996915Y-133096000D01*
X76454000Y-133096000D01*
X76454000Y-133116000D01*
X76200000Y-133116000D01*
X76200000Y-133096000D01*
X74657085Y-133096000D01*
X74535096Y-133318039D01*
X74548731Y-133382401D01*
X74528743Y-133388464D01*
X74396714Y-133459036D01*
X74280989Y-133554009D01*
X74257190Y-133583008D01*
X73784002Y-134056197D01*
X73754999Y-134079999D01*
X73707810Y-134137500D01*
X73660026Y-134195724D01*
X73594608Y-134318112D01*
X73589454Y-134327754D01*
X73545997Y-134471015D01*
X73535000Y-134582668D01*
X73535000Y-134582678D01*
X73531324Y-134620000D01*
X73535000Y-134657322D01*
X73535001Y-142509668D01*
X73531324Y-142547000D01*
X73535001Y-142584333D01*
X73545998Y-142695986D01*
X73548649Y-142704724D01*
X73589454Y-142839246D01*
X73660026Y-142971276D01*
X73731201Y-143058002D01*
X73755000Y-143087001D01*
X73783998Y-143110799D01*
X74313200Y-143640002D01*
X74336999Y-143669001D01*
X74452724Y-143763974D01*
X74584753Y-143834546D01*
X74694843Y-143867941D01*
X74728068Y-143930101D01*
X74907392Y-144148608D01*
X75125899Y-144327932D01*
X75375192Y-144461182D01*
X75645691Y-144543236D01*
X75856508Y-144564000D01*
X76797492Y-144564000D01*
X77008309Y-144543236D01*
X77278808Y-144461182D01*
X77528101Y-144327932D01*
X77746608Y-144148608D01*
X77925932Y-143930101D01*
X78059182Y-143680808D01*
X78120690Y-143478039D01*
X82155096Y-143478039D01*
X82172633Y-143560818D01*
X82283285Y-143820646D01*
X82442500Y-144053895D01*
X82644161Y-144251601D01*
X82880517Y-144406166D01*
X83142486Y-144511650D01*
X83420000Y-144564000D01*
X83820000Y-144564000D01*
X83820000Y-143256000D01*
X84074000Y-143256000D01*
X84074000Y-144564000D01*
X84474000Y-144564000D01*
X84751514Y-144511650D01*
X85013483Y-144406166D01*
X85249839Y-144251601D01*
X85451500Y-144053895D01*
X85610715Y-143820646D01*
X85721367Y-143560818D01*
X85738904Y-143478039D01*
X85616915Y-143256000D01*
X84074000Y-143256000D01*
X83820000Y-143256000D01*
X82277085Y-143256000D01*
X82155096Y-143478039D01*
X78120690Y-143478039D01*
X78141236Y-143410309D01*
X78168943Y-143129000D01*
X78141236Y-142847691D01*
X78075717Y-142631700D01*
X82200520Y-142631700D01*
X82172633Y-142697182D01*
X82155096Y-142779961D01*
X82277085Y-143002000D01*
X83820000Y-143002000D01*
X83820000Y-142982000D01*
X84074000Y-142982000D01*
X84074000Y-143002000D01*
X85616915Y-143002000D01*
X85738904Y-142779961D01*
X85721367Y-142697182D01*
X85640429Y-142507127D01*
X85641276Y-142506674D01*
X85757001Y-142411701D01*
X85780803Y-142382698D01*
X86488702Y-141674800D01*
X86550839Y-141674800D01*
X86750798Y-141635026D01*
X86939156Y-141557005D01*
X87108674Y-141443737D01*
X87139911Y-141412500D01*
X87914099Y-141412500D01*
X87936068Y-141453601D01*
X88115392Y-141672108D01*
X88333899Y-141851432D01*
X88466858Y-141922500D01*
X88333899Y-141993568D01*
X88115392Y-142172892D01*
X87936068Y-142391399D01*
X87802818Y-142640692D01*
X87720764Y-142911191D01*
X87693057Y-143192500D01*
X87720764Y-143473809D01*
X87802818Y-143744308D01*
X87936068Y-143993601D01*
X88115392Y-144212108D01*
X88333899Y-144391432D01*
X88583192Y-144524682D01*
X88853691Y-144606736D01*
X89064508Y-144627500D01*
X90005492Y-144627500D01*
X90216309Y-144606736D01*
X90486808Y-144524682D01*
X90736101Y-144391432D01*
X90954608Y-144212108D01*
X91133932Y-143993601D01*
X91267182Y-143744308D01*
X91328690Y-143541539D01*
X95363096Y-143541539D01*
X95380633Y-143624318D01*
X95491285Y-143884146D01*
X95650500Y-144117395D01*
X95852161Y-144315101D01*
X96088517Y-144469666D01*
X96350486Y-144575150D01*
X96628000Y-144627500D01*
X97028000Y-144627500D01*
X97028000Y-143319500D01*
X97282000Y-143319500D01*
X97282000Y-144627500D01*
X97682000Y-144627500D01*
X97959514Y-144575150D01*
X98221483Y-144469666D01*
X98457839Y-144315101D01*
X98659500Y-144117395D01*
X98818715Y-143884146D01*
X98929367Y-143624318D01*
X98946904Y-143541539D01*
X98824915Y-143319500D01*
X97282000Y-143319500D01*
X97028000Y-143319500D01*
X95485085Y-143319500D01*
X95363096Y-143541539D01*
X91328690Y-143541539D01*
X91349236Y-143473809D01*
X91376943Y-143192500D01*
X91349236Y-142911191D01*
X91267182Y-142640692D01*
X91133932Y-142391399D01*
X90954608Y-142172892D01*
X90736101Y-141993568D01*
X90603142Y-141922500D01*
X90736101Y-141851432D01*
X90954608Y-141672108D01*
X91133932Y-141453601D01*
X91267182Y-141204308D01*
X91349236Y-140933809D01*
X91376943Y-140652500D01*
X91349236Y-140371191D01*
X91267182Y-140100692D01*
X91133932Y-139851399D01*
X90954608Y-139632892D01*
X90736101Y-139453568D01*
X90603142Y-139382500D01*
X90736101Y-139311432D01*
X90954608Y-139132108D01*
X91133932Y-138913601D01*
X91267182Y-138664308D01*
X91349236Y-138393809D01*
X91376943Y-138112500D01*
X91349236Y-137831191D01*
X91267182Y-137560692D01*
X91133932Y-137311399D01*
X90954608Y-137092892D01*
X90736101Y-136913568D01*
X90603142Y-136842500D01*
X90736101Y-136771432D01*
X90954608Y-136592108D01*
X91133932Y-136373601D01*
X91267182Y-136124308D01*
X91349236Y-135853809D01*
X91376943Y-135572500D01*
X91368154Y-135483261D01*
X92056000Y-135483261D01*
X92056000Y-135687139D01*
X92095774Y-135887098D01*
X92173795Y-136075456D01*
X92287063Y-136244974D01*
X92431226Y-136389137D01*
X92600744Y-136502405D01*
X92789102Y-136580426D01*
X92989061Y-136620200D01*
X93192939Y-136620200D01*
X93392898Y-136580426D01*
X93581256Y-136502405D01*
X93750774Y-136389137D01*
X93894937Y-136244974D01*
X94008205Y-136075456D01*
X94086226Y-135887098D01*
X94126000Y-135687139D01*
X94126000Y-135625001D01*
X94663102Y-135087900D01*
X95402431Y-135087900D01*
X95340764Y-135291191D01*
X95313057Y-135572500D01*
X95340764Y-135853809D01*
X95413988Y-136095200D01*
X94411025Y-136095200D01*
X94373700Y-136091524D01*
X94336375Y-136095200D01*
X94336367Y-136095200D01*
X94224714Y-136106197D01*
X94081453Y-136149654D01*
X93949424Y-136220226D01*
X93833699Y-136315199D01*
X93809901Y-136344197D01*
X93076599Y-137077500D01*
X93014461Y-137077500D01*
X92814502Y-137117274D01*
X92626144Y-137195295D01*
X92456626Y-137308563D01*
X92312463Y-137452726D01*
X92199195Y-137622244D01*
X92121174Y-137810602D01*
X92081400Y-138010561D01*
X92081400Y-138214439D01*
X92121174Y-138414398D01*
X92199195Y-138602756D01*
X92312463Y-138772274D01*
X92456626Y-138916437D01*
X92626144Y-139029705D01*
X92814502Y-139107726D01*
X93014461Y-139147500D01*
X93218339Y-139147500D01*
X93418298Y-139107726D01*
X93606656Y-139029705D01*
X93776174Y-138916437D01*
X93920337Y-138772274D01*
X94033605Y-138602756D01*
X94111626Y-138414398D01*
X94151400Y-138214439D01*
X94151400Y-138152301D01*
X94688502Y-137615200D01*
X95406283Y-137615200D01*
X95340764Y-137831191D01*
X95313057Y-138112500D01*
X95340764Y-138393809D01*
X95422818Y-138664308D01*
X95556068Y-138913601D01*
X95735392Y-139132108D01*
X95953899Y-139311432D01*
X96086858Y-139382500D01*
X95953899Y-139453568D01*
X95735392Y-139632892D01*
X95556068Y-139851399D01*
X95422818Y-140100692D01*
X95340764Y-140371191D01*
X95313057Y-140652500D01*
X95340764Y-140933809D01*
X95422818Y-141204308D01*
X95556068Y-141453601D01*
X95735392Y-141672108D01*
X95953899Y-141851432D01*
X96081741Y-141919765D01*
X95852161Y-142069899D01*
X95650500Y-142267605D01*
X95491285Y-142500854D01*
X95380633Y-142760682D01*
X95363096Y-142843461D01*
X95485085Y-143065500D01*
X97028000Y-143065500D01*
X97028000Y-143045500D01*
X97282000Y-143045500D01*
X97282000Y-143065500D01*
X98824915Y-143065500D01*
X98946904Y-142843461D01*
X98929367Y-142760682D01*
X98818715Y-142500854D01*
X98659500Y-142267605D01*
X98457839Y-142069899D01*
X98228259Y-141919765D01*
X98356101Y-141851432D01*
X98574608Y-141672108D01*
X98753932Y-141453601D01*
X98887182Y-141204308D01*
X98969236Y-140933809D01*
X98996943Y-140652500D01*
X98969236Y-140371191D01*
X98887182Y-140100692D01*
X98753932Y-139851399D01*
X98574608Y-139632892D01*
X98356101Y-139453568D01*
X98223142Y-139382500D01*
X98356101Y-139311432D01*
X98574608Y-139132108D01*
X98753932Y-138913601D01*
X98887182Y-138664308D01*
X98969236Y-138393809D01*
X98996943Y-138112500D01*
X98973026Y-137869675D01*
X99069798Y-137850426D01*
X99258156Y-137772405D01*
X99427674Y-137659137D01*
X99571837Y-137514974D01*
X99685105Y-137345456D01*
X99763126Y-137157098D01*
X99770383Y-137120610D01*
X101174524Y-137120610D01*
X101295845Y-137350500D01*
X102489000Y-137350500D01*
X102489000Y-136156686D01*
X102259109Y-136036019D01*
X101984748Y-136133343D01*
X101734645Y-136282322D01*
X101518412Y-136477231D01*
X101344359Y-136710580D01*
X101219175Y-136973401D01*
X101174524Y-137120610D01*
X99770383Y-137120610D01*
X99802900Y-136957139D01*
X99802900Y-136753261D01*
X99763126Y-136553302D01*
X99685105Y-136364944D01*
X99571837Y-136195426D01*
X99427674Y-136051263D01*
X99258156Y-135937995D01*
X99069798Y-135859974D01*
X98970573Y-135840237D01*
X98996943Y-135572500D01*
X98974985Y-135349564D01*
X99107898Y-135323126D01*
X99296256Y-135245105D01*
X99465774Y-135131837D01*
X99609937Y-134987674D01*
X99723205Y-134818156D01*
X99801226Y-134629798D01*
X99841000Y-134429839D01*
X99841000Y-134225961D01*
X99801226Y-134026002D01*
X99723205Y-133837644D01*
X99609937Y-133668126D01*
X99465774Y-133523963D01*
X99296256Y-133410695D01*
X99107898Y-133332674D01*
X98970078Y-133305260D01*
X98996943Y-133032500D01*
X98969236Y-132751191D01*
X98887182Y-132480692D01*
X98753932Y-132231399D01*
X98574608Y-132012892D01*
X98356101Y-131833568D01*
X98223142Y-131762500D01*
X98356101Y-131691432D01*
X98574608Y-131512108D01*
X98753932Y-131293601D01*
X98887182Y-131044308D01*
X98969236Y-130773809D01*
X98996943Y-130492500D01*
X98969236Y-130211191D01*
X98887182Y-129940692D01*
X98753932Y-129691399D01*
X98574608Y-129472892D01*
X98356101Y-129293568D01*
X98223142Y-129222500D01*
X98356101Y-129151432D01*
X98574608Y-128972108D01*
X98753932Y-128753601D01*
X98887182Y-128504308D01*
X98969236Y-128233809D01*
X98996943Y-127952500D01*
X98969236Y-127671191D01*
X98887182Y-127400692D01*
X98753932Y-127151399D01*
X98574608Y-126932892D01*
X98461518Y-126840081D01*
X98479482Y-126838312D01*
X98599180Y-126802002D01*
X98709494Y-126743037D01*
X98806185Y-126663685D01*
X98885537Y-126566994D01*
X98944502Y-126456680D01*
X98980812Y-126336982D01*
X98993072Y-126212500D01*
X98993072Y-125253755D01*
X103105976Y-125253755D01*
X103105976Y-125536425D01*
X103161123Y-125813664D01*
X103269296Y-126074817D01*
X103426339Y-126309849D01*
X103626217Y-126509727D01*
X103861249Y-126666770D01*
X104122402Y-126774943D01*
X104399641Y-126830090D01*
X104682311Y-126830090D01*
X104956584Y-126775533D01*
X104902027Y-127049806D01*
X104902027Y-127332476D01*
X104957174Y-127609715D01*
X105065347Y-127870868D01*
X105222390Y-128105900D01*
X105422268Y-128305778D01*
X105657300Y-128462821D01*
X105918453Y-128570994D01*
X106195692Y-128626141D01*
X106478362Y-128626141D01*
X106752635Y-128571584D01*
X106698078Y-128845858D01*
X106698078Y-129128528D01*
X106753225Y-129405767D01*
X106861398Y-129666920D01*
X107018441Y-129901952D01*
X107218319Y-130101830D01*
X107453351Y-130258873D01*
X107714504Y-130367046D01*
X107991743Y-130422193D01*
X108274413Y-130422193D01*
X108548686Y-130367636D01*
X108494129Y-130641909D01*
X108494129Y-130924579D01*
X108549276Y-131201818D01*
X108657449Y-131462971D01*
X108814492Y-131698003D01*
X109014370Y-131897881D01*
X109249402Y-132054924D01*
X109510555Y-132163097D01*
X109787794Y-132218244D01*
X110070464Y-132218244D01*
X110344737Y-132163687D01*
X110290180Y-132437960D01*
X110290180Y-132720630D01*
X110345327Y-132997869D01*
X110453500Y-133259022D01*
X110610543Y-133494054D01*
X110810421Y-133693932D01*
X111045453Y-133850975D01*
X111306606Y-133959148D01*
X111583845Y-134014295D01*
X111866515Y-134014295D01*
X112140789Y-133959738D01*
X112086232Y-134234011D01*
X112086232Y-134516681D01*
X112141379Y-134793920D01*
X112249552Y-135055073D01*
X112406595Y-135290105D01*
X112606473Y-135489983D01*
X112841505Y-135647026D01*
X113102658Y-135755199D01*
X113379897Y-135810346D01*
X113662567Y-135810346D01*
X113936840Y-135755789D01*
X113882283Y-136030063D01*
X113882283Y-136312733D01*
X113937430Y-136589972D01*
X114045603Y-136851125D01*
X114202646Y-137086157D01*
X114402524Y-137286035D01*
X114637556Y-137443078D01*
X114898709Y-137551251D01*
X115175948Y-137606398D01*
X115458618Y-137606398D01*
X115732891Y-137551841D01*
X115678334Y-137826114D01*
X115678334Y-138108784D01*
X115733481Y-138386023D01*
X115841654Y-138647176D01*
X115998697Y-138882208D01*
X116198575Y-139082086D01*
X116433607Y-139239129D01*
X116694760Y-139347302D01*
X116971999Y-139402449D01*
X117254669Y-139402449D01*
X117528942Y-139347892D01*
X117474385Y-139622165D01*
X117474385Y-139904835D01*
X117529532Y-140182074D01*
X117637705Y-140443227D01*
X117794748Y-140678259D01*
X117994626Y-140878137D01*
X118229658Y-141035180D01*
X118490811Y-141143353D01*
X118768050Y-141198500D01*
X119050720Y-141198500D01*
X119324994Y-141143943D01*
X119270437Y-141418216D01*
X119270437Y-141700886D01*
X119325584Y-141978125D01*
X119433757Y-142239278D01*
X119590800Y-142474310D01*
X119790678Y-142674188D01*
X120025710Y-142831231D01*
X120286863Y-142939404D01*
X120564102Y-142994551D01*
X120846772Y-142994551D01*
X121121045Y-142939994D01*
X121066488Y-143214267D01*
X121066488Y-143496937D01*
X121121635Y-143774176D01*
X121229808Y-144035329D01*
X121386851Y-144270361D01*
X121586729Y-144470239D01*
X121821761Y-144627282D01*
X122082914Y-144735455D01*
X122360153Y-144790602D01*
X122642823Y-144790602D01*
X122917096Y-144736045D01*
X122862539Y-145010319D01*
X122862539Y-145292989D01*
X122917686Y-145570228D01*
X123025859Y-145831381D01*
X123182902Y-146066413D01*
X123382780Y-146266291D01*
X123617812Y-146423334D01*
X123878965Y-146531507D01*
X124156204Y-146586654D01*
X124438874Y-146586654D01*
X124713147Y-146532097D01*
X124658590Y-146806370D01*
X124658590Y-147089040D01*
X124713737Y-147366279D01*
X124821910Y-147627432D01*
X124978953Y-147862464D01*
X125178831Y-148062342D01*
X125413863Y-148219385D01*
X125675016Y-148327558D01*
X125952255Y-148382705D01*
X126234925Y-148382705D01*
X126512164Y-148327558D01*
X126522756Y-148323171D01*
X126470113Y-148533566D01*
X126456383Y-148814541D01*
X126497732Y-149092796D01*
X126592572Y-149357637D01*
X126658608Y-149481173D01*
X126901873Y-149551919D01*
X127710036Y-148743756D01*
X127695894Y-148729614D01*
X127875499Y-148550009D01*
X127889641Y-148564151D01*
X128697804Y-147755988D01*
X128627058Y-147512723D01*
X128503522Y-147446687D01*
X128238681Y-147351847D01*
X127960426Y-147310498D01*
X127679451Y-147324228D01*
X127469056Y-147376871D01*
X127473443Y-147366279D01*
X127528590Y-147089040D01*
X127528590Y-146806370D01*
X127473443Y-146529131D01*
X127365270Y-146267978D01*
X127208227Y-146032946D01*
X127008349Y-145833068D01*
X126773317Y-145676025D01*
X126512164Y-145567852D01*
X126234925Y-145512705D01*
X125952255Y-145512705D01*
X125677982Y-145567262D01*
X125732539Y-145292989D01*
X125732539Y-145010319D01*
X125677392Y-144733080D01*
X125569219Y-144471927D01*
X125412176Y-144236895D01*
X125212298Y-144037017D01*
X124977266Y-143879974D01*
X124716113Y-143771801D01*
X124438874Y-143716654D01*
X124156204Y-143716654D01*
X123881931Y-143771211D01*
X123936488Y-143496937D01*
X123936488Y-143214267D01*
X123881341Y-142937028D01*
X123773168Y-142675875D01*
X123616125Y-142440843D01*
X123416247Y-142240965D01*
X123181215Y-142083922D01*
X122920062Y-141975749D01*
X122642823Y-141920602D01*
X122360153Y-141920602D01*
X122085880Y-141975159D01*
X122140437Y-141700886D01*
X122140437Y-141418216D01*
X122085290Y-141140977D01*
X121977117Y-140879824D01*
X121820074Y-140644792D01*
X121620196Y-140444914D01*
X121385164Y-140287871D01*
X121124011Y-140179698D01*
X120846772Y-140124551D01*
X120564102Y-140124551D01*
X120289828Y-140179108D01*
X120344385Y-139904835D01*
X120344385Y-139622165D01*
X120289238Y-139344926D01*
X120181065Y-139083773D01*
X120024022Y-138848741D01*
X119824144Y-138648863D01*
X119589112Y-138491820D01*
X119327959Y-138383647D01*
X119050720Y-138328500D01*
X118768050Y-138328500D01*
X118493777Y-138383057D01*
X118548334Y-138108784D01*
X118548334Y-137826114D01*
X118493187Y-137548875D01*
X118426115Y-137386948D01*
X120418981Y-137386948D01*
X120418981Y-137709014D01*
X120481813Y-138024893D01*
X120605063Y-138322444D01*
X120783994Y-138590233D01*
X121011729Y-138817968D01*
X121279518Y-138996899D01*
X121577069Y-139120149D01*
X121892948Y-139182981D01*
X122215014Y-139182981D01*
X122530893Y-139120149D01*
X122828444Y-138996899D01*
X123096233Y-138817968D01*
X123323968Y-138590233D01*
X123502899Y-138322444D01*
X123626149Y-138024893D01*
X123688981Y-137709014D01*
X123688981Y-137386948D01*
X123626149Y-137071069D01*
X123502899Y-136773518D01*
X123323968Y-136505729D01*
X123096233Y-136277994D01*
X122828444Y-136099063D01*
X122530893Y-135975813D01*
X122215014Y-135912981D01*
X121892948Y-135912981D01*
X121577069Y-135975813D01*
X121279518Y-136099063D01*
X121011729Y-136277994D01*
X120783994Y-136505729D01*
X120605063Y-136773518D01*
X120481813Y-137071069D01*
X120418981Y-137386948D01*
X118426115Y-137386948D01*
X118385014Y-137287722D01*
X118227971Y-137052690D01*
X118028093Y-136852812D01*
X117793061Y-136695769D01*
X117531908Y-136587596D01*
X117254669Y-136532449D01*
X116971999Y-136532449D01*
X116697726Y-136587006D01*
X116752283Y-136312733D01*
X116752283Y-136030063D01*
X116697136Y-135752824D01*
X116588963Y-135491671D01*
X116431920Y-135256639D01*
X116232042Y-135056761D01*
X115997010Y-134899718D01*
X115735857Y-134791545D01*
X115515311Y-134747675D01*
X117274039Y-134747675D01*
X117379204Y-135052088D01*
X117541737Y-135330135D01*
X117755391Y-135571131D01*
X118011956Y-135765814D01*
X118301572Y-135906703D01*
X118490325Y-135963961D01*
X118745000Y-135844717D01*
X118745000Y-134493000D01*
X118999000Y-134493000D01*
X118999000Y-135844717D01*
X119253675Y-135963961D01*
X119558088Y-135858796D01*
X119836135Y-135696263D01*
X120077131Y-135482609D01*
X120167804Y-135363114D01*
X134265683Y-135363114D01*
X134336429Y-135606379D01*
X134459965Y-135672415D01*
X134724806Y-135767255D01*
X135003061Y-135808604D01*
X135284036Y-135794874D01*
X135494433Y-135742230D01*
X135490045Y-135752824D01*
X135434898Y-136030063D01*
X135434898Y-136312733D01*
X135490045Y-136589972D01*
X135598218Y-136851125D01*
X135755261Y-137086157D01*
X135955139Y-137286035D01*
X136190171Y-137443078D01*
X136451324Y-137551251D01*
X136728563Y-137606398D01*
X137011233Y-137606398D01*
X137285506Y-137551841D01*
X137230949Y-137826114D01*
X137230949Y-138108784D01*
X137286096Y-138386023D01*
X137394269Y-138647176D01*
X137551312Y-138882208D01*
X137751190Y-139082086D01*
X137986222Y-139239129D01*
X138247375Y-139347302D01*
X138524614Y-139402449D01*
X138805473Y-139402449D01*
X138800092Y-139409006D01*
X138741127Y-139519320D01*
X138704817Y-139639018D01*
X138692557Y-139763500D01*
X138704817Y-139887982D01*
X138741127Y-140007680D01*
X138800092Y-140117994D01*
X138879444Y-140214685D01*
X140010815Y-141346056D01*
X140107506Y-141425408D01*
X140217820Y-141484373D01*
X140337518Y-141520683D01*
X140462000Y-141532943D01*
X140586482Y-141520683D01*
X140706180Y-141484373D01*
X140816494Y-141425408D01*
X140913185Y-141346056D01*
X142044556Y-140214685D01*
X142123908Y-140117994D01*
X142182873Y-140007680D01*
X142219183Y-139887982D01*
X142231443Y-139763500D01*
X142219183Y-139639018D01*
X142182873Y-139519320D01*
X142123908Y-139409006D01*
X142044556Y-139312315D01*
X140913185Y-138180944D01*
X140816494Y-138101592D01*
X140706180Y-138042627D01*
X140586482Y-138006317D01*
X140462000Y-137994057D01*
X140337518Y-138006317D01*
X140217820Y-138042627D01*
X140107506Y-138101592D01*
X140100949Y-138106973D01*
X140100949Y-137826114D01*
X140045802Y-137548875D01*
X139937629Y-137287722D01*
X139780586Y-137052690D01*
X139580708Y-136852812D01*
X139345676Y-136695769D01*
X139084523Y-136587596D01*
X138807284Y-136532449D01*
X138524614Y-136532449D01*
X138250341Y-136587006D01*
X138304898Y-136312733D01*
X138304898Y-136030063D01*
X138249751Y-135752824D01*
X138141578Y-135491671D01*
X137984535Y-135256639D01*
X137784657Y-135056761D01*
X137549625Y-134899718D01*
X137288472Y-134791545D01*
X137011233Y-134736398D01*
X136728563Y-134736398D01*
X136451324Y-134791545D01*
X136440730Y-134795933D01*
X136493374Y-134585536D01*
X136507104Y-134304561D01*
X136465755Y-134026306D01*
X136370915Y-133761465D01*
X136304879Y-133637929D01*
X136061614Y-133567183D01*
X135253451Y-134375346D01*
X135267594Y-134389489D01*
X135087989Y-134569094D01*
X135073846Y-134554951D01*
X134265683Y-135363114D01*
X120167804Y-135363114D01*
X120271814Y-135226044D01*
X120412703Y-134936428D01*
X120469961Y-134747675D01*
X120350717Y-134493000D01*
X118999000Y-134493000D01*
X118745000Y-134493000D01*
X117393283Y-134493000D01*
X117274039Y-134747675D01*
X115515311Y-134747675D01*
X115458618Y-134736398D01*
X115175948Y-134736398D01*
X114901675Y-134790955D01*
X114956232Y-134516681D01*
X114956232Y-134234011D01*
X114906566Y-133984325D01*
X117274039Y-133984325D01*
X117393283Y-134239000D01*
X118745000Y-134239000D01*
X118745000Y-132887283D01*
X118999000Y-132887283D01*
X118999000Y-134239000D01*
X120350717Y-134239000D01*
X120469961Y-133984325D01*
X120364796Y-133679912D01*
X120202263Y-133401865D01*
X119988609Y-133160869D01*
X119732044Y-132966186D01*
X119442428Y-132825297D01*
X119328553Y-132790753D01*
X125015175Y-132790753D01*
X125015175Y-133112819D01*
X125078007Y-133428698D01*
X125201257Y-133726249D01*
X125380188Y-133994038D01*
X125607923Y-134221773D01*
X125875712Y-134400704D01*
X126173263Y-134523954D01*
X126489142Y-134586786D01*
X126811208Y-134586786D01*
X127127087Y-134523954D01*
X127424638Y-134400704D01*
X127692427Y-134221773D01*
X127920162Y-133994038D01*
X128099093Y-133726249D01*
X128222343Y-133428698D01*
X128285175Y-133112819D01*
X128285175Y-132790753D01*
X128222343Y-132474874D01*
X128099093Y-132177323D01*
X127920162Y-131909534D01*
X127692427Y-131681799D01*
X127424638Y-131502868D01*
X127127087Y-131379618D01*
X126811208Y-131316786D01*
X126489142Y-131316786D01*
X126173263Y-131379618D01*
X125875712Y-131502868D01*
X125607923Y-131681799D01*
X125380188Y-131909534D01*
X125201257Y-132177323D01*
X125078007Y-132474874D01*
X125015175Y-132790753D01*
X119328553Y-132790753D01*
X119253675Y-132768039D01*
X118999000Y-132887283D01*
X118745000Y-132887283D01*
X118490325Y-132768039D01*
X118185912Y-132873204D01*
X117907865Y-133035737D01*
X117666869Y-133249391D01*
X117472186Y-133505956D01*
X117331297Y-133795572D01*
X117274039Y-133984325D01*
X114906566Y-133984325D01*
X114901085Y-133956772D01*
X114792912Y-133695619D01*
X114635869Y-133460587D01*
X114435991Y-133260709D01*
X114200959Y-133103666D01*
X113939806Y-132995493D01*
X113662567Y-132940346D01*
X113379897Y-132940346D01*
X113105623Y-132994903D01*
X113160180Y-132720630D01*
X113160180Y-132437960D01*
X113105033Y-132160721D01*
X112996860Y-131899568D01*
X112839817Y-131664536D01*
X112639939Y-131464658D01*
X112404907Y-131307615D01*
X112143754Y-131199442D01*
X111866515Y-131144295D01*
X111583845Y-131144295D01*
X111309572Y-131198852D01*
X111364129Y-130924579D01*
X111364129Y-130641909D01*
X111308982Y-130364670D01*
X111220677Y-130151481D01*
X121870233Y-130151481D01*
X121975398Y-130455894D01*
X122137931Y-130733941D01*
X122351585Y-130974937D01*
X122608150Y-131169620D01*
X122897766Y-131310509D01*
X123086519Y-131367767D01*
X123341194Y-131248523D01*
X123341194Y-129896806D01*
X123595194Y-129896806D01*
X123595194Y-131248523D01*
X123849869Y-131367767D01*
X124154282Y-131262602D01*
X124432329Y-131100069D01*
X124673325Y-130886415D01*
X124868008Y-130629850D01*
X125008897Y-130340234D01*
X125066155Y-130151481D01*
X124946911Y-129896806D01*
X123595194Y-129896806D01*
X123341194Y-129896806D01*
X121989477Y-129896806D01*
X121870233Y-130151481D01*
X111220677Y-130151481D01*
X111200809Y-130103517D01*
X111043766Y-129868485D01*
X110843888Y-129668607D01*
X110608856Y-129511564D01*
X110347703Y-129403391D01*
X110270987Y-129388131D01*
X121870233Y-129388131D01*
X121989477Y-129642806D01*
X123341194Y-129642806D01*
X123341194Y-128291089D01*
X123595194Y-128291089D01*
X123595194Y-129642806D01*
X124946911Y-129642806D01*
X125066155Y-129388131D01*
X124960990Y-129083718D01*
X124798457Y-128805671D01*
X124584803Y-128564675D01*
X124328238Y-128369992D01*
X124038622Y-128229103D01*
X123849869Y-128171845D01*
X123595194Y-128291089D01*
X123341194Y-128291089D01*
X123086519Y-128171845D01*
X122782106Y-128277010D01*
X122504059Y-128439543D01*
X122263063Y-128653197D01*
X122068380Y-128909762D01*
X121927491Y-129199378D01*
X121870233Y-129388131D01*
X110270987Y-129388131D01*
X110070464Y-129348244D01*
X109787794Y-129348244D01*
X109513521Y-129402801D01*
X109568078Y-129128528D01*
X109568078Y-128845858D01*
X109512931Y-128568619D01*
X109404758Y-128307466D01*
X109247715Y-128072434D01*
X109047837Y-127872556D01*
X108812805Y-127715513D01*
X108551652Y-127607340D01*
X108274413Y-127552193D01*
X107991743Y-127552193D01*
X107717470Y-127606750D01*
X107772027Y-127332476D01*
X107772027Y-127049806D01*
X107716880Y-126772567D01*
X107608707Y-126511414D01*
X107451664Y-126276382D01*
X107251786Y-126076504D01*
X107016754Y-125919461D01*
X106755601Y-125811288D01*
X106478362Y-125756141D01*
X106195692Y-125756141D01*
X105921419Y-125810698D01*
X105975976Y-125536425D01*
X105975976Y-125253755D01*
X105920829Y-124976516D01*
X105812656Y-124715363D01*
X105655613Y-124480331D01*
X105455735Y-124280453D01*
X105220703Y-124123410D01*
X104959550Y-124015237D01*
X104682311Y-123960090D01*
X104399641Y-123960090D01*
X104122402Y-124015237D01*
X103861249Y-124123410D01*
X103626217Y-124280453D01*
X103426339Y-124480331D01*
X103269296Y-124715363D01*
X103161123Y-124976516D01*
X103105976Y-125253755D01*
X98993072Y-125253755D01*
X98993072Y-124612500D01*
X98980812Y-124488018D01*
X98944502Y-124368320D01*
X98885537Y-124258006D01*
X98806185Y-124161315D01*
X98709494Y-124081963D01*
X98599180Y-124022998D01*
X98479482Y-123986688D01*
X98355000Y-123974428D01*
X95955000Y-123974428D01*
X95830518Y-123986688D01*
X95710820Y-124022998D01*
X95600506Y-124081963D01*
X95503815Y-124161315D01*
X95424463Y-124258006D01*
X95365498Y-124368320D01*
X95329188Y-124488018D01*
X95316928Y-124612500D01*
X95316928Y-126212500D01*
X95329188Y-126336982D01*
X95365498Y-126456680D01*
X95424463Y-126566994D01*
X95503815Y-126663685D01*
X95600506Y-126743037D01*
X95710820Y-126802002D01*
X95830518Y-126838312D01*
X95848482Y-126840081D01*
X95735392Y-126932892D01*
X95556068Y-127151399D01*
X95422818Y-127400692D01*
X95340764Y-127671191D01*
X95313057Y-127952500D01*
X95340764Y-128233809D01*
X95422818Y-128504308D01*
X95556068Y-128753601D01*
X95735392Y-128972108D01*
X95953899Y-129151432D01*
X96086858Y-129222500D01*
X95953899Y-129293568D01*
X95735392Y-129472892D01*
X95556068Y-129691399D01*
X95422818Y-129940692D01*
X95340764Y-130211191D01*
X95313057Y-130492500D01*
X95340764Y-130773809D01*
X95422818Y-131044308D01*
X95556068Y-131293601D01*
X95735392Y-131512108D01*
X95953899Y-131691432D01*
X96086858Y-131762500D01*
X95953899Y-131833568D01*
X95735392Y-132012892D01*
X95556068Y-132231399D01*
X95422818Y-132480692D01*
X95340764Y-132751191D01*
X95313057Y-133032500D01*
X95340764Y-133313809D01*
X95417841Y-133567900D01*
X94385625Y-133567900D01*
X94348300Y-133564224D01*
X94310975Y-133567900D01*
X94310967Y-133567900D01*
X94199314Y-133578897D01*
X94056053Y-133622354D01*
X93924024Y-133692926D01*
X93808299Y-133787899D01*
X93784501Y-133816897D01*
X93051199Y-134550200D01*
X92989061Y-134550200D01*
X92789102Y-134589974D01*
X92600744Y-134667995D01*
X92431226Y-134781263D01*
X92287063Y-134925426D01*
X92173795Y-135094944D01*
X92095774Y-135283302D01*
X92056000Y-135483261D01*
X91368154Y-135483261D01*
X91349236Y-135291191D01*
X91267182Y-135020692D01*
X91133932Y-134771399D01*
X90954608Y-134552892D01*
X90736101Y-134373568D01*
X90608259Y-134305235D01*
X90837839Y-134155101D01*
X91039500Y-133957395D01*
X91198715Y-133724146D01*
X91309367Y-133464318D01*
X91326904Y-133381539D01*
X91204915Y-133159500D01*
X89662000Y-133159500D01*
X89662000Y-133179500D01*
X89408000Y-133179500D01*
X89408000Y-133159500D01*
X87865085Y-133159500D01*
X87743096Y-133381539D01*
X87760633Y-133464318D01*
X87871285Y-133724146D01*
X88030500Y-133957395D01*
X88232161Y-134155101D01*
X88461741Y-134305235D01*
X88333899Y-134373568D01*
X88115392Y-134552892D01*
X87936068Y-134771399D01*
X87802818Y-135020692D01*
X87720764Y-135291191D01*
X87693057Y-135572500D01*
X87720764Y-135853809D01*
X87726892Y-135874010D01*
X85735846Y-135874010D01*
X85761236Y-135790309D01*
X85788943Y-135509000D01*
X85761236Y-135227691D01*
X85679182Y-134957192D01*
X85545932Y-134707899D01*
X85499660Y-134651517D01*
X85520991Y-134634011D01*
X85544793Y-134605008D01*
X86236002Y-133913799D01*
X86265001Y-133890001D01*
X86311287Y-133833601D01*
X86359974Y-133774277D01*
X86430546Y-133642247D01*
X86448121Y-133584308D01*
X86474003Y-133498986D01*
X86485000Y-133387333D01*
X86485000Y-133387324D01*
X86488676Y-133350001D01*
X86485000Y-133312678D01*
X86485000Y-131252500D01*
X87914099Y-131252500D01*
X87936068Y-131293601D01*
X88115392Y-131512108D01*
X88333899Y-131691432D01*
X88461741Y-131759765D01*
X88232161Y-131909899D01*
X88030500Y-132107605D01*
X87871285Y-132340854D01*
X87760633Y-132600682D01*
X87743096Y-132683461D01*
X87865085Y-132905500D01*
X89408000Y-132905500D01*
X89408000Y-132885500D01*
X89662000Y-132885500D01*
X89662000Y-132905500D01*
X91204915Y-132905500D01*
X91326904Y-132683461D01*
X91309367Y-132600682D01*
X91198715Y-132340854D01*
X91039500Y-132107605D01*
X90837839Y-131909899D01*
X90608259Y-131759765D01*
X90736101Y-131691432D01*
X90954608Y-131512108D01*
X91133932Y-131293601D01*
X91267182Y-131044308D01*
X91349236Y-130773809D01*
X91376943Y-130492500D01*
X91349236Y-130211191D01*
X91267182Y-129940692D01*
X91232629Y-129876047D01*
X91267376Y-129857474D01*
X91383101Y-129762501D01*
X91406904Y-129733497D01*
X91823998Y-129316403D01*
X91853001Y-129292601D01*
X91929507Y-129199378D01*
X91947974Y-129176877D01*
X92018546Y-129044847D01*
X92033970Y-128994000D01*
X92062003Y-128901586D01*
X92073000Y-128789933D01*
X92073000Y-128789923D01*
X92076676Y-128752600D01*
X92073000Y-128715277D01*
X92073000Y-127411611D01*
X92116937Y-127367674D01*
X92230205Y-127198156D01*
X92308226Y-127009798D01*
X92348000Y-126809839D01*
X92348000Y-126605961D01*
X92308226Y-126406002D01*
X92230205Y-126217644D01*
X92116937Y-126048126D01*
X91972774Y-125903963D01*
X91803256Y-125790695D01*
X91614898Y-125712674D01*
X91414939Y-125672900D01*
X91351295Y-125672900D01*
X91376943Y-125412500D01*
X91349236Y-125131191D01*
X91267182Y-124860692D01*
X91133932Y-124611399D01*
X90954608Y-124392892D01*
X90736101Y-124213568D01*
X90486808Y-124080318D01*
X90216309Y-123998264D01*
X90005492Y-123977500D01*
X89064508Y-123977500D01*
X88853691Y-123998264D01*
X88583192Y-124080318D01*
X88333899Y-124213568D01*
X88115392Y-124392892D01*
X87936068Y-124611399D01*
X87802818Y-124860692D01*
X87720764Y-125131191D01*
X87693057Y-125412500D01*
X87720764Y-125693809D01*
X87802818Y-125964308D01*
X87936068Y-126213601D01*
X88115392Y-126432108D01*
X88333899Y-126611432D01*
X88466858Y-126682500D01*
X88333899Y-126753568D01*
X88115392Y-126932892D01*
X87936068Y-127151399D01*
X87802818Y-127400692D01*
X87720764Y-127671191D01*
X87693057Y-127952500D01*
X87720764Y-128233809D01*
X87790136Y-128462500D01*
X85667587Y-128462500D01*
X85679182Y-128440808D01*
X85761236Y-128170309D01*
X85788943Y-127889000D01*
X85761236Y-127607691D01*
X85679182Y-127337192D01*
X85545932Y-127087899D01*
X85366608Y-126869392D01*
X85253518Y-126776581D01*
X85271482Y-126774812D01*
X85391180Y-126738502D01*
X85501494Y-126679537D01*
X85598185Y-126600185D01*
X85677537Y-126503494D01*
X85736502Y-126393180D01*
X85772812Y-126273482D01*
X85785072Y-126149000D01*
X85785072Y-124549000D01*
X85772812Y-124424518D01*
X85736502Y-124304820D01*
X85677537Y-124194506D01*
X85598185Y-124097815D01*
X85501494Y-124018463D01*
X85391180Y-123959498D01*
X85271482Y-123923188D01*
X85147000Y-123910928D01*
X82747000Y-123910928D01*
X82622518Y-123923188D01*
X82502820Y-123959498D01*
X82392506Y-124018463D01*
X82295815Y-124097815D01*
X82216463Y-124194506D01*
X82157498Y-124304820D01*
X82121188Y-124424518D01*
X82108928Y-124549000D01*
X82108928Y-126149000D01*
X82121188Y-126273482D01*
X82157498Y-126393180D01*
X82216463Y-126503494D01*
X82295815Y-126600185D01*
X82392506Y-126679537D01*
X82502820Y-126738502D01*
X82622518Y-126774812D01*
X82640482Y-126776581D01*
X82527392Y-126869392D01*
X82348068Y-127087899D01*
X82214818Y-127337192D01*
X82132764Y-127607691D01*
X82105057Y-127889000D01*
X82132764Y-128170309D01*
X82214818Y-128440808D01*
X82226413Y-128462500D01*
X79020825Y-128462500D01*
X78983500Y-128458824D01*
X78946175Y-128462500D01*
X78946167Y-128462500D01*
X78834514Y-128473497D01*
X78691253Y-128516954D01*
X78559224Y-128587526D01*
X78443499Y-128682499D01*
X78419701Y-128711497D01*
X77732986Y-129398213D01*
X77528101Y-129230068D01*
X77395142Y-129159000D01*
X77528101Y-129087932D01*
X77746608Y-128908608D01*
X77925932Y-128690101D01*
X78059182Y-128440808D01*
X78141236Y-128170309D01*
X78168943Y-127889000D01*
X78141236Y-127607691D01*
X78059182Y-127337192D01*
X77925932Y-127087899D01*
X77746608Y-126869392D01*
X77528101Y-126690068D01*
X77395142Y-126619000D01*
X77528101Y-126547932D01*
X77746608Y-126368608D01*
X77925932Y-126150101D01*
X78059182Y-125900808D01*
X78141236Y-125630309D01*
X78168943Y-125349000D01*
X78141236Y-125067691D01*
X78059182Y-124797192D01*
X77925932Y-124547899D01*
X77746608Y-124329392D01*
X77528101Y-124150068D01*
X77278808Y-124016818D01*
X77008309Y-123934764D01*
X76797492Y-123914000D01*
X75975436Y-123914000D01*
X76308007Y-123542277D01*
X78086850Y-121791437D01*
X79973157Y-120156943D01*
X81959332Y-118645377D01*
X84037377Y-117262825D01*
X86198926Y-116014854D01*
X88435274Y-114906490D01*
X89459561Y-114477448D01*
X113882283Y-114477448D01*
X113882283Y-114760118D01*
X113937430Y-115037357D01*
X114045603Y-115298510D01*
X114202646Y-115533542D01*
X114402524Y-115733420D01*
X114637556Y-115890463D01*
X114898709Y-115998636D01*
X115175948Y-116053783D01*
X115458618Y-116053783D01*
X115732891Y-115999226D01*
X115678334Y-116273499D01*
X115678334Y-116556169D01*
X115733481Y-116833408D01*
X115841654Y-117094561D01*
X115998697Y-117329593D01*
X116198575Y-117529471D01*
X116433607Y-117686514D01*
X116694760Y-117794687D01*
X116971999Y-117849834D01*
X117254669Y-117849834D01*
X117528942Y-117795277D01*
X117474385Y-118069550D01*
X117474385Y-118352220D01*
X117529532Y-118629459D01*
X117637705Y-118890612D01*
X117794748Y-119125644D01*
X117994626Y-119325522D01*
X118229658Y-119482565D01*
X118490811Y-119590738D01*
X118768050Y-119645885D01*
X119050720Y-119645885D01*
X119324994Y-119591328D01*
X119270437Y-119865602D01*
X119270437Y-120148272D01*
X119325584Y-120425511D01*
X119433757Y-120686664D01*
X119590800Y-120921696D01*
X119790678Y-121121574D01*
X120025710Y-121278617D01*
X120286863Y-121386790D01*
X120564102Y-121441937D01*
X120846772Y-121441937D01*
X121121045Y-121387380D01*
X121066488Y-121661653D01*
X121066488Y-121944323D01*
X121121635Y-122221562D01*
X121229808Y-122482715D01*
X121386851Y-122717747D01*
X121586729Y-122917625D01*
X121821761Y-123074668D01*
X122082914Y-123182841D01*
X122360153Y-123237988D01*
X122642823Y-123237988D01*
X122917096Y-123183431D01*
X122862539Y-123457704D01*
X122862539Y-123740374D01*
X122917686Y-124017613D01*
X123025859Y-124278766D01*
X123182902Y-124513798D01*
X123382780Y-124713676D01*
X123617812Y-124870719D01*
X123878965Y-124978892D01*
X124156204Y-125034039D01*
X124438874Y-125034039D01*
X124713147Y-124979482D01*
X124658590Y-125253755D01*
X124658590Y-125536425D01*
X124713737Y-125813664D01*
X124821910Y-126074817D01*
X124978953Y-126309849D01*
X125178831Y-126509727D01*
X125413863Y-126666770D01*
X125675016Y-126774943D01*
X125952255Y-126830090D01*
X126234925Y-126830090D01*
X126509198Y-126775533D01*
X126454641Y-127049806D01*
X126454641Y-127332476D01*
X126509788Y-127609715D01*
X126617961Y-127870868D01*
X126775004Y-128105900D01*
X126974882Y-128305778D01*
X127209914Y-128462821D01*
X127471067Y-128570994D01*
X127748306Y-128626141D01*
X128030976Y-128626141D01*
X128305250Y-128571584D01*
X128250693Y-128845858D01*
X128250693Y-129128528D01*
X128305840Y-129405767D01*
X128414013Y-129666920D01*
X128571056Y-129901952D01*
X128770934Y-130101830D01*
X129005966Y-130258873D01*
X129267119Y-130367046D01*
X129544358Y-130422193D01*
X129827028Y-130422193D01*
X130101301Y-130367636D01*
X130046744Y-130641909D01*
X130046744Y-130924579D01*
X130101891Y-131201818D01*
X130210064Y-131462971D01*
X130367107Y-131698003D01*
X130566985Y-131897881D01*
X130802017Y-132054924D01*
X131063170Y-132163097D01*
X131340409Y-132218244D01*
X131623079Y-132218244D01*
X131897352Y-132163687D01*
X131842795Y-132437960D01*
X131842795Y-132720630D01*
X131897942Y-132997869D01*
X132006115Y-133259022D01*
X132163158Y-133494054D01*
X132363036Y-133693932D01*
X132598068Y-133850975D01*
X132859221Y-133959148D01*
X133136460Y-134014295D01*
X133419130Y-134014295D01*
X133696369Y-133959148D01*
X133706961Y-133954761D01*
X133654318Y-134165156D01*
X133640588Y-134446131D01*
X133681937Y-134724386D01*
X133776777Y-134989227D01*
X133842813Y-135112763D01*
X134086078Y-135183509D01*
X134894241Y-134375346D01*
X134880099Y-134361204D01*
X135059704Y-134181599D01*
X135073846Y-134195741D01*
X135882009Y-133387578D01*
X135811263Y-133144313D01*
X135687727Y-133078277D01*
X135422886Y-132983437D01*
X135144631Y-132942088D01*
X134863656Y-132955818D01*
X134653261Y-133008461D01*
X134657648Y-132997869D01*
X134712795Y-132720630D01*
X134712795Y-132437960D01*
X134657648Y-132160721D01*
X134549475Y-131899568D01*
X134392432Y-131664536D01*
X134192554Y-131464658D01*
X133957522Y-131307615D01*
X133696369Y-131199442D01*
X133419130Y-131144295D01*
X133136460Y-131144295D01*
X132862187Y-131198852D01*
X132916744Y-130924579D01*
X132916744Y-130641909D01*
X132861597Y-130364670D01*
X132753424Y-130103517D01*
X132596381Y-129868485D01*
X132396503Y-129668607D01*
X132161471Y-129511564D01*
X131900318Y-129403391D01*
X131623079Y-129348244D01*
X131340409Y-129348244D01*
X131066136Y-129402801D01*
X131120693Y-129128528D01*
X131120693Y-128845858D01*
X131065546Y-128568619D01*
X130957373Y-128307466D01*
X130800330Y-128072434D01*
X130600452Y-127872556D01*
X130365420Y-127715513D01*
X130104267Y-127607340D01*
X129827028Y-127552193D01*
X129544358Y-127552193D01*
X129270084Y-127606750D01*
X129324641Y-127332476D01*
X129324641Y-127049806D01*
X129269494Y-126772567D01*
X129161321Y-126511414D01*
X129004278Y-126276382D01*
X128804400Y-126076504D01*
X128569368Y-125919461D01*
X128326457Y-125818844D01*
X131889363Y-125818844D01*
X131966133Y-126067188D01*
X132101798Y-126139707D01*
X132376159Y-126237031D01*
X132664236Y-126278960D01*
X132954957Y-126263882D01*
X133237151Y-126192376D01*
X133499972Y-126067192D01*
X133577205Y-125819310D01*
X132733051Y-124975156D01*
X131889363Y-125818844D01*
X128326457Y-125818844D01*
X128308215Y-125811288D01*
X128030976Y-125756141D01*
X127748306Y-125756141D01*
X127474033Y-125810698D01*
X127528590Y-125536425D01*
X127528590Y-125253755D01*
X127473443Y-124976516D01*
X127365270Y-124715363D01*
X127208227Y-124480331D01*
X127008349Y-124280453D01*
X126773317Y-124123410D01*
X126512164Y-124015237D01*
X126234925Y-123960090D01*
X125952255Y-123960090D01*
X125677982Y-124014647D01*
X125732539Y-123740374D01*
X125732539Y-123457704D01*
X125677392Y-123180465D01*
X125569219Y-122919312D01*
X125412176Y-122684280D01*
X125212298Y-122484402D01*
X124977266Y-122327359D01*
X124716113Y-122219186D01*
X124438874Y-122164039D01*
X124156204Y-122164039D01*
X123881931Y-122218596D01*
X123936488Y-121944323D01*
X123936488Y-121661653D01*
X123881341Y-121384414D01*
X123773168Y-121123261D01*
X123616125Y-120888229D01*
X123416247Y-120688351D01*
X123181215Y-120531308D01*
X122920062Y-120423135D01*
X122642823Y-120367988D01*
X122360153Y-120367988D01*
X122085880Y-120422545D01*
X122140437Y-120148272D01*
X122140437Y-119865602D01*
X122085290Y-119588363D01*
X121977117Y-119327210D01*
X121820074Y-119092178D01*
X121620196Y-118892300D01*
X121385164Y-118735257D01*
X121124011Y-118627084D01*
X120846772Y-118571937D01*
X120564102Y-118571937D01*
X120289828Y-118626494D01*
X120344385Y-118352220D01*
X120344385Y-118069550D01*
X120289238Y-117792311D01*
X120181065Y-117531158D01*
X120024022Y-117296126D01*
X119824144Y-117096248D01*
X119589112Y-116939205D01*
X119327959Y-116831032D01*
X119050720Y-116775885D01*
X118768050Y-116775885D01*
X118493777Y-116830442D01*
X118548334Y-116556169D01*
X118548334Y-116273499D01*
X118493187Y-115996260D01*
X118385014Y-115735107D01*
X118227971Y-115500075D01*
X118028093Y-115300197D01*
X117793061Y-115143154D01*
X117531908Y-115034981D01*
X117254669Y-114979834D01*
X116971999Y-114979834D01*
X116697726Y-115034391D01*
X116752283Y-114760118D01*
X116752283Y-114477448D01*
X116697136Y-114200209D01*
X116588963Y-113939056D01*
X116431920Y-113704024D01*
X116232042Y-113504146D01*
X115997010Y-113347103D01*
X115735857Y-113238930D01*
X115458618Y-113183783D01*
X115175948Y-113183783D01*
X114898709Y-113238930D01*
X114637556Y-113347103D01*
X114402524Y-113504146D01*
X114202646Y-113704024D01*
X114045603Y-113939056D01*
X113937430Y-114200209D01*
X113882283Y-114477448D01*
X89459561Y-114477448D01*
X90737416Y-113942195D01*
X93096082Y-113125853D01*
X95501776Y-112460750D01*
X97944809Y-111949564D01*
X100415346Y-111594355D01*
X102903437Y-111396552D01*
X105399064Y-111356951D01*
X107892178Y-111475713D01*
G37*
X107892178Y-111475713D02*
X110372741Y-111752358D01*
X112830763Y-112185774D01*
X115256348Y-112774214D01*
X117639728Y-113515310D01*
X119971306Y-114406077D01*
X122241694Y-115442929D01*
X124441750Y-116621690D01*
X126562615Y-117937614D01*
X128595749Y-119385402D01*
X130532965Y-120959224D01*
X130775168Y-121182936D01*
X130692820Y-121207916D01*
X130582506Y-121266881D01*
X130485815Y-121346233D01*
X129283733Y-122548315D01*
X129204381Y-122645006D01*
X129145416Y-122755320D01*
X129109106Y-122875018D01*
X129096846Y-122999500D01*
X129109106Y-123123982D01*
X129145416Y-123243680D01*
X129204381Y-123353994D01*
X129283733Y-123450685D01*
X130485815Y-124652767D01*
X130582506Y-124732119D01*
X130692820Y-124791084D01*
X130812518Y-124827394D01*
X130937000Y-124839654D01*
X131061482Y-124827394D01*
X131181180Y-124791084D01*
X131255503Y-124751357D01*
X131249642Y-124864366D01*
X131291571Y-125152443D01*
X131388895Y-125426804D01*
X131461414Y-125562469D01*
X131709758Y-125639239D01*
X132553446Y-124795551D01*
X132539304Y-124781409D01*
X132718909Y-124601804D01*
X132733051Y-124615946D01*
X132747194Y-124601804D01*
X132926799Y-124781409D01*
X132912656Y-124795551D01*
X133756810Y-125639705D01*
X134004692Y-125562472D01*
X134129876Y-125299651D01*
X134201382Y-125017457D01*
X134216460Y-124726736D01*
X134196117Y-124586967D01*
X135693219Y-126371144D01*
X137173083Y-128381051D01*
X138522491Y-130480770D01*
X139736009Y-132661847D01*
X140808752Y-134915499D01*
X141736400Y-137232651D01*
X142515217Y-139603972D01*
X143142068Y-142019916D01*
X143614428Y-144470752D01*
X143930395Y-146946613D01*
X144088697Y-149437529D01*
X144088697Y-151933471D01*
X143930395Y-154424387D01*
X143614428Y-156900248D01*
X143142068Y-159351084D01*
X142515217Y-161767028D01*
X141736400Y-164138349D01*
X140808752Y-166455501D01*
X139736009Y-168709153D01*
X138522491Y-170890230D01*
X137173083Y-172989949D01*
X135693219Y-174999856D01*
X134088859Y-176911858D01*
X132366462Y-178718256D01*
X130532965Y-180411776D01*
X128595749Y-181985598D01*
X126562615Y-183433386D01*
X124441750Y-184749310D01*
X122241694Y-185928071D01*
X119971306Y-186964923D01*
X117639728Y-187855690D01*
X115256348Y-188596786D01*
X112830763Y-189185226D01*
X110372741Y-189618642D01*
X107892178Y-189895287D01*
X105399064Y-190014049D01*
X102903437Y-189974448D01*
X100415346Y-189776645D01*
X97944809Y-189421436D01*
X95501776Y-188910250D01*
X93096082Y-188245147D01*
X90737416Y-187428805D01*
X88435274Y-186464510D01*
X86198926Y-185356146D01*
X84037377Y-184108175D01*
X81959332Y-182725623D01*
X79973157Y-181214057D01*
X78086850Y-179579563D01*
X76308007Y-177828723D01*
X74643791Y-175968586D01*
X73100902Y-174006644D01*
X71685554Y-171950796D01*
X70403446Y-169809319D01*
X69259739Y-167590838D01*
X68259040Y-165304285D01*
X67405378Y-162958868D01*
X66702190Y-160564029D01*
X66152308Y-158129414D01*
X65757945Y-155664824D01*
X65520691Y-153180185D01*
X65441500Y-150685500D01*
X65469720Y-149796500D01*
X89125807Y-149796500D01*
X89129000Y-149828918D01*
X89129001Y-151542071D01*
X89125807Y-151574500D01*
X89138550Y-151703883D01*
X89176290Y-151828293D01*
X89237575Y-151942950D01*
X89320052Y-152043448D01*
X89420550Y-152125925D01*
X89535207Y-152187210D01*
X89659617Y-152224950D01*
X89756581Y-152234500D01*
X89789000Y-152237693D01*
X89821419Y-152234500D01*
X90212318Y-152234500D01*
X90139068Y-152411342D01*
X90082000Y-152698240D01*
X90082000Y-152990760D01*
X90139068Y-153277658D01*
X90251010Y-153547911D01*
X90413525Y-153791132D01*
X90620368Y-153997975D01*
X90863589Y-154160490D01*
X91133842Y-154272432D01*
X91420740Y-154329500D01*
X91713260Y-154329500D01*
X92000158Y-154272432D01*
X92270411Y-154160490D01*
X92513632Y-153997975D01*
X92720475Y-153791132D01*
X92837000Y-153616740D01*
X92953525Y-153791132D01*
X93160368Y-153997975D01*
X93403589Y-154160490D01*
X93673842Y-154272432D01*
X93960740Y-154329500D01*
X94253260Y-154329500D01*
X94540158Y-154272432D01*
X94810411Y-154160490D01*
X95053632Y-153997975D01*
X95260475Y-153791132D01*
X95377000Y-153616740D01*
X95493525Y-153791132D01*
X95700368Y-153997975D01*
X95943589Y-154160490D01*
X96213842Y-154272432D01*
X96500740Y-154329500D01*
X96793260Y-154329500D01*
X97080158Y-154272432D01*
X97350411Y-154160490D01*
X97593632Y-153997975D01*
X97800475Y-153791132D01*
X97917000Y-153616740D01*
X98033525Y-153791132D01*
X98240368Y-153997975D01*
X98483589Y-154160490D01*
X98753842Y-154272432D01*
X99040740Y-154329500D01*
X99333260Y-154329500D01*
X99620158Y-154272432D01*
X99890411Y-154160490D01*
X100133632Y-153997975D01*
X100265487Y-153866120D01*
X100287498Y-153938680D01*
X100346463Y-154048994D01*
X100425815Y-154145685D01*
X100522506Y-154225037D01*
X100632820Y-154284002D01*
X100752518Y-154320312D01*
X100877000Y-154332572D01*
X102577000Y-154332572D01*
X102701482Y-154320312D01*
X102821180Y-154284002D01*
X102931494Y-154225037D01*
X103028185Y-154145685D01*
X103107537Y-154048994D01*
X103166502Y-153938680D01*
X103202812Y-153818982D01*
X103215072Y-153694500D01*
X103215072Y-152234500D01*
X103226000Y-152234500D01*
X103226001Y-165639071D01*
X103222807Y-165671500D01*
X103235550Y-165800883D01*
X103273290Y-165925293D01*
X103334575Y-166039950D01*
X103417052Y-166140448D01*
X103517550Y-166222925D01*
X103632207Y-166284210D01*
X103756617Y-166321950D01*
X103853581Y-166331500D01*
X103886000Y-166334693D01*
X103918419Y-166331500D01*
X105631581Y-166331500D01*
X105664000Y-166334693D01*
X105696419Y-166331500D01*
X105793383Y-166321950D01*
X105917793Y-166284210D01*
X106032450Y-166222925D01*
X106132948Y-166140448D01*
X106215425Y-166039950D01*
X106276710Y-165925293D01*
X106314450Y-165800883D01*
X106327193Y-165671500D01*
X106324000Y-165639081D01*
X106324000Y-165248182D01*
X106500842Y-165321432D01*
X106787740Y-165378500D01*
X106801225Y-165378500D01*
X106655226Y-165476053D01*
X106511063Y-165620216D01*
X106397795Y-165789734D01*
X106319774Y-165978092D01*
X106280000Y-166178051D01*
X106280000Y-166381929D01*
X106319774Y-166581888D01*
X106397795Y-166770246D01*
X106511063Y-166939764D01*
X106655226Y-167083927D01*
X106824744Y-167197195D01*
X107013102Y-167275216D01*
X107213061Y-167314990D01*
X107416939Y-167314990D01*
X107616898Y-167275216D01*
X107805256Y-167197195D01*
X107905821Y-167130000D01*
X111056289Y-167130000D01*
X111100226Y-167173937D01*
X111269744Y-167287205D01*
X111458102Y-167365226D01*
X111658061Y-167405000D01*
X111861939Y-167405000D01*
X112061898Y-167365226D01*
X112250256Y-167287205D01*
X112419774Y-167173937D01*
X112563937Y-167029774D01*
X112677205Y-166860256D01*
X112755226Y-166671898D01*
X112795000Y-166471939D01*
X112795000Y-166268061D01*
X112755226Y-166068102D01*
X112677205Y-165879744D01*
X112563937Y-165710226D01*
X112419774Y-165566063D01*
X112250256Y-165452795D01*
X112061898Y-165374774D01*
X111861939Y-165335000D01*
X111658061Y-165335000D01*
X111458102Y-165374774D01*
X111269744Y-165452795D01*
X111100226Y-165566063D01*
X111056289Y-165610000D01*
X108108721Y-165610000D01*
X107974774Y-165476053D01*
X107805256Y-165362785D01*
X107616898Y-165284764D01*
X107507985Y-165263100D01*
X107637411Y-165209490D01*
X107880632Y-165046975D01*
X108087475Y-164840132D01*
X108249990Y-164596911D01*
X108361932Y-164326658D01*
X108419000Y-164039760D01*
X108419000Y-163747240D01*
X108361932Y-163460342D01*
X108249990Y-163190089D01*
X108087475Y-162946868D01*
X107880632Y-162740025D01*
X107706240Y-162623500D01*
X107880632Y-162506975D01*
X108087475Y-162300132D01*
X108249990Y-162056911D01*
X108361932Y-161786658D01*
X108419000Y-161499760D01*
X108419000Y-161207240D01*
X108361932Y-160920342D01*
X108249990Y-160650089D01*
X108087475Y-160406868D01*
X107880632Y-160200025D01*
X107706240Y-160083500D01*
X107880632Y-159966975D01*
X108087475Y-159760132D01*
X108249990Y-159516911D01*
X108361932Y-159246658D01*
X108419000Y-158959760D01*
X108419000Y-158667240D01*
X108361932Y-158380342D01*
X108249990Y-158110089D01*
X108087475Y-157866868D01*
X107880632Y-157660025D01*
X107706240Y-157543500D01*
X107880632Y-157426975D01*
X108087475Y-157220132D01*
X108249990Y-156976911D01*
X108361932Y-156706658D01*
X108419000Y-156419760D01*
X108419000Y-156127240D01*
X108361932Y-155840342D01*
X108249990Y-155570089D01*
X108087475Y-155326868D01*
X107955620Y-155195013D01*
X108028180Y-155173002D01*
X108138494Y-155114037D01*
X108235185Y-155034685D01*
X108314537Y-154937994D01*
X108373502Y-154827680D01*
X108409812Y-154707982D01*
X108422072Y-154583500D01*
X108422072Y-152883500D01*
X108409812Y-152759018D01*
X108373502Y-152639320D01*
X108314537Y-152529006D01*
X108235185Y-152432315D01*
X108138494Y-152352963D01*
X108028180Y-152293998D01*
X107908482Y-152257688D01*
X107784000Y-152245428D01*
X106324000Y-152245428D01*
X106324000Y-152234500D01*
X119728581Y-152234500D01*
X119761000Y-152237693D01*
X119793419Y-152234500D01*
X119890383Y-152224950D01*
X120014793Y-152187210D01*
X120129450Y-152125925D01*
X120229948Y-152043448D01*
X120312425Y-151942950D01*
X120373710Y-151828293D01*
X120411450Y-151703883D01*
X120424193Y-151574500D01*
X120421000Y-151542081D01*
X120421000Y-149828918D01*
X120424193Y-149796500D01*
X120417794Y-149731524D01*
X127081478Y-149731524D01*
X127152224Y-149974789D01*
X127275760Y-150040825D01*
X127540601Y-150135665D01*
X127818856Y-150177014D01*
X128099831Y-150163284D01*
X128310228Y-150110641D01*
X128305840Y-150121233D01*
X128250693Y-150398472D01*
X128250693Y-150681142D01*
X128305840Y-150958381D01*
X128414013Y-151219534D01*
X128571056Y-151454566D01*
X128770934Y-151654444D01*
X129005966Y-151811487D01*
X129267119Y-151919660D01*
X129544358Y-151974807D01*
X129827028Y-151974807D01*
X130104267Y-151919660D01*
X130365420Y-151811487D01*
X130600452Y-151654444D01*
X130800330Y-151454566D01*
X130957373Y-151219534D01*
X131065546Y-150958381D01*
X131120693Y-150681142D01*
X131120693Y-150398472D01*
X131065546Y-150121233D01*
X130957373Y-149860080D01*
X130800330Y-149625048D01*
X130600452Y-149425170D01*
X130365420Y-149268127D01*
X130104267Y-149159954D01*
X129827028Y-149104807D01*
X129544358Y-149104807D01*
X129267119Y-149159954D01*
X129256526Y-149164342D01*
X129309169Y-148953946D01*
X129322899Y-148672971D01*
X129281550Y-148394716D01*
X129186710Y-148129875D01*
X129120674Y-148006339D01*
X128877409Y-147935593D01*
X128069246Y-148743756D01*
X128083389Y-148757899D01*
X127903784Y-148937504D01*
X127889641Y-148923361D01*
X127081478Y-149731524D01*
X120417794Y-149731524D01*
X120411450Y-149667117D01*
X120373710Y-149542707D01*
X120312425Y-149428050D01*
X120229948Y-149327552D01*
X120129450Y-149245075D01*
X120014793Y-149183790D01*
X119890383Y-149146050D01*
X119793419Y-149136500D01*
X119761000Y-149133307D01*
X119728581Y-149136500D01*
X119226341Y-149136500D01*
X119327157Y-148967252D01*
X119424481Y-148692891D01*
X119303814Y-148463000D01*
X118110000Y-148463000D01*
X118110000Y-148483000D01*
X117856000Y-148483000D01*
X117856000Y-148463000D01*
X117836000Y-148463000D01*
X117836000Y-148209000D01*
X117856000Y-148209000D01*
X117856000Y-147015845D01*
X118110000Y-147015845D01*
X118110000Y-148209000D01*
X119303814Y-148209000D01*
X119424481Y-147979109D01*
X119327157Y-147704748D01*
X119178178Y-147454645D01*
X118983269Y-147238412D01*
X118749920Y-147064359D01*
X118487099Y-146939175D01*
X118339890Y-146894524D01*
X118110000Y-147015845D01*
X117856000Y-147015845D01*
X117626110Y-146894524D01*
X117478901Y-146939175D01*
X117216080Y-147064359D01*
X116982731Y-147238412D01*
X116787822Y-147454645D01*
X116718195Y-147571534D01*
X116596475Y-147389368D01*
X116389632Y-147182525D01*
X116146411Y-147020010D01*
X115876158Y-146908068D01*
X115608037Y-146854735D01*
X114927304Y-146174002D01*
X114903501Y-146144999D01*
X114787776Y-146050026D01*
X114655747Y-145979454D01*
X114512486Y-145935997D01*
X114400833Y-145925000D01*
X114400822Y-145925000D01*
X114363500Y-145921324D01*
X114326178Y-145925000D01*
X109615415Y-145925000D01*
X109580226Y-145748094D01*
X109502205Y-145559736D01*
X109388937Y-145390218D01*
X109244774Y-145246055D01*
X109075256Y-145132787D01*
X108886898Y-145054766D01*
X108686939Y-145014992D01*
X108483061Y-145014992D01*
X108283102Y-145054766D01*
X108094744Y-145132787D01*
X107925226Y-145246055D01*
X107781063Y-145390218D01*
X107667795Y-145559736D01*
X107589774Y-145748094D01*
X107550000Y-145948053D01*
X107550000Y-146151931D01*
X107589774Y-146351890D01*
X107667795Y-146540248D01*
X107781063Y-146709766D01*
X107919225Y-146847928D01*
X106973000Y-146847928D01*
X106848518Y-146860188D01*
X106728820Y-146896498D01*
X106618506Y-146955463D01*
X106521815Y-147034815D01*
X106442463Y-147131506D01*
X106383498Y-147241820D01*
X106347188Y-147361518D01*
X106334928Y-147486000D01*
X106334928Y-149136500D01*
X106324000Y-149136500D01*
X106324000Y-144175258D01*
X106395424Y-144233874D01*
X106527453Y-144304446D01*
X106670714Y-144347903D01*
X106782367Y-144358900D01*
X106782376Y-144358900D01*
X106819699Y-144362576D01*
X106857022Y-144358900D01*
X110065689Y-144358900D01*
X110109626Y-144402837D01*
X110279144Y-144516105D01*
X110467502Y-144594126D01*
X110667461Y-144633900D01*
X110871339Y-144633900D01*
X111071298Y-144594126D01*
X111259656Y-144516105D01*
X111429174Y-144402837D01*
X111573337Y-144258674D01*
X111686605Y-144089156D01*
X111764626Y-143900798D01*
X111765322Y-143897300D01*
X111823839Y-143897300D01*
X112023798Y-143857526D01*
X112212156Y-143779505D01*
X112381674Y-143666237D01*
X112525837Y-143522074D01*
X112639105Y-143352556D01*
X112717126Y-143164198D01*
X112756900Y-142964239D01*
X112756900Y-142760361D01*
X112717126Y-142560402D01*
X112639105Y-142372044D01*
X112525837Y-142202526D01*
X112381674Y-142058363D01*
X112212156Y-141945095D01*
X112023798Y-141867074D01*
X111823839Y-141827300D01*
X111619961Y-141827300D01*
X111420002Y-141867074D01*
X111231644Y-141945095D01*
X111062126Y-142058363D01*
X111018189Y-142102300D01*
X108097110Y-142102300D01*
X108097110Y-142055590D01*
X108057336Y-141855631D01*
X107979315Y-141667273D01*
X107866047Y-141497755D01*
X107721884Y-141353592D01*
X107552366Y-141240324D01*
X107364008Y-141162303D01*
X107164049Y-141122529D01*
X106960171Y-141122529D01*
X106760212Y-141162303D01*
X106571854Y-141240324D01*
X106402336Y-141353592D01*
X106324000Y-141431928D01*
X106324000Y-135731919D01*
X106327193Y-135699500D01*
X106314450Y-135570117D01*
X106276710Y-135445707D01*
X106215425Y-135331050D01*
X106132948Y-135230552D01*
X106032450Y-135148075D01*
X105917793Y-135086790D01*
X105793383Y-135049050D01*
X105696419Y-135039500D01*
X105664000Y-135036307D01*
X105631581Y-135039500D01*
X103918419Y-135039500D01*
X103886000Y-135036307D01*
X103853581Y-135039500D01*
X103756617Y-135049050D01*
X103632207Y-135086790D01*
X103517550Y-135148075D01*
X103417052Y-135230552D01*
X103334575Y-135331050D01*
X103273290Y-135445707D01*
X103235550Y-135570117D01*
X103222807Y-135699500D01*
X103226001Y-135731929D01*
X103226001Y-136125805D01*
X102972891Y-136036019D01*
X102743000Y-136156686D01*
X102743000Y-137350500D01*
X102763000Y-137350500D01*
X102763000Y-137604500D01*
X102743000Y-137604500D01*
X102743000Y-137624500D01*
X102489000Y-137624500D01*
X102489000Y-137604500D01*
X101295845Y-137604500D01*
X101174524Y-137834390D01*
X101219175Y-137981599D01*
X101344359Y-138244420D01*
X101518412Y-138477769D01*
X101734645Y-138672678D01*
X101851534Y-138742305D01*
X101669368Y-138864025D01*
X101462525Y-139070868D01*
X101300010Y-139314089D01*
X101188068Y-139584342D01*
X101131000Y-139871240D01*
X101131000Y-140163760D01*
X101188068Y-140450658D01*
X101300010Y-140720911D01*
X101462525Y-140964132D01*
X101669368Y-141170975D01*
X101843760Y-141287500D01*
X101669368Y-141404025D01*
X101462525Y-141610868D01*
X101300010Y-141854089D01*
X101188068Y-142124342D01*
X101131000Y-142411240D01*
X101131000Y-142703760D01*
X101188068Y-142990658D01*
X101300010Y-143260911D01*
X101462525Y-143504132D01*
X101669368Y-143710975D01*
X101843760Y-143827500D01*
X101669368Y-143944025D01*
X101462525Y-144150868D01*
X101300010Y-144394089D01*
X101188068Y-144664342D01*
X101131000Y-144951240D01*
X101131000Y-145243760D01*
X101188068Y-145530658D01*
X101300010Y-145800911D01*
X101462525Y-146044132D01*
X101594380Y-146175987D01*
X101521820Y-146197998D01*
X101411506Y-146256963D01*
X101314815Y-146336315D01*
X101235463Y-146433006D01*
X101176498Y-146543320D01*
X101140188Y-146663018D01*
X101127928Y-146787500D01*
X101127928Y-148487500D01*
X101140188Y-148611982D01*
X101176498Y-148731680D01*
X101235463Y-148841994D01*
X101314815Y-148938685D01*
X101411506Y-149018037D01*
X101521820Y-149077002D01*
X101641518Y-149113312D01*
X101766000Y-149125572D01*
X103226000Y-149125572D01*
X103226000Y-149136500D01*
X89821419Y-149136500D01*
X89789000Y-149133307D01*
X89756581Y-149136500D01*
X89659617Y-149146050D01*
X89535207Y-149183790D01*
X89420550Y-149245075D01*
X89320052Y-149327552D01*
X89237575Y-149428050D01*
X89176290Y-149542707D01*
X89138550Y-149667117D01*
X89125807Y-149796500D01*
X65469720Y-149796500D01*
X65520691Y-148190815D01*
X65757945Y-145706176D01*
X66152308Y-143241586D01*
X66702190Y-140806971D01*
X67405378Y-138412132D01*
X68259040Y-136066715D01*
X69259739Y-133780162D01*
X70403446Y-131561681D01*
X71685554Y-129420204D01*
X73100902Y-127364356D01*
X74507400Y-125575849D01*
X74512764Y-125630309D01*
X74594818Y-125900808D01*
X74728068Y-126150101D01*
X74907392Y-126368608D01*
X75125899Y-126547932D01*
X75258858Y-126619000D01*
X75125899Y-126690068D01*
X74907392Y-126869392D01*
X74728068Y-127087899D01*
X74594818Y-127337192D01*
X74512764Y-127607691D01*
X74485057Y-127889000D01*
X74512764Y-128170309D01*
X74594818Y-128440808D01*
X74728068Y-128690101D01*
X74907392Y-128908608D01*
X75125899Y-129087932D01*
X75258858Y-129159000D01*
X75125899Y-129230068D01*
X74907392Y-129409392D01*
X74728068Y-129627899D01*
X74594818Y-129877192D01*
X74512764Y-130147691D01*
X74485057Y-130429000D01*
X74512764Y-130710309D01*
X74594818Y-130980808D01*
X74728068Y-131230101D01*
X74907392Y-131448608D01*
X75125899Y-131627932D01*
X75253741Y-131696265D01*
X75024161Y-131846399D01*
X74822500Y-132044105D01*
X74663285Y-132277354D01*
X74552633Y-132537182D01*
X74535096Y-132619961D01*
X74657085Y-132842000D01*
X76200000Y-132842000D01*
X76200000Y-132822000D01*
X76454000Y-132822000D01*
X76454000Y-132842000D01*
X77996915Y-132842000D01*
X78011586Y-132815297D01*
X78080226Y-132883937D01*
X78249744Y-132997205D01*
X78438102Y-133075226D01*
X78638061Y-133115000D01*
X78700198Y-133115000D01*
X78919208Y-133334010D01*
X78115520Y-133334010D01*
X78118904Y-133318039D01*
X77996915Y-133096000D01*
X76454000Y-133096000D01*
X76454000Y-133116000D01*
X76200000Y-133116000D01*
X76200000Y-133096000D01*
X74657085Y-133096000D01*
X74535096Y-133318039D01*
X74548731Y-133382401D01*
X74528743Y-133388464D01*
X74396714Y-133459036D01*
X74280989Y-133554009D01*
X74257190Y-133583008D01*
X73784002Y-134056197D01*
X73754999Y-134079999D01*
X73707810Y-134137500D01*
X73660026Y-134195724D01*
X73594608Y-134318112D01*
X73589454Y-134327754D01*
X73545997Y-134471015D01*
X73535000Y-134582668D01*
X73535000Y-134582678D01*
X73531324Y-134620000D01*
X73535000Y-134657322D01*
X73535001Y-142509668D01*
X73531324Y-142547000D01*
X73535001Y-142584333D01*
X73545998Y-142695986D01*
X73548649Y-142704724D01*
X73589454Y-142839246D01*
X73660026Y-142971276D01*
X73731201Y-143058002D01*
X73755000Y-143087001D01*
X73783998Y-143110799D01*
X74313200Y-143640002D01*
X74336999Y-143669001D01*
X74452724Y-143763974D01*
X74584753Y-143834546D01*
X74694843Y-143867941D01*
X74728068Y-143930101D01*
X74907392Y-144148608D01*
X75125899Y-144327932D01*
X75375192Y-144461182D01*
X75645691Y-144543236D01*
X75856508Y-144564000D01*
X76797492Y-144564000D01*
X77008309Y-144543236D01*
X77278808Y-144461182D01*
X77528101Y-144327932D01*
X77746608Y-144148608D01*
X77925932Y-143930101D01*
X78059182Y-143680808D01*
X78120690Y-143478039D01*
X82155096Y-143478039D01*
X82172633Y-143560818D01*
X82283285Y-143820646D01*
X82442500Y-144053895D01*
X82644161Y-144251601D01*
X82880517Y-144406166D01*
X83142486Y-144511650D01*
X83420000Y-144564000D01*
X83820000Y-144564000D01*
X83820000Y-143256000D01*
X84074000Y-143256000D01*
X84074000Y-144564000D01*
X84474000Y-144564000D01*
X84751514Y-144511650D01*
X85013483Y-144406166D01*
X85249839Y-144251601D01*
X85451500Y-144053895D01*
X85610715Y-143820646D01*
X85721367Y-143560818D01*
X85738904Y-143478039D01*
X85616915Y-143256000D01*
X84074000Y-143256000D01*
X83820000Y-143256000D01*
X82277085Y-143256000D01*
X82155096Y-143478039D01*
X78120690Y-143478039D01*
X78141236Y-143410309D01*
X78168943Y-143129000D01*
X78141236Y-142847691D01*
X78075717Y-142631700D01*
X82200520Y-142631700D01*
X82172633Y-142697182D01*
X82155096Y-142779961D01*
X82277085Y-143002000D01*
X83820000Y-143002000D01*
X83820000Y-142982000D01*
X84074000Y-142982000D01*
X84074000Y-143002000D01*
X85616915Y-143002000D01*
X85738904Y-142779961D01*
X85721367Y-142697182D01*
X85640429Y-142507127D01*
X85641276Y-142506674D01*
X85757001Y-142411701D01*
X85780803Y-142382698D01*
X86488702Y-141674800D01*
X86550839Y-141674800D01*
X86750798Y-141635026D01*
X86939156Y-141557005D01*
X87108674Y-141443737D01*
X87139911Y-141412500D01*
X87914099Y-141412500D01*
X87936068Y-141453601D01*
X88115392Y-141672108D01*
X88333899Y-141851432D01*
X88466858Y-141922500D01*
X88333899Y-141993568D01*
X88115392Y-142172892D01*
X87936068Y-142391399D01*
X87802818Y-142640692D01*
X87720764Y-142911191D01*
X87693057Y-143192500D01*
X87720764Y-143473809D01*
X87802818Y-143744308D01*
X87936068Y-143993601D01*
X88115392Y-144212108D01*
X88333899Y-144391432D01*
X88583192Y-144524682D01*
X88853691Y-144606736D01*
X89064508Y-144627500D01*
X90005492Y-144627500D01*
X90216309Y-144606736D01*
X90486808Y-144524682D01*
X90736101Y-144391432D01*
X90954608Y-144212108D01*
X91133932Y-143993601D01*
X91267182Y-143744308D01*
X91328690Y-143541539D01*
X95363096Y-143541539D01*
X95380633Y-143624318D01*
X95491285Y-143884146D01*
X95650500Y-144117395D01*
X95852161Y-144315101D01*
X96088517Y-144469666D01*
X96350486Y-144575150D01*
X96628000Y-144627500D01*
X97028000Y-144627500D01*
X97028000Y-143319500D01*
X97282000Y-143319500D01*
X97282000Y-144627500D01*
X97682000Y-144627500D01*
X97959514Y-144575150D01*
X98221483Y-144469666D01*
X98457839Y-144315101D01*
X98659500Y-144117395D01*
X98818715Y-143884146D01*
X98929367Y-143624318D01*
X98946904Y-143541539D01*
X98824915Y-143319500D01*
X97282000Y-143319500D01*
X97028000Y-143319500D01*
X95485085Y-143319500D01*
X95363096Y-143541539D01*
X91328690Y-143541539D01*
X91349236Y-143473809D01*
X91376943Y-143192500D01*
X91349236Y-142911191D01*
X91267182Y-142640692D01*
X91133932Y-142391399D01*
X90954608Y-142172892D01*
X90736101Y-141993568D01*
X90603142Y-141922500D01*
X90736101Y-141851432D01*
X90954608Y-141672108D01*
X91133932Y-141453601D01*
X91267182Y-141204308D01*
X91349236Y-140933809D01*
X91376943Y-140652500D01*
X91349236Y-140371191D01*
X91267182Y-140100692D01*
X91133932Y-139851399D01*
X90954608Y-139632892D01*
X90736101Y-139453568D01*
X90603142Y-139382500D01*
X90736101Y-139311432D01*
X90954608Y-139132108D01*
X91133932Y-138913601D01*
X91267182Y-138664308D01*
X91349236Y-138393809D01*
X91376943Y-138112500D01*
X91349236Y-137831191D01*
X91267182Y-137560692D01*
X91133932Y-137311399D01*
X90954608Y-137092892D01*
X90736101Y-136913568D01*
X90603142Y-136842500D01*
X90736101Y-136771432D01*
X90954608Y-136592108D01*
X91133932Y-136373601D01*
X91267182Y-136124308D01*
X91349236Y-135853809D01*
X91376943Y-135572500D01*
X91368154Y-135483261D01*
X92056000Y-135483261D01*
X92056000Y-135687139D01*
X92095774Y-135887098D01*
X92173795Y-136075456D01*
X92287063Y-136244974D01*
X92431226Y-136389137D01*
X92600744Y-136502405D01*
X92789102Y-136580426D01*
X92989061Y-136620200D01*
X93192939Y-136620200D01*
X93392898Y-136580426D01*
X93581256Y-136502405D01*
X93750774Y-136389137D01*
X93894937Y-136244974D01*
X94008205Y-136075456D01*
X94086226Y-135887098D01*
X94126000Y-135687139D01*
X94126000Y-135625001D01*
X94663102Y-135087900D01*
X95402431Y-135087900D01*
X95340764Y-135291191D01*
X95313057Y-135572500D01*
X95340764Y-135853809D01*
X95413988Y-136095200D01*
X94411025Y-136095200D01*
X94373700Y-136091524D01*
X94336375Y-136095200D01*
X94336367Y-136095200D01*
X94224714Y-136106197D01*
X94081453Y-136149654D01*
X93949424Y-136220226D01*
X93833699Y-136315199D01*
X93809901Y-136344197D01*
X93076599Y-137077500D01*
X93014461Y-137077500D01*
X92814502Y-137117274D01*
X92626144Y-137195295D01*
X92456626Y-137308563D01*
X92312463Y-137452726D01*
X92199195Y-137622244D01*
X92121174Y-137810602D01*
X92081400Y-138010561D01*
X92081400Y-138214439D01*
X92121174Y-138414398D01*
X92199195Y-138602756D01*
X92312463Y-138772274D01*
X92456626Y-138916437D01*
X92626144Y-139029705D01*
X92814502Y-139107726D01*
X93014461Y-139147500D01*
X93218339Y-139147500D01*
X93418298Y-139107726D01*
X93606656Y-139029705D01*
X93776174Y-138916437D01*
X93920337Y-138772274D01*
X94033605Y-138602756D01*
X94111626Y-138414398D01*
X94151400Y-138214439D01*
X94151400Y-138152301D01*
X94688502Y-137615200D01*
X95406283Y-137615200D01*
X95340764Y-137831191D01*
X95313057Y-138112500D01*
X95340764Y-138393809D01*
X95422818Y-138664308D01*
X95556068Y-138913601D01*
X95735392Y-139132108D01*
X95953899Y-139311432D01*
X96086858Y-139382500D01*
X95953899Y-139453568D01*
X95735392Y-139632892D01*
X95556068Y-139851399D01*
X95422818Y-140100692D01*
X95340764Y-140371191D01*
X95313057Y-140652500D01*
X95340764Y-140933809D01*
X95422818Y-141204308D01*
X95556068Y-141453601D01*
X95735392Y-141672108D01*
X95953899Y-141851432D01*
X96081741Y-141919765D01*
X95852161Y-142069899D01*
X95650500Y-142267605D01*
X95491285Y-142500854D01*
X95380633Y-142760682D01*
X95363096Y-142843461D01*
X95485085Y-143065500D01*
X97028000Y-143065500D01*
X97028000Y-143045500D01*
X97282000Y-143045500D01*
X97282000Y-143065500D01*
X98824915Y-143065500D01*
X98946904Y-142843461D01*
X98929367Y-142760682D01*
X98818715Y-142500854D01*
X98659500Y-142267605D01*
X98457839Y-142069899D01*
X98228259Y-141919765D01*
X98356101Y-141851432D01*
X98574608Y-141672108D01*
X98753932Y-141453601D01*
X98887182Y-141204308D01*
X98969236Y-140933809D01*
X98996943Y-140652500D01*
X98969236Y-140371191D01*
X98887182Y-140100692D01*
X98753932Y-139851399D01*
X98574608Y-139632892D01*
X98356101Y-139453568D01*
X98223142Y-139382500D01*
X98356101Y-139311432D01*
X98574608Y-139132108D01*
X98753932Y-138913601D01*
X98887182Y-138664308D01*
X98969236Y-138393809D01*
X98996943Y-138112500D01*
X98973026Y-137869675D01*
X99069798Y-137850426D01*
X99258156Y-137772405D01*
X99427674Y-137659137D01*
X99571837Y-137514974D01*
X99685105Y-137345456D01*
X99763126Y-137157098D01*
X99770383Y-137120610D01*
X101174524Y-137120610D01*
X101295845Y-137350500D01*
X102489000Y-137350500D01*
X102489000Y-136156686D01*
X102259109Y-136036019D01*
X101984748Y-136133343D01*
X101734645Y-136282322D01*
X101518412Y-136477231D01*
X101344359Y-136710580D01*
X101219175Y-136973401D01*
X101174524Y-137120610D01*
X99770383Y-137120610D01*
X99802900Y-136957139D01*
X99802900Y-136753261D01*
X99763126Y-136553302D01*
X99685105Y-136364944D01*
X99571837Y-136195426D01*
X99427674Y-136051263D01*
X99258156Y-135937995D01*
X99069798Y-135859974D01*
X98970573Y-135840237D01*
X98996943Y-135572500D01*
X98974985Y-135349564D01*
X99107898Y-135323126D01*
X99296256Y-135245105D01*
X99465774Y-135131837D01*
X99609937Y-134987674D01*
X99723205Y-134818156D01*
X99801226Y-134629798D01*
X99841000Y-134429839D01*
X99841000Y-134225961D01*
X99801226Y-134026002D01*
X99723205Y-133837644D01*
X99609937Y-133668126D01*
X99465774Y-133523963D01*
X99296256Y-133410695D01*
X99107898Y-133332674D01*
X98970078Y-133305260D01*
X98996943Y-133032500D01*
X98969236Y-132751191D01*
X98887182Y-132480692D01*
X98753932Y-132231399D01*
X98574608Y-132012892D01*
X98356101Y-131833568D01*
X98223142Y-131762500D01*
X98356101Y-131691432D01*
X98574608Y-131512108D01*
X98753932Y-131293601D01*
X98887182Y-131044308D01*
X98969236Y-130773809D01*
X98996943Y-130492500D01*
X98969236Y-130211191D01*
X98887182Y-129940692D01*
X98753932Y-129691399D01*
X98574608Y-129472892D01*
X98356101Y-129293568D01*
X98223142Y-129222500D01*
X98356101Y-129151432D01*
X98574608Y-128972108D01*
X98753932Y-128753601D01*
X98887182Y-128504308D01*
X98969236Y-128233809D01*
X98996943Y-127952500D01*
X98969236Y-127671191D01*
X98887182Y-127400692D01*
X98753932Y-127151399D01*
X98574608Y-126932892D01*
X98461518Y-126840081D01*
X98479482Y-126838312D01*
X98599180Y-126802002D01*
X98709494Y-126743037D01*
X98806185Y-126663685D01*
X98885537Y-126566994D01*
X98944502Y-126456680D01*
X98980812Y-126336982D01*
X98993072Y-126212500D01*
X98993072Y-125253755D01*
X103105976Y-125253755D01*
X103105976Y-125536425D01*
X103161123Y-125813664D01*
X103269296Y-126074817D01*
X103426339Y-126309849D01*
X103626217Y-126509727D01*
X103861249Y-126666770D01*
X104122402Y-126774943D01*
X104399641Y-126830090D01*
X104682311Y-126830090D01*
X104956584Y-126775533D01*
X104902027Y-127049806D01*
X104902027Y-127332476D01*
X104957174Y-127609715D01*
X105065347Y-127870868D01*
X105222390Y-128105900D01*
X105422268Y-128305778D01*
X105657300Y-128462821D01*
X105918453Y-128570994D01*
X106195692Y-128626141D01*
X106478362Y-128626141D01*
X106752635Y-128571584D01*
X106698078Y-128845858D01*
X106698078Y-129128528D01*
X106753225Y-129405767D01*
X106861398Y-129666920D01*
X107018441Y-129901952D01*
X107218319Y-130101830D01*
X107453351Y-130258873D01*
X107714504Y-130367046D01*
X107991743Y-130422193D01*
X108274413Y-130422193D01*
X108548686Y-130367636D01*
X108494129Y-130641909D01*
X108494129Y-130924579D01*
X108549276Y-131201818D01*
X108657449Y-131462971D01*
X108814492Y-131698003D01*
X109014370Y-131897881D01*
X109249402Y-132054924D01*
X109510555Y-132163097D01*
X109787794Y-132218244D01*
X110070464Y-132218244D01*
X110344737Y-132163687D01*
X110290180Y-132437960D01*
X110290180Y-132720630D01*
X110345327Y-132997869D01*
X110453500Y-133259022D01*
X110610543Y-133494054D01*
X110810421Y-133693932D01*
X111045453Y-133850975D01*
X111306606Y-133959148D01*
X111583845Y-134014295D01*
X111866515Y-134014295D01*
X112140789Y-133959738D01*
X112086232Y-134234011D01*
X112086232Y-134516681D01*
X112141379Y-134793920D01*
X112249552Y-135055073D01*
X112406595Y-135290105D01*
X112606473Y-135489983D01*
X112841505Y-135647026D01*
X113102658Y-135755199D01*
X113379897Y-135810346D01*
X113662567Y-135810346D01*
X113936840Y-135755789D01*
X113882283Y-136030063D01*
X113882283Y-136312733D01*
X113937430Y-136589972D01*
X114045603Y-136851125D01*
X114202646Y-137086157D01*
X114402524Y-137286035D01*
X114637556Y-137443078D01*
X114898709Y-137551251D01*
X115175948Y-137606398D01*
X115458618Y-137606398D01*
X115732891Y-137551841D01*
X115678334Y-137826114D01*
X115678334Y-138108784D01*
X115733481Y-138386023D01*
X115841654Y-138647176D01*
X115998697Y-138882208D01*
X116198575Y-139082086D01*
X116433607Y-139239129D01*
X116694760Y-139347302D01*
X116971999Y-139402449D01*
X117254669Y-139402449D01*
X117528942Y-139347892D01*
X117474385Y-139622165D01*
X117474385Y-139904835D01*
X117529532Y-140182074D01*
X117637705Y-140443227D01*
X117794748Y-140678259D01*
X117994626Y-140878137D01*
X118229658Y-141035180D01*
X118490811Y-141143353D01*
X118768050Y-141198500D01*
X119050720Y-141198500D01*
X119324994Y-141143943D01*
X119270437Y-141418216D01*
X119270437Y-141700886D01*
X119325584Y-141978125D01*
X119433757Y-142239278D01*
X119590800Y-142474310D01*
X119790678Y-142674188D01*
X120025710Y-142831231D01*
X120286863Y-142939404D01*
X120564102Y-142994551D01*
X120846772Y-142994551D01*
X121121045Y-142939994D01*
X121066488Y-143214267D01*
X121066488Y-143496937D01*
X121121635Y-143774176D01*
X121229808Y-144035329D01*
X121386851Y-144270361D01*
X121586729Y-144470239D01*
X121821761Y-144627282D01*
X122082914Y-144735455D01*
X122360153Y-144790602D01*
X122642823Y-144790602D01*
X122917096Y-144736045D01*
X122862539Y-145010319D01*
X122862539Y-145292989D01*
X122917686Y-145570228D01*
X123025859Y-145831381D01*
X123182902Y-146066413D01*
X123382780Y-146266291D01*
X123617812Y-146423334D01*
X123878965Y-146531507D01*
X124156204Y-146586654D01*
X124438874Y-146586654D01*
X124713147Y-146532097D01*
X124658590Y-146806370D01*
X124658590Y-147089040D01*
X124713737Y-147366279D01*
X124821910Y-147627432D01*
X124978953Y-147862464D01*
X125178831Y-148062342D01*
X125413863Y-148219385D01*
X125675016Y-148327558D01*
X125952255Y-148382705D01*
X126234925Y-148382705D01*
X126512164Y-148327558D01*
X126522756Y-148323171D01*
X126470113Y-148533566D01*
X126456383Y-148814541D01*
X126497732Y-149092796D01*
X126592572Y-149357637D01*
X126658608Y-149481173D01*
X126901873Y-149551919D01*
X127710036Y-148743756D01*
X127695894Y-148729614D01*
X127875499Y-148550009D01*
X127889641Y-148564151D01*
X128697804Y-147755988D01*
X128627058Y-147512723D01*
X128503522Y-147446687D01*
X128238681Y-147351847D01*
X127960426Y-147310498D01*
X127679451Y-147324228D01*
X127469056Y-147376871D01*
X127473443Y-147366279D01*
X127528590Y-147089040D01*
X127528590Y-146806370D01*
X127473443Y-146529131D01*
X127365270Y-146267978D01*
X127208227Y-146032946D01*
X127008349Y-145833068D01*
X126773317Y-145676025D01*
X126512164Y-145567852D01*
X126234925Y-145512705D01*
X125952255Y-145512705D01*
X125677982Y-145567262D01*
X125732539Y-145292989D01*
X125732539Y-145010319D01*
X125677392Y-144733080D01*
X125569219Y-144471927D01*
X125412176Y-144236895D01*
X125212298Y-144037017D01*
X124977266Y-143879974D01*
X124716113Y-143771801D01*
X124438874Y-143716654D01*
X124156204Y-143716654D01*
X123881931Y-143771211D01*
X123936488Y-143496937D01*
X123936488Y-143214267D01*
X123881341Y-142937028D01*
X123773168Y-142675875D01*
X123616125Y-142440843D01*
X123416247Y-142240965D01*
X123181215Y-142083922D01*
X122920062Y-141975749D01*
X122642823Y-141920602D01*
X122360153Y-141920602D01*
X122085880Y-141975159D01*
X122140437Y-141700886D01*
X122140437Y-141418216D01*
X122085290Y-141140977D01*
X121977117Y-140879824D01*
X121820074Y-140644792D01*
X121620196Y-140444914D01*
X121385164Y-140287871D01*
X121124011Y-140179698D01*
X120846772Y-140124551D01*
X120564102Y-140124551D01*
X120289828Y-140179108D01*
X120344385Y-139904835D01*
X120344385Y-139622165D01*
X120289238Y-139344926D01*
X120181065Y-139083773D01*
X120024022Y-138848741D01*
X119824144Y-138648863D01*
X119589112Y-138491820D01*
X119327959Y-138383647D01*
X119050720Y-138328500D01*
X118768050Y-138328500D01*
X118493777Y-138383057D01*
X118548334Y-138108784D01*
X118548334Y-137826114D01*
X118493187Y-137548875D01*
X118426115Y-137386948D01*
X120418981Y-137386948D01*
X120418981Y-137709014D01*
X120481813Y-138024893D01*
X120605063Y-138322444D01*
X120783994Y-138590233D01*
X121011729Y-138817968D01*
X121279518Y-138996899D01*
X121577069Y-139120149D01*
X121892948Y-139182981D01*
X122215014Y-139182981D01*
X122530893Y-139120149D01*
X122828444Y-138996899D01*
X123096233Y-138817968D01*
X123323968Y-138590233D01*
X123502899Y-138322444D01*
X123626149Y-138024893D01*
X123688981Y-137709014D01*
X123688981Y-137386948D01*
X123626149Y-137071069D01*
X123502899Y-136773518D01*
X123323968Y-136505729D01*
X123096233Y-136277994D01*
X122828444Y-136099063D01*
X122530893Y-135975813D01*
X122215014Y-135912981D01*
X121892948Y-135912981D01*
X121577069Y-135975813D01*
X121279518Y-136099063D01*
X121011729Y-136277994D01*
X120783994Y-136505729D01*
X120605063Y-136773518D01*
X120481813Y-137071069D01*
X120418981Y-137386948D01*
X118426115Y-137386948D01*
X118385014Y-137287722D01*
X118227971Y-137052690D01*
X118028093Y-136852812D01*
X117793061Y-136695769D01*
X117531908Y-136587596D01*
X117254669Y-136532449D01*
X116971999Y-136532449D01*
X116697726Y-136587006D01*
X116752283Y-136312733D01*
X116752283Y-136030063D01*
X116697136Y-135752824D01*
X116588963Y-135491671D01*
X116431920Y-135256639D01*
X116232042Y-135056761D01*
X115997010Y-134899718D01*
X115735857Y-134791545D01*
X115515311Y-134747675D01*
X117274039Y-134747675D01*
X117379204Y-135052088D01*
X117541737Y-135330135D01*
X117755391Y-135571131D01*
X118011956Y-135765814D01*
X118301572Y-135906703D01*
X118490325Y-135963961D01*
X118745000Y-135844717D01*
X118745000Y-134493000D01*
X118999000Y-134493000D01*
X118999000Y-135844717D01*
X119253675Y-135963961D01*
X119558088Y-135858796D01*
X119836135Y-135696263D01*
X120077131Y-135482609D01*
X120167804Y-135363114D01*
X134265683Y-135363114D01*
X134336429Y-135606379D01*
X134459965Y-135672415D01*
X134724806Y-135767255D01*
X135003061Y-135808604D01*
X135284036Y-135794874D01*
X135494433Y-135742230D01*
X135490045Y-135752824D01*
X135434898Y-136030063D01*
X135434898Y-136312733D01*
X135490045Y-136589972D01*
X135598218Y-136851125D01*
X135755261Y-137086157D01*
X135955139Y-137286035D01*
X136190171Y-137443078D01*
X136451324Y-137551251D01*
X136728563Y-137606398D01*
X137011233Y-137606398D01*
X137285506Y-137551841D01*
X137230949Y-137826114D01*
X137230949Y-138108784D01*
X137286096Y-138386023D01*
X137394269Y-138647176D01*
X137551312Y-138882208D01*
X137751190Y-139082086D01*
X137986222Y-139239129D01*
X138247375Y-139347302D01*
X138524614Y-139402449D01*
X138805473Y-139402449D01*
X138800092Y-139409006D01*
X138741127Y-139519320D01*
X138704817Y-139639018D01*
X138692557Y-139763500D01*
X138704817Y-139887982D01*
X138741127Y-140007680D01*
X138800092Y-140117994D01*
X138879444Y-140214685D01*
X140010815Y-141346056D01*
X140107506Y-141425408D01*
X140217820Y-141484373D01*
X140337518Y-141520683D01*
X140462000Y-141532943D01*
X140586482Y-141520683D01*
X140706180Y-141484373D01*
X140816494Y-141425408D01*
X140913185Y-141346056D01*
X142044556Y-140214685D01*
X142123908Y-140117994D01*
X142182873Y-140007680D01*
X142219183Y-139887982D01*
X142231443Y-139763500D01*
X142219183Y-139639018D01*
X142182873Y-139519320D01*
X142123908Y-139409006D01*
X142044556Y-139312315D01*
X140913185Y-138180944D01*
X140816494Y-138101592D01*
X140706180Y-138042627D01*
X140586482Y-138006317D01*
X140462000Y-137994057D01*
X140337518Y-138006317D01*
X140217820Y-138042627D01*
X140107506Y-138101592D01*
X140100949Y-138106973D01*
X140100949Y-137826114D01*
X140045802Y-137548875D01*
X139937629Y-137287722D01*
X139780586Y-137052690D01*
X139580708Y-136852812D01*
X139345676Y-136695769D01*
X139084523Y-136587596D01*
X138807284Y-136532449D01*
X138524614Y-136532449D01*
X138250341Y-136587006D01*
X138304898Y-136312733D01*
X138304898Y-136030063D01*
X138249751Y-135752824D01*
X138141578Y-135491671D01*
X137984535Y-135256639D01*
X137784657Y-135056761D01*
X137549625Y-134899718D01*
X137288472Y-134791545D01*
X137011233Y-134736398D01*
X136728563Y-134736398D01*
X136451324Y-134791545D01*
X136440730Y-134795933D01*
X136493374Y-134585536D01*
X136507104Y-134304561D01*
X136465755Y-134026306D01*
X136370915Y-133761465D01*
X136304879Y-133637929D01*
X136061614Y-133567183D01*
X135253451Y-134375346D01*
X135267594Y-134389489D01*
X135087989Y-134569094D01*
X135073846Y-134554951D01*
X134265683Y-135363114D01*
X120167804Y-135363114D01*
X120271814Y-135226044D01*
X120412703Y-134936428D01*
X120469961Y-134747675D01*
X120350717Y-134493000D01*
X118999000Y-134493000D01*
X118745000Y-134493000D01*
X117393283Y-134493000D01*
X117274039Y-134747675D01*
X115515311Y-134747675D01*
X115458618Y-134736398D01*
X115175948Y-134736398D01*
X114901675Y-134790955D01*
X114956232Y-134516681D01*
X114956232Y-134234011D01*
X114906566Y-133984325D01*
X117274039Y-133984325D01*
X117393283Y-134239000D01*
X118745000Y-134239000D01*
X118745000Y-132887283D01*
X118999000Y-132887283D01*
X118999000Y-134239000D01*
X120350717Y-134239000D01*
X120469961Y-133984325D01*
X120364796Y-133679912D01*
X120202263Y-133401865D01*
X119988609Y-133160869D01*
X119732044Y-132966186D01*
X119442428Y-132825297D01*
X119328553Y-132790753D01*
X125015175Y-132790753D01*
X125015175Y-133112819D01*
X125078007Y-133428698D01*
X125201257Y-133726249D01*
X125380188Y-133994038D01*
X125607923Y-134221773D01*
X125875712Y-134400704D01*
X126173263Y-134523954D01*
X126489142Y-134586786D01*
X126811208Y-134586786D01*
X127127087Y-134523954D01*
X127424638Y-134400704D01*
X127692427Y-134221773D01*
X127920162Y-133994038D01*
X128099093Y-133726249D01*
X128222343Y-133428698D01*
X128285175Y-133112819D01*
X128285175Y-132790753D01*
X128222343Y-132474874D01*
X128099093Y-132177323D01*
X127920162Y-131909534D01*
X127692427Y-131681799D01*
X127424638Y-131502868D01*
X127127087Y-131379618D01*
X126811208Y-131316786D01*
X126489142Y-131316786D01*
X126173263Y-131379618D01*
X125875712Y-131502868D01*
X125607923Y-131681799D01*
X125380188Y-131909534D01*
X125201257Y-132177323D01*
X125078007Y-132474874D01*
X125015175Y-132790753D01*
X119328553Y-132790753D01*
X119253675Y-132768039D01*
X118999000Y-132887283D01*
X118745000Y-132887283D01*
X118490325Y-132768039D01*
X118185912Y-132873204D01*
X117907865Y-133035737D01*
X117666869Y-133249391D01*
X117472186Y-133505956D01*
X117331297Y-133795572D01*
X117274039Y-133984325D01*
X114906566Y-133984325D01*
X114901085Y-133956772D01*
X114792912Y-133695619D01*
X114635869Y-133460587D01*
X114435991Y-133260709D01*
X114200959Y-133103666D01*
X113939806Y-132995493D01*
X113662567Y-132940346D01*
X113379897Y-132940346D01*
X113105623Y-132994903D01*
X113160180Y-132720630D01*
X113160180Y-132437960D01*
X113105033Y-132160721D01*
X112996860Y-131899568D01*
X112839817Y-131664536D01*
X112639939Y-131464658D01*
X112404907Y-131307615D01*
X112143754Y-131199442D01*
X111866515Y-131144295D01*
X111583845Y-131144295D01*
X111309572Y-131198852D01*
X111364129Y-130924579D01*
X111364129Y-130641909D01*
X111308982Y-130364670D01*
X111220677Y-130151481D01*
X121870233Y-130151481D01*
X121975398Y-130455894D01*
X122137931Y-130733941D01*
X122351585Y-130974937D01*
X122608150Y-131169620D01*
X122897766Y-131310509D01*
X123086519Y-131367767D01*
X123341194Y-131248523D01*
X123341194Y-129896806D01*
X123595194Y-129896806D01*
X123595194Y-131248523D01*
X123849869Y-131367767D01*
X124154282Y-131262602D01*
X124432329Y-131100069D01*
X124673325Y-130886415D01*
X124868008Y-130629850D01*
X125008897Y-130340234D01*
X125066155Y-130151481D01*
X124946911Y-129896806D01*
X123595194Y-129896806D01*
X123341194Y-129896806D01*
X121989477Y-129896806D01*
X121870233Y-130151481D01*
X111220677Y-130151481D01*
X111200809Y-130103517D01*
X111043766Y-129868485D01*
X110843888Y-129668607D01*
X110608856Y-129511564D01*
X110347703Y-129403391D01*
X110270987Y-129388131D01*
X121870233Y-129388131D01*
X121989477Y-129642806D01*
X123341194Y-129642806D01*
X123341194Y-128291089D01*
X123595194Y-128291089D01*
X123595194Y-129642806D01*
X124946911Y-129642806D01*
X125066155Y-129388131D01*
X124960990Y-129083718D01*
X124798457Y-128805671D01*
X124584803Y-128564675D01*
X124328238Y-128369992D01*
X124038622Y-128229103D01*
X123849869Y-128171845D01*
X123595194Y-128291089D01*
X123341194Y-128291089D01*
X123086519Y-128171845D01*
X122782106Y-128277010D01*
X122504059Y-128439543D01*
X122263063Y-128653197D01*
X122068380Y-128909762D01*
X121927491Y-129199378D01*
X121870233Y-129388131D01*
X110270987Y-129388131D01*
X110070464Y-129348244D01*
X109787794Y-129348244D01*
X109513521Y-129402801D01*
X109568078Y-129128528D01*
X109568078Y-128845858D01*
X109512931Y-128568619D01*
X109404758Y-128307466D01*
X109247715Y-128072434D01*
X109047837Y-127872556D01*
X108812805Y-127715513D01*
X108551652Y-127607340D01*
X108274413Y-127552193D01*
X107991743Y-127552193D01*
X107717470Y-127606750D01*
X107772027Y-127332476D01*
X107772027Y-127049806D01*
X107716880Y-126772567D01*
X107608707Y-126511414D01*
X107451664Y-126276382D01*
X107251786Y-126076504D01*
X107016754Y-125919461D01*
X106755601Y-125811288D01*
X106478362Y-125756141D01*
X106195692Y-125756141D01*
X105921419Y-125810698D01*
X105975976Y-125536425D01*
X105975976Y-125253755D01*
X105920829Y-124976516D01*
X105812656Y-124715363D01*
X105655613Y-124480331D01*
X105455735Y-124280453D01*
X105220703Y-124123410D01*
X104959550Y-124015237D01*
X104682311Y-123960090D01*
X104399641Y-123960090D01*
X104122402Y-124015237D01*
X103861249Y-124123410D01*
X103626217Y-124280453D01*
X103426339Y-124480331D01*
X103269296Y-124715363D01*
X103161123Y-124976516D01*
X103105976Y-125253755D01*
X98993072Y-125253755D01*
X98993072Y-124612500D01*
X98980812Y-124488018D01*
X98944502Y-124368320D01*
X98885537Y-124258006D01*
X98806185Y-124161315D01*
X98709494Y-124081963D01*
X98599180Y-124022998D01*
X98479482Y-123986688D01*
X98355000Y-123974428D01*
X95955000Y-123974428D01*
X95830518Y-123986688D01*
X95710820Y-124022998D01*
X95600506Y-124081963D01*
X95503815Y-124161315D01*
X95424463Y-124258006D01*
X95365498Y-124368320D01*
X95329188Y-124488018D01*
X95316928Y-124612500D01*
X95316928Y-126212500D01*
X95329188Y-126336982D01*
X95365498Y-126456680D01*
X95424463Y-126566994D01*
X95503815Y-126663685D01*
X95600506Y-126743037D01*
X95710820Y-126802002D01*
X95830518Y-126838312D01*
X95848482Y-126840081D01*
X95735392Y-126932892D01*
X95556068Y-127151399D01*
X95422818Y-127400692D01*
X95340764Y-127671191D01*
X95313057Y-127952500D01*
X95340764Y-128233809D01*
X95422818Y-128504308D01*
X95556068Y-128753601D01*
X95735392Y-128972108D01*
X95953899Y-129151432D01*
X96086858Y-129222500D01*
X95953899Y-129293568D01*
X95735392Y-129472892D01*
X95556068Y-129691399D01*
X95422818Y-129940692D01*
X95340764Y-130211191D01*
X95313057Y-130492500D01*
X95340764Y-130773809D01*
X95422818Y-131044308D01*
X95556068Y-131293601D01*
X95735392Y-131512108D01*
X95953899Y-131691432D01*
X96086858Y-131762500D01*
X95953899Y-131833568D01*
X95735392Y-132012892D01*
X95556068Y-132231399D01*
X95422818Y-132480692D01*
X95340764Y-132751191D01*
X95313057Y-133032500D01*
X95340764Y-133313809D01*
X95417841Y-133567900D01*
X94385625Y-133567900D01*
X94348300Y-133564224D01*
X94310975Y-133567900D01*
X94310967Y-133567900D01*
X94199314Y-133578897D01*
X94056053Y-133622354D01*
X93924024Y-133692926D01*
X93808299Y-133787899D01*
X93784501Y-133816897D01*
X93051199Y-134550200D01*
X92989061Y-134550200D01*
X92789102Y-134589974D01*
X92600744Y-134667995D01*
X92431226Y-134781263D01*
X92287063Y-134925426D01*
X92173795Y-135094944D01*
X92095774Y-135283302D01*
X92056000Y-135483261D01*
X91368154Y-135483261D01*
X91349236Y-135291191D01*
X91267182Y-135020692D01*
X91133932Y-134771399D01*
X90954608Y-134552892D01*
X90736101Y-134373568D01*
X90608259Y-134305235D01*
X90837839Y-134155101D01*
X91039500Y-133957395D01*
X91198715Y-133724146D01*
X91309367Y-133464318D01*
X91326904Y-133381539D01*
X91204915Y-133159500D01*
X89662000Y-133159500D01*
X89662000Y-133179500D01*
X89408000Y-133179500D01*
X89408000Y-133159500D01*
X87865085Y-133159500D01*
X87743096Y-133381539D01*
X87760633Y-133464318D01*
X87871285Y-133724146D01*
X88030500Y-133957395D01*
X88232161Y-134155101D01*
X88461741Y-134305235D01*
X88333899Y-134373568D01*
X88115392Y-134552892D01*
X87936068Y-134771399D01*
X87802818Y-135020692D01*
X87720764Y-135291191D01*
X87693057Y-135572500D01*
X87720764Y-135853809D01*
X87726892Y-135874010D01*
X85735846Y-135874010D01*
X85761236Y-135790309D01*
X85788943Y-135509000D01*
X85761236Y-135227691D01*
X85679182Y-134957192D01*
X85545932Y-134707899D01*
X85499660Y-134651517D01*
X85520991Y-134634011D01*
X85544793Y-134605008D01*
X86236002Y-133913799D01*
X86265001Y-133890001D01*
X86311287Y-133833601D01*
X86359974Y-133774277D01*
X86430546Y-133642247D01*
X86448121Y-133584308D01*
X86474003Y-133498986D01*
X86485000Y-133387333D01*
X86485000Y-133387324D01*
X86488676Y-133350001D01*
X86485000Y-133312678D01*
X86485000Y-131252500D01*
X87914099Y-131252500D01*
X87936068Y-131293601D01*
X88115392Y-131512108D01*
X88333899Y-131691432D01*
X88461741Y-131759765D01*
X88232161Y-131909899D01*
X88030500Y-132107605D01*
X87871285Y-132340854D01*
X87760633Y-132600682D01*
X87743096Y-132683461D01*
X87865085Y-132905500D01*
X89408000Y-132905500D01*
X89408000Y-132885500D01*
X89662000Y-132885500D01*
X89662000Y-132905500D01*
X91204915Y-132905500D01*
X91326904Y-132683461D01*
X91309367Y-132600682D01*
X91198715Y-132340854D01*
X91039500Y-132107605D01*
X90837839Y-131909899D01*
X90608259Y-131759765D01*
X90736101Y-131691432D01*
X90954608Y-131512108D01*
X91133932Y-131293601D01*
X91267182Y-131044308D01*
X91349236Y-130773809D01*
X91376943Y-130492500D01*
X91349236Y-130211191D01*
X91267182Y-129940692D01*
X91232629Y-129876047D01*
X91267376Y-129857474D01*
X91383101Y-129762501D01*
X91406904Y-129733497D01*
X91823998Y-129316403D01*
X91853001Y-129292601D01*
X91929507Y-129199378D01*
X91947974Y-129176877D01*
X92018546Y-129044847D01*
X92033970Y-128994000D01*
X92062003Y-128901586D01*
X92073000Y-128789933D01*
X92073000Y-128789923D01*
X92076676Y-128752600D01*
X92073000Y-128715277D01*
X92073000Y-127411611D01*
X92116937Y-127367674D01*
X92230205Y-127198156D01*
X92308226Y-127009798D01*
X92348000Y-126809839D01*
X92348000Y-126605961D01*
X92308226Y-126406002D01*
X92230205Y-126217644D01*
X92116937Y-126048126D01*
X91972774Y-125903963D01*
X91803256Y-125790695D01*
X91614898Y-125712674D01*
X91414939Y-125672900D01*
X91351295Y-125672900D01*
X91376943Y-125412500D01*
X91349236Y-125131191D01*
X91267182Y-124860692D01*
X91133932Y-124611399D01*
X90954608Y-124392892D01*
X90736101Y-124213568D01*
X90486808Y-124080318D01*
X90216309Y-123998264D01*
X90005492Y-123977500D01*
X89064508Y-123977500D01*
X88853691Y-123998264D01*
X88583192Y-124080318D01*
X88333899Y-124213568D01*
X88115392Y-124392892D01*
X87936068Y-124611399D01*
X87802818Y-124860692D01*
X87720764Y-125131191D01*
X87693057Y-125412500D01*
X87720764Y-125693809D01*
X87802818Y-125964308D01*
X87936068Y-126213601D01*
X88115392Y-126432108D01*
X88333899Y-126611432D01*
X88466858Y-126682500D01*
X88333899Y-126753568D01*
X88115392Y-126932892D01*
X87936068Y-127151399D01*
X87802818Y-127400692D01*
X87720764Y-127671191D01*
X87693057Y-127952500D01*
X87720764Y-128233809D01*
X87790136Y-128462500D01*
X85667587Y-128462500D01*
X85679182Y-128440808D01*
X85761236Y-128170309D01*
X85788943Y-127889000D01*
X85761236Y-127607691D01*
X85679182Y-127337192D01*
X85545932Y-127087899D01*
X85366608Y-126869392D01*
X85253518Y-126776581D01*
X85271482Y-126774812D01*
X85391180Y-126738502D01*
X85501494Y-126679537D01*
X85598185Y-126600185D01*
X85677537Y-126503494D01*
X85736502Y-126393180D01*
X85772812Y-126273482D01*
X85785072Y-126149000D01*
X85785072Y-124549000D01*
X85772812Y-124424518D01*
X85736502Y-124304820D01*
X85677537Y-124194506D01*
X85598185Y-124097815D01*
X85501494Y-124018463D01*
X85391180Y-123959498D01*
X85271482Y-123923188D01*
X85147000Y-123910928D01*
X82747000Y-123910928D01*
X82622518Y-123923188D01*
X82502820Y-123959498D01*
X82392506Y-124018463D01*
X82295815Y-124097815D01*
X82216463Y-124194506D01*
X82157498Y-124304820D01*
X82121188Y-124424518D01*
X82108928Y-124549000D01*
X82108928Y-126149000D01*
X82121188Y-126273482D01*
X82157498Y-126393180D01*
X82216463Y-126503494D01*
X82295815Y-126600185D01*
X82392506Y-126679537D01*
X82502820Y-126738502D01*
X82622518Y-126774812D01*
X82640482Y-126776581D01*
X82527392Y-126869392D01*
X82348068Y-127087899D01*
X82214818Y-127337192D01*
X82132764Y-127607691D01*
X82105057Y-127889000D01*
X82132764Y-128170309D01*
X82214818Y-128440808D01*
X82226413Y-128462500D01*
X79020825Y-128462500D01*
X78983500Y-128458824D01*
X78946175Y-128462500D01*
X78946167Y-128462500D01*
X78834514Y-128473497D01*
X78691253Y-128516954D01*
X78559224Y-128587526D01*
X78443499Y-128682499D01*
X78419701Y-128711497D01*
X77732986Y-129398213D01*
X77528101Y-129230068D01*
X77395142Y-129159000D01*
X77528101Y-129087932D01*
X77746608Y-128908608D01*
X77925932Y-128690101D01*
X78059182Y-128440808D01*
X78141236Y-128170309D01*
X78168943Y-127889000D01*
X78141236Y-127607691D01*
X78059182Y-127337192D01*
X77925932Y-127087899D01*
X77746608Y-126869392D01*
X77528101Y-126690068D01*
X77395142Y-126619000D01*
X77528101Y-126547932D01*
X77746608Y-126368608D01*
X77925932Y-126150101D01*
X78059182Y-125900808D01*
X78141236Y-125630309D01*
X78168943Y-125349000D01*
X78141236Y-125067691D01*
X78059182Y-124797192D01*
X77925932Y-124547899D01*
X77746608Y-124329392D01*
X77528101Y-124150068D01*
X77278808Y-124016818D01*
X77008309Y-123934764D01*
X76797492Y-123914000D01*
X75975436Y-123914000D01*
X76308007Y-123542277D01*
X78086850Y-121791437D01*
X79973157Y-120156943D01*
X81959332Y-118645377D01*
X84037377Y-117262825D01*
X86198926Y-116014854D01*
X88435274Y-114906490D01*
X89459561Y-114477448D01*
X113882283Y-114477448D01*
X113882283Y-114760118D01*
X113937430Y-115037357D01*
X114045603Y-115298510D01*
X114202646Y-115533542D01*
X114402524Y-115733420D01*
X114637556Y-115890463D01*
X114898709Y-115998636D01*
X115175948Y-116053783D01*
X115458618Y-116053783D01*
X115732891Y-115999226D01*
X115678334Y-116273499D01*
X115678334Y-116556169D01*
X115733481Y-116833408D01*
X115841654Y-117094561D01*
X115998697Y-117329593D01*
X116198575Y-117529471D01*
X116433607Y-117686514D01*
X116694760Y-117794687D01*
X116971999Y-117849834D01*
X117254669Y-117849834D01*
X117528942Y-117795277D01*
X117474385Y-118069550D01*
X117474385Y-118352220D01*
X117529532Y-118629459D01*
X117637705Y-118890612D01*
X117794748Y-119125644D01*
X117994626Y-119325522D01*
X118229658Y-119482565D01*
X118490811Y-119590738D01*
X118768050Y-119645885D01*
X119050720Y-119645885D01*
X119324994Y-119591328D01*
X119270437Y-119865602D01*
X119270437Y-120148272D01*
X119325584Y-120425511D01*
X119433757Y-120686664D01*
X119590800Y-120921696D01*
X119790678Y-121121574D01*
X120025710Y-121278617D01*
X120286863Y-121386790D01*
X120564102Y-121441937D01*
X120846772Y-121441937D01*
X121121045Y-121387380D01*
X121066488Y-121661653D01*
X121066488Y-121944323D01*
X121121635Y-122221562D01*
X121229808Y-122482715D01*
X121386851Y-122717747D01*
X121586729Y-122917625D01*
X121821761Y-123074668D01*
X122082914Y-123182841D01*
X122360153Y-123237988D01*
X122642823Y-123237988D01*
X122917096Y-123183431D01*
X122862539Y-123457704D01*
X122862539Y-123740374D01*
X122917686Y-124017613D01*
X123025859Y-124278766D01*
X123182902Y-124513798D01*
X123382780Y-124713676D01*
X123617812Y-124870719D01*
X123878965Y-124978892D01*
X124156204Y-125034039D01*
X124438874Y-125034039D01*
X124713147Y-124979482D01*
X124658590Y-125253755D01*
X124658590Y-125536425D01*
X124713737Y-125813664D01*
X124821910Y-126074817D01*
X124978953Y-126309849D01*
X125178831Y-126509727D01*
X125413863Y-126666770D01*
X125675016Y-126774943D01*
X125952255Y-126830090D01*
X126234925Y-126830090D01*
X126509198Y-126775533D01*
X126454641Y-127049806D01*
X126454641Y-127332476D01*
X126509788Y-127609715D01*
X126617961Y-127870868D01*
X126775004Y-128105900D01*
X126974882Y-128305778D01*
X127209914Y-128462821D01*
X127471067Y-128570994D01*
X127748306Y-128626141D01*
X128030976Y-128626141D01*
X128305250Y-128571584D01*
X128250693Y-128845858D01*
X128250693Y-129128528D01*
X128305840Y-129405767D01*
X128414013Y-129666920D01*
X128571056Y-129901952D01*
X128770934Y-130101830D01*
X129005966Y-130258873D01*
X129267119Y-130367046D01*
X129544358Y-130422193D01*
X129827028Y-130422193D01*
X130101301Y-130367636D01*
X130046744Y-130641909D01*
X130046744Y-130924579D01*
X130101891Y-131201818D01*
X130210064Y-131462971D01*
X130367107Y-131698003D01*
X130566985Y-131897881D01*
X130802017Y-132054924D01*
X131063170Y-132163097D01*
X131340409Y-132218244D01*
X131623079Y-132218244D01*
X131897352Y-132163687D01*
X131842795Y-132437960D01*
X131842795Y-132720630D01*
X131897942Y-132997869D01*
X132006115Y-133259022D01*
X132163158Y-133494054D01*
X132363036Y-133693932D01*
X132598068Y-133850975D01*
X132859221Y-133959148D01*
X133136460Y-134014295D01*
X133419130Y-134014295D01*
X133696369Y-133959148D01*
X133706961Y-133954761D01*
X133654318Y-134165156D01*
X133640588Y-134446131D01*
X133681937Y-134724386D01*
X133776777Y-134989227D01*
X133842813Y-135112763D01*
X134086078Y-135183509D01*
X134894241Y-134375346D01*
X134880099Y-134361204D01*
X135059704Y-134181599D01*
X135073846Y-134195741D01*
X135882009Y-133387578D01*
X135811263Y-133144313D01*
X135687727Y-133078277D01*
X135422886Y-132983437D01*
X135144631Y-132942088D01*
X134863656Y-132955818D01*
X134653261Y-133008461D01*
X134657648Y-132997869D01*
X134712795Y-132720630D01*
X134712795Y-132437960D01*
X134657648Y-132160721D01*
X134549475Y-131899568D01*
X134392432Y-131664536D01*
X134192554Y-131464658D01*
X133957522Y-131307615D01*
X133696369Y-131199442D01*
X133419130Y-131144295D01*
X133136460Y-131144295D01*
X132862187Y-131198852D01*
X132916744Y-130924579D01*
X132916744Y-130641909D01*
X132861597Y-130364670D01*
X132753424Y-130103517D01*
X132596381Y-129868485D01*
X132396503Y-129668607D01*
X132161471Y-129511564D01*
X131900318Y-129403391D01*
X131623079Y-129348244D01*
X131340409Y-129348244D01*
X131066136Y-129402801D01*
X131120693Y-129128528D01*
X131120693Y-128845858D01*
X131065546Y-128568619D01*
X130957373Y-128307466D01*
X130800330Y-128072434D01*
X130600452Y-127872556D01*
X130365420Y-127715513D01*
X130104267Y-127607340D01*
X129827028Y-127552193D01*
X129544358Y-127552193D01*
X129270084Y-127606750D01*
X129324641Y-127332476D01*
X129324641Y-127049806D01*
X129269494Y-126772567D01*
X129161321Y-126511414D01*
X129004278Y-126276382D01*
X128804400Y-126076504D01*
X128569368Y-125919461D01*
X128326457Y-125818844D01*
X131889363Y-125818844D01*
X131966133Y-126067188D01*
X132101798Y-126139707D01*
X132376159Y-126237031D01*
X132664236Y-126278960D01*
X132954957Y-126263882D01*
X133237151Y-126192376D01*
X133499972Y-126067192D01*
X133577205Y-125819310D01*
X132733051Y-124975156D01*
X131889363Y-125818844D01*
X128326457Y-125818844D01*
X128308215Y-125811288D01*
X128030976Y-125756141D01*
X127748306Y-125756141D01*
X127474033Y-125810698D01*
X127528590Y-125536425D01*
X127528590Y-125253755D01*
X127473443Y-124976516D01*
X127365270Y-124715363D01*
X127208227Y-124480331D01*
X127008349Y-124280453D01*
X126773317Y-124123410D01*
X126512164Y-124015237D01*
X126234925Y-123960090D01*
X125952255Y-123960090D01*
X125677982Y-124014647D01*
X125732539Y-123740374D01*
X125732539Y-123457704D01*
X125677392Y-123180465D01*
X125569219Y-122919312D01*
X125412176Y-122684280D01*
X125212298Y-122484402D01*
X124977266Y-122327359D01*
X124716113Y-122219186D01*
X124438874Y-122164039D01*
X124156204Y-122164039D01*
X123881931Y-122218596D01*
X123936488Y-121944323D01*
X123936488Y-121661653D01*
X123881341Y-121384414D01*
X123773168Y-121123261D01*
X123616125Y-120888229D01*
X123416247Y-120688351D01*
X123181215Y-120531308D01*
X122920062Y-120423135D01*
X122642823Y-120367988D01*
X122360153Y-120367988D01*
X122085880Y-120422545D01*
X122140437Y-120148272D01*
X122140437Y-119865602D01*
X122085290Y-119588363D01*
X121977117Y-119327210D01*
X121820074Y-119092178D01*
X121620196Y-118892300D01*
X121385164Y-118735257D01*
X121124011Y-118627084D01*
X120846772Y-118571937D01*
X120564102Y-118571937D01*
X120289828Y-118626494D01*
X120344385Y-118352220D01*
X120344385Y-118069550D01*
X120289238Y-117792311D01*
X120181065Y-117531158D01*
X120024022Y-117296126D01*
X119824144Y-117096248D01*
X119589112Y-116939205D01*
X119327959Y-116831032D01*
X119050720Y-116775885D01*
X118768050Y-116775885D01*
X118493777Y-116830442D01*
X118548334Y-116556169D01*
X118548334Y-116273499D01*
X118493187Y-115996260D01*
X118385014Y-115735107D01*
X118227971Y-115500075D01*
X118028093Y-115300197D01*
X117793061Y-115143154D01*
X117531908Y-115034981D01*
X117254669Y-114979834D01*
X116971999Y-114979834D01*
X116697726Y-115034391D01*
X116752283Y-114760118D01*
X116752283Y-114477448D01*
X116697136Y-114200209D01*
X116588963Y-113939056D01*
X116431920Y-113704024D01*
X116232042Y-113504146D01*
X115997010Y-113347103D01*
X115735857Y-113238930D01*
X115458618Y-113183783D01*
X115175948Y-113183783D01*
X114898709Y-113238930D01*
X114637556Y-113347103D01*
X114402524Y-113504146D01*
X114202646Y-113704024D01*
X114045603Y-113939056D01*
X113937430Y-114200209D01*
X113882283Y-114477448D01*
X89459561Y-114477448D01*
X90737416Y-113942195D01*
X93096082Y-113125853D01*
X95501776Y-112460750D01*
X97944809Y-111949564D01*
X100415346Y-111594355D01*
X102903437Y-111396552D01*
X105399064Y-111356951D01*
X107892178Y-111475713D01*
M02*
